<svg width="1024" height="1024" viewBox="0 0 1024 1024" fill="none" xmlns="http://www.w3.org/2000/svg">
<g transform="translate(81.92 81.92) scale(0.84)">
<rect width="1024" height="1023" rx="199.805" fill="white"/>
<path d="M215.878 309.115C218.357 302.168 219.972 295.345 223.917 289.387C233.495 274.922 249.176 272.065 263.182 282.376C268.181 286.056 272.394 290.566 276.638 295.026C308.48 328.491 345.609 354.552 387.412 374.003C411.671 385.291 437.186 392.926 463.331 398.224C475.844 400.76 488.652 401.989 501.472 402.407C505.047 402.524 506.363 401.207 505.806 397.216C503 377.113 505.369 357.405 511.085 338.024C516.298 320.352 525.15 304.658 536.774 290.441C545.631 279.609 556.43 271.049 568.239 263.755C589.888 250.384 613.66 243.692 638.964 244.095C674.899 244.669 706.285 257.094 731.868 282.924C734.213 285.292 736.859 287.398 738.975 289.948C746.126 298.567 754.952 298.961 764.781 295.834C776.807 292.008 788.57 287.281 801.144 285.288C807.343 284.306 813.416 284.451 819.44 286.164C831.087 289.476 838.289 303.425 834.284 314.901C828.269 332.137 816.433 345.133 803.219 357.025C796.914 362.699 790.242 367.975 783.607 373.269C777.801 377.902 775.371 384.014 775.312 391.187C775.19 405.848 774.396 420.478 773.046 435.063C770.231 465.476 764.027 495.142 754.156 524.127C742.522 558.289 725.973 589.816 705.186 619.171C686.028 646.225 663.464 670.157 637.912 691.291C604.411 718.999 567.506 741 527.029 756.805C510.928 763.092 494.208 767.533 477.332 771.525C458 776.097 438.405 778.637 418.757 780.657C399.88 782.598 380.88 782.949 361.871 781.694C351.572 781.014 341.287 780.406 331.045 779.057C297.729 774.666 264.547 769.596 232.796 758.013C220.742 753.615 208.822 748.69 199.247 739.717C193.435 734.271 189.071 727.753 191.125 719.396C193.122 711.268 199.523 707.363 207.328 705.588C209.104 705.184 210.917 704.93 212.722 704.663C230.828 701.987 249.255 702.793 267.315 699.65C279.442 697.54 291.314 694.395 303.085 690.803C323.282 684.641 342.117 675.593 359.914 664.314C361.393 663.377 363.292 662.747 364.092 660.069C360.312 659.165 356.6 658.154 352.838 657.396C327.318 652.25 305.422 640.248 286.763 622.277C277.707 613.554 269.982 603.762 264.88 592.127C263.746 589.539 262.541 586.952 261.738 584.254C257.921 571.425 263.74 563.208 277.187 562.842C286.018 562.602 294.816 562.31 303.543 560.865C304.151 560.764 304.742 560.558 306.503 560.096C294.821 557.103 284.692 553.217 275.096 547.945C248.58 533.379 230.43 511.607 219.249 483.71C214.706 472.375 210.578 460.761 211.334 448.504C212.051 436.873 215 433.476 223.426 431.386C227.92 430.271 232.232 432.442 236.477 433.819C243.274 436.025 250.016 438.402 256.828 440.559C258.635 441.13 260.612 441.16 263.283 441.553C220.857 406.52 205.289 362.648 215.878 309.115Z" fill="black"/>
</g>
</svg>
