<svg width="24" height="24" viewBox="0 0 24 24" fill="none" xmlns="http://www.w3.org/2000/svg">
<g clip-path="url(#clip0_2383_2524)">
<path d="M6.545 7.61906H14.705V9.91906L11.645 10.1591C6.685 10.4991 5.125 11.8191 5.125 15.4991V16.2391C5.125 18.9391 7.005 20.5591 9.905 20.5591C12.205 20.5591 13.505 20.0191 15.125 18.3591H15.385V20.1191H18.645V4.03906H6.545V7.61906ZM14.705 15.3591C13.685 16.3791 12.185 17.0391 10.925 17.0391C9.585 17.0391 9.005 16.5391 9.045 15.4191C9.085 13.8591 9.645 13.4991 12.245 13.2591L14.705 13.0391V15.3591Z" fill="#FF8800"/>
</g>
<defs>
<clipPath id="clip0_2383_2524">
<rect width="13.56" height="16.52" fill="white" transform="translate(5.125 4.03906)"/>
</clipPath>
</defs>
</svg>
