<svg width="24" height="24" viewBox="0 0 24 24" fill="none" xmlns="http://www.w3.org/2000/svg">
<path d="M1.11761 10.108C0.797606 9.78819 0.646939 9.40578 0.665606 8.96078C0.684272 8.51578 0.870272 8.15203 1.22361 7.86953C1.97361 7.27353 2.75811 6.73369 3.57711 6.25003C4.39611 5.76619 5.25994 5.35961 6.16861 5.03028C7.02561 4.72094 7.89719 4.48278 8.78336 4.31578C9.66952 4.14861 10.5641 4.04877 11.4671 4.01627C11.8949 4.00427 12.251 4.15844 12.5354 4.47877C12.8195 4.79894 12.9426 5.18136 12.9046 5.62603C12.8666 6.07053 12.6843 6.43511 12.3576 6.71978C12.0309 7.00428 11.639 7.16086 11.1819 7.18953C10.5289 7.22686 9.88544 7.31136 9.25161 7.44303C8.61777 7.57486 7.99536 7.74744 7.38436 7.96078C6.65436 8.21944 5.95786 8.53444 5.29486 8.90578C4.63169 9.27728 4.00411 9.69869 3.41211 10.17C3.05894 10.4487 2.66402 10.5839 2.22736 10.5755C1.79086 10.5672 1.42094 10.4114 1.11761 10.108ZM7.60236 14.5308C7.12052 14.8641 6.66844 14.9779 6.24611 14.872C5.82377 14.766 5.49202 14.5594 5.25086 14.252C5.00952 13.9449 4.89186 13.5896 4.89786 13.1863C4.90386 12.7831 5.08544 12.4442 5.44261 12.1695C5.90027 11.8165 6.38644 11.5142 6.90111 11.2625C7.41577 11.0107 7.94194 10.799 8.47961 10.6275C8.96211 10.4544 9.37869 10.4763 9.72936 10.6933C10.0799 10.9104 10.3274 11.1999 10.4719 11.5618C10.6165 11.9238 10.625 12.302 10.4974 12.6965C10.3695 13.0912 10.0579 13.3814 9.56261 13.5673C9.22577 13.6808 8.88644 13.8192 8.54461 13.9825C8.20277 14.1459 7.88869 14.3286 7.60236 14.5308ZM11.2541 19.92C10.7088 19.7287 10.3091 19.3586 10.0551 18.8098C9.80111 18.2608 9.79477 17.7469 10.0361 17.2683L16.0361 5.13403C16.1148 4.98086 16.2215 4.87944 16.3564 4.82978C16.4914 4.78011 16.6399 4.78228 16.8019 4.83628C16.9512 4.89428 17.0612 4.98878 17.1319 5.11978C17.2024 5.25078 17.219 5.39286 17.1819 5.54603L13.9676 18.6663C13.8343 19.2114 13.4912 19.6119 12.9384 19.8675C12.3854 20.1232 11.8239 20.1407 11.2541 19.92ZM22.7436 9.94228C22.4738 10.2376 22.1279 10.4198 21.7059 10.4888C21.284 10.5578 20.8564 10.4074 20.4231 10.0375C20.3216 9.93603 20.1979 9.83769 20.0521 9.74253C19.9063 9.64753 19.7763 9.56194 19.6621 9.48578C19.2161 9.15394 18.9801 8.77703 18.9541 8.35503C18.9279 7.93319 19.0244 7.56194 19.2436 7.24128C19.4629 6.92061 19.7677 6.70353 20.1579 6.59003C20.548 6.47669 20.9408 6.56061 21.3361 6.84178C21.5516 6.98128 21.7767 7.13661 22.0114 7.30778C22.246 7.47894 22.4584 7.64061 22.6486 7.79278C23.0186 8.11194 23.1944 8.47619 23.1761 8.88553C23.1578 9.29469 23.0136 9.64694 22.7436 9.94228ZM19.8009 15.4598C19.5182 15.7423 19.1681 15.9085 18.7506 15.9585C18.3329 16.0085 17.9264 15.8549 17.5311 15.4978C17.5058 15.4724 17.4709 15.4375 17.4266 15.393C17.3823 15.3487 17.341 15.3139 17.3029 15.2885C16.895 14.9312 16.697 14.5416 16.7089 14.1198C16.7209 13.6978 16.8554 13.3329 17.1126 13.025C17.3699 12.717 17.7105 12.5221 18.1344 12.4403C18.5584 12.3586 18.968 12.4901 19.3634 12.8348C19.4267 12.8981 19.4996 12.9647 19.5821 13.0345C19.6644 13.1042 19.7374 13.1707 19.8009 13.234C20.158 13.5914 20.3179 13.9809 20.2806 14.4028C20.2433 14.8248 20.0834 15.1771 19.8009 15.4598Z" fill="black"/>
</svg>
