<svg width="24" height="24" viewBox="0 0 24 24" fill="none" xmlns="http://www.w3.org/2000/svg">
<path d="M18.8204 12.0745C18.8204 12.4273 18.6404 12.4849 18.194 12.4849C17.7188 12.4849 17.6324 12.4057 17.582 12.0457C17.4884 11.1313 16.8692 10.3537 15.8324 10.2673C15.5012 10.2385 15.422 10.1161 15.422 9.70569C15.422 9.32409 15.4796 9.14409 15.7748 9.14409C17.5748 9.15129 18.8204 10.5985 18.8204 12.0745ZM21.4412 12.0745C21.4412 9.33129 19.5836 6.42969 15.2924 6.42969H6.76761C6.59481 6.42969 6.48681 6.51609 6.48681 6.67449C6.48681 6.76089 6.55161 6.84009 6.60921 6.88329C6.91881 7.12809 7.37961 7.40169 7.98441 7.70409C8.57481 7.99929 9.03561 8.19369 9.49641 8.38089C9.69081 8.46009 9.76281 8.54649 9.76281 8.65449C9.76281 8.80569 9.65481 8.89929 9.44601 8.89929H2.67801C2.47641 8.89929 2.38281 9.02889 2.38281 9.15849C2.38281 9.26649 2.41881 9.36009 2.51241 9.45369C3.05961 10.0297 3.93801 10.7209 5.21241 11.5201C6.32841 12.2185 7.71081 12.9745 8.81241 13.5001C8.99961 13.5865 9.05721 13.6873 9.05721 13.7953C9.05001 13.9177 8.95641 14.0185 8.74041 14.0185H5.63721C5.46441 14.0185 5.36361 14.1121 5.36361 14.2561C5.36361 14.3353 5.42841 14.4361 5.51481 14.5153C6.22041 15.1561 7.35081 15.8545 8.85561 16.4953C10.8644 17.3521 12.902 17.8633 15.1916 17.8633C19.5332 17.8633 21.4412 14.6161 21.4412 12.0745ZM15.7748 15.9697C13.6436 15.9697 11.8652 14.2345 11.8652 12.0745C11.8652 9.94329 13.6436 8.23689 15.7748 8.23689C17.9636 8.23689 19.67 9.94329 19.67 12.0745C19.6628 14.2345 17.9564 15.9697 15.7748 15.9697Z" fill="#FF642D"/>
</svg>
