<svg width="390" height="844" viewBox="0 0 390 844" fill="none" xmlns="http://www.w3.org/2000/svg">
<g clip-path="url(#clip0_7606_12202)">
<rect width="390" height="844" transform="matrix(-1 0 0 1 390 0)" fill="white"/>
<path d="M390 502H0V847H390V502Z" fill="#32323D"/>
<path d="M391 525.355C391 504.504 391 483.652 390.839 462.623C390.115 462.37 389.542 462.342 388.992 462.212C378.997 459.848 368.879 458.171 358.635 457.556C350.332 457.058 341.963 457.29 333.784 458.787C322.824 460.792 311.965 463.352 301.081 465.76C288.602 468.521 276.243 471.815 263.416 472.824C255.073 473.481 246.785 473.179 238.597 471.806C228.295 470.078 218.45 466.648 208.897 462.443C195.36 456.483 181.761 450.696 167.633 446.233C159.265 443.59 150.738 441.671 141.981 441.153C134.239 440.695 126.532 441.227 118.969 443.232C109.056 445.86 99.6857 449.885 90.3008 453.926C81.6193 457.663 72.9345 461.449 64.0395 464.622C51.1179 469.231 37.7889 472.374 24.0686 473.497C16.0578 474.153 8.02363 474.526 0 475.026C0 494.733 1.23233e-05 514.441 0.127167 534.289C2.4341 533.209 4.61386 531.988 6.87332 530.642C7.57281 530.327 8.1926 530.137 8.7991 529.943C8.78582 529.94 8.78687 529.968 8.84705 529.841C9.04512 529.586 9.16112 529.392 9.32407 529.337C16.5909 526.888 23.9853 526.129 31.5463 527.718C31.5872 527.726 31.5699 528.011 31.7058 528.24C50.7155 533.035 61.7794 545.053 65.2338 563.65C68.5236 562.29 71.8936 560.897 75.2924 559.395C75.7799 559.261 76.2387 559.234 76.8179 559.205C77.0159 559.181 77.0934 559.16 77.2093 559.019C77.9646 558.89 78.6814 558.882 79.5323 558.887C79.8449 558.886 80.0235 558.871 80.2375 558.722C81.8826 558.628 83.4978 558.604 85.0993 558.74C85.6292 558.785 86.1239 559.242 86.7773 559.567C99.4964 563.45 105.915 572.162 107.184 585.177C110.67 583.167 114.427 582.434 118.452 582.475C130.325 582.593 140.073 595.316 136.637 606.576C136.288 607.721 135.914 608.859 135.552 610C153.379 610 171.206 610 189.228 609.85C188.981 608.135 188.539 606.569 187.97 604.964C186.537 602.017 186.967 598.961 187.331 595.994C187.557 594.14 188.452 592.368 189.033 590.559C189.019 590.558 189.026 590.585 189.022 590.436C189.421 589.46 189.825 588.632 190.323 587.724C193.256 582.312 197.488 578.369 202.753 575.255C206.371 572.869 210.428 572.244 214.424 572.376C218.807 572.522 223.202 573.322 227.122 575.634C227.505 575.86 228.006 575.885 228.583 576.038C228.642 575.301 228.617 574.792 228.732 574.316C229.269 572.102 229.846 569.897 230.482 567.579C233.571 557.948 239.564 550.776 248.867 547.306C261.838 542.468 273.671 545.366 283.926 554.735C284.119 554.305 284.248 554.083 284.322 553.844C287.691 542.918 294.057 533.986 302.586 526.501C317.167 513.706 334.051 507.898 353.484 509.676C364.666 510.698 374.889 514.314 384.18 520.579C386.481 522.13 388.728 523.761 391 525.355Z" fill="#32323D"/>
</g>
<defs>
<clipPath id="clip0_7606_12202">
<rect width="390" height="844" fill="white" transform="matrix(-1 0 0 1 390 0)"/>
</clipPath>
</defs>
</svg>
