<svg viewBox="0 0 390 844" fill="none" xmlns="http://www.w3.org/2000/svg" preserveAspectRatio="xMidYMid slice">
<g clip-path="url(#clip0_7603_11961)">
<rect width="390" height="844" fill="white"/>
<rect y="502" width="390" height="345" fill="#32323D"/>
<path d="M0.382812 525.261C0.38282 504.433 0.38282 483.605 0.54331 462.599C1.26506 462.346 1.83756 462.318 2.38591 462.188C12.3551 459.827 22.4472 458.152 32.6651 457.538C40.9473 457.04 49.2947 457.272 57.4524 458.767C68.384 460.77 79.216 463.327 90.0717 465.732C102.519 468.49 114.846 471.781 127.64 472.789C135.963 473.445 144.229 473.144 152.396 471.772C162.671 470.046 172.492 466.62 182.02 462.419C195.522 456.466 209.087 450.685 223.178 446.227C231.525 443.587 240.031 441.67 248.765 441.153C256.487 440.696 264.175 441.227 271.718 443.23C281.605 445.855 290.952 449.876 300.313 453.911C308.972 457.644 317.635 461.427 326.507 464.596C339.396 469.2 352.691 472.339 366.376 473.461C374.366 474.116 382.38 474.488 390.383 474.988C390.383 494.673 390.383 514.359 390.256 534.185C387.955 533.106 385.781 531.887 383.527 530.542C382.829 530.227 382.211 530.037 381.606 529.844C381.619 529.841 381.618 529.869 381.558 529.743C381.361 529.488 381.245 529.294 381.083 529.239C373.834 526.793 366.459 526.034 358.917 527.621C358.876 527.63 358.894 527.914 358.758 528.143C339.797 532.932 328.761 544.938 325.316 563.513C322.034 562.155 318.673 560.763 315.283 559.263C314.797 559.129 314.339 559.102 313.761 559.073C313.564 559.05 313.487 559.029 313.371 558.888C312.618 558.759 311.903 558.75 311.054 558.756C310.742 558.755 310.564 558.739 310.351 558.591C308.71 558.497 307.099 558.473 305.501 558.609C304.973 558.654 304.479 559.111 303.827 559.435C291.141 563.314 284.739 572.017 283.473 585.017C279.995 583.009 276.248 582.277 272.233 582.317C260.391 582.436 250.668 595.145 254.095 606.391C254.444 607.535 254.816 608.672 255.178 609.812C237.396 609.812 219.615 609.812 201.638 609.662C201.885 607.949 202.326 606.385 202.893 604.781C204.323 601.837 203.894 598.786 203.531 595.821C203.305 593.97 202.413 592.2 201.833 590.392C201.847 590.392 201.84 590.418 201.845 590.27C201.446 589.295 201.043 588.468 200.547 587.561C197.621 582.155 193.399 578.216 188.149 575.105C184.539 572.722 180.493 572.098 176.507 572.23C172.136 572.375 167.751 573.175 163.842 575.484C163.46 575.71 162.959 575.735 162.384 575.887C162.325 575.152 162.351 574.643 162.236 574.167C161.7 571.956 161.125 569.754 160.49 567.439C157.409 557.818 151.431 550.654 142.152 547.188C129.214 542.355 117.412 545.249 107.183 554.608C106.991 554.179 106.862 553.957 106.788 553.718C103.428 542.805 97.0782 533.883 88.5705 526.406C74.0271 513.625 57.1864 507.824 37.8025 509.599C26.6495 510.621 16.453 514.232 7.18546 520.49C4.89041 522.04 2.64892 523.669 0.382812 525.261Z" fill="#32323D"/>
</g>
<defs>
<clipPath id="clip0_7603_11961">
<rect width="390" height="844" fill="white"/>
</clipPath>
</defs>
</svg>
