<svg width="390" height="844" viewBox="0 0 390 844" fill="none" xmlns="http://www.w3.org/2000/svg">
<g clip-path="url(#clip0_7606_12196)">
<rect width="390" height="844" fill="white"/>
<path d="M0 502H390V847H0V502Z" fill="#32323D"/>
<path d="M-1 525.355C-0.999993 504.504 -0.999993 483.652 -0.839091 462.623C-0.115487 462.37 0.458481 462.342 1.00823 462.212C11.003 459.848 21.1209 458.171 31.3651 457.556C39.6685 457.058 48.0373 457.29 56.2159 458.787C67.1755 460.792 78.0353 463.352 88.9188 465.76C101.398 468.521 113.757 471.815 126.584 472.824C134.927 473.481 143.215 473.179 151.403 471.806C161.705 470.078 171.55 466.648 181.103 462.443C194.64 456.483 208.239 450.696 222.367 446.233C230.735 443.59 239.262 441.671 248.019 441.153C255.761 440.695 263.468 441.227 271.031 443.232C280.944 445.86 290.314 449.885 299.699 453.926C308.381 457.663 317.065 461.449 325.96 464.622C338.882 469.231 352.211 472.374 365.931 473.497C373.942 474.153 381.976 474.526 390 475.026C390 494.733 390 514.441 389.873 534.289C387.566 533.209 385.386 531.988 383.127 530.642C382.427 530.327 381.807 530.137 381.201 529.943C381.214 529.94 381.213 529.968 381.153 529.841C380.955 529.586 380.839 529.392 380.676 529.337C373.409 526.888 366.015 526.129 358.454 527.718C358.413 527.726 358.43 528.011 358.294 528.24C339.284 533.035 328.221 545.053 324.766 563.65C321.476 562.29 318.106 560.897 314.708 559.395C314.22 559.261 313.761 559.234 313.182 559.205C312.984 559.181 312.907 559.16 312.791 559.019C312.035 558.89 311.319 558.882 310.468 558.887C310.155 558.886 309.976 558.871 309.763 558.722C308.117 558.628 306.502 558.604 304.901 558.74C304.371 558.785 303.876 559.242 303.223 559.567C290.504 563.45 284.085 572.162 282.816 585.177C279.33 583.167 275.573 582.434 271.548 582.475C259.675 582.593 249.927 595.316 253.363 606.576C253.712 607.721 254.086 608.859 254.448 610C236.621 610 218.794 610 200.772 609.85C201.019 608.135 201.461 606.569 202.03 604.964C203.463 602.017 203.033 598.961 202.669 595.994C202.443 594.14 201.548 592.368 200.967 590.559C200.981 590.558 200.974 590.585 200.978 590.436C200.579 589.46 200.175 588.632 199.677 587.724C196.744 582.312 192.512 578.369 187.247 575.255C183.629 572.869 179.572 572.244 175.576 572.376C171.193 572.522 166.798 573.322 162.878 575.634C162.495 575.86 161.994 575.885 161.417 576.038C161.358 575.301 161.383 574.792 161.268 574.316C160.731 572.102 160.154 569.897 159.518 567.579C156.429 557.948 150.436 550.776 141.133 547.306C128.162 542.468 116.329 545.366 106.074 554.735C105.881 554.305 105.752 554.083 105.678 553.844C102.309 542.918 95.9433 533.986 87.4138 526.501C72.8331 513.706 55.9492 507.898 36.5157 509.676C25.334 510.698 15.1114 514.314 5.82009 520.579C3.51916 522.13 1.27191 523.761 -1 525.355Z" fill="#32323D"/>
</g>
<defs>
<clipPath id="clip0_7606_12196">
<rect width="390" height="844" fill="white"/>
</clipPath>
</defs>
</svg>
