<svg width="271" height="128" viewBox="0 0 271 128" fill="none" xmlns="http://www.w3.org/2000/svg">
<rect x="17" y="10" width="237" height="113.5" rx="16" fill="#E9ECFF"/>
<rect x="17.5" y="10.5" width="236" height="112.5" rx="15.5" stroke="#696EFF" stroke-opacity="0.16"/>
<path d="M46.7757 40V29.8182H50.5939C51.3761 29.8182 52.0324 29.964 52.5627 30.2557C53.0963 30.5473 53.499 30.9484 53.7708 31.4588C54.0459 31.9659 54.1834 32.5426 54.1834 33.1889C54.1834 33.8419 54.0459 34.4219 53.7708 34.929C53.4957 35.4361 53.0897 35.8355 52.5527 36.1271C52.0158 36.4155 51.3546 36.5597 50.5691 36.5597H48.0385V35.0433H50.3205C50.7779 35.0433 51.1524 34.9638 51.4441 34.8047C51.7357 34.6456 51.9512 34.4268 52.0904 34.1484C52.2329 33.87 52.3042 33.5502 52.3042 33.1889C52.3042 32.8277 52.2329 32.5095 52.0904 32.2344C51.9512 31.9593 51.7341 31.7455 51.4391 31.593C51.1474 31.4373 50.7712 31.3594 50.3105 31.3594H48.6202V40H46.7757ZM57.5057 35.5256V40H55.706V29.8182H57.4659V33.6612H57.5554C57.7344 33.2304 58.0111 32.8906 58.3857 32.642C58.7635 32.3902 59.2441 32.2642 59.8274 32.2642C60.3577 32.2642 60.8201 32.3752 61.2145 32.5973C61.6089 32.8194 61.9138 33.1442 62.1293 33.5717C62.348 33.9993 62.4574 34.5213 62.4574 35.1378V40H60.6577V35.4162C60.6577 34.9025 60.5251 34.5031 60.2599 34.218C59.9981 33.9297 59.6302 33.7855 59.1562 33.7855C58.8381 33.7855 58.553 33.8551 58.3011 33.9943C58.0526 34.1302 57.857 34.3274 57.7145 34.5859C57.5753 34.8445 57.5057 35.1577 57.5057 35.5256ZM67.6229 40.1491C66.8771 40.1491 66.2308 39.9851 65.6839 39.657C65.1371 39.3288 64.7128 38.8698 64.4112 38.2798C64.1129 37.6899 63.9638 37.0005 63.9638 36.2116C63.9638 35.4228 64.1129 34.7318 64.4112 34.1385C64.7128 33.5452 65.1371 33.0845 65.6839 32.7564C66.2308 32.4283 66.8771 32.2642 67.6229 32.2642C68.3686 32.2642 69.0149 32.4283 69.5618 32.7564C70.1087 33.0845 70.5313 33.5452 70.8295 34.1385C71.1312 34.7318 71.282 35.4228 71.282 36.2116C71.282 37.0005 71.1312 37.6899 70.8295 38.2798C70.5313 38.8698 70.1087 39.3288 69.5618 39.657C69.0149 39.9851 68.3686 40.1491 67.6229 40.1491ZM67.6328 38.7074C68.0372 38.7074 68.3752 38.5964 68.647 38.3743C68.9188 38.1489 69.121 37.8473 69.2536 37.4695C69.3894 37.0916 69.4574 36.6707 69.4574 36.2067C69.4574 35.7393 69.3894 35.3168 69.2536 34.9389C69.121 34.5578 68.9188 34.2545 68.647 34.0291C68.3752 33.8037 68.0372 33.6911 67.6328 33.6911C67.2185 33.6911 66.8738 33.8037 66.5987 34.0291C66.3269 34.2545 66.1231 34.5578 65.9872 34.9389C65.8546 35.3168 65.7884 35.7393 65.7884 36.2067C65.7884 36.6707 65.8546 37.0916 65.9872 37.4695C66.1231 37.8473 66.3269 38.1489 66.5987 38.3743C66.8738 38.5964 67.2185 38.7074 67.6328 38.7074ZM76.6227 32.3636V33.7557H72.2328V32.3636H76.6227ZM73.3166 30.5341H75.1163V37.7031C75.1163 37.9451 75.1528 38.1307 75.2257 38.2599C75.3019 38.3859 75.4013 38.4721 75.524 38.5185C75.6466 38.5649 75.7825 38.5881 75.9316 38.5881C76.0443 38.5881 76.1471 38.5798 76.2399 38.5632C76.336 38.5466 76.4089 38.5317 76.4586 38.5185L76.7619 39.9254C76.6658 39.9586 76.5282 39.995 76.3493 40.0348C76.1736 40.0746 75.9582 40.0978 75.7029 40.1044C75.2522 40.1177 74.8462 40.0497 74.4849 39.9006C74.1236 39.7481 73.8369 39.5128 73.6248 39.1946C73.416 38.8764 73.3133 38.4787 73.3166 38.0014V30.5341ZM81.3768 40.1491C80.631 40.1491 79.9847 39.9851 79.4379 39.657C78.891 39.3288 78.4667 38.8698 78.1651 38.2798C77.8668 37.6899 77.7177 37.0005 77.7177 36.2116C77.7177 35.4228 77.8668 34.7318 78.1651 34.1385C78.4667 33.5452 78.891 33.0845 79.4379 32.7564C79.9847 32.4283 80.631 32.2642 81.3768 32.2642C82.1225 32.2642 82.7688 32.4283 83.3157 32.7564C83.8626 33.0845 84.2852 33.5452 84.5835 34.1385C84.8851 34.7318 85.0359 35.4228 85.0359 36.2116C85.0359 37.0005 84.8851 37.6899 84.5835 38.2798C84.2852 38.8698 83.8626 39.3288 83.3157 39.657C82.7688 39.9851 82.1225 40.1491 81.3768 40.1491ZM81.3867 38.7074C81.7911 38.7074 82.1291 38.5964 82.4009 38.3743C82.6727 38.1489 82.8749 37.8473 83.0075 37.4695C83.1433 37.0916 83.2113 36.6707 83.2113 36.2067C83.2113 35.7393 83.1433 35.3168 83.0075 34.9389C82.8749 34.5578 82.6727 34.2545 82.4009 34.0291C82.1291 33.8037 81.7911 33.6911 81.3867 33.6911C80.9724 33.6911 80.6277 33.8037 80.3526 34.0291C80.0808 34.2545 79.877 34.5578 79.7411 34.9389C79.6085 35.3168 79.5423 35.7393 79.5423 36.2067C79.5423 36.6707 79.6085 37.0916 79.7411 37.4695C79.877 37.8473 80.0808 38.1489 80.3526 38.3743C80.6277 38.5964 80.9724 38.7074 81.3867 38.7074ZM86.6429 40V29.8182H90.5407C91.2765 29.8182 91.888 29.9342 92.3752 30.1662C92.8657 30.3949 93.2319 30.7081 93.4739 31.1058C93.7192 31.5036 93.8418 31.9543 93.8418 32.4581C93.8418 32.8724 93.7623 33.227 93.6032 33.522C93.4441 33.8137 93.2303 34.0507 92.9618 34.233C92.6934 34.4152 92.3934 34.5462 92.062 34.6257V34.7251C92.4232 34.745 92.7696 34.8561 93.101 35.0582C93.4358 35.2571 93.7092 35.5388 93.9213 35.9034C94.1335 36.268 94.2395 36.7088 94.2395 37.2259C94.2395 37.7528 94.1119 38.2268 93.8567 38.6477C93.6015 39.0653 93.217 39.3951 92.7033 39.6371C92.1896 39.879 91.5433 40 90.7644 40H86.6429ZM88.4874 38.4588H90.4711C91.1406 38.4588 91.6228 38.3312 91.9178 38.076C92.2161 37.8175 92.3652 37.486 92.3652 37.0817C92.3652 36.7801 92.2907 36.5083 92.1415 36.2663C91.9924 36.0211 91.7802 35.8288 91.5051 35.6896C91.2301 35.5471 90.9019 35.4759 90.5208 35.4759H88.4874V38.4588ZM88.4874 34.1484H90.312C90.6301 34.1484 90.9168 34.0904 91.1721 33.9744C91.4273 33.8551 91.6278 33.6877 91.7736 33.4723C91.9228 33.2536 91.9973 32.995 91.9973 32.6967C91.9973 32.3023 91.8581 31.9775 91.5797 31.7223C91.3046 31.4671 90.8953 31.3395 90.3517 31.3395H88.4874V34.1484ZM97.962 40.1541C97.4781 40.1541 97.0423 40.0679 96.6545 39.8956C96.27 39.7199 95.9651 39.4614 95.7397 39.12C95.5176 38.7786 95.4066 38.3577 95.4066 37.8572C95.4066 37.4264 95.4862 37.0701 95.6452 36.7884C95.8043 36.5066 96.0214 36.2812 96.2965 36.1122C96.5716 35.9432 96.8815 35.8156 97.2262 35.7294C97.5742 35.6399 97.9338 35.5753 98.305 35.5355C98.7525 35.4891 99.1154 35.4477 99.3938 35.4112C99.6722 35.3714 99.8744 35.3118 100 35.2322C100.13 35.1494 100.194 35.0218 100.194 34.8494V34.8196C100.194 34.4451 100.083 34.1551 99.8612 33.9496C99.6391 33.7441 99.3192 33.6413 98.9016 33.6413C98.4608 33.6413 98.1112 33.7375 97.8526 33.9297C97.5974 34.1219 97.4251 34.349 97.3356 34.6108L95.6552 34.3722C95.7878 33.9081 96.0065 33.5204 96.3114 33.2088C96.6164 32.8939 96.9892 32.6586 97.43 32.5028C97.8709 32.3438 98.3581 32.2642 98.8917 32.2642C99.2596 32.2642 99.6258 32.3073 99.9904 32.3935C100.355 32.4796 100.688 32.6222 100.99 32.821C101.291 33.0166 101.533 33.2834 101.716 33.6214C101.901 33.9595 101.994 34.3821 101.994 34.8892V40H100.264V38.951H100.204C100.095 39.1631 99.9407 39.362 99.7418 39.5476C99.5463 39.7299 99.2994 39.8774 99.0011 39.9901C98.7061 40.0994 98.3597 40.1541 97.962 40.1541ZM98.4293 38.8317C98.7906 38.8317 99.1038 38.7604 99.369 38.6179C99.6341 38.4721 99.8379 38.2798 99.9805 38.0412C100.126 37.8026 100.199 37.5424 100.199 37.2607V36.3608C100.143 36.4072 100.047 36.4503 99.9109 36.4901C99.7783 36.5298 99.6291 36.5646 99.4634 36.5945C99.2977 36.6243 99.1336 36.6508 98.9712 36.674C98.8088 36.6972 98.668 36.7171 98.5487 36.7337C98.2802 36.7701 98.0399 36.8298 97.8278 36.9126C97.6156 36.9955 97.4483 37.1115 97.3256 37.2607C97.203 37.4065 97.1417 37.5954 97.1417 37.8274C97.1417 38.1589 97.2627 38.4091 97.5046 38.5781C97.7466 38.7472 98.0548 38.8317 98.4293 38.8317ZM109.839 34.3821L108.199 34.5611C108.152 34.3954 108.071 34.2396 107.955 34.0938C107.842 33.9479 107.69 33.8303 107.498 33.7408C107.305 33.6513 107.07 33.6065 106.792 33.6065C106.417 33.6065 106.102 33.6877 105.847 33.8501C105.595 34.0125 105.471 34.223 105.474 34.4815C105.471 34.7036 105.552 34.8842 105.718 35.0234C105.887 35.1626 106.165 35.277 106.553 35.3665L107.855 35.6449C108.578 35.8007 109.115 36.0476 109.466 36.3857C109.821 36.7237 110 37.1662 110.003 37.7131C110 38.1937 109.859 38.6179 109.581 38.9858C109.306 39.3504 108.923 39.6354 108.432 39.8409C107.942 40.0464 107.378 40.1491 106.742 40.1491C105.807 40.1491 105.055 39.9536 104.485 39.5625C103.915 39.1681 103.575 38.6196 103.466 37.9169L105.221 37.7479C105.3 38.0926 105.469 38.3527 105.728 38.5284C105.986 38.7041 106.323 38.7919 106.737 38.7919C107.164 38.7919 107.507 38.7041 107.766 38.5284C108.028 38.3527 108.159 38.1357 108.159 37.8771C108.159 37.6584 108.074 37.4777 107.905 37.3352C107.739 37.1927 107.481 37.0833 107.13 37.0071L105.827 36.7337C105.095 36.5812 104.553 36.3243 104.201 35.9631C103.85 35.5985 103.676 35.1378 103.679 34.581C103.676 34.1103 103.804 33.7027 104.062 33.358C104.324 33.0099 104.687 32.7415 105.151 32.5526C105.618 32.3603 106.157 32.2642 106.767 32.2642C107.662 32.2642 108.366 32.4548 108.88 32.8359C109.397 33.2171 109.717 33.7325 109.839 34.3821ZM114.868 40.1491C114.102 40.1491 113.441 39.9901 112.884 39.6719C112.331 39.3504 111.905 38.8963 111.607 38.3097C111.308 37.7197 111.159 37.0253 111.159 36.2266C111.159 35.4411 111.308 34.7517 111.607 34.1584C111.908 33.5618 112.329 33.0978 112.869 32.7663C113.41 32.4316 114.044 32.2642 114.773 32.2642C115.244 32.2642 115.688 32.3404 116.106 32.4929C116.527 32.642 116.898 32.8741 117.219 33.1889C117.544 33.5038 117.799 33.9048 117.985 34.392C118.171 34.8759 118.263 35.4527 118.263 36.1222V36.674H112.004V35.4609H116.538C116.535 35.1162 116.46 34.8097 116.315 34.5412C116.169 34.2694 115.965 34.0556 115.703 33.8999C115.445 33.7441 115.143 33.6662 114.798 33.6662C114.43 33.6662 114.107 33.7557 113.829 33.9347C113.55 34.1103 113.333 34.3423 113.178 34.6307C113.025 34.9157 112.947 35.2289 112.944 35.5703V36.6293C112.944 37.0734 113.025 37.4545 113.188 37.7727C113.35 38.0876 113.577 38.3295 113.869 38.4986C114.16 38.6643 114.502 38.7472 114.893 38.7472C115.155 38.7472 115.392 38.7107 115.604 38.6378C115.816 38.5616 116 38.4505 116.156 38.3047C116.311 38.1589 116.429 37.9782 116.509 37.7628L118.189 37.9517C118.083 38.3958 117.881 38.7836 117.582 39.1151C117.287 39.4432 116.91 39.6984 116.449 39.8807C115.988 40.0597 115.461 40.1491 114.868 40.1491ZM125.058 35.5256V40H123.259V29.8182H125.019V33.6612H125.108C125.287 33.2304 125.564 32.8906 125.938 32.642C126.316 32.3902 126.797 32.2642 127.38 32.2642C127.91 32.2642 128.373 32.3752 128.767 32.5973C129.162 32.8194 129.467 33.1442 129.682 33.5717C129.901 33.9993 130.01 34.5213 130.01 35.1378V40H128.21V35.4162C128.21 34.9025 128.078 34.5031 127.813 34.218C127.551 33.9297 127.183 33.7855 126.709 33.7855C126.391 33.7855 126.106 33.8551 125.854 33.9943C125.605 34.1302 125.41 34.3274 125.267 34.5859C125.128 34.8445 125.058 35.1577 125.058 35.5256ZM134.042 40.1541C133.558 40.1541 133.122 40.0679 132.735 39.8956C132.35 39.7199 132.045 39.4614 131.82 39.12C131.598 38.7786 131.487 38.3577 131.487 37.8572C131.487 37.4264 131.566 37.0701 131.725 36.7884C131.884 36.5066 132.102 36.2812 132.377 36.1122C132.652 35.9432 132.962 35.8156 133.306 35.7294C133.654 35.6399 134.014 35.5753 134.385 35.5355C134.833 35.4891 135.195 35.4477 135.474 35.4112C135.752 35.3714 135.954 35.3118 136.08 35.2322C136.21 35.1494 136.274 35.0218 136.274 34.8494V34.8196C136.274 34.4451 136.163 34.1551 135.941 33.9496C135.719 33.7441 135.399 33.6413 134.982 33.6413C134.541 33.6413 134.191 33.7375 133.933 33.9297C133.677 34.1219 133.505 34.349 133.416 34.6108L131.735 34.3722C131.868 33.9081 132.087 33.5204 132.392 33.2088C132.696 32.8939 133.069 32.6586 133.51 32.5028C133.951 32.3438 134.438 32.2642 134.972 32.2642C135.34 32.2642 135.706 32.3073 136.07 32.3935C136.435 32.4796 136.768 32.6222 137.07 32.821C137.371 33.0166 137.613 33.2834 137.796 33.6214C137.981 33.9595 138.074 34.3821 138.074 34.8892V40H136.344V38.951H136.284C136.175 39.1631 136.021 39.362 135.822 39.5476C135.626 39.7299 135.379 39.8774 135.081 39.9901C134.786 40.0994 134.44 40.1541 134.042 40.1541ZM134.509 38.8317C134.871 38.8317 135.184 38.7604 135.449 38.6179C135.714 38.4721 135.918 38.2798 136.061 38.0412C136.206 37.8026 136.279 37.5424 136.279 37.2607V36.3608C136.223 36.4072 136.127 36.4503 135.991 36.4901C135.858 36.5298 135.709 36.5646 135.544 36.5945C135.378 36.6243 135.214 36.6508 135.051 36.674C134.889 36.6972 134.748 36.7171 134.629 36.7337C134.36 36.7701 134.12 36.8298 133.908 36.9126C133.696 36.9955 133.528 37.1115 133.406 37.2607C133.283 37.4065 133.222 37.5954 133.222 37.8274C133.222 38.1589 133.343 38.4091 133.585 38.5781C133.827 38.7472 134.135 38.8317 134.509 38.8317ZM145.919 34.3821L144.279 34.5611C144.232 34.3954 144.151 34.2396 144.035 34.0938C143.922 33.9479 143.77 33.8303 143.578 33.7408C143.385 33.6513 143.15 33.6065 142.872 33.6065C142.497 33.6065 142.182 33.6877 141.927 33.8501C141.675 34.0125 141.551 34.223 141.554 34.4815C141.551 34.7036 141.632 34.8842 141.798 35.0234C141.967 35.1626 142.245 35.277 142.633 35.3665L143.936 35.6449C144.658 35.8007 145.195 36.0476 145.546 36.3857C145.901 36.7237 146.08 37.1662 146.083 37.7131C146.08 38.1937 145.939 38.6179 145.661 38.9858C145.386 39.3504 145.003 39.6354 144.512 39.8409C144.022 40.0464 143.458 40.1491 142.822 40.1491C141.887 40.1491 141.135 39.9536 140.565 39.5625C139.995 39.1681 139.655 38.6196 139.546 37.9169L141.301 37.7479C141.38 38.0926 141.549 38.3527 141.808 38.5284C142.066 38.7041 142.403 38.7919 142.817 38.7919C143.244 38.7919 143.588 38.7041 143.846 38.5284C144.108 38.3527 144.239 38.1357 144.239 37.8771C144.239 37.6584 144.154 37.4777 143.985 37.3352C143.82 37.1927 143.561 37.0833 143.21 37.0071L141.907 36.7337C141.175 36.5812 140.633 36.3243 140.281 35.9631C139.93 35.5985 139.756 35.1378 139.759 34.581C139.756 34.1103 139.884 33.7027 140.142 33.358C140.404 33.0099 140.767 32.7415 141.231 32.5526C141.698 32.3603 142.237 32.2642 142.847 32.2642C143.742 32.2642 144.446 32.4548 144.96 32.8359C145.477 33.2171 145.797 33.7325 145.919 34.3821ZM154.371 40.1491C153.609 40.1491 152.954 39.9818 152.407 39.647C151.864 39.3123 151.444 38.8499 151.149 38.2599C150.858 37.6667 150.712 36.9839 150.712 36.2116C150.712 35.4361 150.861 34.7517 151.159 34.1584C151.458 33.5618 151.878 33.0978 152.422 32.7663C152.969 32.4316 153.615 32.2642 154.361 32.2642C154.981 32.2642 155.529 32.3786 156.007 32.6072C156.487 32.8326 156.87 33.1525 157.155 33.5668C157.44 33.9777 157.602 34.4583 157.642 35.0085H155.922C155.852 34.6406 155.687 34.334 155.425 34.0888C155.166 33.8402 154.82 33.7159 154.386 33.7159C154.018 33.7159 153.695 33.8153 153.416 34.0142C153.138 34.2098 152.921 34.4915 152.765 34.8594C152.613 35.2273 152.536 35.6681 152.536 36.1818C152.536 36.7022 152.613 37.1496 152.765 37.5241C152.918 37.8954 153.131 38.1821 153.406 38.3842C153.685 38.5831 154.011 38.6825 154.386 38.6825C154.651 38.6825 154.888 38.6328 155.097 38.5334C155.309 38.4306 155.486 38.2831 155.629 38.0909C155.771 37.8987 155.869 37.665 155.922 37.3899H157.642C157.599 37.9302 157.44 38.4091 157.165 38.8267C156.89 39.241 156.515 39.5658 156.041 39.8011C155.567 40.0331 155.011 40.1491 154.371 40.1491ZM162.451 40.1491C161.705 40.1491 161.059 39.9851 160.512 39.657C159.965 39.3288 159.541 38.8698 159.239 38.2798C158.941 37.6899 158.792 37.0005 158.792 36.2116C158.792 35.4228 158.941 34.7318 159.239 34.1385C159.541 33.5452 159.965 33.0845 160.512 32.7564C161.059 32.4283 161.705 32.2642 162.451 32.2642C163.197 32.2642 163.843 32.4283 164.39 32.7564C164.937 33.0845 165.359 33.5452 165.658 34.1385C165.959 34.7318 166.11 35.4228 166.11 36.2116C166.11 37.0005 165.959 37.6899 165.658 38.2798C165.359 38.8698 164.937 39.3288 164.39 39.657C163.843 39.9851 163.197 40.1491 162.451 40.1491ZM162.461 38.7074C162.865 38.7074 163.203 38.5964 163.475 38.3743C163.747 38.1489 163.949 37.8473 164.082 37.4695C164.218 37.0916 164.286 36.6707 164.286 36.2067C164.286 35.7393 164.218 35.3168 164.082 34.9389C163.949 34.5578 163.747 34.2545 163.475 34.0291C163.203 33.8037 162.865 33.6911 162.461 33.6911C162.047 33.6911 161.702 33.8037 161.427 34.0291C161.155 34.2545 160.951 34.5578 160.815 34.9389C160.683 35.3168 160.616 35.7393 160.616 36.2067C160.616 36.6707 160.683 37.0916 160.815 37.4695C160.951 37.8473 161.155 38.1489 161.427 38.3743C161.702 38.5964 162.047 38.7074 162.461 38.7074ZM167.638 40V32.3636H169.358V33.6612H169.447C169.606 33.2237 169.87 32.8823 170.238 32.6371C170.606 32.3885 171.045 32.2642 171.555 32.2642C172.072 32.2642 172.508 32.3902 172.863 32.642C173.221 32.8906 173.473 33.2304 173.618 33.6612H173.698C173.867 33.237 174.152 32.8989 174.553 32.647C174.957 32.3918 175.436 32.2642 175.99 32.2642C176.693 32.2642 177.266 32.4863 177.71 32.9304C178.154 33.3745 178.376 34.0225 178.376 34.8743V40H176.572V35.1527C176.572 34.6787 176.446 34.3324 176.194 34.1136C175.942 33.8916 175.634 33.7805 175.269 33.7805C174.835 33.7805 174.495 33.9164 174.25 34.1882C174.008 34.4567 173.887 34.8063 173.887 35.2372V40H172.122V35.0781C172.122 34.6837 172.003 34.3688 171.764 34.1335C171.529 33.8982 171.22 33.7805 170.839 33.7805C170.581 33.7805 170.345 33.8468 170.133 33.9794C169.921 34.1087 169.752 34.2926 169.626 34.5312C169.5 34.7666 169.437 35.0417 169.437 35.3565V40H167.638ZM180.202 42.8636V32.3636H181.972V33.6264H182.076C182.169 33.4408 182.3 33.2436 182.469 33.0348C182.638 32.8227 182.867 32.642 183.155 32.4929C183.444 32.3404 183.811 32.2642 184.259 32.2642C184.849 32.2642 185.381 32.415 185.855 32.7166C186.332 33.0149 186.71 33.4574 186.988 34.044C187.27 34.6274 187.411 35.3433 187.411 36.1918C187.411 37.0303 187.273 37.7429 186.998 38.3295C186.723 38.9162 186.349 39.3636 185.875 39.6719C185.401 39.9801 184.864 40.1342 184.264 40.1342C183.826 40.1342 183.463 40.0613 183.175 39.9155C182.887 39.7696 182.655 39.594 182.479 39.3885C182.307 39.1797 182.172 38.9825 182.076 38.7969H182.002V42.8636H180.202ZM181.967 36.1818C181.967 36.6757 182.037 37.1082 182.176 37.4794C182.318 37.8506 182.522 38.1406 182.787 38.3494C183.056 38.5549 183.381 38.6577 183.762 38.6577C184.159 38.6577 184.493 38.5516 184.761 38.3395C185.029 38.1241 185.232 37.8307 185.368 37.4595C185.507 37.085 185.576 36.6591 185.576 36.1818C185.576 35.7079 185.508 35.2869 185.373 34.919C185.237 34.5511 185.034 34.2628 184.766 34.054C184.498 33.8452 184.163 33.7408 183.762 33.7408C183.377 33.7408 183.051 33.8419 182.782 34.044C182.514 34.2462 182.31 34.5296 182.171 34.8942C182.035 35.2588 181.967 35.688 181.967 36.1818ZM190.752 29.8182V40H188.952V29.8182H190.752ZM195.983 40.1491C195.218 40.1491 194.556 39.9901 193.999 39.6719C193.446 39.3504 193.02 38.8963 192.722 38.3097C192.423 37.7197 192.274 37.0253 192.274 36.2266C192.274 35.4411 192.423 34.7517 192.722 34.1584C193.023 33.5618 193.444 33.0978 193.985 32.7663C194.525 32.4316 195.16 32.2642 195.889 32.2642C196.359 32.2642 196.803 32.3404 197.221 32.4929C197.642 32.642 198.013 32.8741 198.335 33.1889C198.66 33.5038 198.915 33.9048 199.1 34.392C199.286 34.8759 199.379 35.4527 199.379 36.1222V36.674H193.119V35.4609H197.654C197.65 35.1162 197.576 34.8097 197.43 34.5412C197.284 34.2694 197.08 34.0556 196.818 33.8999C196.56 33.7441 196.258 33.6662 195.914 33.6662C195.546 33.6662 195.222 33.7557 194.944 33.9347C194.666 34.1103 194.449 34.3423 194.293 34.6307C194.14 34.9157 194.062 35.2289 194.059 35.5703V36.6293C194.059 37.0734 194.14 37.4545 194.303 37.7727C194.465 38.0876 194.692 38.3295 194.984 38.4986C195.276 38.6643 195.617 38.7472 196.008 38.7472C196.27 38.7472 196.507 38.7107 196.719 38.6378C196.931 38.5616 197.115 38.4505 197.271 38.3047C197.427 38.1589 197.544 37.9782 197.624 37.7628L199.304 37.9517C199.198 38.3958 198.996 38.7836 198.698 39.1151C198.403 39.4432 198.025 39.6984 197.564 39.8807C197.103 40.0597 196.576 40.1491 195.983 40.1491ZM204.714 32.3636V33.7557H200.325V32.3636H204.714ZM201.408 30.5341H203.208V37.7031C203.208 37.9451 203.245 38.1307 203.317 38.2599C203.394 38.3859 203.493 38.4721 203.616 38.5185C203.738 38.5649 203.874 38.5881 204.023 38.5881C204.136 38.5881 204.239 38.5798 204.332 38.5632C204.428 38.5466 204.501 38.5317 204.55 38.5185L204.854 39.9254C204.758 39.9586 204.62 39.995 204.441 40.0348C204.265 40.0746 204.05 40.0978 203.795 40.1044C203.344 40.1177 202.938 40.0497 202.577 39.9006C202.215 39.7481 201.929 39.5128 201.717 39.1946C201.508 38.8764 201.405 38.4787 201.408 38.0014V30.5341ZM209.518 40.1491C208.753 40.1491 208.091 39.9901 207.535 39.6719C206.981 39.3504 206.555 38.8963 206.257 38.3097C205.959 37.7197 205.809 37.0253 205.809 36.2266C205.809 35.4411 205.959 34.7517 206.257 34.1584C206.559 33.5618 206.979 33.0978 207.52 32.7663C208.06 32.4316 208.695 32.2642 209.424 32.2642C209.894 32.2642 210.339 32.3404 210.756 32.4929C211.177 32.642 211.548 32.8741 211.87 33.1889C212.195 33.5038 212.45 33.9048 212.635 34.392C212.821 34.8759 212.914 35.4527 212.914 36.1222V36.674H206.655V35.4609H211.189C211.185 35.1162 211.111 34.8097 210.965 34.5412C210.819 34.2694 210.615 34.0556 210.354 33.8999C210.095 33.7441 209.793 33.6662 209.449 33.6662C209.081 33.6662 208.758 33.7557 208.479 33.9347C208.201 34.1103 207.984 34.3423 207.828 34.6307C207.675 34.9157 207.598 35.2289 207.594 35.5703V36.6293C207.594 37.0734 207.675 37.4545 207.838 37.7727C208 38.0876 208.227 38.3295 208.519 38.4986C208.811 38.6643 209.152 38.7472 209.543 38.7472C209.805 38.7472 210.042 38.7107 210.254 38.6378C210.466 38.5616 210.65 38.4505 210.806 38.3047C210.962 38.1589 211.079 37.9782 211.159 37.7628L212.839 37.9517C212.733 38.3958 212.531 38.7836 212.233 39.1151C211.938 39.4432 211.56 39.6984 211.099 39.8807C210.639 40.0597 210.112 40.1491 209.518 40.1491ZM216.236 29.8182V40H214.436V29.8182H216.236ZM219.205 42.8636C218.96 42.8636 218.733 42.8438 218.524 42.804C218.319 42.7675 218.155 42.7244 218.032 42.6747L218.45 41.2727C218.712 41.349 218.945 41.3854 219.151 41.3821C219.356 41.3788 219.537 41.3142 219.693 41.1882C219.852 41.0656 219.986 40.8601 220.095 40.5717L220.249 40.1591L217.48 32.3636H219.389L221.149 38.1307H221.229L222.994 32.3636H224.908L221.85 40.9247C221.708 41.3291 221.519 41.6754 221.284 41.9638C221.048 42.2554 220.76 42.4775 220.419 42.63C220.08 42.7857 219.676 42.8636 219.205 42.8636ZM39.1854 57.1491C38.4231 57.1491 37.7685 56.9818 37.2216 56.647C36.678 56.3123 36.2588 55.8499 35.9638 55.2599C35.6721 54.6667 35.5263 53.9839 35.5263 53.2116C35.5263 52.4361 35.6754 51.7517 35.9737 51.1584C36.272 50.5618 36.6929 50.0978 37.2365 49.7663C37.7834 49.4316 38.4297 49.2642 39.1754 49.2642C39.7952 49.2642 40.3438 49.3786 40.821 49.6072C41.3016 49.8326 41.6844 50.1525 41.9695 50.5668C42.2545 50.9777 42.4169 51.4583 42.4567 52.0085H40.7365C40.6669 51.6406 40.5012 51.334 40.2393 51.0888C39.9808 50.8402 39.6345 50.7159 39.2003 50.7159C38.8324 50.7159 38.5092 50.8153 38.2308 51.0142C37.9524 51.2098 37.7353 51.4915 37.5795 51.8594C37.4271 52.2273 37.3509 52.6681 37.3509 53.1818C37.3509 53.7022 37.4271 54.1496 37.5795 54.5241C37.732 54.8954 37.9458 55.1821 38.2209 55.3842C38.4993 55.5831 38.8258 55.6825 39.2003 55.6825C39.4654 55.6825 39.7024 55.6328 39.9112 55.5334C40.1233 55.4306 40.3007 55.2831 40.4432 55.0909C40.5857 54.8987 40.6835 54.665 40.7365 54.3899H42.4567C42.4136 54.9302 42.2545 55.4091 41.9794 55.8267C41.7043 56.241 41.3298 56.5658 40.8558 56.8011C40.3819 57.0331 39.825 57.1491 39.1854 57.1491ZM45.7342 52.5256V57H43.9345V46.8182H45.6944V50.6612H45.7839C45.9629 50.2304 46.2396 49.8906 46.6142 49.642C46.992 49.3902 47.4726 49.2642 48.0559 49.2642C48.5862 49.2642 49.0486 49.3752 49.443 49.5973C49.8374 49.8194 50.1423 50.1442 50.3578 50.5717C50.5765 50.9993 50.6859 51.5213 50.6859 52.1378V57H48.8862V52.4162C48.8862 51.9025 48.7536 51.5031 48.4885 51.218C48.2266 50.9297 47.8587 50.7855 47.3848 50.7855C47.0666 50.7855 46.7815 50.8551 46.5297 50.9943C46.2811 51.1302 46.0855 51.3274 45.943 51.5859C45.8038 51.8445 45.7342 52.1577 45.7342 52.5256ZM54.7179 57.1541C54.234 57.1541 53.7981 57.0679 53.4103 56.8956C53.0259 56.7199 52.7209 56.4614 52.4956 56.12C52.2735 55.7786 52.1625 55.3577 52.1625 54.8572C52.1625 54.4264 52.242 54.0701 52.4011 53.7884C52.5602 53.5066 52.7773 53.2812 53.0524 53.1122C53.3275 52.9432 53.6374 52.8156 53.9821 52.7294C54.3301 52.6399 54.6897 52.5753 55.0609 52.5355C55.5083 52.4891 55.8713 52.4477 56.1497 52.4112C56.4281 52.3714 56.6303 52.3118 56.7562 52.2322C56.8855 52.1494 56.9501 52.0218 56.9501 51.8494V51.8196C56.9501 51.4451 56.8391 51.1551 56.617 50.9496C56.3949 50.7441 56.0751 50.6413 55.6575 50.6413C55.2167 50.6413 54.867 50.7375 54.6085 50.9297C54.3533 51.1219 54.1809 51.349 54.0914 51.6108L52.411 51.3722C52.5436 50.9081 52.7624 50.5204 53.0673 50.2088C53.3722 49.8939 53.7451 49.6586 54.1859 49.5028C54.6267 49.3438 55.1139 49.2642 55.6475 49.2642C56.0154 49.2642 56.3817 49.3073 56.7463 49.3935C57.1109 49.4796 57.444 49.6222 57.7456 49.821C58.0472 50.0166 58.2891 50.2834 58.4714 50.6214C58.657 50.9595 58.7498 51.3821 58.7498 51.8892V57H57.0197V55.951H56.96C56.8507 56.1631 56.6966 56.362 56.4977 56.5476C56.3021 56.7299 56.0552 56.8774 55.7569 56.9901C55.4619 57.0994 55.1156 57.1541 54.7179 57.1541ZM55.1852 55.8317C55.5465 55.8317 55.8597 55.7604 56.1248 55.6179C56.39 55.4721 56.5938 55.2798 56.7363 55.0412C56.8822 54.8026 56.9551 54.5424 56.9551 54.2607V53.3608C56.8987 53.4072 56.8026 53.4503 56.6667 53.4901C56.5342 53.5298 56.385 53.5646 56.2193 53.5945C56.0536 53.6243 55.8895 53.6508 55.7271 53.674C55.5647 53.6972 55.4238 53.7171 55.3045 53.7337C55.036 53.7701 54.7958 53.8298 54.5836 53.9126C54.3715 53.9955 54.2041 54.1115 54.0815 54.2607C53.9589 54.4065 53.8975 54.5954 53.8975 54.8274C53.8975 55.1589 54.0185 55.4091 54.2605 55.5781C54.5024 55.7472 54.8107 55.8317 55.1852 55.8317ZM62.3592 52.5256V57H60.5595V49.3636H62.2797V50.6612H62.3691C62.5448 50.2337 62.8249 49.8939 63.2093 49.642C63.5971 49.3902 64.0761 49.2642 64.6461 49.2642C65.1731 49.2642 65.6322 49.3769 66.0233 49.6023C66.4177 49.8277 66.7226 50.1541 66.938 50.5817C67.1568 51.0092 67.2645 51.5279 67.2612 52.1378V57H65.4615V52.4162C65.4615 51.9058 65.3289 51.5064 65.0637 51.218C64.8019 50.9297 64.439 50.7855 63.975 50.7855C63.6601 50.7855 63.38 50.8551 63.1348 50.9943C62.8928 51.1302 62.7022 51.3274 62.563 51.5859C62.4271 51.8445 62.3592 52.1577 62.3592 52.5256ZM72.4118 60.0227C71.7654 60.0227 71.2103 59.9349 70.7463 59.7592C70.2823 59.5869 69.9094 59.3549 69.6277 59.0632C69.3459 58.7715 69.1504 58.4484 69.041 58.0938L70.6618 57.701C70.7347 57.8501 70.8407 57.9976 70.9799 58.1435C71.1191 58.2926 71.3064 58.4152 71.5417 58.5114C71.7804 58.6108 72.0803 58.6605 72.4416 58.6605C72.952 58.6605 73.3746 58.5362 73.7093 58.2876C74.0441 58.0424 74.2115 57.638 74.2115 57.0746V55.6278H74.122C74.0292 55.8134 73.8933 56.004 73.7143 56.1996C73.5386 56.3951 73.305 56.5592 73.0133 56.6918C72.725 56.8243 72.362 56.8906 71.9245 56.8906C71.3379 56.8906 70.8059 56.7531 70.3287 56.478C69.8547 56.1996 69.4769 55.7853 69.1951 55.2351C68.9167 54.6816 68.7775 53.9889 68.7775 53.157C68.7775 52.3184 68.9167 51.6108 69.1951 51.0341C69.4769 50.4541 69.8564 50.0149 70.3336 49.7166C70.8109 49.415 71.3429 49.2642 71.9295 49.2642C72.377 49.2642 72.7449 49.3404 73.0332 49.4929C73.3249 49.642 73.5569 49.8227 73.7292 50.0348C73.9016 50.2436 74.0325 50.4408 74.122 50.6264H74.2214V49.3636H75.9963V57.1243C75.9963 57.7772 75.8405 58.3175 75.5289 58.745C75.2174 59.1726 74.7915 59.4924 74.2512 59.7045C73.711 59.9167 73.0978 60.0227 72.4118 60.0227ZM72.4267 55.4787C72.8078 55.4787 73.1326 55.3859 73.4011 55.2003C73.6696 55.0147 73.8734 54.7479 74.0126 54.3999C74.1518 54.0518 74.2214 53.6342 74.2214 53.147C74.2214 52.6664 74.1518 52.2455 74.0126 51.8842C73.8767 51.523 73.6745 51.2429 73.4061 51.044C73.1409 50.8419 72.8145 50.7408 72.4267 50.7408C72.0256 50.7408 71.6909 50.8452 71.4224 51.054C71.1539 51.2628 70.9518 51.5495 70.8159 51.9141C70.68 52.2753 70.612 52.6863 70.612 53.147C70.612 53.6143 70.68 54.0237 70.8159 54.375C70.9551 54.723 71.1589 54.9948 71.4274 55.1903C71.6992 55.3826 72.0323 55.4787 72.4267 55.4787ZM81.2214 57.1491C80.4558 57.1491 79.7946 56.9901 79.2377 56.6719C78.6842 56.3504 78.2583 55.8963 77.96 55.3097C77.6618 54.7197 77.5126 54.0253 77.5126 53.2266C77.5126 52.4411 77.6618 51.7517 77.96 51.1584C78.2617 50.5618 78.6826 50.0978 79.2228 49.7663C79.7631 49.4316 80.3978 49.2642 81.127 49.2642C81.5976 49.2642 82.0417 49.3404 82.4593 49.4929C82.8803 49.642 83.2515 49.8741 83.573 50.1889C83.8978 50.5038 84.153 50.9048 84.3386 51.392C84.5242 51.8759 84.617 52.4527 84.617 53.1222V53.674H78.3578V52.4609H82.8919C82.8886 52.1162 82.814 51.8097 82.6681 51.5412C82.5223 51.2694 82.3185 51.0556 82.0566 50.8999C81.7981 50.7441 81.4965 50.6662 81.1518 50.6662C80.7839 50.6662 80.4608 50.7557 80.1824 50.9347C79.9039 51.1103 79.6868 51.3423 79.5311 51.6307C79.3786 51.9157 79.3007 52.2289 79.2974 52.5703V53.6293C79.2974 54.0734 79.3786 54.4545 79.541 54.7727C79.7034 55.0876 79.9305 55.3295 80.2221 55.4986C80.5138 55.6643 80.8552 55.7472 81.2463 55.7472C81.5081 55.7472 81.7451 55.7107 81.9572 55.6378C82.1693 55.5616 82.3533 55.4505 82.5091 55.3047C82.6648 55.1589 82.7825 54.9782 82.862 54.7628L84.5424 54.9517C84.4364 55.3958 84.2342 55.7836 83.9359 56.1151C83.6409 56.4432 83.2631 56.6984 82.8024 56.8807C82.3417 57.0597 81.8147 57.1491 81.2214 57.1491ZM88.9734 57.1342C88.3735 57.1342 87.8365 56.9801 87.3626 56.6719C86.8886 56.3636 86.5141 55.9162 86.239 55.3295C85.9639 54.7429 85.8263 54.0303 85.8263 53.1918C85.8263 52.3433 85.9656 51.6274 86.244 51.044C86.5257 50.4574 86.9052 50.0149 87.3825 49.7166C87.8597 49.415 88.3917 49.2642 88.9783 49.2642C89.4258 49.2642 89.7937 49.3404 90.082 49.4929C90.3704 49.642 90.5991 49.8227 90.7681 50.0348C90.9371 50.2436 91.0681 50.4408 91.1609 50.6264H91.2354V46.8182H93.0401V57H91.2702V55.7969H91.1609C91.0681 55.9825 90.9338 56.1797 90.7582 56.3885C90.5825 56.594 90.3505 56.7696 90.0621 56.9155C89.7738 57.0613 89.4109 57.1342 88.9734 57.1342ZM89.4755 55.6577C89.8567 55.6577 90.1815 55.5549 90.4499 55.3494C90.7184 55.1406 90.9222 54.8506 91.0614 54.4794C91.2006 54.1082 91.2702 53.6757 91.2702 53.1818C91.2702 52.688 91.2006 52.2588 91.0614 51.8942C90.9255 51.5296 90.7234 51.2462 90.4549 51.044C90.1897 50.8419 89.8633 50.7408 89.4755 50.7408C89.0745 50.7408 88.7397 50.8452 88.4712 51.054C88.2028 51.2628 88.0006 51.5511 87.8647 51.919C87.7288 52.2869 87.6609 52.7079 87.6609 53.1818C87.6609 53.6591 87.7288 54.085 87.8647 54.4595C88.0039 54.8307 88.2077 55.1241 88.4762 55.3395C88.748 55.5516 89.0811 55.6577 89.4755 55.6577ZM100.23 52.5256V57H98.4306V46.8182H100.191V50.6612H100.28C100.459 50.2304 100.736 49.8906 101.11 49.642C101.488 49.3902 101.969 49.2642 102.552 49.2642C103.082 49.2642 103.545 49.3752 103.939 49.5973C104.334 49.8194 104.638 50.1442 104.854 50.5717C105.073 50.9993 105.182 51.5213 105.182 52.1378V57H103.382V52.4162C103.382 51.9025 103.25 51.5031 102.985 51.218C102.723 50.9297 102.355 50.7855 101.881 50.7855C101.563 50.7855 101.278 50.8551 101.026 50.9943C100.777 51.1302 100.582 51.3274 100.439 51.5859C100.3 51.8445 100.23 52.1577 100.23 52.5256ZM110.347 57.1491C109.602 57.1491 108.955 56.9851 108.409 56.657C107.862 56.3288 107.437 55.8698 107.136 55.2798C106.838 54.6899 106.688 54.0005 106.688 53.2116C106.688 52.4228 106.838 51.7318 107.136 51.1385C107.437 50.5452 107.862 50.0845 108.409 49.7564C108.955 49.4283 109.602 49.2642 110.347 49.2642C111.093 49.2642 111.74 49.4283 112.286 49.7564C112.833 50.0845 113.256 50.5452 113.554 51.1385C113.856 51.7318 114.007 52.4228 114.007 53.2116C114.007 54.0005 113.856 54.6899 113.554 55.2798C113.256 55.8698 112.833 56.3288 112.286 56.657C111.74 56.9851 111.093 57.1491 110.347 57.1491ZM110.357 55.7074C110.762 55.7074 111.1 55.5964 111.372 55.3743C111.643 55.1489 111.846 54.8473 111.978 54.4695C112.114 54.0916 112.182 53.6707 112.182 53.2067C112.182 52.7393 112.114 52.3168 111.978 51.9389C111.846 51.5578 111.643 51.2545 111.372 51.0291C111.1 50.8037 110.762 50.6911 110.357 50.6911C109.943 50.6911 109.598 50.8037 109.323 51.0291C109.052 51.2545 108.848 51.5578 108.712 51.9389C108.579 52.3168 108.513 52.7393 108.513 53.2067C108.513 53.6707 108.579 54.0916 108.712 54.4695C108.848 54.8473 109.052 55.1489 109.323 55.3743C109.598 55.5964 109.943 55.7074 110.357 55.7074ZM116.891 57L114.734 49.3636H116.568L117.911 54.733H117.98L119.352 49.3636H121.167L122.539 54.7031H122.614L123.936 49.3636H125.776L123.613 57H121.739L120.307 51.8395H120.202L118.771 57H116.891ZM132.429 46.8182V57H130.584V46.8182H132.429ZM141.15 57.1491C140.388 57.1491 139.733 56.9818 139.186 56.647C138.643 56.3123 138.224 55.8499 137.929 55.2599C137.637 54.6667 137.491 53.9839 137.491 53.2116C137.491 52.4361 137.64 51.7517 137.939 51.1584C138.237 50.5618 138.658 50.0978 139.201 49.7663C139.748 49.4316 140.395 49.2642 141.14 49.2642C141.76 49.2642 142.309 49.3786 142.786 49.6072C143.266 49.8326 143.649 50.1525 143.934 50.5668C144.219 50.9777 144.382 51.4583 144.422 52.0085H142.701C142.632 51.6406 142.466 51.334 142.204 51.0888C141.946 50.8402 141.599 50.7159 141.165 50.7159C140.797 50.7159 140.474 50.8153 140.196 51.0142C139.917 51.2098 139.7 51.4915 139.544 51.8594C139.392 52.2273 139.316 52.6681 139.316 53.1818C139.316 53.7022 139.392 54.1496 139.544 54.5241C139.697 54.8954 139.911 55.1821 140.186 55.3842C140.464 55.5831 140.791 55.6825 141.165 55.6825C141.43 55.6825 141.667 55.6328 141.876 55.5334C142.088 55.4306 142.266 55.2831 142.408 55.0909C142.551 54.8987 142.648 54.665 142.701 54.3899H144.422C144.378 54.9302 144.219 55.4091 143.944 55.8267C143.669 56.241 143.295 56.5658 142.821 56.8011C142.347 57.0331 141.79 57.1491 141.15 57.1491ZM145.899 57V49.3636H147.644V50.6364H147.724C147.863 50.1955 148.102 49.8558 148.44 49.6172C148.781 49.3752 149.171 49.2543 149.608 49.2543C149.708 49.2543 149.819 49.2592 149.941 49.2692C150.067 49.2758 150.172 49.2874 150.254 49.304V50.9595C150.178 50.933 150.057 50.9098 149.892 50.8899C149.729 50.8667 149.572 50.8551 149.419 50.8551C149.091 50.8551 148.796 50.9264 148.534 51.0689C148.276 51.2081 148.072 51.402 147.923 51.6506C147.774 51.8991 147.699 52.1858 147.699 52.5107V57H145.899ZM154.516 57.1491C153.751 57.1491 153.089 56.9901 152.533 56.6719C151.979 56.3504 151.553 55.8963 151.255 55.3097C150.957 54.7197 150.808 54.0253 150.808 53.2266C150.808 52.4411 150.957 51.7517 151.255 51.1584C151.557 50.5618 151.978 50.0978 152.518 49.7663C153.058 49.4316 153.693 49.2642 154.422 49.2642C154.893 49.2642 155.337 49.3404 155.754 49.4929C156.175 49.642 156.546 49.8741 156.868 50.1889C157.193 50.5038 157.448 50.9048 157.634 51.392C157.819 51.8759 157.912 52.4527 157.912 53.1222V53.674H151.653V52.4609H156.187C156.183 52.1162 156.109 51.8097 155.963 51.5412C155.817 51.2694 155.613 51.0556 155.352 50.8999C155.093 50.7441 154.791 50.6662 154.447 50.6662C154.079 50.6662 153.756 50.7557 153.477 50.9347C153.199 51.1103 152.982 51.3423 152.826 51.6307C152.674 51.9157 152.596 52.2289 152.592 52.5703V53.6293C152.592 54.0734 152.674 54.4545 152.836 54.7727C152.998 55.0876 153.225 55.3295 153.517 55.4986C153.809 55.6643 154.15 55.7472 154.541 55.7472C154.803 55.7472 155.04 55.7107 155.252 55.6378C155.464 55.5616 155.648 55.4505 155.804 55.3047C155.96 55.1589 156.077 54.9782 156.157 54.7628L157.837 54.9517C157.731 55.3958 157.529 55.7836 157.231 56.1151C156.936 56.4432 156.558 56.6984 156.097 56.8807C155.637 57.0597 155.11 57.1491 154.516 57.1491ZM161.632 57.1541C161.148 57.1541 160.712 57.0679 160.324 56.8956C159.94 56.7199 159.635 56.4614 159.41 56.12C159.188 55.7786 159.077 55.3577 159.077 54.8572C159.077 54.4264 159.156 54.0701 159.315 53.7884C159.474 53.5066 159.691 53.2812 159.966 53.1122C160.242 52.9432 160.551 52.8156 160.896 52.7294C161.244 52.6399 161.604 52.5753 161.975 52.5355C162.422 52.4891 162.785 52.4477 163.064 52.4112C163.342 52.3714 163.544 52.3118 163.67 52.2322C163.8 52.1494 163.864 52.0218 163.864 51.8494V51.8196C163.864 51.4451 163.753 51.1551 163.531 50.9496C163.309 50.7441 162.989 50.6413 162.572 50.6413C162.131 50.6413 161.781 50.7375 161.523 50.9297C161.267 51.1219 161.095 51.349 161.006 51.6108L159.325 51.3722C159.458 50.9081 159.676 50.5204 159.981 50.2088C160.286 49.8939 160.659 49.6586 161.1 49.5028C161.541 49.3438 162.028 49.2642 162.562 49.2642C162.93 49.2642 163.296 49.3073 163.66 49.3935C164.025 49.4796 164.358 49.6222 164.66 49.821C164.961 50.0166 165.203 50.2834 165.385 50.6214C165.571 50.9595 165.664 51.3821 165.664 51.8892V57H163.934V55.951H163.874C163.765 56.1631 163.611 56.362 163.412 56.5476C163.216 56.7299 162.969 56.8774 162.671 56.9901C162.376 57.0994 162.03 57.1541 161.632 57.1541ZM162.099 55.8317C162.461 55.8317 162.774 55.7604 163.039 55.6179C163.304 55.4721 163.508 55.2798 163.65 55.0412C163.796 54.8026 163.869 54.5424 163.869 54.2607V53.3608C163.813 53.4072 163.717 53.4503 163.581 53.4901C163.448 53.5298 163.299 53.5646 163.133 53.5945C162.968 53.6243 162.804 53.6508 162.641 53.674C162.479 53.6972 162.338 53.7171 162.219 53.7337C161.95 53.7701 161.71 53.8298 161.498 53.9126C161.286 53.9955 161.118 54.1115 160.996 54.2607C160.873 54.4065 160.812 54.5954 160.812 54.8274C160.812 55.1589 160.933 55.4091 161.175 55.5781C161.416 55.7472 161.725 55.8317 162.099 55.8317ZM171.287 49.3636V50.7557H166.897V49.3636H171.287ZM167.981 47.5341H169.78V54.7031C169.78 54.9451 169.817 55.1307 169.89 55.2599C169.966 55.3859 170.065 55.4721 170.188 55.5185C170.311 55.5649 170.447 55.5881 170.596 55.5881C170.708 55.5881 170.811 55.5798 170.904 55.5632C171 55.5466 171.073 55.5317 171.123 55.5185L171.426 56.9254C171.33 56.9586 171.192 56.995 171.013 57.0348C170.838 57.0746 170.622 57.0978 170.367 57.1044C169.916 57.1177 169.51 57.0497 169.149 56.9006C168.788 56.7481 168.501 56.5128 168.289 56.1946C168.08 55.8764 167.977 55.4787 167.981 55.0014V47.5341ZM176.091 57.1491C175.325 57.1491 174.664 56.9901 174.107 56.6719C173.553 56.3504 173.127 55.8963 172.829 55.3097C172.531 54.7197 172.382 54.0253 172.382 53.2266C172.382 52.4411 172.531 51.7517 172.829 51.1584C173.131 50.5618 173.552 50.0978 174.092 49.7663C174.632 49.4316 175.267 49.2642 175.996 49.2642C176.467 49.2642 176.911 49.3404 177.328 49.4929C177.749 49.642 178.121 49.8741 178.442 50.1889C178.767 50.5038 179.022 50.9048 179.208 51.392C179.393 51.8759 179.486 52.4527 179.486 53.1222V53.674H173.227V52.4609H177.761C177.758 52.1162 177.683 51.8097 177.537 51.5412C177.391 51.2694 177.188 51.0556 176.926 50.8999C176.667 50.7441 176.366 50.6662 176.021 50.6662C175.653 50.6662 175.33 50.7557 175.051 50.9347C174.773 51.1103 174.556 51.3423 174.4 51.6307C174.248 51.9157 174.17 52.2289 174.167 52.5703V53.6293C174.167 54.0734 174.248 54.4545 174.41 54.7727C174.573 55.0876 174.8 55.3295 175.091 55.4986C175.383 55.6643 175.724 55.7472 176.115 55.7472C176.377 55.7472 176.614 55.7107 176.826 55.6378C177.038 55.5616 177.222 55.4505 177.378 55.3047C177.534 55.1589 177.652 54.9782 177.731 54.7628L179.412 54.9517C179.306 55.3958 179.103 55.7836 178.805 56.1151C178.51 56.4432 178.132 56.6984 177.672 56.8807C177.211 57.0597 176.684 57.1491 176.091 57.1491ZM187.812 57.1491C187.05 57.1491 186.395 56.9818 185.849 56.647C185.305 56.3123 184.886 55.8499 184.591 55.2599C184.299 54.6667 184.153 53.9839 184.153 53.2116C184.153 52.4361 184.302 51.7517 184.601 51.1584C184.899 50.5618 185.32 50.0978 185.863 49.7663C186.41 49.4316 187.057 49.2642 187.802 49.2642C188.422 49.2642 188.971 49.3786 189.448 49.6072C189.929 49.8326 190.311 50.1525 190.596 50.5668C190.881 50.9777 191.044 51.4583 191.084 52.0085H189.363C189.294 51.6406 189.128 51.334 188.866 51.0888C188.608 50.8402 188.261 50.7159 187.827 50.7159C187.459 50.7159 187.136 50.8153 186.858 51.0142C186.579 51.2098 186.362 51.4915 186.206 51.8594C186.054 52.2273 185.978 52.6681 185.978 53.1818C185.978 53.7022 186.054 54.1496 186.206 54.5241C186.359 54.8954 186.573 55.1821 186.848 55.3842C187.126 55.5831 187.453 55.6825 187.827 55.6825C188.092 55.6825 188.329 55.6328 188.538 55.5334C188.75 55.4306 188.928 55.2831 189.07 55.0909C189.213 54.8987 189.31 54.665 189.363 54.3899H191.084C191.041 54.9302 190.881 55.4091 190.606 55.8267C190.331 56.241 189.957 56.5658 189.483 56.8011C189.009 57.0331 188.452 57.1491 187.812 57.1491ZM195.892 57.1491C195.147 57.1491 194.5 56.9851 193.953 56.657C193.407 56.3288 192.982 55.8698 192.681 55.2798C192.382 54.6899 192.233 54.0005 192.233 53.2116C192.233 52.4228 192.382 51.7318 192.681 51.1385C192.982 50.5452 193.407 50.0845 193.953 49.7564C194.5 49.4283 195.147 49.2642 195.892 49.2642C196.638 49.2642 197.284 49.4283 197.831 49.7564C198.378 50.0845 198.801 50.5452 199.099 51.1385C199.401 51.7318 199.551 52.4228 199.551 53.2116C199.551 54.0005 199.401 54.6899 199.099 55.2798C198.801 55.8698 198.378 56.3288 197.831 56.657C197.284 56.9851 196.638 57.1491 195.892 57.1491ZM195.902 55.7074C196.307 55.7074 196.645 55.5964 196.917 55.3743C197.188 55.1489 197.391 54.8473 197.523 54.4695C197.659 54.0916 197.727 53.6707 197.727 53.2067C197.727 52.7393 197.659 52.3168 197.523 51.9389C197.391 51.5578 197.188 51.2545 196.917 51.0291C196.645 50.8037 196.307 50.6911 195.902 50.6911C195.488 50.6911 195.143 50.8037 194.868 51.0291C194.596 51.2545 194.393 51.5578 194.257 51.9389C194.124 52.3168 194.058 52.7393 194.058 53.2067C194.058 53.6707 194.124 54.0916 194.257 54.4695C194.393 54.8473 194.596 55.1489 194.868 55.3743C195.143 55.5964 195.488 55.7074 195.902 55.7074ZM202.879 52.5256V57H201.079V49.3636H202.799V50.6612H202.889C203.064 50.2337 203.344 49.8939 203.729 49.642C204.117 49.3902 204.596 49.2642 205.166 49.2642C205.693 49.2642 206.152 49.3769 206.543 49.6023C206.937 49.8277 207.242 50.1541 207.458 50.5817C207.676 51.0092 207.784 51.5279 207.781 52.1378V57H205.981V52.4162C205.981 51.9058 205.848 51.5064 205.583 51.218C205.321 50.9297 204.959 50.7855 204.494 50.7855C204.18 50.7855 203.9 50.8551 203.654 50.9943C203.412 51.1302 203.222 51.3274 203.083 51.5859C202.947 51.8445 202.879 52.1577 202.879 52.5256ZM213.423 49.3636V50.7557H209.034V49.3636H213.423ZM210.117 47.5341H211.917V54.7031C211.917 54.9451 211.954 55.1307 212.026 55.2599C212.103 55.3859 212.202 55.4721 212.325 55.5185C212.447 55.5649 212.583 55.5881 212.732 55.5881C212.845 55.5881 212.948 55.5798 213.041 55.5632C213.137 55.5466 213.21 55.5317 213.259 55.5185L213.563 56.9254C213.467 56.9586 213.329 56.995 213.15 57.0348C212.974 57.0746 212.759 57.0978 212.504 57.1044C212.053 57.1177 211.647 57.0497 211.286 56.9006C210.924 56.7481 210.638 56.5128 210.426 56.1946C210.217 55.8764 210.114 55.4787 210.117 55.0014V47.5341ZM218.227 57.1491C217.462 57.1491 216.8 56.9901 216.244 56.6719C215.69 56.3504 215.264 55.8963 214.966 55.3097C214.668 54.7197 214.518 54.0253 214.518 53.2266C214.518 52.4411 214.668 51.7517 214.966 51.1584C215.268 50.5618 215.688 50.0978 216.229 49.7663C216.769 49.4316 217.404 49.2642 218.133 49.2642C218.603 49.2642 219.048 49.3404 219.465 49.4929C219.886 49.642 220.257 49.8741 220.579 50.1889C220.904 50.5038 221.159 50.9048 221.344 51.392C221.53 51.8759 221.623 52.4527 221.623 53.1222V53.674H215.364V52.4609H219.898C219.894 52.1162 219.82 51.8097 219.674 51.5412C219.528 51.2694 219.324 51.0556 219.062 50.8999C218.804 50.7441 218.502 50.6662 218.158 50.6662C217.79 50.6662 217.467 50.7557 217.188 50.9347C216.91 51.1103 216.693 51.3423 216.537 51.6307C216.384 51.9157 216.307 52.2289 216.303 52.5703V53.6293C216.303 54.0734 216.384 54.4545 216.547 54.7727C216.709 55.0876 216.936 55.3295 217.228 55.4986C217.52 55.6643 217.861 55.7472 218.252 55.7472C218.514 55.7472 218.751 55.7107 218.963 55.6378C219.175 55.5616 219.359 55.4505 219.515 55.3047C219.671 55.1589 219.788 54.9782 219.868 54.7628L221.548 54.9517C221.442 55.3958 221.24 55.7836 220.942 56.1151C220.647 56.4432 220.269 56.6984 219.808 56.8807C219.348 57.0597 218.821 57.1491 218.227 57.1491ZM224.945 52.5256V57H223.145V49.3636H224.866V50.6612H224.955C225.131 50.2337 225.411 49.8939 225.795 49.642C226.183 49.3902 226.662 49.2642 227.232 49.2642C227.759 49.2642 228.218 49.3769 228.609 49.6023C229.004 49.8277 229.309 50.1541 229.524 50.5817C229.743 51.0092 229.85 51.5279 229.847 52.1378V57H228.047V52.4162C228.047 51.9058 227.915 51.5064 227.65 51.218C227.388 50.9297 227.025 50.7855 226.561 50.7855C226.246 50.7855 225.966 50.8551 225.721 50.9943C225.479 51.1302 225.288 51.3274 225.149 51.5859C225.013 51.8445 224.945 52.1577 224.945 52.5256ZM235.49 49.3636V50.7557H231.1V49.3636H235.49ZM232.184 47.5341H233.983V54.7031C233.983 54.9451 234.02 55.1307 234.093 55.2599C234.169 55.3859 234.269 55.4721 234.391 55.5185C234.514 55.5649 234.65 55.5881 234.799 55.5881C234.912 55.5881 235.014 55.5798 235.107 55.5632C235.203 55.5466 235.276 55.5317 235.326 55.5185L235.629 56.9254C235.533 56.9586 235.395 56.995 235.216 57.0348C235.041 57.0746 234.825 57.0978 234.57 57.1044C234.119 57.1177 233.713 57.0497 233.352 56.9006C232.991 56.7481 232.704 56.5128 232.492 56.1946C232.283 55.8764 232.18 55.4787 232.184 55.0014V47.5341ZM73.6963 69.0185V70.5H59.6963V69.0185H73.6963ZM78.0937 74V66.3636H79.8934V74H78.0937ZM78.9985 65.2798C78.7135 65.2798 78.4682 65.1854 78.2627 64.9964C78.0572 64.8042 77.9545 64.5739 77.9545 64.3054C77.9545 64.0336 78.0572 63.8033 78.2627 63.6143C78.4682 63.4221 78.7135 63.326 78.9985 63.326C79.2868 63.326 79.5321 63.4221 79.7343 63.6143C79.9398 63.8033 80.0425 64.0336 80.0425 64.3054C80.0425 64.5739 79.9398 64.8042 79.7343 64.9964C79.5321 65.1854 79.2868 65.2798 78.9985 65.2798ZM85.5573 66.3636V67.7557H81.1673V66.3636H85.5573ZM82.2512 64.5341H84.0509V71.7031C84.0509 71.9451 84.0873 72.1307 84.1602 72.2599C84.2365 72.3859 84.3359 72.4721 84.4585 72.5185C84.5812 72.5649 84.7171 72.5881 84.8662 72.5881C84.9789 72.5881 85.0816 72.5798 85.1744 72.5632C85.2706 72.5466 85.3435 72.5317 85.3932 72.5185L85.6965 73.9254C85.6003 73.9586 85.4628 73.995 85.2838 74.0348C85.1082 74.0746 84.8927 74.0978 84.6375 74.1044C84.1868 74.1177 83.7807 74.0497 83.4195 73.9006C83.0582 73.7481 82.7715 73.5128 82.5594 73.1946C82.3506 72.8764 82.2478 72.4787 82.2512 72.0014V64.5341ZM88.9442 63.8182V64.8324C88.9442 65.1241 88.8878 65.4273 88.7751 65.7422C88.6657 66.0537 88.5149 66.352 88.3227 66.6371C88.1305 66.9188 87.9117 67.1607 87.6665 67.3629L86.8312 66.821C87.0135 66.5459 87.1726 66.2493 87.3085 65.9311C87.4444 65.6096 87.5123 65.2467 87.5123 64.8423V63.8182H88.9442ZM95.4495 68.3821L93.8089 68.5611C93.7625 68.3954 93.6813 68.2396 93.5653 68.0938C93.4526 67.9479 93.3001 67.8303 93.1079 67.7408C92.9156 67.6513 92.6803 67.6065 92.4019 67.6065C92.0274 67.6065 91.7125 67.6877 91.4573 67.8501C91.2054 68.0125 91.0811 68.223 91.0844 68.4815C91.0811 68.7036 91.1623 68.8842 91.328 69.0234C91.4971 69.1626 91.7755 69.277 92.1633 69.3665L93.4658 69.6449C94.1884 69.8007 94.7253 70.0476 95.0766 70.3857C95.4313 70.7237 95.6102 71.1662 95.6135 71.7131C95.6102 72.1937 95.4694 72.6179 95.191 72.9858C94.9159 73.3504 94.5331 73.6354 94.0425 73.8409C93.552 74.0464 92.9885 74.1491 92.3522 74.1491C91.4175 74.1491 90.6652 73.9536 90.0951 73.5625C89.525 73.1681 89.1853 72.6196 89.0759 71.9169L90.8309 71.7479C90.9104 72.0926 91.0795 72.3527 91.338 72.5284C91.5965 72.7041 91.9329 72.7919 92.3472 72.7919C92.7748 72.7919 93.1178 72.7041 93.3763 72.5284C93.6382 72.3527 93.7691 72.1357 93.7691 71.8771C93.7691 71.6584 93.6846 71.4777 93.5155 71.3352C93.3498 71.1927 93.0913 71.0833 92.74 71.0071L91.4374 70.7337C90.7049 70.5812 90.163 70.3243 89.8117 69.9631C89.4604 69.5985 89.2864 69.1378 89.2897 68.581C89.2864 68.1103 89.414 67.7027 89.6725 67.358C89.9343 67.0099 90.2973 66.7415 90.7613 66.5526C91.2286 66.3603 91.7672 66.2642 92.377 66.2642C93.2719 66.2642 93.9762 66.4548 94.49 66.8359C95.007 67.2171 95.3269 67.7325 95.4495 68.3821ZM102.768 74.1541C102.284 74.1541 101.848 74.0679 101.46 73.8956C101.076 73.7199 100.771 73.4614 100.545 73.12C100.323 72.7786 100.212 72.3577 100.212 71.8572C100.212 71.4264 100.292 71.0701 100.451 70.7884C100.61 70.5066 100.827 70.2812 101.102 70.1122C101.377 69.9432 101.687 69.8156 102.032 69.7294C102.38 69.6399 102.739 69.5753 103.111 69.5355C103.558 69.4891 103.921 69.4477 104.199 69.4112C104.478 69.3714 104.68 69.3118 104.806 69.2322C104.935 69.1494 105 69.0218 105 68.8494V68.8196C105 68.4451 104.889 68.1551 104.667 67.9496C104.445 67.7441 104.125 67.6413 103.707 67.6413C103.266 67.6413 102.917 67.7375 102.658 67.9297C102.403 68.1219 102.231 68.349 102.141 68.6108L100.461 68.3722C100.593 67.9081 100.812 67.5204 101.117 67.2088C101.422 66.8939 101.795 66.6586 102.236 66.5028C102.677 66.3438 103.164 66.2642 103.697 66.2642C104.065 66.2642 104.431 66.3073 104.796 66.3935C105.161 66.4796 105.494 66.6222 105.795 66.821C106.097 67.0166 106.339 67.2834 106.521 67.6214C106.707 67.9595 106.8 68.3821 106.8 68.8892V74H105.07V72.951H105.01C104.9 73.1631 104.746 73.362 104.547 73.5476C104.352 73.7299 104.105 73.8774 103.807 73.9901C103.512 74.0994 103.165 74.1541 102.768 74.1541ZM103.235 72.8317C103.596 72.8317 103.909 72.7604 104.175 72.6179C104.44 72.4721 104.644 72.2798 104.786 72.0412C104.932 71.8026 105.005 71.5424 105.005 71.2607V70.3608C104.949 70.4072 104.852 70.4503 104.717 70.4901C104.584 70.5298 104.435 70.5646 104.269 70.5945C104.103 70.6243 103.939 70.6508 103.777 70.674C103.614 70.6972 103.474 70.7171 103.354 70.7337C103.086 70.7701 102.846 70.8298 102.633 70.9126C102.421 70.9955 102.254 71.1115 102.131 71.2607C102.009 71.4065 101.947 71.5954 101.947 71.8274C101.947 72.1589 102.068 72.4091 102.31 72.5781C102.552 72.7472 102.86 72.8317 103.235 72.8317ZM115.403 77.0227C114.757 77.0227 114.201 76.9349 113.737 76.7592C113.273 76.5869 112.901 76.3549 112.619 76.0632C112.337 75.7715 112.142 75.4484 112.032 75.0938L113.653 74.701C113.726 74.8501 113.832 74.9976 113.971 75.1435C114.11 75.2926 114.298 75.4152 114.533 75.5114C114.772 75.6108 115.072 75.6605 115.433 75.6605C115.943 75.6605 116.366 75.5362 116.701 75.2876C117.035 75.0424 117.203 74.638 117.203 74.0746V72.6278H117.113C117.02 72.8134 116.884 73.004 116.706 73.1996C116.53 73.3951 116.296 73.5592 116.005 73.6918C115.716 73.8243 115.353 73.8906 114.916 73.8906C114.329 73.8906 113.797 73.7531 113.32 73.478C112.846 73.1996 112.468 72.7853 112.186 72.2351C111.908 71.6816 111.769 70.9889 111.769 70.157C111.769 69.3184 111.908 68.6108 112.186 68.0341C112.468 67.4541 112.848 67.0149 113.325 66.7166C113.802 66.415 114.334 66.2642 114.921 66.2642C115.368 66.2642 115.736 66.3404 116.024 66.4929C116.316 66.642 116.548 66.8227 116.72 67.0348C116.893 67.2436 117.024 67.4408 117.113 67.6264H117.213V66.3636H118.987V74.1243C118.987 74.7772 118.832 75.3175 118.52 75.745C118.209 76.1726 117.783 76.4924 117.242 76.7045C116.702 76.9167 116.089 77.0227 115.403 77.0227ZM115.418 72.4787C115.799 72.4787 116.124 72.3859 116.392 72.2003C116.661 72.0147 116.865 71.7479 117.004 71.3999C117.143 71.0518 117.213 70.6342 117.213 70.147C117.213 69.6664 117.143 69.2455 117.004 68.8842C116.868 68.523 116.666 68.2429 116.397 68.044C116.132 67.8419 115.806 67.7408 115.418 67.7408C115.017 67.7408 114.682 67.8452 114.414 68.054C114.145 68.2628 113.943 68.5495 113.807 68.9141C113.671 69.2753 113.603 69.6863 113.603 70.147C113.603 70.6143 113.671 71.0237 113.807 71.375C113.946 71.723 114.15 71.9948 114.419 72.1903C114.69 72.3826 115.023 72.4787 115.418 72.4787ZM123.029 74.1541C122.545 74.1541 122.11 74.0679 121.722 73.8956C121.337 73.7199 121.032 73.4614 120.807 73.12C120.585 72.7786 120.474 72.3577 120.474 71.8572C120.474 71.4264 120.554 71.0701 120.713 70.7884C120.872 70.5066 121.089 70.2812 121.364 70.1122C121.639 69.9432 121.949 69.8156 122.294 69.7294C122.642 69.6399 123.001 69.5753 123.372 69.5355C123.82 69.4891 124.183 69.4477 124.461 69.4112C124.74 69.3714 124.942 69.3118 125.068 69.2322C125.197 69.1494 125.262 69.0218 125.262 68.8494V68.8196C125.262 68.4451 125.151 68.1551 124.929 67.9496C124.706 67.7441 124.387 67.6413 123.969 67.6413C123.528 67.6413 123.179 67.7375 122.92 67.9297C122.665 68.1219 122.492 68.349 122.403 68.6108L120.723 68.3722C120.855 67.9081 121.074 67.5204 121.379 67.2088C121.684 66.8939 122.057 66.6586 122.497 66.5028C122.938 66.3438 123.425 66.2642 123.959 66.2642C124.327 66.2642 124.693 66.3073 125.058 66.3935C125.422 66.4796 125.755 66.6222 126.057 66.821C126.359 67.0166 126.601 67.2834 126.783 67.6214C126.969 67.9595 127.061 68.3821 127.061 68.8892V74H125.331V72.951H125.272C125.162 73.1631 125.008 73.362 124.809 73.5476C124.614 73.7299 124.367 73.8774 124.068 73.9901C123.773 74.0994 123.427 74.1541 123.029 74.1541ZM123.497 72.8317C123.858 72.8317 124.171 72.7604 124.436 72.6179C124.701 72.4721 124.905 72.2798 125.048 72.0412C125.194 71.8026 125.267 71.5424 125.267 71.2607V70.3608C125.21 70.4072 125.114 70.4503 124.978 70.4901C124.846 70.5298 124.697 70.5646 124.531 70.5945C124.365 70.6243 124.201 70.6508 124.039 70.674C123.876 70.6972 123.735 70.7171 123.616 70.7337C123.348 70.7701 123.107 70.8298 122.895 70.9126C122.683 70.9955 122.516 71.1115 122.393 71.2607C122.27 71.4065 122.209 71.5954 122.209 71.8274C122.209 72.1589 122.33 72.4091 122.572 72.5781C122.814 72.7472 123.122 72.8317 123.497 72.8317ZM128.871 74V66.3636H130.591V67.6612H130.681C130.84 67.2237 131.103 66.8823 131.471 66.6371C131.839 66.3885 132.278 66.2642 132.789 66.2642C133.306 66.2642 133.742 66.3902 134.096 66.642C134.454 66.8906 134.706 67.2304 134.852 67.6612H134.931C135.1 67.237 135.385 66.8989 135.786 66.647C136.191 66.3918 136.67 66.2642 137.223 66.2642C137.926 66.2642 138.499 66.4863 138.943 66.9304C139.388 67.3745 139.61 68.0225 139.61 68.8743V74H137.805V69.1527C137.805 68.6787 137.679 68.3324 137.427 68.1136C137.175 67.8916 136.867 67.7805 136.502 67.7805C136.068 67.7805 135.728 67.9164 135.483 68.1882C135.241 68.4567 135.12 68.8063 135.12 69.2372V74H133.355V69.0781C133.355 68.6837 133.236 68.3688 132.997 68.1335C132.762 67.8982 132.454 67.7805 132.073 67.7805C131.814 67.7805 131.579 67.8468 131.367 67.9794C131.155 68.1087 130.986 68.2926 130.86 68.5312C130.734 68.7666 130.671 69.0417 130.671 69.3565V74H128.871ZM144.816 74.1491C144.051 74.1491 143.389 73.9901 142.832 73.6719C142.279 73.3504 141.853 72.8963 141.555 72.3097C141.256 71.7197 141.107 71.0253 141.107 70.2266C141.107 69.4411 141.256 68.7517 141.555 68.1584C141.856 67.5618 142.277 67.0978 142.818 66.7663C143.358 66.4316 143.993 66.2642 144.722 66.2642C145.192 66.2642 145.636 66.3404 146.054 66.4929C146.475 66.642 146.846 66.8741 147.168 67.1889C147.493 67.5038 147.748 67.9048 147.933 68.392C148.119 68.8759 148.212 69.4527 148.212 70.1222V70.674H141.953V69.4609H146.487C146.483 69.1162 146.409 68.8097 146.263 68.5412C146.117 68.2694 145.913 68.0556 145.651 67.8999C145.393 67.7441 145.091 67.6662 144.747 67.6662C144.379 67.6662 144.055 67.7557 143.777 67.9347C143.499 68.1103 143.282 68.3423 143.126 68.6307C142.973 68.9157 142.895 69.2289 142.892 69.5703V70.6293C142.892 71.0734 142.973 71.4545 143.136 71.7727C143.298 72.0876 143.525 72.3295 143.817 72.4986C144.109 72.6643 144.45 72.7472 144.841 72.7472C145.103 72.7472 145.34 72.7107 145.552 72.6378C145.764 72.5616 145.948 72.4505 146.104 72.3047C146.26 72.1589 146.377 71.9782 146.457 71.7628L148.137 71.9517C148.031 72.3958 147.829 72.7836 147.531 73.1151C147.236 73.4432 146.858 73.6984 146.397 73.8807C145.936 74.0597 145.409 74.1491 144.816 74.1491ZM156.538 74.1491C155.776 74.1491 155.121 73.9818 154.574 73.647C154.031 73.3123 153.611 72.8499 153.316 72.2599C153.025 71.6667 152.879 70.9839 152.879 70.2116C152.879 69.4361 153.028 68.7517 153.326 68.1584C153.625 67.5618 154.045 67.0978 154.589 66.7663C155.136 66.4316 155.782 66.2642 156.528 66.2642C157.148 66.2642 157.696 66.3786 158.174 66.6072C158.654 66.8326 159.037 67.1525 159.322 67.5668C159.607 67.9777 159.769 68.4583 159.809 69.0085H158.089C158.019 68.6406 157.854 68.334 157.592 68.0888C157.333 67.8402 156.987 67.7159 156.553 67.7159C156.185 67.7159 155.862 67.8153 155.583 68.0142C155.305 68.2098 155.088 68.4915 154.932 68.8594C154.78 69.2273 154.703 69.6681 154.703 70.1818C154.703 70.7022 154.78 71.1496 154.932 71.5241C155.085 71.8954 155.298 72.1821 155.573 72.3842C155.852 72.5831 156.178 72.6825 156.553 72.6825C156.818 72.6825 157.055 72.6328 157.264 72.5334C157.476 72.4306 157.653 72.2831 157.796 72.0909C157.938 71.8987 158.036 71.665 158.089 71.3899H159.809C159.766 71.9302 159.607 72.4091 159.332 72.8267C159.057 73.241 158.682 73.5658 158.208 73.8011C157.734 74.0331 157.178 74.1491 156.538 74.1491ZM163.087 69.5256V74H161.287V63.8182H163.047V67.6612H163.136C163.315 67.2304 163.592 66.8906 163.967 66.642C164.345 66.3902 164.825 66.2642 165.408 66.2642C165.939 66.2642 166.401 66.3752 166.796 66.5973C167.19 66.8194 167.495 67.1442 167.71 67.5717C167.929 67.9993 168.038 68.5213 168.038 69.1378V74H166.239V69.4162C166.239 68.9025 166.106 68.5031 165.841 68.218C165.579 67.9297 165.211 67.7855 164.737 67.7855C164.419 67.7855 164.134 67.8551 163.882 67.9943C163.634 68.1302 163.438 68.3274 163.296 68.5859C163.156 68.8445 163.087 69.1577 163.087 69.5256ZM172.07 74.1541C171.586 74.1541 171.151 74.0679 170.763 73.8956C170.378 73.7199 170.073 73.4614 169.848 73.12C169.626 72.7786 169.515 72.3577 169.515 71.8572C169.515 71.4264 169.595 71.0701 169.754 70.7884C169.913 70.5066 170.13 70.2812 170.405 70.1122C170.68 69.9432 170.99 69.8156 171.335 69.7294C171.683 69.6399 172.042 69.5753 172.413 69.5355C172.861 69.4891 173.224 69.4477 173.502 69.4112C173.781 69.3714 173.983 69.3118 174.109 69.2322C174.238 69.1494 174.303 69.0218 174.303 68.8494V68.8196C174.303 68.4451 174.192 68.1551 173.97 67.9496C173.747 67.7441 173.428 67.6413 173.01 67.6413C172.569 67.6413 172.22 67.7375 171.961 67.9297C171.706 68.1219 171.533 68.349 171.444 68.6108L169.764 68.3722C169.896 67.9081 170.115 67.5204 170.42 67.2088C170.725 66.8939 171.098 66.6586 171.538 66.5028C171.979 66.3438 172.466 66.2642 173 66.2642C173.368 66.2642 173.734 66.3073 174.099 66.3935C174.463 66.4796 174.796 66.6222 175.098 66.821C175.4 67.0166 175.642 67.2834 175.824 67.6214C176.01 67.9595 176.102 68.3821 176.102 68.8892V74H174.372V72.951H174.313C174.203 73.1631 174.049 73.362 173.85 73.5476C173.655 73.7299 173.408 73.8774 173.109 73.9901C172.814 74.0994 172.468 74.1541 172.07 74.1541ZM172.538 72.8317C172.899 72.8317 173.212 72.7604 173.477 72.6179C173.743 72.4721 173.946 72.2798 174.089 72.0412C174.235 71.8026 174.308 71.5424 174.308 71.2607V70.3608C174.251 70.4072 174.155 70.4503 174.019 70.4901C173.887 70.5298 173.738 70.5646 173.572 70.5945C173.406 70.6243 173.242 70.6508 173.08 70.674C172.917 70.6972 172.776 70.7171 172.657 70.7337C172.389 70.7701 172.148 70.8298 171.936 70.9126C171.724 70.9955 171.557 71.1115 171.434 71.2607C171.311 71.4065 171.25 71.5954 171.25 71.8274C171.25 72.1589 171.371 72.4091 171.613 72.5781C171.855 72.7472 172.163 72.8317 172.538 72.8317ZM179.712 69.5256V74H177.912V66.3636H179.632V67.6612H179.722C179.897 67.2337 180.177 66.8939 180.562 66.642C180.95 66.3902 181.429 66.2642 181.999 66.2642C182.526 66.2642 182.985 66.3769 183.376 66.6023C183.77 66.8277 184.075 67.1541 184.291 67.5817C184.509 68.0092 184.617 68.5279 184.614 69.1378V74H182.814V69.4162C182.814 68.9058 182.681 68.5064 182.416 68.218C182.154 67.9297 181.792 67.7855 181.328 67.7855C181.013 67.7855 180.733 67.8551 180.487 67.9943C180.245 68.1302 180.055 68.3274 179.916 68.5859C179.78 68.8445 179.712 69.1577 179.712 69.5256ZM189.764 77.0227C189.118 77.0227 188.563 76.9349 188.099 76.7592C187.635 76.5869 187.262 76.3549 186.98 76.0632C186.698 75.7715 186.503 75.4484 186.394 75.0938L188.014 74.701C188.087 74.8501 188.193 74.9976 188.332 75.1435C188.472 75.2926 188.659 75.4152 188.894 75.5114C189.133 75.6108 189.433 75.6605 189.794 75.6605C190.305 75.6605 190.727 75.5362 191.062 75.2876C191.397 75.0424 191.564 74.638 191.564 74.0746V72.6278H191.475C191.382 72.8134 191.246 73.004 191.067 73.1996C190.891 73.3951 190.658 73.5592 190.366 73.6918C190.078 73.8243 189.715 73.8906 189.277 73.8906C188.69 73.8906 188.158 73.7531 187.681 73.478C187.207 73.1996 186.829 72.7853 186.548 72.2351C186.269 71.6816 186.13 70.9889 186.13 70.157C186.13 69.3184 186.269 68.6108 186.548 68.0341C186.829 67.4541 187.209 67.0149 187.686 66.7166C188.163 66.415 188.695 66.2642 189.282 66.2642C189.729 66.2642 190.097 66.3404 190.386 66.4929C190.677 66.642 190.909 66.8227 191.082 67.0348C191.254 67.2436 191.385 67.4408 191.475 67.6264H191.574V66.3636H193.349V74.1243C193.349 74.7772 193.193 75.3175 192.881 75.745C192.57 76.1726 192.144 76.4924 191.604 76.7045C191.064 76.9167 190.45 77.0227 189.764 77.0227ZM189.779 72.4787C190.16 72.4787 190.485 72.3859 190.754 72.2003C191.022 72.0147 191.226 71.7479 191.365 71.3999C191.504 71.0518 191.574 70.6342 191.574 70.147C191.574 69.6664 191.504 69.2455 191.365 68.8842C191.229 68.523 191.027 68.2429 190.759 68.044C190.493 67.8419 190.167 67.7408 189.779 67.7408C189.378 67.7408 189.043 67.8452 188.775 68.054C188.506 68.2628 188.304 68.5495 188.168 68.9141C188.033 69.2753 187.965 69.6863 187.965 70.147C187.965 70.6143 188.033 71.0237 188.168 71.375C188.308 71.723 188.511 71.9948 188.78 72.1903C189.052 72.3826 189.385 72.4787 189.779 72.4787ZM198.574 74.1491C197.808 74.1491 197.147 73.9901 196.59 73.6719C196.037 73.3504 195.611 72.8963 195.313 72.3097C195.014 71.7197 194.865 71.0253 194.865 70.2266C194.865 69.4411 195.014 68.7517 195.313 68.1584C195.614 67.5618 196.035 67.0978 196.575 66.7663C197.116 66.4316 197.75 66.2642 198.479 66.2642C198.95 66.2642 199.394 66.3404 199.812 66.4929C200.233 66.642 200.604 66.8741 200.926 67.1889C201.25 67.5038 201.506 67.9048 201.691 68.392C201.877 68.8759 201.97 69.4527 201.97 70.1222V70.674H195.71V69.4609H200.244C200.241 69.1162 200.167 68.8097 200.021 68.5412C199.875 68.2694 199.671 68.0556 199.409 67.8999C199.151 67.7441 198.849 67.6662 198.504 67.6662C198.136 67.6662 197.813 67.7557 197.535 67.9347C197.256 68.1103 197.039 68.3423 196.884 68.6307C196.731 68.9157 196.653 69.2289 196.65 69.5703V70.6293C196.65 71.0734 196.731 71.4545 196.894 71.7727C197.056 72.0876 197.283 72.3295 197.575 72.4986C197.866 72.6643 198.208 72.7472 198.599 72.7472C198.861 72.7472 199.098 72.7107 199.31 72.6378C199.522 72.5616 199.706 72.4505 199.862 72.3047C200.017 72.1589 200.135 71.9782 200.215 71.7628L201.895 71.9517C201.789 72.3958 201.587 72.7836 201.288 73.1151C200.993 73.4432 200.616 73.6984 200.155 73.8807C199.694 74.0597 199.167 74.1491 198.574 74.1491ZM203.492 74V66.3636H205.237V67.6364H205.317C205.456 67.1955 205.695 66.8558 206.033 66.6172C206.374 66.3752 206.763 66.2543 207.201 66.2543C207.3 66.2543 207.411 66.2592 207.534 66.2692C207.66 66.2758 207.764 66.2874 207.847 66.304V67.9595C207.771 67.933 207.65 67.9098 207.484 67.8899C207.322 67.8667 207.164 67.8551 207.012 67.8551C206.684 67.8551 206.389 67.9264 206.127 68.0689C205.869 68.2081 205.665 68.402 205.516 68.6506C205.366 68.8991 205.292 69.1858 205.292 69.5107V74H203.492ZM209.277 74.1094C208.975 74.1094 208.716 74.0033 208.501 73.7912C208.286 73.5791 208.179 73.3205 208.183 73.0156C208.179 72.7173 208.286 72.4621 208.501 72.25C208.716 72.0379 208.975 71.9318 209.277 71.9318C209.568 71.9318 209.822 72.0379 210.037 72.25C210.256 72.4621 210.367 72.7173 210.37 73.0156C210.367 73.2178 210.314 73.4018 210.211 73.5675C210.112 73.7332 209.979 73.8658 209.813 73.9652C209.651 74.0613 209.472 74.1094 209.277 74.1094Z" fill="#5F6977"/>
<path d="M86.9092 91.111L88.9236 88.501C89.079 88.2976 89.2626 88.1473 89.4744 88.0501C89.6861 87.9529 89.9074 87.9043 90.1384 87.9043C90.3694 87.9043 90.591 87.9529 90.8033 88.0501C91.0157 88.1473 91.1996 88.2976 91.355 88.501L93.3694 91.111L96.4267 92.137C96.7617 92.2416 97.0242 92.4323 97.2142 92.7089C97.4043 92.9856 97.4993 93.2885 97.4993 93.6177C97.4993 93.772 97.477 93.9263 97.4324 94.0805C97.3877 94.2348 97.3143 94.3826 97.212 94.524L95.2407 97.3278L95.3127 100.275C95.3247 100.723 95.1745 101.101 94.8621 101.408C94.5498 101.715 94.1829 101.868 93.7616 101.868C93.7405 101.868 93.6071 101.852 93.3613 101.819L90.1393 100.923L86.9173 101.819C86.8544 101.843 86.787 101.858 86.715 101.864C86.643 101.87 86.5755 101.873 86.5127 101.873C86.0954 101.873 85.7303 101.719 85.4174 101.411C85.1044 101.102 84.9554 100.724 84.9702 100.275L85.0422 97.314L83.0802 94.524C82.9781 94.3827 82.9047 94.2351 82.8599 94.0812C82.8153 93.9271 82.793 93.773 82.793 93.6189C82.793 93.2981 82.8857 92.9993 83.0712 92.7225C83.2566 92.4459 83.5169 92.2508 83.8519 92.137L86.9092 91.111Z" fill="#696EFF"/>
<path d="M109.948 91.111L111.963 88.501C112.118 88.2976 112.302 88.1473 112.513 88.0501C112.725 87.9529 112.946 87.9043 113.177 87.9043C113.408 87.9043 113.63 87.9529 113.842 88.0501C114.055 88.1473 114.239 88.2976 114.394 88.501L116.408 91.111L119.466 92.137C119.801 92.2416 120.063 92.4323 120.253 92.7089C120.443 92.9856 120.538 93.2885 120.538 93.6177C120.538 93.772 120.516 93.9263 120.471 94.0805C120.427 94.2348 120.353 94.3826 120.251 94.524L118.28 97.3278L118.352 100.275C118.364 100.723 118.214 101.101 117.901 101.408C117.589 101.715 117.222 101.868 116.801 101.868C116.78 101.868 116.646 101.852 116.4 101.819L113.178 100.923L109.956 101.819C109.893 101.843 109.826 101.858 109.754 101.864C109.682 101.87 109.615 101.873 109.552 101.873C109.134 101.873 108.769 101.719 108.456 101.411C108.143 101.102 107.994 100.724 108.009 100.275L108.081 97.314L106.119 94.524C106.017 94.3827 105.944 94.2351 105.899 94.0812C105.854 93.9271 105.832 93.773 105.832 93.6189C105.832 93.2981 105.925 92.9993 106.11 92.7225C106.296 92.4459 106.556 92.2508 106.891 92.137L109.948 91.111Z" fill="#696EFF"/>
<path d="M132.987 91.111L135.002 88.501C135.157 88.2976 135.341 88.1473 135.553 88.0501C135.764 87.9529 135.986 87.9043 136.217 87.9043C136.448 87.9043 136.669 87.9529 136.881 88.0501C137.094 88.1473 137.278 88.2976 137.433 88.501L139.448 91.111L142.505 92.137C142.84 92.2416 143.102 92.4323 143.292 92.7089C143.482 92.9856 143.577 93.2885 143.577 93.6177C143.577 93.772 143.555 93.9263 143.51 94.0805C143.466 94.2348 143.392 94.3826 143.29 94.524L141.319 97.3278L141.391 100.275C141.403 100.723 141.253 101.101 140.94 101.408C140.628 101.715 140.261 101.868 139.84 101.868C139.819 101.868 139.685 101.852 139.439 101.819L136.217 100.923L132.995 101.819C132.933 101.843 132.865 101.858 132.793 101.864C132.721 101.87 132.654 101.873 132.591 101.873C132.174 101.873 131.808 101.719 131.495 101.411C131.183 101.102 131.033 100.724 131.048 100.275L131.12 97.314L129.158 94.524C129.056 94.3827 128.983 94.2351 128.938 94.0812C128.893 93.9271 128.871 93.773 128.871 93.6189C128.871 93.2981 128.964 92.9993 129.149 92.7225C129.335 92.4459 129.595 92.2508 129.93 92.137L132.987 91.111Z" fill="#696EFF"/>
<path d="M156.03 91.111L158.045 88.501C158.2 88.2976 158.384 88.1473 158.595 88.0501C158.807 87.9529 159.029 87.9043 159.26 87.9043C159.491 87.9043 159.712 87.9529 159.924 88.0501C160.137 88.1473 160.321 88.2976 160.476 88.501L162.491 91.111L165.548 92.137C165.883 92.2416 166.145 92.4323 166.335 92.7089C166.525 92.9856 166.62 93.2885 166.62 93.6177C166.62 93.772 166.598 93.9263 166.553 94.0805C166.509 94.2348 166.435 94.3826 166.333 94.524L164.362 97.3278L164.434 100.275C164.446 100.723 164.296 101.101 163.983 101.408C163.671 101.715 163.304 101.868 162.883 101.868C162.862 101.868 162.728 101.852 162.482 101.819L159.26 100.923L156.038 101.819C155.976 101.843 155.908 101.858 155.836 101.864C155.764 101.87 155.697 101.873 155.634 101.873C155.217 101.873 154.851 101.719 154.538 101.411C154.226 101.102 154.076 100.724 154.091 100.275L154.163 97.314L152.201 94.524C152.099 94.3827 152.026 94.2351 151.981 94.0812C151.936 93.9271 151.914 93.773 151.914 93.6189C151.914 93.2981 152.007 92.9993 152.192 92.7225C152.378 92.4459 152.638 92.2508 152.973 92.137L156.03 91.111Z" fill="#696EFF"/>
<g clip-path="url(#clip0_7588_10967)">
<path d="M179.069 91.111L181.084 88.501C181.239 88.2976 181.423 88.1473 181.635 88.0501C181.846 87.9529 182.068 87.9043 182.299 87.9043C182.53 87.9043 182.751 87.9529 182.963 88.0501C183.176 88.1473 183.36 88.2976 183.515 88.501L185.53 91.111L188.587 92.137C188.922 92.2416 189.184 92.4323 189.374 92.7089C189.564 92.9856 189.659 93.2885 189.659 93.6177C189.659 93.772 189.637 93.9263 189.593 94.0805C189.548 94.2348 189.474 94.3826 189.372 94.524L187.401 97.3278L187.473 100.275C187.485 100.723 187.335 101.101 187.022 101.408C186.71 101.715 186.343 101.868 185.922 101.868C185.901 101.868 185.767 101.852 185.521 101.819L182.299 100.923L179.077 101.819C179.015 101.843 178.947 101.858 178.875 101.864C178.803 101.87 178.736 101.873 178.673 101.873C178.256 101.873 177.89 101.719 177.578 101.411C177.265 101.102 177.116 100.724 177.13 100.275L177.202 97.314L175.24 94.524C175.138 94.3827 175.065 94.2351 175.02 94.0812C174.975 93.9271 174.953 93.773 174.953 93.6189C174.953 93.2981 175.046 92.9993 175.231 92.7225C175.417 92.4459 175.677 92.2508 176.012 92.137L179.069 91.111Z" fill="#DBCACE"/>
</g>
<g clip-path="url(#clip1_7588_10967)">
<path d="M179.409 91.5016L181.424 88.8916C181.579 88.6882 181.763 88.5379 181.974 88.4407C182.186 88.3435 182.407 88.2949 182.638 88.2949C182.869 88.2949 183.091 88.3435 183.303 88.4407C183.516 88.5379 183.7 88.6882 183.855 88.8916L185.869 91.5016L188.927 92.5276C189.262 92.6323 189.524 92.8229 189.714 93.0995C189.904 93.3762 189.999 93.6791 189.999 94.0083C189.999 94.1626 189.977 94.3169 189.932 94.4711C189.888 94.6254 189.814 94.7732 189.712 94.9146L187.741 97.7185L187.813 100.666C187.825 101.114 187.675 101.491 187.362 101.798C187.05 102.105 186.683 102.259 186.262 102.259C186.241 102.259 186.107 102.242 185.861 102.209L182.639 101.314L179.417 102.209C179.354 102.233 179.287 102.248 179.215 102.254C179.143 102.26 179.076 102.263 179.013 102.263C178.595 102.263 178.23 102.109 177.917 101.801C177.604 101.493 177.455 101.115 177.47 100.666L177.542 97.7046L175.58 94.9146C175.478 94.7734 175.405 94.6258 175.36 94.4718C175.315 94.3177 175.293 94.1636 175.293 94.0096C175.293 93.6887 175.386 93.3899 175.571 93.1132C175.757 92.8366 176.017 92.6414 176.352 92.5276L179.409 91.5016Z" fill="#696EFF"/>
</g>
<path d="M28.7028 12.451L25.8532 17.3869C25.9493 17.3335 26.0616 17.2962 26.1899 17.2748C26.3182 17.2534 26.4464 17.2427 26.5745 17.2427C28.2689 17.2427 29.7075 17.8394 30.8903 19.0327C32.0728 20.226 32.6641 21.6592 32.6641 23.3323C32.6641 25.0267 32.0728 26.4653 30.8903 27.6481C29.7075 28.8306 28.2689 29.4219 26.5745 29.4219C24.9014 29.4219 23.4682 28.8306 22.2749 27.6481C21.0816 26.4653 20.4849 25.0267 20.4849 23.3323C20.4849 22.7467 20.5559 22.2019 20.6978 21.6977C20.84 21.1935 21.048 20.7127 21.3216 20.2552L26.5491 11.201C26.6557 11.0149 26.8021 10.8642 26.9882 10.749C27.1741 10.6337 27.3824 10.576 27.6132 10.576C28.0918 10.576 28.4507 10.7844 28.6899 11.201C28.9293 11.6177 28.9336 12.0344 28.7028 12.451ZM13.8949 12.451L11.0457 17.3869C11.1418 17.3335 11.2541 17.2962 11.3824 17.2748C11.5105 17.2534 11.6386 17.2427 11.767 17.2427C13.4614 17.2427 14.8999 17.8394 16.0824 19.0327C17.2652 20.226 17.8566 21.6592 17.8566 23.3323C17.8566 25.0373 17.2652 26.4785 16.0824 27.656C14.8999 28.8333 13.4614 29.4219 11.767 29.4219C10.0939 29.4219 8.66073 28.8306 7.4674 27.6481C6.27407 26.4653 5.6774 25.0267 5.6774 23.3323C5.6774 22.7467 5.74837 22.2019 5.89032 21.6977C6.03254 21.1935 6.24031 20.7127 6.51365 20.2552L11.7411 11.201C11.8481 11.0149 11.9945 10.8642 12.1803 10.749C12.3661 10.6337 12.5745 10.576 12.8053 10.576C13.2839 10.576 13.643 10.7844 13.8824 11.201C14.1216 11.6177 14.1257 12.0344 13.8949 12.451Z" fill="#696EFF"/>
<path d="M242.297 115.549L245.147 110.613C245.051 110.666 244.938 110.704 244.81 110.725C244.682 110.747 244.554 110.757 244.426 110.757C242.731 110.757 241.292 110.161 240.11 108.967C238.927 107.774 238.336 106.341 238.336 104.668C238.336 102.973 238.927 101.535 240.11 100.352C241.292 99.1694 242.731 98.5781 244.426 98.5781C246.099 98.5781 247.532 99.1694 248.725 100.352C249.918 101.535 250.515 102.973 250.515 104.668C250.515 105.253 250.444 105.798 250.302 106.302C250.16 106.806 249.952 107.287 249.678 107.745L244.451 116.799C244.344 116.985 244.198 117.136 244.012 117.251C243.826 117.366 243.618 117.424 243.387 117.424C242.908 117.424 242.549 117.216 242.31 116.799C242.071 116.382 242.066 115.966 242.297 115.549ZM257.105 115.549L259.954 110.613C259.858 110.666 259.746 110.704 259.618 110.725C259.49 110.747 259.361 110.757 259.233 110.757C257.539 110.757 256.1 110.161 254.918 108.967C253.735 107.774 253.143 106.341 253.143 104.668C253.143 102.963 253.735 101.521 254.918 100.344C256.1 99.1667 257.539 98.5781 259.233 98.5781C260.906 98.5781 262.339 99.1694 263.533 100.352C264.726 101.535 265.323 102.973 265.323 104.668C265.323 105.253 265.252 105.798 265.11 106.302C264.967 106.806 264.76 107.287 264.486 107.745L259.259 116.799C259.152 116.985 259.006 117.136 258.82 117.251C258.634 117.366 258.426 117.424 258.195 117.424C257.716 117.424 257.357 117.216 257.118 116.799C256.878 116.382 256.874 115.966 257.105 115.549Z" fill="#696EFF"/>
<defs>
<clipPath id="clip0_7588_10967">
<rect width="8.64" height="17.28" fill="white" transform="translate(182.301 86.6104)"/>
</clipPath>
<clipPath id="clip1_7588_10967">
<rect width="16" height="17" fill="white" transform="translate(174 87.001)"/>
</clipPath>
</defs>
</svg>
