<svg width="24" height="24" viewBox="0 0 24 24" fill="none" xmlns="http://www.w3.org/2000/svg">
<path d="M12.031 20.4991C9.66183 20.4991 7.65292 19.6748 6.00425 18.0261C4.35558 16.3773 3.53125 14.3683 3.53125 11.9991C3.53125 10.0261 4.14175 8.27231 5.36275 6.73765C6.58392 5.20298 8.2105 4.2139 10.2425 3.7704C10.4528 3.71773 10.6381 3.72282 10.7983 3.78565C10.9586 3.84848 11.0888 3.94206 11.1888 4.0664C11.2888 4.1909 11.3478 4.3419 11.3658 4.5194C11.3836 4.6969 11.3419 4.87415 11.2408 5.05115C11.0343 5.42682 10.881 5.81781 10.781 6.22415C10.681 6.63065 10.631 7.05565 10.631 7.49915C10.631 9.14015 11.2041 10.5337 12.3503 11.6799C13.4964 12.8261 14.89 13.3991 16.531 13.3991C17.0222 13.3991 17.4914 13.337 17.9388 13.2126C18.3863 13.0883 18.7779 12.9441 19.1138 12.7799C19.2779 12.7082 19.4382 12.6829 19.5945 12.7039C19.751 12.7251 19.885 12.7773 19.9965 12.8606C20.1183 12.944 20.209 13.0578 20.2685 13.2021C20.3282 13.3463 20.3349 13.5158 20.2888 13.7106C19.9336 15.6773 18.9768 17.3004 17.4185 18.5799C15.8602 19.8594 14.0643 20.4991 12.031 20.4991Z" fill="black"/>
</svg>
