<svg width="24" height="24" viewBox="0 0 24 24" fill="none" xmlns="http://www.w3.org/2000/svg">
<path d="M10.577 17.673H4.30775C3.80258 17.673 3.375 17.498 3.025 17.148C2.675 16.798 2.5 16.3704 2.5 15.8652V5.30775C2.5 4.80258 2.675 4.375 3.025 4.025C3.375 3.675 3.80258 3.5 4.30775 3.5H19.6923C20.1974 3.5 20.625 3.675 20.975 4.025C21.325 4.375 21.5 4.80258 21.5 5.30775V15.8652C21.5 16.3704 21.325 16.798 20.975 17.148C20.625 17.498 20.1974 17.673 19.6923 17.673H13.423L15.2345 19.4845C15.2678 19.5178 15.3114 19.6217 15.3652 19.796V20.0578C15.3652 20.1783 15.3217 20.2821 15.2345 20.3693C15.1473 20.4564 15.0435 20.5 14.923 20.5H8.94625C8.85908 20.5 8.78533 20.4698 8.725 20.4095C8.66483 20.3493 8.63475 20.2757 8.63475 20.1885V19.746C8.63475 19.7127 8.66483 19.639 8.725 19.525L10.577 17.673Z" fill="black"/>
</svg>
