<svg width="98" height="99" viewBox="0 0 98 99" fill="none" xmlns="http://www.w3.org/2000/svg">
<g filter="url(#filter0_dd_1104_22620)">
<g clip-path="url(#clip0_1104_22620)">
<path d="M96.6012 3H1.40117C-4.78442 3 -9.79883 8.01441 -9.79883 14.2V75.8C-9.79883 81.9856 -4.78442 87 1.40117 87H96.6012C102.787 87 107.801 81.9856 107.801 75.8V14.2C107.801 8.01441 102.787 3 96.6012 3Z" fill="#F93939"/>
<path fill-rule="evenodd" clip-rule="evenodd" d="M-9.79883 3H29.4012V87H-9.79883V3Z" fill="#151515"/>
<path fill-rule="evenodd" clip-rule="evenodd" d="M68.6013 3H107.801V87H68.6013V3Z" fill="#249F58"/>
<path fill-rule="evenodd" clip-rule="evenodd" d="M49.0008 59C56.7288 59 63.0008 52.728 63.0008 45C63.0008 37.272 56.7288 31 49.0008 31C41.2728 31 35.0008 37.272 35.0008 45C35.0008 52.728 41.2728 59 49.0008 59ZM49.0008 53.4C53.6376 53.4 57.4008 48.388 57.4008 42.2C57.4008 36.012 53.6376 31 49.0008 31C44.364 31 40.6008 36.012 40.6008 42.2C40.6008 48.388 44.364 53.4 49.0008 53.4ZM49.0008 47.8C50.5464 47.8 51.8008 45.2912 51.8008 42.2C51.8008 39.1088 50.5464 36.6 49.0008 36.6C47.4552 36.6 46.2008 39.1088 46.2008 42.2C46.2008 45.2912 47.4552 47.8 49.0008 47.8Z" fill="white"/>
</g>
</g>
<defs>
<filter id="filter0_dd_1104_22620" x="0.142858" y="0.714286" width="97.7143" height="97.7143" filterUnits="userSpaceOnUse" color-interpolation-filters="sRGB">
<feFlood flood-opacity="0" result="BackgroundImageFix"/>
<feColorMatrix in="SourceAlpha" type="matrix" values="0 0 0 0 0 0 0 0 0 0 0 0 0 0 0 0 0 0 127 0" result="hardAlpha"/>
<feOffset dy="4.57143"/>
<feGaussianBlur stdDeviation="3.42857"/>
<feComposite in2="hardAlpha" operator="out"/>
<feColorMatrix type="matrix" values="0 0 0 0 0.258824 0 0 0 0 0.278431 0 0 0 0 0.298039 0 0 0 0.08 0"/>
<feBlend mode="normal" in2="BackgroundImageFix" result="effect1_dropShadow_1104_22620"/>
<feColorMatrix in="SourceAlpha" type="matrix" values="0 0 0 0 0 0 0 0 0 0 0 0 0 0 0 0 0 0 127 0" result="hardAlpha"/>
<feOffset/>
<feGaussianBlur stdDeviation="0.285714"/>
<feComposite in2="hardAlpha" operator="out"/>
<feColorMatrix type="matrix" values="0 0 0 0 0.258824 0 0 0 0 0.278431 0 0 0 0 0.298039 0 0 0 0.32 0"/>
<feBlend mode="normal" in2="effect1_dropShadow_1104_22620" result="effect2_dropShadow_1104_22620"/>
<feBlend mode="normal" in="SourceGraphic" in2="effect2_dropShadow_1104_22620" result="shape"/>
</filter>
<clipPath id="clip0_1104_22620">
<rect x="7" y="3" width="84" height="84" rx="42" fill="white"/>
</clipPath>
</defs>
</svg>
