<svg width="98" height="99" viewBox="0 0 98 99" fill="none" xmlns="http://www.w3.org/2000/svg">
<g filter="url(#filter0_dd_1104_22069)">
<g clip-path="url(#clip0_1104_22069)">
<rect x="7" y="3" width="84" height="84" rx="42" fill="#F93939"/>
<path d="M96.6012 3H1.40117C-4.78442 3 -9.79883 8.01441 -9.79883 14.2V75.8C-9.79883 81.9856 -4.78442 87 1.40117 87H96.6012C102.787 87 107.801 81.9856 107.801 75.8V14.2C107.801 8.01441 102.787 3 96.6012 3Z" fill="#F93939"/>
<path fill-rule="evenodd" clip-rule="evenodd" d="M49.0033 28.6219L41.9842 23.9425L37.3049 28.6219H41.9842L37.3049 33.3013L27.9461 28.6219V52.0187L41.9842 47.3394L37.3049 56.6981H32.6255L37.3049 61.3775L41.9842 56.6981L49.0033 66.0568V28.6219ZM56.0224 23.9425L60.7017 28.6219H56.0224L60.7017 33.3013L70.0605 28.6219V52.0187L56.0224 47.3394L60.7017 56.6981H65.3811L60.7017 61.3775L56.0224 56.6981L49.0033 66.0568V28.6219L56.0224 23.9425Z" fill="#151515"/>
</g>
</g>
<defs>
<filter id="filter0_dd_1104_22069" x="0.142858" y="0.714286" width="97.7143" height="97.7143" filterUnits="userSpaceOnUse" color-interpolation-filters="sRGB">
<feFlood flood-opacity="0" result="BackgroundImageFix"/>
<feColorMatrix in="SourceAlpha" type="matrix" values="0 0 0 0 0 0 0 0 0 0 0 0 0 0 0 0 0 0 127 0" result="hardAlpha"/>
<feOffset dy="4.57143"/>
<feGaussianBlur stdDeviation="3.42857"/>
<feComposite in2="hardAlpha" operator="out"/>
<feColorMatrix type="matrix" values="0 0 0 0 0.258824 0 0 0 0 0.278431 0 0 0 0 0.298039 0 0 0 0.08 0"/>
<feBlend mode="normal" in2="BackgroundImageFix" result="effect1_dropShadow_1104_22069"/>
<feColorMatrix in="SourceAlpha" type="matrix" values="0 0 0 0 0 0 0 0 0 0 0 0 0 0 0 0 0 0 127 0" result="hardAlpha"/>
<feOffset/>
<feGaussianBlur stdDeviation="0.285714"/>
<feComposite in2="hardAlpha" operator="out"/>
<feColorMatrix type="matrix" values="0 0 0 0 0.258824 0 0 0 0 0.278431 0 0 0 0 0.298039 0 0 0 0.32 0"/>
<feBlend mode="normal" in2="effect1_dropShadow_1104_22069" result="effect2_dropShadow_1104_22069"/>
<feBlend mode="normal" in="SourceGraphic" in2="effect2_dropShadow_1104_22069" result="shape"/>
</filter>
<clipPath id="clip0_1104_22069">
<rect x="7" y="3" width="84" height="84" rx="42" fill="white"/>
</clipPath>
</defs>
</svg>
