<svg width="98" height="99" viewBox="0 0 98 99" fill="none" xmlns="http://www.w3.org/2000/svg">
<g filter="url(#filter0_dd_1104_22968)">
<g clip-path="url(#clip0_1104_22968)">
<rect x="7" y="3" width="84" height="84" rx="42" fill="white"/>
<path d="M96.6002 3H1.4002C-4.78539 3 -9.7998 8.01441 -9.7998 14.2V75.8C-9.7998 81.9856 -4.78539 87 1.4002 87H96.6002C102.786 87 107.8 81.9856 107.8 75.8V14.2C107.8 8.01441 102.786 3 96.6002 3Z" fill="white"/>
<path fill-rule="evenodd" clip-rule="evenodd" d="M-9.7998 3H46.2002V87H-9.7998V3Z" fill="#249F58"/>
<path fill-rule="evenodd" clip-rule="evenodd" d="M63.2911 60.4727C58.6879 66.3919 51.4863 70.1999 43.3999 70.1999C29.4839 70.1999 18.1999 58.9159 18.1999 44.9999C18.1999 31.0839 29.4839 19.7999 43.3999 19.7999C51.4863 19.7999 58.6879 23.6079 63.2911 29.5271C59.7351 26.9399 55.2607 25.3999 50.3999 25.3999C38.8079 25.3999 29.3999 34.1751 29.3999 44.9999C29.3999 55.8247 38.8079 64.5999 50.3999 64.5999C55.2607 64.5999 59.7351 63.0599 63.2911 60.4727Z" fill="#F93939"/>
<path fill-rule="evenodd" clip-rule="evenodd" d="M63.0007 44.9999L68.6007 42.1999L71.4007 36.5999L74.2007 42.1999L79.8007 44.9999L74.2007 47.7999L71.4007 53.3999L68.6007 47.7999L63.0007 44.9999Z" fill="#F93939"/>
</g>
</g>
<defs>
<filter id="filter0_dd_1104_22968" x="0.142858" y="0.714286" width="97.7143" height="97.7143" filterUnits="userSpaceOnUse" color-interpolation-filters="sRGB">
<feFlood flood-opacity="0" result="BackgroundImageFix"/>
<feColorMatrix in="SourceAlpha" type="matrix" values="0 0 0 0 0 0 0 0 0 0 0 0 0 0 0 0 0 0 127 0" result="hardAlpha"/>
<feOffset dy="4.57143"/>
<feGaussianBlur stdDeviation="3.42857"/>
<feComposite in2="hardAlpha" operator="out"/>
<feColorMatrix type="matrix" values="0 0 0 0 0.258824 0 0 0 0 0.278431 0 0 0 0 0.298039 0 0 0 0.08 0"/>
<feBlend mode="normal" in2="BackgroundImageFix" result="effect1_dropShadow_1104_22968"/>
<feColorMatrix in="SourceAlpha" type="matrix" values="0 0 0 0 0 0 0 0 0 0 0 0 0 0 0 0 0 0 127 0" result="hardAlpha"/>
<feOffset/>
<feGaussianBlur stdDeviation="0.285714"/>
<feComposite in2="hardAlpha" operator="out"/>
<feColorMatrix type="matrix" values="0 0 0 0 0.258824 0 0 0 0 0.278431 0 0 0 0 0.298039 0 0 0 0.32 0"/>
<feBlend mode="normal" in2="effect1_dropShadow_1104_22968" result="effect2_dropShadow_1104_22968"/>
<feBlend mode="normal" in="SourceGraphic" in2="effect2_dropShadow_1104_22968" result="shape"/>
</filter>
<clipPath id="clip0_1104_22968">
<rect x="7" y="3" width="84" height="84" rx="42" fill="white"/>
</clipPath>
</defs>
</svg>
