<svg width="98" height="99" viewBox="0 0 98 99" fill="none" xmlns="http://www.w3.org/2000/svg">
<g filter="url(#filter0_dd_1104_22075)">
<g clip-path="url(#clip0_1104_22075)">
<path d="M96.6012 3H1.40117C-4.78442 3 -9.79883 8.01441 -9.79883 14.2V75.8C-9.79883 81.9856 -4.78442 87 1.40117 87H96.6012C102.787 87 107.801 81.9856 107.801 75.8V14.2C107.801 8.01441 102.787 3 96.6012 3Z" fill="#FFDA2C"/>
<path fill-rule="evenodd" clip-rule="evenodd" d="M-9.79883 3H29.4012V87H-9.79883V3Z" fill="#1A47B8"/>
<path fill-rule="evenodd" clip-rule="evenodd" d="M68.6013 3H107.801V87H68.6013V3Z" fill="#F93939"/>
<path fill-rule="evenodd" clip-rule="evenodd" d="M57.0424 58.636C60.4808 57.5888 63.0008 54.3912 63.0008 50.6V33.8C63.0008 29.124 59.2376 25.4 54.6008 25.4H43.4008C38.7752 25.4 35.0008 29.152 35.0008 33.8V50.6C35.0008 54.4192 37.5096 57.6 40.9592 58.6416C42.0008 62.1136 45.204 64.6 49.0008 64.6C52.82 64.6 56.0008 62.08 57.0424 58.636Z" fill="#D4AF2C"/>
<path fill-rule="evenodd" clip-rule="evenodd" d="M40.6014 31H46.2014V39.4H40.6014V31ZM51.8014 42.2H57.4014V50.6H51.8014V42.2Z" fill="#AF010D"/>
<path fill-rule="evenodd" clip-rule="evenodd" d="M51.8014 31H57.4014V39.4H51.8014V31ZM40.6014 42.2H46.2014V50.6H40.6014V42.2Z" fill="#FFDA2C"/>
</g>
</g>
<defs>
<filter id="filter0_dd_1104_22075" x="0.142858" y="0.714286" width="97.7143" height="97.7143" filterUnits="userSpaceOnUse" color-interpolation-filters="sRGB">
<feFlood flood-opacity="0" result="BackgroundImageFix"/>
<feColorMatrix in="SourceAlpha" type="matrix" values="0 0 0 0 0 0 0 0 0 0 0 0 0 0 0 0 0 0 127 0" result="hardAlpha"/>
<feOffset dy="4.57143"/>
<feGaussianBlur stdDeviation="3.42857"/>
<feComposite in2="hardAlpha" operator="out"/>
<feColorMatrix type="matrix" values="0 0 0 0 0.258824 0 0 0 0 0.278431 0 0 0 0 0.298039 0 0 0 0.08 0"/>
<feBlend mode="normal" in2="BackgroundImageFix" result="effect1_dropShadow_1104_22075"/>
<feColorMatrix in="SourceAlpha" type="matrix" values="0 0 0 0 0 0 0 0 0 0 0 0 0 0 0 0 0 0 127 0" result="hardAlpha"/>
<feOffset/>
<feGaussianBlur stdDeviation="0.285714"/>
<feComposite in2="hardAlpha" operator="out"/>
<feColorMatrix type="matrix" values="0 0 0 0 0.258824 0 0 0 0 0.278431 0 0 0 0 0.298039 0 0 0 0.32 0"/>
<feBlend mode="normal" in2="effect1_dropShadow_1104_22075" result="effect2_dropShadow_1104_22075"/>
<feBlend mode="normal" in="SourceGraphic" in2="effect2_dropShadow_1104_22075" result="shape"/>
</filter>
<clipPath id="clip0_1104_22075">
<rect x="7" y="3" width="84" height="84" rx="42" fill="white"/>
</clipPath>
</defs>
</svg>
