<svg width="98" height="99" viewBox="0 0 98 99" fill="none" xmlns="http://www.w3.org/2000/svg">
<g filter="url(#filter0_dd_1104_22958)">
<g clip-path="url(#clip0_1104_22958)">
<rect x="7" y="3" width="84" height="84" rx="42" fill="#F93939"/>
<path d="M96.5982 3H1.39824C-4.78735 3 -9.80176 8.01441 -9.80176 14.2V75.8C-9.80176 81.9856 -4.78735 87 1.39824 87H96.5982C102.784 87 107.798 81.9856 107.798 75.8V14.2C107.798 8.01441 102.784 3 96.5982 3Z" fill="#F93939"/>
<path fill-rule="evenodd" clip-rule="evenodd" d="M-9.80176 47.8H107.798V87H-9.80176V47.8Z" fill="#151515"/>
<path fill-rule="evenodd" clip-rule="evenodd" d="M62.3302 54.1652C64.7607 50.906 66.1942 46.8628 66.1942 42.4836C66.1942 34.2684 61.1375 27.2348 53.9695 24.3172L50.5814 29.0604C56.3718 30.7796 60.5942 36.1388 60.5942 42.4836C60.5942 45.81 59.435 48.8676 57.4974 51.2644L38.1943 39.6836L53.2918 54.7812C51.3038 55.8676 49.019 56.4836 46.5942 56.4836C41.8902 56.4836 37.7294 54.1652 35.1926 50.6036L31.8046 55.3468C35.3942 59.474 40.6862 62.0836 46.5942 62.0836C50.5702 62.0836 54.2775 60.8964 57.3686 58.858L60.5942 62.0836L66.1942 56.4836L62.3302 54.1652ZM38.1943 28.4836H43.7942V34.0836H38.1943V28.4836Z" fill="#FFDA2C"/>
</g>
</g>
<defs>
<filter id="filter0_dd_1104_22958" x="0.142858" y="0.714286" width="97.7143" height="97.7143" filterUnits="userSpaceOnUse" color-interpolation-filters="sRGB">
<feFlood flood-opacity="0" result="BackgroundImageFix"/>
<feColorMatrix in="SourceAlpha" type="matrix" values="0 0 0 0 0 0 0 0 0 0 0 0 0 0 0 0 0 0 127 0" result="hardAlpha"/>
<feOffset dy="4.57143"/>
<feGaussianBlur stdDeviation="3.42857"/>
<feComposite in2="hardAlpha" operator="out"/>
<feColorMatrix type="matrix" values="0 0 0 0 0.258824 0 0 0 0 0.278431 0 0 0 0 0.298039 0 0 0 0.08 0"/>
<feBlend mode="normal" in2="BackgroundImageFix" result="effect1_dropShadow_1104_22958"/>
<feColorMatrix in="SourceAlpha" type="matrix" values="0 0 0 0 0 0 0 0 0 0 0 0 0 0 0 0 0 0 127 0" result="hardAlpha"/>
<feOffset/>
<feGaussianBlur stdDeviation="0.285714"/>
<feComposite in2="hardAlpha" operator="out"/>
<feColorMatrix type="matrix" values="0 0 0 0 0.258824 0 0 0 0 0.278431 0 0 0 0 0.298039 0 0 0 0.32 0"/>
<feBlend mode="normal" in2="effect1_dropShadow_1104_22958" result="effect2_dropShadow_1104_22958"/>
<feBlend mode="normal" in="SourceGraphic" in2="effect2_dropShadow_1104_22958" result="shape"/>
</filter>
<clipPath id="clip0_1104_22958">
<rect x="7" y="3" width="84" height="84" rx="42" fill="white"/>
</clipPath>
</defs>
</svg>
