<svg width="99" height="99" viewBox="0 0 99 99" fill="none" xmlns="http://www.w3.org/2000/svg">
<g filter="url(#filter0_dd_1803_2987)">
<g clip-path="url(#clip0_1803_2987)">
<path d="M96.9341 3H1.73412C-4.45147 3 -9.46588 8.01441 -9.46588 14.2V75.8C-9.46588 81.9856 -4.45147 87 1.73412 87H96.9341C103.12 87 108.134 81.9856 108.134 75.8V14.2C108.134 8.01441 103.12 3 96.9341 3Z" fill="white"/>
<path fill-rule="evenodd" clip-rule="evenodd" d="M-9.46588 59H108.134V87H-9.46588V59ZM-9.46588 3H108.134V31H-9.46588V3Z" fill="#3ECBF8"/>
<path d="M49.3343 53.4C53.9735 53.4 57.7343 49.6392 57.7343 45C57.7343 40.3608 53.9735 36.6 49.3343 36.6C44.6951 36.6 40.9343 40.3608 40.9343 45C40.9343 49.6392 44.6951 53.4 49.3343 53.4Z" fill="#FFDA2C"/>
</g>
</g>
<defs>
<filter id="filter0_dd_1803_2987" x="0.476232" y="0.714286" width="97.7143" height="97.7143" filterUnits="userSpaceOnUse" color-interpolation-filters="sRGB">
<feFlood flood-opacity="0" result="BackgroundImageFix"/>
<feColorMatrix in="SourceAlpha" type="matrix" values="0 0 0 0 0 0 0 0 0 0 0 0 0 0 0 0 0 0 127 0" result="hardAlpha"/>
<feOffset dy="4.57143"/>
<feGaussianBlur stdDeviation="3.42857"/>
<feComposite in2="hardAlpha" operator="out"/>
<feColorMatrix type="matrix" values="0 0 0 0 0.258824 0 0 0 0 0.278431 0 0 0 0 0.298039 0 0 0 0.08 0"/>
<feBlend mode="normal" in2="BackgroundImageFix" result="effect1_dropShadow_1803_2987"/>
<feColorMatrix in="SourceAlpha" type="matrix" values="0 0 0 0 0 0 0 0 0 0 0 0 0 0 0 0 0 0 127 0" result="hardAlpha"/>
<feOffset/>
<feGaussianBlur stdDeviation="0.285714"/>
<feComposite in2="hardAlpha" operator="out"/>
<feColorMatrix type="matrix" values="0 0 0 0 0.258824 0 0 0 0 0.278431 0 0 0 0 0.298039 0 0 0 0.32 0"/>
<feBlend mode="normal" in2="effect1_dropShadow_1803_2987" result="effect2_dropShadow_1803_2987"/>
<feBlend mode="normal" in="SourceGraphic" in2="effect2_dropShadow_1803_2987" result="shape"/>
</filter>
<clipPath id="clip0_1803_2987">
<rect x="7.33337" y="3" width="84" height="84" rx="42" fill="white"/>
</clipPath>
</defs>
</svg>
