<svg width="98" height="99" viewBox="0 0 98 99" fill="none" xmlns="http://www.w3.org/2000/svg">
<g filter="url(#filter0_dd_1104_21750)">
<g clip-path="url(#clip0_1104_21750)">
<rect x="7" y="3" width="84" height="84" rx="42" fill="#3ECBF8"/>
<path d="M113.4 3H18.2C12.0144 3 7 8.01441 7 14.2V75.8C7 81.9856 12.0144 87 18.2 87H113.4C119.586 87 124.6 81.9856 124.6 75.8V14.2C124.6 8.01441 119.586 3 113.4 3Z" fill="#3ECBF8"/>
<path fill-rule="evenodd" clip-rule="evenodd" d="M35.9823 33.716C40.8543 33.408 44.4663 32.316 44.4663 31C44.4663 29.6896 40.8543 28.592 35.9823 28.284C35.6743 23.412 34.5823 19.8 33.2663 19.8C31.9559 19.8 30.8583 23.412 30.5503 28.284C25.6783 28.592 22.0663 29.684 22.0663 31C22.0663 32.3104 25.6783 33.408 30.5503 33.716C30.8583 38.588 31.9503 42.2 33.2663 42.2C34.5767 42.2 35.6743 38.588 35.9823 33.716Z" fill="#F93939"/>
<path fill-rule="evenodd" clip-rule="evenodd" d="M35.9823 33.716C40.8543 33.408 44.4663 32.316 44.4663 31C44.4663 29.6896 40.8543 28.592 35.9823 28.284C35.6743 23.412 34.5823 19.8 33.2663 19.8C31.9559 19.8 30.8583 23.412 30.5503 28.284C25.6783 28.592 22.0663 29.684 22.0663 31C22.0663 32.3104 25.6783 33.408 30.5503 33.716C30.8583 38.588 31.9503 42.2 33.2663 42.2C34.5767 42.2 35.6743 38.588 35.9823 33.716ZM36.1505 36.516L38.7825 33.884C38.3625 40.5928 36.9625 45 33.2665 45C29.5705 45 28.1705 40.5872 27.7561 33.8896L30.3769 36.5104C23.6793 36.096 19.2665 34.696 19.2665 31C19.2665 27.304 23.6793 25.904 30.3769 25.4896L27.7561 28.1104C28.1705 21.4128 29.5705 17 33.2665 17C36.9625 17 38.3625 21.4128 38.7769 28.1104L36.1561 25.4896C42.8537 25.904 47.2665 27.304 47.2665 31C47.2665 34.696 42.8537 36.096 36.1561 36.5104L36.1505 36.516Z" fill="white"/>
<path fill-rule="evenodd" clip-rule="evenodd" d="M7 53.4H124.6V59H7V53.4ZM7 64.6H124.6V70.2H7V64.6Z" fill="#FFDA2C"/>
</g>
</g>
<defs>
<filter id="filter0_dd_1104_21750" x="0.142858" y="0.714286" width="97.7143" height="97.7143" filterUnits="userSpaceOnUse" color-interpolation-filters="sRGB">
<feFlood flood-opacity="0" result="BackgroundImageFix"/>
<feColorMatrix in="SourceAlpha" type="matrix" values="0 0 0 0 0 0 0 0 0 0 0 0 0 0 0 0 0 0 127 0" result="hardAlpha"/>
<feOffset dy="4.57143"/>
<feGaussianBlur stdDeviation="3.42857"/>
<feComposite in2="hardAlpha" operator="out"/>
<feColorMatrix type="matrix" values="0 0 0 0 0.258824 0 0 0 0 0.278431 0 0 0 0 0.298039 0 0 0 0.08 0"/>
<feBlend mode="normal" in2="BackgroundImageFix" result="effect1_dropShadow_1104_21750"/>
<feColorMatrix in="SourceAlpha" type="matrix" values="0 0 0 0 0 0 0 0 0 0 0 0 0 0 0 0 0 0 127 0" result="hardAlpha"/>
<feOffset/>
<feGaussianBlur stdDeviation="0.285714"/>
<feComposite in2="hardAlpha" operator="out"/>
<feColorMatrix type="matrix" values="0 0 0 0 0.258824 0 0 0 0 0.278431 0 0 0 0 0.298039 0 0 0 0.32 0"/>
<feBlend mode="normal" in2="effect1_dropShadow_1104_21750" result="effect2_dropShadow_1104_21750"/>
<feBlend mode="normal" in="SourceGraphic" in2="effect2_dropShadow_1104_21750" result="shape"/>
</filter>
<clipPath id="clip0_1104_21750">
<rect x="7" y="3" width="84" height="84" rx="42" fill="white"/>
</clipPath>
</defs>
</svg>
