<svg width="98" height="99" viewBox="0 0 98 99" fill="none" xmlns="http://www.w3.org/2000/svg">
<g filter="url(#filter0_dd_1104_22376)">
<g clip-path="url(#clip0_1104_22376)">
<rect x="7" y="3" width="84" height="84" rx="42" fill="#1A47B8"/>
<path d="M113.4 3H18.2C12.0144 3 7 8.01441 7 14.2V75.8C7 81.9856 12.0144 87 18.2 87H113.4C119.586 87 124.6 81.9856 124.6 75.8V14.2C124.6 8.01441 119.586 3 113.4 3Z" fill="#1A47B8"/>
<path fill-rule="evenodd" clip-rule="evenodd" d="M18.1992 67.3999L23.7992 64.5999L26.5992 58.9999L29.3992 64.5999L34.9992 67.3999L29.3992 70.1999L26.5992 75.7999L23.7992 70.1999L18.1992 67.3999ZM74.1992 19.7999V25.3999H79.7992V19.7999H74.1992ZM90.9992 25.3999V30.9999H96.5992V25.3999H90.9992ZM68.5992 36.5999V42.1999H74.1992V36.5999H68.5992ZM85.3992 42.1999V47.7999H90.9992V42.1999H85.3992ZM79.7992 58.9999V64.5999H85.3992V58.9999H79.7992Z" fill="white"/>
<path d="M60.1993 17.2653H20.9993C17.9065 17.2653 15.3993 19.7726 15.3993 22.8653V50.8653C15.3993 53.9581 17.9065 56.4653 20.9993 56.4653H60.1993C63.2921 56.4653 65.7993 53.9581 65.7993 50.8653V22.8653C65.7993 19.7726 63.2921 17.2653 60.1993 17.2653Z" fill="white"/>
<path fill-rule="evenodd" clip-rule="evenodd" d="M37.7989 39.6653H20.9989V34.0653H37.7989V22.8653H43.3989V34.0653H60.1989V39.6653H43.3989V50.8653H37.7989V39.6653ZM51.7989 45.2653V50.8653H60.1989V45.2653H51.7989ZM51.7989 22.8653V28.4653H60.1989V22.8653H51.7989ZM20.9989 45.2653V50.8653H29.3989V45.2653H20.9989ZM20.9989 22.8653V28.4653H29.3989V22.8653H20.9989Z" fill="#F93939"/>
</g>
</g>
<defs>
<filter id="filter0_dd_1104_22376" x="0.142858" y="0.714286" width="97.7143" height="97.7143" filterUnits="userSpaceOnUse" color-interpolation-filters="sRGB">
<feFlood flood-opacity="0" result="BackgroundImageFix"/>
<feColorMatrix in="SourceAlpha" type="matrix" values="0 0 0 0 0 0 0 0 0 0 0 0 0 0 0 0 0 0 127 0" result="hardAlpha"/>
<feOffset dy="4.57143"/>
<feGaussianBlur stdDeviation="3.42857"/>
<feComposite in2="hardAlpha" operator="out"/>
<feColorMatrix type="matrix" values="0 0 0 0 0.258824 0 0 0 0 0.278431 0 0 0 0 0.298039 0 0 0 0.08 0"/>
<feBlend mode="normal" in2="BackgroundImageFix" result="effect1_dropShadow_1104_22376"/>
<feColorMatrix in="SourceAlpha" type="matrix" values="0 0 0 0 0 0 0 0 0 0 0 0 0 0 0 0 0 0 127 0" result="hardAlpha"/>
<feOffset/>
<feGaussianBlur stdDeviation="0.285714"/>
<feComposite in2="hardAlpha" operator="out"/>
<feColorMatrix type="matrix" values="0 0 0 0 0.258824 0 0 0 0 0.278431 0 0 0 0 0.298039 0 0 0 0.32 0"/>
<feBlend mode="normal" in2="effect1_dropShadow_1104_22376" result="effect2_dropShadow_1104_22376"/>
<feBlend mode="normal" in="SourceGraphic" in2="effect2_dropShadow_1104_22376" result="shape"/>
</filter>
<clipPath id="clip0_1104_22376">
<rect x="7" y="3" width="84" height="84" rx="42" fill="white"/>
</clipPath>
</defs>
</svg>
