<svg width="98" height="99" viewBox="0 0 98 99" fill="none" xmlns="http://www.w3.org/2000/svg">
<g filter="url(#filter0_dd_1104_22804)">
<g clip-path="url(#clip0_1104_22804)">
<path d="M96.5992 3H1.39922C-4.78637 3 -9.80078 8.01441 -9.80078 14.2V75.8C-9.80078 81.9856 -4.78637 87 1.39922 87H96.5992C102.785 87 107.799 81.9856 107.799 75.8V14.2C107.799 8.01441 102.785 3 96.5992 3Z" fill="#F93939"/>
<path fill-rule="evenodd" clip-rule="evenodd" d="M-9.80078 59H107.799V87H-9.80078V59Z" fill="#249F58"/>
<path fill-rule="evenodd" clip-rule="evenodd" d="M-9.80078 3H107.799V31H-9.80078V3Z" fill="#3ECBF8"/>
<path fill-rule="evenodd" clip-rule="evenodd" d="M57.3992 42.2H62.9992V47.8H57.3992V42.2Z" fill="white"/>
<path fill-rule="evenodd" clip-rule="evenodd" d="M60.1988 53.4C57.6452 56.7992 53.5797 59 48.9989 59C41.2709 59 34.9989 52.728 34.9989 45C34.9989 37.272 41.2709 31 48.9989 31C53.5797 31 57.6452 33.2008 60.1988 36.6H51.7989C47.1621 36.6 43.3988 40.3632 43.3988 45C43.3988 49.6368 47.1621 53.4 51.7989 53.4H60.1988Z" fill="white"/>
</g>
</g>
<defs>
<filter id="filter0_dd_1104_22804" x="0.142858" y="0.714286" width="97.7143" height="97.7143" filterUnits="userSpaceOnUse" color-interpolation-filters="sRGB">
<feFlood flood-opacity="0" result="BackgroundImageFix"/>
<feColorMatrix in="SourceAlpha" type="matrix" values="0 0 0 0 0 0 0 0 0 0 0 0 0 0 0 0 0 0 127 0" result="hardAlpha"/>
<feOffset dy="4.57143"/>
<feGaussianBlur stdDeviation="3.42857"/>
<feComposite in2="hardAlpha" operator="out"/>
<feColorMatrix type="matrix" values="0 0 0 0 0.258824 0 0 0 0 0.278431 0 0 0 0 0.298039 0 0 0 0.08 0"/>
<feBlend mode="normal" in2="BackgroundImageFix" result="effect1_dropShadow_1104_22804"/>
<feColorMatrix in="SourceAlpha" type="matrix" values="0 0 0 0 0 0 0 0 0 0 0 0 0 0 0 0 0 0 127 0" result="hardAlpha"/>
<feOffset/>
<feGaussianBlur stdDeviation="0.285714"/>
<feComposite in2="hardAlpha" operator="out"/>
<feColorMatrix type="matrix" values="0 0 0 0 0.258824 0 0 0 0 0.278431 0 0 0 0 0.298039 0 0 0 0.32 0"/>
<feBlend mode="normal" in2="effect1_dropShadow_1104_22804" result="effect2_dropShadow_1104_22804"/>
<feBlend mode="normal" in="SourceGraphic" in2="effect2_dropShadow_1104_22804" result="shape"/>
</filter>
<clipPath id="clip0_1104_22804">
<rect x="7" y="3" width="84" height="84" rx="42" fill="white"/>
</clipPath>
</defs>
</svg>
