<svg width="98" height="99" viewBox="0 0 98 99" fill="none" xmlns="http://www.w3.org/2000/svg">
<g filter="url(#filter0_dd_1104_21828)">
<g clip-path="url(#clip0_1104_21828)">
<rect x="7" y="3" width="84" height="84" rx="42" fill="#249F58"/>
<path d="M96.5992 3H1.39922C-4.78637 3 -9.80078 8.01441 -9.80078 14.2V75.8C-9.80078 81.9856 -4.78637 87 1.39922 87H96.5992C102.785 87 107.799 81.9856 107.799 75.8V14.2C107.799 8.01441 102.785 3 96.5992 3Z" fill="#249F58"/>
<path d="M48.9997 70.1999C62.9172 70.1999 74.1997 58.9175 74.1997 44.9999C74.1997 31.0824 62.9172 19.7999 48.9997 19.7999C35.0821 19.7999 23.7997 31.0824 23.7997 44.9999C23.7997 58.9175 35.0821 70.1999 48.9997 70.1999Z" fill="#F93939"/>
</g>
</g>
<defs>
<filter id="filter0_dd_1104_21828" x="0.142858" y="0.714286" width="97.7143" height="97.7143" filterUnits="userSpaceOnUse" color-interpolation-filters="sRGB">
<feFlood flood-opacity="0" result="BackgroundImageFix"/>
<feColorMatrix in="SourceAlpha" type="matrix" values="0 0 0 0 0 0 0 0 0 0 0 0 0 0 0 0 0 0 127 0" result="hardAlpha"/>
<feOffset dy="4.57143"/>
<feGaussianBlur stdDeviation="3.42857"/>
<feComposite in2="hardAlpha" operator="out"/>
<feColorMatrix type="matrix" values="0 0 0 0 0.258824 0 0 0 0 0.278431 0 0 0 0 0.298039 0 0 0 0.08 0"/>
<feBlend mode="normal" in2="BackgroundImageFix" result="effect1_dropShadow_1104_21828"/>
<feColorMatrix in="SourceAlpha" type="matrix" values="0 0 0 0 0 0 0 0 0 0 0 0 0 0 0 0 0 0 127 0" result="hardAlpha"/>
<feOffset/>
<feGaussianBlur stdDeviation="0.285714"/>
<feComposite in2="hardAlpha" operator="out"/>
<feColorMatrix type="matrix" values="0 0 0 0 0.258824 0 0 0 0 0.278431 0 0 0 0 0.298039 0 0 0 0.32 0"/>
<feBlend mode="normal" in2="effect1_dropShadow_1104_21828" result="effect2_dropShadow_1104_21828"/>
<feBlend mode="normal" in="SourceGraphic" in2="effect2_dropShadow_1104_21828" result="shape"/>
</filter>
<clipPath id="clip0_1104_21828">
<rect x="7" y="3" width="84" height="84" rx="42" fill="white"/>
</clipPath>
</defs>
</svg>
