<svg width="98" height="99" viewBox="0 0 98 99" fill="none" xmlns="http://www.w3.org/2000/svg">
<g filter="url(#filter0_dd_1104_22003)">
<g clip-path="url(#clip0_1104_22003)">
<path d="M96.5987 3H1.39867C-4.78692 3 -9.80133 8.01441 -9.80133 14.2V75.8C-9.80133 81.9856 -4.78692 87 1.39867 87H96.5987C102.784 87 107.799 81.9856 107.799 75.8V14.2C107.799 8.01441 102.784 3 96.5987 3Z" fill="#FFDA2C"/>
<path fill-rule="evenodd" clip-rule="evenodd" d="M-9.80133 3H29.3987V87H-9.80133V3ZM68.5987 3H107.799V87H68.5987V3Z" fill="#1A47B8"/>
<path fill-rule="evenodd" clip-rule="evenodd" d="M46.1983 59H51.7983V64.6H46.1983V59ZM57.3983 47.8H62.9983V53.4H57.3983V47.8ZM34.9983 47.8H40.5983V53.4H34.9983V47.8Z" fill="#AE6A3E"/>
<path fill-rule="evenodd" clip-rule="evenodd" d="M51.7983 47.8V25.4H46.1983V47.8H40.5983V53.4L46.1983 53.4V59H51.7983V53.4L57.3983 53.4V47.8H51.7983ZM57.3983 31H62.9983V47.8H57.3983V31ZM34.9983 31H40.5983V47.8H34.9983V31Z" fill="#151515"/>
</g>
</g>
<defs>
<filter id="filter0_dd_1104_22003" x="0.142858" y="0.714286" width="97.7143" height="97.7143" filterUnits="userSpaceOnUse" color-interpolation-filters="sRGB">
<feFlood flood-opacity="0" result="BackgroundImageFix"/>
<feColorMatrix in="SourceAlpha" type="matrix" values="0 0 0 0 0 0 0 0 0 0 0 0 0 0 0 0 0 0 127 0" result="hardAlpha"/>
<feOffset dy="4.57143"/>
<feGaussianBlur stdDeviation="3.42857"/>
<feComposite in2="hardAlpha" operator="out"/>
<feColorMatrix type="matrix" values="0 0 0 0 0.258824 0 0 0 0 0.278431 0 0 0 0 0.298039 0 0 0 0.08 0"/>
<feBlend mode="normal" in2="BackgroundImageFix" result="effect1_dropShadow_1104_22003"/>
<feColorMatrix in="SourceAlpha" type="matrix" values="0 0 0 0 0 0 0 0 0 0 0 0 0 0 0 0 0 0 127 0" result="hardAlpha"/>
<feOffset/>
<feGaussianBlur stdDeviation="0.285714"/>
<feComposite in2="hardAlpha" operator="out"/>
<feColorMatrix type="matrix" values="0 0 0 0 0.258824 0 0 0 0 0.278431 0 0 0 0 0.298039 0 0 0 0.32 0"/>
<feBlend mode="normal" in2="effect1_dropShadow_1104_22003" result="effect2_dropShadow_1104_22003"/>
<feBlend mode="normal" in="SourceGraphic" in2="effect2_dropShadow_1104_22003" result="shape"/>
</filter>
<clipPath id="clip0_1104_22003">
<rect x="7" y="3" width="84" height="84" rx="42" fill="white"/>
</clipPath>
</defs>
</svg>
