<svg width="98" height="99" viewBox="0 0 98 99" fill="none" xmlns="http://www.w3.org/2000/svg">
<g filter="url(#filter0_dd_1104_21820)">
<g clip-path="url(#clip0_1104_21820)">
<rect x="7" y="3" width="84" height="84" rx="42" fill="#F93939"/>
<path d="M115.134 3H19.9344C13.7488 3 8.73438 8.01441 8.73438 14.2V75.8C8.73438 81.9856 13.7488 87 19.9344 87H115.134C121.32 87 126.334 81.9856 126.334 75.8V14.2C126.334 8.01441 121.32 3 115.134 3Z" fill="#F93939"/>
<path fill-rule="evenodd" clip-rule="evenodd" d="M25.5344 3L36.7344 11.4L25.5344 19.8V3ZM25.5344 19.8L36.7344 28.2L25.5344 36.6V19.8ZM25.5344 36.6L36.7344 45L25.5344 53.4V36.6ZM25.5344 53.4L36.7344 61.8L25.5344 70.2V53.4ZM25.5344 70.2L36.7344 78.6L25.5344 87V70.2ZM19.9344 3L8.73438 11.4L19.9344 19.8V3ZM19.9344 19.8L8.73438 28.2L19.9344 36.6V19.8ZM19.9344 36.6L8.73438 45L19.9344 53.4V36.6ZM19.9344 53.4L8.73438 61.8L19.9344 70.2V53.4ZM19.9344 70.2L8.73438 78.6L19.9344 87V70.2ZM19.9344 3H25.5344V14.2H19.9344V3ZM19.9344 75.8H25.5344V87H19.9344V75.8ZM19.9344 31H25.5344V42.2H19.9344V31ZM19.9344 19.8H25.5344V25.4H19.9344V19.8ZM19.9344 64.6H25.5344V70.2H19.9344V64.6ZM19.9344 47.8H25.5344V59H19.9344V47.8Z" fill="white"/>
<path fill-rule="evenodd" clip-rule="evenodd" d="M36.7343 60.8915H126.334V87H36.7343V60.8915Z" fill="#249F58"/>
</g>
</g>
<defs>
<filter id="filter0_dd_1104_21820" x="0.142858" y="0.714286" width="97.7143" height="97.7143" filterUnits="userSpaceOnUse" color-interpolation-filters="sRGB">
<feFlood flood-opacity="0" result="BackgroundImageFix"/>
<feColorMatrix in="SourceAlpha" type="matrix" values="0 0 0 0 0 0 0 0 0 0 0 0 0 0 0 0 0 0 127 0" result="hardAlpha"/>
<feOffset dy="4.57143"/>
<feGaussianBlur stdDeviation="3.42857"/>
<feComposite in2="hardAlpha" operator="out"/>
<feColorMatrix type="matrix" values="0 0 0 0 0.258824 0 0 0 0 0.278431 0 0 0 0 0.298039 0 0 0 0.08 0"/>
<feBlend mode="normal" in2="BackgroundImageFix" result="effect1_dropShadow_1104_21820"/>
<feColorMatrix in="SourceAlpha" type="matrix" values="0 0 0 0 0 0 0 0 0 0 0 0 0 0 0 0 0 0 127 0" result="hardAlpha"/>
<feOffset/>
<feGaussianBlur stdDeviation="0.285714"/>
<feComposite in2="hardAlpha" operator="out"/>
<feColorMatrix type="matrix" values="0 0 0 0 0.258824 0 0 0 0 0.278431 0 0 0 0 0.298039 0 0 0 0.32 0"/>
<feBlend mode="normal" in2="effect1_dropShadow_1104_21820" result="effect2_dropShadow_1104_21820"/>
<feBlend mode="normal" in="SourceGraphic" in2="effect2_dropShadow_1104_21820" result="shape"/>
</filter>
<clipPath id="clip0_1104_21820">
<rect x="7" y="3" width="84" height="84" rx="42" fill="white"/>
</clipPath>
</defs>
</svg>
