<svg width="99" height="99" viewBox="0 0 99 99" fill="none" xmlns="http://www.w3.org/2000/svg">
<g filter="url(#filter0_dd_1104_21559)">
<g clip-path="url(#clip0_1104_21559)">
<rect x="7.66669" y="2.71484" width="84" height="84" rx="42" fill="#1A47B8"/>
<path d="M49.6676 65.8257C61.3268 65.8257 70.7784 56.3741 70.7784 44.7149C70.7784 33.0557 61.3268 23.6041 49.6676 23.6041C38.0084 23.6041 28.5568 33.0557 28.5568 44.7149C28.5568 56.3741 38.0084 65.8257 49.6676 65.8257Z" fill="white"/>
<path fill-rule="evenodd" clip-rule="evenodd" d="M40.2877 47.0602H59.0528V51.7515H40.2877V47.0602Z" fill="#CBCBCB"/>
<path fill-rule="evenodd" clip-rule="evenodd" d="M37.9407 32.9868H42.632V37.6781H37.9407V32.9868ZM47.3233 28.2956H52.0146V32.9868H47.3233V28.2956ZM56.7059 32.9868H61.3972V37.6781H56.7059V32.9868ZM61.3972 42.3694H66.0885V47.0607H61.3972V42.3694ZM56.7059 51.752H61.3972V56.4433H56.7059V51.752Z" fill="#249F58"/>
<path fill-rule="evenodd" clip-rule="evenodd" d="M52.0127 37.6779H56.704V42.3692H52.0127V37.6779Z" fill="#151515"/>
<path fill-rule="evenodd" clip-rule="evenodd" d="M52.0127 42.3692H56.704V47.0607H52.0127V42.3692Z" fill="#AE6A3E"/>
<path fill-rule="evenodd" clip-rule="evenodd" d="M42.6336 37.6779H47.3249V42.3692H42.6336V37.6779Z" fill="#AE6A3E"/>
<path fill-rule="evenodd" clip-rule="evenodd" d="M42.6336 42.3692H47.3249V47.0607H42.6336V42.3692Z" fill="#FFDA2C"/>
<path fill-rule="evenodd" clip-rule="evenodd" d="M47.3226 56.4433H52.0139V61.1346H47.3226V56.4433ZM37.94 51.752H42.6313V56.4433H37.94V51.752ZM33.2487 42.3694H37.94V47.0607H33.2487V42.3694Z" fill="#249F58"/>
<path fill-rule="evenodd" clip-rule="evenodd" d="M7.66559 69.9148H125.266V86.7148H7.66559V69.9148ZM7.66559 2.71484H125.266V19.5148H7.66559V2.71484Z" fill="#F93939"/>
</g>
</g>
<defs>
<filter id="filter0_dd_1104_21559" x="0.809545" y="0.42913" width="97.7143" height="97.7143" filterUnits="userSpaceOnUse" color-interpolation-filters="sRGB">
<feFlood flood-opacity="0" result="BackgroundImageFix"/>
<feColorMatrix in="SourceAlpha" type="matrix" values="0 0 0 0 0 0 0 0 0 0 0 0 0 0 0 0 0 0 127 0" result="hardAlpha"/>
<feOffset dy="4.57143"/>
<feGaussianBlur stdDeviation="3.42857"/>
<feComposite in2="hardAlpha" operator="out"/>
<feColorMatrix type="matrix" values="0 0 0 0 0.258824 0 0 0 0 0.278431 0 0 0 0 0.298039 0 0 0 0.08 0"/>
<feBlend mode="normal" in2="BackgroundImageFix" result="effect1_dropShadow_1104_21559"/>
<feColorMatrix in="SourceAlpha" type="matrix" values="0 0 0 0 0 0 0 0 0 0 0 0 0 0 0 0 0 0 127 0" result="hardAlpha"/>
<feOffset/>
<feGaussianBlur stdDeviation="0.285714"/>
<feComposite in2="hardAlpha" operator="out"/>
<feColorMatrix type="matrix" values="0 0 0 0 0.258824 0 0 0 0 0.278431 0 0 0 0 0.298039 0 0 0 0.32 0"/>
<feBlend mode="normal" in2="effect1_dropShadow_1104_21559" result="effect2_dropShadow_1104_21559"/>
<feBlend mode="normal" in="SourceGraphic" in2="effect2_dropShadow_1104_21559" result="shape"/>
</filter>
<clipPath id="clip0_1104_21559">
<rect x="7.66669" y="2.71484" width="84" height="84" rx="42" fill="white"/>
</clipPath>
</defs>
</svg>
