<svg width="98" height="99" viewBox="0 0 98 99" fill="none" xmlns="http://www.w3.org/2000/svg">
<g filter="url(#filter0_dd_1104_22694)">
<g clip-path="url(#clip0_1104_22694)">
<rect x="7" y="3" width="84" height="84" rx="42" fill="#FF6C2D"/>
<path d="M96.5992 3H1.39922C-4.78637 3 -9.80078 8.01441 -9.80078 14.2V75.8C-9.80078 81.9856 -4.78637 87 1.39922 87H96.5992C102.785 87 107.799 81.9856 107.799 75.8V14.2C107.799 8.01441 102.785 3 96.5992 3Z" fill="#FF6C2D"/>
<path fill-rule="evenodd" clip-rule="evenodd" d="M-9.80078 87L107.799 3H-9.80078V87Z" fill="#FFDA2C"/>
<path fill-rule="evenodd" clip-rule="evenodd" d="M20.2228 55.2774L22.2782 61.4438L30.5002 63.4993L32.5557 59.3883L48.9996 61.4438L44.8886 51.1664H53.1105L65.4434 55.2774L69.5544 51.1664L57.2215 47.0554L61.3325 42.9444H73.6654L75.7209 38.8335H65.4434V34.7225H73.6654L77.7764 30.6115L61.3325 26.5006L48.9996 38.8335L53.1105 42.9444L40.7776 40.889L32.5557 55.2774L28.4447 59.3883L20.2228 55.2774Z" fill="white"/>
</g>
</g>
<defs>
<filter id="filter0_dd_1104_22694" x="0.142858" y="0.714286" width="97.7143" height="97.7143" filterUnits="userSpaceOnUse" color-interpolation-filters="sRGB">
<feFlood flood-opacity="0" result="BackgroundImageFix"/>
<feColorMatrix in="SourceAlpha" type="matrix" values="0 0 0 0 0 0 0 0 0 0 0 0 0 0 0 0 0 0 127 0" result="hardAlpha"/>
<feOffset dy="4.57143"/>
<feGaussianBlur stdDeviation="3.42857"/>
<feComposite in2="hardAlpha" operator="out"/>
<feColorMatrix type="matrix" values="0 0 0 0 0.258824 0 0 0 0 0.278431 0 0 0 0 0.298039 0 0 0 0.08 0"/>
<feBlend mode="normal" in2="BackgroundImageFix" result="effect1_dropShadow_1104_22694"/>
<feColorMatrix in="SourceAlpha" type="matrix" values="0 0 0 0 0 0 0 0 0 0 0 0 0 0 0 0 0 0 127 0" result="hardAlpha"/>
<feOffset/>
<feGaussianBlur stdDeviation="0.285714"/>
<feComposite in2="hardAlpha" operator="out"/>
<feColorMatrix type="matrix" values="0 0 0 0 0.258824 0 0 0 0 0.278431 0 0 0 0 0.298039 0 0 0 0.32 0"/>
<feBlend mode="normal" in2="effect1_dropShadow_1104_22694" result="effect2_dropShadow_1104_22694"/>
<feBlend mode="normal" in="SourceGraphic" in2="effect2_dropShadow_1104_22694" result="shape"/>
</filter>
<clipPath id="clip0_1104_22694">
<rect x="7" y="3" width="84" height="84" rx="42" fill="white"/>
</clipPath>
</defs>
</svg>
