<svg width="98" height="99" viewBox="0 0 98 99" fill="none" xmlns="http://www.w3.org/2000/svg">
<g filter="url(#filter0_dd_1104_21780)">
<g clip-path="url(#clip0_1104_21780)">
<rect x="7" y="3" width="84" height="84" rx="42" fill="#F93939"/>
<path d="M96.5982 3H1.39824C-4.78735 3 -9.80176 8.01441 -9.80176 14.2V75.8C-9.80176 81.9856 -4.78735 87 1.39824 87H96.5982C102.784 87 107.798 81.9856 107.798 75.8V14.2C107.798 8.01441 102.784 3 96.5982 3Z" fill="#F93939"/>
<path fill-rule="evenodd" clip-rule="evenodd" d="M-9.80176 47.8H107.798V87H-9.80176V47.8Z" fill="#249F58"/>
<path fill-rule="evenodd" clip-rule="evenodd" d="M48.9977 54.8L37.4785 60.8592L39.6793 48.0352L30.3497 38.9352L43.2297 37.0648L48.9977 25.4L54.7657 37.0704L67.6457 38.9408L58.3161 48.0296L60.5169 60.8648" fill="#FFDA2C"/>
</g>
</g>
<defs>
<filter id="filter0_dd_1104_21780" x="0.142858" y="0.714286" width="97.7143" height="97.7143" filterUnits="userSpaceOnUse" color-interpolation-filters="sRGB">
<feFlood flood-opacity="0" result="BackgroundImageFix"/>
<feColorMatrix in="SourceAlpha" type="matrix" values="0 0 0 0 0 0 0 0 0 0 0 0 0 0 0 0 0 0 127 0" result="hardAlpha"/>
<feOffset dy="4.57143"/>
<feGaussianBlur stdDeviation="3.42857"/>
<feComposite in2="hardAlpha" operator="out"/>
<feColorMatrix type="matrix" values="0 0 0 0 0.258824 0 0 0 0 0.278431 0 0 0 0 0.298039 0 0 0 0.08 0"/>
<feBlend mode="normal" in2="BackgroundImageFix" result="effect1_dropShadow_1104_21780"/>
<feColorMatrix in="SourceAlpha" type="matrix" values="0 0 0 0 0 0 0 0 0 0 0 0 0 0 0 0 0 0 127 0" result="hardAlpha"/>
<feOffset/>
<feGaussianBlur stdDeviation="0.285714"/>
<feComposite in2="hardAlpha" operator="out"/>
<feColorMatrix type="matrix" values="0 0 0 0 0.258824 0 0 0 0 0.278431 0 0 0 0 0.298039 0 0 0 0.32 0"/>
<feBlend mode="normal" in2="effect1_dropShadow_1104_21780" result="effect2_dropShadow_1104_21780"/>
<feBlend mode="normal" in="SourceGraphic" in2="effect2_dropShadow_1104_21780" result="shape"/>
</filter>
<clipPath id="clip0_1104_21780">
<rect x="7" y="3" width="84" height="84" rx="42" fill="white"/>
</clipPath>
</defs>
</svg>
