<svg width="98" height="99" viewBox="0 0 98 99" fill="none" xmlns="http://www.w3.org/2000/svg">
<g filter="url(#filter0_dd_1104_22031)">
<g clip-path="url(#clip0_1104_22031)">
<rect x="7" y="3" width="84" height="84" rx="42" fill="#1A47B8"/>
<path fill-rule="evenodd" clip-rule="evenodd" d="M7.00195 47.7997H124.602V53.3997H7.00195V47.7997Z" fill="white"/>
<path fill-rule="evenodd" clip-rule="evenodd" d="M7.00195 53.3997H124.602V58.9996H7.00195V53.3997Z" fill="#F93939"/>
<path fill-rule="evenodd" clip-rule="evenodd" d="M7.00195 58.9996H124.602V64.5997H7.00195V58.9996Z" fill="white"/>
<path fill-rule="evenodd" clip-rule="evenodd" d="M35.0015 42.1996H40.6015V47.7996H35.0015V42.1996ZM46.2015 36.5996H51.8015V42.1996H46.2015V36.5996ZM57.4015 42.1996H63.0015V47.7996H57.4015V42.1996ZM63.0015 53.3996H68.6015V58.9996H63.0015V53.3996ZM29.4015 53.3996H35.0015V58.9996H29.4015V53.3996ZM57.4015 64.5996H63.0015V70.1996H57.4015V64.5996ZM46.2015 70.1996H51.8015V75.7996H46.2015V70.1996ZM35.0015 64.5996H40.6015V70.1996H35.0015V64.5996Z" fill="#FFDA2C"/>
</g>
</g>
<defs>
<filter id="filter0_dd_1104_22031" x="0.142858" y="0.714286" width="97.7143" height="97.7143" filterUnits="userSpaceOnUse" color-interpolation-filters="sRGB">
<feFlood flood-opacity="0" result="BackgroundImageFix"/>
<feColorMatrix in="SourceAlpha" type="matrix" values="0 0 0 0 0 0 0 0 0 0 0 0 0 0 0 0 0 0 127 0" result="hardAlpha"/>
<feOffset dy="4.57143"/>
<feGaussianBlur stdDeviation="3.42857"/>
<feComposite in2="hardAlpha" operator="out"/>
<feColorMatrix type="matrix" values="0 0 0 0 0.258824 0 0 0 0 0.278431 0 0 0 0 0.298039 0 0 0 0.08 0"/>
<feBlend mode="normal" in2="BackgroundImageFix" result="effect1_dropShadow_1104_22031"/>
<feColorMatrix in="SourceAlpha" type="matrix" values="0 0 0 0 0 0 0 0 0 0 0 0 0 0 0 0 0 0 127 0" result="hardAlpha"/>
<feOffset/>
<feGaussianBlur stdDeviation="0.285714"/>
<feComposite in2="hardAlpha" operator="out"/>
<feColorMatrix type="matrix" values="0 0 0 0 0.258824 0 0 0 0 0.278431 0 0 0 0 0.298039 0 0 0 0.32 0"/>
<feBlend mode="normal" in2="effect1_dropShadow_1104_22031" result="effect2_dropShadow_1104_22031"/>
<feBlend mode="normal" in="SourceGraphic" in2="effect2_dropShadow_1104_22031" result="shape"/>
</filter>
<clipPath id="clip0_1104_22031">
<rect x="7" y="3" width="84" height="84" rx="42" fill="white"/>
</clipPath>
</defs>
</svg>
