<svg width="98" height="99" viewBox="0 0 98 99" fill="none" xmlns="http://www.w3.org/2000/svg">
<g filter="url(#filter0_dd_1104_21979)">
<g clip-path="url(#clip0_1104_21979)">
<path d="M96.5992 3H1.39922C-4.78637 3 -9.80078 8.01441 -9.80078 14.2V75.8C-9.80078 81.9856 -4.78637 87 1.39922 87H96.5992C102.785 87 107.799 81.9856 107.799 75.8V14.2C107.799 8.01441 102.785 3 96.5992 3Z" fill="white"/>
<path fill-rule="evenodd" clip-rule="evenodd" d="M-9.80078 59H107.799V87H-9.80078V59Z" fill="#FFDA2C"/>
<path fill-rule="evenodd" clip-rule="evenodd" d="M-9.80078 47.7999H107.799V64.5999H-9.80078V47.7999Z" fill="#249F58"/>
<path fill-rule="evenodd" clip-rule="evenodd" d="M-9.80078 3H107.799V31H-9.80078V3Z" fill="#1A47B8"/>
<path fill-rule="evenodd" clip-rule="evenodd" d="M6.99916 14.2001H12.5992V19.8001H6.99916V14.2001Z" fill="#FFDA2C"/>
<path fill-rule="evenodd" clip-rule="evenodd" d="M18.1992 14.1999H23.7992V19.7999H18.1992V14.1999ZM29.3992 14.1999H34.9992V19.7999H29.3992V14.1999ZM23.7992 19.7999H29.3992V25.3999H23.7992V19.7999ZM23.7992 8.59989H29.3992V14.1999H23.7992V8.59989Z" fill="#D4AF2C"/>
<path fill-rule="evenodd" clip-rule="evenodd" d="M40.5996 3H57.3996V87H40.5996V3Z" fill="#F93939"/>
</g>
</g>
<defs>
<filter id="filter0_dd_1104_21979" x="0.142858" y="0.714286" width="97.7143" height="97.7143" filterUnits="userSpaceOnUse" color-interpolation-filters="sRGB">
<feFlood flood-opacity="0" result="BackgroundImageFix"/>
<feColorMatrix in="SourceAlpha" type="matrix" values="0 0 0 0 0 0 0 0 0 0 0 0 0 0 0 0 0 0 127 0" result="hardAlpha"/>
<feOffset dy="4.57143"/>
<feGaussianBlur stdDeviation="3.42857"/>
<feComposite in2="hardAlpha" operator="out"/>
<feColorMatrix type="matrix" values="0 0 0 0 0.258824 0 0 0 0 0.278431 0 0 0 0 0.298039 0 0 0 0.08 0"/>
<feBlend mode="normal" in2="BackgroundImageFix" result="effect1_dropShadow_1104_21979"/>
<feColorMatrix in="SourceAlpha" type="matrix" values="0 0 0 0 0 0 0 0 0 0 0 0 0 0 0 0 0 0 127 0" result="hardAlpha"/>
<feOffset/>
<feGaussianBlur stdDeviation="0.285714"/>
<feComposite in2="hardAlpha" operator="out"/>
<feColorMatrix type="matrix" values="0 0 0 0 0.258824 0 0 0 0 0.278431 0 0 0 0 0.298039 0 0 0 0.32 0"/>
<feBlend mode="normal" in2="effect1_dropShadow_1104_21979" result="effect2_dropShadow_1104_21979"/>
<feBlend mode="normal" in="SourceGraphic" in2="effect2_dropShadow_1104_21979" result="shape"/>
</filter>
<clipPath id="clip0_1104_21979">
<rect x="7" y="3" width="84" height="84" rx="42" fill="white"/>
</clipPath>
</defs>
</svg>
