<svg width="98" height="99" viewBox="0 0 98 99" fill="none" xmlns="http://www.w3.org/2000/svg">
<g filter="url(#filter0_dd_1104_22580)">
<g clip-path="url(#clip0_1104_22580)">
<rect x="7" y="3" width="84" height="84" rx="42" fill="#F93939"/>
<path d="M113.4 3H18.2C12.0144 3 7 8.01441 7 14.2V75.8C7 81.9856 12.0144 87 18.2 87H113.4C119.586 87 124.6 81.9856 124.6 75.8V14.2C124.6 8.01441 119.586 3 113.4 3Z" fill="#F93939"/>
<path fill-rule="evenodd" clip-rule="evenodd" d="M37.7896 43.4879L29.5576 47.8167L31.1256 38.6495L24.4728 32.1535L33.6736 30.8263L37.7896 22.4823L41.9 30.8263L51.1008 32.1535L44.4368 38.6495L46.016 47.8111L37.7896 43.4879ZM57.4008 19.7999H63.0008V25.3999H57.4008V19.7999ZM63.0008 30.9999H68.6008V36.5999H63.0008V30.9999ZM63.0008 42.1999H68.6008V47.7999H63.0008V42.1999ZM57.4008 53.3999H63.0008V58.9999H57.4008V53.3999Z" fill="#FFDA2C"/>
</g>
</g>
<defs>
<filter id="filter0_dd_1104_22580" x="0.142858" y="0.714286" width="97.7143" height="97.7143" filterUnits="userSpaceOnUse" color-interpolation-filters="sRGB">
<feFlood flood-opacity="0" result="BackgroundImageFix"/>
<feColorMatrix in="SourceAlpha" type="matrix" values="0 0 0 0 0 0 0 0 0 0 0 0 0 0 0 0 0 0 127 0" result="hardAlpha"/>
<feOffset dy="4.57143"/>
<feGaussianBlur stdDeviation="3.42857"/>
<feComposite in2="hardAlpha" operator="out"/>
<feColorMatrix type="matrix" values="0 0 0 0 0.258824 0 0 0 0 0.278431 0 0 0 0 0.298039 0 0 0 0.08 0"/>
<feBlend mode="normal" in2="BackgroundImageFix" result="effect1_dropShadow_1104_22580"/>
<feColorMatrix in="SourceAlpha" type="matrix" values="0 0 0 0 0 0 0 0 0 0 0 0 0 0 0 0 0 0 127 0" result="hardAlpha"/>
<feOffset/>
<feGaussianBlur stdDeviation="0.285714"/>
<feComposite in2="hardAlpha" operator="out"/>
<feColorMatrix type="matrix" values="0 0 0 0 0.258824 0 0 0 0 0.278431 0 0 0 0 0.298039 0 0 0 0.32 0"/>
<feBlend mode="normal" in2="effect1_dropShadow_1104_22580" result="effect2_dropShadow_1104_22580"/>
<feBlend mode="normal" in="SourceGraphic" in2="effect2_dropShadow_1104_22580" result="shape"/>
</filter>
<clipPath id="clip0_1104_22580">
<rect x="7" y="3" width="84" height="84" rx="42" fill="white"/>
</clipPath>
</defs>
</svg>
