<svg width="98" height="99" viewBox="0 0 98 99" fill="none" xmlns="http://www.w3.org/2000/svg">
<g filter="url(#filter0_dd_1104_22450)">
<g clip-path="url(#clip0_1104_22450)">
<rect x="7" y="3" width="84" height="84" rx="42" fill="white"/>
<path fill-rule="evenodd" clip-rule="evenodd" d="M1.40039 3H119V25.4H1.40039V3Z" fill="#FFDA2C"/>
<path fill-rule="evenodd" clip-rule="evenodd" d="M1.40039 45H119V64.6H1.40039V45Z" fill="#F93939"/>
<path fill-rule="evenodd" clip-rule="evenodd" d="M1.40039 64.6H119V86.9999H1.40039V64.6Z" fill="#232C80"/>
<path fill-rule="evenodd" clip-rule="evenodd" d="M1.40039 3L68.6004 45L1.40039 86.9999V3Z" fill="#00B731"/>
<path fill-rule="evenodd" clip-rule="evenodd" d="M35.0004 63.7041C33.3764 64.2865 31.6404 64.6001 29.8316 64.6001C20.3116 64.6001 12.6004 55.8249 12.6004 45.0001C12.6004 34.1753 20.3172 25.4001 29.8316 25.4001C31.6348 25.4001 33.3708 25.7137 35.0004 26.2961C28.0116 28.7937 22.938 36.2249 22.938 45.0001C22.938 53.7753 28.0116 61.2065 35.0004 63.7041ZM35.0004 31.0001H40.6004V36.6001H35.0004V31.0001ZM35.0004 42.2001H40.6004V47.8001H35.0004V42.2001ZM35.0004 53.4001H40.6004V59.0001H35.0004V53.4001Z" fill="white"/>
</g>
</g>
<defs>
<filter id="filter0_dd_1104_22450" x="0.142858" y="0.714286" width="97.7143" height="97.7143" filterUnits="userSpaceOnUse" color-interpolation-filters="sRGB">
<feFlood flood-opacity="0" result="BackgroundImageFix"/>
<feColorMatrix in="SourceAlpha" type="matrix" values="0 0 0 0 0 0 0 0 0 0 0 0 0 0 0 0 0 0 127 0" result="hardAlpha"/>
<feOffset dy="4.57143"/>
<feGaussianBlur stdDeviation="3.42857"/>
<feComposite in2="hardAlpha" operator="out"/>
<feColorMatrix type="matrix" values="0 0 0 0 0.258824 0 0 0 0 0.278431 0 0 0 0 0.298039 0 0 0 0.08 0"/>
<feBlend mode="normal" in2="BackgroundImageFix" result="effect1_dropShadow_1104_22450"/>
<feColorMatrix in="SourceAlpha" type="matrix" values="0 0 0 0 0 0 0 0 0 0 0 0 0 0 0 0 0 0 127 0" result="hardAlpha"/>
<feOffset/>
<feGaussianBlur stdDeviation="0.285714"/>
<feComposite in2="hardAlpha" operator="out"/>
<feColorMatrix type="matrix" values="0 0 0 0 0.258824 0 0 0 0 0.278431 0 0 0 0 0.298039 0 0 0 0.32 0"/>
<feBlend mode="normal" in2="effect1_dropShadow_1104_22450" result="effect2_dropShadow_1104_22450"/>
<feBlend mode="normal" in="SourceGraphic" in2="effect2_dropShadow_1104_22450" result="shape"/>
</filter>
<clipPath id="clip0_1104_22450">
<rect x="7" y="3" width="84" height="84" rx="42" fill="white"/>
</clipPath>
</defs>
</svg>
