<svg width="98" height="99" viewBox="0 0 98 99" fill="none" xmlns="http://www.w3.org/2000/svg">
<g filter="url(#filter0_dd_1104_22540)">
<g clip-path="url(#clip0_1104_22540)">
<rect x="7" y="3" width="84" height="84" rx="42" fill="white"/>
<path fill-rule="evenodd" clip-rule="evenodd" d="M-9.79883 59H107.801V87H-9.79883V59Z" fill="#1A47B8"/>
<path fill-rule="evenodd" clip-rule="evenodd" d="M-9.79883 3H107.801V31H-9.79883V3Z" fill="#F93939"/>
<path fill-rule="evenodd" clip-rule="evenodd" d="M35 25.4008H40.6V31.0008H35V25.4008ZM46.2 19.8008H51.8V31.0008H46.2V19.8008ZM57.4 25.4008H63V31.0008H57.4V25.4008Z" fill="#3A99FF"/>
<path fill-rule="evenodd" clip-rule="evenodd" d="M51.8016 19.8008H57.4016V31.0008H51.8016V19.8008ZM40.6016 19.8008H46.2016V31.0008H40.6016V19.8008Z" fill="#1A47B8"/>
<mask id="mask0_1104_22540" style="mask-type:alpha" maskUnits="userSpaceOnUse" x="35" y="31" width="28" height="34">
<path d="M63 50.6C63 58.328 56.728 64.6 49 64.6C41.272 64.6 35 58.328 35 50.6V31H63V50.6Z" fill="white"/>
</mask>
<g mask="url(#mask0_1104_22540)">
<path d="M63 50.6C63 58.328 56.728 64.6 49 64.6C41.272 64.6 35 58.328 35 50.6V31H63V50.6Z" fill="#F93939"/>
<path fill-rule="evenodd" clip-rule="evenodd" d="M40.6 59H46.2V64.6H40.6V59ZM51.8 59H57.4V64.6H51.8V59ZM46.2 53.4H51.8V59H46.2V53.4ZM40.6 47.8H46.2V53.4H40.6V47.8ZM51.8 47.8H57.4V53.4H51.8V47.8ZM46.2 42.2H51.8V47.8H46.2V42.2ZM40.6 36.6H46.2V42.2H40.6V36.6ZM51.8 36.6H57.4V42.2H51.8V36.6ZM46.2 31H51.8V36.6H46.2V31ZM57.4 31H63V36.6H57.4V31ZM57.4 42.2H63V47.8H57.4V42.2ZM57.4 53.4H63V59H57.4V53.4ZM35 53.4H40.6V59H35V53.4ZM35 42.2H40.6V47.8H35V42.2ZM35 31H40.6V36.6H35V31Z" fill="white"/>
</g>
</g>
</g>
<defs>
<filter id="filter0_dd_1104_22540" x="0.142858" y="0.714286" width="97.7143" height="97.7143" filterUnits="userSpaceOnUse" color-interpolation-filters="sRGB">
<feFlood flood-opacity="0" result="BackgroundImageFix"/>
<feColorMatrix in="SourceAlpha" type="matrix" values="0 0 0 0 0 0 0 0 0 0 0 0 0 0 0 0 0 0 127 0" result="hardAlpha"/>
<feOffset dy="4.57143"/>
<feGaussianBlur stdDeviation="3.42857"/>
<feComposite in2="hardAlpha" operator="out"/>
<feColorMatrix type="matrix" values="0 0 0 0 0.258824 0 0 0 0 0.278431 0 0 0 0 0.298039 0 0 0 0.08 0"/>
<feBlend mode="normal" in2="BackgroundImageFix" result="effect1_dropShadow_1104_22540"/>
<feColorMatrix in="SourceAlpha" type="matrix" values="0 0 0 0 0 0 0 0 0 0 0 0 0 0 0 0 0 0 127 0" result="hardAlpha"/>
<feOffset/>
<feGaussianBlur stdDeviation="0.285714"/>
<feComposite in2="hardAlpha" operator="out"/>
<feColorMatrix type="matrix" values="0 0 0 0 0.258824 0 0 0 0 0.278431 0 0 0 0 0.298039 0 0 0 0.32 0"/>
<feBlend mode="normal" in2="effect1_dropShadow_1104_22540" result="effect2_dropShadow_1104_22540"/>
<feBlend mode="normal" in="SourceGraphic" in2="effect2_dropShadow_1104_22540" result="shape"/>
</filter>
<clipPath id="clip0_1104_22540">
<rect x="7" y="3" width="84" height="84" rx="42" fill="white"/>
</clipPath>
</defs>
</svg>
