<svg width="98" height="99" viewBox="0 0 98 99" fill="none" xmlns="http://www.w3.org/2000/svg">
<g filter="url(#filter0_dd_1104_22734)">
<g clip-path="url(#clip0_1104_22734)">
<rect x="7" y="3" width="84" height="84" rx="42" fill="#3A99FF"/>
<path fill-rule="evenodd" clip-rule="evenodd" d="M32.189 32.2882L23.957 36.617L25.525 27.4498L18.8722 20.9538L28.073 19.6266L32.189 11.2826L36.2994 19.6266L45.5002 20.9538L38.8362 27.4498L40.4154 36.6114" fill="#FFDA2C"/>
<path fill-rule="evenodd" clip-rule="evenodd" d="M7.00014 81.4004L124.6 19.8004V-2.59961L7.00014 59.0004V81.4004Z" fill="#FFDA2C"/>
<path fill-rule="evenodd" clip-rule="evenodd" d="M7.00014 92.6002L124.6 31.0002V8.60017L7.00014 70.2002V92.6002Z" fill="#FFDA2C"/>
<path fill-rule="evenodd" clip-rule="evenodd" d="M7 87.0003L124.6 25.4003V3.00028L7 64.6003V87.0003Z" fill="#F93939"/>
</g>
</g>
<defs>
<filter id="filter0_dd_1104_22734" x="0.142858" y="0.714286" width="97.7143" height="97.7143" filterUnits="userSpaceOnUse" color-interpolation-filters="sRGB">
<feFlood flood-opacity="0" result="BackgroundImageFix"/>
<feColorMatrix in="SourceAlpha" type="matrix" values="0 0 0 0 0 0 0 0 0 0 0 0 0 0 0 0 0 0 127 0" result="hardAlpha"/>
<feOffset dy="4.57143"/>
<feGaussianBlur stdDeviation="3.42857"/>
<feComposite in2="hardAlpha" operator="out"/>
<feColorMatrix type="matrix" values="0 0 0 0 0.258824 0 0 0 0 0.278431 0 0 0 0 0.298039 0 0 0 0.08 0"/>
<feBlend mode="normal" in2="BackgroundImageFix" result="effect1_dropShadow_1104_22734"/>
<feColorMatrix in="SourceAlpha" type="matrix" values="0 0 0 0 0 0 0 0 0 0 0 0 0 0 0 0 0 0 127 0" result="hardAlpha"/>
<feOffset/>
<feGaussianBlur stdDeviation="0.285714"/>
<feComposite in2="hardAlpha" operator="out"/>
<feColorMatrix type="matrix" values="0 0 0 0 0.258824 0 0 0 0 0.278431 0 0 0 0 0.298039 0 0 0 0.32 0"/>
<feBlend mode="normal" in2="effect1_dropShadow_1104_22734" result="effect2_dropShadow_1104_22734"/>
<feBlend mode="normal" in="SourceGraphic" in2="effect2_dropShadow_1104_22734" result="shape"/>
</filter>
<clipPath id="clip0_1104_22734">
<rect x="7" y="3" width="84" height="84" rx="42" fill="white"/>
</clipPath>
</defs>
</svg>
