<svg width="98" height="99" viewBox="0 0 98 99" fill="none" xmlns="http://www.w3.org/2000/svg">
<g filter="url(#filter0_dd_1104_22007)">
<g clip-path="url(#clip0_1104_22007)">
<rect x="7" y="3" width="84" height="84" rx="42" fill="#249F58"/>
<path fill-rule="evenodd" clip-rule="evenodd" d="M46.2003 42.2H-9.79967V47.8H46.2003V87H51.8003V47.8H107.8V42.2H51.8003V3H46.2003V42.2Z" fill="#151515"/>
<path fill-rule="evenodd" clip-rule="evenodd" d="M40.6003 36.6V42.2H46.2003V3H40.6003V36.6H-9.79967V42.2H46.2003V36.6H40.6003ZM46.2003 42.2H107.8V36.6H40.6003V42.2H46.2003V36.6H40.6003V87H46.2003V42.2Z" fill="#FFDA2C"/>
<path fill-rule="evenodd" clip-rule="evenodd" d="M57.4003 53.4V47.8H51.8003V87H57.4003V53.4H107.8V47.8H51.8003V53.4H57.4003ZM-9.79967 47.8H63.0003V53.4H-9.79967V47.8ZM51.8003 3H57.4003V53.4H51.8003V3Z" fill="white"/>
<path d="M49.0004 64.6001C59.8252 64.6001 68.6004 55.8249 68.6004 45.0001C68.6004 34.1753 59.8252 25.4001 49.0004 25.4001C38.1756 25.4001 29.4004 34.1753 29.4004 45.0001C29.4004 55.8249 38.1756 64.6001 49.0004 64.6001Z" fill="#F93939"/>
<path fill-rule="evenodd" clip-rule="evenodd" d="M40.6003 36.6H46.2003V42.2H40.6003V36.6ZM51.8004 36.6002H57.4004V42.2002L51.8003 42.2L51.8004 36.6002ZM51.8003 47.8H57.4003V53.4H51.8003V47.8ZM40.6004 47.8002L46.2003 47.8L46.2004 53.4002H40.6004V47.8002Z" fill="#0A6A30"/>
<path fill-rule="evenodd" clip-rule="evenodd" d="M46.2003 36.6L51.8004 36.6002L51.8003 47.8H46.2003V36.6Z" fill="#955DCC"/>
</g>
</g>
<defs>
<filter id="filter0_dd_1104_22007" x="0.142858" y="0.714286" width="97.7143" height="97.7143" filterUnits="userSpaceOnUse" color-interpolation-filters="sRGB">
<feFlood flood-opacity="0" result="BackgroundImageFix"/>
<feColorMatrix in="SourceAlpha" type="matrix" values="0 0 0 0 0 0 0 0 0 0 0 0 0 0 0 0 0 0 127 0" result="hardAlpha"/>
<feOffset dy="4.57143"/>
<feGaussianBlur stdDeviation="3.42857"/>
<feComposite in2="hardAlpha" operator="out"/>
<feColorMatrix type="matrix" values="0 0 0 0 0.258824 0 0 0 0 0.278431 0 0 0 0 0.298039 0 0 0 0.08 0"/>
<feBlend mode="normal" in2="BackgroundImageFix" result="effect1_dropShadow_1104_22007"/>
<feColorMatrix in="SourceAlpha" type="matrix" values="0 0 0 0 0 0 0 0 0 0 0 0 0 0 0 0 0 0 127 0" result="hardAlpha"/>
<feOffset/>
<feGaussianBlur stdDeviation="0.285714"/>
<feComposite in2="hardAlpha" operator="out"/>
<feColorMatrix type="matrix" values="0 0 0 0 0.258824 0 0 0 0 0.278431 0 0 0 0 0.298039 0 0 0 0.32 0"/>
<feBlend mode="normal" in2="effect1_dropShadow_1104_22007" result="effect2_dropShadow_1104_22007"/>
<feBlend mode="normal" in="SourceGraphic" in2="effect2_dropShadow_1104_22007" result="shape"/>
</filter>
<clipPath id="clip0_1104_22007">
<rect x="7" y="3" width="84" height="84" rx="42" fill="white"/>
</clipPath>
</defs>
</svg>
