<svg width="98" height="99" viewBox="0 0 98 99" fill="none" xmlns="http://www.w3.org/2000/svg">
<g filter="url(#filter0_dd_1104_21578)">
<g clip-path="url(#clip0_1104_21578)">
<rect x="7" y="3" width="84" height="84" rx="42" fill="#DA291C"/>
<path d="M57.252 39.9352C60.6694 42.447 60.6694 47.553 57.252 50.0648L7 87V3L57.252 39.9352Z" fill="#FFC72C"/>
<path d="M42.1275 41.5354C43.917 43.4985 43.917 46.5015 42.1275 48.4646L7 87V3L42.1275 41.5354Z" fill="#000008"/>
<path d="M18.5961 38.5632C18.4248 36.9084 20.4738 36.0041 21.5809 37.2458L29.7894 46.4524C30.8931 47.6903 29.7708 49.6179 28.1494 49.2692L16.1153 46.681C14.4959 46.3327 14.2631 44.1182 15.7745 43.4407L27.0123 38.4035C28.5273 37.7244 30.0265 39.3801 29.2007 40.8204L23.0611 51.5293C22.2331 52.9735 20.0402 52.5091 19.8687 50.8533L18.5961 38.5632Z" fill="white"/>
</g>
</g>
<defs>
<filter id="filter0_dd_1104_21578" x="0.142858" y="0.714286" width="97.7143" height="97.7143" filterUnits="userSpaceOnUse" color-interpolation-filters="sRGB">
<feFlood flood-opacity="0" result="BackgroundImageFix"/>
<feColorMatrix in="SourceAlpha" type="matrix" values="0 0 0 0 0 0 0 0 0 0 0 0 0 0 0 0 0 0 127 0" result="hardAlpha"/>
<feOffset dy="4.57143"/>
<feGaussianBlur stdDeviation="3.42857"/>
<feComposite in2="hardAlpha" operator="out"/>
<feColorMatrix type="matrix" values="0 0 0 0 0.258824 0 0 0 0 0.278431 0 0 0 0 0.298039 0 0 0 0.08 0"/>
<feBlend mode="normal" in2="BackgroundImageFix" result="effect1_dropShadow_1104_21578"/>
<feColorMatrix in="SourceAlpha" type="matrix" values="0 0 0 0 0 0 0 0 0 0 0 0 0 0 0 0 0 0 127 0" result="hardAlpha"/>
<feOffset/>
<feGaussianBlur stdDeviation="0.285714"/>
<feComposite in2="hardAlpha" operator="out"/>
<feColorMatrix type="matrix" values="0 0 0 0 0.258824 0 0 0 0 0.278431 0 0 0 0 0.298039 0 0 0 0.32 0"/>
<feBlend mode="normal" in2="effect1_dropShadow_1104_21578" result="effect2_dropShadow_1104_21578"/>
<feBlend mode="normal" in="SourceGraphic" in2="effect2_dropShadow_1104_21578" result="shape"/>
</filter>
<clipPath id="clip0_1104_21578">
<rect x="7" y="3" width="84" height="84" rx="42" fill="white"/>
</clipPath>
</defs>
</svg>
