<svg width="98" height="99" viewBox="0 0 98 99" fill="none" xmlns="http://www.w3.org/2000/svg">
<g filter="url(#filter0_dd_1104_22165)">
<g clip-path="url(#clip0_1104_22165)">
<path d="M96.6003 3H1.40035C-4.78524 3 -9.79965 8.01441 -9.79965 14.2V75.8C-9.79965 81.9856 -4.78524 87 1.40035 87H96.6003C102.786 87 107.8 81.9856 107.8 75.8V14.2C107.8 8.01441 102.786 3 96.6003 3Z" fill="#1A47B8"/>
<path fill-rule="evenodd" clip-rule="evenodd" d="M-9.79965 64.6002H107.8V87.0002H-9.79965V64.6002Z" fill="#F93939"/>
<path fill-rule="evenodd" clip-rule="evenodd" d="M-9.79965 3H107.8V47.8H-9.79965V3Z" fill="#FFDA2C"/>
<path fill-rule="evenodd" clip-rule="evenodd" d="M23.7997 25.4001H40.5997L48.9997 31.0001L57.3997 25.4001H74.1997L57.3997 31.0001L51.7997 36.6001H46.1997L40.5997 31.0001L23.7997 25.4001Z" fill="#151515"/>
<path d="M49.0005 59.0002C53.6396 59.0002 57.4005 53.9858 57.4005 47.8002C57.4005 41.6146 53.6396 36.6002 49.0005 36.6002C44.3613 36.6002 40.6005 41.6146 40.6005 47.8002C40.6005 53.9858 44.3613 59.0002 49.0005 59.0002Z" fill="#3ECBF8"/>
<path fill-rule="evenodd" clip-rule="evenodd" d="M35.0004 42.2001V53.4001L46.2004 59.0001H51.8004L63.0004 53.4001V42.2001L68.6004 53.4001L63.0004 59.0001L51.8004 64.6001H46.2004L35.0004 59.0001L29.4004 53.4001L35.0004 42.2001Z" fill="#FFDA2C"/>
</g>
</g>
<defs>
<filter id="filter0_dd_1104_22165" x="0.142858" y="0.714286" width="97.7143" height="97.7143" filterUnits="userSpaceOnUse" color-interpolation-filters="sRGB">
<feFlood flood-opacity="0" result="BackgroundImageFix"/>
<feColorMatrix in="SourceAlpha" type="matrix" values="0 0 0 0 0 0 0 0 0 0 0 0 0 0 0 0 0 0 127 0" result="hardAlpha"/>
<feOffset dy="4.57143"/>
<feGaussianBlur stdDeviation="3.42857"/>
<feComposite in2="hardAlpha" operator="out"/>
<feColorMatrix type="matrix" values="0 0 0 0 0.258824 0 0 0 0 0.278431 0 0 0 0 0.298039 0 0 0 0.08 0"/>
<feBlend mode="normal" in2="BackgroundImageFix" result="effect1_dropShadow_1104_22165"/>
<feColorMatrix in="SourceAlpha" type="matrix" values="0 0 0 0 0 0 0 0 0 0 0 0 0 0 0 0 0 0 127 0" result="hardAlpha"/>
<feOffset/>
<feGaussianBlur stdDeviation="0.285714"/>
<feComposite in2="hardAlpha" operator="out"/>
<feColorMatrix type="matrix" values="0 0 0 0 0.258824 0 0 0 0 0.278431 0 0 0 0 0.298039 0 0 0 0.32 0"/>
<feBlend mode="normal" in2="effect1_dropShadow_1104_22165" result="effect2_dropShadow_1104_22165"/>
<feBlend mode="normal" in="SourceGraphic" in2="effect2_dropShadow_1104_22165" result="shape"/>
</filter>
<clipPath id="clip0_1104_22165">
<rect x="7" y="3" width="84" height="84" rx="42" fill="white"/>
</clipPath>
</defs>
</svg>
