<svg width="98" height="99" viewBox="0 0 98 99" fill="none" xmlns="http://www.w3.org/2000/svg">
<g filter="url(#filter0_dd_1104_22015)">
<g clip-path="url(#clip0_1104_22015)">
<rect x="7" y="3" width="84" height="84" rx="42" fill="white"/>
<path fill-rule="evenodd" clip-rule="evenodd" d="M-9.80078 59H107.799V87H-9.80078V59ZM-9.80078 3H107.799V31H-9.80078V3Z" fill="#1A47B8"/>
<path d="M48.9996 53.4002C53.6388 53.4002 57.3996 49.6394 57.3996 45.0002C57.3996 40.361 53.6388 36.6002 48.9996 36.6002C44.3604 36.6002 40.5996 40.361 40.5996 45.0002C40.5996 49.6394 44.3604 53.4002 48.9996 53.4002Z" fill="#1A47B8"/>
<path d="M48.9989 47.8001C50.5453 47.8001 51.7989 46.5465 51.7989 45.0001C51.7989 43.4537 50.5453 42.2001 48.9989 42.2001C47.4525 42.2001 46.1989 43.4537 46.1989 45.0001C46.1989 46.5465 47.4525 47.8001 48.9989 47.8001Z" fill="#FFDA2C"/>
<path fill-rule="evenodd" clip-rule="evenodd" d="M34.9989 42.2001L40.5989 47.8001L48.9989 53.4001L57.3989 47.8001L62.9989 42.2001L57.3989 53.4001H40.5989L34.9989 42.2001Z" fill="#249F58"/>
</g>
</g>
<defs>
<filter id="filter0_dd_1104_22015" x="0.142858" y="0.714286" width="97.7143" height="97.7143" filterUnits="userSpaceOnUse" color-interpolation-filters="sRGB">
<feFlood flood-opacity="0" result="BackgroundImageFix"/>
<feColorMatrix in="SourceAlpha" type="matrix" values="0 0 0 0 0 0 0 0 0 0 0 0 0 0 0 0 0 0 127 0" result="hardAlpha"/>
<feOffset dy="4.57143"/>
<feGaussianBlur stdDeviation="3.42857"/>
<feComposite in2="hardAlpha" operator="out"/>
<feColorMatrix type="matrix" values="0 0 0 0 0.258824 0 0 0 0 0.278431 0 0 0 0 0.298039 0 0 0 0.08 0"/>
<feBlend mode="normal" in2="BackgroundImageFix" result="effect1_dropShadow_1104_22015"/>
<feColorMatrix in="SourceAlpha" type="matrix" values="0 0 0 0 0 0 0 0 0 0 0 0 0 0 0 0 0 0 127 0" result="hardAlpha"/>
<feOffset/>
<feGaussianBlur stdDeviation="0.285714"/>
<feComposite in2="hardAlpha" operator="out"/>
<feColorMatrix type="matrix" values="0 0 0 0 0.258824 0 0 0 0 0.278431 0 0 0 0 0.298039 0 0 0 0.32 0"/>
<feBlend mode="normal" in2="effect1_dropShadow_1104_22015" result="effect2_dropShadow_1104_22015"/>
<feBlend mode="normal" in="SourceGraphic" in2="effect2_dropShadow_1104_22015" result="shape"/>
</filter>
<clipPath id="clip0_1104_22015">
<rect x="7" y="3" width="84" height="84" rx="42" fill="white"/>
</clipPath>
</defs>
</svg>
