<svg width="98" height="99" viewBox="0 0 98 99" fill="none" xmlns="http://www.w3.org/2000/svg">
<g filter="url(#filter0_dd_1104_22674)">
<g clip-path="url(#clip0_1104_22674)">
<rect x="7" y="3" width="84" height="84" rx="42" fill="white"/>
<path fill-rule="evenodd" clip-rule="evenodd" d="M-9.7998 59H107.8V87H-9.7998V59Z" fill="#F93939"/>
<path fill-rule="evenodd" clip-rule="evenodd" d="M-9.7998 3H107.8V31H-9.7998V3Z" fill="#00B731"/>
<path fill-rule="evenodd" clip-rule="evenodd" d="M49.0001 42.2002C50.5457 42.2002 51.8001 40.9458 51.8001 39.4002C51.8001 37.8546 50.5457 36.6002 49.0001 36.6002C47.4545 36.6002 46.2001 37.8546 46.2001 39.4002C46.2001 40.9458 47.4545 42.2002 49.0001 42.2002ZM60.2001 42.2002C61.7457 42.2002 63.0001 40.9458 63.0001 39.4002C63.0001 37.8546 61.7457 36.6002 60.2001 36.6002C58.6545 36.6002 57.4001 37.8546 57.4001 39.4002C57.4001 40.9458 58.6545 42.2002 60.2001 42.2002ZM71.4001 42.2002C72.9457 42.2002 74.2001 40.9458 74.2001 39.4002C74.2001 37.8546 72.9457 36.6002 71.4001 36.6002C69.8545 36.6002 68.6 37.8546 68.6 39.4002C68.6 40.9458 69.8545 42.2002 71.4001 42.2002Z" fill="#FFDA2C"/>
<path fill-rule="evenodd" clip-rule="evenodd" d="M54.5997 47.8001C56.1453 47.8001 57.3997 46.5457 57.3997 45.0001C57.3997 43.4545 56.1453 42.2001 54.5997 42.2001C53.0541 42.2001 51.7997 43.4545 51.7997 45.0001C51.7997 46.5457 53.0541 47.8001 54.5997 47.8001ZM65.7997 47.8001C67.3453 47.8001 68.5997 46.5457 68.5997 45.0001C68.5997 43.4545 67.3453 42.2001 65.7997 42.2001C64.2541 42.2001 62.9997 43.4545 62.9997 45.0001C62.9997 46.5457 64.2541 47.8001 65.7997 47.8001Z" fill="#00B731"/>
<path fill-rule="evenodd" clip-rule="evenodd" d="M57.4002 42.2001H63.0002V53.4001H57.4002V42.2001Z" fill="#AE6A3E"/>
<path fill-rule="evenodd" clip-rule="evenodd" d="M1.39941 3V87.1848L40.5994 45L1.39941 3Z" fill="#3A99FF"/>
</g>
</g>
<defs>
<filter id="filter0_dd_1104_22674" x="0.142858" y="0.714286" width="97.7143" height="97.7143" filterUnits="userSpaceOnUse" color-interpolation-filters="sRGB">
<feFlood flood-opacity="0" result="BackgroundImageFix"/>
<feColorMatrix in="SourceAlpha" type="matrix" values="0 0 0 0 0 0 0 0 0 0 0 0 0 0 0 0 0 0 127 0" result="hardAlpha"/>
<feOffset dy="4.57143"/>
<feGaussianBlur stdDeviation="3.42857"/>
<feComposite in2="hardAlpha" operator="out"/>
<feColorMatrix type="matrix" values="0 0 0 0 0.258824 0 0 0 0 0.278431 0 0 0 0 0.298039 0 0 0 0.08 0"/>
<feBlend mode="normal" in2="BackgroundImageFix" result="effect1_dropShadow_1104_22674"/>
<feColorMatrix in="SourceAlpha" type="matrix" values="0 0 0 0 0 0 0 0 0 0 0 0 0 0 0 0 0 0 127 0" result="hardAlpha"/>
<feOffset/>
<feGaussianBlur stdDeviation="0.285714"/>
<feComposite in2="hardAlpha" operator="out"/>
<feColorMatrix type="matrix" values="0 0 0 0 0.258824 0 0 0 0 0.278431 0 0 0 0 0.298039 0 0 0 0.32 0"/>
<feBlend mode="normal" in2="effect1_dropShadow_1104_22674" result="effect2_dropShadow_1104_22674"/>
<feBlend mode="normal" in="SourceGraphic" in2="effect2_dropShadow_1104_22674" result="shape"/>
</filter>
<clipPath id="clip0_1104_22674">
<rect x="7" y="3" width="84" height="84" rx="42" fill="white"/>
</clipPath>
</defs>
</svg>
