<svg width="98" height="99" viewBox="0 0 98 99" fill="none" xmlns="http://www.w3.org/2000/svg">
<g filter="url(#filter0_dd_1401_3712)">
<rect x="7" y="3" width="84" height="84" rx="42" fill="#003399"/>
<path fill-rule="evenodd" clip-rule="evenodd" d="M48.3617 19.9473L49.2267 21.7965L51.1355 22.0649L49.7635 23.4966L50.0916 25.5247L48.3617 24.5703L46.6318 25.5247L46.9599 23.4966L45.5879 22.0649L47.4968 21.7965L48.3617 19.9473Z" fill="#FFCC00"/>
<path d="M48.3617 19.9473L49.2267 21.7965L51.1355 22.0649L49.7635 23.4966L50.0916 25.5247L48.3617 24.5703L46.6318 25.5247L46.9599 23.4966L45.5879 22.0649L47.4968 21.7965L48.3617 19.9473Z" stroke="#FFCC00" stroke-width="1.65249" stroke-linecap="round" stroke-linejoin="round"/>
<path fill-rule="evenodd" clip-rule="evenodd" d="M59.4887 22.7207L60.3536 24.5699L62.2923 24.8682L60.8905 26.27L61.2186 28.2982L59.4887 27.3438L57.7886 28.2982L58.1167 26.27L56.7148 24.8682L58.6535 24.5699L59.4887 22.7207Z" fill="#FFCC00"/>
<path d="M59.4887 22.7207L60.3536 24.5699L62.2923 24.8682L60.8905 26.27L61.2186 28.2982L59.4887 27.3438L57.7886 28.2982L58.1167 26.27L56.7148 24.8682L58.6535 24.5699L59.4887 22.7207Z" stroke="#FFCC00" stroke-width="1.65249" stroke-linecap="round" stroke-linejoin="round"/>
<path fill-rule="evenodd" clip-rule="evenodd" d="M37.2431 22.7207L38.0782 24.5699L40.0169 24.8682L38.6151 26.27L38.9432 28.2982L37.2431 27.3438L35.5132 28.2982L35.8413 26.27L34.4395 24.8682L36.3781 24.5699L37.2431 22.7207Z" fill="#FFCC00"/>
<path d="M37.2431 22.7207L38.0782 24.5699L40.0169 24.8682L38.6151 26.27L38.9432 28.2982L37.2431 27.3438L35.5132 28.2982L35.8413 26.27L34.4395 24.8682L36.3781 24.5699L37.2431 22.7207Z" stroke="#FFCC00" stroke-width="1.65249" stroke-linecap="round" stroke-linejoin="round"/>
<path fill-rule="evenodd" clip-rule="evenodd" d="M67.8422 31.0742L68.7071 32.9234L70.6458 33.2217L69.244 34.6235L69.5721 36.6517L67.8422 35.6973L66.1421 36.6517L66.4702 34.6235L65.0684 33.2217L67.0071 32.9234L67.8422 31.0742Z" fill="#FFCC00"/>
<path d="M67.8422 31.0742L68.7071 32.9234L70.6458 33.2217L69.244 34.6235L69.5721 36.6517L67.8422 35.6973L66.1421 36.6517L66.4702 34.6235L65.0684 33.2217L67.0071 32.9234L67.8422 31.0742Z" stroke="#FFCC00" stroke-width="1.65249" stroke-linecap="round" stroke-linejoin="round"/>
<path fill-rule="evenodd" clip-rule="evenodd" d="M28.8896 31.0742L29.7247 32.9234L31.6634 33.2217L30.2616 34.6235L30.5897 36.6517L28.8896 35.6973L27.1597 36.6517L27.4878 34.6235L26.0859 33.2217L28.0246 32.9234L28.8896 31.0742Z" fill="#FFCC00"/>
<path d="M28.8896 31.0742L29.7247 32.9234L31.6634 33.2217L30.2616 34.6235L30.5897 36.6517L28.8896 35.6973L27.1597 36.6517L27.4878 34.6235L26.0859 33.2217L28.0246 32.9234L28.8896 31.0742Z" stroke="#FFCC00" stroke-width="1.65249" stroke-linecap="round" stroke-linejoin="round"/>
<path fill-rule="evenodd" clip-rule="evenodd" d="M67.8422 53.3535L68.7071 55.1729L70.6458 55.4712L69.244 56.9028L69.5721 58.931L67.8422 57.9766L66.1421 58.931L66.4702 56.9028L65.0684 55.4712L67.0071 55.1729L67.8422 53.3535Z" fill="#FFCC00"/>
<path d="M67.8422 53.3535L68.7071 55.1729L70.6458 55.4712L69.244 56.9028L69.5721 58.931L67.8422 57.9766L66.1421 58.931L66.4702 56.9028L65.0684 55.4712L67.0071 55.1729L67.8422 53.3535Z" stroke="#FFCC00" stroke-width="1.65249" stroke-linecap="round" stroke-linejoin="round"/>
<path fill-rule="evenodd" clip-rule="evenodd" d="M28.8896 53.3535L29.7247 55.1729L31.6634 55.4712L30.2616 56.9028L30.5897 58.931L28.8896 57.9766L27.1597 58.931L27.4878 56.9028L26.0859 55.4712L28.0246 55.1729L28.8896 53.3535Z" fill="#FFCC00"/>
<path d="M28.8896 53.3535L29.7247 55.1729L31.6634 55.4712L30.2616 56.9028L30.5897 58.931L28.8896 57.9766L27.1597 58.931L27.4878 56.9028L26.0859 55.4712L28.0246 55.1729L28.8896 53.3535Z" stroke="#FFCC00" stroke-width="1.65249" stroke-linecap="round" stroke-linejoin="round"/>
<path fill-rule="evenodd" clip-rule="evenodd" d="M59.4887 61.7041L60.3536 63.5235L62.2923 63.8218L60.8905 65.2534L61.2186 67.2816L59.4887 66.3272L57.7886 67.2816L58.1167 65.2534L56.7148 63.8218L58.6535 63.5235L59.4887 61.7041Z" fill="#FFCC00"/>
<path d="M59.4887 61.7041L60.3536 63.5235L62.2923 63.8218L60.8905 65.2534L61.2186 67.2816L59.4887 66.3272L57.7886 67.2816L58.1167 65.2534L56.7148 63.8218L58.6535 63.5235L59.4887 61.7041Z" stroke="#FFCC00" stroke-width="1.65249" stroke-linecap="round" stroke-linejoin="round"/>
<path fill-rule="evenodd" clip-rule="evenodd" d="M37.2431 61.7041L38.0782 63.5235L40.0169 63.8218L38.6151 65.2534L38.9432 67.2816L37.2431 66.3272L35.5132 67.2816L35.8413 65.2534L34.4395 63.8218L36.3781 63.5235L37.2431 61.7041Z" fill="#FFCC00"/>
<path d="M37.2431 61.7041L38.0782 63.5235L40.0169 63.8218L38.6151 65.2534L38.9432 67.2816L37.2431 66.3272L35.5132 67.2816L35.8413 65.2534L34.4395 63.8218L36.3781 63.5235L37.2431 61.7041Z" stroke="#FFCC00" stroke-width="1.65249" stroke-linecap="round" stroke-linejoin="round"/>
<path fill-rule="evenodd" clip-rule="evenodd" d="M71.9286 42.2266L72.7638 44.046L74.7025 44.3442L73.3007 45.7759L73.6287 47.7742L71.9286 46.8198L70.1987 47.7742L70.5268 45.7759L69.125 44.3442L71.0637 44.046L71.9286 42.2266Z" fill="#FFCC00"/>
<path d="M71.9286 42.2266L72.7638 44.046L74.7025 44.3442L73.3007 45.7759L73.6287 47.7742L71.9286 46.8198L70.1987 47.7742L70.5268 45.7759L69.125 44.3442L71.0637 44.046L71.9286 42.2266Z" stroke="#FFCC00" stroke-width="1.65249" stroke-linecap="round" stroke-linejoin="round"/>
<path fill-rule="evenodd" clip-rule="evenodd" d="M26.1025 42.2266L26.9674 44.046L28.8763 44.3442L27.4745 45.7759L27.8026 47.7742L26.1025 46.8198L24.3726 47.7742L24.7007 45.7759L23.2988 44.3442L25.2375 44.046L26.1025 42.2266Z" fill="#FFCC00"/>
<path d="M26.1025 42.2266L26.9674 44.046L28.8763 44.3442L27.4745 45.7759L27.8026 47.7742L26.1025 46.8198L24.3726 47.7742L24.7007 45.7759L23.2988 44.3442L25.2375 44.046L26.1025 42.2266Z" stroke="#FFCC00" stroke-width="1.65249" stroke-linecap="round" stroke-linejoin="round"/>
<path fill-rule="evenodd" clip-rule="evenodd" d="M48.3617 64.4766L49.2267 66.3258L51.1355 66.624L49.7635 68.0557L50.0916 70.054L48.3617 69.0996L46.6318 70.054L46.9599 68.0557L45.5879 66.624L47.4968 66.3258L48.3617 64.4766Z" fill="#FFCC00"/>
<path d="M48.3617 64.4766L49.2267 66.3258L51.1355 66.624L49.7635 68.0557L50.0916 70.054L48.3617 69.0996L46.6318 70.054L46.9599 68.0557L45.5879 66.624L47.4968 66.3258L48.3617 64.4766Z" stroke="#FFCC00" stroke-width="1.65249" stroke-linecap="round" stroke-linejoin="round"/>
</g>
<defs>
<filter id="filter0_dd_1401_3712" x="0.142858" y="0.714286" width="97.7143" height="97.7143" filterUnits="userSpaceOnUse" color-interpolation-filters="sRGB">
<feFlood flood-opacity="0" result="BackgroundImageFix"/>
<feColorMatrix in="SourceAlpha" type="matrix" values="0 0 0 0 0 0 0 0 0 0 0 0 0 0 0 0 0 0 127 0" result="hardAlpha"/>
<feOffset dy="4.57143"/>
<feGaussianBlur stdDeviation="3.42857"/>
<feComposite in2="hardAlpha" operator="out"/>
<feColorMatrix type="matrix" values="0 0 0 0 0.258824 0 0 0 0 0.278431 0 0 0 0 0.298039 0 0 0 0.08 0"/>
<feBlend mode="normal" in2="BackgroundImageFix" result="effect1_dropShadow_1401_3712"/>
<feColorMatrix in="SourceAlpha" type="matrix" values="0 0 0 0 0 0 0 0 0 0 0 0 0 0 0 0 0 0 127 0" result="hardAlpha"/>
<feOffset/>
<feGaussianBlur stdDeviation="0.285714"/>
<feComposite in2="hardAlpha" operator="out"/>
<feColorMatrix type="matrix" values="0 0 0 0 0.258824 0 0 0 0 0.278431 0 0 0 0 0.298039 0 0 0 0.32 0"/>
<feBlend mode="normal" in2="effect1_dropShadow_1401_3712" result="effect2_dropShadow_1401_3712"/>
<feBlend mode="normal" in="SourceGraphic" in2="effect2_dropShadow_1401_3712" result="shape"/>
</filter>
</defs>
</svg>
