<svg width="98" height="99" viewBox="0 0 98 99" fill="none" xmlns="http://www.w3.org/2000/svg">
<g filter="url(#filter0_dd_1104_22622)">
<g clip-path="url(#clip0_1104_22622)">
<rect x="7" y="3" width="84" height="84" rx="42" fill="white"/>
<path fill-rule="evenodd" clip-rule="evenodd" d="M6.99805 3H29.398V25.4H6.99805V3ZM40.598 3H62.998V25.4H40.598V3ZM6.99805 36.6H29.398V59H6.99805V36.6ZM40.598 36.6H62.998V59H40.598V36.6ZM62.998 3H124.598V14.2H62.998V3ZM62.998 25.4H124.598V36.6H62.998V25.4Z" fill="#1A47B8"/>
<path fill-rule="evenodd" clip-rule="evenodd" d="M6.99805 47.7999H124.598V58.9999L6.99805 59V47.7999ZM29.398 47.7999H40.598V59H29.398V47.7999ZM6.99805 70.1999H124.598V81.3999H6.99805V70.1999Z" fill="#1A47B8"/>
</g>
</g>
<defs>
<filter id="filter0_dd_1104_22622" x="0.142858" y="0.714286" width="97.7143" height="97.7143" filterUnits="userSpaceOnUse" color-interpolation-filters="sRGB">
<feFlood flood-opacity="0" result="BackgroundImageFix"/>
<feColorMatrix in="SourceAlpha" type="matrix" values="0 0 0 0 0 0 0 0 0 0 0 0 0 0 0 0 0 0 127 0" result="hardAlpha"/>
<feOffset dy="4.57143"/>
<feGaussianBlur stdDeviation="3.42857"/>
<feComposite in2="hardAlpha" operator="out"/>
<feColorMatrix type="matrix" values="0 0 0 0 0.258824 0 0 0 0 0.278431 0 0 0 0 0.298039 0 0 0 0.08 0"/>
<feBlend mode="normal" in2="BackgroundImageFix" result="effect1_dropShadow_1104_22622"/>
<feColorMatrix in="SourceAlpha" type="matrix" values="0 0 0 0 0 0 0 0 0 0 0 0 0 0 0 0 0 0 127 0" result="hardAlpha"/>
<feOffset/>
<feGaussianBlur stdDeviation="0.285714"/>
<feComposite in2="hardAlpha" operator="out"/>
<feColorMatrix type="matrix" values="0 0 0 0 0.258824 0 0 0 0 0.278431 0 0 0 0 0.298039 0 0 0 0.32 0"/>
<feBlend mode="normal" in2="effect1_dropShadow_1104_22622" result="effect2_dropShadow_1104_22622"/>
<feBlend mode="normal" in="SourceGraphic" in2="effect2_dropShadow_1104_22622" result="shape"/>
</filter>
<clipPath id="clip0_1104_22622">
<rect x="7" y="3" width="84" height="84" rx="42" fill="white"/>
</clipPath>
</defs>
</svg>
