<svg width="98" height="99" viewBox="0 0 98 99" fill="none" xmlns="http://www.w3.org/2000/svg">
<g filter="url(#filter0_dd_1104_22189)">
<g clip-path="url(#clip0_1104_22189)">
<rect x="7" y="3" width="84" height="84" rx="42" fill="#F93939"/>
<path fill-rule="evenodd" clip-rule="evenodd" d="M-9.80078 3H107.799V47.8H-9.80078V3Z" fill="#1A47B8"/>
<path fill-rule="evenodd" clip-rule="evenodd" d="M23.7985 31H70.4652V59H23.7985V31Z" fill="white"/>
<path fill-rule="evenodd" clip-rule="evenodd" d="M42.4632 40.3331H51.7965V58.9997H42.4632V40.3331Z" fill="#FFDA2C"/>
<path fill-rule="evenodd" clip-rule="evenodd" d="M33.1338 45C33.1338 37.272 39.3498 31 47.1338 31C54.8618 31 61.1338 37.216 61.1338 45V59H33.1338V45ZM42.4671 45.0467C42.4671 42.4333 44.6325 40.3333 47.1338 40.3333C49.7098 40.3333 51.8005 42.3307 51.8005 45.0467V59H42.4671V45.0467Z" fill="#249F58"/>
</g>
</g>
<defs>
<filter id="filter0_dd_1104_22189" x="0.142858" y="0.714286" width="97.7143" height="97.7143" filterUnits="userSpaceOnUse" color-interpolation-filters="sRGB">
<feFlood flood-opacity="0" result="BackgroundImageFix"/>
<feColorMatrix in="SourceAlpha" type="matrix" values="0 0 0 0 0 0 0 0 0 0 0 0 0 0 0 0 0 0 127 0" result="hardAlpha"/>
<feOffset dy="4.57143"/>
<feGaussianBlur stdDeviation="3.42857"/>
<feComposite in2="hardAlpha" operator="out"/>
<feColorMatrix type="matrix" values="0 0 0 0 0.258824 0 0 0 0 0.278431 0 0 0 0 0.298039 0 0 0 0.08 0"/>
<feBlend mode="normal" in2="BackgroundImageFix" result="effect1_dropShadow_1104_22189"/>
<feColorMatrix in="SourceAlpha" type="matrix" values="0 0 0 0 0 0 0 0 0 0 0 0 0 0 0 0 0 0 127 0" result="hardAlpha"/>
<feOffset/>
<feGaussianBlur stdDeviation="0.285714"/>
<feComposite in2="hardAlpha" operator="out"/>
<feColorMatrix type="matrix" values="0 0 0 0 0.258824 0 0 0 0 0.278431 0 0 0 0 0.298039 0 0 0 0.32 0"/>
<feBlend mode="normal" in2="effect1_dropShadow_1104_22189" result="effect2_dropShadow_1104_22189"/>
<feBlend mode="normal" in="SourceGraphic" in2="effect2_dropShadow_1104_22189" result="shape"/>
</filter>
<clipPath id="clip0_1104_22189">
<rect x="7" y="3" width="84" height="84" rx="42" fill="white"/>
</clipPath>
</defs>
</svg>
