<svg width="98" height="99" viewBox="0 0 98 99" fill="none" xmlns="http://www.w3.org/2000/svg">
<g filter="url(#filter0_dd_1104_22876)">
<g clip-path="url(#clip0_1104_22876)">
<rect x="7" y="3" width="84" height="84" rx="42" fill="white"/>
<path fill-rule="evenodd" clip-rule="evenodd" d="M48.9989 59C56.7269 59 62.9989 52.728 62.9989 45C62.9989 37.272 56.7269 31 48.9989 31C41.2709 31 34.9989 37.272 34.9989 45C34.9989 52.728 41.2709 59 48.9989 59ZM48.9989 53.4C53.6357 53.4 57.3989 49.6368 57.3989 45C57.3989 40.3632 53.6357 36.6 48.9989 36.6C44.3621 36.6 40.5989 40.3632 40.5989 45C40.5989 49.6368 44.3621 53.4 48.9989 53.4Z" fill="#1A47B8"/>
<path d="M48.9989 47.8001C50.5453 47.8001 51.7989 46.5465 51.7989 45.0001C51.7989 43.4537 50.5453 42.2001 48.9989 42.2001C47.4525 42.2001 46.1989 43.4537 46.1989 45.0001C46.1989 46.5465 47.4525 47.8001 48.9989 47.8001Z" fill="#1A47B8"/>
<path fill-rule="evenodd" clip-rule="evenodd" d="M-9.80078 59H107.799V87H-9.80078V59Z" fill="#249F58"/>
<path fill-rule="evenodd" clip-rule="evenodd" d="M-9.80078 3H107.799V31H-9.80078V3Z" fill="#FF6C2D"/>
</g>
</g>
<defs>
<filter id="filter0_dd_1104_22876" x="0.142858" y="0.714286" width="97.7143" height="97.7143" filterUnits="userSpaceOnUse" color-interpolation-filters="sRGB">
<feFlood flood-opacity="0" result="BackgroundImageFix"/>
<feColorMatrix in="SourceAlpha" type="matrix" values="0 0 0 0 0 0 0 0 0 0 0 0 0 0 0 0 0 0 127 0" result="hardAlpha"/>
<feOffset dy="4.57143"/>
<feGaussianBlur stdDeviation="3.42857"/>
<feComposite in2="hardAlpha" operator="out"/>
<feColorMatrix type="matrix" values="0 0 0 0 0.258824 0 0 0 0 0.278431 0 0 0 0 0.298039 0 0 0 0.08 0"/>
<feBlend mode="normal" in2="BackgroundImageFix" result="effect1_dropShadow_1104_22876"/>
<feColorMatrix in="SourceAlpha" type="matrix" values="0 0 0 0 0 0 0 0 0 0 0 0 0 0 0 0 0 0 127 0" result="hardAlpha"/>
<feOffset/>
<feGaussianBlur stdDeviation="0.285714"/>
<feComposite in2="hardAlpha" operator="out"/>
<feColorMatrix type="matrix" values="0 0 0 0 0.258824 0 0 0 0 0.278431 0 0 0 0 0.298039 0 0 0 0.32 0"/>
<feBlend mode="normal" in2="effect1_dropShadow_1104_22876" result="effect2_dropShadow_1104_22876"/>
<feBlend mode="normal" in="SourceGraphic" in2="effect2_dropShadow_1104_22876" result="shape"/>
</filter>
<clipPath id="clip0_1104_22876">
<rect x="7" y="3" width="84" height="84" rx="42" fill="white"/>
</clipPath>
</defs>
</svg>
