<svg width="98" height="99" viewBox="0 0 98 99" fill="none" xmlns="http://www.w3.org/2000/svg">
<g filter="url(#filter0_dd_1104_22301)">
<g clip-path="url(#clip0_1104_22301)">
<rect x="7" y="3" width="84" height="84" rx="42" fill="white"/>
<path fill-rule="evenodd" clip-rule="evenodd" d="M48.9989 53.3999C56.7269 53.3999 62.9989 49.6367 62.9989 44.9999C62.9989 40.3631 56.7269 36.5999 48.9989 36.5999C41.2709 36.5999 34.9989 40.3631 34.9989 44.9999C34.9989 49.6367 41.2709 53.3999 48.9989 53.3999ZM48.9989 49.1999C53.6357 49.1999 57.3989 46.3775 57.3989 42.8999C57.3989 39.4279 53.6357 36.5999 48.9989 36.5999C44.3621 36.5999 40.5989 39.4223 40.5989 42.8999C40.5989 46.3719 44.3621 49.1999 48.9989 49.1999Z" fill="#F93939"/>
<path d="M48.9989 47.7999C50.5453 47.7999 51.7989 45.2927 51.7989 42.1999C51.7989 39.1071 50.5453 36.5999 48.9989 36.5999C47.4525 36.5999 46.1989 39.1071 46.1989 42.1999C46.1989 45.2927 47.4525 47.7999 48.9989 47.7999Z" fill="#AF010D"/>
<path fill-rule="evenodd" clip-rule="evenodd" d="M-9.80078 59H107.799V87H-9.80078V59Z" fill="#F93939"/>
<path fill-rule="evenodd" clip-rule="evenodd" d="M-9.80078 3H107.799V31H-9.80078V3Z" fill="#00B731"/>
</g>
</g>
<defs>
<filter id="filter0_dd_1104_22301" x="0.142858" y="0.714286" width="97.7143" height="97.7143" filterUnits="userSpaceOnUse" color-interpolation-filters="sRGB">
<feFlood flood-opacity="0" result="BackgroundImageFix"/>
<feColorMatrix in="SourceAlpha" type="matrix" values="0 0 0 0 0 0 0 0 0 0 0 0 0 0 0 0 0 0 127 0" result="hardAlpha"/>
<feOffset dy="4.57143"/>
<feGaussianBlur stdDeviation="3.42857"/>
<feComposite in2="hardAlpha" operator="out"/>
<feColorMatrix type="matrix" values="0 0 0 0 0.258824 0 0 0 0 0.278431 0 0 0 0 0.298039 0 0 0 0.08 0"/>
<feBlend mode="normal" in2="BackgroundImageFix" result="effect1_dropShadow_1104_22301"/>
<feColorMatrix in="SourceAlpha" type="matrix" values="0 0 0 0 0 0 0 0 0 0 0 0 0 0 0 0 0 0 127 0" result="hardAlpha"/>
<feOffset/>
<feGaussianBlur stdDeviation="0.285714"/>
<feComposite in2="hardAlpha" operator="out"/>
<feColorMatrix type="matrix" values="0 0 0 0 0.258824 0 0 0 0 0.278431 0 0 0 0 0.298039 0 0 0 0.32 0"/>
<feBlend mode="normal" in2="effect1_dropShadow_1104_22301" result="effect2_dropShadow_1104_22301"/>
<feBlend mode="normal" in="SourceGraphic" in2="effect2_dropShadow_1104_22301" result="shape"/>
</filter>
<clipPath id="clip0_1104_22301">
<rect x="7" y="3" width="84" height="84" rx="42" fill="white"/>
</clipPath>
</defs>
</svg>
