<svg width="98" height="99" viewBox="0 0 98 99" fill="none" xmlns="http://www.w3.org/2000/svg">
<g filter="url(#filter0_dd_1104_21585)">
<g clip-path="url(#clip0_1104_21585)">
<rect x="7" y="3" width="84" height="84" rx="42" fill="white"/>
<path fill-rule="evenodd" clip-rule="evenodd" d="M-9.80078 64.5992H107.799V75.7992H-9.80078V64.5992ZM-9.80078 14.1992H107.799V25.3992H-9.80078V14.1992ZM45.4992 53.3992H34.9992L40.252 44.9992L34.9992 36.5992H45.4992L48.9992 30.9992L52.4992 36.5992H62.9992L57.7464 44.9992L62.9992 53.3992H52.4992L48.9992 58.9992L45.4992 53.3992ZM43.3992 44.9992L48.9992 39.3992L54.5992 44.9992L48.9992 50.5992L43.3992 44.9992Z" fill="#1A47B8"/>
</g>
</g>
<defs>
<filter id="filter0_dd_1104_21585" x="0.142858" y="0.714286" width="97.7143" height="97.7143" filterUnits="userSpaceOnUse" color-interpolation-filters="sRGB">
<feFlood flood-opacity="0" result="BackgroundImageFix"/>
<feColorMatrix in="SourceAlpha" type="matrix" values="0 0 0 0 0 0 0 0 0 0 0 0 0 0 0 0 0 0 127 0" result="hardAlpha"/>
<feOffset dy="4.57143"/>
<feGaussianBlur stdDeviation="3.42857"/>
<feComposite in2="hardAlpha" operator="out"/>
<feColorMatrix type="matrix" values="0 0 0 0 0.258824 0 0 0 0 0.278431 0 0 0 0 0.298039 0 0 0 0.08 0"/>
<feBlend mode="normal" in2="BackgroundImageFix" result="effect1_dropShadow_1104_21585"/>
<feColorMatrix in="SourceAlpha" type="matrix" values="0 0 0 0 0 0 0 0 0 0 0 0 0 0 0 0 0 0 127 0" result="hardAlpha"/>
<feOffset/>
<feGaussianBlur stdDeviation="0.285714"/>
<feComposite in2="hardAlpha" operator="out"/>
<feColorMatrix type="matrix" values="0 0 0 0 0.258824 0 0 0 0 0.278431 0 0 0 0 0.298039 0 0 0 0.32 0"/>
<feBlend mode="normal" in2="effect1_dropShadow_1104_21585" result="effect2_dropShadow_1104_21585"/>
<feBlend mode="normal" in="SourceGraphic" in2="effect2_dropShadow_1104_21585" result="shape"/>
</filter>
<clipPath id="clip0_1104_21585">
<rect x="7" y="3" width="84" height="84" rx="42" fill="white"/>
</clipPath>
</defs>
</svg>
