<svg width="98" height="99" viewBox="0 0 98 99" fill="none" xmlns="http://www.w3.org/2000/svg">
<g filter="url(#filter0_dd_1104_22788)">
<rect x="7" y="3" width="84" height="84" rx="42" fill="#03BCDB"/>
<path fill-rule="evenodd" clip-rule="evenodd" d="M12.6016 16.9712C12.6016 15.4424 13.9008 14.1992 15.4016 14.1992C16.9472 14.1992 18.2016 15.4088 18.2016 16.9712V28.2272C18.2016 29.756 16.9024 30.9992 15.4016 30.9992C13.856 30.9992 12.6016 29.7896 12.6016 28.2272V16.9712ZM18.2016 28.1712C18.2016 26.6424 19.5008 25.3992 21.0016 25.3992C22.5472 25.3992 23.8016 26.6088 23.8016 28.1712V39.4272C23.8016 40.956 22.5024 42.1992 21.0016 42.1992C19.456 42.1992 18.2016 40.9896 18.2016 39.4272V28.1712ZM18.2016 50.5712C18.2016 49.0424 19.5008 47.7992 21.0016 47.7992C22.5472 47.7992 23.8016 49.0088 23.8016 50.5712V61.8272C23.8016 63.356 22.5024 64.5992 21.0016 64.5992C19.456 64.5992 18.2016 63.3896 18.2016 61.8272V50.5712ZM12.6016 61.7712C12.6016 60.2424 13.9008 58.9992 15.4016 58.9992C16.9472 58.9992 18.2016 60.2088 18.2016 61.7712V73.0272C18.2016 74.556 16.9024 75.7992 15.4016 75.7992C13.856 75.7992 12.6016 74.5896 12.6016 73.0272V61.7712ZM12.6016 39.3992C12.6016 37.8536 13.9008 36.5992 15.4016 36.5992C16.9472 36.5992 18.2016 37.8984 18.2016 39.3992C18.2016 40.9448 16.9024 42.1992 15.4016 42.1992C13.856 42.1992 12.6016 40.9 12.6016 39.3992ZM18.2016 16.9992C18.2016 15.4536 19.5008 14.1992 21.0016 14.1992C22.5472 14.1992 23.8016 15.4984 23.8016 16.9992C23.8016 18.5448 22.5024 19.7992 21.0016 19.7992C19.456 19.7992 18.2016 18.5 18.2016 16.9992ZM12.6016 44.9992C12.6016 43.4536 13.9008 42.1992 15.4016 42.1992C16.9472 42.1992 18.2016 43.4984 18.2016 44.9992C18.2016 46.5448 16.9024 47.7992 15.4016 47.7992C13.856 47.7992 12.6016 46.5 12.6016 44.9992ZM18.2016 72.9992C18.2016 71.4536 19.5008 70.1992 21.0016 70.1992C22.5472 70.1992 23.8016 71.4984 23.8016 72.9992C23.8016 74.5448 22.5024 75.7992 21.0016 75.7992C19.456 75.7992 18.2016 74.5 18.2016 72.9992ZM12.6016 50.5992C12.6016 49.0536 13.9008 47.7992 15.4016 47.7992C16.9472 47.7992 18.2016 49.0984 18.2016 50.5992C18.2016 52.1448 16.9024 53.3992 15.4016 53.3992C13.856 53.3992 12.6016 52.1 12.6016 50.5992Z" fill="#FFDA2C"/>
<path d="M65.8016 53.399C73.5336 53.399 79.8016 47.131 79.8016 39.399C79.8016 31.667 73.5336 25.399 65.8016 25.399C58.0696 25.399 51.8016 31.667 51.8016 39.399C51.8016 47.131 58.0696 53.399 65.8016 53.399Z" fill="#FFDA2C"/>
<path fill-rule="evenodd" clip-rule="evenodd" d="M46.202 42.1992L51.802 53.3992L65.802 58.9992L79.802 53.3992L85.402 42.1992V58.9992L65.802 64.5992L46.202 58.9992V42.1992Z" fill="#FFDA2C"/>
</g>
<defs>
<filter id="filter0_dd_1104_22788" x="0.142858" y="0.714286" width="97.7143" height="97.7143" filterUnits="userSpaceOnUse" color-interpolation-filters="sRGB">
<feFlood flood-opacity="0" result="BackgroundImageFix"/>
<feColorMatrix in="SourceAlpha" type="matrix" values="0 0 0 0 0 0 0 0 0 0 0 0 0 0 0 0 0 0 127 0" result="hardAlpha"/>
<feOffset dy="4.57143"/>
<feGaussianBlur stdDeviation="3.42857"/>
<feComposite in2="hardAlpha" operator="out"/>
<feColorMatrix type="matrix" values="0 0 0 0 0.258824 0 0 0 0 0.278431 0 0 0 0 0.298039 0 0 0 0.08 0"/>
<feBlend mode="normal" in2="BackgroundImageFix" result="effect1_dropShadow_1104_22788"/>
<feColorMatrix in="SourceAlpha" type="matrix" values="0 0 0 0 0 0 0 0 0 0 0 0 0 0 0 0 0 0 127 0" result="hardAlpha"/>
<feOffset/>
<feGaussianBlur stdDeviation="0.285714"/>
<feComposite in2="hardAlpha" operator="out"/>
<feColorMatrix type="matrix" values="0 0 0 0 0.258824 0 0 0 0 0.278431 0 0 0 0 0.298039 0 0 0 0.32 0"/>
<feBlend mode="normal" in2="effect1_dropShadow_1104_22788" result="effect2_dropShadow_1104_22788"/>
<feBlend mode="normal" in="SourceGraphic" in2="effect2_dropShadow_1104_22788" result="shape"/>
</filter>
</defs>
</svg>
