<svg width="98" height="99" viewBox="0 0 98 99" fill="none" xmlns="http://www.w3.org/2000/svg">
<g filter="url(#filter0_dd_1104_22842)">
<g clip-path="url(#clip0_1104_22842)">
<rect x="7" y="3" width="84" height="84" rx="42" fill="#F93939"/>
<path d="M48.9993 64.599C59.8241 64.599 68.5993 55.8238 68.5993 44.999C68.5993 34.1742 59.8241 25.399 48.9993 25.399C38.1745 25.399 29.3993 34.1742 29.3993 44.999C29.3993 55.8238 38.1745 64.599 48.9993 64.599Z" fill="#FFDA2C"/>
<path fill-rule="evenodd" clip-rule="evenodd" d="M-9.80078 47.7991H107.799V86.9991H-9.80078V47.7991Z" fill="#232C80"/>
<path fill-rule="evenodd" clip-rule="evenodd" d="M-9.80078 47.7991H107.799V53.3991H-9.80078V47.7991ZM-9.80078 58.9991H107.799V64.5991H-9.80078V58.9991ZM-9.80078 70.1991H107.799V75.7991H-9.80078V70.1991Z" fill="white"/>
<path fill-rule="evenodd" clip-rule="evenodd" d="M34.9997 14.1992L48.9997 19.7992L62.9997 14.1992H34.9997Z" fill="#FFDA2C"/>
</g>
</g>
<defs>
<filter id="filter0_dd_1104_22842" x="0.142858" y="0.714286" width="97.7143" height="97.7143" filterUnits="userSpaceOnUse" color-interpolation-filters="sRGB">
<feFlood flood-opacity="0" result="BackgroundImageFix"/>
<feColorMatrix in="SourceAlpha" type="matrix" values="0 0 0 0 0 0 0 0 0 0 0 0 0 0 0 0 0 0 127 0" result="hardAlpha"/>
<feOffset dy="4.57143"/>
<feGaussianBlur stdDeviation="3.42857"/>
<feComposite in2="hardAlpha" operator="out"/>
<feColorMatrix type="matrix" values="0 0 0 0 0.258824 0 0 0 0 0.278431 0 0 0 0 0.298039 0 0 0 0.08 0"/>
<feBlend mode="normal" in2="BackgroundImageFix" result="effect1_dropShadow_1104_22842"/>
<feColorMatrix in="SourceAlpha" type="matrix" values="0 0 0 0 0 0 0 0 0 0 0 0 0 0 0 0 0 0 127 0" result="hardAlpha"/>
<feOffset/>
<feGaussianBlur stdDeviation="0.285714"/>
<feComposite in2="hardAlpha" operator="out"/>
<feColorMatrix type="matrix" values="0 0 0 0 0.258824 0 0 0 0 0.278431 0 0 0 0 0.298039 0 0 0 0.32 0"/>
<feBlend mode="normal" in2="effect1_dropShadow_1104_22842" result="effect2_dropShadow_1104_22842"/>
<feBlend mode="normal" in="SourceGraphic" in2="effect2_dropShadow_1104_22842" result="shape"/>
</filter>
<clipPath id="clip0_1104_22842">
<rect x="7" y="3" width="84" height="84" rx="42" fill="white"/>
</clipPath>
</defs>
</svg>
