<svg width="98" height="99" viewBox="0 0 98 99" fill="none" xmlns="http://www.w3.org/2000/svg">
<g filter="url(#filter0_dd_1104_22645)">
<rect x="7" y="3" width="84" height="84" rx="42" fill="#244AA5"/>
<path d="M55.841 20.1997C55.585 20.1997 55.3601 20.0293 55.2909 19.7828L54.9824 18.6845C54.826 18.1277 54.0362 18.129 53.8816 18.6863L53.5779 19.781C53.5093 20.0284 53.2841 20.1997 53.0273 20.1997H51.8615C51.3284 20.1997 51.0857 20.8652 51.4937 21.2084L52.5755 22.1185C52.7471 22.2629 52.8184 22.4944 52.7578 22.7103L52.382 24.0481C52.2297 24.5903 52.8709 25.0026 53.3011 24.639L54.0608 23.9968C54.2734 23.8171 54.5846 23.8167 54.7976 23.9959L55.5718 24.6473C56.0023 25.0094 56.642 24.5971 56.4899 24.0555L56.112 22.7103C56.0514 22.4944 56.1227 22.2629 56.2943 22.1185L57.3761 21.2084C57.7841 20.8652 57.5414 20.1997 57.0083 20.1997H55.841Z" fill="white"/>
<path d="M65.8015 22.2298C65.5456 22.2298 65.321 22.0597 65.2515 21.8134L64.9432 20.7201C64.7864 20.164 63.9977 20.1653 63.8427 20.7219L63.5392 21.8117C63.4703 22.0588 63.2452 22.2298 62.9887 22.2298H61.8224C61.2893 22.2298 61.0466 22.8953 61.4546 23.2385L62.5364 24.1486C62.7081 24.293 62.7793 24.5245 62.7187 24.7404L62.3429 26.0782C62.1906 26.6204 62.8318 27.0327 63.262 26.6691L64.0218 26.0269C64.2344 25.8471 64.5455 25.8468 64.7585 26.026L65.5328 26.6774C65.9632 27.0395 66.6029 26.6272 66.4508 26.0856L66.0729 24.7404C66.0123 24.5245 66.0836 24.293 66.2552 24.1486L67.3371 23.2385C67.745 22.8953 67.5023 22.2298 66.9692 22.2298H65.8015Z" fill="white"/>
<path d="M75.304 26.2337C75.0475 26.2337 74.8224 26.0627 74.7536 25.8156L74.45 24.7258C74.295 24.1692 73.5064 24.1679 73.3496 24.724L73.0412 25.8174C72.9718 26.0636 72.7471 26.2337 72.4912 26.2337H71.3235C70.7904 26.2337 70.5477 26.8992 70.9557 27.2424L72.0375 28.1525C72.2092 28.2969 72.2804 28.5284 72.2198 28.7443L71.842 30.0895C71.6898 30.6311 72.3295 31.0434 72.76 30.6813L73.5342 30.0299C73.7472 29.8507 74.0584 29.8511 74.271 30.0308L75.0308 30.673C75.4609 31.0366 76.1021 30.6243 75.9498 30.0821L75.574 28.7443C75.5134 28.5284 75.5847 28.2969 75.7563 28.1525L76.8382 27.2424C77.2461 26.8992 77.0034 26.2337 76.4703 26.2337H75.304Z" fill="white"/>
<path d="M45.7245 20.1997C45.4678 20.1997 45.2425 20.0284 45.1739 19.781L44.8702 18.6863C44.7156 18.129 43.9258 18.1277 43.7694 18.6845L43.4609 19.7828C43.3917 20.0293 43.1669 20.1997 42.9108 20.1997H41.7436C41.2104 20.1997 40.9677 20.8652 41.3757 21.2084L42.4575 22.1185C42.6292 22.2629 42.7005 22.4944 42.6398 22.7103L42.262 24.0555C42.1099 24.5971 42.7495 25.0094 43.18 24.6473L43.9542 23.9959C44.1673 23.8167 44.4784 23.8171 44.691 23.9968L45.4508 24.639C45.8809 25.0026 46.5221 24.5903 46.3698 24.0481L45.9941 22.7103C45.9334 22.4944 46.0047 22.2629 46.1763 22.1185L47.2582 21.2084C47.6661 20.8652 47.4234 20.1997 46.8903 20.1997H45.7245Z" fill="white"/>
<path d="M35.7638 22.2298C35.5072 22.2298 35.2821 22.0588 35.2133 21.8117L34.9098 20.7219C34.7547 20.1653 33.9661 20.164 33.8093 20.7201L33.501 21.8134C33.4315 22.0597 33.2068 22.2298 32.951 22.2298H31.7833C31.2501 22.2298 31.0074 22.8953 31.4154 23.2385L32.4973 24.1486C32.6689 24.293 32.7402 24.5245 32.6795 24.7404L32.3017 26.0856C32.1496 26.6272 32.7892 27.0395 33.2197 26.6774L33.994 26.026C34.207 25.8468 34.5181 25.8471 34.7307 26.0269L35.4905 26.6691C35.9207 27.0327 36.5618 26.6204 36.4095 26.0782L36.0338 24.7404C35.9731 24.5245 36.0444 24.293 36.216 24.1486L37.2979 23.2385C37.7059 22.8953 37.4632 22.2298 36.93 22.2298H35.7638Z" fill="white"/>
<path d="M26.2606 26.2337C26.0047 26.2337 25.7801 26.0636 25.7106 25.8173L25.4023 24.724C25.2455 24.1679 24.4568 24.1692 24.3018 24.7258L23.9983 25.8156C23.9294 26.0627 23.7044 26.2337 23.4478 26.2337H22.2816C21.7484 26.2337 21.5057 26.8992 21.9137 27.2424L22.9955 28.1525C23.1672 28.2969 23.2385 28.5284 23.1778 28.7443L22.8021 30.0821C22.6497 30.6243 23.2909 31.0366 23.7211 30.673L24.4809 30.0308C24.6935 29.8511 25.0046 29.8507 25.2176 30.0299L25.9919 30.6813C26.4224 31.0434 27.062 30.6311 26.9099 30.0895L26.5321 28.7443C26.4714 28.5284 26.5427 28.2969 26.7143 28.1525L27.7962 27.2424C28.2041 26.8992 27.9614 26.2337 27.4283 26.2337H26.2606Z" fill="white"/>
<path d="M44.2733 37.4441C43.6656 36.9579 45.2463 35.8692 45.7389 35.6228C46.3148 35.047 47.4656 34.9445 48.2426 35.0222C48.9304 35.0909 49.2614 35.3261 49.0931 36.0553C48.8765 36.9939 48.76 37.6066 49.1988 38.5157C49.756 39.6699 51.0831 40.0445 52.3031 40.2072C53.1091 40.3146 53.9934 40.3642 54.725 40.7454C55.0676 40.9239 55.5926 41.3103 55.5996 41.7353C55.6192 42.9339 55.3939 44.1454 56.652 44.7483C58.1008 45.4425 59.7797 46.6432 60.6164 48.0592C61.2213 49.0828 60.5296 49.8287 60.6164 50.9136C60.6675 51.5521 61.7237 51.9486 62.1734 52.1582C63.9448 52.9837 65.7333 53.8119 67.6227 54.3302C68.2202 54.4941 70.7764 54.6638 70.8231 55.6901C70.8404 56.0726 70.8595 56.4922 70.8134 56.8722C70.743 57.4532 70.4048 57.9596 70.3089 58.5349C70.0015 60.3794 67.3209 60.1546 66.1426 61.2692C65.6277 61.7562 65.6581 62.7156 65.4602 63.3499C65.356 63.6841 65.3424 64.4577 65.095 64.705C64.5697 65.2304 63.6491 65.4707 63.0095 65.8295C62.1131 66.3323 61.242 66.8534 60.5203 67.5931C60.2452 67.875 59.7894 68.509 59.3382 68.3379C58.7072 68.0985 58.0973 67.6307 57.5314 67.2711C56.8459 66.8355 56.0253 67.0827 55.2632 67.2086C54.0842 67.4035 52.9614 67.7816 51.8033 68.0592C50.8041 68.2987 49.8059 68.4363 48.824 68.7464C48.3202 68.9055 47.9794 69.3438 47.5362 69.6065C46.718 70.0913 45.1853 70.5951 44.3358 69.9621C43.6844 69.4768 43.0585 69.1759 42.6779 68.4148C42.5193 68.0975 42.4929 67.719 42.4521 67.372C42.298 66.0624 42.3226 65.0107 41.2411 64.0467C39.2237 62.2486 36.8614 60.8866 34.8499 59.0635C33.5133 57.852 32.2048 56.6204 31.1498 55.1519C30.58 54.3588 30.429 53.8417 30.429 52.903C30.429 52.2756 30.8519 51.9263 31.3612 51.5575C32.323 50.861 33.56 50.7626 34.6577 50.4234C36.4919 49.8567 38.1498 48.8967 39.7951 47.9441L39.862 47.9054C40.8719 47.3207 41.7791 46.6826 42.7116 45.9832C43.544 45.3589 44.0226 44.4059 44.3982 43.4556C44.7409 42.5889 45.1704 41.8133 45.3978 40.904C45.5919 40.1274 46.2337 39.7364 45.8447 38.9097C45.4813 38.1376 44.9264 37.9666 44.2733 37.4441Z" fill="#D0A650"/>
</g>
<defs>
<filter id="filter0_dd_1104_22645" x="0.142858" y="0.714286" width="97.7143" height="97.7143" filterUnits="userSpaceOnUse" color-interpolation-filters="sRGB">
<feFlood flood-opacity="0" result="BackgroundImageFix"/>
<feColorMatrix in="SourceAlpha" type="matrix" values="0 0 0 0 0 0 0 0 0 0 0 0 0 0 0 0 0 0 127 0" result="hardAlpha"/>
<feOffset dy="4.57143"/>
<feGaussianBlur stdDeviation="3.42857"/>
<feComposite in2="hardAlpha" operator="out"/>
<feColorMatrix type="matrix" values="0 0 0 0 0.258824 0 0 0 0 0.278431 0 0 0 0 0.298039 0 0 0 0.08 0"/>
<feBlend mode="normal" in2="BackgroundImageFix" result="effect1_dropShadow_1104_22645"/>
<feColorMatrix in="SourceAlpha" type="matrix" values="0 0 0 0 0 0 0 0 0 0 0 0 0 0 0 0 0 0 127 0" result="hardAlpha"/>
<feOffset/>
<feGaussianBlur stdDeviation="0.285714"/>
<feComposite in2="hardAlpha" operator="out"/>
<feColorMatrix type="matrix" values="0 0 0 0 0.258824 0 0 0 0 0.278431 0 0 0 0 0.298039 0 0 0 0.32 0"/>
<feBlend mode="normal" in2="effect1_dropShadow_1104_22645" result="effect2_dropShadow_1104_22645"/>
<feBlend mode="normal" in="SourceGraphic" in2="effect2_dropShadow_1104_22645" result="shape"/>
</filter>
</defs>
</svg>
