<svg width="98" height="99" viewBox="0 0 98 99" fill="none" xmlns="http://www.w3.org/2000/svg">
<g filter="url(#filter0_dd_1104_21854)">
<rect x="7" y="3" width="84" height="84" rx="42" fill="#F93939"/>
<path fill-rule="evenodd" clip-rule="evenodd" d="M47.3544 56.1168C47.8976 56.1728 48.4464 56.2008 49.0008 56.2008C49.5608 56.2008 50.104 56.1728 50.6472 56.1168L49.0008 52.0008L47.3544 56.1168ZM39.7608 53.0648C36.832 50.7464 35.0008 47.364 35.0008 43.6008C35.0008 39.16 37.5544 35.2568 41.4072 33.0168L46.2008 45.0008L39.7608 53.0648ZM56.5944 33.0168C60.4472 35.2568 63.0008 39.16 63.0008 43.6008C63.0008 47.3696 61.164 50.752 58.2408 53.0648L51.8008 45.0008L56.5944 33.0168ZM56.0344 32.7032C53.9624 31.6168 51.5656 31.0008 49.0008 31.0008C46.436 31.0008 44.0336 31.6168 41.9672 32.7032L49.0008 41.4952L56.0344 32.7032Z" fill="#FFDA2C"/>
<path fill-rule="evenodd" clip-rule="evenodd" d="M49.0008 70.2008C62.9168 70.2008 74.2008 58.9168 74.2008 45.0008C74.2008 31.0848 62.9168 19.8008 49.0008 19.8008C35.0848 19.8008 23.8008 31.0848 23.8008 45.0008C23.8008 58.9168 35.0848 70.2008 49.0008 70.2008ZM49.0008 64.6008C59.8256 64.6008 68.6008 55.8256 68.6008 45.0008C68.6008 34.176 59.8256 25.4008 49.0008 25.4008C38.176 25.4008 29.4008 34.176 29.4008 45.0008C29.4008 55.8256 38.176 64.6008 49.0008 64.6008Z" fill="#FFDA2C"/>
</g>
<defs>
<filter id="filter0_dd_1104_21854" x="0.142858" y="0.714286" width="97.7143" height="97.7143" filterUnits="userSpaceOnUse" color-interpolation-filters="sRGB">
<feFlood flood-opacity="0" result="BackgroundImageFix"/>
<feColorMatrix in="SourceAlpha" type="matrix" values="0 0 0 0 0 0 0 0 0 0 0 0 0 0 0 0 0 0 127 0" result="hardAlpha"/>
<feOffset dy="4.57143"/>
<feGaussianBlur stdDeviation="3.42857"/>
<feComposite in2="hardAlpha" operator="out"/>
<feColorMatrix type="matrix" values="0 0 0 0 0.258824 0 0 0 0 0.278431 0 0 0 0 0.298039 0 0 0 0.08 0"/>
<feBlend mode="normal" in2="BackgroundImageFix" result="effect1_dropShadow_1104_21854"/>
<feColorMatrix in="SourceAlpha" type="matrix" values="0 0 0 0 0 0 0 0 0 0 0 0 0 0 0 0 0 0 127 0" result="hardAlpha"/>
<feOffset/>
<feGaussianBlur stdDeviation="0.285714"/>
<feComposite in2="hardAlpha" operator="out"/>
<feColorMatrix type="matrix" values="0 0 0 0 0.258824 0 0 0 0 0.278431 0 0 0 0 0.298039 0 0 0 0.32 0"/>
<feBlend mode="normal" in2="effect1_dropShadow_1104_21854" result="effect2_dropShadow_1104_21854"/>
<feBlend mode="normal" in="SourceGraphic" in2="effect2_dropShadow_1104_21854" result="shape"/>
</filter>
</defs>
</svg>
