<svg width="98" height="99" viewBox="0 0 98 99" fill="none" xmlns="http://www.w3.org/2000/svg">
<g filter="url(#filter0_dd_1104_21850)">
<g clip-path="url(#clip0_1104_21850)">
<rect x="7" y="3" width="84" height="84" rx="42" fill="#F93939"/>
<path fill-rule="evenodd" clip-rule="evenodd" d="M-9.79883 3H107.801V42.2H-9.79883V3Z" fill="#1A47B8"/>
<path fill-rule="evenodd" clip-rule="evenodd" d="M23.8005 31H46.2005V36.6H23.8005V31Z" fill="#D4AF2C"/>
<path fill-rule="evenodd" clip-rule="evenodd" d="M29.4569 20.5953C27.7321 20.1473 25.7609 19.8001 23.8009 19.8001C18.2009 19.8001 18.2009 22.6001 18.2009 25.4001C18.2009 28.2001 23.8005 31 23.8005 31H46.2005C46.2005 31 51.8009 28.2001 51.8009 25.4001C51.8009 22.6001 51.8009 19.8001 46.2009 19.8001C44.2409 19.8001 42.2697 20.1473 40.5449 20.5953C40.5841 20.3321 40.6009 20.0689 40.6009 19.8001C40.6009 16.7089 38.0921 14.2001 35.0009 14.2001C31.9097 14.2001 29.4009 16.7089 29.4009 19.8001C29.4009 20.0689 29.4177 20.3321 29.4569 20.5953Z" fill="#FFDA2C"/>
</g>
</g>
<defs>
<filter id="filter0_dd_1104_21850" x="0.142858" y="0.714286" width="97.7143" height="97.7143" filterUnits="userSpaceOnUse" color-interpolation-filters="sRGB">
<feFlood flood-opacity="0" result="BackgroundImageFix"/>
<feColorMatrix in="SourceAlpha" type="matrix" values="0 0 0 0 0 0 0 0 0 0 0 0 0 0 0 0 0 0 127 0" result="hardAlpha"/>
<feOffset dy="4.57143"/>
<feGaussianBlur stdDeviation="3.42857"/>
<feComposite in2="hardAlpha" operator="out"/>
<feColorMatrix type="matrix" values="0 0 0 0 0.258824 0 0 0 0 0.278431 0 0 0 0 0.298039 0 0 0 0.08 0"/>
<feBlend mode="normal" in2="BackgroundImageFix" result="effect1_dropShadow_1104_21850"/>
<feColorMatrix in="SourceAlpha" type="matrix" values="0 0 0 0 0 0 0 0 0 0 0 0 0 0 0 0 0 0 127 0" result="hardAlpha"/>
<feOffset/>
<feGaussianBlur stdDeviation="0.285714"/>
<feComposite in2="hardAlpha" operator="out"/>
<feColorMatrix type="matrix" values="0 0 0 0 0.258824 0 0 0 0 0.278431 0 0 0 0 0.298039 0 0 0 0.32 0"/>
<feBlend mode="normal" in2="effect1_dropShadow_1104_21850" result="effect2_dropShadow_1104_21850"/>
<feBlend mode="normal" in="SourceGraphic" in2="effect2_dropShadow_1104_21850" result="shape"/>
</filter>
<clipPath id="clip0_1104_21850">
<rect x="7" y="3" width="84" height="84" rx="42" fill="white"/>
</clipPath>
</defs>
</svg>
