<svg width="98" height="99" viewBox="0 0 98 99" fill="none" xmlns="http://www.w3.org/2000/svg">
<g filter="url(#filter0_dd_1104_21565)">
<g clip-path="url(#clip0_1104_21565)">
<rect x="7" y="3" width="84" height="84" rx="42" fill="white"/>
<path d="M-9.80022 3H107.8V9.03077H-9.80022V3Z" fill="#AF010D"/>
<path d="M-9.80022 15.0614H107.8V21.0922H-9.80022V15.0614Z" fill="#AF010D"/>
<path d="M-9.80022 27.1234H107.8V33.1542H-9.80022V27.1234Z" fill="#AF010D"/>
<path d="M-9.80022 39.1847H107.8V45.2154H-9.80022V39.1847Z" fill="#AF010D"/>
<path d="M-9.80022 51.2461H107.8V57.2768H-9.80022V51.2461Z" fill="#AF010D"/>
<path d="M-9.80022 63.3081H107.8V69.3388H-9.80022V63.3081Z" fill="#AF010D"/>
<path d="M-9.80022 75.3693H107.8V81.4001H-9.80022V75.3693Z" fill="#AF010D"/>
<path fill-rule="evenodd" clip-rule="evenodd" d="M-9.80022 3H51.7992V51.272H-9.80078L-9.80022 3Z" fill="#1A47B8"/>
<path fill-rule="evenodd" clip-rule="evenodd" d="M29.3993 25.4001H34.9993V31.0001H29.3993V25.4001Z" fill="#FFDA2C"/>
<path fill-rule="evenodd" clip-rule="evenodd" d="M32.199 36.6001C29.6454 39.9993 25.5798 42.2001 20.999 42.2001C13.271 42.2001 6.99902 35.9281 6.99902 28.2001C6.99902 20.4721 13.271 14.2001 20.999 14.2001C25.5798 14.2001 29.6454 16.4009 32.199 19.8001H23.799C19.1622 19.8001 15.399 23.5633 15.399 28.2001C15.399 32.8369 19.1622 36.6001 23.799 36.6001H32.199Z" fill="#FFDA2C"/>
</g>
</g>
<defs>
<filter id="filter0_dd_1104_21565" x="0.142858" y="0.714286" width="97.7143" height="97.7143" filterUnits="userSpaceOnUse" color-interpolation-filters="sRGB">
<feFlood flood-opacity="0" result="BackgroundImageFix"/>
<feColorMatrix in="SourceAlpha" type="matrix" values="0 0 0 0 0 0 0 0 0 0 0 0 0 0 0 0 0 0 127 0" result="hardAlpha"/>
<feOffset dy="4.57143"/>
<feGaussianBlur stdDeviation="3.42857"/>
<feComposite in2="hardAlpha" operator="out"/>
<feColorMatrix type="matrix" values="0 0 0 0 0.258824 0 0 0 0 0.278431 0 0 0 0 0.298039 0 0 0 0.08 0"/>
<feBlend mode="normal" in2="BackgroundImageFix" result="effect1_dropShadow_1104_21565"/>
<feColorMatrix in="SourceAlpha" type="matrix" values="0 0 0 0 0 0 0 0 0 0 0 0 0 0 0 0 0 0 127 0" result="hardAlpha"/>
<feOffset/>
<feGaussianBlur stdDeviation="0.285714"/>
<feComposite in2="hardAlpha" operator="out"/>
<feColorMatrix type="matrix" values="0 0 0 0 0.258824 0 0 0 0 0.278431 0 0 0 0 0.298039 0 0 0 0.32 0"/>
<feBlend mode="normal" in2="effect1_dropShadow_1104_21565" result="effect2_dropShadow_1104_21565"/>
<feBlend mode="normal" in="SourceGraphic" in2="effect2_dropShadow_1104_21565" result="shape"/>
</filter>
<clipPath id="clip0_1104_21565">
<rect x="7" y="3" width="84" height="84" rx="42" fill="white"/>
</clipPath>
</defs>
</svg>
