<svg width="98" height="99" viewBox="0 0 98 99" fill="none" xmlns="http://www.w3.org/2000/svg">
<g filter="url(#filter0_dd_1104_22746)">
<g clip-path="url(#clip0_1104_22746)">
<rect x="7" y="3" width="84" height="84" rx="42" fill="white"/>
<path d="M74.2009 3H107.801V87H74.2009V3Z" fill="#F93939"/>
<path d="M-9.80023 3H23.7998V87H-9.80023V3Z" fill="#249F58"/>
<path fill-rule="evenodd" clip-rule="evenodd" d="M62.8922 43.7779C62.9638 44.3504 63.0011 44.9353 63.0011 45.5264C63.0011 53.2575 56.7322 59.5264 49.0011 59.5264C41.27 59.5264 35.0011 53.2575 35.0011 45.5264C35.0011 44.9353 35.0384 44.3504 35.11 43.7748C35.9718 49.1508 41.8611 53.3041 49.0011 53.3041C56.1411 53.3041 62.0304 49.1477 62.8922 43.7748V43.7779Z" fill="#249F58"/>
<path d="M57.4017 39.3997C57.4017 44.0389 53.6409 47.7997 49.0017 47.7997C44.3625 47.7997 40.6017 44.0389 40.6017 39.3997C40.6017 34.7605 44.3625 30.9997 49.0017 30.9997C53.6409 30.9997 57.4017 34.7605 57.4017 39.3997Z" fill="#AE6A3E"/>
</g>
</g>
<defs>
<filter id="filter0_dd_1104_22746" x="0.142858" y="0.714286" width="97.7143" height="97.7143" filterUnits="userSpaceOnUse" color-interpolation-filters="sRGB">
<feFlood flood-opacity="0" result="BackgroundImageFix"/>
<feColorMatrix in="SourceAlpha" type="matrix" values="0 0 0 0 0 0 0 0 0 0 0 0 0 0 0 0 0 0 127 0" result="hardAlpha"/>
<feOffset dy="4.57143"/>
<feGaussianBlur stdDeviation="3.42857"/>
<feComposite in2="hardAlpha" operator="out"/>
<feColorMatrix type="matrix" values="0 0 0 0 0.258824 0 0 0 0 0.278431 0 0 0 0 0.298039 0 0 0 0.08 0"/>
<feBlend mode="normal" in2="BackgroundImageFix" result="effect1_dropShadow_1104_22746"/>
<feColorMatrix in="SourceAlpha" type="matrix" values="0 0 0 0 0 0 0 0 0 0 0 0 0 0 0 0 0 0 127 0" result="hardAlpha"/>
<feOffset/>
<feGaussianBlur stdDeviation="0.285714"/>
<feComposite in2="hardAlpha" operator="out"/>
<feColorMatrix type="matrix" values="0 0 0 0 0.258824 0 0 0 0 0.278431 0 0 0 0 0.298039 0 0 0 0.32 0"/>
<feBlend mode="normal" in2="effect1_dropShadow_1104_22746" result="effect2_dropShadow_1104_22746"/>
<feBlend mode="normal" in="SourceGraphic" in2="effect2_dropShadow_1104_22746" result="shape"/>
</filter>
<clipPath id="clip0_1104_22746">
<rect x="7" y="3" width="84" height="84" rx="42" fill="white"/>
</clipPath>
</defs>
</svg>
