<svg width="98" height="99" viewBox="0 0 98 99" fill="none" xmlns="http://www.w3.org/2000/svg">
<g filter="url(#filter0_dd_1104_22456)">
<rect x="7" y="3" width="84" height="84" rx="42" fill="#3A99FF"/>
<path fill-rule="evenodd" clip-rule="evenodd" d="M46.1992 25.4008H43.3712C41.8032 25.4008 40.5992 26.6552 40.5992 28.2008C40.5992 29.7016 41.8424 31.0008 43.3712 31.0008H46.1992V33.8288C46.1992 35.3968 47.4536 36.6008 48.9992 36.6008C50.5 36.6008 51.7992 35.3576 51.7992 33.8288V31.0008H54.6272C56.1952 31.0008 57.3992 29.7464 57.3992 28.2008C57.3992 26.7 56.156 25.4008 54.6272 25.4008H51.7992V22.5728C51.7992 21.0048 50.5448 19.8008 48.9992 19.8008C47.4984 19.8008 46.1992 21.044 46.1992 22.5728V25.4008ZM68.5992 42.2008H65.7712C64.2032 42.2008 62.9992 43.4552 62.9992 45.0008C62.9992 46.5016 64.2424 47.8008 65.7712 47.8008H68.5992V50.6288C68.5992 52.1968 69.8536 53.4008 71.3992 53.4008C72.9 53.4008 74.1992 52.1576 74.1992 50.6288V47.8008H77.0272C78.5952 47.8008 79.7992 46.5464 79.7992 45.0008C79.7992 43.5 78.556 42.2008 77.0272 42.2008H74.1992V39.3728C74.1992 37.8048 72.9448 36.6008 71.3992 36.6008C69.8984 36.6008 68.5992 37.844 68.5992 39.3728V42.2008ZM46.1992 59.0008H43.3712C41.8032 59.0008 40.5992 60.2552 40.5992 61.8008C40.5992 63.3016 41.8424 64.6008 43.3712 64.6008H46.1992V67.4288C46.1992 68.9968 47.4536 70.2008 48.9992 70.2008C50.5 70.2008 51.7992 68.9576 51.7992 67.4288V64.6008H54.6272C56.1952 64.6008 57.3992 63.3464 57.3992 61.8008C57.3992 60.3 56.156 59.0008 54.6272 59.0008H51.7992V56.1728C51.7992 54.6048 50.5448 53.4008 48.9992 53.4008C47.4984 53.4008 46.1992 54.644 46.1992 56.1728V59.0008ZM23.7992 42.2008H20.9712C19.4032 42.2008 18.1992 43.4552 18.1992 45.0008C18.1992 46.5016 19.4424 47.8008 20.9712 47.8008H23.7992V50.6288C23.7992 52.1968 25.0536 53.4008 26.5992 53.4008C28.1 53.4008 29.3992 52.1576 29.3992 50.6288V47.8008H32.2272C33.7952 47.8008 34.9992 46.5464 34.9992 45.0008C34.9992 43.5 33.756 42.2008 32.2272 42.2008H29.3992V39.3728C29.3992 37.8048 28.1448 36.6008 26.5992 36.6008C25.0984 36.6008 23.7992 37.844 23.7992 39.3728V42.2008Z" fill="white"/>
</g>
<defs>
<filter id="filter0_dd_1104_22456" x="0.142858" y="0.714286" width="97.7143" height="97.7143" filterUnits="userSpaceOnUse" color-interpolation-filters="sRGB">
<feFlood flood-opacity="0" result="BackgroundImageFix"/>
<feColorMatrix in="SourceAlpha" type="matrix" values="0 0 0 0 0 0 0 0 0 0 0 0 0 0 0 0 0 0 127 0" result="hardAlpha"/>
<feOffset dy="4.57143"/>
<feGaussianBlur stdDeviation="3.42857"/>
<feComposite in2="hardAlpha" operator="out"/>
<feColorMatrix type="matrix" values="0 0 0 0 0.258824 0 0 0 0 0.278431 0 0 0 0 0.298039 0 0 0 0.08 0"/>
<feBlend mode="normal" in2="BackgroundImageFix" result="effect1_dropShadow_1104_22456"/>
<feColorMatrix in="SourceAlpha" type="matrix" values="0 0 0 0 0 0 0 0 0 0 0 0 0 0 0 0 0 0 127 0" result="hardAlpha"/>
<feOffset/>
<feGaussianBlur stdDeviation="0.285714"/>
<feComposite in2="hardAlpha" operator="out"/>
<feColorMatrix type="matrix" values="0 0 0 0 0.258824 0 0 0 0 0.278431 0 0 0 0 0.298039 0 0 0 0.32 0"/>
<feBlend mode="normal" in2="effect1_dropShadow_1104_22456" result="effect2_dropShadow_1104_22456"/>
<feBlend mode="normal" in="SourceGraphic" in2="effect2_dropShadow_1104_22456" result="shape"/>
</filter>
</defs>
</svg>
