<svg width="98" height="99" viewBox="0 0 98 99" fill="none" xmlns="http://www.w3.org/2000/svg">
<g filter="url(#filter0_dd_1104_21916)">
<g clip-path="url(#clip0_1104_21916)">
<rect x="7" y="3" width="84" height="84" rx="42" fill="#D4AF2C"/>
<path d="M-4.19922 3H102.201V87H-4.19922V3Z" fill="#AF010D"/>
<path fill-rule="evenodd" clip-rule="evenodd" d="M49.0002 29.7569L42.465 25.4001L38.1138 29.7569H42.465L38.1138 34.1137L29.4002 29.7569V51.5409L42.465 47.1729L38.1138 55.8865H33.757L38.1138 60.2433L42.465 55.8865L49.0002 64.6001V29.7569ZM55.5354 25.4001L59.8867 29.7569H55.5354L59.8867 34.1137L68.6002 29.7569V51.5409L55.5354 47.1729L59.8867 55.8865H64.2434L59.8867 60.2433L55.5354 55.8865L49.0002 64.6001V29.7569L55.5354 25.4001Z" fill="#D4AF2C"/>
<path fill-rule="evenodd" clip-rule="evenodd" d="M40.6004 39.428C40.6004 34.78 44.33 31 49.0004 31C53.6372 31 57.4004 34.7688 57.4004 39.428V37.5072C57.4004 42.1552 54.5556 48.4608 51.1284 51.5184L49.0004 53.4L46.8724 51.5184C43.4172 48.4384 40.6004 42.1664 40.6004 37.5072V39.428Z" fill="#1A47B8"/>
<path fill-rule="evenodd" clip-rule="evenodd" d="M40.6004 36.6002H57.4004V42.2002H40.6004V36.6002Z" fill="#AE6A3E"/>
</g>
</g>
<defs>
<filter id="filter0_dd_1104_21916" x="0.142858" y="0.714286" width="97.7143" height="97.7143" filterUnits="userSpaceOnUse" color-interpolation-filters="sRGB">
<feFlood flood-opacity="0" result="BackgroundImageFix"/>
<feColorMatrix in="SourceAlpha" type="matrix" values="0 0 0 0 0 0 0 0 0 0 0 0 0 0 0 0 0 0 127 0" result="hardAlpha"/>
<feOffset dy="4.57143"/>
<feGaussianBlur stdDeviation="3.42857"/>
<feComposite in2="hardAlpha" operator="out"/>
<feColorMatrix type="matrix" values="0 0 0 0 0.258824 0 0 0 0 0.278431 0 0 0 0 0.298039 0 0 0 0.08 0"/>
<feBlend mode="normal" in2="BackgroundImageFix" result="effect1_dropShadow_1104_21916"/>
<feColorMatrix in="SourceAlpha" type="matrix" values="0 0 0 0 0 0 0 0 0 0 0 0 0 0 0 0 0 0 127 0" result="hardAlpha"/>
<feOffset/>
<feGaussianBlur stdDeviation="0.285714"/>
<feComposite in2="hardAlpha" operator="out"/>
<feColorMatrix type="matrix" values="0 0 0 0 0.258824 0 0 0 0 0.278431 0 0 0 0 0.298039 0 0 0 0.32 0"/>
<feBlend mode="normal" in2="effect1_dropShadow_1104_21916" result="effect2_dropShadow_1104_21916"/>
<feBlend mode="normal" in="SourceGraphic" in2="effect2_dropShadow_1104_21916" result="shape"/>
</filter>
<clipPath id="clip0_1104_21916">
<rect x="7" y="3" width="84" height="84" rx="42" fill="white"/>
</clipPath>
</defs>
</svg>
