<svg width="98" height="99" viewBox="0 0 98 99" fill="none" xmlns="http://www.w3.org/2000/svg">
<g filter="url(#filter0_dd_1104_21955)">
<g clip-path="url(#clip0_1104_21955)">
<rect x="7" y="3" width="84" height="84" rx="42" fill="#151515"/>
<path fill-rule="evenodd" clip-rule="evenodd" d="M-9.7998 59H107.8V87H-9.7998V59Z" fill="#FFDA2C"/>
<path fill-rule="evenodd" clip-rule="evenodd" d="M-9.7998 3H107.8V31H-9.7998V3Z" fill="#249F58"/>
<path opacity="0.35" fill-rule="evenodd" clip-rule="evenodd" d="M-9.7998 3H107.8V31H-9.7998V3Z" fill="#1A47B8"/>
<path fill-rule="evenodd" clip-rule="evenodd" d="M-9.7998 25.4004H107.8V31.0004H-9.7998V25.4004ZM-9.7998 59.0004H107.8V64.6004H-9.7998V59.0004Z" fill="white"/>
<path fill-rule="evenodd" clip-rule="evenodd" d="M1.40039 3V87.1848L57.4004 45L1.40039 3Z" fill="#F93939"/>
<path fill-rule="evenodd" clip-rule="evenodd" d="M20.3168 52L12.0848 56.3288L13.6528 47.1616L7 40.6656L16.2008 39.3384L20.3168 31L24.4272 39.344L33.628 40.6712L26.964 47.1672L28.5432 56.3288" fill="#FFDA2C"/>
<path fill-rule="evenodd" clip-rule="evenodd" d="M14.1699 38.75L16.1523 36.7676L28.0243 48.6508L26.0531 50.6276L14.1699 38.7556V38.75Z" fill="#151515"/>
<path fill-rule="evenodd" clip-rule="evenodd" d="M28.0299 38.75L26.0531 36.7676L14.1699 48.6508L16.1523 50.6276L28.0243 38.7556L28.0299 38.75Z" fill="#151515"/>
</g>
</g>
<defs>
<filter id="filter0_dd_1104_21955" x="0.142858" y="0.714286" width="97.7143" height="97.7143" filterUnits="userSpaceOnUse" color-interpolation-filters="sRGB">
<feFlood flood-opacity="0" result="BackgroundImageFix"/>
<feColorMatrix in="SourceAlpha" type="matrix" values="0 0 0 0 0 0 0 0 0 0 0 0 0 0 0 0 0 0 127 0" result="hardAlpha"/>
<feOffset dy="4.57143"/>
<feGaussianBlur stdDeviation="3.42857"/>
<feComposite in2="hardAlpha" operator="out"/>
<feColorMatrix type="matrix" values="0 0 0 0 0.258824 0 0 0 0 0.278431 0 0 0 0 0.298039 0 0 0 0.08 0"/>
<feBlend mode="normal" in2="BackgroundImageFix" result="effect1_dropShadow_1104_21955"/>
<feColorMatrix in="SourceAlpha" type="matrix" values="0 0 0 0 0 0 0 0 0 0 0 0 0 0 0 0 0 0 127 0" result="hardAlpha"/>
<feOffset/>
<feGaussianBlur stdDeviation="0.285714"/>
<feComposite in2="hardAlpha" operator="out"/>
<feColorMatrix type="matrix" values="0 0 0 0 0.258824 0 0 0 0 0.278431 0 0 0 0 0.298039 0 0 0 0.32 0"/>
<feBlend mode="normal" in2="effect1_dropShadow_1104_21955" result="effect2_dropShadow_1104_21955"/>
<feBlend mode="normal" in="SourceGraphic" in2="effect2_dropShadow_1104_21955" result="shape"/>
</filter>
<clipPath id="clip0_1104_21955">
<rect x="7" y="3" width="84" height="84" rx="42" fill="white"/>
</clipPath>
</defs>
</svg>
