<svg width="98" height="99" viewBox="0 0 98 99" fill="none" xmlns="http://www.w3.org/2000/svg">
<g filter="url(#filter0_dd_1104_22414)">
<g clip-path="url(#clip0_1104_22414)">
<rect x="7" y="3" width="84" height="84" rx="42" fill="#1A47B8"/>
<path fill-rule="evenodd" clip-rule="evenodd" d="M-9.79883 87.0003H107.801V14.2003L-9.79883 75.8003V87.0003Z" fill="#249F58"/>
<path fill-rule="evenodd" clip-rule="evenodd" d="M15.3899 32.2885L7.1579 36.6173L8.7259 27.4501L2.0731 20.9541L11.2739 19.6269L15.3899 11.2829L19.5003 19.6269L28.7011 20.9541L22.0371 27.4501L23.6163 36.6117" fill="#FFDA2C"/>
<path fill-rule="evenodd" clip-rule="evenodd" d="M-9.79883 81.4004L107.801 19.8004V-2.59961L-9.79883 59.0004V81.4004Z" fill="white"/>
<path fill-rule="evenodd" clip-rule="evenodd" d="M-9.79883 92.6004L107.801 31.0004V8.60045L-9.79883 70.2004V92.6004Z" fill="white"/>
<path fill-rule="evenodd" clip-rule="evenodd" d="M-9.79883 87.0003L107.801 25.4003V3.00028L-9.79883 64.6003V87.0003Z" fill="#F93939"/>
</g>
</g>
<defs>
<filter id="filter0_dd_1104_22414" x="0.142858" y="0.714286" width="97.7143" height="97.7143" filterUnits="userSpaceOnUse" color-interpolation-filters="sRGB">
<feFlood flood-opacity="0" result="BackgroundImageFix"/>
<feColorMatrix in="SourceAlpha" type="matrix" values="0 0 0 0 0 0 0 0 0 0 0 0 0 0 0 0 0 0 127 0" result="hardAlpha"/>
<feOffset dy="4.57143"/>
<feGaussianBlur stdDeviation="3.42857"/>
<feComposite in2="hardAlpha" operator="out"/>
<feColorMatrix type="matrix" values="0 0 0 0 0.258824 0 0 0 0 0.278431 0 0 0 0 0.298039 0 0 0 0.08 0"/>
<feBlend mode="normal" in2="BackgroundImageFix" result="effect1_dropShadow_1104_22414"/>
<feColorMatrix in="SourceAlpha" type="matrix" values="0 0 0 0 0 0 0 0 0 0 0 0 0 0 0 0 0 0 127 0" result="hardAlpha"/>
<feOffset/>
<feGaussianBlur stdDeviation="0.285714"/>
<feComposite in2="hardAlpha" operator="out"/>
<feColorMatrix type="matrix" values="0 0 0 0 0.258824 0 0 0 0 0.278431 0 0 0 0 0.298039 0 0 0 0.32 0"/>
<feBlend mode="normal" in2="effect1_dropShadow_1104_22414" result="effect2_dropShadow_1104_22414"/>
<feBlend mode="normal" in="SourceGraphic" in2="effect2_dropShadow_1104_22414" result="shape"/>
</filter>
<clipPath id="clip0_1104_22414">
<rect x="7" y="3" width="84" height="84" rx="42" fill="white"/>
</clipPath>
</defs>
</svg>
