<svg width="98" height="99" viewBox="0 0 98 99" fill="none" xmlns="http://www.w3.org/2000/svg">
<g filter="url(#filter0_dd_1104_21711)">
<g clip-path="url(#clip0_1104_21711)">
<rect x="7" y="3" width="84" height="84" rx="42" fill="#0A6A30"/>
<path d="M102.199 3H6.99883C0.813238 3 -4.20117 8.01441 -4.20117 14.2V75.8C-4.20117 81.9856 0.813238 87 6.99883 87H102.199C108.384 87 113.399 81.9856 113.399 75.8V14.2C113.399 8.01441 108.384 3 102.199 3Z" fill="#0A6A30"/>
<path fill-rule="evenodd" clip-rule="evenodd" d="M79.6536 36.4544C79.284 39.792 78.2312 42.2 76.9992 42.2C75.7672 42.2 74.7144 39.792 74.3448 36.4544C71.0072 36.0848 68.5992 35.032 68.5992 33.8C68.5992 32.568 71.0072 31.5152 74.3448 31.1456C74.7144 27.808 75.7672 25.4 76.9992 25.4C78.2312 25.4 79.284 27.808 79.6536 31.1456C82.9912 31.5152 85.3992 32.568 85.3992 33.8C85.3992 35.032 82.9912 36.0848 79.6536 36.4544ZM-9.80078 3H23.7992V87H-9.80078V3Z" fill="white"/>
<path fill-rule="evenodd" clip-rule="evenodd" d="M90.8316 42.0207C90.9436 43.0007 90.9996 43.9919 90.9996 44.9999C90.9996 58.9159 79.7156 70.1999 65.7996 70.1999C51.8836 70.1999 40.5996 58.9159 40.5996 44.9999C40.5996 31.0839 51.8836 19.7999 65.7996 19.7999C66.8076 19.7999 67.7988 19.8559 68.7788 19.9679C59.1916 21.2559 51.7996 29.4711 51.7996 39.3999C51.7996 50.2247 60.5748 58.9999 71.3996 58.9999C81.334 58.9999 89.5436 51.6079 90.8316 42.0207Z" fill="white"/>
</g>
</g>
<defs>
<filter id="filter0_dd_1104_21711" x="0.142858" y="0.714286" width="97.7143" height="97.7143" filterUnits="userSpaceOnUse" color-interpolation-filters="sRGB">
<feFlood flood-opacity="0" result="BackgroundImageFix"/>
<feColorMatrix in="SourceAlpha" type="matrix" values="0 0 0 0 0 0 0 0 0 0 0 0 0 0 0 0 0 0 127 0" result="hardAlpha"/>
<feOffset dy="4.57143"/>
<feGaussianBlur stdDeviation="3.42857"/>
<feComposite in2="hardAlpha" operator="out"/>
<feColorMatrix type="matrix" values="0 0 0 0 0.258824 0 0 0 0 0.278431 0 0 0 0 0.298039 0 0 0 0.08 0"/>
<feBlend mode="normal" in2="BackgroundImageFix" result="effect1_dropShadow_1104_21711"/>
<feColorMatrix in="SourceAlpha" type="matrix" values="0 0 0 0 0 0 0 0 0 0 0 0 0 0 0 0 0 0 127 0" result="hardAlpha"/>
<feOffset/>
<feGaussianBlur stdDeviation="0.285714"/>
<feComposite in2="hardAlpha" operator="out"/>
<feColorMatrix type="matrix" values="0 0 0 0 0.258824 0 0 0 0 0.278431 0 0 0 0 0.298039 0 0 0 0.32 0"/>
<feBlend mode="normal" in2="effect1_dropShadow_1104_21711" result="effect2_dropShadow_1104_21711"/>
<feBlend mode="normal" in="SourceGraphic" in2="effect2_dropShadow_1104_21711" result="shape"/>
</filter>
<clipPath id="clip0_1104_21711">
<rect x="7" y="3" width="84" height="84" rx="42" fill="white"/>
</clipPath>
</defs>
</svg>
