<svg width="98" height="99" viewBox="0 0 98 99" fill="none" xmlns="http://www.w3.org/2000/svg">
<g filter="url(#filter0_dd_1104_22526)">
<g clip-path="url(#clip0_1104_22526)">
<rect x="7" y="3" width="84" height="84" rx="42" fill="white"/>
<path d="M96.6003 3H1.40032C-4.78527 3 -9.79968 8.01441 -9.79968 14.2V75.8C-9.79968 81.9856 -4.78527 87 1.40032 87H96.6003C102.786 87 107.8 81.9856 107.8 75.8V14.2C107.8 8.01441 102.786 3 96.6003 3Z" fill="white"/>
<path fill-rule="evenodd" clip-rule="evenodd" d="M23.6541 30.8543C23.2845 34.1919 22.2317 36.5999 20.9997 36.5999C19.7677 36.5999 18.7149 34.1919 18.3453 30.8543C15.0077 30.4847 12.5997 29.4319 12.5997 28.1999C12.5997 26.9679 15.0077 25.9151 18.3453 25.5455C18.7149 22.2079 19.7677 19.7999 20.9997 19.7999C22.2317 19.7999 23.2845 22.2079 23.6541 25.5455C26.9917 25.9151 29.3997 26.9679 29.3997 28.1999C29.3997 29.4319 26.9917 30.4847 23.6541 30.8543Z" fill="#1A47B8"/>
<path fill-rule="evenodd" clip-rule="evenodd" d="M79.6548 70.0544C79.2852 73.392 78.2324 75.8 77.0004 75.8C75.7684 75.8 74.7156 73.392 74.346 70.0544C71.0084 69.6848 68.6004 68.632 68.6004 67.4C68.6004 66.168 71.0084 65.1152 74.346 64.7456C74.7156 61.408 75.7628 59 77.0004 59C78.2324 59 79.2852 61.408 79.6548 64.7456C82.9924 65.1152 85.4004 66.1624 85.4004 67.4C85.4004 68.632 82.9924 69.6848 79.6548 70.0544Z" fill="#F93939"/>
<path fill-rule="evenodd" clip-rule="evenodd" d="M-9.79968 47.7999H46.2003V86.9999H-9.79968V47.7999Z" fill="#1A47B8"/>
<path fill-rule="evenodd" clip-rule="evenodd" d="M46.2002 3H107.8V47.8L46.2003 47.7999L46.2002 3Z" fill="#F93939"/>
</g>
</g>
<defs>
<filter id="filter0_dd_1104_22526" x="0.142858" y="0.714286" width="97.7143" height="97.7143" filterUnits="userSpaceOnUse" color-interpolation-filters="sRGB">
<feFlood flood-opacity="0" result="BackgroundImageFix"/>
<feColorMatrix in="SourceAlpha" type="matrix" values="0 0 0 0 0 0 0 0 0 0 0 0 0 0 0 0 0 0 127 0" result="hardAlpha"/>
<feOffset dy="4.57143"/>
<feGaussianBlur stdDeviation="3.42857"/>
<feComposite in2="hardAlpha" operator="out"/>
<feColorMatrix type="matrix" values="0 0 0 0 0.258824 0 0 0 0 0.278431 0 0 0 0 0.298039 0 0 0 0.08 0"/>
<feBlend mode="normal" in2="BackgroundImageFix" result="effect1_dropShadow_1104_22526"/>
<feColorMatrix in="SourceAlpha" type="matrix" values="0 0 0 0 0 0 0 0 0 0 0 0 0 0 0 0 0 0 127 0" result="hardAlpha"/>
<feOffset/>
<feGaussianBlur stdDeviation="0.285714"/>
<feComposite in2="hardAlpha" operator="out"/>
<feColorMatrix type="matrix" values="0 0 0 0 0.258824 0 0 0 0 0.278431 0 0 0 0 0.298039 0 0 0 0.32 0"/>
<feBlend mode="normal" in2="effect1_dropShadow_1104_22526" result="effect2_dropShadow_1104_22526"/>
<feBlend mode="normal" in="SourceGraphic" in2="effect2_dropShadow_1104_22526" result="shape"/>
</filter>
<clipPath id="clip0_1104_22526">
<rect x="7" y="3" width="84" height="84" rx="42" fill="white"/>
</clipPath>
</defs>
</svg>
