<svg width="98" height="99" viewBox="0 0 98 99" fill="none" xmlns="http://www.w3.org/2000/svg">
<g filter="url(#filter0_dd_1104_22520)">
<g clip-path="url(#clip0_1104_22520)">
<rect x="7" y="3" width="84" height="84" rx="42" fill="white"/>
<path fill-rule="evenodd" clip-rule="evenodd" d="M-9.79968 59H107.8V87H-9.79968V59Z" fill="#1A47B8"/>
<path fill-rule="evenodd" clip-rule="evenodd" d="M57.2324 43.3198C57.3444 43.863 57.4004 44.423 57.4004 44.9998C57.4004 49.6366 53.6372 53.3997 49.0004 53.3997C44.3636 53.3997 40.6004 49.6366 40.6004 44.9998C40.6004 44.423 40.6564 43.863 40.7684 43.3198C41.5524 45.8734 44.9348 47.7998 49.0004 47.7998C53.066 47.7998 56.4484 45.8734 57.2324 43.3198Z" fill="#249F58"/>
<path d="M49 42.2C50.5464 42.2 51.8 40.9464 51.8 39.4C51.8 37.8536 50.5464 36.6 49 36.6C47.4536 36.6 46.2 37.8536 46.2 39.4C46.2 40.9464 47.4536 42.2 49 42.2Z" fill="#FFDA2C"/>
<path fill-rule="evenodd" clip-rule="evenodd" d="M-9.79968 3H107.8V31H-9.79968V3Z" fill="#F93939"/>
</g>
</g>
<defs>
<filter id="filter0_dd_1104_22520" x="0.142858" y="0.714286" width="97.7143" height="97.7143" filterUnits="userSpaceOnUse" color-interpolation-filters="sRGB">
<feFlood flood-opacity="0" result="BackgroundImageFix"/>
<feColorMatrix in="SourceAlpha" type="matrix" values="0 0 0 0 0 0 0 0 0 0 0 0 0 0 0 0 0 0 127 0" result="hardAlpha"/>
<feOffset dy="4.57143"/>
<feGaussianBlur stdDeviation="3.42857"/>
<feComposite in2="hardAlpha" operator="out"/>
<feColorMatrix type="matrix" values="0 0 0 0 0.258824 0 0 0 0 0.278431 0 0 0 0 0.298039 0 0 0 0.08 0"/>
<feBlend mode="normal" in2="BackgroundImageFix" result="effect1_dropShadow_1104_22520"/>
<feColorMatrix in="SourceAlpha" type="matrix" values="0 0 0 0 0 0 0 0 0 0 0 0 0 0 0 0 0 0 127 0" result="hardAlpha"/>
<feOffset/>
<feGaussianBlur stdDeviation="0.285714"/>
<feComposite in2="hardAlpha" operator="out"/>
<feColorMatrix type="matrix" values="0 0 0 0 0.258824 0 0 0 0 0.278431 0 0 0 0 0.298039 0 0 0 0.32 0"/>
<feBlend mode="normal" in2="effect1_dropShadow_1104_22520" result="effect2_dropShadow_1104_22520"/>
<feBlend mode="normal" in="SourceGraphic" in2="effect2_dropShadow_1104_22520" result="shape"/>
</filter>
<clipPath id="clip0_1104_22520">
<rect x="7" y="3" width="84" height="84" rx="42" fill="white"/>
</clipPath>
</defs>
</svg>
