<svg width="98" height="99" viewBox="0 0 98 99" fill="none" xmlns="http://www.w3.org/2000/svg">
<g filter="url(#filter0_dd_1104_22504)">
<g clip-path="url(#clip0_1104_22504)">
<rect x="7" y="3" width="84" height="84" rx="42" fill="#F93939"/>
<path d="M96.5992 3H1.39922C-4.78637 3 -9.80078 8.01441 -9.80078 14.2V75.8C-9.80078 81.9856 -4.78637 87 1.39922 87H96.5992C102.785 87 107.799 81.9856 107.799 75.8V14.2C107.799 8.01441 102.785 3 96.5992 3Z" fill="#F93939"/>
<path fill-rule="evenodd" clip-rule="evenodd" d="M-9.80078 3H107.799V47.8H-9.80078V3Z" fill="#1A47B8"/>
<path fill-rule="evenodd" clip-rule="evenodd" d="M-9.80078 3V87.1848L46.1992 45L-9.80078 3Z" fill="white"/>
<path fill-rule="evenodd" clip-rule="evenodd" d="M15.3156 47.7159C20.1876 47.4079 23.7996 46.3159 23.7996 44.9999C23.7996 43.6895 20.1876 42.5919 15.3156 42.2839C15.0076 37.4119 13.9156 33.7999 12.5996 33.7999C11.2892 33.7999 10.1916 37.4119 9.88355 42.2839C5.01155 42.5919 1.39955 43.6839 1.39955 44.9999C1.39955 46.3103 5.01155 47.4079 9.88355 47.7159C10.186 52.5879 11.2836 56.1999 12.5996 56.1999C13.91 56.1999 15.0076 52.5879 15.3156 47.7159Z" fill="#FFDA2C"/>
<path d="M32.1993 47.8001C33.7457 47.8001 34.9993 46.5465 34.9993 45.0001C34.9993 43.4537 33.7457 42.2001 32.1993 42.2001C30.6529 42.2001 29.3993 43.4537 29.3993 45.0001C29.3993 46.5465 30.6529 47.8001 32.1993 47.8001Z" fill="#FFDA2C"/>
<path d="M4.19955 31.0001C5.74595 31.0001 6.99955 29.7465 6.99955 28.2001C6.99955 26.6537 5.74595 25.4001 4.19955 25.4001C2.65316 25.4001 1.39955 26.6537 1.39955 28.2001C1.39955 29.7465 2.65316 31.0001 4.19955 31.0001Z" fill="#FFDA2C"/>
<path d="M4.19955 64.6C5.74595 64.6 6.99955 63.3464 6.99955 61.8C6.99955 60.2536 5.74595 59 4.19955 59C2.65316 59 1.39955 60.2536 1.39955 61.8C1.39955 63.3464 2.65316 64.6 4.19955 64.6Z" fill="#FFDA2C"/>
</g>
</g>
<defs>
<filter id="filter0_dd_1104_22504" x="0.142858" y="0.714286" width="97.7143" height="97.7143" filterUnits="userSpaceOnUse" color-interpolation-filters="sRGB">
<feFlood flood-opacity="0" result="BackgroundImageFix"/>
<feColorMatrix in="SourceAlpha" type="matrix" values="0 0 0 0 0 0 0 0 0 0 0 0 0 0 0 0 0 0 127 0" result="hardAlpha"/>
<feOffset dy="4.57143"/>
<feGaussianBlur stdDeviation="3.42857"/>
<feComposite in2="hardAlpha" operator="out"/>
<feColorMatrix type="matrix" values="0 0 0 0 0.258824 0 0 0 0 0.278431 0 0 0 0 0.298039 0 0 0 0.08 0"/>
<feBlend mode="normal" in2="BackgroundImageFix" result="effect1_dropShadow_1104_22504"/>
<feColorMatrix in="SourceAlpha" type="matrix" values="0 0 0 0 0 0 0 0 0 0 0 0 0 0 0 0 0 0 127 0" result="hardAlpha"/>
<feOffset/>
<feGaussianBlur stdDeviation="0.285714"/>
<feComposite in2="hardAlpha" operator="out"/>
<feColorMatrix type="matrix" values="0 0 0 0 0.258824 0 0 0 0 0.278431 0 0 0 0 0.298039 0 0 0 0.32 0"/>
<feBlend mode="normal" in2="effect1_dropShadow_1104_22504" result="effect2_dropShadow_1104_22504"/>
<feBlend mode="normal" in="SourceGraphic" in2="effect2_dropShadow_1104_22504" result="shape"/>
</filter>
<clipPath id="clip0_1104_22504">
<rect x="7" y="3" width="84" height="84" rx="42" fill="white"/>
</clipPath>
</defs>
</svg>
