<svg width="98" height="99" viewBox="0 0 98 99" fill="none" xmlns="http://www.w3.org/2000/svg">
<g filter="url(#filter0_dd_1104_22179)">
<g clip-path="url(#clip0_1104_22179)">
<rect x="7" y="3" width="84" height="84" rx="42" fill="#F93939"/>
<path fill-rule="evenodd" clip-rule="evenodd" d="M-4.19922 3H35.0008V87H-4.19922V3Z" fill="#249F58"/>
<path d="M35.0012 59.0001C44.2796 59.0001 51.8012 51.4785 51.8012 42.2001C51.8012 32.9217 44.2796 25.4001 35.0012 25.4001C25.7228 25.4001 18.2012 32.9217 18.2012 42.2001C18.2012 51.4785 25.7228 59.0001 35.0012 59.0001Z" fill="#FFDA2C"/>
<path fill-rule="evenodd" clip-rule="evenodd" d="M46.2008 47.7999V30.9999H23.8008V47.7999C23.8008 50.8911 28.8128 53.3999 35.0008 53.3999C41.1888 53.3999 46.2008 50.8911 46.2008 47.7999Z" fill="#F93939"/>
<path fill-rule="evenodd" clip-rule="evenodd" d="M29.4004 36.6H40.6004V47.8H29.4004V36.6Z" fill="white"/>
<path fill-rule="evenodd" clip-rule="evenodd" d="M29.4004 36.6H35.0004V42.2H29.4004V36.6ZM35.0004 42.2H40.6004V47.8H35.0004V42.2Z" fill="#1A47B8"/>
</g>
</g>
<defs>
<filter id="filter0_dd_1104_22179" x="0.142858" y="0.714286" width="97.7143" height="97.7143" filterUnits="userSpaceOnUse" color-interpolation-filters="sRGB">
<feFlood flood-opacity="0" result="BackgroundImageFix"/>
<feColorMatrix in="SourceAlpha" type="matrix" values="0 0 0 0 0 0 0 0 0 0 0 0 0 0 0 0 0 0 127 0" result="hardAlpha"/>
<feOffset dy="4.57143"/>
<feGaussianBlur stdDeviation="3.42857"/>
<feComposite in2="hardAlpha" operator="out"/>
<feColorMatrix type="matrix" values="0 0 0 0 0.258824 0 0 0 0 0.278431 0 0 0 0 0.298039 0 0 0 0.08 0"/>
<feBlend mode="normal" in2="BackgroundImageFix" result="effect1_dropShadow_1104_22179"/>
<feColorMatrix in="SourceAlpha" type="matrix" values="0 0 0 0 0 0 0 0 0 0 0 0 0 0 0 0 0 0 127 0" result="hardAlpha"/>
<feOffset/>
<feGaussianBlur stdDeviation="0.285714"/>
<feComposite in2="hardAlpha" operator="out"/>
<feColorMatrix type="matrix" values="0 0 0 0 0.258824 0 0 0 0 0.278431 0 0 0 0 0.298039 0 0 0 0.32 0"/>
<feBlend mode="normal" in2="effect1_dropShadow_1104_22179" result="effect2_dropShadow_1104_22179"/>
<feBlend mode="normal" in="SourceGraphic" in2="effect2_dropShadow_1104_22179" result="shape"/>
</filter>
<clipPath id="clip0_1104_22179">
<rect x="7" y="3" width="84" height="84" rx="42" fill="white"/>
</clipPath>
</defs>
</svg>
