<svg width="98" height="99" viewBox="0 0 98 99" fill="none" xmlns="http://www.w3.org/2000/svg">
<g filter="url(#filter0_dd_1104_22496)">
<rect x="7" y="3" width="84" height="84" rx="42" fill="#F93939"/>
<path fill-rule="evenodd" clip-rule="evenodd" d="M68.6128 51.4518L62.1056 54.8678L63.3488 47.627L58.0848 42.4918L65.3648 41.4278L68.6128 34.8422L71.8608 41.4334L79.1408 42.4974L73.8768 47.6214L75.12 54.8622" fill="white"/>
<path fill-rule="evenodd" clip-rule="evenodd" d="M43.4008 64.6004C54.2256 64.6004 63.0008 55.8252 63.0008 45.0004C63.0008 34.1756 54.2256 25.4004 43.4008 25.4004C32.576 25.4004 23.8008 34.1756 23.8008 45.0004C23.8008 55.8252 32.576 64.6004 43.4008 64.6004ZM49.0008 59.0004C56.7288 59.0004 63.0008 52.7284 63.0008 45.0004C63.0008 37.2724 56.7288 31.0004 49.0008 31.0004C41.2728 31.0004 35.0008 37.2724 35.0008 45.0004C35.0008 52.7284 41.2728 59.0004 49.0008 59.0004Z" fill="white"/>
</g>
<defs>
<filter id="filter0_dd_1104_22496" x="0.142858" y="0.714286" width="97.7143" height="97.7143" filterUnits="userSpaceOnUse" color-interpolation-filters="sRGB">
<feFlood flood-opacity="0" result="BackgroundImageFix"/>
<feColorMatrix in="SourceAlpha" type="matrix" values="0 0 0 0 0 0 0 0 0 0 0 0 0 0 0 0 0 0 127 0" result="hardAlpha"/>
<feOffset dy="4.57143"/>
<feGaussianBlur stdDeviation="3.42857"/>
<feComposite in2="hardAlpha" operator="out"/>
<feColorMatrix type="matrix" values="0 0 0 0 0.258824 0 0 0 0 0.278431 0 0 0 0 0.298039 0 0 0 0.08 0"/>
<feBlend mode="normal" in2="BackgroundImageFix" result="effect1_dropShadow_1104_22496"/>
<feColorMatrix in="SourceAlpha" type="matrix" values="0 0 0 0 0 0 0 0 0 0 0 0 0 0 0 0 0 0 127 0" result="hardAlpha"/>
<feOffset/>
<feGaussianBlur stdDeviation="0.285714"/>
<feComposite in2="hardAlpha" operator="out"/>
<feColorMatrix type="matrix" values="0 0 0 0 0.258824 0 0 0 0 0.278431 0 0 0 0 0.298039 0 0 0 0.32 0"/>
<feBlend mode="normal" in2="effect1_dropShadow_1104_22496" result="effect2_dropShadow_1104_22496"/>
<feBlend mode="normal" in="SourceGraphic" in2="effect2_dropShadow_1104_22496" result="shape"/>
</filter>
</defs>
</svg>
