<svg width="98" height="99" viewBox="0 0 98 99" fill="none" xmlns="http://www.w3.org/2000/svg">
<g filter="url(#filter0_dd_1104_21991)">
<g clip-path="url(#clip0_1104_21991)">
<rect x="7" y="3" width="84" height="84" rx="42" fill="#F93939"/>
<path d="M83 3H15C10.5817 3 7 8.01441 7 14.2V75.8C7 81.9856 10.5817 87 15 87H83C87.4183 87 91 81.9856 91 75.8V14.2C91 8.01441 87.4183 3 83 3Z" fill="#F93939"/>
<path fill-rule="evenodd" clip-rule="evenodd" d="M7 3H51V47.8H7V3Z" fill="#232C80"/>
<path fill-rule="evenodd" clip-rule="evenodd" d="M27.0011 14.2001H31.0011V19.8001H27.0011V14.2001ZM35.0011 19.8001H39.0011V25.4001H35.0011V19.8001ZM31.0011 25.4001H35.0011V31.0001H31.0011V25.4001ZM27.0011 31.0001H31.0011V36.6001H27.0011V31.0001ZM23.0011 19.8001H27.0011V25.4001H23.0011V19.8001Z" fill="white"/>
</g>
</g>
<defs>
<filter id="filter0_dd_1104_21991" x="0.142858" y="0.714286" width="97.7143" height="97.7143" filterUnits="userSpaceOnUse" color-interpolation-filters="sRGB">
<feFlood flood-opacity="0" result="BackgroundImageFix"/>
<feColorMatrix in="SourceAlpha" type="matrix" values="0 0 0 0 0 0 0 0 0 0 0 0 0 0 0 0 0 0 127 0" result="hardAlpha"/>
<feOffset dy="4.57143"/>
<feGaussianBlur stdDeviation="3.42857"/>
<feComposite in2="hardAlpha" operator="out"/>
<feColorMatrix type="matrix" values="0 0 0 0 0.258824 0 0 0 0 0.278431 0 0 0 0 0.298039 0 0 0 0.08 0"/>
<feBlend mode="normal" in2="BackgroundImageFix" result="effect1_dropShadow_1104_21991"/>
<feColorMatrix in="SourceAlpha" type="matrix" values="0 0 0 0 0 0 0 0 0 0 0 0 0 0 0 0 0 0 127 0" result="hardAlpha"/>
<feOffset/>
<feGaussianBlur stdDeviation="0.285714"/>
<feComposite in2="hardAlpha" operator="out"/>
<feColorMatrix type="matrix" values="0 0 0 0 0.258824 0 0 0 0 0.278431 0 0 0 0 0.298039 0 0 0 0.32 0"/>
<feBlend mode="normal" in2="effect1_dropShadow_1104_21991" result="effect2_dropShadow_1104_21991"/>
<feBlend mode="normal" in="SourceGraphic" in2="effect2_dropShadow_1104_21991" result="shape"/>
</filter>
<clipPath id="clip0_1104_21991">
<rect x="7" y="3" width="84" height="84" rx="42" fill="white"/>
</clipPath>
</defs>
</svg>
