<svg width="98" height="99" viewBox="0 0 98 99" fill="none" xmlns="http://www.w3.org/2000/svg">
<g filter="url(#filter0_dd_1104_22310)">
<g clip-path="url(#clip0_1104_22310)">
<rect x="7" y="3" width="84" height="84" rx="42" fill="white"/>
<path fill-rule="evenodd" clip-rule="evenodd" d="M-9.80273 42.1992H107.797V86.9992H-9.80273V42.1992Z" fill="#3A99FF"/>
<path opacity="0.2" fill-rule="evenodd" clip-rule="evenodd" d="M-9.80273 42.1992H107.797V86.9992H-9.80273V42.1992Z" fill="white"/>
<path fill-rule="evenodd" clip-rule="evenodd" d="M34.998 25.4004H62.998V31.0004L48.998 36.6004L34.998 31.0004V25.4004Z" fill="#D4AF2C"/>
<path fill-rule="evenodd" clip-rule="evenodd" d="M62.998 50.5996C62.998 42.8716 56.726 36.5996 48.998 36.5996C41.27 36.5996 34.998 42.8716 34.998 50.5996C34.998 58.3276 41.27 64.5996 48.998 64.5996C56.726 64.5996 62.998 58.3276 62.998 50.5996ZM48.998 58.9996C53.6348 58.9996 57.398 53.9876 57.398 47.7996C57.398 41.6116 53.6348 36.5996 48.998 36.5996C44.3612 36.5996 40.598 41.6116 40.598 47.7996C40.598 53.9876 44.3612 58.9996 48.998 58.9996Z" fill="#249F58"/>
<path d="M48.9992 53.3992C50.5456 53.3992 51.7992 50.892 51.7992 47.7992C51.7992 44.7064 50.5456 42.1992 48.9992 42.1992C47.4528 42.1992 46.1992 44.7064 46.1992 47.7992C46.1992 50.892 47.4528 53.3992 48.9992 53.3992Z" fill="#D4AF2C"/>
</g>
</g>
<defs>
<filter id="filter0_dd_1104_22310" x="0.142858" y="0.714286" width="97.7143" height="97.7143" filterUnits="userSpaceOnUse" color-interpolation-filters="sRGB">
<feFlood flood-opacity="0" result="BackgroundImageFix"/>
<feColorMatrix in="SourceAlpha" type="matrix" values="0 0 0 0 0 0 0 0 0 0 0 0 0 0 0 0 0 0 127 0" result="hardAlpha"/>
<feOffset dy="4.57143"/>
<feGaussianBlur stdDeviation="3.42857"/>
<feComposite in2="hardAlpha" operator="out"/>
<feColorMatrix type="matrix" values="0 0 0 0 0.258824 0 0 0 0 0.278431 0 0 0 0 0.298039 0 0 0 0.08 0"/>
<feBlend mode="normal" in2="BackgroundImageFix" result="effect1_dropShadow_1104_22310"/>
<feColorMatrix in="SourceAlpha" type="matrix" values="0 0 0 0 0 0 0 0 0 0 0 0 0 0 0 0 0 0 127 0" result="hardAlpha"/>
<feOffset/>
<feGaussianBlur stdDeviation="0.285714"/>
<feComposite in2="hardAlpha" operator="out"/>
<feColorMatrix type="matrix" values="0 0 0 0 0.258824 0 0 0 0 0.278431 0 0 0 0 0.298039 0 0 0 0.32 0"/>
<feBlend mode="normal" in2="effect1_dropShadow_1104_22310" result="effect2_dropShadow_1104_22310"/>
<feBlend mode="normal" in="SourceGraphic" in2="effect2_dropShadow_1104_22310" result="shape"/>
</filter>
<clipPath id="clip0_1104_22310">
<rect x="7" y="3" width="84" height="84" rx="42" fill="white"/>
</clipPath>
</defs>
</svg>
