<svg width="98" height="99" viewBox="0 0 98 99" fill="none" xmlns="http://www.w3.org/2000/svg">
<g filter="url(#filter0_dd_1104_22378)">
<rect x="7" y="3" width="84" height="84" rx="42" fill="#249F58"/>
<path fill-rule="evenodd" clip-rule="evenodd" d="M79.7969 58.9994V53.3994H18.1969L29.3969 58.9994H62.9969C62.9969 62.0906 66.7601 64.5994 71.3969 64.5994C76.0337 64.5994 79.7969 62.0906 79.7969 58.9994ZM39.0849 24.873C39.0177 24.873 38.9169 24.9066 38.7881 24.985C38.4857 25.1866 37.8921 25.8082 37.8697 26.525C37.8529 26.9338 37.7745 26.9338 38.0377 27.197C38.2281 27.4658 38.4297 27.4434 38.8105 27.2362C39.0345 27.0682 39.1073 26.973 39.1857 26.6986C39.2753 26.2506 38.6985 26.9226 38.6257 26.4074C38.4969 25.937 38.8665 25.7354 39.2137 25.2874C39.2249 25.0634 39.2249 24.8954 39.0849 24.8842V24.873ZM44.7017 24.901C44.5897 24.9234 44.4609 25.069 44.2761 25.3938C44.1473 25.741 43.5817 26.2674 43.9961 27.3538C44.3209 28.0426 44.4609 29.157 44.3097 30.4058C44.0745 30.7586 44.0297 30.8818 43.7217 31.2346C43.2961 31.6994 42.8257 31.5818 42.4785 31.4026C42.1425 31.1786 41.8849 31.0666 41.7337 30.361C41.7617 29.241 41.8289 27.3818 41.6217 26.9898C41.3193 26.385 40.8153 26.5978 40.6025 26.7826C39.5777 27.7346 39.0681 29.3194 38.7545 30.5906C38.4745 31.509 38.1665 31.2402 37.9537 30.8706C37.4329 30.3778 37.3937 26.5586 36.7665 27.1914C35.7585 30.0698 37.3433 33.2226 38.4465 32.9146C39.2305 33.2506 39.7345 31.7386 40.0593 30.0866C40.2833 29.6218 40.4513 29.5658 40.5633 29.8066C40.5353 32.0018 40.7313 32.4946 41.2913 33.1554C42.5457 34.1298 43.5873 33.2786 43.6713 33.2002L44.6513 32.2258C44.8753 32.0018 45.1553 31.9794 45.4633 32.181C45.7657 32.461 45.7265 32.9258 46.3593 33.245C46.9081 33.469 48.0561 33.301 48.3193 32.8362C48.6833 32.2202 48.7673 32.0074 48.9353 31.7722C49.1929 31.4362 49.6353 31.5874 49.6353 31.6938C49.5961 31.8898 49.3385 32.0858 49.5121 32.4218C49.8201 32.6458 49.8929 32.5002 50.0721 32.4498C50.7105 32.1474 51.1921 30.7586 51.1921 30.7586C51.2201 30.2434 50.9289 30.2826 50.7441 30.389C50.4921 30.5402 50.4809 30.5906 50.2401 30.7418C49.9209 30.7866 49.3161 30.9938 49.0193 30.529C48.7113 29.969 48.7113 29.1962 48.4761 28.625C48.4761 28.5914 48.0673 27.7458 48.4425 27.6954C48.6273 27.729 49.0417 27.8354 49.1033 27.4938C49.3049 27.1578 48.6721 26.2058 48.2409 25.7354C47.8713 25.3266 47.3561 25.2762 46.8577 25.6906C46.5049 26.0154 46.5609 26.3738 46.4881 26.7154C46.4041 27.1074 46.4209 27.5946 46.8241 28.1154C47.1713 28.7986 47.8041 29.6834 47.5913 30.9266C47.5913 30.9266 47.2273 31.5202 46.5833 31.4418C46.3033 31.3858 45.8665 31.2738 45.6313 29.5378C45.4633 28.233 45.6761 26.4018 45.1273 25.545C44.9985 25.2258 44.8921 24.9122 44.7129 24.929L44.7017 24.901ZM42.9209 25.0466C42.7529 25.0634 42.5681 25.2594 42.4169 25.6346C42.2881 25.9258 42.1257 27.4266 42.1537 27.4266C42.0417 27.8746 42.6185 28.065 42.8817 27.4938C43.2737 26.4298 43.2737 25.9818 43.2961 25.545C43.2401 25.209 43.0889 25.041 42.9209 25.0522V25.0466ZM49.4897 25.1586C49.3217 25.181 49.1817 25.2818 49.1313 25.5394C49.0585 26.133 49.0977 26.4634 49.1985 26.9618C49.2713 27.2978 49.7585 27.8466 49.9937 28.1714C51.1305 29.7002 52.2337 31.2346 53.2865 32.8194C53.4545 34.0066 53.5665 35.1602 53.6505 36.3138C53.8297 38.8338 53.8745 41.9698 53.7233 44.6298C54.1937 44.6466 54.9553 43.8626 55.2185 42.7258C55.3865 41.1354 55.1625 37.9098 55.1401 36.969L55.0841 35.6362C56.3161 37.6522 57.5033 39.7802 58.6681 42.1098C59.0993 41.9082 59.0041 39.5058 58.7577 39.1698C57.8169 37.1538 56.5177 35.1602 56.1089 34.393C55.9577 34.113 55.4481 33.3458 54.8489 32.4554C54.7369 31.1786 54.6137 30.1034 54.5353 29.7786C54.3393 28.4346 55.0841 29.9298 54.9833 29.1514C54.7369 27.8074 53.9977 26.9002 53.1241 25.6682C52.8441 25.2762 52.8441 25.1866 52.4129 25.769C52.1609 26.357 52.1609 26.8498 52.2449 27.309C52.1217 27.141 51.9817 26.9506 51.7801 26.7042L50.3521 25.4946C50.1561 25.3546 49.7753 25.1418 49.4897 25.1586ZM68.9553 25.3658C68.8713 25.3546 68.7873 25.3938 68.6753 25.545C68.4793 25.713 68.2721 26.0322 68.2833 26.441C68.3225 27.141 68.4513 27.8634 68.4961 28.569L68.5521 28.849C68.4737 28.7594 68.4065 28.681 68.3673 28.6474C66.9841 27.1914 69.0001 28.401 68.0985 27.2866C67.3425 26.4466 67.1185 26.189 66.4745 25.685C66.1385 25.4834 65.9481 25.0802 65.8417 25.7634C65.7969 26.3626 65.7521 27.0626 65.7857 27.5666C65.7857 27.8466 66.0825 28.3786 66.3345 28.6866C67.2529 29.8234 68.1937 31.0274 69.1345 32.2818C69.3361 34.841 69.3865 37.1874 69.5825 39.7522C69.5601 40.8498 69.2241 42.3058 68.9105 42.4402C68.9105 42.4402 68.4177 42.7202 68.0929 42.4122C67.8521 42.317 66.9057 40.8274 66.9057 40.8274C66.4185 40.3794 66.0937 40.5082 65.7521 40.8274C64.8001 41.7458 64.3633 43.4706 63.7193 44.6578C63.5513 44.921 63.0865 45.1506 62.5657 44.6354C61.2385 42.821 62.0057 40.2394 61.8489 40.9058C60.6729 42.2386 61.1881 44.445 61.4569 44.921C61.8489 45.705 62.1625 46.209 62.9129 46.5842C63.6129 47.0882 64.1449 46.7802 64.4473 46.4162C65.1417 45.6994 65.1529 43.857 65.4777 43.493C65.7017 42.821 66.2785 42.933 66.5585 43.2354C66.8385 43.6274 67.1521 43.8794 67.5497 44.0922C68.1993 44.6634 68.9721 44.7642 69.7337 44.2434C70.2545 43.9522 70.5961 43.5714 70.8985 42.821C71.2345 41.9474 71.0665 37.3554 70.9937 34.8018L72.4497 36.9074C72.6513 39.1474 72.7465 41.3594 72.6737 43.4762C72.6289 43.8962 74.1465 42.2218 74.1297 41.4266C74.1297 40.7378 74.1409 40.105 74.1297 39.5226C74.8745 40.6986 75.5857 41.8914 76.2577 43.1066C76.6777 42.8826 76.5377 40.5138 76.2745 40.1946C75.5689 39.0074 74.6617 37.7306 73.9617 36.7338C73.8217 35.485 73.6369 34.0122 73.5473 33.5586C73.4185 32.853 73.2841 31.7946 73.0825 30.9602C73.0265 30.641 72.8585 29.5994 72.9145 29.5042C72.9929 29.2634 73.3065 29.5042 73.4577 29.2354C73.6817 28.9834 72.6625 26.3234 72.1417 25.573C71.9569 25.237 71.6153 25.349 71.2009 25.909C70.8089 26.2674 70.9545 27.0962 71.1001 27.8858C71.4809 29.9018 71.8281 31.9402 72.0969 33.9898C71.5929 33.2338 70.9769 32.3266 70.3721 31.4586L70.2937 31.0666C70.2937 31.0218 70.2153 29.4146 70.1425 29.0338C70.1257 28.877 70.0865 28.8322 70.2545 28.8546C70.4225 29.0002 70.4449 29.0058 70.5513 29.0562C70.7305 29.0786 70.8873 28.7874 70.7753 28.513L69.1513 25.5226C69.0953 25.4498 69.0169 25.3826 68.9273 25.3714L68.9553 25.3658ZM18.7233 25.4218C18.4153 25.4106 18.0905 25.5898 18.2193 25.9538C18.1409 26.1498 18.8017 26.8106 18.9193 27.1746C19.0145 27.4378 18.8073 28.2666 19.0313 28.3506C19.2273 28.4346 19.5017 27.7682 19.6025 27.1578C19.6585 26.8218 19.6193 25.6682 18.8353 25.433C18.7961 25.4218 18.7569 25.4218 18.7121 25.4162L18.7233 25.4218ZM75.9553 25.4218C75.8825 25.433 75.7985 25.5338 75.6753 25.8138C75.3673 26.3178 75.2609 27.2138 75.3841 27.9978C76.1121 32.9818 76.6721 37.809 76.7841 42.2218C76.7169 42.6474 76.6945 42.8714 76.5041 43.3978C76.0673 43.9578 75.5857 44.6522 75.1321 44.9882C74.6841 45.3242 73.7209 45.649 73.4073 45.8954C72.3993 46.4666 72.3993 47.1274 73.2057 47.1554C74.5945 46.9874 76.2409 46.8754 77.3721 45.1674C77.6745 44.6914 78.0329 43.3922 78.0441 42.5914C78.1561 37.9434 77.9881 33.3794 77.2881 30.0138C77.2433 29.6778 77.0977 28.933 77.1537 28.8378C77.2377 28.6026 77.6913 28.8546 77.8537 28.5914C78.0945 28.345 76.6777 26.5362 76.1849 25.7634C76.0841 25.573 76.0169 25.4106 75.9385 25.4274L75.9553 25.4218ZM61.3785 25.5002C61.3225 25.5114 61.2441 25.601 61.0873 25.8082C60.6953 27.0738 60.5609 28.1042 60.7121 28.8994C61.7201 34.1074 62.7281 38.8394 62.5713 43.7954C63.0417 43.7954 63.5905 42.7146 63.8257 41.6394C63.9545 40.1554 63.7361 39.2538 63.7025 38.3914C63.6633 37.5178 62.7169 30.4618 62.5265 29.8066C62.2913 28.5634 63.4449 29.6386 63.3217 28.9218C62.9185 28.0034 61.9217 26.6818 61.6193 25.881C61.5073 25.6682 61.4849 25.4722 61.3953 25.489L61.3785 25.5002ZM25.9081 25.601C25.7961 25.6234 25.6673 25.7242 25.6281 25.881C25.6001 25.993 25.6729 26.1778 25.5721 26.2338C25.5161 26.2898 25.3033 26.2506 25.3145 25.9538C25.3145 25.853 25.2417 25.7522 25.2025 25.6906C25.1577 25.6682 25.1297 25.6626 25.0513 25.6626C24.9561 25.6626 24.9561 25.6906 24.9057 25.7746C24.8833 25.853 24.8497 25.9314 24.8497 26.021C24.8385 26.133 24.7937 26.161 24.7209 26.1778C24.6313 26.1778 24.6481 26.189 24.5809 26.1386C24.5249 26.0994 24.4801 26.0826 24.4801 26.0042C24.4801 25.9202 24.4577 25.7802 24.4353 25.7354C24.3961 25.6794 24.3345 25.657 24.2673 25.6402C23.8977 25.6402 23.8753 26.077 23.8921 26.2338C23.8641 26.2674 23.8529 27.0178 24.3569 27.2306C25.0289 27.5554 26.3057 27.4154 26.2609 26.3234C26.2609 26.2282 26.2329 25.9034 26.2217 25.8194C26.1545 25.6514 26.0257 25.5954 25.9025 25.6122L25.9081 25.601ZM35.0137 25.6122C34.7785 25.6234 34.5657 25.6906 34.3977 25.7802C33.9497 26.2114 33.8377 26.9002 34.1961 27.3314C34.5321 27.4994 34.8849 27.8354 34.6553 28.0314C33.6809 29.0674 31.1441 30.809 31.0153 31.1282V31.1618H31.0377V31.173C31.1665 31.257 32.7569 31.257 32.9305 31.173H32.9417C33.4905 30.9658 36.0777 28.009 36.0777 28.009C35.9433 27.897 35.8201 27.8074 35.6857 27.6898C35.5401 27.5666 35.5569 27.4434 35.6857 27.3202C36.3241 26.9506 36.1225 26.1274 35.7865 25.7522C35.5065 25.629 35.2489 25.5842 35.0137 25.601V25.6122ZM58.8137 25.6122C58.7465 25.629 58.6625 25.7242 58.5337 26.0042C58.2257 26.5082 58.0185 27.3762 58.0465 28.1882C58.7073 32.7802 58.9089 36.7954 59.3457 41.3874C59.3793 41.8354 59.3121 42.4738 59.0209 42.7314C57.9233 43.8738 56.3497 45.2738 54.6361 45.9234C54.4513 46.1306 55.0953 47.0098 55.9241 47.0098C57.3129 46.8418 58.5337 46.069 59.6761 44.0138C59.9729 43.5378 60.5049 42.513 60.5161 41.7178C60.6281 37.0586 60.2921 33.4298 59.5865 30.0698C59.5473 29.7338 59.5753 29.3418 59.6313 29.2522C59.7209 29.1402 60.0233 29.2522 60.1913 28.989C60.4265 28.7426 59.5529 26.7322 59.0601 25.965C58.9593 25.769 58.9033 25.6122 58.8137 25.6178V25.6122ZM21.9433 25.7634C21.7529 25.7858 21.5737 25.9314 21.4841 26.1554C21.4561 26.8834 21.4505 27.6114 21.5401 28.2946C21.8761 29.4874 21.9713 30.5346 22.1337 31.7498C22.1897 33.385 21.1929 32.4554 21.2377 31.649C21.4617 30.5962 21.4057 28.9442 21.2041 28.5242C21.0361 28.1042 20.8569 28.0034 20.4649 28.0762C20.1569 28.0538 19.3561 28.9162 19.1321 30.3722C19.1321 30.3722 18.9417 31.1114 18.8633 31.7722C18.7513 32.517 18.2585 33.049 17.9113 31.6714C17.6145 30.6634 17.4353 28.1994 16.9369 28.7706C16.7913 30.697 16.6233 34.0906 18.2585 34.4378C20.2409 34.6282 19.1433 31.089 19.8601 30.445C20.0001 30.137 20.2521 30.1314 20.2689 30.529V33.5362C20.2465 34.5106 20.8849 34.8018 21.3889 35.0034C21.9097 34.9642 22.2513 34.981 22.4529 35.485L22.7049 40.693C22.7049 40.693 23.9033 41.029 23.9593 37.7642C24.0153 35.8434 23.5673 34.2362 23.8305 33.861C23.8417 33.4914 24.3121 33.469 24.6369 33.6538C25.1577 34.0178 25.3873 34.4658 26.1937 34.2866C27.4257 33.9506 28.1537 33.357 28.1705 32.4162C28.1145 31.5202 28.0025 30.6242 27.6105 29.7282C27.6665 29.5714 27.3865 29.1514 27.4425 28.989C27.6553 29.325 27.9913 29.3026 28.0585 28.989C27.8569 28.3002 27.5321 27.645 27.0057 27.365C26.5745 26.973 25.9417 27.057 25.7065 27.8522C25.5945 28.7706 26.0425 29.857 26.7145 30.7474C26.8489 31.0946 27.0505 31.6714 26.9609 32.1922C26.6081 32.3938 26.2553 32.3042 25.9529 31.9962C25.9529 31.9962 24.9841 31.2682 24.9841 31.1002C25.2473 29.4482 25.0401 29.2522 24.9001 28.8042C24.7993 28.1658 24.4969 27.9642 24.2561 27.5274C24.0097 27.2642 23.6793 27.2642 23.5281 27.5274C23.0913 28.2722 23.2929 29.8794 23.6065 30.5906C23.8305 31.2514 24.1777 31.6658 24.0153 31.6658C23.8809 32.0298 23.6009 31.9458 23.3993 31.5146C23.1193 30.6186 23.0521 29.297 23.0521 28.6978C22.9681 27.9586 22.8729 26.3738 22.3801 25.9706C22.2513 25.7914 22.1001 25.7298 21.9489 25.7466L21.9433 25.7634ZM28.8985 25.7634C28.8033 25.7858 28.6913 25.8418 28.5625 25.8754C28.1425 26.0042 27.7505 26.3682 27.8737 27.0738C28.3777 30.0978 28.6969 32.4106 29.1953 35.4346C29.2681 35.793 28.9713 36.2578 28.5905 36.2186C27.9409 35.7706 27.7785 34.8746 26.6697 34.9194C25.8633 34.9194 24.9449 35.8042 24.8329 36.6442C24.6985 37.3162 24.6537 38.0442 24.8329 38.6266C25.3929 39.2986 26.0761 39.2314 26.6697 39.0746C27.1569 38.8786 27.5657 38.4026 27.7337 38.5146C27.8457 38.6994 27.7225 40.273 25.4377 41.4826C24.0265 42.121 22.9065 42.2666 22.3017 41.1242C21.9321 40.4074 22.3353 37.6746 21.4169 38.3018C18.6953 45.313 27.7841 46.2874 28.7977 38.593C28.8649 38.369 29.0609 38.1562 29.2065 38.2122C29.2625 38.2402 29.3185 38.3242 29.3409 38.481C29.1281 45.4474 22.3073 45.929 21.1537 43.7338C20.8625 43.2186 20.7785 42.065 20.7505 41.3818C20.6945 40.9618 20.5937 40.721 20.4705 40.6258C20.1905 40.4186 19.8209 40.9618 19.7425 41.897C19.6305 42.653 19.6585 42.8602 19.6585 43.5882C20.0281 49.093 28.8033 46.7242 30.2313 42.1882C30.9369 39.8362 30.2145 38.061 30.4553 37.8426L30.4721 37.8314H30.4889L30.5169 37.8202C31.3905 38.761 32.6113 37.9322 32.8801 37.613C32.9921 37.445 33.2833 37.333 33.4849 37.557C34.1569 38.0386 35.3553 37.809 35.6017 36.941C35.7473 36.101 35.8705 35.2386 35.8985 34.337C35.4505 34.477 35.0921 34.5778 34.9465 34.729C34.9129 34.7682 34.8905 34.813 34.8793 34.8578L34.7673 35.6026C34.7673 35.6306 34.7561 35.6474 34.7449 35.6586C34.7281 35.6978 34.6889 35.7258 34.6665 35.7426C34.5097 35.8266 34.2353 35.7818 34.2185 35.5522C34.0113 34.6002 33.1433 34.477 32.6169 35.961C32.2641 36.241 31.6089 36.297 31.5529 35.8714C31.6369 34.8746 31.2337 34.7402 30.4329 35.2106L29.6601 29.3866C29.9961 29.3698 30.2985 29.6106 30.6121 29.2298C30.2761 28.1994 29.5761 26.105 29.1785 25.9034H29.1673L29.1113 25.8474C29.1113 25.8362 29.0945 25.8306 29.0833 25.825L29.0609 25.7914C29.0385 25.7914 29.0161 25.7802 29.0049 25.7746C28.9657 25.7634 28.9321 25.7634 28.8929 25.7634H28.8985ZM56.0137 25.7858C55.6665 25.7746 55.2857 25.993 55.4313 26.4298C55.3417 26.6706 56.1761 27.477 56.3105 27.9138C56.5513 28.5858 56.1257 29.241 56.3777 29.3362C56.6129 29.437 56.9377 28.6362 57.0497 27.8914C57.1953 27.2866 56.7697 26.0546 56.1537 25.8026L56.0137 25.7914V25.7858ZM34.8849 26.5194C35.0417 26.5082 35.2321 26.6538 35.3329 26.8554C35.4281 27.0794 35.3777 27.2866 35.2209 27.3258C35.0529 27.365 34.8401 27.225 34.7393 27.001C34.6385 26.777 34.6833 26.5698 34.8513 26.5306H34.8849V26.5194ZM74.0681 27.5386C73.7489 27.5274 73.3961 27.7626 73.5417 28.2386C73.4633 28.4962 74.2137 29.3698 74.3425 29.8514C74.4545 30.1874 74.1745 31.285 74.3985 31.3858C74.6113 31.4978 74.9025 30.6242 75.0145 29.8178C75.0817 29.3698 74.7569 27.8298 74.2025 27.5554C74.1633 27.5442 74.1185 27.533 74.0737 27.533L74.0681 27.5386ZM52.3961 28.0762C52.4353 28.205 52.4633 28.3338 52.4801 28.4682C52.5473 28.7482 52.6033 29.0282 52.6593 29.3194C52.4129 28.9722 52.2113 28.6922 52.1161 28.5914C51.5561 27.9194 52.1273 28.1546 52.3961 28.0762ZM57.3969 30.529C57.2737 30.5514 57.1561 30.6578 57.1169 30.8258C57.0833 30.9266 57.1617 31.1058 57.0609 31.1618C57.0049 31.2178 56.7809 31.1842 56.7977 30.8818C56.7977 30.781 56.7249 30.6746 56.6857 30.6186C56.6409 30.5906 56.6129 30.5794 56.5345 30.5794C56.4393 30.5794 56.4393 30.6074 56.3889 30.6914C56.3665 30.7698 56.3329 30.8482 56.3329 30.9434C56.3329 31.0554 56.2881 31.089 56.2097 31.1114C56.1201 31.1114 56.1369 31.1114 56.0641 31.0722C56.0193 31.0162 55.9689 31.005 55.9689 30.9266C55.9689 30.8426 55.9521 30.7138 55.9241 30.6578C55.8849 30.6018 55.8289 30.585 55.7561 30.5626C55.3921 30.5626 55.3641 30.9882 55.3865 31.145C55.3641 31.1786 55.3473 31.9402 55.8513 32.153C56.5345 32.4722 57.8113 32.321 57.7553 31.2346C57.7553 31.1394 57.7273 30.8146 57.7217 30.7306C57.6489 30.5626 57.5201 30.5066 57.4025 30.5234L57.3969 30.529ZM34.6049 30.753C34.5265 30.753 34.4145 30.7754 34.2857 30.8538C33.6865 31.1786 33.4569 32.1418 33.8377 32.7018C34.1737 33.2058 34.7337 33.021 34.8065 33.021C35.3945 33.0994 35.7417 31.9234 35.7417 31.9234C35.7417 31.9234 35.7585 31.5874 35.0697 32.2146C34.7673 32.2706 34.7337 32.1586 34.6553 31.9906C34.5881 31.6938 34.5993 31.3746 34.7393 31.0778C34.8065 30.893 34.7393 30.7754 34.6049 30.7642V30.753ZM66.8217 30.9042C66.4857 30.8874 66.1329 31.1058 66.0377 31.5594C66.0377 31.8282 66.1609 31.9738 66.1385 32.2202C66.1105 32.3602 65.9705 32.4442 65.6233 32.2874C65.6793 32.2314 65.3993 31.8506 65.3993 31.8506C65.1361 31.6826 64.7833 31.8506 64.5481 32.0074C64.4193 32.2426 64.3241 32.6402 64.4697 33.0434C64.8505 33.7546 66.1665 34.9642 66.7937 34.9754C66.8049 34.337 66.8665 33.4858 66.9057 32.9594C66.9169 32.7578 66.9617 32.5394 67.1577 32.489C67.3481 32.433 67.6785 32.6794 67.6785 32.4722C67.6449 32.069 67.5665 31.4642 67.3425 31.1842C67.2193 31.0162 67.0233 30.9154 66.8273 30.9042H66.8217ZM40.1489 33.1274L40.1321 33.1442C40.1321 33.1442 40.1209 33.1442 40.1153 33.1554C40.0481 33.2114 39.9697 33.3234 39.7961 33.4354C39.4993 33.7714 39.4489 34.0122 39.4601 34.6842C39.4825 34.757 40.0201 36.269 40.4849 37.3274C40.7985 38.4306 41.0841 39.6962 40.8769 40.889C40.1489 42.4682 38.6929 43.885 37.2761 44.6578C36.5481 44.8818 35.9321 44.8034 35.7641 44.6466C35.3497 44.3666 35.3441 43.8626 35.3721 43.7842V43.7674C36.5593 42.9386 37.9201 42.2666 38.9841 40.0322C39.2977 39.1754 39.3985 38.6602 39.0849 37.3442C38.9617 36.8402 38.8049 36.4482 38.4689 36.0898H38.4801C38.6817 35.9946 39.2081 36.381 39.2921 36.1458C39.1633 35.5074 38.7321 34.6618 38.2561 34.225C37.8305 33.833 37.3601 33.7938 36.9793 34.1466C36.5425 34.393 36.4529 35.2666 36.6601 36.0282C36.8953 36.5994 37.5281 36.7002 37.9761 37.8594C37.9873 37.9378 38.1273 38.7274 37.9033 39.0522C37.7129 39.6234 35.3553 41.4826 35.1873 41.5946L35.1705 41.6058L35.1593 41.617H35.1369V41.6002C35.1257 41.5554 35.1369 41.4322 35.1369 41.2474C35.1201 40.9002 35.2657 40.1106 35.2489 39.9706V39.9594C34.4649 40.4634 34.2017 42.0034 34.0617 42.4626C32.0849 43.8234 29.8449 44.837 28.5513 46.2146C27.8793 47.2786 33.1881 45.0162 33.8041 44.7418L33.8209 44.7586C33.9441 44.8874 33.9497 45.3354 34.3025 45.7442C34.8625 46.489 36.0273 46.9482 37.1697 46.6626C39.0849 45.9738 40.1937 44.669 41.3137 43.2186C41.4705 42.9946 41.7225 42.8042 41.9577 42.9834C42.7249 44.7082 44.9537 45.9402 47.8265 46.0634C48.4985 45.257 48.1793 44.8594 47.9105 44.6914C47.8265 44.6354 46.4825 44.109 46.2697 43.5882C46.1409 43.1066 46.4601 42.6754 47.0985 42.3562C48.9465 42.1322 50.7609 41.8802 52.5193 41.3146C52.5361 40.721 52.8833 39.8418 53.1185 39.4554C53.2865 39.1922 53.3817 39.1642 53.4209 39.1306V39.1194H53.4321V39.0466L53.1297 38.8674L47.2329 38.845C47.1601 38.817 47.1097 38.789 47.0761 38.761L47.0649 38.7442C47.0649 38.7442 47.0537 38.7442 47.0537 38.733C47.0537 38.7218 47.0425 38.7218 47.0425 38.7218V38.7274V38.6938L47.0537 38.677C47.0817 38.6434 47.1545 38.6042 47.2385 38.565C48.6497 38.3802 51.1473 37.9714 51.3153 35.569C51.2873 34.3146 50.7777 33.497 49.2433 33.273C48.1121 33.357 47.3057 34.449 47.4345 35.6474C47.3785 35.9666 47.5465 36.5994 47.2105 36.6722C45.0489 36.8738 42.6857 38.229 42.6073 39.2034H42.5737C42.5737 39.2146 42.5625 39.2146 42.5569 39.2146H42.5009C42.3609 39.1698 42.1817 38.9346 42.2097 38.6154C42.1257 36.9354 41.5769 35.0314 40.7257 33.5754C40.4177 33.2674 40.2777 33.1442 40.1993 33.1274H40.1489ZM45.7937 34.0122C45.6817 34.0346 45.5529 34.1354 45.5137 34.3034C45.4857 34.4154 45.5697 34.5946 45.4689 34.6506C45.4129 34.7066 45.1889 34.673 45.2001 34.3706C45.2001 34.2754 45.1273 34.169 45.0881 34.1074C45.0433 34.0794 45.0153 34.0738 44.9425 34.0738C44.8473 34.0738 44.8417 34.0962 44.7913 34.1746C44.7633 34.253 44.7353 34.3426 44.7353 34.4266C44.7241 34.5386 44.6793 34.5722 44.6065 34.5834C44.5169 34.5834 44.5393 34.6002 44.4665 34.5554C44.4217 34.5106 44.3657 34.4882 44.3657 34.4098C44.3657 34.3258 44.3489 34.1858 44.3265 34.1298C44.2873 34.0906 44.2257 34.0738 44.1585 34.0514C43.7833 34.0514 43.7665 34.4714 43.7833 34.6338C43.7553 34.6618 43.7385 35.4178 44.2425 35.6306C44.9145 35.9554 46.5385 35.765 46.1465 34.7178C46.1465 34.6226 46.1185 34.2978 46.1129 34.2138C46.0401 34.0458 45.9113 33.9898 45.7881 34.0066L45.7937 34.0122ZM68.5577 34.9474H68.5017C68.5017 34.9474 65.3545 37.1874 65.2817 37.2658C64.9681 37.5458 65.1249 38.5146 65.2817 38.4026C65.5057 38.4866 68.6697 36.3418 68.6081 36.0898C68.7481 36.101 68.8153 34.9866 68.5521 34.9418L68.5577 34.9474ZM48.7673 35.2834C48.8905 35.2666 49.0585 35.3114 49.2153 35.3954C49.4561 35.541 49.6073 35.7426 49.5793 35.8994V35.9218C49.5681 35.9218 49.5681 35.9218 49.5681 35.933V35.9442C49.5681 35.9442 49.5569 35.9442 49.5569 35.9554C49.5569 35.9666 49.5401 35.9778 49.5289 35.989C49.4169 36.101 49.1593 36.0786 48.9129 35.933C48.6777 35.8042 48.5377 35.597 48.5489 35.4514V35.4346L48.5769 35.3786C48.5769 35.3786 48.5769 35.3674 48.5881 35.3618L48.6161 35.3282C48.6553 35.3002 48.7057 35.2722 48.7673 35.2722V35.2834ZM21.2265 35.8434C19.6025 35.877 17.2113 37.9826 17.1497 39.1474L22.3017 36.6834C22.0217 36.2578 22.2849 35.877 21.2265 35.8434ZM26.5073 36.5714C26.6641 36.5826 26.8321 36.661 26.9217 36.885C27.0001 37.0922 26.9217 37.305 26.8265 37.4114V37.4282C26.7481 37.5178 26.5129 37.4842 26.3393 37.4842C26.1321 37.473 26.0313 37.4394 25.9081 37.2714C25.8409 37.0754 26.0201 36.8906 26.1041 36.7562L26.1433 36.7002C26.1993 36.6442 26.3113 36.5994 26.4233 36.5882L26.4961 36.577L26.5073 36.5714ZM67.9473 37.2266C67.6505 37.2602 67.3761 37.5346 67.4993 37.9714C67.4209 38.229 67.8913 39.1306 68.0201 39.6066C68.1321 39.9426 67.8745 40.9114 68.1041 41.0066C68.3169 41.1186 68.8713 40.4466 68.8545 39.5842C68.9105 39.1362 68.6977 37.5122 68.1433 37.2434C68.0761 37.2266 68.0089 37.221 67.9417 37.2266H67.9473ZM32.7569 38.817C32.4993 38.8338 32.2697 38.9682 32.3761 39.3322C32.3593 39.5898 33.1041 39.909 33.1433 40.5082C33.2441 40.7658 32.9753 41.5722 33.1993 41.6394C33.4009 41.7234 33.6809 41.0794 33.7873 40.497C33.8433 40.1722 33.5297 39.041 33.0033 38.8338C32.9193 38.8114 32.8353 38.8058 32.7513 38.8114L32.7569 38.817ZM43.2849 40.2506H43.3521C44.0129 40.4298 44.9761 40.4522 45.8161 40.5306C46.5049 40.5866 46.8409 41.113 46.2081 41.3426C45.5697 41.5554 44.9593 41.7346 44.9593 42.6418C45.0377 43.0898 45.0153 43.325 44.9481 43.4258C44.9481 43.4426 44.9313 43.4538 44.9257 43.4594C44.9257 43.4594 44.9257 43.4706 44.9145 43.4706V43.4818H44.8977L44.8585 43.4986H44.8305C44.6793 43.5266 44.4609 43.3866 44.2985 43.297C43.9065 43.017 42.8145 42.345 42.6577 40.889C42.6353 40.553 42.8817 40.273 43.2737 40.245L43.2849 40.2506ZM17.5585 41.3706C17.5193 41.3706 17.4465 41.4938 17.3345 41.6338C16.3601 43.1738 16.2705 45.4754 16.8081 46.1698C17.0881 46.489 17.5585 46.6346 17.9057 46.5338C18.5217 46.2706 18.7849 45.033 18.6337 44.585C18.4377 44.2658 18.2753 44.2154 18.0737 44.4842C17.6425 45.3522 17.4577 44.753 17.4297 44.2602C17.3625 43.3474 17.4521 42.4962 17.5529 41.8242C17.6089 41.4882 17.6089 41.3594 17.5529 41.3594L17.5585 41.3706ZM50.5817 43.3978C50.5089 43.3978 50.4361 43.409 50.3577 43.4538C50.3409 43.4538 49.6633 43.9018 49.4449 44.2266C49.3105 44.3274 49.3329 44.4114 49.3665 44.5906C49.4673 44.8314 49.6465 44.7586 49.8593 44.6466C50.1393 44.6018 50.2681 44.7866 50.2513 45.117C50.1225 45.537 50.3073 45.6882 50.3073 45.7162C50.3073 45.7386 50.5705 45.9682 50.8841 45.789C51.5393 45.537 51.9481 45.285 52.8721 45.089C53.1129 45.089 53.0961 44.4394 52.7153 44.417C52.2113 44.4394 51.7633 44.473 51.2593 44.865C50.9513 44.9322 50.9009 44.7418 50.8281 44.5738C50.7497 44.1594 51.0073 43.8682 50.9513 43.5546C50.9625 43.5714 50.7945 43.4202 50.5761 43.409L50.5817 43.3978ZM71.7273 44.1818L71.2793 44.2266C71.0777 44.2658 71.0105 44.3554 70.9713 44.6018C70.9881 44.9658 71.2121 44.949 71.4473 45.0946C71.5817 45.2626 71.6713 45.4194 71.4361 45.7106C71.2121 45.9066 71.0609 46.0186 70.8369 46.2146C70.7417 46.3938 70.6689 46.6626 70.9937 46.7522C71.5817 46.9202 72.9425 46.0354 72.9425 46.0242C73.1665 45.8562 73.0881 45.537 73.0713 45.537C72.9369 45.3914 72.6457 45.481 72.4553 45.453C72.3601 45.453 72.0633 45.4082 72.1977 45.1394C72.3209 44.9714 72.3657 44.8762 72.4497 44.669C72.5337 44.4674 72.4497 44.333 72.1249 44.221C71.9569 44.1874 71.8449 44.1762 71.7161 44.1818H71.7273ZM63.5905 65.7978C65.1025 65.8706 66.5137 65.8146 68.0145 65.8874C68.2609 66.089 68.1433 66.5594 67.9865 66.6378L67.9585 66.649H67.9193L66.6537 66.6154V66.5426C66.5305 66.1954 65.6905 66.2178 65.4889 66.4866V66.5034C65.4777 66.5034 65.4721 66.5202 65.4721 66.5258L65.4609 66.5538V66.621C64.7889 66.705 64.2009 66.5986 63.5401 66.5762C63.3441 66.3354 63.3721 65.9042 63.5961 65.7922L63.5905 65.7978Z" fill="white"/>
</g>
<defs>
<filter id="filter0_dd_1104_22378" x="0.142858" y="0.714286" width="97.7143" height="97.7143" filterUnits="userSpaceOnUse" color-interpolation-filters="sRGB">
<feFlood flood-opacity="0" result="BackgroundImageFix"/>
<feColorMatrix in="SourceAlpha" type="matrix" values="0 0 0 0 0 0 0 0 0 0 0 0 0 0 0 0 0 0 127 0" result="hardAlpha"/>
<feOffset dy="4.57143"/>
<feGaussianBlur stdDeviation="3.42857"/>
<feComposite in2="hardAlpha" operator="out"/>
<feColorMatrix type="matrix" values="0 0 0 0 0.258824 0 0 0 0 0.278431 0 0 0 0 0.298039 0 0 0 0.08 0"/>
<feBlend mode="normal" in2="BackgroundImageFix" result="effect1_dropShadow_1104_22378"/>
<feColorMatrix in="SourceAlpha" type="matrix" values="0 0 0 0 0 0 0 0 0 0 0 0 0 0 0 0 0 0 127 0" result="hardAlpha"/>
<feOffset/>
<feGaussianBlur stdDeviation="0.285714"/>
<feComposite in2="hardAlpha" operator="out"/>
<feColorMatrix type="matrix" values="0 0 0 0 0.258824 0 0 0 0 0.278431 0 0 0 0 0.298039 0 0 0 0.32 0"/>
<feBlend mode="normal" in2="effect1_dropShadow_1104_22378" result="effect2_dropShadow_1104_22378"/>
<feBlend mode="normal" in="SourceGraphic" in2="effect2_dropShadow_1104_22378" result="shape"/>
</filter>
</defs>
</svg>
