<svg width="98" height="99" viewBox="0 0 98 99" fill="none" xmlns="http://www.w3.org/2000/svg">
<g filter="url(#filter0_dd_1104_22740)">
<g clip-path="url(#clip0_1104_22740)">
<rect x="7" y="3" width="84" height="84" rx="42" fill="#1A47B8"/>
<path fill-rule="evenodd" clip-rule="evenodd" d="M7 59H124.6V87H7V59Z" fill="white"/>
<path fill-rule="evenodd" clip-rule="evenodd" d="M7 3H124.6V31H7V3ZM51.8 59V31H29.4V59C29.4 65.188 34.412 70.2 40.6 70.2C46.788 70.2 51.8 65.188 51.8 59Z" fill="#F93939"/>
<path fill-rule="evenodd" clip-rule="evenodd" d="M34.9993 30.9999L29.3993 25.3999C29.3993 25.3999 34.9993 19.7999 40.5993 19.7999C46.1993 19.7999 51.7993 25.3999 51.7993 25.3999L46.1993 30.9999H34.9993Z" fill="#FFDA2C"/>
<path fill-rule="evenodd" clip-rule="evenodd" d="M34.9993 36.6L29.3993 42.2L40.5993 47.8L34.9993 59L40.5993 70.2L46.1993 59L40.5993 47.8L51.7993 42.2L46.1993 36.6L40.5993 42.2L34.9993 36.6Z" fill="white"/>
<path fill-rule="evenodd" clip-rule="evenodd" d="M34.9993 36.6H29.3993V42.2L34.9993 36.6ZM46.1993 36.6H51.7993V42.2L46.1993 36.6Z" fill="#FFDA2C"/>
<path fill-rule="evenodd" clip-rule="evenodd" d="M40.5999 19.7999L34.9999 25.3999L40.5999 30.9999L46.1999 25.3999L40.5999 19.7999Z" fill="#A75835"/>
<path fill-rule="evenodd" clip-rule="evenodd" d="M40.5993 47.8L29.3993 53.3999H51.7993L40.5993 47.8Z" fill="#88605F"/>
</g>
</g>
<defs>
<filter id="filter0_dd_1104_22740" x="0.142858" y="0.714286" width="97.7143" height="97.7143" filterUnits="userSpaceOnUse" color-interpolation-filters="sRGB">
<feFlood flood-opacity="0" result="BackgroundImageFix"/>
<feColorMatrix in="SourceAlpha" type="matrix" values="0 0 0 0 0 0 0 0 0 0 0 0 0 0 0 0 0 0 127 0" result="hardAlpha"/>
<feOffset dy="4.57143"/>
<feGaussianBlur stdDeviation="3.42857"/>
<feComposite in2="hardAlpha" operator="out"/>
<feColorMatrix type="matrix" values="0 0 0 0 0.258824 0 0 0 0 0.278431 0 0 0 0 0.298039 0 0 0 0.08 0"/>
<feBlend mode="normal" in2="BackgroundImageFix" result="effect1_dropShadow_1104_22740"/>
<feColorMatrix in="SourceAlpha" type="matrix" values="0 0 0 0 0 0 0 0 0 0 0 0 0 0 0 0 0 0 127 0" result="hardAlpha"/>
<feOffset/>
<feGaussianBlur stdDeviation="0.285714"/>
<feComposite in2="hardAlpha" operator="out"/>
<feColorMatrix type="matrix" values="0 0 0 0 0.258824 0 0 0 0 0.278431 0 0 0 0 0.298039 0 0 0 0.32 0"/>
<feBlend mode="normal" in2="effect1_dropShadow_1104_22740" result="effect2_dropShadow_1104_22740"/>
<feBlend mode="normal" in="SourceGraphic" in2="effect2_dropShadow_1104_22740" result="shape"/>
</filter>
<clipPath id="clip0_1104_22740">
<rect x="7" y="3" width="84" height="84" rx="42" fill="white"/>
</clipPath>
</defs>
</svg>
