<svg width="98" height="99" viewBox="0 0 98 99" fill="none" xmlns="http://www.w3.org/2000/svg">
<g filter="url(#filter0_dd_1104_22484)">
<g clip-path="url(#clip0_1104_22484)">
<rect x="7" y="3" width="84" height="84" rx="42" fill="white"/>
<path fill-rule="evenodd" clip-rule="evenodd" d="M7 3H124.6V53.4H7V3Z" fill="#F93939"/>
<path fill-rule="evenodd" clip-rule="evenodd" d="M40.6002 47.0327C38.9762 47.5367 37.2402 47.7999 35.4314 47.7999C25.9114 47.7999 18.2002 40.2791 18.2002 30.9999C18.2002 21.7207 25.917 14.1999 35.4314 14.1999C37.2346 14.1999 38.9706 14.4687 40.6002 14.9671C33.6114 17.1119 28.5378 23.4791 28.5378 30.9999C28.5378 38.5207 33.6114 44.8879 40.6002 47.0327ZM51.8002 19.7999H57.4002V25.3999H51.8002V19.7999ZM63.0002 25.3999H68.6002V30.9999H63.0002V25.3999ZM57.4002 36.5999H63.0002V42.1999H57.4002V36.5999ZM40.6002 25.3999H46.2002V30.9999H40.6002V25.3999ZM46.2002 36.5999H51.8002V42.1999H46.2002V36.5999Z" fill="white"/>
</g>
</g>
<defs>
<filter id="filter0_dd_1104_22484" x="0.142858" y="0.714286" width="97.7143" height="97.7143" filterUnits="userSpaceOnUse" color-interpolation-filters="sRGB">
<feFlood flood-opacity="0" result="BackgroundImageFix"/>
<feColorMatrix in="SourceAlpha" type="matrix" values="0 0 0 0 0 0 0 0 0 0 0 0 0 0 0 0 0 0 127 0" result="hardAlpha"/>
<feOffset dy="4.57143"/>
<feGaussianBlur stdDeviation="3.42857"/>
<feComposite in2="hardAlpha" operator="out"/>
<feColorMatrix type="matrix" values="0 0 0 0 0.258824 0 0 0 0 0.278431 0 0 0 0 0.298039 0 0 0 0.08 0"/>
<feBlend mode="normal" in2="BackgroundImageFix" result="effect1_dropShadow_1104_22484"/>
<feColorMatrix in="SourceAlpha" type="matrix" values="0 0 0 0 0 0 0 0 0 0 0 0 0 0 0 0 0 0 127 0" result="hardAlpha"/>
<feOffset/>
<feGaussianBlur stdDeviation="0.285714"/>
<feComposite in2="hardAlpha" operator="out"/>
<feColorMatrix type="matrix" values="0 0 0 0 0.258824 0 0 0 0 0.278431 0 0 0 0 0.298039 0 0 0 0.32 0"/>
<feBlend mode="normal" in2="effect1_dropShadow_1104_22484" result="effect2_dropShadow_1104_22484"/>
<feBlend mode="normal" in="SourceGraphic" in2="effect2_dropShadow_1104_22484" result="shape"/>
</filter>
<clipPath id="clip0_1104_22484">
<rect x="7" y="3" width="84" height="84" rx="42" fill="white"/>
</clipPath>
</defs>
</svg>
