<svg width="98" height="99" viewBox="0 0 98 99" fill="none" xmlns="http://www.w3.org/2000/svg">
<g filter="url(#filter0_dd_1104_21651)">
<g clip-path="url(#clip0_1104_21651)">
<rect x="7" y="3" width="84" height="84" rx="42" fill="#1A47B8"/>
<path d="M124.601 3H7.00073V42.2H124.601V3Z" fill="#F93939"/>
<path fill-rule="evenodd" clip-rule="evenodd" d="M7.00073 3L63.0007 45L7.00073 87V3Z" fill="white"/>
<path fill-rule="evenodd" clip-rule="evenodd" d="M12.6003 31.0001H23.8003L29.4003 36.6001L35.0003 31.0001H46.2003L35.0003 36.6001H23.8003L12.6003 31.0001Z" fill="#AE6A3E"/>
<path d="M29.4007 59C32.4935 59 35.0007 53.9856 35.0007 47.8C35.0007 41.6144 32.4931 36.6001 29.4003 36.6001C26.3075 36.6001 23.8007 41.6144 23.8007 47.8C23.8007 53.9856 26.3079 59 29.4007 59Z" fill="#3ECBF8"/>
<path fill-rule="evenodd" clip-rule="evenodd" d="M23.7999 42.2001V53.4001H35V42.2001L40.5999 53.4001L35 59.0001H23.7999L18.2 53.4001L23.7999 42.2001Z" fill="#FFDA2C"/>
</g>
</g>
<defs>
<filter id="filter0_dd_1104_21651" x="0.142858" y="0.714286" width="97.7143" height="97.7143" filterUnits="userSpaceOnUse" color-interpolation-filters="sRGB">
<feFlood flood-opacity="0" result="BackgroundImageFix"/>
<feColorMatrix in="SourceAlpha" type="matrix" values="0 0 0 0 0 0 0 0 0 0 0 0 0 0 0 0 0 0 127 0" result="hardAlpha"/>
<feOffset dy="4.57143"/>
<feGaussianBlur stdDeviation="3.42857"/>
<feComposite in2="hardAlpha" operator="out"/>
<feColorMatrix type="matrix" values="0 0 0 0 0.258824 0 0 0 0 0.278431 0 0 0 0 0.298039 0 0 0 0.08 0"/>
<feBlend mode="normal" in2="BackgroundImageFix" result="effect1_dropShadow_1104_21651"/>
<feColorMatrix in="SourceAlpha" type="matrix" values="0 0 0 0 0 0 0 0 0 0 0 0 0 0 0 0 0 0 127 0" result="hardAlpha"/>
<feOffset/>
<feGaussianBlur stdDeviation="0.285714"/>
<feComposite in2="hardAlpha" operator="out"/>
<feColorMatrix type="matrix" values="0 0 0 0 0.258824 0 0 0 0 0.278431 0 0 0 0 0.298039 0 0 0 0.32 0"/>
<feBlend mode="normal" in2="effect1_dropShadow_1104_21651" result="effect2_dropShadow_1104_21651"/>
<feBlend mode="normal" in="SourceGraphic" in2="effect2_dropShadow_1104_21651" result="shape"/>
</filter>
<clipPath id="clip0_1104_21651">
<rect x="7" y="3" width="84" height="84" rx="42" fill="white"/>
</clipPath>
</defs>
</svg>
