<svg width="98" height="99" viewBox="0 0 98 99" fill="none" xmlns="http://www.w3.org/2000/svg">
<g filter="url(#filter0_dd_1104_22500)">
<g clip-path="url(#clip0_1104_22500)">
<rect x="7" y="3" width="84" height="84" rx="42" fill="#1A47B8"/>
<path fill-rule="evenodd" clip-rule="evenodd" d="M1.40039 59H119V87H1.40039V59Z" fill="#F93939"/>
<path fill-rule="evenodd" clip-rule="evenodd" d="M1.40039 3H119V31H1.40039V3ZM57.0084 59H57.4004V31H18.2004V59H18.5924C18.3348 59.9072 18.2004 60.848 18.2004 61.8C18.2004 69.528 37.8004 75.8 37.8004 75.8C37.8004 75.8 57.4004 69.528 57.4004 61.8C57.4004 60.848 57.266 59.9072 57.0084 59Z" fill="white"/>
<path fill-rule="evenodd" clip-rule="evenodd" d="M51.7997 59.0001V25.4001H23.7997V59.0001C23.7997 65.1881 37.7997 70.2001 37.7997 70.2001C37.7997 70.2001 51.7997 65.1881 51.7997 59.0001Z" fill="#F93939"/>
<path fill-rule="evenodd" clip-rule="evenodd" d="M35.0004 47.8001V42.2001H29.4004V36.6001H35.0004V31.0001H40.6004V36.6001H46.2004V42.2001H40.6004V47.8001H49.0004V53.4001H40.6004V59.0001H35.0004V53.4001H26.6004V47.8001H35.0004Z" fill="white"/>
<path fill-rule="evenodd" clip-rule="evenodd" d="M37.7997 70.2001C37.7997 70.2001 51.7997 65.1881 51.7997 59.0001C51.7997 52.8121 46.1997 53.3998 37.7997 58.9998C29.3997 53.3998 23.7997 52.8121 23.7997 59.0001C23.7997 65.1881 37.7997 70.2001 37.7997 70.2001Z" fill="#1A47B8"/>
</g>
</g>
<defs>
<filter id="filter0_dd_1104_22500" x="0.142858" y="0.714286" width="97.7143" height="97.7143" filterUnits="userSpaceOnUse" color-interpolation-filters="sRGB">
<feFlood flood-opacity="0" result="BackgroundImageFix"/>
<feColorMatrix in="SourceAlpha" type="matrix" values="0 0 0 0 0 0 0 0 0 0 0 0 0 0 0 0 0 0 127 0" result="hardAlpha"/>
<feOffset dy="4.57143"/>
<feGaussianBlur stdDeviation="3.42857"/>
<feComposite in2="hardAlpha" operator="out"/>
<feColorMatrix type="matrix" values="0 0 0 0 0.258824 0 0 0 0 0.278431 0 0 0 0 0.298039 0 0 0 0.08 0"/>
<feBlend mode="normal" in2="BackgroundImageFix" result="effect1_dropShadow_1104_22500"/>
<feColorMatrix in="SourceAlpha" type="matrix" values="0 0 0 0 0 0 0 0 0 0 0 0 0 0 0 0 0 0 127 0" result="hardAlpha"/>
<feOffset/>
<feGaussianBlur stdDeviation="0.285714"/>
<feComposite in2="hardAlpha" operator="out"/>
<feColorMatrix type="matrix" values="0 0 0 0 0.258824 0 0 0 0 0.278431 0 0 0 0 0.298039 0 0 0 0.32 0"/>
<feBlend mode="normal" in2="effect1_dropShadow_1104_22500" result="effect2_dropShadow_1104_22500"/>
<feBlend mode="normal" in="SourceGraphic" in2="effect2_dropShadow_1104_22500" result="shape"/>
</filter>
<clipPath id="clip0_1104_22500">
<rect x="7" y="3" width="84" height="84" rx="42" fill="white"/>
</clipPath>
</defs>
</svg>
