<svg width="98" height="99" viewBox="0 0 98 99" fill="none" xmlns="http://www.w3.org/2000/svg">
<g filter="url(#filter0_dd_1104_22390)">
<g clip-path="url(#clip0_1104_22390)">
<rect x="7" y="3" width="84" height="84" rx="42" fill="white"/>
<path d="M82.999 3H14.999C10.5807 3 6.99902 8.01441 6.99902 14.2V75.8C6.99902 81.9856 10.5807 87 14.999 87H82.999C87.4173 87 90.999 81.9856 90.999 75.8V14.2C90.999 8.01441 87.4173 3 82.999 3Z" fill="white"/>
<path fill-rule="evenodd" clip-rule="evenodd" d="M6.99902 59H90.999V87H6.99902V59Z" fill="#1A47B8"/>
<path fill-rule="evenodd" clip-rule="evenodd" d="M6.99902 3H90.999V31H6.99902V3Z" fill="#F93939"/>
<path fill-rule="evenodd" clip-rule="evenodd" d="M39.051 59L14.999 87.1848H6.99902V3H14.999L38.999 31L90.999 31V59L39.051 59Z" fill="white"/>
<path fill-rule="evenodd" clip-rule="evenodd" d="M37.799 53.4L8.99902 87L6.99902 87.1848V3H8.99902L37.799 36.6H90.999V53.4H37.799Z" fill="#249F58"/>
<path fill-rule="evenodd" clip-rule="evenodd" d="M6.99902 19.7999L30.999 44.9999L6.99902 70.1999V19.7999Z" fill="#FFDA2C"/>
<path fill-rule="evenodd" clip-rule="evenodd" d="M6.99902 25.4001L25.999 45.0001L6.99902 64.6001V25.4001Z" fill="#151515"/>
</g>
</g>
<defs>
<filter id="filter0_dd_1104_22390" x="0.142858" y="0.714286" width="97.7143" height="97.7143" filterUnits="userSpaceOnUse" color-interpolation-filters="sRGB">
<feFlood flood-opacity="0" result="BackgroundImageFix"/>
<feColorMatrix in="SourceAlpha" type="matrix" values="0 0 0 0 0 0 0 0 0 0 0 0 0 0 0 0 0 0 127 0" result="hardAlpha"/>
<feOffset dy="4.57143"/>
<feGaussianBlur stdDeviation="3.42857"/>
<feComposite in2="hardAlpha" operator="out"/>
<feColorMatrix type="matrix" values="0 0 0 0 0.258824 0 0 0 0 0.278431 0 0 0 0 0.298039 0 0 0 0.08 0"/>
<feBlend mode="normal" in2="BackgroundImageFix" result="effect1_dropShadow_1104_22390"/>
<feColorMatrix in="SourceAlpha" type="matrix" values="0 0 0 0 0 0 0 0 0 0 0 0 0 0 0 0 0 0 127 0" result="hardAlpha"/>
<feOffset/>
<feGaussianBlur stdDeviation="0.285714"/>
<feComposite in2="hardAlpha" operator="out"/>
<feColorMatrix type="matrix" values="0 0 0 0 0.258824 0 0 0 0 0.278431 0 0 0 0 0.298039 0 0 0 0.32 0"/>
<feBlend mode="normal" in2="effect1_dropShadow_1104_22390" result="effect2_dropShadow_1104_22390"/>
<feBlend mode="normal" in="SourceGraphic" in2="effect2_dropShadow_1104_22390" result="shape"/>
</filter>
<clipPath id="clip0_1104_22390">
<rect x="7" y="3" width="84" height="84" rx="42" fill="white"/>
</clipPath>
</defs>
</svg>
