<svg width="98" height="99" viewBox="0 0 98 99" fill="none" xmlns="http://www.w3.org/2000/svg">
<g filter="url(#filter0_dd_1104_22235)">
<g clip-path="url(#clip0_1104_22235)">
<rect x="7" y="3" width="84" height="84" rx="42" fill="#FFDA2C"/>
<rect x="-9.80078" y="3" width="117.6" height="84" fill="#FFDA2C"/>
<rect opacity="0.3" x="-9.80078" y="3" width="117.6" height="84" fill="#FF6C2D"/>
<path fill-rule="evenodd" clip-rule="evenodd" d="M1.39844 14.1992H18.1984V75.7992H1.39844V14.1992Z" fill="#0A6A30"/>
<path fill-rule="evenodd" clip-rule="evenodd" d="M18.1992 14.1992H34.9992V75.7992H18.1992V14.1992Z" fill="#FF6C2D"/>
<path opacity="0.2" fill-rule="evenodd" clip-rule="evenodd" d="M18.1992 14.1992H34.9992V75.7992H18.1992V14.1992Z" fill="#151515"/>
<path fill-rule="evenodd" clip-rule="evenodd" d="M40.5977 14.1992H96.5976V75.7992H40.5977V14.1992ZM60.3937 62.4489L60.7185 62.2025L60.8529 62.4489C61.0377 62.7849 61.5473 62.7737 61.8833 62.4489L62.1465 62.1857L62.3705 62.4377C62.6505 62.7737 63.1769 62.7737 63.5129 62.4377C63.7593 62.2025 63.7929 62.1969 63.9497 62.3817C64.0393 62.4825 64.3137 62.6057 64.5545 62.6449C64.9913 62.7233 65.0025 62.7177 65.2545 62.2081C65.4785 61.7825 65.5065 61.6145 65.4561 61.2001C65.4225 60.9201 65.3833 60.4833 65.3721 60.2201C65.3609 59.7385 65.3609 59.7329 65.8873 59.4921C66.1673 59.3577 66.5033 59.1785 66.6321 59.0889C66.8393 58.9433 67.4161 58.0417 67.4161 57.8569C67.4161 57.8121 67.1921 57.7449 66.9121 57.7001C65.8201 57.5321 65.6353 56.7481 66.3521 55.2921C67.5113 52.9289 68.2113 50.6161 68.2169 49.1433C68.2169 48.4881 68.2449 48.2641 68.3121 48.4153C68.5697 48.9921 68.1049 51.4393 67.3993 53.2033L67.1193 53.9145L67.3881 53.8305C67.5337 53.7745 68.4129 53.2873 69.3313 52.7329C71.8513 51.2209 72.7193 50.9185 74.3545 51.0081C75.7209 51.0865 76.3033 51.4393 77.2665 52.7889C77.7817 53.5001 78.2745 54.0097 79.1705 54.7601C81.0969 56.3617 81.1753 56.4961 81.2649 58.3777C81.3601 60.2817 81.3209 60.3937 80.2289 60.7073C79.3049 60.9761 78.7169 61.5473 78.5657 62.3481C78.4873 62.7793 78.6609 62.7961 79.1257 62.3929L79.4617 62.1017L79.6185 62.3929C79.8201 62.7849 80.2457 62.7849 80.5985 62.3929L80.8617 62.1129L81.1305 62.3929C81.5561 62.8409 82.1217 62.7401 82.2785 62.1689C82.3065 62.0681 82.3905 62.1017 82.5585 62.2921C82.8665 62.6505 83.6561 62.8073 83.7457 62.5161C83.7793 62.4153 83.7121 62.1521 83.6057 61.9337C83.1465 61.0153 83.0009 60.5729 82.9897 60.0745C82.9897 59.3801 83.1409 59.0441 83.7401 58.4729C84.4681 57.7841 84.6921 56.9049 84.1433 56.9049C83.8073 56.9049 83.4601 56.4961 83.2473 55.8409C82.7993 54.5249 82.8833 53.0409 83.5497 50.5769C84.2217 48.0569 84.3001 47.6089 84.3057 45.9289C84.3057 44.5681 84.2889 44.3329 84.0537 43.5881C83.9137 43.1401 83.6225 42.4569 83.4153 42.0873L83.0401 41.4153L83.5273 40.8665C85.0225 39.2201 84.7201 36.5209 82.9113 35.4905C82.3681 35.1657 82.2281 35.1377 81.2649 35.1545C80.6825 35.1545 79.8089 35.2553 79.3049 35.3785C78.7897 35.4905 77.9273 35.5913 77.3337 35.5913C76.3929 35.5913 76.2361 35.5689 75.8777 35.3113C75.4969 35.0425 75.4297 34.9193 75.3569 34.3033C75.3457 34.1689 75.2785 34.0457 75.2113 34.0233C75.0825 33.9673 74.4833 34.6393 74.4049 34.9529C74.3601 35.0985 74.3209 35.0873 74.1977 34.8969C74.1137 34.7569 73.9961 34.4489 73.9345 34.2137C73.7833 33.6089 73.9681 33.1497 74.4945 32.8137L74.9145 32.5561L74.6793 32.3545C74.1753 31.9401 73.3185 32.2201 73.0105 32.9145C72.9209 33.0993 72.8257 33.2617 72.7977 33.2617C72.7697 33.2617 72.6017 33.0769 72.4281 32.8529C71.7785 32.0129 72.0025 30.7585 72.8761 30.3721C73.3353 30.1705 73.7441 30.3273 73.8281 30.7361C73.9569 31.3633 74.3657 30.5401 74.2929 29.7953C74.2369 29.3025 74.2369 29.2801 74.5001 29.2801C74.8585 29.2801 75.6201 29.9073 75.8609 30.4001C76.1409 30.9601 76.1129 31.8561 75.8049 32.5169L75.5809 33.0377L75.8833 32.9593C76.3313 32.8361 76.7793 32.4553 77.0033 32.0073C77.2385 31.5257 77.2665 30.5905 77.0593 30.0809C76.8521 29.5937 76.8745 29.5209 77.1713 29.6889C77.6865 29.9689 77.9553 30.2713 78.1625 30.8089C78.3529 31.2849 78.3641 31.4025 78.2633 31.9009C78.2073 32.2089 78.0673 32.6121 77.9609 32.7969C77.7929 33.0937 77.7929 33.1441 77.9217 33.1441C78.1625 33.1441 78.6777 32.8361 78.8569 32.5841C78.9465 32.4497 79.0809 32.1361 79.1537 31.8673L79.2825 31.3969L79.4337 31.7553C79.6465 32.2593 80.0497 32.7241 80.5537 33.0097C81.0969 33.3233 81.3209 33.3457 81.0409 33.0545C80.8505 32.8585 80.4977 31.4865 80.6041 31.3577C80.6601 31.2793 81.3993 32.0297 82.2281 33.0265C83.0233 33.9785 83.5161 34.2809 84.2441 34.2809C85.1793 34.2809 85.7169 33.2057 85.3081 32.1921C85.0561 31.5985 84.5129 31.5201 84.1993 32.0241C84.0537 32.2593 84.0145 32.4441 84.0537 32.6849C84.1097 32.9873 84.0873 33.0209 83.8857 33.0209C83.6057 33.0209 83.0793 32.5729 82.1385 31.5201C80.6993 29.9241 78.9465 28.5689 77.6865 28.0761C76.8745 27.7513 75.1441 27.6281 74.3265 27.8297C73.4305 28.0425 72.3665 28.7257 71.7953 29.4537C70.7761 30.7417 70.7649 32.4497 71.7561 34.0121L72.0361 34.4601L71.8457 34.8521C71.5657 35.4345 71.5881 36.2129 71.9017 36.7841C72.0417 37.0361 72.1817 37.2433 72.2153 37.2433C72.2489 37.2433 72.2825 37.0753 72.2937 36.8793C72.3217 36.3753 72.4841 36.0393 72.7641 35.9105C73.0105 35.7873 73.1729 35.8433 74.3209 36.4481C75.5249 37.0921 77.5017 37.1313 79.6073 36.5601C80.6433 36.2913 81.8585 36.3081 82.3961 36.6049C83.3761 37.1537 83.6057 38.5761 82.8833 39.6569C82.5697 40.1161 82.2673 40.3065 81.2593 40.6761C80.4865 40.9561 80.3073 40.9785 78.5545 40.9561C77.0593 40.9337 76.5217 40.9729 75.9113 41.1409C75.2505 41.3257 74.8473 41.3425 72.8985 41.2809L70.6473 41.2025L70.8993 41.4825C71.0337 41.6281 71.2353 41.8185 71.3305 41.8913C71.4985 42.0145 71.4985 42.0313 71.2409 42.1545C71.0897 42.2329 70.7649 42.2889 70.5129 42.2889H70.0481L69.9921 42.8153C69.9585 43.1065 69.9585 43.4313 69.9921 43.5601C70.0481 43.7449 70.0313 43.7673 69.8801 43.7001C69.7905 43.6441 69.5217 43.5601 69.2865 43.4929C69.0513 43.4257 68.7377 43.2969 68.5865 43.1961C68.3289 43.0281 68.3065 43.0281 68.2057 43.2521C68.1273 43.4537 67.3433 44.2265 67.2257 44.2265C67.2089 44.2265 67.1865 44.0753 67.1697 43.8905C67.1697 43.7113 67.0577 43.2353 66.9233 42.8377C66.8001 42.4457 66.6657 42.0089 66.6321 41.8745C66.5761 41.6729 66.5593 41.6617 66.4921 41.8185C66.4529 41.9137 66.3913 42.1825 66.3577 42.4177C66.3297 42.6417 66.2121 43.0337 66.1001 43.2577L65.8985 43.6721L65.7697 43.3137C65.6353 42.9329 65.4057 42.5297 65.3217 42.5297C65.2937 42.5297 65.2433 42.6585 65.2097 42.8097C65.1537 43.1177 64.6105 43.9857 64.4817 43.9857C64.4257 43.9857 64.3865 43.7393 64.3865 43.4425C64.3865 43.1401 64.3473 42.8993 64.2913 42.8993C64.2465 42.8993 64.2017 42.9721 64.2017 43.0673C64.2017 43.2913 63.7369 43.9801 63.5857 43.9801C63.5129 43.9801 63.4065 44.0585 63.3393 44.1593C63.1713 44.4169 63.0313 44.3833 63.0985 44.1033C63.1377 43.9633 63.1153 43.6553 63.0537 43.4033L62.9025 42.8153C62.8801 42.7257 62.7177 42.7481 62.3649 42.8993C61.7937 43.1401 61.6033 43.1009 61.8945 42.7873C62.0065 42.6753 62.1745 42.2945 62.2585 41.9361C62.3481 41.5777 62.4825 41.2641 62.5609 41.2249C62.6617 41.1913 62.6561 41.2417 62.5329 41.4601C62.4489 41.6169 62.3761 41.8297 62.3761 41.9305C62.3761 42.0313 62.3033 42.2665 62.2249 42.4625C62.1465 42.6641 62.0961 42.8377 62.1129 42.8545C62.1353 42.8825 62.3481 42.7761 62.5945 42.6193L63.0425 42.3393V42.5913C63.0425 42.7313 63.0985 43.0953 63.1545 43.4089L63.2777 43.9689L63.5801 43.7841C63.8881 43.5937 64.1849 42.9161 64.1849 42.3953C64.1849 42.1265 64.2969 42.1713 64.3417 42.4513L64.4985 43.1233L64.6329 43.6497L64.8401 43.3137C64.9521 43.1289 65.1033 42.7705 65.1649 42.5129C65.2769 42.0761 65.4337 41.8857 65.4337 42.2049C65.4337 42.4401 65.9153 43.2689 66.0049 43.2017C66.0497 43.1681 66.1393 42.8545 66.2009 42.5073C66.3353 41.7793 66.5481 41.2865 66.6881 41.3873C66.7441 41.4321 66.7553 41.4993 66.7273 41.5553C66.7049 41.6113 66.8113 42.0873 66.9737 42.6081C67.1417 43.1289 67.3097 43.6553 67.3377 43.7729C67.3937 43.9689 67.4497 43.9409 67.7969 43.5321C68.0209 43.2801 68.2113 43.0001 68.2337 42.9049C68.2673 42.7705 68.3177 42.7761 68.5137 42.9385C68.7937 43.1737 69.7457 43.5545 69.8185 43.4537C69.8465 43.4201 69.8745 43.0897 69.8745 42.7257L69.8913 42.0537L70.1713 42.1265C70.3225 42.1713 70.6361 42.1657 70.8713 42.1265L71.2969 42.0425L70.9217 41.6953C70.7145 41.5049 70.5017 41.2585 70.4513 41.1465C70.3953 41.0345 70.2049 40.9225 70.0033 40.9057C69.4265 40.8385 68.4129 40.0825 68.4129 39.7297C68.4129 39.6569 68.5529 39.7689 68.7265 39.9817C69.1073 40.4409 69.6337 40.7321 70.0929 40.7321H70.4401L70.2273 40.3625C70.1041 40.1385 69.9921 39.7353 69.9641 39.3937C69.9249 38.8617 69.8801 38.7777 69.4601 38.3857C69.2081 38.1505 68.8889 37.7977 68.7601 37.6017L68.5249 37.2489L68.4017 37.6689C68.3345 37.9041 68.2505 38.0889 68.2225 38.0889C68.1889 38.0889 68.0545 37.9545 67.9425 37.7921C67.8137 37.6241 67.6849 37.4897 67.6625 37.4897C67.6233 37.4897 67.5169 37.7137 67.4105 37.9937L67.2257 38.4809L67.0801 38.2009C66.9961 38.0329 66.8113 37.7641 66.6601 37.5849C66.5089 37.3945 66.4249 37.2489 66.4809 37.2489C66.5369 37.2489 66.7273 37.4393 66.9009 37.6689L67.2201 38.0945L67.3489 37.7809C67.4217 37.6017 67.4497 37.3161 67.4161 37.0865C67.3601 36.7505 67.3713 36.7393 67.4721 36.9465C67.5281 37.0809 67.7129 37.3385 67.8809 37.5065L68.1833 37.8425L68.3905 37.3385C68.5977 36.8345 68.6033 36.8345 68.6929 37.1257C68.8217 37.5289 69.7289 38.5257 70.5017 39.0969C70.6137 39.1865 70.5689 38.8729 70.3505 38.1729C70.2945 37.9881 70.2385 37.6521 70.2385 37.4281C70.2385 37.0921 70.1713 36.9409 69.8465 36.6161C69.3873 36.1457 69.2417 35.8153 69.1521 35.0593C69.1185 34.7513 69.0401 34.4097 68.9729 34.3033C68.8777 34.1353 68.8609 34.2305 68.8889 34.7961C68.9001 35.1881 68.8609 35.6585 68.7993 35.8601L68.6873 36.2185L68.5977 35.9161C68.5417 35.7481 68.3345 35.4681 68.1217 35.2721C67.8977 35.0873 67.7577 34.9025 67.7857 34.8633C67.8137 34.8297 68.0377 34.9977 68.2729 35.2441C68.6369 35.6193 68.7209 35.6585 68.7657 35.4961C68.8217 35.3001 68.7657 34.4545 68.6537 33.8721C68.5977 33.5697 68.5977 33.5697 68.8777 33.9281C69.0793 34.2081 69.1857 34.5217 69.2697 35.0817C69.3817 35.7929 69.4377 35.9217 69.9305 36.4817C70.2273 36.8345 70.4905 37.0977 70.5017 37.0753C70.5241 37.0529 70.5577 36.1569 70.5857 35.0873C70.6417 33.0433 70.5857 32.5561 70.2105 31.9233L70.0201 31.5985L70.3169 31.1673C70.7089 30.6073 70.8881 30.1593 70.9665 29.5433L71.0337 29.0393L70.6977 29.4705C70.4177 29.8177 70.2889 29.8961 69.9697 29.8961C69.6505 29.8961 69.5217 29.8289 69.3145 29.5209C69.0569 29.1569 68.5977 28.8097 68.1609 28.6361C67.9929 28.5801 67.9369 28.6025 67.9369 28.7481C67.9369 28.8601 67.8529 29.1625 67.7409 29.4313L67.5449 29.9241L67.1305 29.3753C66.8729 29.0393 66.5705 28.7817 66.3465 28.7033C65.7697 28.5017 65.7417 28.5185 65.7417 29.0953C65.7417 29.9521 65.4617 30.1145 64.9577 29.5433C64.5825 29.0953 64.2633 29.0057 63.5409 29.1121L62.9809 29.1961L63.0929 29.5321C63.1713 29.8121 63.1489 29.9241 62.9697 30.2433C62.6785 30.7585 62.2977 30.9825 61.7153 30.9825C61.4465 30.9825 61.1105 31.0553 60.9649 31.1505C60.8249 31.2345 60.4721 31.3409 60.1809 31.3745C59.8897 31.4137 59.5817 31.4865 59.4921 31.5257C59.3577 31.5929 59.3409 31.5369 59.3801 31.1225C59.4529 30.4841 59.1225 30.0193 58.5961 30.0193C57.9241 30.0193 57.6161 30.8201 57.8793 31.8785C57.929 32.0574 57.9787 32.3333 58.0127 32.5223L58.0249 32.5897C58.0641 32.7857 58.3609 33.3065 58.7417 33.8049C59.1001 34.2865 59.4361 34.7849 59.4921 34.9137C59.5481 35.0425 59.7329 35.2497 59.9009 35.3729L60.2089 35.5969L60.1697 35.1657C60.1249 34.6841 60.2033 34.6057 60.3937 34.9417C60.4665 35.0705 60.6401 35.2665 60.7857 35.3897C61.0097 35.5689 61.0489 35.5745 61.0489 35.4121C61.0489 35.3001 61.0937 35.0761 61.1497 34.8857L61.2617 34.5497L61.4297 35.0089C61.5305 35.2609 61.8553 35.8377 62.1465 36.2969C62.7177 37.1649 63.0649 38.1449 62.8857 38.3689C62.8129 38.4641 62.6169 38.4529 62.2137 38.3465C61.8945 38.2681 61.5025 38.2233 61.3401 38.2513C61.0041 38.3073 60.9873 38.2513 61.1889 37.9153C61.4017 37.5625 61.3681 37.5065 60.9481 37.5065C60.4609 37.5065 59.2569 37.1929 58.7921 36.9465C58.3441 36.7225 58.2321 36.7785 58.1033 37.3385L57.8625 38.3745L57.7337 38.9345L58.2209 38.8785C58.4897 38.8393 58.8369 38.7665 58.9881 38.6993C59.1449 38.6433 59.2849 38.6097 59.3017 38.6265C59.3185 38.6489 59.2457 38.8729 59.1505 39.1193L58.9601 39.5673L59.2681 39.4889C59.4361 39.4441 59.6881 39.3321 59.8281 39.2425C60.0745 39.0857 60.0913 39.0969 60.2873 39.5057C60.5225 40.0097 60.7129 39.9929 60.7521 39.4497C60.7969 38.9009 60.9369 38.9849 61.2001 39.7185C61.4409 40.4241 61.7041 40.6705 61.7489 40.2561C61.7657 40.1217 61.8945 39.8921 62.0457 39.7521C62.3425 39.4721 62.5665 39.5617 62.6897 39.9985C62.8297 40.4465 62.5329 40.9169 61.6817 41.6113C59.9457 43.0001 58.9489 44.9041 58.6577 47.3233C58.4001 49.5073 59.2065 51.7697 60.8249 53.3937C61.5977 54.1777 62.8297 54.9897 62.7513 54.6817C62.4265 53.3489 62.4377 50.8177 62.7737 50.3865C62.8297 50.3193 62.8073 50.5825 62.7345 50.9689C62.4657 52.4137 62.5833 53.5617 63.2777 56.2553C63.8937 58.6969 63.8153 59.7385 62.9305 60.4217C62.6505 60.6457 62.4601 60.6793 61.6985 60.6681C60.8697 60.6569 60.7801 60.6793 60.5113 60.9593C60.2537 61.2393 59.9233 62.1353 59.9233 62.5497C59.9233 62.7737 60.1081 62.7457 60.4833 62.4601L60.3937 62.4489ZM54.1217 57.9689C54.2113 57.8177 54.2785 57.5769 54.2785 57.4369C54.2785 57.2241 54.3513 57.1681 54.7097 57.1009L55.1409 57.0225L54.8609 56.7145C54.5137 56.3561 54.4801 56.0761 54.7825 56.0761C55.0793 56.0761 55.5889 55.6617 55.6673 55.3481C55.7065 55.2137 55.6841 55.0233 55.6225 54.9225C55.4545 54.6705 55.1353 54.7097 55.0793 54.9897C55.0121 55.2921 54.9113 55.2977 54.6705 54.9897C54.3121 54.5417 54.3009 53.6009 54.6537 53.0521C54.8105 52.7945 54.8105 52.7721 54.5977 52.5145C54.3737 52.2233 54.2057 51.6577 54.3177 51.5233C54.3513 51.4841 54.5305 51.5233 54.7097 51.6017C54.9785 51.7137 55.0849 51.7249 55.1913 51.6017C55.5273 51.2657 55.1633 50.8177 54.6313 50.9185C54.4241 50.9577 54.3401 50.9185 54.3065 50.7729C54.2841 50.6609 54.0993 50.5097 53.8865 50.4369C53.5169 50.3137 53.5113 50.3249 53.5113 50.6609C53.5113 51.0361 53.3433 51.1089 53.0465 50.8681C52.7945 50.6721 52.5537 50.8233 52.5537 51.1761C52.5537 51.5009 52.8057 51.6633 53.2481 51.6241C53.5841 51.5961 53.6009 51.9377 53.2761 52.4193L53.0409 52.7721L53.2257 53.1249C53.5057 53.6457 53.4777 54.5137 53.1697 54.9449L52.9457 55.2809L52.7889 55.0121C52.5761 54.6369 52.2849 54.6649 52.2009 55.0681C52.1449 55.3313 52.2009 55.4489 52.4417 55.7289C52.6097 55.9137 52.8505 56.0649 52.9793 56.0649C53.3041 56.0649 53.2929 56.4009 52.9569 56.7481L52.6937 57.0169L53.1081 57.1009C53.3321 57.1457 53.5113 57.2353 53.5113 57.2969C53.5113 57.5209 53.7913 58.2377 53.8865 58.2377C53.9425 58.2377 54.0545 58.1257 54.1273 57.9745L54.1217 57.9689ZM55.5385 45.8169C56.4681 45.2737 56.5465 43.8905 55.6729 43.5209C55.3089 43.3753 55.0793 43.4649 54.9449 43.7841C54.8329 44.0361 54.9057 44.4897 55.0569 44.4897C55.1017 44.4897 55.1409 44.5681 55.1409 44.6689C55.1409 45.1505 53.7241 45.3689 53.1473 44.9769C52.9457 44.8369 52.8673 44.4841 53.0353 44.4841C53.1473 44.4841 53.2425 44.1145 53.1809 43.8569C53.0913 43.5097 52.8225 43.3865 52.4417 43.5209C51.5737 43.8233 51.6017 45.1785 52.4809 45.7609C53.2089 46.2257 54.7993 46.2537 55.5497 45.8169H55.5385ZM54.9617 44.7529C55.0177 44.6969 54.9953 44.5849 54.9057 44.4897C54.7097 44.2825 54.7209 43.9745 54.9337 43.6217C55.1017 43.3585 55.1185 42.9665 55.1745 38.9961C55.2697 32.1417 55.6505 26.9953 56.1545 25.7633C56.3561 25.2705 56.3225 25.2593 55.8073 25.7353C55.1353 26.3401 54.6313 27.1353 54.1833 28.2553C53.3321 30.3833 53.0353 33.2505 53.0353 39.3657C53.0353 42.8377 53.0577 43.2857 53.2033 43.6217C53.3489 43.9241 53.3545 44.0417 53.2593 44.3721C53.1921 44.5849 53.1641 44.7921 53.1921 44.8201C53.3825 45.0665 54.7601 45.0049 54.9673 44.7473L54.9617 44.7529ZM51.7977 19.7992H46.1977V25.3992H51.7977V19.7992ZM90.9977 19.7992H85.3977V25.3992H90.9977V19.7992ZM51.7977 64.5992H46.1977V70.1992H51.7977V64.5992ZM90.9977 64.5992H85.3977V70.1992H90.9977V64.5992Z" fill="#AF010D"/>
</g>
</g>
<defs>
<filter id="filter0_dd_1104_22235" x="0.142858" y="0.714286" width="97.7143" height="97.7143" filterUnits="userSpaceOnUse" color-interpolation-filters="sRGB">
<feFlood flood-opacity="0" result="BackgroundImageFix"/>
<feColorMatrix in="SourceAlpha" type="matrix" values="0 0 0 0 0 0 0 0 0 0 0 0 0 0 0 0 0 0 127 0" result="hardAlpha"/>
<feOffset dy="4.57143"/>
<feGaussianBlur stdDeviation="3.42857"/>
<feComposite in2="hardAlpha" operator="out"/>
<feColorMatrix type="matrix" values="0 0 0 0 0.258824 0 0 0 0 0.278431 0 0 0 0 0.298039 0 0 0 0.08 0"/>
<feBlend mode="normal" in2="BackgroundImageFix" result="effect1_dropShadow_1104_22235"/>
<feColorMatrix in="SourceAlpha" type="matrix" values="0 0 0 0 0 0 0 0 0 0 0 0 0 0 0 0 0 0 127 0" result="hardAlpha"/>
<feOffset/>
<feGaussianBlur stdDeviation="0.285714"/>
<feComposite in2="hardAlpha" operator="out"/>
<feColorMatrix type="matrix" values="0 0 0 0 0.258824 0 0 0 0 0.278431 0 0 0 0 0.298039 0 0 0 0.32 0"/>
<feBlend mode="normal" in2="effect1_dropShadow_1104_22235" result="effect2_dropShadow_1104_22235"/>
<feBlend mode="normal" in="SourceGraphic" in2="effect2_dropShadow_1104_22235" result="shape"/>
</filter>
<clipPath id="clip0_1104_22235">
<rect x="7" y="3" width="84" height="84" rx="42" fill="white"/>
</clipPath>
</defs>
</svg>
