<svg width="98" height="99" viewBox="0 0 98 99" fill="none" xmlns="http://www.w3.org/2000/svg">
<g filter="url(#filter0_dd_1104_21900)">
<g clip-path="url(#clip0_1104_21900)">
<rect x="7" y="3" width="84" height="84" rx="42" fill="white"/>
<path fill-rule="evenodd" clip-rule="evenodd" d="M-9.79956 64.6H107.8V87H-9.79956V64.6ZM-9.79956 3H107.8V25.4H-9.79956V3Z" fill="#0A6A30"/>
<path opacity="0.2" fill-rule="evenodd" clip-rule="evenodd" d="M-9.79956 64.6H107.8V87H-9.79956V64.6ZM-9.79956 3H107.8V25.4H-9.79956V3Z" fill="#1A47B8"/>
<path fill-rule="evenodd" clip-rule="evenodd" d="M-9.79956 31H107.8V59H-9.79956V31Z" fill="#AF010D"/>
<path fill-rule="evenodd" clip-rule="evenodd" d="M49.0004 52L40.7684 56.3288L42.3364 47.1616L35.6836 40.6656L44.8844 39.3384L49.0004 31L53.1164 39.344L62.3172 40.6712L55.6532 47.1672L57.2212 56.3288" fill="#FFDA2C"/>
</g>
</g>
<defs>
<filter id="filter0_dd_1104_21900" x="0.142858" y="0.714286" width="97.7143" height="97.7143" filterUnits="userSpaceOnUse" color-interpolation-filters="sRGB">
<feFlood flood-opacity="0" result="BackgroundImageFix"/>
<feColorMatrix in="SourceAlpha" type="matrix" values="0 0 0 0 0 0 0 0 0 0 0 0 0 0 0 0 0 0 127 0" result="hardAlpha"/>
<feOffset dy="4.57143"/>
<feGaussianBlur stdDeviation="3.42857"/>
<feComposite in2="hardAlpha" operator="out"/>
<feColorMatrix type="matrix" values="0 0 0 0 0.258824 0 0 0 0 0.278431 0 0 0 0 0.298039 0 0 0 0.08 0"/>
<feBlend mode="normal" in2="BackgroundImageFix" result="effect1_dropShadow_1104_21900"/>
<feColorMatrix in="SourceAlpha" type="matrix" values="0 0 0 0 0 0 0 0 0 0 0 0 0 0 0 0 0 0 127 0" result="hardAlpha"/>
<feOffset/>
<feGaussianBlur stdDeviation="0.285714"/>
<feComposite in2="hardAlpha" operator="out"/>
<feColorMatrix type="matrix" values="0 0 0 0 0.258824 0 0 0 0 0.278431 0 0 0 0 0.298039 0 0 0 0.32 0"/>
<feBlend mode="normal" in2="effect1_dropShadow_1104_21900" result="effect2_dropShadow_1104_21900"/>
<feBlend mode="normal" in="SourceGraphic" in2="effect2_dropShadow_1104_21900" result="shape"/>
</filter>
<clipPath id="clip0_1104_21900">
<rect x="7" y="3" width="84" height="84" rx="42" fill="white"/>
</clipPath>
</defs>
</svg>
