<svg width="98" height="99" viewBox="0 0 98 99" fill="none" xmlns="http://www.w3.org/2000/svg">
<g filter="url(#filter0_dd_1104_22404)">
<g clip-path="url(#clip0_1104_22404)">
<rect x="7" y="3" width="84" height="84" rx="42" fill="white"/>
<path fill-rule="evenodd" clip-rule="evenodd" d="M-9.80078 59H107.799V87H-9.80078V59Z" fill="#151515"/>
<path fill-rule="evenodd" clip-rule="evenodd" d="M-9.80078 3H107.799V31H-9.80078V3Z" fill="#AF010D"/>
<path fill-rule="evenodd" clip-rule="evenodd" d="M26.6 52.0001L18.368 56.3289L19.936 47.1617L13.2832 40.6657L22.484 39.3385L26.6 31.0001L30.716 39.3441L39.9168 40.6713L33.2528 47.1673L34.8208 56.3289L26.6 52.0001ZM71.4 52.0001L63.168 56.3289L64.736 47.1617L58.0832 40.6657L67.284 39.3385L71.4 31.0001L75.516 39.3441L84.7168 40.6713L78.0528 47.1673L79.6208 56.3289" fill="#249F58"/>
</g>
</g>
<defs>
<filter id="filter0_dd_1104_22404" x="0.142858" y="0.714286" width="97.7143" height="97.7143" filterUnits="userSpaceOnUse" color-interpolation-filters="sRGB">
<feFlood flood-opacity="0" result="BackgroundImageFix"/>
<feColorMatrix in="SourceAlpha" type="matrix" values="0 0 0 0 0 0 0 0 0 0 0 0 0 0 0 0 0 0 127 0" result="hardAlpha"/>
<feOffset dy="4.57143"/>
<feGaussianBlur stdDeviation="3.42857"/>
<feComposite in2="hardAlpha" operator="out"/>
<feColorMatrix type="matrix" values="0 0 0 0 0.258824 0 0 0 0 0.278431 0 0 0 0 0.298039 0 0 0 0.08 0"/>
<feBlend mode="normal" in2="BackgroundImageFix" result="effect1_dropShadow_1104_22404"/>
<feColorMatrix in="SourceAlpha" type="matrix" values="0 0 0 0 0 0 0 0 0 0 0 0 0 0 0 0 0 0 127 0" result="hardAlpha"/>
<feOffset/>
<feGaussianBlur stdDeviation="0.285714"/>
<feComposite in2="hardAlpha" operator="out"/>
<feColorMatrix type="matrix" values="0 0 0 0 0.258824 0 0 0 0 0.278431 0 0 0 0 0.298039 0 0 0 0.32 0"/>
<feBlend mode="normal" in2="effect1_dropShadow_1104_22404" result="effect2_dropShadow_1104_22404"/>
<feBlend mode="normal" in="SourceGraphic" in2="effect2_dropShadow_1104_22404" result="shape"/>
</filter>
<clipPath id="clip0_1104_22404">
<rect x="7" y="3" width="84" height="84" rx="42" fill="white"/>
</clipPath>
</defs>
</svg>
