<svg width="98" height="99" viewBox="0 0 98 99" fill="none" xmlns="http://www.w3.org/2000/svg">
<g filter="url(#filter0_dd_1104_22077)">
<rect x="7" y="3" width="84" height="84" rx="42" fill="#FF0000"/>
<path d="M7 3H55V45.2857H7V3Z" fill="#000095"/>
<path d="M30.1782 15.3097C30.362 14.8116 31.0665 14.8116 31.2504 15.3097L32.452 18.5656C32.5674 18.8782 32.9246 19.0262 33.2272 18.8867L36.3792 17.4341C36.8614 17.2119 37.3595 17.71 37.1373 18.1923L35.6847 21.3442C35.5453 21.6468 35.6933 22.0041 36.0059 22.1194L39.2617 23.3211C39.7598 23.5049 39.7598 24.2094 39.2617 24.3932L36.0059 25.5948C35.6933 25.7102 35.5453 26.0675 35.6847 26.3701L37.1373 29.522C37.3595 30.0042 36.8614 30.5024 36.3792 30.2802L33.2272 28.8276C32.9246 28.6881 32.5674 28.8361 32.452 29.1487L31.2504 32.4046C31.0665 32.9027 30.362 32.9027 30.1782 32.4046L28.9766 29.1487C28.8612 28.8361 28.5039 28.6881 28.2013 28.8276L25.0494 30.2802C24.5672 30.5024 24.069 30.0042 24.2913 29.522L25.7438 26.3701C25.8833 26.0675 25.7353 25.7102 25.4227 25.5948L22.1668 24.3932C21.6687 24.2094 21.6687 23.5049 22.1668 23.3211L25.4227 22.1194C25.7353 22.0041 25.8833 21.6468 25.7438 21.3442L24.2913 18.1923C24.069 17.71 24.5672 17.2119 25.0494 17.4341L28.2013 18.8867C28.5039 19.0262 28.8612 18.8782 28.9766 18.5656L30.1782 15.3097Z" fill="white"/>
</g>
<defs>
<filter id="filter0_dd_1104_22077" x="0.142858" y="0.714286" width="97.7143" height="97.7143" filterUnits="userSpaceOnUse" color-interpolation-filters="sRGB">
<feFlood flood-opacity="0" result="BackgroundImageFix"/>
<feColorMatrix in="SourceAlpha" type="matrix" values="0 0 0 0 0 0 0 0 0 0 0 0 0 0 0 0 0 0 127 0" result="hardAlpha"/>
<feOffset dy="4.57143"/>
<feGaussianBlur stdDeviation="3.42857"/>
<feComposite in2="hardAlpha" operator="out"/>
<feColorMatrix type="matrix" values="0 0 0 0 0.258824 0 0 0 0 0.278431 0 0 0 0 0.298039 0 0 0 0.08 0"/>
<feBlend mode="normal" in2="BackgroundImageFix" result="effect1_dropShadow_1104_22077"/>
<feColorMatrix in="SourceAlpha" type="matrix" values="0 0 0 0 0 0 0 0 0 0 0 0 0 0 0 0 0 0 127 0" result="hardAlpha"/>
<feOffset/>
<feGaussianBlur stdDeviation="0.285714"/>
<feComposite in2="hardAlpha" operator="out"/>
<feColorMatrix type="matrix" values="0 0 0 0 0.258824 0 0 0 0 0.278431 0 0 0 0 0.298039 0 0 0 0.32 0"/>
<feBlend mode="normal" in2="effect1_dropShadow_1104_22077" result="effect2_dropShadow_1104_22077"/>
<feBlend mode="normal" in="SourceGraphic" in2="effect2_dropShadow_1104_22077" result="shape"/>
</filter>
</defs>
</svg>
