<svg width="98" height="99" viewBox="0 0 98 99" fill="none" xmlns="http://www.w3.org/2000/svg">
<g filter="url(#filter0_dd_1104_22630)">
<g clip-path="url(#clip0_1104_22630)">
<rect x="7" y="3" width="84" height="84" rx="42" fill="white"/>
<path fill-rule="evenodd" clip-rule="evenodd" d="M-9.80078 59H107.799V87H-9.80078V59Z" fill="#249F58"/>
<path fill-rule="evenodd" clip-rule="evenodd" d="M57.2316 43.32C57.3436 43.8632 57.3996 44.4232 57.3996 45C57.3996 49.6368 53.6364 53.4 48.9996 53.4C44.3628 53.4 40.5996 49.6368 40.5996 45C40.5996 44.4232 40.6556 43.8632 40.7676 43.32C41.5516 45.8736 44.934 47.8 48.9996 47.8C53.0652 47.8 56.4476 45.8736 57.2316 43.32ZM48.9996 42.2C50.5452 42.2 51.7996 40.9456 51.7996 39.4C51.7996 37.8544 50.5452 36.6 48.9996 36.6C47.454 36.6 46.1996 37.8544 46.1996 39.4C46.1996 40.9456 47.454 42.2 48.9996 42.2Z" fill="#FFDA2C"/>
<path fill-rule="evenodd" clip-rule="evenodd" d="M-9.80078 3H107.799V31H-9.80078V3Z" fill="#AF010D"/>
</g>
</g>
<defs>
<filter id="filter0_dd_1104_22630" x="0.142858" y="0.714286" width="97.7143" height="97.7143" filterUnits="userSpaceOnUse" color-interpolation-filters="sRGB">
<feFlood flood-opacity="0" result="BackgroundImageFix"/>
<feColorMatrix in="SourceAlpha" type="matrix" values="0 0 0 0 0 0 0 0 0 0 0 0 0 0 0 0 0 0 127 0" result="hardAlpha"/>
<feOffset dy="4.57143"/>
<feGaussianBlur stdDeviation="3.42857"/>
<feComposite in2="hardAlpha" operator="out"/>
<feColorMatrix type="matrix" values="0 0 0 0 0.258824 0 0 0 0 0.278431 0 0 0 0 0.298039 0 0 0 0.08 0"/>
<feBlend mode="normal" in2="BackgroundImageFix" result="effect1_dropShadow_1104_22630"/>
<feColorMatrix in="SourceAlpha" type="matrix" values="0 0 0 0 0 0 0 0 0 0 0 0 0 0 0 0 0 0 127 0" result="hardAlpha"/>
<feOffset/>
<feGaussianBlur stdDeviation="0.285714"/>
<feComposite in2="hardAlpha" operator="out"/>
<feColorMatrix type="matrix" values="0 0 0 0 0.258824 0 0 0 0 0.278431 0 0 0 0 0.298039 0 0 0 0.32 0"/>
<feBlend mode="normal" in2="effect1_dropShadow_1104_22630" result="effect2_dropShadow_1104_22630"/>
<feBlend mode="normal" in="SourceGraphic" in2="effect2_dropShadow_1104_22630" result="shape"/>
</filter>
<clipPath id="clip0_1104_22630">
<rect x="7" y="3" width="84" height="84" rx="42" fill="white"/>
</clipPath>
</defs>
</svg>
