<svg width="98" height="99" viewBox="0 0 98 99" fill="none" xmlns="http://www.w3.org/2000/svg">
<g filter="url(#filter0_dd_1104_22027)">
<g clip-path="url(#clip0_1104_22027)">
<rect x="7" y="3" width="84" height="84" rx="42" fill="#FFDA2C"/>
<path fill-rule="evenodd" clip-rule="evenodd" d="M46.198 3H124.598V19.8H46.198V3ZM46.198 36.6H124.598V53.4H46.198V36.6ZM6.99805 70.2H124.598V87H6.99805V70.2Z" fill="#0A6A30"/>
<path fill-rule="evenodd" clip-rule="evenodd" d="M6.99805 3H57.398V53.4H6.99805V3Z" fill="#F93939"/>
<path fill-rule="evenodd" clip-rule="evenodd" d="M31.8622 36.0235L23.4174 40.4643L25.0302 31.0563L18.1982 24.4091L27.6398 23.0371L31.8622 14.4803L36.0846 23.0315L45.5262 24.4035L38.6942 31.0675L40.307 40.4643" fill="white"/>
</g>
</g>
<defs>
<filter id="filter0_dd_1104_22027" x="0.142858" y="0.714286" width="97.7143" height="97.7143" filterUnits="userSpaceOnUse" color-interpolation-filters="sRGB">
<feFlood flood-opacity="0" result="BackgroundImageFix"/>
<feColorMatrix in="SourceAlpha" type="matrix" values="0 0 0 0 0 0 0 0 0 0 0 0 0 0 0 0 0 0 127 0" result="hardAlpha"/>
<feOffset dy="4.57143"/>
<feGaussianBlur stdDeviation="3.42857"/>
<feComposite in2="hardAlpha" operator="out"/>
<feColorMatrix type="matrix" values="0 0 0 0 0.258824 0 0 0 0 0.278431 0 0 0 0 0.298039 0 0 0 0.08 0"/>
<feBlend mode="normal" in2="BackgroundImageFix" result="effect1_dropShadow_1104_22027"/>
<feColorMatrix in="SourceAlpha" type="matrix" values="0 0 0 0 0 0 0 0 0 0 0 0 0 0 0 0 0 0 127 0" result="hardAlpha"/>
<feOffset/>
<feGaussianBlur stdDeviation="0.285714"/>
<feComposite in2="hardAlpha" operator="out"/>
<feColorMatrix type="matrix" values="0 0 0 0 0.258824 0 0 0 0 0.278431 0 0 0 0 0.298039 0 0 0 0.32 0"/>
<feBlend mode="normal" in2="effect1_dropShadow_1104_22027" result="effect2_dropShadow_1104_22027"/>
<feBlend mode="normal" in="SourceGraphic" in2="effect2_dropShadow_1104_22027" result="shape"/>
</filter>
<clipPath id="clip0_1104_22027">
<rect x="7" y="3" width="84" height="84" rx="42" fill="white"/>
</clipPath>
</defs>
</svg>
