<svg width="98" height="99" viewBox="0 0 98 99" fill="none" xmlns="http://www.w3.org/2000/svg">
<g filter="url(#filter0_dd_1104_22488)">
<rect x="7" y="3" width="84" height="84" rx="42" fill="#F93939"/>
<path d="M48.9994 64.5994C59.8242 64.5994 68.5994 55.8242 68.5994 44.9994C68.5994 34.1746 59.8242 25.3994 48.9994 25.3994C38.1746 25.3994 29.3994 34.1746 29.3994 44.9994C29.3994 55.8242 38.1746 64.5994 48.9994 64.5994Z" fill="white"/>
<path fill-rule="evenodd" clip-rule="evenodd" d="M57.3994 42.1994H62.9994V47.7994H57.3994V42.1994Z" fill="#F93939"/>
<path fill-rule="evenodd" clip-rule="evenodd" d="M60.2001 53.3994C57.6465 56.7986 53.5809 58.9994 49.0001 58.9994C41.2721 58.9994 35.0001 52.7274 35.0001 44.9994C35.0001 37.2714 41.2721 30.9994 49.0001 30.9994C53.5809 30.9994 57.6465 33.2002 60.2001 36.5994H51.8001C47.1633 36.5994 43.4001 40.3626 43.4001 44.9994C43.4001 49.6362 47.1633 53.3994 51.8001 53.3994H60.2001Z" fill="#F93939"/>
</g>
<defs>
<filter id="filter0_dd_1104_22488" x="0.142858" y="0.714286" width="97.7143" height="97.7143" filterUnits="userSpaceOnUse" color-interpolation-filters="sRGB">
<feFlood flood-opacity="0" result="BackgroundImageFix"/>
<feColorMatrix in="SourceAlpha" type="matrix" values="0 0 0 0 0 0 0 0 0 0 0 0 0 0 0 0 0 0 127 0" result="hardAlpha"/>
<feOffset dy="4.57143"/>
<feGaussianBlur stdDeviation="3.42857"/>
<feComposite in2="hardAlpha" operator="out"/>
<feColorMatrix type="matrix" values="0 0 0 0 0.258824 0 0 0 0 0.278431 0 0 0 0 0.298039 0 0 0 0.08 0"/>
<feBlend mode="normal" in2="BackgroundImageFix" result="effect1_dropShadow_1104_22488"/>
<feColorMatrix in="SourceAlpha" type="matrix" values="0 0 0 0 0 0 0 0 0 0 0 0 0 0 0 0 0 0 127 0" result="hardAlpha"/>
<feOffset/>
<feGaussianBlur stdDeviation="0.285714"/>
<feComposite in2="hardAlpha" operator="out"/>
<feColorMatrix type="matrix" values="0 0 0 0 0.258824 0 0 0 0 0.278431 0 0 0 0 0.298039 0 0 0 0.32 0"/>
<feBlend mode="normal" in2="effect1_dropShadow_1104_22488" result="effect2_dropShadow_1104_22488"/>
<feBlend mode="normal" in="SourceGraphic" in2="effect2_dropShadow_1104_22488" result="shape"/>
</filter>
</defs>
</svg>
