<svg width="98" height="99" viewBox="0 0 98 99" fill="none" xmlns="http://www.w3.org/2000/svg">
<g filter="url(#filter0_dd_1104_22822)">
<g clip-path="url(#clip0_1104_22822)">
<rect x="7" y="3" width="84" height="84" rx="42" fill="#249F58"/>
<path fill-rule="evenodd" clip-rule="evenodd" d="M7 3H12.6V87H7V3ZM18.2 3H23.8V87H18.2V3ZM29.4 3H35V87H29.4V3Z" fill="#D4AF2C"/>
<path fill-rule="evenodd" clip-rule="evenodd" d="M23.8 3L35 11.4L23.8 19.8V3ZM23.8 19.8L35 28.2L23.8 36.6V19.8ZM23.8 36.6L35 45L23.8 53.4V36.6ZM23.8 53.4L35 61.8L23.8 70.2V53.4ZM23.8 70.2L35 78.6L23.8 87V70.2ZM18.2 3L7 11.4L18.2 19.8V3ZM18.2 19.8L7 28.2L18.2 36.6V19.8ZM18.2 36.6L7 45L18.2 53.4V36.6ZM18.2 53.4L7 61.8L18.2 70.2V53.4ZM18.2 70.2L7 78.6L18.2 87V70.2ZM18.2 3H23.8V14.2H18.2V3ZM18.2 75.8H23.8V87H18.2V75.8ZM18.2 31H23.8V42.2H18.2V31ZM18.2 19.8H23.8V25.4H18.2V19.8ZM18.2 64.6H23.8V70.2H18.2V64.6ZM18.2 47.8H23.8V59H18.2V47.8Z" fill="#AE6A3E"/>
<path fill-rule="evenodd" clip-rule="evenodd" d="M58.7208 19.8792C59.208 19.8232 59.7008 19.8008 60.1992 19.8008C67.9272 19.8008 74.1992 26.0728 74.1992 33.8008C74.1992 41.5288 67.9272 47.8008 60.1992 47.8008C52.4712 47.8008 46.1992 41.5288 46.1992 33.8008C46.1992 33.2968 46.2272 32.8096 46.2776 32.3224C46.9272 37.8888 51.6536 42.2008 57.3992 42.2008C63.5872 42.2008 68.5992 37.1888 68.5992 31.0008C68.5992 25.2608 64.2872 20.5288 58.7208 19.8792ZM51.7992 25.4008H57.3992V31.0008H51.7992V25.4008Z" fill="white"/>
<path opacity="0.5" fill-rule="evenodd" clip-rule="evenodd" d="M40.6016 25.3992H46.2016V30.9992H40.6016V25.3992ZM51.8016 14.1992H57.4016V19.7992H51.8016V14.1992Z" fill="white"/>
</g>
</g>
<defs>
<filter id="filter0_dd_1104_22822" x="0.142858" y="0.714286" width="97.7143" height="97.7143" filterUnits="userSpaceOnUse" color-interpolation-filters="sRGB">
<feFlood flood-opacity="0" result="BackgroundImageFix"/>
<feColorMatrix in="SourceAlpha" type="matrix" values="0 0 0 0 0 0 0 0 0 0 0 0 0 0 0 0 0 0 127 0" result="hardAlpha"/>
<feOffset dy="4.57143"/>
<feGaussianBlur stdDeviation="3.42857"/>
<feComposite in2="hardAlpha" operator="out"/>
<feColorMatrix type="matrix" values="0 0 0 0 0.258824 0 0 0 0 0.278431 0 0 0 0 0.298039 0 0 0 0.08 0"/>
<feBlend mode="normal" in2="BackgroundImageFix" result="effect1_dropShadow_1104_22822"/>
<feColorMatrix in="SourceAlpha" type="matrix" values="0 0 0 0 0 0 0 0 0 0 0 0 0 0 0 0 0 0 127 0" result="hardAlpha"/>
<feOffset/>
<feGaussianBlur stdDeviation="0.285714"/>
<feComposite in2="hardAlpha" operator="out"/>
<feColorMatrix type="matrix" values="0 0 0 0 0.258824 0 0 0 0 0.278431 0 0 0 0 0.298039 0 0 0 0.32 0"/>
<feBlend mode="normal" in2="effect1_dropShadow_1104_22822" result="effect2_dropShadow_1104_22822"/>
<feBlend mode="normal" in="SourceGraphic" in2="effect2_dropShadow_1104_22822" result="shape"/>
</filter>
<clipPath id="clip0_1104_22822">
<rect x="7" y="3" width="84" height="84" rx="42" fill="white"/>
</clipPath>
</defs>
</svg>
