<svg width="98" height="99" viewBox="0 0 98 99" fill="none" xmlns="http://www.w3.org/2000/svg">
<g filter="url(#filter0_dd_1104_22798)">
<g clip-path="url(#clip0_1104_22798)">
<rect x="7" y="3" width="84" height="84" rx="42" fill="#FFDA2C"/>
<path fill-rule="evenodd" clip-rule="evenodd" d="M-9.7998 3H107.8V14.2H-9.7998V3Z" fill="#151515"/>
<path fill-rule="evenodd" clip-rule="evenodd" d="M-9.7998 25.3998H107.8V42.1998H-9.7998V25.3998Z" fill="#F93939"/>
<path fill-rule="evenodd" clip-rule="evenodd" d="M-9.7998 42.1998H107.8V58.9998H-9.7998V42.1998Z" fill="#151515"/>
<path d="M46.1993 58.9998C55.4777 58.9998 62.9993 51.4782 62.9993 42.1998C62.9993 32.9214 55.4777 25.3998 46.1993 25.3998C36.9209 25.3998 29.3993 32.9214 29.3993 42.1998C29.3993 51.4782 36.9209 58.9998 46.1993 58.9998Z" fill="white"/>
<path fill-rule="evenodd" clip-rule="evenodd" d="M47.3222 25.3998L42.8422 42.1998L47.3222 53.3998L51.8022 42.1998V58.9998L56.2822 42.1998L51.8022 36.5998L47.3222 42.1998V25.3998Z" fill="#151515"/>
<path d="M-9.7998 70.1999H107.8V86.9999H-9.7998V70.1999Z" fill="#F93939"/>
</g>
</g>
<defs>
<filter id="filter0_dd_1104_22798" x="0.142858" y="0.714286" width="97.7143" height="97.7143" filterUnits="userSpaceOnUse" color-interpolation-filters="sRGB">
<feFlood flood-opacity="0" result="BackgroundImageFix"/>
<feColorMatrix in="SourceAlpha" type="matrix" values="0 0 0 0 0 0 0 0 0 0 0 0 0 0 0 0 0 0 127 0" result="hardAlpha"/>
<feOffset dy="4.57143"/>
<feGaussianBlur stdDeviation="3.42857"/>
<feComposite in2="hardAlpha" operator="out"/>
<feColorMatrix type="matrix" values="0 0 0 0 0.258824 0 0 0 0 0.278431 0 0 0 0 0.298039 0 0 0 0.08 0"/>
<feBlend mode="normal" in2="BackgroundImageFix" result="effect1_dropShadow_1104_22798"/>
<feColorMatrix in="SourceAlpha" type="matrix" values="0 0 0 0 0 0 0 0 0 0 0 0 0 0 0 0 0 0 127 0" result="hardAlpha"/>
<feOffset/>
<feGaussianBlur stdDeviation="0.285714"/>
<feComposite in2="hardAlpha" operator="out"/>
<feColorMatrix type="matrix" values="0 0 0 0 0.258824 0 0 0 0 0.278431 0 0 0 0 0.298039 0 0 0 0.32 0"/>
<feBlend mode="normal" in2="effect1_dropShadow_1104_22798" result="effect2_dropShadow_1104_22798"/>
<feBlend mode="normal" in="SourceGraphic" in2="effect2_dropShadow_1104_22798" result="shape"/>
</filter>
<clipPath id="clip0_1104_22798">
<rect x="7" y="3" width="84" height="84" rx="42" fill="white"/>
</clipPath>
</defs>
</svg>
