<svg width="98" height="99" viewBox="0 0 98 99" fill="none" xmlns="http://www.w3.org/2000/svg">
<g filter="url(#filter0_dd_1104_22442)">
<g clip-path="url(#clip0_1104_22442)">
<rect x="7" y="3" width="84" height="84" rx="42" fill="#1A47B8"/>
<path fill-rule="evenodd" clip-rule="evenodd" d="M2.70946 3H-9.80078V17L95.2211 87L107.799 87V73L2.70946 3Z" fill="white"/>
<path d="M-5.62823 3L107.799 78.7984V87L103.724 87L-9.80078 11.1231V3H-5.62823Z" fill="#F93939"/>
<path fill-rule="evenodd" clip-rule="evenodd" d="M96.5992 3H107.799V17C107.799 17 35.0541 63.6371 1.39922 87H-9.80078V73L96.5992 3Z" fill="white"/>
<path d="M107.799 3H104.001L-9.80078 78.8637V87H-5.62823L107.799 11.1845V3Z" fill="#F93939"/>
<path fill-rule="evenodd" clip-rule="evenodd" d="M32.9668 3H65.1294V28.9102H107.799V61.0727H65.1294V87H32.9668V61.0727H-9.80078V28.9102H32.9668V3Z" fill="white"/>
<path fill-rule="evenodd" clip-rule="evenodd" d="M39.715 3H58.2834V35.3077H107.799V54.6923H58.2834V87H39.715V54.6923H-9.80078V35.3077H39.715V3Z" fill="#F93939"/>
</g>
</g>
<defs>
<filter id="filter0_dd_1104_22442" x="0.142858" y="0.714286" width="97.7143" height="97.7143" filterUnits="userSpaceOnUse" color-interpolation-filters="sRGB">
<feFlood flood-opacity="0" result="BackgroundImageFix"/>
<feColorMatrix in="SourceAlpha" type="matrix" values="0 0 0 0 0 0 0 0 0 0 0 0 0 0 0 0 0 0 127 0" result="hardAlpha"/>
<feOffset dy="4.57143"/>
<feGaussianBlur stdDeviation="3.42857"/>
<feComposite in2="hardAlpha" operator="out"/>
<feColorMatrix type="matrix" values="0 0 0 0 0.258824 0 0 0 0 0.278431 0 0 0 0 0.298039 0 0 0 0.08 0"/>
<feBlend mode="normal" in2="BackgroundImageFix" result="effect1_dropShadow_1104_22442"/>
<feColorMatrix in="SourceAlpha" type="matrix" values="0 0 0 0 0 0 0 0 0 0 0 0 0 0 0 0 0 0 127 0" result="hardAlpha"/>
<feOffset/>
<feGaussianBlur stdDeviation="0.285714"/>
<feComposite in2="hardAlpha" operator="out"/>
<feColorMatrix type="matrix" values="0 0 0 0 0.258824 0 0 0 0 0.278431 0 0 0 0 0.298039 0 0 0 0.32 0"/>
<feBlend mode="normal" in2="effect1_dropShadow_1104_22442" result="effect2_dropShadow_1104_22442"/>
<feBlend mode="normal" in="SourceGraphic" in2="effect2_dropShadow_1104_22442" result="shape"/>
</filter>
<clipPath id="clip0_1104_22442">
<rect x="7" y="3" width="84" height="84" rx="42" fill="white"/>
</clipPath>
</defs>
</svg>
