<svg width="98" height="99" viewBox="0 0 98 99" fill="none" xmlns="http://www.w3.org/2000/svg">
<g filter="url(#filter0_dd_1104_21983)">
<g clip-path="url(#clip0_1104_21983)">
<rect x="7" y="3" width="84" height="84" rx="42" fill="#F93939"/>
<path fill-rule="evenodd" clip-rule="evenodd" d="M-4.19922 64.5999H113.401V86.9999H-4.19922V64.5999Z" fill="#00B731"/>
<path fill-rule="evenodd" clip-rule="evenodd" d="M-4.19922 3H113.401V25.4H-4.19922V3Z" fill="#03BCDB"/>
<path fill-rule="evenodd" clip-rule="evenodd" d="M7.00084 30.9999H124.601V58.9999H7.00084V30.9999ZM35.0008 24.9239C34.1272 25.2319 33.1808 25.3999 32.2008 25.3999C27.564 25.3999 23.8008 21.6367 23.8008 16.9999C23.8008 12.3631 27.564 8.59989 32.2008 8.59989C33.1808 8.59989 34.1272 8.76789 35.0008 9.07589C31.736 10.2295 29.4008 13.3431 29.4008 16.9999C29.4008 20.6567 31.736 23.7759 35.0008 24.9239Z" fill="white"/>
<path fill-rule="evenodd" clip-rule="evenodd" d="M40.6004 14.1999H46.2004V19.7999H40.6004V14.1999ZM46.2004 8.59989H51.8004V14.1999H46.2004V8.59989ZM51.8004 14.1999H57.4004V19.7999H51.8004V14.1999ZM57.4004 8.59989H63.0004V14.1999H57.4004V8.59989ZM63.0004 14.1999H68.6004V19.7999H63.0004V14.1999ZM57.4004 19.7999H63.0004V25.3999H57.4004V19.7999ZM46.2004 19.7999H51.8004V25.3999H46.2004V19.7999Z" fill="#1A47B8"/>
<path d="M7.00084 30.9999L35.0008 30.9999V58.9999L7.00084 58.9999V30.9999Z" fill="white"/>
</g>
</g>
<defs>
<filter id="filter0_dd_1104_21983" x="0.142858" y="0.714286" width="97.7143" height="97.7143" filterUnits="userSpaceOnUse" color-interpolation-filters="sRGB">
<feFlood flood-opacity="0" result="BackgroundImageFix"/>
<feColorMatrix in="SourceAlpha" type="matrix" values="0 0 0 0 0 0 0 0 0 0 0 0 0 0 0 0 0 0 127 0" result="hardAlpha"/>
<feOffset dy="4.57143"/>
<feGaussianBlur stdDeviation="3.42857"/>
<feComposite in2="hardAlpha" operator="out"/>
<feColorMatrix type="matrix" values="0 0 0 0 0.258824 0 0 0 0 0.278431 0 0 0 0 0.298039 0 0 0 0.08 0"/>
<feBlend mode="normal" in2="BackgroundImageFix" result="effect1_dropShadow_1104_21983"/>
<feColorMatrix in="SourceAlpha" type="matrix" values="0 0 0 0 0 0 0 0 0 0 0 0 0 0 0 0 0 0 127 0" result="hardAlpha"/>
<feOffset/>
<feGaussianBlur stdDeviation="0.285714"/>
<feComposite in2="hardAlpha" operator="out"/>
<feColorMatrix type="matrix" values="0 0 0 0 0.258824 0 0 0 0 0.278431 0 0 0 0 0.298039 0 0 0 0.32 0"/>
<feBlend mode="normal" in2="effect1_dropShadow_1104_21983" result="effect2_dropShadow_1104_21983"/>
<feBlend mode="normal" in="SourceGraphic" in2="effect2_dropShadow_1104_21983" result="shape"/>
</filter>
<clipPath id="clip0_1104_21983">
<rect x="7" y="3" width="84" height="84" rx="42" fill="white"/>
</clipPath>
</defs>
</svg>
