<svg width="98" height="99" viewBox="0 0 98 99" fill="none" xmlns="http://www.w3.org/2000/svg">
<g filter="url(#filter0_dd_1104_21737)">
<g clip-path="url(#clip0_1104_21737)">
<rect x="7" y="3" width="84" height="84" rx="42" fill="#249F58"/>
<path fill-rule="evenodd" clip-rule="evenodd" d="M6.99902 14.2002H90.999V75.8002H6.99902V14.2002Z" fill="#FFDA2C"/>
<path fill-rule="evenodd" clip-rule="evenodd" d="M6.99902 25.3994H90.999V64.5994H6.99902V25.3994Z" fill="#F93939"/>
<path fill-rule="evenodd" clip-rule="evenodd" d="M6.99902 36.5996H90.999V53.3996H6.99902V36.5996Z" fill="#151515"/>
<path fill-rule="evenodd" clip-rule="evenodd" d="M10.999 3L54.999 45L10.999 87H6.99902V3" fill="#151515"/>
<path fill-rule="evenodd" clip-rule="evenodd" d="M6.99902 3L50.999 45L6.99902 87V3Z" fill="white"/>
<path fill-rule="evenodd" clip-rule="evenodd" d="M23.7996 49.5717L16.8761 53.4L18.1949 45.2928L12.5996 39.548L20.3379 38.3742L23.7996 31L27.2613 38.3792L34.9996 39.5529L29.3949 45.2978L30.7137 53.4" fill="#F93939"/>
<path fill-rule="evenodd" clip-rule="evenodd" d="M18.1992 47.7996H29.3992V44.0663L25.6659 40.3329C25.6659 40.3329 25.6659 36.5996 21.9326 36.5996H18.1992L21.9326 40.3329L18.1992 47.7996Z" fill="#FFDA2C"/>
</g>
</g>
<defs>
<filter id="filter0_dd_1104_21737" x="0.142858" y="0.714286" width="97.7143" height="97.7143" filterUnits="userSpaceOnUse" color-interpolation-filters="sRGB">
<feFlood flood-opacity="0" result="BackgroundImageFix"/>
<feColorMatrix in="SourceAlpha" type="matrix" values="0 0 0 0 0 0 0 0 0 0 0 0 0 0 0 0 0 0 127 0" result="hardAlpha"/>
<feOffset dy="4.57143"/>
<feGaussianBlur stdDeviation="3.42857"/>
<feComposite in2="hardAlpha" operator="out"/>
<feColorMatrix type="matrix" values="0 0 0 0 0.258824 0 0 0 0 0.278431 0 0 0 0 0.298039 0 0 0 0.08 0"/>
<feBlend mode="normal" in2="BackgroundImageFix" result="effect1_dropShadow_1104_21737"/>
<feColorMatrix in="SourceAlpha" type="matrix" values="0 0 0 0 0 0 0 0 0 0 0 0 0 0 0 0 0 0 127 0" result="hardAlpha"/>
<feOffset/>
<feGaussianBlur stdDeviation="0.285714"/>
<feComposite in2="hardAlpha" operator="out"/>
<feColorMatrix type="matrix" values="0 0 0 0 0.258824 0 0 0 0 0.278431 0 0 0 0 0.298039 0 0 0 0.32 0"/>
<feBlend mode="normal" in2="effect1_dropShadow_1104_21737" result="effect2_dropShadow_1104_21737"/>
<feBlend mode="normal" in="SourceGraphic" in2="effect2_dropShadow_1104_21737" result="shape"/>
</filter>
<clipPath id="clip0_1104_21737">
<rect x="7" y="3" width="84" height="84" rx="42" fill="white"/>
</clipPath>
</defs>
</svg>
