<svg width="800" height="800" viewBox="0 0 800 800" fill="none" xmlns="http://www.w3.org/2000/svg">
<g clip-path="url(#clip0_662_2)">
<path d="M400 800C620.914 800 800 620.914 800 400C800 179.086 620.914 0 400 0C179.086 0 0 179.086 0 400C0 620.914 179.086 800 400 800Z" fill="#EFEFEF"/>
<path d="M428.828 325.156C434.922 321.953 445.859 322.266 445.859 322.266C445.859 332.891 444.844 339.219 438.125 344.141C436.016 345.703 432.266 348.125 427.969 349.688C422.031 351.875 417.969 355.703 417.969 355.703C417.969 336.328 420.938 329.297 428.828 325.156ZM381.875 329.688C375.391 335.391 373.516 344.453 373.516 344.453L352.109 427.344L334.297 359.453C332.578 352.266 329.453 343.281 324.531 337.266C318.203 329.609 305.391 329.063 304.063 329.063C302.734 329.063 289.922 329.531 283.594 337.266C278.672 343.281 275.547 352.188 273.828 359.453L255.938 427.344L234.531 344.453C234.531 344.453 232.656 335.391 226.172 329.688C215.703 320.469 200 322.422 200 322.422L240.937 477.344C240.937 477.344 254.453 478.281 261.25 474.844C270.156 470.312 274.375 466.797 279.766 445.703C284.531 426.875 297.969 371.719 299.219 367.734C299.844 365.781 300.625 361.172 304.063 361.172C307.578 361.172 308.281 365.781 308.906 367.734C310.156 371.641 323.594 426.875 328.359 445.703C333.75 466.797 337.969 470.312 346.875 474.844C353.672 478.281 367.188 477.344 367.188 477.344L408.203 322.344C408.047 322.422 392.344 320.391 381.875 329.688ZM445.859 347.734C445.859 347.734 443.281 351.719 437.422 355C433.672 357.109 430.078 358.516 426.172 360.391C419.687 363.516 417.969 366.953 417.969 372.266V477.344C417.969 477.344 428.281 478.672 435.078 475.234C443.75 470.781 445.781 466.484 445.859 447.266V347.734ZM548.047 400.234L600.078 322.891C600.078 322.891 578.125 319.141 567.266 329.063C560.312 335.391 552.5 346.797 552.5 346.797L533.359 374.375C532.422 375.781 531.25 377.344 529.297 377.344C527.344 377.344 526.172 375.781 525.234 374.375L506.094 346.797C506.094 346.797 498.281 335.391 491.328 329.063C480.469 319.141 458.516 322.891 458.516 322.891L510.547 400.234L458.594 477.344C458.594 477.344 481.484 480.234 492.344 470.313C499.297 463.984 506.016 453.672 506.016 453.672L525.156 426.094C526.094 424.688 527.266 423.125 529.219 423.125C531.172 423.125 532.344 424.688 533.281 426.094L552.422 453.672C552.422 453.672 559.531 463.984 566.484 470.313C577.344 480.234 599.844 477.344 599.844 477.344L548.047 400.234Z" fill="black"/>
</g>
<defs>
<clipPath id="clip0_662_2">
<rect width="800" height="800" fill="white"/>
</clipPath>
</defs>
</svg>
