<?xml version="1.0" encoding="utf-8"?>
<svg xmlns="http://www.w3.org/2000/svg" viewBox="0 0 100 100">
  <path fill="#F2BC42" d="M91.084,20.921L77.229,32.352V18.068c0-3.528-2.84-6.386-6.346-6.386H25.405L3.723,33.502v32.996v15.434c0,3.528,2.84,6.386,6.346,6.386h15.336h45.478c3.506,0,6.346-2.858,6.346-6.386V68.18l13.918,11.485c2.083,1.639,5.13,0.144,5.13-2.522V23.39C96.277,20.692,93.162,19.212,91.084,20.921z M56.076,66.498H25.405V33.502h30.671V50V66.498z"/>
  <path fill="#2167D1" d="M3.723,66.498v15.434c0,3.528,2.84,6.386,6.346,6.386h15.336v-21.82H3.723z"/>
  <rect fill="#3D84F3" height="32.996" width="21.682" x="3.723" y="33.502"/>
  <path fill="#4CA853" d="M91.084,20.921L77.229,32.352V68.18l13.918,11.485c2.083,1.639,5.13,0.144,5.13-2.522V23.39C96.277,20.692,93.162,19.212,91.084,20.921z"/>
  <path fill="#4CA853" d="M56.076,50v16.498H25.405v21.82h45.478c3.506,0,6.346-2.858,6.346-6.386V68.18L56.076,50z"/>
  <polygon fill="#398039" points="77.229,68.18 77.229,32.363 56.076,50"/>
  <polygon fill="#D74F3F" points="3.723,33.502 25.405,33.502 25.405,11.682"/>
  <path fill="#F2BC42" d="M70.883,11.682H25.405v21.82h30.671V50l21.153-17.637v-0.011V18.068C77.229,14.54,74.389,11.682,70.883,11.682z"/>
</svg>