<?xml version="1.0" encoding="utf-8"?>
<svg xmlns="http://www.w3.org/2000/svg" viewBox="0 0 16 16">
  <path fill="#5059C9" d="M10.765 6.875h3.616c.342 0 .619.276.619.617v3.288a2.272 2.272 0 01-2.274 2.27h-.01a2.272 2.272 0 01-2.274-2.27V7.199c0-.179.145-.323.323-.323zM13.21 6.225c.808 0 1.464-.655 1.464-1.462 0-.808-.656-1.463-1.465-1.463s-1.465.655-1.465 1.463c0 .807.656 1.462 1.465 1.462z"/>
  <path fill="#7B83EB" d="M8.651 6.225a2.114 2.114 0 002.117-2.112A2.114 2.114 0 008.65 2a2.114 2.114 0 00-2.116 2.112c0 1.167.947 2.113 2.116 2.113zM11.473 6.875h-5.97a.611.611 0 00-.596.625v3.75A3.669 3.669 0 008.488 15a3.669 3.669 0 003.582-3.75V7.5a.611.611 0 00-.597-.625z"/>
  <path fill="#5A62C3" d="M1.597 4.925h5.969c.33 0 .597.267.597.596v5.958a.596.596 0 01-.597.596h-5.97A.596.596 0 011 11.479V5.521c0-.33.267-.596.597-.596z"/>
  <path fill="#ffffff" d="M6.152 7.193H4.959v3.243h-.76V7.193H3.01v-.63h3.141v.63z"/>
</svg>