<?xml version="1.0" encoding="UTF-8"?>
<svg width="42px" height="51px" viewBox="0 0 42 51" version="1.1" xmlns="http://www.w3.org/2000/svg" xmlns:xlink="http://www.w3.org/1999/xlink">
    <g stroke="none" stroke-width="1" fill="#000000">
        <path d="M37.2,27.2 C37.1,20.6 42.6,17.5 42.9,17.3 C39.8,12.8 35,12.1 33.2,12 C29.2,11.6 25.3,14.4 23.3,14.4 C21.2,14.4 18,12.1 14.6,12.1 C10.2,12.2 6.1,14.7 3.9,18.8 C-0.6,27.1 2.9,39.5 7.2,46.1 C9.4,49.3 11.9,52.9 15.3,52.8 C18.6,52.7 19.9,50.8 23.9,50.8 C27.8,50.8 29.1,52.8 32.5,52.7 C36,52.6 38.2,49.4 40.3,46.2 C42.8,42.5 43.9,38.8 44,38.5 C43.9,38.5 37.3,36.1 37.2,27.2 L37.2,27.2 Z" transform="translate(-3, -11)"></path>
        <path d="M31.1,8.2 C32.9,6 34.1,3 33.8,0 C31.2,0.1 28,1.8 26.1,4 C24.4,5.9 23,9 23.3,11.9 C26.2,12.1 29.2,10.4 31.1,8.2" transform="translate(-3, -11)"></path>
    </g>
</svg> 