<svg width="290" height="64" viewBox="0 0 290 64" fill="none" xmlns="http://www.w3.org/2000/svg">
<g clip-path="url(#clip0_1926_1525)">
<circle cx="101.5" cy="40.5" r="22.5" fill="#4D66D9"/>
<ellipse cx="89.6833" cy="31.7286" rx="31.9958" ry="30.139" transform="rotate(-37 89.6833 31.7286)" fill="#5F77EB"/>
</g>
<path d="M27.008 58.768C23.5947 58.768 20.4373 58.1493 17.536 56.912C14.6773 55.6747 12.16 53.9467 9.984 51.728C7.85067 49.5093 6.18667 46.9067 4.992 43.92C3.79733 40.9333 3.2 37.6693 3.2 34.128C3.2 30.5867 3.776 27.3227 4.928 24.336C6.12267 21.3067 7.78667 18.704 9.92 16.528C12.096 14.3093 14.6347 12.6027 17.536 11.408C20.4373 10.1707 23.5947 9.552 27.008 9.552C30.4213 9.552 33.472 10.128 36.16 11.28C38.8907 12.432 41.1947 13.968 43.072 15.888C44.9493 17.7653 46.2933 19.8347 47.104 22.096L39.296 25.744C38.4 23.3547 36.8853 21.392 34.752 19.856C32.6187 18.2773 30.0373 17.488 27.008 17.488C24.0213 17.488 21.376 18.192 19.072 19.6C16.8107 21.008 15.04 22.9493 13.76 25.424C12.5227 27.8987 11.904 30.8 11.904 34.128C11.904 37.456 12.5227 40.3787 13.76 42.896C15.04 45.3707 16.8107 47.312 19.072 48.72C21.376 50.128 24.0213 50.832 27.008 50.832C30.0373 50.832 32.6187 50.064 34.752 48.528C36.8853 46.9493 38.4 44.9653 39.296 42.576L47.104 46.224C46.2933 48.4853 44.9493 50.576 43.072 52.496C41.1947 54.3733 38.8907 55.888 36.16 57.04C33.472 58.192 30.4213 58.768 27.008 58.768ZM51.4982 58V9.552H59.8822V30.032L58.7302 28.816C59.5409 26.7253 60.8636 25.1467 62.6982 24.08C64.5756 22.9707 66.7516 22.416 69.2262 22.416C71.7862 22.416 74.0476 22.9707 76.0102 24.08C78.0156 25.1893 79.5729 26.7467 80.6822 28.752C81.7916 30.7147 82.3462 32.9973 82.3462 35.6V58H73.9622V37.584C73.9622 36.048 73.6636 34.7253 73.0662 33.616C72.4689 32.5067 71.6369 31.6533 70.5702 31.056C69.5462 30.416 68.3302 30.096 66.9222 30.096C65.5569 30.096 64.3409 30.416 63.2742 31.056C62.2076 31.6533 61.3756 32.5067 60.7782 33.616C60.1809 34.7253 59.8822 36.048 59.8822 37.584V58H51.4982ZM98.0275 58.768C95.5955 58.768 93.4835 58.3627 91.6915 57.552C89.8995 56.7413 88.5128 55.5893 87.5315 54.096C86.5501 52.56 86.0595 50.7893 86.0595 48.784C86.0595 46.864 86.4861 45.1573 87.3395 43.664C88.1928 42.128 89.5155 40.848 91.3075 39.824C93.0995 38.8 95.3608 38.0747 98.0915 37.648L109.483 35.792V42.192L99.6915 43.856C98.0275 44.1547 96.7901 44.688 95.9795 45.456C95.1688 46.224 94.7635 47.2267 94.7635 48.464C94.7635 49.6587 95.2115 50.6187 96.1075 51.344C97.0461 52.0267 98.1981 52.368 99.5635 52.368C101.313 52.368 102.849 52.0053 104.171 51.28C105.537 50.512 106.582 49.4667 107.307 48.144C108.075 46.8213 108.459 45.3707 108.459 43.792V34.832C108.459 33.3387 107.862 32.1013 106.667 31.12C105.515 30.096 103.979 29.584 102.059 29.584C100.267 29.584 98.6675 30.0747 97.2595 31.056C95.8941 31.9947 94.8915 33.2533 94.2515 34.832L87.4035 31.504C88.0861 29.6693 89.1528 28.0907 90.6035 26.768C92.0968 25.4027 93.8461 24.336 95.8515 23.568C97.8568 22.8 100.033 22.416 102.379 22.416C105.238 22.416 107.755 22.9493 109.931 24.016C112.107 25.04 113.793 26.4907 114.987 28.368C116.225 30.2027 116.843 32.3573 116.843 34.832V58H108.907V52.048L110.699 51.92C109.803 53.4133 108.737 54.672 107.499 55.696C106.262 56.6773 104.854 57.4453 103.275 58C101.697 58.512 99.9475 58.768 98.0275 58.768ZM137.871 58.384C133.946 58.384 130.895 57.3173 128.719 55.184C126.586 53.008 125.519 49.9573 125.519 46.032V30.672H119.503V23.184H120.143C121.85 23.184 123.173 22.736 124.111 21.84C125.05 20.944 125.519 19.6427 125.519 17.936V15.248H133.903V23.184H141.903V30.672H133.903V45.584C133.903 46.736 134.095 47.7173 134.479 48.528C134.906 49.3387 135.546 49.9573 136.399 50.384C137.295 50.8107 138.426 51.024 139.791 51.024C140.09 51.024 140.431 51.0027 140.815 50.96C141.242 50.9173 141.647 50.8747 142.031 50.832V58C141.434 58.0853 140.751 58.1707 139.983 58.256C139.215 58.3413 138.511 58.384 137.871 58.384ZM147.172 58V10.32H167.268C170.426 10.32 173.114 10.8747 175.332 11.984C177.594 13.0507 179.322 14.5867 180.516 16.592C181.754 18.5547 182.372 20.944 182.372 23.76C182.372 25.936 181.775 27.984 180.58 29.904C179.428 31.7813 177.572 33.3387 175.012 34.576V30.544C177.359 31.44 179.215 32.5493 180.58 33.872C181.946 35.1947 182.906 36.6667 183.46 38.288C184.015 39.9093 184.292 41.616 184.292 43.408C184.292 47.9733 182.778 51.5573 179.748 54.16C176.762 56.72 172.602 58 167.268 58H147.172ZM155.876 50.32H168.164C170.426 50.32 172.218 49.7013 173.54 48.464C174.906 47.184 175.588 45.4987 175.588 43.408C175.588 41.3173 174.906 39.632 173.54 38.352C172.218 37.072 170.426 36.432 168.164 36.432H155.876V50.32ZM155.876 28.816H167.716C169.508 28.816 170.938 28.304 172.004 27.28C173.071 26.2133 173.604 24.848 173.604 23.184C173.604 21.52 173.071 20.1973 172.004 19.216C170.938 18.2347 169.508 17.744 167.716 17.744H155.876V28.816ZM199.31 58.768C196.878 58.768 194.766 58.3627 192.974 57.552C191.182 56.7413 189.796 55.5893 188.814 54.096C187.833 52.56 187.342 50.7893 187.342 48.784C187.342 46.864 187.769 45.1573 188.622 43.664C189.476 42.128 190.798 40.848 192.59 39.824C194.382 38.8 196.644 38.0747 199.374 37.648L210.766 35.792V42.192L200.974 43.856C199.31 44.1547 198.073 44.688 197.262 45.456C196.452 46.224 196.046 47.2267 196.046 48.464C196.046 49.6587 196.494 50.6187 197.39 51.344C198.329 52.0267 199.481 52.368 200.846 52.368C202.596 52.368 204.132 52.0053 205.454 51.28C206.82 50.512 207.865 49.4667 208.59 48.144C209.358 46.8213 209.742 45.3707 209.742 43.792V34.832C209.742 33.3387 209.145 32.1013 207.95 31.12C206.798 30.096 205.262 29.584 203.342 29.584C201.55 29.584 199.95 30.0747 198.542 31.056C197.177 31.9947 196.174 33.2533 195.534 34.832L188.686 31.504C189.369 29.6693 190.436 28.0907 191.886 26.768C193.38 25.4027 195.129 24.336 197.134 23.568C199.14 22.8 201.316 22.416 203.662 22.416C206.521 22.416 209.038 22.9493 211.214 24.016C213.39 25.04 215.076 26.4907 216.27 28.368C217.508 30.2027 218.126 32.3573 218.126 34.832V58H210.19V52.048L211.982 51.92C211.086 53.4133 210.02 54.672 208.782 55.696C207.545 56.6773 206.137 57.4453 204.558 58C202.98 58.512 201.23 58.768 199.31 58.768ZM237.155 58.768C233.443 58.768 230.2 57.8933 227.427 56.144C224.696 54.352 222.819 51.9413 221.795 48.912L228.067 45.904C228.963 47.8667 230.2 49.4027 231.779 50.512C233.4 51.6213 235.192 52.176 237.155 52.176C238.691 52.176 239.907 51.8347 240.803 51.152C241.699 50.4693 242.147 49.5733 242.147 48.464C242.147 47.7813 241.955 47.2267 241.571 46.8C241.23 46.3307 240.739 45.9467 240.099 45.648C239.502 45.3067 238.84 45.0293 238.115 44.816L232.419 43.216C229.475 42.3627 227.235 41.0613 225.699 39.312C224.206 37.5627 223.459 35.4933 223.459 33.104C223.459 30.9707 223.992 29.1147 225.059 27.536C226.168 25.9147 227.683 24.656 229.603 23.76C231.566 22.864 233.806 22.416 236.323 22.416C239.608 22.416 242.51 23.2053 245.027 24.784C247.544 26.3627 249.336 28.5813 250.403 31.44L244.003 34.448C243.406 32.8693 242.403 31.6107 240.995 30.672C239.587 29.7333 238.008 29.264 236.259 29.264C234.851 29.264 233.742 29.584 232.931 30.224C232.12 30.864 231.715 31.696 231.715 32.72C231.715 33.36 231.886 33.9147 232.227 34.384C232.568 34.8533 233.038 35.2373 233.635 35.536C234.275 35.8347 235 36.112 235.811 36.368L241.379 38.032C244.238 38.8853 246.435 40.1653 247.971 41.872C249.55 43.5787 250.339 45.6693 250.339 48.144C250.339 50.2347 249.784 52.0907 248.675 53.712C247.566 55.2907 246.03 56.528 244.067 57.424C242.104 58.32 239.8 58.768 237.155 58.768ZM271.326 58.768C267.742 58.768 264.606 57.9573 261.918 56.336C259.23 54.7147 257.139 52.5173 255.646 49.744C254.152 46.9707 253.406 43.8987 253.406 40.528C253.406 37.0293 254.152 33.936 255.646 31.248C257.182 28.5173 259.251 26.3627 261.854 24.784C264.499 23.2053 267.443 22.416 270.686 22.416C273.416 22.416 275.806 22.864 277.854 23.76C279.944 24.656 281.715 25.8933 283.166 27.472C284.616 29.0507 285.726 30.864 286.494 32.912C287.262 34.9173 287.646 37.0933 287.646 39.44C287.646 40.0373 287.603 40.656 287.518 41.296C287.475 41.936 287.368 42.4907 287.198 42.96H260.318V36.56H282.462L278.494 39.568C278.878 37.6053 278.771 35.856 278.174 34.32C277.619 32.784 276.68 31.568 275.358 30.672C274.078 29.776 272.52 29.328 270.686 29.328C268.936 29.328 267.379 29.776 266.014 30.672C264.648 31.5253 263.603 32.8053 262.878 34.512C262.195 36.176 261.939 38.2027 262.11 40.592C261.939 42.7253 262.216 44.624 262.942 46.288C263.71 47.9093 264.819 49.168 266.27 50.064C267.763 50.96 269.47 51.408 271.39 51.408C273.31 51.408 274.931 51.0027 276.254 50.192C277.619 49.3813 278.686 48.2933 279.454 46.928L286.238 50.256C285.555 51.92 284.488 53.392 283.038 54.672C281.587 55.952 279.859 56.9547 277.854 57.68C275.891 58.4053 273.715 58.768 271.326 58.768Z" fill="white"/>
<defs>
<clipPath id="clip0_1926_1525">
<rect x="79" y="18" width="45" height="45" rx="22.5" fill="white"/>
</clipPath>
</defs>
</svg>
