<svg width="24" height="24" viewBox="0 0 24 24" fill="none" xmlns="http://www.w3.org/2000/svg">
<path d="M1.8125 18.9999V5.18516C1.8125 4.55549 2.03425 4.01891 2.47775 3.57541C2.92108 3.13191 3.45767 2.91016 4.0875 2.91016H9.908C10.5378 2.91016 11.0744 3.13191 11.5177 3.57541C11.9612 4.01891 12.183 4.55549 12.183 5.18516V6.91016H19.908C20.5378 6.91016 21.0744 7.13191 21.5177 7.57541C21.9612 8.01891 22.183 8.55549 22.183 9.18516V18.9999C22.183 19.6296 21.9612 20.1662 21.5177 20.6097C21.0744 21.0532 20.5378 21.2749 19.908 21.2749H4.0875C3.45767 21.2749 2.92108 21.0532 2.47775 20.6097C2.03425 20.1662 1.8125 19.6296 1.8125 18.9999ZM3.99775 19.0897H5.99775V17.0897H3.99775V19.0897ZM3.99775 15.0897H5.99775V13.0897H3.99775V15.0897ZM3.99775 11.0897H5.99775V9.08966H3.99775V11.0897ZM3.99775 7.08966H5.99775V5.08966H3.99775V7.08966ZM7.99775 19.0897H9.99775V17.0897H7.99775V19.0897ZM7.99775 15.0897H9.99775V13.0897H7.99775V15.0897ZM7.99775 11.0897H9.99775V9.08966H7.99775V11.0897ZM7.99775 7.08966H9.99775V5.08966H7.99775V7.08966ZM11.9978 19.0897H19.9978V9.08966H11.9978V11.0897H13.9978V13.0897H11.9978V15.0897H13.9978V17.0897H11.9978V19.0897ZM15.9978 13.0897V11.0897H17.9978V13.0897H15.9978ZM15.9978 17.0897V15.0897H17.9978V17.0897H15.9978Z" fill="black"/>
</svg>
