<svg width="123" height="123" viewBox="0 0 123 123" fill="none" xmlns="http://www.w3.org/2000/svg">
<g clip-path="url(#clip0_2286_1588)">
<rect width="123" height="122.88" rx="24" fill="black"/>
<rect width="122.8" height="122.8" transform="translate(0.101562 0.0390625)" fill="black"/>
</g>
<path d="M92.9967 72.4431C92.9967 81.1364 89.9337 88.5464 83.8079 94.6731C77.6821 100.8 70.2735 103.863 61.5822 103.863C52.8918 103.863 45.4813 100.8 39.3507 94.6731C33.2211 88.5464 30.1563 81.1364 30.1563 72.4431L30.1563 58.3225C30.1563 56.2117 30.8949 54.4182 32.3721 52.942C33.8493 51.4647 35.6428 50.7261 37.7526 50.7261C39.8633 50.7261 41.6573 51.4647 43.1345 52.942C44.6108 54.4182 45.3489 56.2117 45.3489 58.3225L45.3489 72.4431C45.3489 76.9502 46.9265 80.7819 50.0816 83.9379C53.2377 87.093 57.0693 88.6706 61.5764 88.6706C66.0836 88.6706 69.9152 87.093 73.0713 83.9379C76.2264 80.7819 77.804 76.9502 77.804 72.4431V58.3225C77.804 56.2117 78.5421 54.4182 80.0184 52.942C81.4956 51.4647 83.2896 50.7261 85.4003 50.7261C87.5101 50.7261 89.3036 51.4647 90.7808 52.942C92.258 54.4182 92.9967 56.2117 92.9967 58.3225V72.4431ZM67.9574 62.1923C67.9574 64.0002 67.3458 65.5156 66.1228 66.7387C64.8997 67.9617 63.3843 68.5732 61.5764 68.5732C59.7686 68.5732 58.2532 67.9617 57.0301 66.7387C55.807 65.5156 55.1955 64.0002 55.1955 62.1923L55.1955 25.363C55.1955 23.5551 55.807 22.0397 57.0301 20.8166C58.2532 19.5935 59.7686 18.982 61.5764 18.982C63.3843 18.982 64.8997 19.5935 66.1228 20.8166C67.3458 22.0397 67.9574 23.5551 67.9574 25.363L67.9574 62.1923Z" fill="white"/>
<defs>
<clipPath id="clip0_2286_1588">
<rect width="123" height="122.88" rx="24" fill="white"/>
</clipPath>
</defs>
</svg>
