<svg width="487" height="99" viewBox="0 0 487 99" fill="none" xmlns="http://www.w3.org/2000/svg">
<g clip-path="url(#clip0_2280_1536)">
<rect width="98.4" height="98.304" rx="19.2" fill="black"/>
<rect width="98.24" height="98.24" transform="translate(0.078125 0.03125)" fill="black"/>
</g>
<path d="M74.3973 57.9537C74.3973 64.9083 71.947 70.8363 67.0464 75.7377C62.1457 80.6391 56.2188 83.0898 49.2657 83.0898C42.3134 83.0898 36.385 80.6391 31.4806 75.7377C26.5768 70.8363 24.125 64.9083 24.125 57.9537V46.6572C24.125 44.9686 24.7159 43.5338 25.8977 42.3528C27.0794 41.171 28.5143 40.5801 30.2021 40.5801C31.8907 40.5801 33.3258 41.171 34.5076 42.3528C35.6886 43.5338 36.2792 44.9686 36.2792 46.6572L36.2792 57.9537C36.2792 61.5594 37.5412 64.6247 40.0653 67.1496C42.5901 69.6736 45.6554 70.9357 49.2612 70.9357C52.8669 70.9357 55.9322 69.6736 58.457 67.1496C60.9811 64.6247 62.2432 61.5594 62.2432 57.9537L62.2432 46.6572C62.2432 44.9686 62.8337 43.5338 64.0147 42.3528C65.1965 41.171 66.6317 40.5801 68.3202 40.5801C70.0081 40.5801 71.4429 41.171 72.6246 42.3528C73.8064 43.5338 74.3973 44.9686 74.3973 46.6572V57.9537ZM54.3659 49.7531C54.3659 51.1993 53.8767 52.4117 52.8982 53.3901C51.9198 54.3686 50.7074 54.8578 49.2612 54.8578C47.8149 54.8578 46.6025 54.3686 45.6241 53.3901C44.6456 52.4117 44.1564 51.1993 44.1564 49.7531L44.1564 20.2896C44.1564 18.8433 44.6456 17.6309 45.6241 16.6525C46.6025 15.674 47.8149 15.1848 49.2612 15.1848C50.7074 15.1848 51.9198 15.674 52.8982 16.6525C53.8767 17.6309 54.3659 18.8433 54.3659 20.2896L54.3659 49.7531Z" fill="white"/>
<path d="M121.518 90.9123C120.718 90.9123 119.945 90.859 119.198 90.7523C118.398 90.699 117.732 90.619 117.198 90.5123V80.2723C118.105 80.4323 119.012 80.5123 119.918 80.5123C122.212 80.5123 123.918 80.0323 125.038 79.0723C126.212 78.1123 126.798 76.6723 126.798 74.7523V29.4723H138.798V74.7523C138.798 78.1657 138.105 81.0723 136.718 83.4723C135.385 85.9257 133.412 87.7657 130.798 88.9923C128.238 90.2723 125.145 90.9123 121.518 90.9123ZM126.798 25.5523V13.5523H138.798V25.5523H126.798ZM163.26 74.1123C159.74 74.1123 156.726 73.3657 154.22 71.8723C151.766 70.3257 149.9 68.1923 148.62 65.4723C147.34 62.7523 146.7 59.579 146.7 55.9523V29.4723H158.7V54.9923C158.7 56.6457 159.02 58.1123 159.66 59.3923C160.353 60.619 161.313 61.579 162.54 62.2723C163.766 62.9657 165.153 63.3123 166.7 63.3123C168.3 63.3123 169.686 62.9657 170.86 62.2723C172.086 61.579 173.02 60.619 173.66 59.3923C174.353 58.1123 174.7 56.6457 174.7 54.9923V29.4723H186.7V73.1523H175.5V64.5123L176.14 66.4323C175.126 69.0457 173.473 70.9923 171.18 72.2723C168.94 73.499 166.3 74.1123 163.26 74.1123ZM211.15 74.1123C207.63 74.1123 204.617 73.3657 202.11 71.8723C199.657 70.3257 197.79 68.1923 196.51 65.4723C195.23 62.7523 194.59 59.579 194.59 55.9523V29.4723H206.59V54.9923C206.59 56.6457 206.91 58.1123 207.55 59.3923C208.244 60.619 209.204 61.579 210.43 62.2723C211.657 62.9657 213.044 63.3123 214.59 63.3123C216.19 63.3123 217.577 62.9657 218.75 62.2723C219.977 61.579 220.91 60.619 221.55 59.3923C222.244 58.1123 222.59 56.6457 222.59 54.9923V29.4723H234.59V73.1523H223.39V64.5123L224.03 66.4323C223.017 69.0457 221.364 70.9923 219.07 72.2723C216.83 73.499 214.19 74.1123 211.15 74.1123ZM243.361 73.1523V29.4723H254.561V40.1123L253.361 38.3523C254.001 34.9923 255.548 32.5123 258.001 30.9123C260.454 29.3123 263.388 28.5123 266.801 28.5123C270.428 28.5123 273.601 29.4457 276.321 31.3123C279.094 33.1257 280.828 35.579 281.521 38.6723L278.081 38.9923C279.521 35.419 281.574 32.779 284.241 31.0723C286.908 29.3657 290.028 28.5123 293.601 28.5123C296.748 28.5123 299.521 29.2057 301.921 30.5923C304.374 31.979 306.294 33.9257 307.681 36.4323C309.068 38.8857 309.761 41.7657 309.761 45.0723V73.1523H297.761V47.6323C297.761 45.9257 297.441 44.459 296.801 43.2323C296.214 42.0057 295.361 41.0457 294.241 40.3523C293.121 39.659 291.761 39.3123 290.161 39.3123C288.614 39.3123 287.254 39.659 286.081 40.3523C284.961 41.0457 284.081 42.0057 283.441 43.2323C282.854 44.459 282.561 45.9257 282.561 47.6323V73.1523H270.561V47.6323C270.561 45.9257 270.241 44.459 269.601 43.2323C269.014 42.0057 268.161 41.0457 267.041 40.3523C265.921 39.659 264.561 39.3123 262.961 39.3123C261.414 39.3123 260.054 39.659 258.881 40.3523C257.761 41.0457 256.881 42.0057 256.241 43.2323C255.654 44.459 255.361 45.9257 255.361 47.6323V73.1523H243.361ZM317.658 89.1523V29.4723H328.858V37.7923L327.818 35.3923C329.258 33.2057 331.204 31.5257 333.658 30.3523C336.164 29.1257 339.018 28.5123 342.218 28.5123C346.378 28.5123 350.138 29.5257 353.498 31.5523C356.858 33.579 359.524 36.3257 361.498 39.7923C363.471 43.2057 364.458 47.0457 364.458 51.3123C364.458 55.5257 363.471 59.3657 361.498 62.8323C359.578 66.299 356.938 69.0457 353.578 71.0723C350.218 73.099 346.404 74.1123 342.138 74.1123C339.151 74.1123 336.378 73.579 333.818 72.5123C331.311 71.3923 329.284 69.7657 327.738 67.6323L329.658 65.1523V89.1523H317.658ZM340.698 63.3123C342.938 63.3123 344.911 62.8057 346.618 61.7923C348.324 60.779 349.658 59.3657 350.618 57.5523C351.578 55.739 352.058 53.659 352.058 51.3123C352.058 48.9657 351.578 46.9123 350.618 45.1523C349.658 43.339 348.324 41.9257 346.618 40.9123C344.911 39.8457 342.938 39.3123 340.698 39.3123C338.564 39.3123 336.644 39.819 334.938 40.8323C333.284 41.8457 331.978 43.259 331.018 45.0723C330.111 46.8857 329.658 48.9657 329.658 51.3123C329.658 53.659 330.111 55.739 331.018 57.5523C331.978 59.3657 333.284 60.779 334.938 61.7923C336.644 62.8057 338.564 63.3123 340.698 63.3123ZM377.406 73.1523V61.1523H389.406V73.1523H377.406ZM425.182 73.6323C419.902 73.6323 415.796 72.219 412.862 69.3923C409.982 66.5123 408.542 62.5123 408.542 57.3923V39.8723H401.182V29.4723H401.582C403.822 29.4723 405.529 28.9123 406.702 27.7923C407.929 26.6723 408.542 24.9923 408.542 22.7523V19.5523H420.542V29.4723H430.782V39.8723H420.542V56.5923C420.542 58.0857 420.809 59.339 421.342 60.3523C421.876 61.3123 422.702 62.0323 423.822 62.5123C424.942 62.9923 426.329 63.2323 427.982 63.2323C428.356 63.2323 428.782 63.2057 429.262 63.1523C429.742 63.099 430.249 63.0457 430.782 62.9923V73.1523C429.982 73.259 429.076 73.3657 428.062 73.4723C427.049 73.579 426.089 73.6323 425.182 73.6323ZM459.494 74.1123C455.174 74.1123 451.227 73.1257 447.654 71.1523C444.134 69.179 441.307 66.4857 439.174 63.0723C437.094 59.6057 436.054 55.6857 436.054 51.3123C436.054 46.8857 437.094 42.9657 439.174 39.5523C441.307 36.139 444.134 33.4457 447.654 31.4723C451.227 29.499 455.174 28.5123 459.494 28.5123C463.814 28.5123 467.734 29.499 471.254 31.4723C474.774 33.4457 477.574 36.139 479.654 39.5523C481.787 42.9657 482.854 46.8857 482.854 51.3123C482.854 55.6857 481.787 59.6057 479.654 63.0723C477.574 66.4857 474.774 69.179 471.254 71.1523C467.734 73.1257 463.814 74.1123 459.494 74.1123ZM459.494 63.3123C461.681 63.3123 463.574 62.8057 465.174 61.7923C466.827 60.779 468.107 59.3657 469.014 57.5523C469.974 55.739 470.454 53.659 470.454 51.3123C470.454 48.9657 469.974 46.9123 469.014 45.1523C468.107 43.339 466.827 41.9257 465.174 40.9123C463.574 39.8457 461.681 39.3123 459.494 39.3123C457.307 39.3123 455.387 39.8457 453.734 40.9123C452.081 41.9257 450.774 43.339 449.814 45.1523C448.907 46.9123 448.454 48.9657 448.454 51.3123C448.454 53.659 448.907 55.739 449.814 57.5523C450.774 59.3657 452.081 60.779 453.734 61.7923C455.387 62.8057 457.307 63.3123 459.494 63.3123Z" fill="black"/>
<defs>
<clipPath id="clip0_2280_1536">
<rect width="98.4" height="98.304" rx="19.2" fill="white"/>
</clipPath>
</defs>
</svg>
