<svg width="63" height="85" viewBox="0 0 63 85" fill="none" xmlns="http://www.w3.org/2000/svg">
<path d="M62.8404 53.4626C62.8404 62.1559 59.7775 69.5659 53.6517 75.6927C47.5259 81.8194 40.1173 84.8828 31.4259 84.8828C22.7355 84.8828 15.325 81.8194 9.19444 75.6927C3.06481 69.5659 0 62.1559 0 53.4626L0 39.342C0 37.2313 0.738607 35.4378 2.21583 33.9615C3.69306 32.4843 5.48657 31.7457 7.59634 31.7457C9.70708 31.7457 11.5011 32.4843 12.9783 33.9615C14.4546 35.4378 15.1927 37.2313 15.1927 39.342L15.1927 53.4626C15.1927 57.9698 16.7702 61.8014 19.9253 64.9575C23.0814 68.1126 26.913 69.6901 31.4202 69.6901C35.9274 69.6901 39.759 68.1126 42.915 64.9575C46.0702 61.8014 47.6477 57.9698 47.6477 53.4626V39.342C47.6477 37.2313 48.3858 35.4378 49.8621 33.9615C51.3393 32.4843 53.1333 31.7457 55.2441 31.7457C57.3538 31.7457 59.1473 32.4843 60.6246 33.9615C62.1018 35.4378 62.8404 37.2313 62.8404 39.342V53.4626ZM37.8011 43.2118C37.8011 45.0197 37.1896 46.5351 35.9665 47.7582C34.7435 48.9812 33.228 49.5928 31.4202 49.5928C29.6124 49.5928 28.0969 48.9812 26.8739 47.7582C25.6508 46.5351 25.0393 45.0197 25.0393 43.2118L25.0393 6.38248C25.0393 4.57465 25.6508 3.05919 26.8739 1.83613C28.0969 0.61307 29.6124 0.00155495 31.4202 0.00155495C33.228 0.00155495 34.7435 0.61307 35.9665 1.83613C37.1896 3.05919 37.8011 4.57465 37.8011 6.38248L37.8011 43.2118Z" fill="black"/>
</svg>
