<svg width="162" height="50" viewBox="0 0 162 50" fill="none" xmlns="http://www.w3.org/2000/svg">
<path d="M0.904 49V0.551998H9.288V49H0.904ZM15.0607 49V14.184H23.4447V49H15.0607ZM15.0607 10.28V1.32H23.4447V10.28H15.0607ZM29.2175 49V14.184H37.0895V21.032L36.4495 19.816C37.2601 17.7253 38.5828 16.1467 40.4175 15.08C42.2948 13.9707 44.4708 13.416 46.9455 13.416C49.5055 13.416 51.7668 13.9707 53.7295 15.08C55.7348 16.1893 57.2921 17.7467 58.4015 19.752C59.5108 21.7147 60.0655 23.9973 60.0655 26.6V49H51.6815V28.584C51.6815 27.048 51.3828 25.7253 50.7855 24.616C50.1881 23.5067 49.3561 22.6533 48.2895 22.056C47.2655 21.416 46.0495 21.096 44.6415 21.096C43.2761 21.096 42.0601 21.416 40.9935 22.056C39.9268 22.6533 39.0948 23.5067 38.4975 24.616C37.9001 25.7253 37.6015 27.048 37.6015 28.584V49H29.2175ZM65.1867 49V0.551998H73.5707V32.296L70.3707 31.336L86.7547 14.184H97.1867L84.3227 28.2L97.4427 49H87.8427L76.4507 30.952L81.4427 29.928L70.9467 41.192L73.5707 36.072V49H65.1867ZM100.156 49V0.551998H108.54V32.296L105.34 31.336L121.724 14.184H132.156L119.292 28.2L132.412 49H122.812L111.42 30.952L116.412 29.928L105.916 41.192L108.54 36.072V49H100.156ZM148.373 49.768C144.661 49.768 141.419 48.8933 138.645 47.144C135.915 45.352 134.037 42.9413 133.013 39.912L139.285 36.904C140.181 38.8667 141.419 40.4027 142.997 41.512C144.619 42.6213 146.411 43.176 148.373 43.176C149.909 43.176 151.125 42.8347 152.021 42.152C152.917 41.4693 153.365 40.5733 153.365 39.464C153.365 38.7813 153.173 38.2267 152.789 37.8C152.448 37.3307 151.957 36.9467 151.317 36.648C150.72 36.3067 150.059 36.0293 149.333 35.816L143.637 34.216C140.693 33.3627 138.453 32.0613 136.917 30.312C135.424 28.5627 134.677 26.4933 134.677 24.104C134.677 21.9707 135.211 20.1147 136.277 18.536C137.387 16.9147 138.901 15.656 140.821 14.76C142.784 13.864 145.024 13.416 147.541 13.416C150.827 13.416 153.728 14.2053 156.245 15.784C158.763 17.3627 160.555 19.5813 161.621 22.44L155.221 25.448C154.624 23.8693 153.621 22.6107 152.213 21.672C150.805 20.7333 149.227 20.264 147.477 20.264C146.069 20.264 144.96 20.584 144.149 21.224C143.339 21.864 142.933 22.696 142.933 23.72C142.933 24.36 143.104 24.9147 143.445 25.384C143.787 25.8533 144.256 26.2373 144.853 26.536C145.493 26.8347 146.219 27.112 147.029 27.368L152.597 29.032C155.456 29.8853 157.653 31.1653 159.189 32.872C160.768 34.5787 161.557 36.6693 161.557 39.144C161.557 41.2347 161.003 43.0907 159.893 44.712C158.784 46.2907 157.248 47.528 155.285 48.424C153.323 49.32 151.019 49.768 148.373 49.768Z" fill="white"/>
</svg>
