<svg width="251" height="64" viewBox="0 0 251 64" fill="none" xmlns="http://www.w3.org/2000/svg">
<path d="M11.7318 34.095C8.48644 31.1729 6.7497 27.5387 6.52159 23.1924C6.29347 18.8461 7.64014 15.0507 10.5616 11.806C13.4828 8.56176 17.1173 6.82501 21.4653 6.59579C25.8129 6.36692 29.6093 7.71355 32.8547 10.6357L38.1261 15.3821C38.9141 16.0916 39.3354 16.9702 39.3899 18.0179C39.4449 19.0659 39.1177 19.9837 38.4086 20.7714C37.6991 21.5593 36.8203 21.9808 35.7723 22.0357C34.725 22.0906 33.8073 21.7633 33.0193 21.0538L27.7479 16.3074C26.0653 14.7923 24.1046 14.0933 21.8658 14.2103C19.6271 14.328 17.7503 15.2281 16.2352 16.9107C14.7202 18.5933 14.0212 20.554 14.1382 22.7927C14.2559 25.0315 15.156 26.9083 16.8386 28.4233L22.11 33.1698C22.898 33.8793 23.3194 34.7577 23.3743 35.805C23.4293 36.8531 23.102 37.7711 22.3925 38.559C21.6833 39.3466 20.8047 39.7679 19.7567 39.8228C18.709 39.8781 17.7912 39.551 17.0032 38.8415L11.7318 34.095ZM23.9752 28.1931C23.3003 27.5854 22.9401 26.8477 22.8946 25.98C22.8491 25.1123 23.1302 24.341 23.7379 23.6661C24.3456 22.9912 25.0833 22.6311 25.951 22.5856C26.8187 22.5401 27.59 22.8212 28.2649 23.4289L42.0139 35.8086C42.6888 36.4162 43.049 37.1539 43.0944 38.0216C43.1399 38.8893 42.8588 39.6606 42.2511 40.3355C41.6434 41.0104 40.9058 41.3706 40.0381 41.4161C39.1704 41.4616 38.3991 41.1804 37.7242 40.5728L23.9752 28.1931ZM27.8629 48.6196C27.0749 47.9101 26.6537 47.0315 26.5991 45.9838C26.5442 44.9357 26.8713 44.0179 27.5805 43.2303C28.29 42.4423 29.1687 42.0209 30.2167 41.966C31.2641 41.9111 32.1817 42.2384 32.9697 42.9479L38.2412 47.6943C39.9238 49.2093 41.8844 49.9083 44.1232 49.7914C46.3619 49.6737 48.2388 48.7736 49.7538 47.091C51.2688 45.4084 51.9678 43.4477 51.8509 41.2089C51.7332 38.9702 50.833 37.0933 49.1504 35.5783L43.879 30.8319C43.091 30.1224 42.6696 29.244 42.6147 28.1966C42.5598 27.1486 42.8871 26.2306 43.5966 25.4426C44.3057 24.655 45.1843 24.2337 46.2323 24.1788C47.28 24.1236 48.1978 24.4507 48.9858 25.1602L54.2573 29.9066C57.5026 32.8288 59.2393 36.463 59.4674 40.8092C59.6956 45.1555 58.3489 48.951 55.4274 52.1956C52.5063 55.4399 48.8717 57.1766 44.5238 57.4059C40.1762 57.6347 36.3797 56.2881 33.1343 53.366L27.8629 48.6196Z" fill="#3478F6"/>
<path d="M77.8884 58V9.552H86.2724V58H77.8884ZM94.0134 58V23.184H102.397V58H94.0134ZM94.0134 19.28V10.32H102.397V19.28H94.0134ZM110.138 58V23.184H118.01V30.032L117.37 28.816C118.181 26.7253 119.504 25.1467 121.338 24.08C123.216 22.9707 125.392 22.416 127.866 22.416C130.426 22.416 132.688 22.9707 134.65 24.08C136.656 25.1893 138.213 26.7467 139.322 28.752C140.432 30.7147 140.986 32.9973 140.986 35.6V58H132.602V37.584C132.602 36.048 132.304 34.7253 131.706 33.616C131.109 32.5067 130.277 31.6533 129.21 31.056C128.186 30.416 126.97 30.096 125.562 30.096C124.197 30.096 122.981 30.416 121.914 31.056C120.848 31.6533 120.016 32.5067 119.418 33.616C118.821 34.7253 118.522 36.048 118.522 37.584V58H110.138ZM148.076 58V9.552H156.46V41.296L153.26 40.336L169.644 23.184H180.076L167.212 37.2L180.332 58H170.732L159.34 39.952L164.332 38.928L153.836 50.192L156.46 45.072V58H148.076ZM185.013 58V9.552H193.397V41.296L190.197 40.336L206.581 23.184H217.013L204.149 37.2L217.269 58H207.669L196.277 39.952L201.269 38.928L190.773 50.192L193.397 45.072V58H185.013ZM235.199 58.768C231.487 58.768 228.244 57.8933 225.471 56.144C222.74 54.352 220.863 51.9413 219.839 48.912L226.111 45.904C227.007 47.8667 228.244 49.4027 229.823 50.512C231.444 51.6213 233.236 52.176 235.199 52.176C236.735 52.176 237.951 51.8347 238.847 51.152C239.743 50.4693 240.191 49.5733 240.191 48.464C240.191 47.7813 239.999 47.2267 239.615 46.8C239.274 46.3307 238.783 45.9467 238.143 45.648C237.546 45.3067 236.884 45.0293 236.159 44.816L230.463 43.216C227.519 42.3627 225.279 41.0613 223.743 39.312C222.25 37.5627 221.503 35.4933 221.503 33.104C221.503 30.9707 222.036 29.1147 223.103 27.536C224.212 25.9147 225.727 24.656 227.647 23.76C229.61 22.864 231.85 22.416 234.367 22.416C237.652 22.416 240.554 23.2053 243.071 24.784C245.588 26.3627 247.38 28.5813 248.447 31.44L242.047 34.448C241.45 32.8693 240.447 31.6107 239.039 30.672C237.631 29.7333 236.052 29.264 234.303 29.264C232.895 29.264 231.786 29.584 230.975 30.224C230.164 30.864 229.759 31.696 229.759 32.72C229.759 33.36 229.93 33.9147 230.271 34.384C230.612 34.8533 231.082 35.2373 231.679 35.536C232.319 35.8347 233.044 36.112 233.855 36.368L239.423 38.032C242.282 38.8853 244.479 40.1653 246.015 41.872C247.594 43.5787 248.383 45.6693 248.383 48.144C248.383 50.2347 247.828 52.0907 246.719 53.712C245.61 55.2907 244.074 56.528 242.111 57.424C240.148 58.32 237.844 58.768 235.199 58.768Z" fill="black"/>
</svg>
