<svg width="706" height="90" viewBox="0 0 706 90" fill="none" xmlns="http://www.w3.org/2000/svg">
<path d="M3.00393 20.7317C3.2987 19.9058 3.49063 19.0947 3.9596 18.3864C5.09827 16.6668 6.96243 16.3271 8.62757 17.5529C9.2218 17.9903 9.7227 18.5266 10.2272 19.0568C14.0126 23.0351 18.4265 26.1333 23.3962 28.4457C26.28 29.7876 29.3133 30.6952 32.4215 31.325C33.9091 31.6265 35.4316 31.7726 36.9557 31.8224C37.3807 31.8362 37.5372 31.6797 37.471 31.2053C37.1374 28.8153 37.419 26.4725 38.0986 24.1684C38.7182 22.0675 39.7707 20.2018 41.1525 18.5117C42.2054 17.2239 43.4893 16.2064 44.8931 15.3392C47.4668 13.7496 50.2928 12.954 53.301 13.0021C57.573 13.0702 61.3041 14.5473 64.3455 17.6181C64.6243 17.8996 64.9388 18.1499 65.1904 18.4531C66.0405 19.4777 67.0898 19.5246 68.2582 19.1528C69.6879 18.6979 71.0863 18.136 72.5812 17.8991C73.318 17.7823 74.0401 17.7995 74.7561 18.0032C76.1408 18.397 76.997 20.0552 76.5209 21.4195C75.8058 23.4686 74.3987 25.0135 72.8277 26.4273C72.0783 27.1018 71.2851 27.7291 70.4964 28.3584C69.8061 28.9091 69.5172 29.6358 69.5101 30.4885C69.4957 32.2314 69.4013 33.9706 69.2408 35.7045C68.9061 39.32 68.1686 42.8468 66.9951 46.2925C65.612 50.3537 63.6448 54.1018 61.1736 57.5915C58.896 60.8078 56.2136 63.6528 53.1759 66.1652C49.1932 69.4592 44.8059 72.0747 39.994 73.9536C38.0798 74.701 36.0922 75.229 34.086 75.7035C31.7877 76.2471 29.4583 76.549 27.1225 76.7892C24.8783 77.0199 22.6196 77.0616 20.3598 76.9125C19.1355 76.8316 17.9128 76.7594 16.6952 76.5989C12.7345 76.077 8.78983 75.4743 5.0152 74.0972C3.58217 73.5744 2.16512 72.9889 1.02685 71.9222C0.335927 71.2747 -0.182854 70.4998 0.0612624 69.5064C0.298688 68.5402 1.0596 68.0759 1.98751 67.8649C2.19871 67.8169 2.41425 67.7866 2.62878 67.7549C4.78121 67.4367 6.97191 67.5326 9.1189 67.159C10.5606 66.9081 11.9719 66.5342 13.3712 66.1072C15.7723 65.3746 18.0115 64.299 20.1271 62.9582C20.303 62.8467 20.5288 62.7718 20.6238 62.4535C20.1745 62.346 19.7332 62.2259 19.2859 62.1357C16.2521 61.524 13.649 60.0971 11.4309 57.9607C10.3543 56.9238 9.43592 55.7597 8.82944 54.3765C8.69455 54.0688 8.55127 53.7612 8.45587 53.4405C8.00214 51.9154 8.69391 50.9386 10.2925 50.8951C11.3422 50.8665 12.3883 50.8318 13.4257 50.66C13.498 50.648 13.5683 50.6235 13.7776 50.5686C12.3888 50.2128 11.1847 49.7508 10.0438 49.1241C6.89163 47.3925 4.73393 44.8042 3.40472 41.4877C2.86465 40.1402 2.37395 38.7595 2.46375 37.3024C2.54895 35.9197 2.89955 35.5159 3.90129 35.2673C4.43552 35.1348 4.94814 35.3929 5.45276 35.5567C6.26082 35.8189 7.06233 36.1015 7.87218 36.3579C8.08692 36.4258 8.32203 36.4294 8.63958 36.476C3.59589 32.3112 1.7451 27.0957 3.00393 20.7317Z" fill="white"/>
<path d="M126.096 78.48C120.816 78.48 116.71 77.0667 113.776 74.24C110.896 71.36 109.456 67.36 109.456 62.24V44.72H102.096V34.32H102.496C104.736 34.32 106.443 33.76 107.616 32.64C108.843 31.52 109.456 29.84 109.456 27.6V24.4H121.456V34.32H131.696V44.72H121.456V61.44C121.456 62.9333 121.723 64.1867 122.256 65.2C122.79 66.16 123.616 66.88 124.736 67.36C125.856 67.84 127.243 68.08 128.896 68.08C129.27 68.08 129.696 68.0533 130.176 68C130.656 67.9467 131.163 67.8933 131.696 67.84V78C130.896 78.1067 129.99 78.2133 128.976 78.32C127.963 78.4267 127.003 78.48 126.096 78.48ZM150.248 78L135.208 34.32H147.608L158.168 65.84L153.848 65.76L165.608 34.32H176.008L187.688 65.76L183.368 65.84L193.928 34.32H206.408L191.288 78H180.888L168.728 44.24H172.888L160.648 78H150.248ZM211.697 78V34.32H223.697V78H211.697ZM211.697 30.4V18.4H223.697V30.4H211.697ZM253.518 78.48C248.238 78.48 244.131 77.0667 241.198 74.24C238.318 71.36 236.878 67.36 236.878 62.24V44.72H229.518V34.32H229.918C232.158 34.32 233.865 33.76 235.038 32.64C236.265 31.52 236.878 29.84 236.878 27.6V24.4H248.878V34.32H259.118V44.72H248.878V61.44C248.878 62.9333 249.145 64.1867 249.678 65.2C250.211 66.16 251.038 66.88 252.158 67.36C253.278 67.84 254.665 68.08 256.318 68.08C256.691 68.08 257.118 68.0533 257.598 68C258.078 67.9467 258.585 67.8933 259.118 67.84V78C258.318 78.1067 257.411 78.2133 256.398 78.32C255.385 78.4267 254.425 78.48 253.518 78.48ZM287.19 78.48C281.91 78.48 277.803 77.0667 274.87 74.24C271.99 71.36 270.55 67.36 270.55 62.24V44.72H263.19V34.32H263.59C265.83 34.32 267.537 33.76 268.71 32.64C269.937 31.52 270.55 29.84 270.55 27.6V24.4H282.55V34.32H292.79V44.72H282.55V61.44C282.55 62.9333 282.817 64.1867 283.35 65.2C283.883 66.16 284.71 66.88 285.83 67.36C286.95 67.84 288.337 68.08 289.99 68.08C290.363 68.08 290.79 68.0533 291.27 68C291.75 67.9467 292.257 67.8933 292.79 67.84V78C291.99 78.1067 291.083 78.2133 290.07 78.32C289.057 78.4267 288.097 78.48 287.19 78.48ZM320.862 78.96C316.222 78.96 312.195 77.9467 308.782 75.92C305.369 73.84 302.729 71.0667 300.862 67.6C298.995 64.1333 298.062 60.2933 298.062 56.08C298.062 51.7067 299.022 47.8133 300.942 44.4C302.915 40.9867 305.555 38.2933 308.862 36.32C312.169 34.3467 315.902 33.36 320.062 33.36C323.529 33.36 326.595 33.92 329.262 35.04C331.929 36.1067 334.169 37.6267 335.982 39.6C337.849 41.5733 339.262 43.8667 340.222 46.48C341.182 49.04 341.662 51.84 341.662 54.88C341.662 55.7333 341.609 56.5867 341.502 57.44C341.449 58.24 341.315 58.9333 341.102 59.52H308.382V50.72H334.302L328.622 54.88C329.155 52.5867 329.129 50.56 328.542 48.8C327.955 46.9867 326.915 45.5733 325.422 44.56C323.982 43.4933 322.195 42.96 320.062 42.96C317.982 42.96 316.195 43.4667 314.702 44.48C313.209 45.4933 312.089 46.9867 311.342 48.96C310.595 50.9333 310.302 53.3333 310.462 56.16C310.249 58.6133 310.542 60.7733 311.342 62.64C312.142 64.5067 313.369 65.9733 315.022 67.04C316.675 68.0533 318.675 68.56 321.022 68.56C323.155 68.56 324.969 68.1333 326.462 67.28C328.009 66.4267 329.209 65.2533 330.062 63.76L339.662 68.32C338.809 70.4533 337.449 72.32 335.582 73.92C333.769 75.52 331.609 76.7733 329.102 77.68C326.595 78.5333 323.849 78.96 320.862 78.96ZM348.728 78V34.32H359.928V44.8L359.128 43.28C360.088 39.6 361.661 37.12 363.848 35.84C366.088 34.5067 368.728 33.84 371.768 33.84H374.328V44.24H370.568C367.635 44.24 365.261 45.1467 363.448 46.96C361.635 48.72 360.728 51.2267 360.728 54.48V78H348.728ZM404.068 78.96C401.081 78.96 398.308 78.4267 395.747 77.36C393.241 76.24 391.214 74.6133 389.668 72.48L390.788 70V78H379.588V17.44H391.588V42.64L389.748 40.24C391.188 38.0533 393.134 36.3733 395.588 35.2C398.094 33.9733 400.948 33.36 404.148 33.36C408.308 33.36 412.068 34.3733 415.428 36.4C418.788 38.4267 421.454 41.1733 423.428 44.64C425.401 48.0533 426.388 51.8933 426.388 56.16C426.388 60.3733 425.401 64.2133 423.428 67.68C421.508 71.1467 418.868 73.8933 415.508 75.92C412.148 77.9467 408.334 78.96 404.068 78.96ZM402.628 68.16C404.868 68.16 406.841 67.6533 408.548 66.64C410.254 65.6267 411.588 64.2133 412.548 62.4C413.508 60.5867 413.988 58.5067 413.988 56.16C413.988 53.8133 413.508 51.76 412.548 50C411.588 48.1867 410.254 46.7733 408.548 45.76C406.841 44.6933 404.868 44.16 402.628 44.16C400.494 44.16 398.574 44.6667 396.868 45.68C395.214 46.6933 393.908 48.1067 392.948 49.92C392.041 51.7333 391.588 53.8133 391.588 56.16C391.588 58.5067 392.041 60.5867 392.948 62.4C393.908 64.2133 395.214 65.6267 396.868 66.64C398.574 67.6533 400.494 68.16 402.628 68.16ZM433.416 78V34.32H444.616V44.8L443.816 43.28C444.776 39.6 446.349 37.12 448.536 35.84C450.776 34.5067 453.416 33.84 456.456 33.84H459.016V44.24H455.256C452.322 44.24 449.949 45.1467 448.136 46.96C446.322 48.72 445.416 51.2267 445.416 54.48V78H433.416ZM485.955 78.96C481.635 78.96 477.688 77.9733 474.115 76C470.595 74.0267 467.768 71.3333 465.635 67.92C463.555 64.4533 462.515 60.5333 462.515 56.16C462.515 51.7333 463.555 47.8133 465.635 44.4C467.768 40.9867 470.595 38.2933 474.115 36.32C477.688 34.3467 481.635 33.36 485.955 33.36C490.275 33.36 494.195 34.3467 497.715 36.32C501.235 38.2933 504.035 40.9867 506.115 44.4C508.248 47.8133 509.315 51.7333 509.315 56.16C509.315 60.5333 508.248 64.4533 506.115 67.92C504.035 71.3333 501.235 74.0267 497.715 76C494.195 77.9733 490.275 78.96 485.955 78.96ZM485.955 68.16C488.142 68.16 490.035 67.6533 491.635 66.64C493.288 65.6267 494.568 64.2133 495.475 62.4C496.435 60.5867 496.915 58.5067 496.915 56.16C496.915 53.8133 496.435 51.76 495.475 50C494.568 48.1867 493.288 46.7733 491.635 45.76C490.035 44.6933 488.142 44.16 485.955 44.16C483.768 44.16 481.848 44.6933 480.195 45.76C478.542 46.7733 477.235 48.1867 476.275 50C475.368 51.76 474.915 53.8133 474.915 56.16C474.915 58.5067 475.368 60.5867 476.275 62.4C477.235 64.2133 478.542 65.6267 480.195 66.64C481.848 67.6533 483.768 68.16 485.955 68.16ZM527.123 78L512.083 34.32H524.483L535.043 65.84L530.723 65.76L542.483 34.32H552.883L564.563 65.76L560.243 65.84L570.803 34.32H583.283L568.163 78H557.763L545.603 44.24H549.763L537.523 78H527.123ZM605.692 78.96C600.892 78.96 596.705 77.84 593.132 75.6C589.612 73.3067 587.212 70.24 585.932 66.4L594.732 62.24C595.852 64.5867 597.372 66.4267 599.292 67.76C601.212 69.0933 603.345 69.76 605.692 69.76C607.399 69.76 608.705 69.4133 609.612 68.72C610.519 68.0267 610.972 67.0667 610.972 65.84C610.972 65.2 610.812 64.6667 610.492 64.24C610.172 63.76 609.692 63.3333 609.052 62.96C608.412 62.5867 607.612 62.2667 606.652 62L599.212 59.92C595.639 58.9067 592.892 57.28 590.972 55.04C589.052 52.7467 588.092 50.0533 588.092 46.96C588.092 44.24 588.785 41.8667 590.172 39.84C591.559 37.8133 593.505 36.24 596.012 35.12C598.519 33.9467 601.399 33.36 604.652 33.36C608.919 33.36 612.652 34.3733 615.852 36.4C619.105 38.3733 621.399 41.1733 622.732 44.8L613.852 48.96C613.212 47.1467 612.039 45.7067 610.332 44.64C608.679 43.52 606.785 42.96 604.652 42.96C603.105 42.96 601.879 43.28 600.972 43.92C600.119 44.56 599.692 45.44 599.692 46.56C599.692 47.1467 599.852 47.68 600.172 48.16C600.492 48.64 600.999 49.0667 601.692 49.44C602.439 49.8133 603.345 50.16 604.412 50.48L611.372 52.56C614.999 53.6267 617.772 55.2533 619.692 57.44C621.612 59.5733 622.572 62.2133 622.572 65.36C622.572 68.08 621.852 70.4533 620.412 72.48C619.025 74.5067 617.079 76.1067 614.572 77.28C612.065 78.4 609.105 78.96 605.692 78.96ZM650.784 78.96C646.144 78.96 642.117 77.9467 638.704 75.92C635.29 73.84 632.65 71.0667 630.784 67.6C628.917 64.1333 627.984 60.2933 627.984 56.08C627.984 51.7067 628.944 47.8133 630.864 44.4C632.837 40.9867 635.477 38.2933 638.784 36.32C642.09 34.3467 645.824 33.36 649.984 33.36C653.45 33.36 656.517 33.92 659.184 35.04C661.85 36.1067 664.09 37.6267 665.904 39.6C667.77 41.5733 669.184 43.8667 670.144 46.48C671.104 49.04 671.584 51.84 671.584 54.88C671.584 55.7333 671.53 56.5867 671.424 57.44C671.37 58.24 671.237 58.9333 671.024 59.52H638.304V50.72H664.224L658.544 54.88C659.077 52.5867 659.05 50.56 658.464 48.8C657.877 46.9867 656.837 45.5733 655.344 44.56C653.904 43.4933 652.117 42.96 649.984 42.96C647.904 42.96 646.117 43.4667 644.624 44.48C643.13 45.4933 642.01 46.9867 641.264 48.96C640.517 50.9333 640.224 53.3333 640.384 56.16C640.17 58.6133 640.464 60.7733 641.264 62.64C642.064 64.5067 643.29 65.9733 644.944 67.04C646.597 68.0533 648.597 68.56 650.944 68.56C653.077 68.56 654.89 68.1333 656.384 67.28C657.93 66.4267 659.13 65.2533 659.984 63.76L669.584 68.32C668.73 70.4533 667.37 72.32 665.504 73.92C663.69 75.52 661.53 76.7733 659.024 77.68C656.517 78.5333 653.77 78.96 650.784 78.96ZM678.65 78V34.32H689.85V44.8L689.05 43.28C690.01 39.6 691.583 37.12 693.77 35.84C696.01 34.5067 698.65 33.84 701.69 33.84H704.25V44.24H700.49C697.557 44.24 695.183 45.1467 693.37 46.96C691.557 48.72 690.65 51.2267 690.65 54.48V78H678.65Z" fill="white"/>
</svg>
