<svg width="296" height="64" viewBox="0 0 296 64" fill="none" xmlns="http://www.w3.org/2000/svg">
<path d="M0.608 58V10.32H8.928L26.784 34.576H22.816L40.288 10.32H48.608V58H39.84V20.24L43.232 21.072L25.12 45.2H24.096L6.432 21.072L9.312 20.24V58H0.608ZM71.5727 58.768C67.9887 58.768 64.8527 57.9573 62.1647 56.336C59.4767 54.7147 57.3861 52.5173 55.8927 49.744C54.3994 46.9707 53.6527 43.8987 53.6527 40.528C53.6527 37.0293 54.3994 33.936 55.8927 31.248C57.4287 28.5173 59.4981 26.3627 62.1007 24.784C64.7461 23.2053 67.6901 22.416 70.9327 22.416C73.6634 22.416 76.0527 22.864 78.1007 23.76C80.1914 24.656 81.9621 25.8933 83.4127 27.472C84.8634 29.0507 85.9727 30.864 86.7407 32.912C87.5087 34.9173 87.8927 37.0933 87.8927 39.44C87.8927 40.0373 87.8501 40.656 87.7647 41.296C87.7221 41.936 87.6154 42.4907 87.4447 42.96H60.5647V36.56H82.7087L78.7407 39.568C79.1247 37.6053 79.0181 35.856 78.4207 34.32C77.8661 32.784 76.9274 31.568 75.6047 30.672C74.3247 29.776 72.7674 29.328 70.9327 29.328C69.1834 29.328 67.6261 29.776 66.2607 30.672C64.8954 31.5253 63.8501 32.8053 63.1247 34.512C62.4421 36.176 62.1861 38.2027 62.3567 40.592C62.1861 42.7253 62.4634 44.624 63.1887 46.288C63.9567 47.9093 65.0661 49.168 66.5167 50.064C68.0101 50.96 69.7167 51.408 71.6367 51.408C73.5567 51.408 75.1781 51.0027 76.5007 50.192C77.8661 49.3813 78.9327 48.2933 79.7007 46.928L86.4847 50.256C85.8021 51.92 84.7354 53.392 83.2847 54.672C81.8341 55.952 80.1061 56.9547 78.1007 57.68C76.1381 58.4053 73.9621 58.768 71.5727 58.768ZM108.792 58.768C105.208 58.768 102.072 57.9573 99.384 56.336C96.696 54.7147 94.6053 52.5173 93.112 49.744C91.6186 46.9707 90.872 43.8987 90.872 40.528C90.872 37.0293 91.6186 33.936 93.112 31.248C94.648 28.5173 96.7173 26.3627 99.32 24.784C101.965 23.2053 104.909 22.416 108.152 22.416C110.883 22.416 113.272 22.864 115.32 23.76C117.411 24.656 119.181 25.8933 120.632 27.472C122.083 29.0507 123.192 30.864 123.96 32.912C124.728 34.9173 125.112 37.0933 125.112 39.44C125.112 40.0373 125.069 40.656 124.984 41.296C124.941 41.936 124.835 42.4907 124.664 42.96H97.784V36.56H119.928L115.96 39.568C116.344 37.6053 116.237 35.856 115.64 34.32C115.085 32.784 114.147 31.568 112.824 30.672C111.544 29.776 109.987 29.328 108.152 29.328C106.403 29.328 104.845 29.776 103.48 30.672C102.115 31.5253 101.069 32.8053 100.344 34.512C99.6613 36.176 99.4053 38.2027 99.576 40.592C99.4053 42.7253 99.6826 44.624 100.408 46.288C101.176 47.9093 102.285 49.168 103.736 50.064C105.229 50.96 106.936 51.408 108.856 51.408C110.776 51.408 112.397 51.0027 113.72 50.192C115.085 49.3813 116.152 48.2933 116.92 46.928L123.704 50.256C123.021 51.92 121.955 53.392 120.504 54.672C119.053 55.952 117.325 56.9547 115.32 57.68C113.357 58.4053 111.181 58.768 108.792 58.768ZM145.371 58.384C141.446 58.384 138.395 57.3173 136.219 55.184C134.086 53.008 133.019 49.9573 133.019 46.032V30.672H127.003V23.184H127.643C129.35 23.184 130.673 22.736 131.611 21.84C132.55 20.944 133.019 19.6427 133.019 17.936V15.248H141.403V23.184H149.403V30.672H141.403V45.584C141.403 46.736 141.595 47.7173 141.979 48.528C142.406 49.3387 143.046 49.9573 143.899 50.384C144.795 50.8107 145.926 51.024 147.291 51.024C147.59 51.024 147.931 51.0027 148.315 50.96C148.742 50.9173 149.147 50.8747 149.531 50.832V58C148.934 58.0853 148.251 58.1707 147.483 58.256C146.715 58.3413 146.011 58.384 145.371 58.384ZM154.672 58V10.32H174.768C177.926 10.32 180.614 10.8747 182.832 11.984C185.094 13.0507 186.822 14.5867 188.016 16.592C189.254 18.5547 189.872 20.944 189.872 23.76C189.872 25.936 189.275 27.984 188.08 29.904C186.928 31.7813 185.072 33.3387 182.512 34.576V30.544C184.859 31.44 186.715 32.5493 188.08 33.872C189.446 35.1947 190.406 36.6667 190.96 38.288C191.515 39.9093 191.792 41.616 191.792 43.408C191.792 47.9733 190.278 51.5573 187.248 54.16C184.262 56.72 180.102 58 174.768 58H154.672ZM163.376 50.32H175.664C177.926 50.32 179.718 49.7013 181.04 48.464C182.406 47.184 183.088 45.4987 183.088 43.408C183.088 41.3173 182.406 39.632 181.04 38.352C179.718 37.072 177.926 36.432 175.664 36.432H163.376V50.32ZM163.376 28.816H175.216C177.008 28.816 178.438 28.304 179.504 27.28C180.571 26.2133 181.104 24.848 181.104 23.184C181.104 21.52 180.571 20.1973 179.504 19.216C178.438 18.2347 177.008 17.744 175.216 17.744H163.376V28.816ZM206.81 58.768C204.378 58.768 202.266 58.3627 200.474 57.552C198.682 56.7413 197.296 55.5893 196.314 54.096C195.333 52.56 194.842 50.7893 194.842 48.784C194.842 46.864 195.269 45.1573 196.122 43.664C196.976 42.128 198.298 40.848 200.09 39.824C201.882 38.8 204.144 38.0747 206.874 37.648L218.266 35.792V42.192L208.474 43.856C206.81 44.1547 205.573 44.688 204.762 45.456C203.952 46.224 203.546 47.2267 203.546 48.464C203.546 49.6587 203.994 50.6187 204.89 51.344C205.829 52.0267 206.981 52.368 208.346 52.368C210.096 52.368 211.632 52.0053 212.954 51.28C214.32 50.512 215.365 49.4667 216.09 48.144C216.858 46.8213 217.242 45.3707 217.242 43.792V34.832C217.242 33.3387 216.645 32.1013 215.45 31.12C214.298 30.096 212.762 29.584 210.842 29.584C209.05 29.584 207.45 30.0747 206.042 31.056C204.677 31.9947 203.674 33.2533 203.034 34.832L196.186 31.504C196.869 29.6693 197.936 28.0907 199.386 26.768C200.88 25.4027 202.629 24.336 204.634 23.568C206.64 22.8 208.816 22.416 211.162 22.416C214.021 22.416 216.538 22.9493 218.714 24.016C220.89 25.04 222.576 26.4907 223.77 28.368C225.008 30.2027 225.626 32.3573 225.626 34.832V58H217.69V52.048L219.482 51.92C218.586 53.4133 217.52 54.672 216.282 55.696C215.045 56.6773 213.637 57.4453 212.058 58C210.48 58.512 208.73 58.768 206.81 58.768ZM244.655 58.768C240.943 58.768 237.7 57.8933 234.927 56.144C232.196 54.352 230.319 51.9413 229.295 48.912L235.567 45.904C236.463 47.8667 237.7 49.4027 239.279 50.512C240.9 51.6213 242.692 52.176 244.655 52.176C246.191 52.176 247.407 51.8347 248.303 51.152C249.199 50.4693 249.647 49.5733 249.647 48.464C249.647 47.7813 249.455 47.2267 249.071 46.8C248.73 46.3307 248.239 45.9467 247.599 45.648C247.002 45.3067 246.34 45.0293 245.615 44.816L239.919 43.216C236.975 42.3627 234.735 41.0613 233.199 39.312C231.706 37.5627 230.959 35.4933 230.959 33.104C230.959 30.9707 231.492 29.1147 232.559 27.536C233.668 25.9147 235.183 24.656 237.103 23.76C239.066 22.864 241.306 22.416 243.823 22.416C247.108 22.416 250.01 23.2053 252.527 24.784C255.044 26.3627 256.836 28.5813 257.903 31.44L251.503 34.448C250.906 32.8693 249.903 31.6107 248.495 30.672C247.087 29.7333 245.508 29.264 243.759 29.264C242.351 29.264 241.242 29.584 240.431 30.224C239.62 30.864 239.215 31.696 239.215 32.72C239.215 33.36 239.386 33.9147 239.727 34.384C240.068 34.8533 240.538 35.2373 241.135 35.536C241.775 35.8347 242.5 36.112 243.311 36.368L248.879 38.032C251.738 38.8853 253.935 40.1653 255.471 41.872C257.05 43.5787 257.839 45.6693 257.839 48.144C257.839 50.2347 257.284 52.0907 256.175 53.712C255.066 55.2907 253.53 56.528 251.567 57.424C249.604 58.32 247.3 58.768 244.655 58.768ZM278.826 58.768C275.242 58.768 272.106 57.9573 269.418 56.336C266.73 54.7147 264.639 52.5173 263.146 49.744C261.652 46.9707 260.906 43.8987 260.906 40.528C260.906 37.0293 261.652 33.936 263.146 31.248C264.682 28.5173 266.751 26.3627 269.354 24.784C271.999 23.2053 274.943 22.416 278.186 22.416C280.916 22.416 283.306 22.864 285.354 23.76C287.444 24.656 289.215 25.8933 290.666 27.472C292.116 29.0507 293.226 30.864 293.994 32.912C294.762 34.9173 295.146 37.0933 295.146 39.44C295.146 40.0373 295.103 40.656 295.018 41.296C294.975 41.936 294.868 42.4907 294.698 42.96H267.818V36.56H289.962L285.994 39.568C286.378 37.6053 286.271 35.856 285.674 34.32C285.119 32.784 284.18 31.568 282.858 30.672C281.578 29.776 280.02 29.328 278.186 29.328C276.436 29.328 274.879 29.776 273.514 30.672C272.148 31.5253 271.103 32.8053 270.378 34.512C269.695 36.176 269.439 38.2027 269.61 40.592C269.439 42.7253 269.716 44.624 270.442 46.288C271.21 47.9093 272.319 49.168 273.77 50.064C275.263 50.96 276.97 51.408 278.89 51.408C280.81 51.408 282.431 51.0027 283.754 50.192C285.119 49.3813 286.186 48.2933 286.954 46.928L293.738 50.256C293.055 51.92 291.988 53.392 290.538 54.672C289.087 55.952 287.359 56.9547 285.354 57.68C283.391 58.4053 281.215 58.768 278.826 58.768Z" fill="black"/>
</svg>
