<svg width="349" height="84" viewBox="0 0 349 84" fill="none" xmlns="http://www.w3.org/2000/svg">
<path d="M32.3969 17.5775C34.9786 17.7163 37.5177 17.5468 39.9127 18.0555C45.6665 19.2773 49.8371 24.5525 49.9355 30.4396C50.0151 35.1969 50.0277 39.958 49.9354 44.7148C49.7985 51.7653 43.8862 57.5005 36.8063 57.5562C33.7062 57.5806 30.6057 57.55 27.5055 57.5635C24.8176 57.5752 23.3216 59.0969 23.3136 61.805C23.3068 64.1122 23.3194 66.4195 23.3095 68.7266C23.3034 70.1471 22.6236 70.8438 21.1938 70.8518C18.1657 70.8687 15.1374 70.8679 12.1092 70.8521C10.6867 70.8447 10.0169 70.1567 10.0103 68.7067C9.9966 65.7146 9.99657 62.7224 10.0102 59.7303C10.017 58.2492 10.7063 57.5733 12.2158 57.5633C14.5589 57.5478 16.9023 57.5658 19.2455 57.5573C21.7133 57.5482 23.3036 55.9659 23.3103 53.5226C23.3152 51.7201 23.3224 49.9175 23.3084 48.1151C23.2909 45.8462 21.7079 44.2488 19.4282 44.2266C17.0491 44.2033 14.6696 44.2295 12.2903 44.2185C10.641 44.2109 10.0131 43.5757 10.0084 41.915C10.0002 38.9949 9.99769 36.0748 10.0095 33.1548C10.0159 31.5816 10.6723 30.9336 12.2523 30.9261C14.5234 30.9154 16.7946 30.9334 19.0657 30.9208C21.8151 30.9054 23.3094 29.3826 23.311 26.6182C23.3123 24.3831 23.3032 22.148 23.3139 19.9129C23.322 18.2299 23.9883 17.5822 25.6915 17.5786C27.8906 17.5739 30.0896 17.5775 32.3969 17.5775ZM31.7568 30.9709C30.2107 30.9554 28.6642 30.911 27.1186 30.9313C24.9706 30.9597 23.3724 32.5221 23.3251 34.6673C23.2822 36.6086 23.2812 38.5526 23.3291 40.4937C23.3808 42.5909 24.943 44.1419 27.0397 44.2036C28.4409 44.2448 29.8458 44.2434 31.2468 44.1944C33.678 44.1094 35.8707 42.4015 36.4216 40.0545C36.656 39.056 36.6435 37.9868 36.6476 36.9494C36.6599 33.8328 35.0039 31.7609 31.7568 30.9709Z" fill="#FEFEFE"/>
<path d="M55.904 68V19.552H64.288V40.032L63.136 38.816C63.9467 36.7253 65.2693 35.1467 67.104 34.08C68.9813 32.9707 71.1573 32.416 73.632 32.416C76.192 32.416 78.4533 32.9707 80.416 34.08C82.4213 35.1893 83.9787 36.7467 85.088 38.752C86.1973 40.7147 86.752 42.9973 86.752 45.6V68H78.368V47.584C78.368 46.048 78.0693 44.7253 77.472 43.616C76.8747 42.5067 76.0427 41.6533 74.976 41.056C73.952 40.416 72.736 40.096 71.328 40.096C69.9627 40.096 68.7467 40.416 67.68 41.056C66.6133 41.6533 65.7813 42.5067 65.184 43.616C64.5867 44.7253 64.288 46.048 64.288 47.584V68H55.904ZM108.897 68.768C105.484 68.768 102.369 67.9787 99.5532 66.4C96.7799 64.8213 94.5612 62.6667 92.8972 59.936C91.2759 57.2053 90.4652 54.0907 90.4652 50.592C90.4652 47.0933 91.2759 43.9787 92.8972 41.248C94.5612 38.5173 96.7799 36.3627 99.5532 34.784C102.327 33.2053 105.441 32.416 108.897 32.416C112.311 32.416 115.404 33.2053 118.177 34.784C120.951 36.3627 123.148 38.5173 124.769 41.248C126.433 43.936 127.265 47.0507 127.265 50.592C127.265 54.0907 126.433 57.2053 124.769 59.936C123.105 62.6667 120.887 64.8213 118.113 66.4C115.34 67.9787 112.268 68.768 108.897 68.768ZM108.897 61.088C110.775 61.088 112.417 60.64 113.825 59.744C115.276 58.848 116.407 57.6107 117.217 56.032C118.071 54.4107 118.497 52.5973 118.497 50.592C118.497 48.544 118.071 46.752 117.217 45.216C116.407 43.6373 115.276 42.4 113.825 41.504C112.417 40.5653 110.775 40.096 108.897 40.096C106.977 40.096 105.292 40.5653 103.841 41.504C102.391 42.4 101.239 43.6373 100.385 45.216C99.5746 46.752 99.1692 48.544 99.1692 50.592C99.1692 52.5973 99.5746 54.4107 100.385 56.032C101.239 57.6107 102.391 58.848 103.841 59.744C105.292 60.64 106.977 61.088 108.897 61.088ZM146.902 68.384C142.977 68.384 139.926 67.3173 137.75 65.184C135.617 63.008 134.55 59.9573 134.55 56.032V40.672H128.534V33.184H129.174C130.881 33.184 132.203 32.736 133.142 31.84C134.081 30.944 134.55 29.6427 134.55 27.936V25.248H142.934V33.184H150.934V40.672H142.934V55.584C142.934 56.736 143.126 57.7173 143.51 58.528C143.937 59.3387 144.577 59.9573 145.43 60.384C146.326 60.8107 147.457 61.024 148.822 61.024C149.121 61.024 149.462 61.0027 149.846 60.96C150.273 60.9173 150.678 60.8747 151.062 60.832V68C150.465 68.0853 149.782 68.1707 149.014 68.256C148.246 68.3413 147.542 68.384 146.902 68.384ZM172.211 68.768C168.797 68.768 165.683 67.9787 162.867 66.4C160.093 64.8213 157.875 62.6667 156.211 59.936C154.589 57.2053 153.779 54.0907 153.779 50.592C153.779 47.0933 154.589 43.9787 156.211 41.248C157.875 38.5173 160.093 36.3627 162.867 34.784C165.64 33.2053 168.755 32.416 172.211 32.416C175.624 32.416 178.717 33.2053 181.491 34.784C184.264 36.3627 186.461 38.5173 188.083 41.248C189.747 43.936 190.579 47.0507 190.579 50.592C190.579 54.0907 189.747 57.2053 188.083 59.936C186.419 62.6667 184.2 64.8213 181.427 66.4C178.653 67.9787 175.581 68.768 172.211 68.768ZM172.211 61.088C174.088 61.088 175.731 60.64 177.139 59.744C178.589 58.848 179.72 57.6107 180.531 56.032C181.384 54.4107 181.811 52.5973 181.811 50.592C181.811 48.544 181.384 46.752 180.531 45.216C179.72 43.6373 178.589 42.4 177.139 41.504C175.731 40.5653 174.088 40.096 172.211 40.096C170.291 40.096 168.605 40.5653 167.155 41.504C165.704 42.4 164.552 43.6373 163.699 45.216C162.888 46.752 162.483 48.544 162.483 50.592C162.483 52.5973 162.888 54.4107 163.699 56.032C164.552 57.6107 165.704 58.848 167.155 59.744C168.605 60.64 170.291 61.088 172.211 61.088ZM195.672 68V20.32H215.768C218.926 20.32 221.614 20.8747 223.832 21.984C226.094 23.0507 227.822 24.5867 229.016 26.592C230.254 28.5547 230.872 30.944 230.872 33.76C230.872 35.936 230.275 37.984 229.08 39.904C227.928 41.7813 226.072 43.3387 223.512 44.576V40.544C225.859 41.44 227.715 42.5493 229.08 43.872C230.446 45.1947 231.406 46.6667 231.96 48.288C232.515 49.9093 232.792 51.616 232.792 53.408C232.792 57.9733 231.278 61.5573 228.248 64.16C225.262 66.72 221.102 68 215.768 68H195.672ZM204.376 60.32H216.664C218.926 60.32 220.718 59.7013 222.04 58.464C223.406 57.184 224.088 55.4987 224.088 53.408C224.088 51.3173 223.406 49.632 222.04 48.352C220.718 47.072 218.926 46.432 216.664 46.432H204.376V60.32ZM204.376 38.816H216.216C218.008 38.816 219.438 38.304 220.504 37.28C221.571 36.2133 222.104 34.848 222.104 33.184C222.104 31.52 221.571 30.1973 220.504 29.216C219.438 28.2347 218.008 27.744 216.216 27.744H204.376V38.816ZM247.81 68.768C245.378 68.768 243.266 68.3627 241.474 67.552C239.682 66.7413 238.296 65.5893 237.314 64.096C236.333 62.56 235.842 60.7893 235.842 58.784C235.842 56.864 236.269 55.1573 237.122 53.664C237.976 52.128 239.298 50.848 241.09 49.824C242.882 48.8 245.144 48.0747 247.874 47.648L259.266 45.792V52.192L249.474 53.856C247.81 54.1547 246.573 54.688 245.762 55.456C244.952 56.224 244.546 57.2267 244.546 58.464C244.546 59.6587 244.994 60.6187 245.89 61.344C246.829 62.0267 247.981 62.368 249.346 62.368C251.096 62.368 252.632 62.0053 253.954 61.28C255.32 60.512 256.365 59.4667 257.09 58.144C257.858 56.8213 258.242 55.3707 258.242 53.792V44.832C258.242 43.3387 257.645 42.1013 256.45 41.12C255.298 40.096 253.762 39.584 251.842 39.584C250.05 39.584 248.45 40.0747 247.042 41.056C245.677 41.9947 244.674 43.2533 244.034 44.832L237.186 41.504C237.869 39.6693 238.936 38.0907 240.386 36.768C241.88 35.4027 243.629 34.336 245.634 33.568C247.64 32.8 249.816 32.416 252.162 32.416C255.021 32.416 257.538 32.9493 259.714 34.016C261.89 35.04 263.576 36.4907 264.77 38.368C266.008 40.2027 266.626 42.3573 266.626 44.832V68H258.69V62.048L260.482 61.92C259.586 63.4133 258.52 64.672 257.282 65.696C256.045 66.6773 254.637 67.4453 253.058 68C251.48 68.512 249.73 68.768 247.81 68.768ZM285.655 68.768C281.943 68.768 278.7 67.8933 275.927 66.144C273.196 64.352 271.319 61.9413 270.295 58.912L276.567 55.904C277.463 57.8667 278.7 59.4027 280.279 60.512C281.9 61.6213 283.692 62.176 285.655 62.176C287.191 62.176 288.407 61.8347 289.303 61.152C290.199 60.4693 290.647 59.5733 290.647 58.464C290.647 57.7813 290.455 57.2267 290.071 56.8C289.73 56.3307 289.239 55.9467 288.599 55.648C288.002 55.3067 287.34 55.0293 286.615 54.816L280.919 53.216C277.975 52.3627 275.735 51.0613 274.199 49.312C272.706 47.5627 271.959 45.4933 271.959 43.104C271.959 40.9707 272.492 39.1147 273.559 37.536C274.668 35.9147 276.183 34.656 278.103 33.76C280.066 32.864 282.306 32.416 284.823 32.416C288.108 32.416 291.01 33.2053 293.527 34.784C296.044 36.3627 297.836 38.5813 298.903 41.44L292.503 44.448C291.906 42.8693 290.903 41.6107 289.495 40.672C288.087 39.7333 286.508 39.264 284.759 39.264C283.351 39.264 282.242 39.584 281.431 40.224C280.62 40.864 280.215 41.696 280.215 42.72C280.215 43.36 280.386 43.9147 280.727 44.384C281.068 44.8533 281.538 45.2373 282.135 45.536C282.775 45.8347 283.5 46.112 284.311 46.368L289.879 48.032C292.738 48.8853 294.935 50.1653 296.471 51.872C298.05 53.5787 298.839 55.6693 298.839 58.144C298.839 60.2347 298.284 62.0907 297.175 63.712C296.066 65.2907 294.53 66.528 292.567 67.424C290.604 68.32 288.3 68.768 285.655 68.768ZM319.826 68.768C316.242 68.768 313.106 67.9573 310.418 66.336C307.73 64.7147 305.639 62.5173 304.146 59.744C302.652 56.9707 301.906 53.8987 301.906 50.528C301.906 47.0293 302.652 43.936 304.146 41.248C305.682 38.5173 307.751 36.3627 310.354 34.784C312.999 33.2053 315.943 32.416 319.186 32.416C321.916 32.416 324.306 32.864 326.354 33.76C328.444 34.656 330.215 35.8933 331.666 37.472C333.116 39.0507 334.226 40.864 334.994 42.912C335.762 44.9173 336.146 47.0933 336.146 49.44C336.146 50.0373 336.103 50.656 336.018 51.296C335.975 51.936 335.868 52.4907 335.698 52.96H308.818V46.56H330.962L326.994 49.568C327.378 47.6053 327.271 45.856 326.674 44.32C326.119 42.784 325.18 41.568 323.858 40.672C322.578 39.776 321.02 39.328 319.186 39.328C317.436 39.328 315.879 39.776 314.514 40.672C313.148 41.5253 312.103 42.8053 311.378 44.512C310.695 46.176 310.439 48.2027 310.61 50.592C310.439 52.7253 310.716 54.624 311.442 56.288C312.21 57.9093 313.319 59.168 314.77 60.064C316.263 60.96 317.97 61.408 319.89 61.408C321.81 61.408 323.431 61.0027 324.754 60.192C326.119 59.3813 327.186 58.2933 327.954 56.928L334.738 60.256C334.055 61.92 332.988 63.392 331.538 64.672C330.087 65.952 328.359 66.9547 326.354 67.68C324.391 68.4053 322.215 68.768 319.826 68.768Z" fill="white"/>
</svg>
