<svg width="348" height="84" viewBox="0 0 348 84" fill="none" xmlns="http://www.w3.org/2000/svg">
<path d="M30.1743 20.0012C32.4999 20.1262 34.7869 19.9736 36.9443 20.4317C42.1271 21.5323 45.8838 26.284 45.9725 31.587C46.0442 35.8721 46.0555 40.1607 45.9724 44.4455C45.8491 50.7964 40.5235 55.9625 34.1462 56.0126C31.3537 56.0346 28.5609 56.007 25.7683 56.0192C23.3472 56.0297 21.9996 57.4004 21.9924 59.8398C21.9863 61.918 21.9976 63.9963 21.9887 66.0745C21.9832 67.354 21.3709 67.9817 20.083 67.9888C17.3554 68.004 14.6276 68.0033 11.8999 67.9891C10.6186 67.9824 10.0152 67.3627 10.0093 66.0566C9.99693 63.3614 9.99691 60.6661 10.0092 57.971C10.0153 56.6369 10.6362 56.028 11.9959 56.019C14.1065 56.0051 16.2173 56.0213 18.328 56.0136C20.551 56.0054 21.9834 54.5802 21.9894 52.3792C21.9939 50.7556 22.0003 49.1319 21.9878 47.5084C21.9719 45.4646 20.5461 44.0258 18.4926 44.0057C16.3496 43.9848 14.2062 44.0084 12.063 43.9985C10.5774 43.9916 10.0118 43.4195 10.0076 41.9235C10.0002 39.2933 9.99792 36.663 10.0086 34.0327C10.0143 32.6156 10.6056 32.0319 12.0288 32.0252C14.0745 32.0155 16.1204 32.0318 18.1661 32.0203C20.6426 32.0065 21.9886 30.6349 21.9901 28.1448C21.9912 26.1315 21.983 24.1181 21.9927 22.1049C22 20.5889 22.6001 20.0055 24.1343 20.0022C26.1152 19.998 28.096 20.0012 30.1743 20.0012ZM29.5977 32.0655C28.2051 32.0515 26.8121 32.0115 25.4199 32.0299C23.485 32.0554 22.0454 33.4628 22.0028 35.3951C21.9642 37.1438 21.9632 38.8948 22.0064 40.6433C22.053 42.5324 23.4601 43.9295 25.3487 43.985C26.6109 44.0222 27.8764 44.0209 29.1384 43.9768C31.3283 43.9002 33.3034 42.3618 33.7996 40.2477C34.0108 39.3483 33.9995 38.3852 34.0032 37.4507C34.0143 34.6434 32.5226 32.7771 29.5977 32.0655Z" fill="#FEFEFE"/>
<path d="M53.9353 68V19.552H62.3193V40.032L61.1673 38.816C61.9779 36.7253 63.3006 35.1467 65.1353 34.08C67.0126 32.9707 69.1886 32.416 71.6633 32.416C74.2233 32.416 76.4846 32.9707 78.4473 34.08C80.4526 35.1893 82.0099 36.7467 83.1193 38.752C84.2286 40.7147 84.7833 42.9973 84.7833 45.6V68H76.3993V47.584C76.3993 46.048 76.1006 44.7253 75.5033 43.616C74.9059 42.5067 74.0739 41.6533 73.0073 41.056C71.9833 40.416 70.7673 40.096 69.3593 40.096C67.9939 40.096 66.7779 40.416 65.7113 41.056C64.6446 41.6533 63.8126 42.5067 63.2153 43.616C62.6179 44.7253 62.3193 46.048 62.3193 47.584V68H53.9353ZM106.928 68.768C103.515 68.768 100.4 67.9787 97.5845 66.4C94.8112 64.8213 92.5925 62.6667 90.9285 59.936C89.3072 57.2053 88.4965 54.0907 88.4965 50.592C88.4965 47.0933 89.3072 43.9787 90.9285 41.248C92.5925 38.5173 94.8112 36.3627 97.5845 34.784C100.358 33.2053 103.472 32.416 106.928 32.416C110.342 32.416 113.435 33.2053 116.208 34.784C118.982 36.3627 121.179 38.5173 122.8 41.248C124.464 43.936 125.296 47.0507 125.296 50.592C125.296 54.0907 124.464 57.2053 122.8 59.936C121.136 62.6667 118.918 64.8213 116.144 66.4C113.371 67.9787 110.299 68.768 106.928 68.768ZM106.928 61.088C108.806 61.088 110.448 60.64 111.856 59.744C113.307 58.848 114.438 57.6107 115.248 56.032C116.102 54.4107 116.528 52.5973 116.528 50.592C116.528 48.544 116.102 46.752 115.248 45.216C114.438 43.6373 113.307 42.4 111.856 41.504C110.448 40.5653 108.806 40.096 106.928 40.096C105.008 40.096 103.323 40.5653 101.872 41.504C100.422 42.4 99.2698 43.6373 98.4165 45.216C97.6058 46.752 97.2005 48.544 97.2005 50.592C97.2005 52.5973 97.6058 54.4107 98.4165 56.032C99.2698 57.6107 100.422 58.848 101.872 59.744C103.323 60.64 105.008 61.088 106.928 61.088ZM144.933 68.384C141.008 68.384 137.957 67.3173 135.781 65.184C133.648 63.008 132.581 59.9573 132.581 56.032V40.672H126.565V33.184H127.205C128.912 33.184 130.235 32.736 131.173 31.84C132.112 30.944 132.581 29.6427 132.581 27.936V25.248H140.965V33.184H148.965V40.672H140.965V55.584C140.965 56.736 141.157 57.7173 141.541 58.528C141.968 59.3387 142.608 59.9573 143.461 60.384C144.357 60.8107 145.488 61.024 146.853 61.024C147.152 61.024 147.493 61.0027 147.877 60.96C148.304 60.9173 148.709 60.8747 149.093 60.832V68C148.496 68.0853 147.813 68.1707 147.045 68.256C146.277 68.3413 145.573 68.384 144.933 68.384ZM170.242 68.768C166.829 68.768 163.714 67.9787 160.898 66.4C158.125 64.8213 155.906 62.6667 154.242 59.936C152.621 57.2053 151.81 54.0907 151.81 50.592C151.81 47.0933 152.621 43.9787 154.242 41.248C155.906 38.5173 158.125 36.3627 160.898 34.784C163.671 33.2053 166.786 32.416 170.242 32.416C173.655 32.416 176.749 33.2053 179.522 34.784C182.295 36.3627 184.493 38.5173 186.114 41.248C187.778 43.936 188.61 47.0507 188.61 50.592C188.61 54.0907 187.778 57.2053 186.114 59.936C184.45 62.6667 182.231 64.8213 179.458 66.4C176.685 67.9787 173.613 68.768 170.242 68.768ZM170.242 61.088C172.119 61.088 173.762 60.64 175.17 59.744C176.621 58.848 177.751 57.6107 178.562 56.032C179.415 54.4107 179.842 52.5973 179.842 50.592C179.842 48.544 179.415 46.752 178.562 45.216C177.751 43.6373 176.621 42.4 175.17 41.504C173.762 40.5653 172.119 40.096 170.242 40.096C168.322 40.096 166.637 40.5653 165.186 41.504C163.735 42.4 162.583 43.6373 161.73 45.216C160.919 46.752 160.514 48.544 160.514 50.592C160.514 52.5973 160.919 54.4107 161.73 56.032C162.583 57.6107 163.735 58.848 165.186 59.744C166.637 60.64 168.322 61.088 170.242 61.088ZM193.704 68V20.32H213.8C216.957 20.32 219.645 20.8747 221.864 21.984C224.125 23.0507 225.853 24.5867 227.048 26.592C228.285 28.5547 228.904 30.944 228.904 33.76C228.904 35.936 228.306 37.984 227.112 39.904C225.96 41.7813 224.104 43.3387 221.544 44.576V40.544C223.89 41.44 225.746 42.5493 227.112 43.872C228.477 45.1947 229.437 46.6667 229.992 48.288C230.546 49.9093 230.824 51.616 230.824 53.408C230.824 57.9733 229.309 61.5573 226.28 64.16C223.293 66.72 219.133 68 213.8 68H193.704ZM202.408 60.32H214.696C216.957 60.32 218.749 59.7013 220.072 58.464C221.437 57.184 222.12 55.4987 222.12 53.408C222.12 51.3173 221.437 49.632 220.072 48.352C218.749 47.072 216.957 46.432 214.696 46.432H202.408V60.32ZM202.408 38.816H214.248C216.04 38.816 217.469 38.304 218.536 37.28C219.602 36.2133 220.136 34.848 220.136 33.184C220.136 31.52 219.602 30.1973 218.536 29.216C217.469 28.2347 216.04 27.744 214.248 27.744H202.408V38.816ZM245.841 68.768C243.409 68.768 241.297 68.3627 239.505 67.552C237.713 66.7413 236.327 65.5893 235.345 64.096C234.364 62.56 233.873 60.7893 233.873 58.784C233.873 56.864 234.3 55.1573 235.153 53.664C236.007 52.128 237.329 50.848 239.121 49.824C240.913 48.8 243.175 48.0747 245.905 47.648L257.297 45.792V52.192L247.505 53.856C245.841 54.1547 244.604 54.688 243.793 55.456C242.983 56.224 242.577 57.2267 242.577 58.464C242.577 59.6587 243.025 60.6187 243.921 61.344C244.86 62.0267 246.012 62.368 247.377 62.368C249.127 62.368 250.663 62.0053 251.985 61.28C253.351 60.512 254.396 59.4667 255.121 58.144C255.889 56.8213 256.273 55.3707 256.273 53.792V44.832C256.273 43.3387 255.676 42.1013 254.481 41.12C253.329 40.096 251.793 39.584 249.873 39.584C248.081 39.584 246.481 40.0747 245.073 41.056C243.708 41.9947 242.705 43.2533 242.065 44.832L235.217 41.504C235.9 39.6693 236.967 38.0907 238.417 36.768C239.911 35.4027 241.66 34.336 243.665 33.568C245.671 32.8 247.847 32.416 250.193 32.416C253.052 32.416 255.569 32.9493 257.745 34.016C259.921 35.04 261.607 36.4907 262.801 38.368C264.039 40.2027 264.657 42.3573 264.657 44.832V68H256.721V62.048L258.513 61.92C257.617 63.4133 256.551 64.672 255.313 65.696C254.076 66.6773 252.668 67.4453 251.089 68C249.511 68.512 247.761 68.768 245.841 68.768ZM283.686 68.768C279.974 68.768 276.731 67.8933 273.958 66.144C271.227 64.352 269.35 61.9413 268.326 58.912L274.598 55.904C275.494 57.8667 276.731 59.4027 278.31 60.512C279.931 61.6213 281.723 62.176 283.686 62.176C285.222 62.176 286.438 61.8347 287.334 61.152C288.23 60.4693 288.678 59.5733 288.678 58.464C288.678 57.7813 288.486 57.2267 288.102 56.8C287.761 56.3307 287.27 55.9467 286.63 55.648C286.033 55.3067 285.371 55.0293 284.646 54.816L278.95 53.216C276.006 52.3627 273.766 51.0613 272.23 49.312C270.737 47.5627 269.99 45.4933 269.99 43.104C269.99 40.9707 270.523 39.1147 271.59 37.536C272.699 35.9147 274.214 34.656 276.134 33.76C278.097 32.864 280.337 32.416 282.854 32.416C286.139 32.416 289.041 33.2053 291.558 34.784C294.075 36.3627 295.867 38.5813 296.934 41.44L290.534 44.448C289.937 42.8693 288.934 41.6107 287.526 40.672C286.118 39.7333 284.539 39.264 282.79 39.264C281.382 39.264 280.273 39.584 279.462 40.224C278.651 40.864 278.246 41.696 278.246 42.72C278.246 43.36 278.417 43.9147 278.758 44.384C279.099 44.8533 279.569 45.2373 280.166 45.536C280.806 45.8347 281.531 46.112 282.342 46.368L287.91 48.032C290.769 48.8853 292.966 50.1653 294.502 51.872C296.081 53.5787 296.87 55.6693 296.87 58.144C296.87 60.2347 296.315 62.0907 295.206 63.712C294.097 65.2907 292.561 66.528 290.598 67.424C288.635 68.32 286.331 68.768 283.686 68.768ZM317.857 68.768C314.273 68.768 311.137 67.9573 308.449 66.336C305.761 64.7147 303.67 62.5173 302.177 59.744C300.684 56.9707 299.937 53.8987 299.937 50.528C299.937 47.0293 300.684 43.936 302.177 41.248C303.713 38.5173 305.782 36.3627 308.385 34.784C311.03 33.2053 313.974 32.416 317.217 32.416C319.948 32.416 322.337 32.864 324.385 33.76C326.476 34.656 328.246 35.8933 329.697 37.472C331.148 39.0507 332.257 40.864 333.025 42.912C333.793 44.9173 334.177 47.0933 334.177 49.44C334.177 50.0373 334.134 50.656 334.049 51.296C334.006 51.936 333.9 52.4907 333.729 52.96H306.849V46.56H328.993L325.025 49.568C325.409 47.6053 325.302 45.856 324.705 44.32C324.15 42.784 323.212 41.568 321.889 40.672C320.609 39.776 319.052 39.328 317.217 39.328C315.468 39.328 313.91 39.776 312.545 40.672C311.18 41.5253 310.134 42.8053 309.409 44.512C308.726 46.176 308.47 48.2027 308.641 50.592C308.47 52.7253 308.748 54.624 309.473 56.288C310.241 57.9093 311.35 59.168 312.801 60.064C314.294 60.96 316.001 61.408 317.921 61.408C319.841 61.408 321.462 61.0027 322.785 60.192C324.15 59.3813 325.217 58.2933 325.985 56.928L332.769 60.256C332.086 61.92 331.02 63.392 329.569 64.672C328.118 65.952 326.39 66.9547 324.385 67.68C322.422 68.4053 320.246 68.768 317.857 68.768Z" fill="white"/>
</svg>
