<svg width="487" height="94" viewBox="0 0 487 94" fill="none" xmlns="http://www.w3.org/2000/svg">
<path d="M3.32205 26.4924C3.40875 26.4226 3.49544 26.3528 3.6268 26.2444C3.89433 26.0296 4.1172 25.8533 4.34007 25.6771C4.34007 25.6771 4.35237 25.6702 4.3906 25.6634C4.92687 25.4045 5.42491 25.1523 5.94562 24.9C5.99991 24.8919 6.02283 24.8733 6.06946 24.8437C6.20039 24.8027 6.29891 24.7618 6.43019 24.7225C6.5412 24.6894 6.61944 24.6548 6.73756 24.6193C6.95587 24.5639 7.13431 24.5094 7.3361 24.4632C7.40563 24.4549 7.4518 24.4383 7.54161 24.4236C7.69689 24.3967 7.80853 24.3679 7.94073 24.349C8.00407 24.3457 8.04685 24.3325 8.11616 24.3218C8.1596 24.3188 8.17651 24.3134 8.21858 24.3118C8.25912 24.3084 8.27449 24.3012 8.32901 24.2947C8.41717 24.2785 8.4662 24.2617 8.5373 24.2554C8.60512 24.2516 8.65085 24.2374 8.73928 24.2269C8.95261 24.219 9.12324 24.2076 9.32749 24.2035C9.424 24.1892 9.4869 24.1675 9.58188 24.1571C9.72569 24.1576 9.83742 24.1467 9.96897 24.1476C10.0322 24.1508 10.0756 24.1423 10.1419 24.1419C10.1982 24.1557 10.2294 24.1495 10.2972 24.1437C10.655 24.1454 10.9738 24.1351 11.3376 24.1314C11.7462 24.1333 12.11 24.1287 12.5125 24.1364C13.4927 24.1399 14.4341 24.1312 15.4179 24.1286C15.631 24.1249 15.8017 24.1151 16.0047 24.1126C16.08 24.1116 16.123 24.1032 16.1997 24.1014C16.3668 24.0837 16.5004 24.0593 16.656 24.0457C16.7389 24.0438 16.7996 24.0311 16.8958 24.0218C16.9777 24.0162 17.0241 24.0072 17.0995 24.0014C17.1602 23.9839 17.1919 23.963 17.2448 23.9495C17.2971 23.9572 17.3252 23.9481 17.363 23.9389C17.4108 23.9557 17.4383 23.9454 17.4604 23.9198C17.4624 23.9222 17.4644 23.9163 17.4905 23.9189C17.5325 23.9138 17.5483 23.9062 17.6051 23.8965C17.6965 23.8733 17.7469 23.8523 17.8074 23.84C17.8378 23.8494 17.8525 23.8407 17.8963 23.8213C18.3455 23.668 18.78 23.5557 19.1708 23.3572C21.8734 21.9842 23.2244 19.7056 23.4435 16.7438C23.5413 15.4213 23.456 14.0863 23.4946 12.7582C23.593 9.37498 25.1962 6.97283 28.2702 5.56119C29.4004 5.04221 30.6051 4.98979 31.8293 5.00135C36.1653 5.04231 40.5031 4.99694 44.8371 5.1076C46.5167 5.15049 48.1876 5.52491 49.8636 5.73878C49.9949 5.75553 50.1358 5.69718 50.2722 5.67373C50.3875 5.71003 50.5028 5.74633 50.6795 5.80022C50.79 5.85894 50.8327 5.92054 50.8891 5.93818C51.8327 6.23312 52.778 6.52256 53.7489 6.83645C54.2301 7.04039 54.6853 7.2211 55.1405 7.40181C55.1405 7.40181 55.1597 7.3847 55.1672 7.41954C55.5598 7.63441 55.945 7.81444 56.3307 7.99286C56.3313 7.99127 56.3342 7.99098 56.3536 8.01772C56.4918 8.09702 56.6104 8.14959 56.7291 8.20216C56.7291 8.20216 56.7566 8.17335 56.7574 8.21574C56.9799 8.37116 57.2014 8.48418 57.4238 8.59562C57.4246 8.59403 57.4277 8.59417 57.4408 8.61731C57.5009 8.66331 57.5479 8.68619 57.601 8.71234C57.6071 8.71561 57.6192 8.72255 57.6321 8.74193C57.6704 8.78282 57.6996 8.79098 57.7325 8.78581C57.7325 8.78581 57.7424 8.78237 57.7459 8.80699C57.7831 8.84495 57.8168 8.85829 57.8504 8.87163C57.8504 8.87163 57.8509 8.86511 57.8631 8.89492C57.9862 8.98747 58.0971 9.05021 58.21 9.11177C58.2119 9.1106 58.2153 9.11325 58.2319 9.13856C58.3378 9.21014 58.4271 9.25642 58.5174 9.30385C58.5185 9.30499 58.5168 9.30806 58.534 9.33415C58.6424 9.4051 58.7337 9.44996 58.825 9.49482C58.825 9.49482 58.8424 9.47498 58.8442 9.51211C58.9362 9.60032 59.0263 9.6514 59.1163 9.70248C59.1163 9.70248 59.1292 9.66704 59.1348 9.71184C59.2249 9.80619 59.3094 9.85573 59.397 9.90401C59.4001 9.90276 59.4064 9.90517 59.4207 9.93319C59.5562 10.0398 59.6773 10.1183 59.7984 10.1969C59.7984 10.1969 59.8052 10.1965 59.819 10.2256C59.9377 10.3286 60.0427 10.4023 60.1477 10.4761C60.1545 10.5029 60.1697 10.5234 60.2276 10.5623C60.2618 10.5869 60.3103 10.5935 60.3103 10.5935C60.3103 10.5935 60.3167 10.5741 60.3271 10.6132C60.4384 10.7236 60.5394 10.795 60.6404 10.8664C60.6404 10.8664 60.6431 10.8598 60.6511 10.8888C60.7099 10.9447 60.7607 10.9716 60.8115 10.9986C60.8115 10.9986 60.8324 10.9802 60.8272 11.0124C60.8524 11.0605 60.8828 11.0765 60.9132 11.0924C60.9132 11.0924 60.9217 11.0969 60.9248 11.1204C60.949 11.1706 60.9765 11.185 61.0227 11.1864C61.0349 11.1857 61.0106 11.1829 61.0192 11.2069C61.0697 11.2582 61.1118 11.2856 61.1583 11.3259C61.1628 11.3388 61.1896 11.3445 61.2023 11.3672C61.2711 11.4255 61.3272 11.461 61.3833 11.4965C61.3833 11.4965 61.3935 11.4984 61.4036 11.5241C61.4419 11.5647 61.4703 11.5795 61.4986 11.5943C61.4986 11.5943 61.5126 11.5893 61.5128 11.6195C61.541 11.6641 61.5692 11.6786 61.5973 11.6931C61.5973 11.6931 61.605 11.6947 61.6084 11.7226C61.6305 11.7828 61.6584 11.7968 61.6955 11.7925C61.6955 11.7925 61.6997 11.8067 61.7066 11.8304C61.7276 11.8759 61.7475 11.8885 61.7793 11.8964C61.7855 11.9011 61.7985 11.9092 61.8058 11.9309C61.831 11.9805 61.8565 11.9957 61.8935 12.0043C61.8975 12.0103 61.9059 12.022 61.9149 12.0403C61.9431 12.0816 61.9675 12.0911 61.9972 12.0872C61.9972 12.0872 62.0023 12.086 62.0112 12.1127C62.0516 12.1547 62.0831 12.1701 62.1145 12.1855C62.1145 12.1855 62.1264 12.1692 62.1245 12.2017C62.154 12.2506 62.1853 12.2671 62.2166 12.2836C62.2166 12.2836 62.2233 12.2706 62.2232 12.3011C62.2541 12.3488 62.2849 12.3662 62.3158 12.3835C62.3158 12.3835 62.3231 12.3695 62.3227 12.4006C62.3531 12.449 62.3839 12.4663 62.4148 12.4836C62.4148 12.4836 62.4233 12.4686 62.4226 12.5003C62.4528 12.5492 62.4837 12.5664 62.5146 12.5836C62.5146 12.5836 62.5226 12.5696 62.5225 12.6006C62.5533 12.6487 62.5842 12.6659 62.6152 12.6831C62.6152 12.6831 62.6207 12.6707 62.6213 12.7007C62.653 12.7481 62.6841 12.7654 62.7151 12.7827C62.7151 12.7827 62.7194 12.7709 62.7197 12.8004C62.7501 12.8481 62.7801 12.8662 62.8102 12.8843C62.8102 12.8843 62.8189 12.864 62.8162 12.8987C62.842 12.9514 62.8705 12.9696 62.8989 12.9877C62.8989 12.9877 62.9288 12.9788 62.9198 13.0104C62.9394 13.0577 62.968 13.0733 62.9965 13.0889C62.9965 13.0889 62.9986 13.0965 63.0029 13.1208C63.0072 13.1452 63.0432 13.1674 63.0432 13.1674C63.0465 13.196 63.0601 13.2183 63.1123 13.2685C63.1714 13.3219 63.2022 13.3411 63.2331 13.3602C63.2331 13.3602 63.2338 13.3526 63.2363 13.3848C63.2974 13.4697 63.356 13.5224 63.4182 13.5705C63.4217 13.5659 63.4103 13.5668 63.4194 13.5961C63.4885 13.6783 63.5486 13.7312 63.6052 13.7824C63.6018 13.7808 63.6038 13.7881 63.6107 13.811C63.635 13.8653 63.6616 13.8803 63.6974 13.8788C63.6974 13.8788 63.7045 13.8809 63.7065 13.9071C63.7505 13.9732 63.7926 14.0131 63.8348 14.0531C63.8348 14.0531 63.8355 14.0495 63.8407 14.0809C63.9367 14.1993 64.0274 14.2863 64.1181 14.3733C64.1181 14.3733 64.1199 14.3613 64.1186 14.3906C64.1462 14.4397 64.1753 14.4595 64.2043 14.4792C64.2043 14.4792 64.2112 14.4525 64.2094 14.4912C64.2359 14.5481 64.2642 14.5662 64.2925 14.5843C64.2925 14.5843 64.2947 14.5897 64.2997 14.6225C64.3988 14.7712 64.4929 14.8869 64.5884 15.002C64.5898 15.0014 64.5911 15.004 64.6001 15.0323C64.6772 15.1311 64.7452 15.2015 64.8132 15.272C64.8132 15.272 64.8152 15.2602 64.8128 15.2892C64.8374 15.3391 64.8644 15.3599 64.8913 15.3807C64.8913 15.3807 64.8946 15.3863 64.8958 15.4165C64.9612 15.5237 65.0253 15.6008 65.0895 15.6779C65.0895 15.6779 65.1068 15.6481 65.1029 15.6943C65.1644 15.8186 65.2297 15.8966 65.2951 15.9747C65.2951 15.9747 65.3267 15.9722 65.3164 16.0053C65.4359 16.2192 65.5656 16.3999 65.7039 16.614C65.973 17.0707 66.2493 17.4853 66.4918 17.9187C68.9342 22.2838 70.1014 26.9843 70.1012 31.9713C70.1011 33.5095 69.9565 35.0478 69.8621 36.6176C69.844 36.6955 69.8417 36.742 69.8255 36.8257C69.5877 37.9156 69.3895 38.9746 69.132 40.019C68.9224 40.8694 68.6419 41.7023 68.3686 42.5681C68.2262 42.9162 68.1081 43.2391 67.9884 43.57C67.9868 43.5779 67.987 43.5941 67.9588 43.6173C67.8849 43.7773 67.839 43.9142 67.793 44.0497C67.7929 44.0483 67.7897 44.0469 67.7649 44.0699C67.5601 44.508 67.3802 44.9232 67.2002 45.3384C67.2002 45.3384 67.2012 45.3424 67.1744 45.3587C67.0976 45.4948 67.0476 45.6147 66.997 45.7377C66.9966 45.7409 67.0019 45.7373 66.9747 45.7564C66.8954 45.897 66.8433 46.0184 66.7991 46.1427C66.807 46.1456 66.7956 46.1332 66.7711 46.1483C66.7287 46.2167 66.7108 46.27 66.6929 46.3234C66.6929 46.3234 66.706 46.3251 66.6732 46.3397C66.5859 46.4596 66.5312 46.5649 66.4766 46.6702C66.4766 46.6702 66.4441 46.7005 66.4218 46.7406C66.3984 46.7973 66.3973 46.814 66.3962 46.8307C66.3962 46.8307 66.399 46.8324 66.3724 46.8474C66.3272 46.9192 66.3087 46.976 66.2902 47.0328C66.2902 47.0328 66.3133 47.0433 66.2746 47.051C66.0912 47.3184 65.9465 47.5781 65.8018 47.8377C65.8018 47.8377 65.8182 47.847 65.7848 47.8522C65.7295 47.9112 65.7075 47.9649 65.6855 48.0186C65.6855 48.0186 65.6977 48.0528 65.6627 48.0503C65.5812 48.1377 65.5347 48.2275 65.4882 48.3173C65.4882 48.3173 65.485 48.3314 65.4633 48.3349C65.43 48.3719 65.4185 48.4053 65.4069 48.4387C65.4069 48.4387 65.4231 48.443 65.3913 48.4478C65.3352 48.4992 65.3109 48.5458 65.2854 48.5936C65.2842 48.5948 65.2808 48.5951 65.2565 48.6143C65.1843 48.7235 65.1364 48.8134 65.0893 48.906C65.0901 48.9086 65.0893 48.9139 65.0658 48.9257C65.0294 48.9696 65.0165 49.0016 65.0115 49.0362C65.0194 49.0389 65.0073 49.0275 64.9828 49.0396C64.9359 49.0999 64.9135 49.1479 64.8912 49.196C64.8912 49.196 64.8907 49.2053 64.8653 49.2178C64.827 49.2624 64.814 49.2946 64.8011 49.3268C64.8011 49.3268 64.8232 49.3272 64.7827 49.3356C64.6609 49.4674 64.5797 49.591 64.4985 49.7145C64.4985 49.7145 64.5256 49.7234 64.4823 49.7338C64.359 49.8698 64.2789 49.9954 64.1988 50.1211C64.1988 50.1211 64.2124 50.1262 64.1825 50.1269C64.1239 50.1725 64.0952 50.2173 64.0665 50.262C64.0665 50.262 64.0503 50.2645 64.0271 50.2882C63.9677 50.3762 63.9314 50.4403 63.8951 50.5045C63.8951 50.5045 63.8946 50.5124 63.8692 50.5208C63.8186 50.5502 63.8053 50.577 63.8032 50.6111C63.8026 50.6123 63.7995 50.6117 63.7715 50.6268C63.6613 50.7587 63.5791 50.8755 63.4969 50.9924C63.4969 50.9924 63.4975 51.0002 63.4713 51.0114C63.4306 51.0535 63.416 51.0844 63.4014 51.1153C63.4014 51.1153 63.4217 51.1344 63.3875 51.1307C63.3376 51.1589 63.3221 51.1908 63.3065 51.2226C63.3065 51.2226 63.3175 51.2267 63.2889 51.2291C63.244 51.2635 63.2277 51.2955 63.2113 51.3275C63.2113 51.3275 63.2238 51.328 63.1881 51.3345C63.033 51.4924 62.9137 51.6437 62.7945 51.795C62.7945 51.795 62.7976 51.8025 62.7697 51.81C62.7279 51.847 62.714 51.8763 62.7001 51.9057C62.7001 51.9057 62.7337 51.9381 62.6917 51.9296C62.6347 51.952 62.6198 51.9828 62.6049 52.0136C62.6049 52.0136 62.6258 52.032 62.591 52.0281C62.5403 52.0558 62.5244 52.0873 62.5086 52.1189C62.5086 52.1189 62.5207 52.1251 62.4911 52.1268C62.4456 52.1607 62.4297 52.193 62.4137 52.2253C62.4137 52.2253 62.4261 52.2256 62.39 52.232C61.9676 52.6442 61.5812 53.0501 61.1949 53.456C61.1949 53.456 61.1697 53.4639 61.1386 53.4882C61.003 53.6269 60.8985 53.7414 60.7941 53.8559C60.7941 53.8559 60.7695 53.8615 60.7368 53.8843C60.6106 54.0128 60.5172 54.1185 60.4238 54.2241C60.4238 54.2241 60.4348 54.226 60.4037 54.2278C60.2827 54.3355 60.1927 54.4415 60.1028 54.5474C60.1028 54.5474 60.0636 54.5769 60.0262 54.6179C59.3707 55.4521 58.8771 56.3033 58.7371 57.3337C58.714 57.3639 58.7179 57.3806 58.7196 57.4328C58.6904 57.5575 58.6797 57.6428 58.6597 57.7515C58.653 57.7914 58.6556 57.8079 58.6495 57.8496C58.6438 57.8922 58.6468 57.9096 58.6392 57.9389C58.6169 57.984 58.6218 58.0139 58.6315 58.0823C58.6268 58.3821 58.6338 58.6402 58.6306 58.9195C58.6303 59.0002 58.6403 59.0595 58.6458 59.1453C58.6469 59.1889 58.6525 59.2059 58.6524 59.2554C58.6561 59.3305 58.6655 59.3731 58.6717 59.4556C58.6875 59.5446 58.7065 59.5938 58.7175 59.6586C58.7111 59.6997 58.7228 59.7194 58.7416 59.7561C58.7387 59.7791 58.7581 59.8213 58.7563 59.8535C58.7783 59.9192 58.802 59.9527 58.8158 60.0155C58.8236 60.1033 58.8411 60.162 58.8552 60.2517C58.8852 60.3575 58.9187 60.4321 58.9537 60.5429C59.0833 60.8279 59.2114 61.077 59.3395 61.326C59.3395 61.326 59.3428 61.3182 59.3395 61.3477C59.364 61.399 59.3916 61.4207 59.4193 61.4425C59.4193 61.4425 59.4111 61.4453 59.4133 61.4832C59.7575 61.9532 60.0994 62.3853 60.4413 62.8175C60.4413 62.8175 60.444 62.8118 60.4479 62.8396C60.4826 62.8879 60.5135 62.9084 60.5443 62.9289C60.6197 63.0149 60.6951 63.101 60.8072 63.2257C60.876 63.2827 60.9081 63.3009 60.9402 63.3191C60.9402 63.3191 60.9396 63.3116 60.9442 63.3442C61.0458 63.4621 61.1429 63.5474 61.24 63.6327C61.2424 63.662 61.2561 63.6842 61.3125 63.7319C61.3761 63.7858 61.4084 63.8073 61.4407 63.8288C61.515 63.9143 61.5893 63.9999 61.7016 64.1272C61.8047 64.2188 61.8701 64.2686 61.9354 64.3184C61.9354 64.3184 61.9351 64.3097 61.9404 64.3437C62.0399 64.4654 62.1343 64.553 62.2428 64.6695C62.8023 65.2443 63.3475 65.7901 63.8927 66.3359C63.8927 66.3359 63.895 66.3324 63.902 66.3597C63.9401 66.4034 63.9713 66.4198 64.0025 66.4362C64.0025 66.4362 64.0194 66.4096 64.0139 66.4483C64.0394 66.5036 64.0704 66.5202 64.1013 66.5368C64.1013 66.5368 64.1187 66.5093 64.1135 66.5482C64.1391 66.6038 64.1699 66.6204 64.2007 66.6369C64.2007 66.6369 64.2178 66.6091 64.2128 66.6481C64.2385 66.7038 64.2691 66.7204 64.2997 66.7371C64.2997 66.7371 64.3174 66.7069 64.3124 66.7471C64.3379 66.8039 64.3685 66.8205 64.399 66.8371C64.399 66.8371 64.4168 66.8048 64.4118 66.8462C64.4374 66.904 64.468 66.9204 64.4985 66.9369C64.4985 66.9369 64.5136 66.9039 64.5094 66.9456C64.5352 67.0038 64.5651 67.0203 64.595 67.0368C64.595 67.0368 64.5924 67.0438 64.5968 67.0671C64.6011 67.0905 64.6375 67.1096 64.6375 67.1096C64.6815 67.1648 64.7254 67.22 64.8079 67.315C64.9417 67.4417 65.0369 67.5286 65.1322 67.6155C65.1322 67.6454 65.1443 67.669 65.2023 67.7241C65.4488 67.9722 65.6617 68.1824 65.8883 68.4177C65.9771 68.501 66.0521 68.5593 66.1272 68.6177C66.1303 68.6466 66.1443 68.6687 66.2001 68.7168C66.263 68.7723 66.2948 68.7949 66.3267 68.8176C66.327 68.8469 66.3396 68.8693 66.3978 68.9221C67.1107 69.7707 67.6276 70.6716 67.9308 71.7205C67.9589 71.8311 67.9902 71.9095 68.0209 72.0305C68.0468 72.1526 68.0735 72.2323 68.091 72.3321C68.0966 72.3927 68.1112 72.4332 68.1233 72.5024C68.1268 72.5491 68.133 72.5673 68.1347 72.6097C68.1304 72.6339 68.1505 72.6788 68.1458 72.7167C68.1659 72.9571 68.1907 73.1597 68.203 73.3888C68.1985 73.5115 68.2064 73.6075 68.2022 73.7385C68.1782 73.9442 68.1663 74.1148 68.142 74.3157C68.1316 74.3892 68.1334 74.4324 68.1266 74.5011C68.1196 74.5445 68.1213 74.5624 68.1122 74.5888C68.089 74.6169 68.0927 74.6327 68.094 74.6817C68.0675 74.7729 68.0596 74.827 68.0379 74.9034C68.0248 74.9428 68.0253 74.9602 68.0238 74.9779C68.0219 74.9784 68.0248 74.9811 68.0073 75.0066C67.9739 75.1118 67.958 75.1914 67.9279 75.3036C67.8838 75.4498 67.8538 75.5634 67.805 75.7031C67.7642 75.811 67.7424 75.8929 67.6994 76.0025C67.4571 76.4447 67.2358 76.8592 67.0146 77.2737C66.9855 77.2788 66.9643 77.2945 66.9291 77.3596C66.9046 77.4158 66.9019 77.4332 66.8991 77.4505C66.8991 77.4505 66.9083 77.4575 66.8822 77.4603C66.8418 77.497 66.8275 77.5308 66.8132 77.5645C66.8132 77.5645 66.822 77.5647 66.7885 77.5743C66.3703 78.0022 65.9856 78.4205 65.6008 78.8388C65.6008 78.8388 65.6203 78.8339 65.5784 78.8434C64.1242 80.2362 62.7173 81.625 61.2978 83.0009C60.0268 84.2328 58.4961 84.8888 56.7279 84.9366C54.5322 84.996 52.8125 84.007 51.3317 82.4633C49.4109 80.461 47.4602 78.4872 45.5149 76.5085C40.7272 71.6387 35.9356 66.7727 31.1443 61.9064C30.3858 61.136 29.8049 60.2419 29.4512 59.2303C28.3562 56.0987 29.0281 53.3289 31.3314 50.9831C33.659 48.6126 36.0426 46.2971 38.4049 43.9606C40.8853 41.5074 43.3772 39.0656 45.8475 36.6022C46.6219 35.8301 47.4864 35.0952 48.0613 34.1861C49.8436 31.3676 47.9432 27.8903 44.8665 27.8001C43.3555 27.7558 41.8424 27.7763 40.3303 27.7777C36.641 27.781 32.9516 27.7783 29.2624 27.8027C27.6109 27.8136 26.1288 28.3136 24.927 29.5008C24.8977 29.5035 24.8746 29.517 24.8187 29.5734C24.5669 29.8707 24.3541 30.1357 24.1413 30.4006C24.1413 30.4006 24.1472 30.4031 24.1157 30.4162C23.3406 31.5745 22.9231 32.8155 22.9694 34.2409C22.9638 34.788 22.9678 35.2896 22.9618 35.8368C22.9581 36.6806 22.9643 37.4788 22.9624 38.3233C22.9592 39.4046 22.9641 40.4395 22.9596 41.5063C22.9565 41.5817 22.9628 41.6251 22.9609 41.7149C22.9585 42.6298 22.9642 43.4985 22.9599 44.4126C22.9482 49.0467 22.9465 53.6351 22.9461 58.2236C22.9461 58.3222 22.9624 58.4208 22.9627 58.565C22.96 58.9811 22.9656 59.3516 22.9618 59.7542C22.9587 59.8298 22.9651 59.8734 22.9633 59.9585C22.9607 60.1404 22.9662 60.2808 22.9616 60.4662C22.958 60.911 22.9646 61.3107 22.9628 61.7551C22.9599 62.0715 22.9654 62.3433 22.9606 62.6606C22.9568 65.0999 22.9631 67.4937 22.961 69.9324C22.9582 70.282 22.9636 70.5866 22.9584 70.9329C22.8962 71.6184 22.9386 72.2876 22.773 72.9006C22.4471 74.1078 22.0057 75.2838 21.612 76.4727C21.612 76.4727 21.6096 76.4909 21.5869 76.5108C21.5515 76.5725 21.5387 76.6144 21.526 76.6563C21.526 76.6563 21.5383 76.6515 21.505 76.6629C21.4514 76.7292 21.4311 76.7841 21.4108 76.839C21.4108 76.839 21.4385 76.8563 21.3971 76.8622C21.3108 76.9609 21.2659 77.0537 21.2209 77.1465C21.2209 77.1465 21.249 77.1587 21.2082 77.1638C21.1197 77.259 21.0719 77.3491 21.0292 77.4449C21.0343 77.4507 21.0254 77.4403 20.9977 77.4544C20.9177 77.5564 20.8654 77.6443 20.8164 77.7411C20.8197 77.75 20.8069 77.736 20.7859 77.7473C20.7403 77.7829 20.7303 77.8121 20.7349 77.8464C20.7349 77.8464 20.7334 77.8572 20.7058 77.8632C20.6246 77.9555 20.5711 78.0419 20.5175 78.1283C20.5175 78.1283 20.5386 78.1297 20.5024 78.1383C20.453 78.1789 20.4398 78.211 20.4265 78.243C20.4265 78.243 20.4396 78.2535 20.4092 78.2537C20.3642 78.2869 20.3496 78.3199 20.335 78.353C20.335 78.353 20.3461 78.3558 20.3139 78.3585C20.2047 78.4611 20.1276 78.5612 20.0505 78.6612C20.0505 78.6612 20.0578 78.6656 20.0281 78.6712C19.9707 78.7251 19.943 78.7734 19.9152 78.8217C19.9152 78.8217 19.9094 78.8253 19.8919 78.8256C19.8743 78.826 19.859 78.8515 19.8332 78.8641C19.779 78.9236 19.7507 78.9705 19.7223 79.0174C19.7223 79.0174 19.724 79.0235 19.6975 79.0301C19.6557 79.0659 19.6403 79.095 19.625 79.1242C19.625 79.1242 19.6287 79.1389 19.5987 79.137C19.5538 79.1634 19.539 79.1916 19.5241 79.2198C19.5241 79.2198 19.5218 79.2316 19.4909 79.2309C19.4255 79.274 19.3909 79.3179 19.3563 79.3618C19.3563 79.3618 19.3611 79.3642 19.3285 79.3708C19.1749 79.4974 19.054 79.6175 18.9331 79.7376C18.9331 79.7376 18.9294 79.733 18.9048 79.735C18.8519 79.7505 18.8342 79.7725 18.8253 79.8042C18.8236 79.8053 18.8194 79.805 18.7895 79.8156C18.6859 79.8963 18.6121 79.9666 18.5384 80.0368C18.5384 80.0368 18.5464 80.0535 18.5185 80.0485C18.4709 80.0718 18.4513 80.1002 18.4317 80.1286C18.4317 80.1286 18.4274 80.1264 18.3941 80.1312C18.2519 80.2322 18.1428 80.3284 18.0338 80.4245C18.0338 80.4245 18.032 80.4369 17.9955 80.4364C17.587 80.6668 17.2151 80.8978 16.8431 81.1287C16.8431 81.1287 16.8564 81.1449 16.8217 81.1339C16.7402 81.1588 16.6933 81.1946 16.6464 81.2303C16.6464 81.2303 16.6674 81.2336 16.6201 81.2313C13.9564 82.3219 11.3537 83.4494 8.71911 84.4968C6.51885 85.3714 4.42555 85.1139 2.5113 83.6615C1.42292 82.8358 0.790872 81.7053 0.322168 80.419C0.224834 79.5069 0.0910672 78.6383 0.0372012 77.7647C-0.0178379 76.8721 0.00553006 75.9746 0.00197118 75.0393C0.00430066 74.8913 -0.000767611 74.7833 0.00516492 74.6331C0.00868431 74.3882 0.00120282 74.1855 0.00123931 73.9366C0.00358255 73.3875 -0.0015923 72.8846 0.00423982 72.3433C0.00782911 72.1994 0.000411644 72.094 0.000591133 71.9422C0.00345629 70.9276 -0.0012758 69.9593 0.00484539 68.9552C0.00872536 68.8455 0.00174907 68.7716 0.00228006 68.6514C0.00420947 67.3374 -0.0013701 66.0698 0.00413026 64.7623C0.00802699 64.5853 0.00084518 64.4482 0.00123019 64.2732C0.00395225 64.1586 -0.0008909 64.0819 0.00513905 63.9693C0.00884701 63.8596 0.00168058 63.7857 0.00205182 63.6692C0.00486971 63.4535 0.000149899 63.2805 0.00623609 63.0674C0.00973724 62.8901 0.00243529 62.7529 0.00257828 62.5692C0.00474801 61.0558 -0.000530306 59.5888 0.00499907 58.0834C0.00856104 57.9398 0.00131536 57.8345 0.00160753 57.6851C0.00409067 57.4027 -0.000962361 57.1643 0.00433567 56.8941C0.00786873 56.8185 0.00105062 56.7748 0.00179012 56.6849C0.00455176 53.2772 -0.000245687 49.9158 0.00587092 46.5091C0.00948315 45.765 0.00218122 45.0662 0.00225571 44.3295C0.00484694 44.215 6.30906e-05 44.1383 0.00622696 44.0167C0.0100293 43.5385 0.00288105 43.1052 0.00289781 42.638C0.0053961 42.5581 0.000728145 42.5122 0.00704099 42.4211C0.010638 41.8098 0.00325236 41.2438 0.0033071 40.6342C0.00545859 40.3849 0.00017125 40.1792 0.00573702 39.9281C0.0210089 38.5414 -0.000131665 37.1995 0.036165 35.8591C0.0839874 34.0931 0.0351258 32.3128 0.622325 30.5736C0.663203 30.4624 0.687288 30.3796 0.729232 30.2707C0.768481 30.1645 0.789869 30.0844 0.826271 29.9799C0.849503 29.9194 0.857723 29.8832 0.86511 29.8423C0.864276 29.8378 0.869632 29.8302 0.890993 29.8135C0.926701 29.7457 0.941049 29.6946 0.955396 29.6436C0.955396 29.6436 0.95415 29.6363 0.980368 29.6205C1.02203 29.5472 1.03748 29.4897 1.05293 29.4321C1.05293 29.4321 1.04882 29.4326 1.07705 29.4191C1.12153 29.3486 1.13778 29.2917 1.15404 29.2348C1.15404 29.2348 1.14481 29.237 1.17581 29.2214C1.22243 29.149 1.23805 29.0923 1.25367 29.0356C1.25367 29.0356 1.24749 29.0352 1.27878 29.0213C1.39138 28.8565 1.47268 28.7054 1.5534 28.5516C1.55281 28.5487 1.5491 28.5441 1.57412 28.5331C1.61073 28.4884 1.62233 28.4546 1.62855 28.4197C1.62317 28.4186 1.62539 28.4294 1.65058 28.4189C1.68824 28.3753 1.7007 28.3422 1.73213 28.2983C1.77528 28.267 1.7859 28.241 1.80925 28.1867C2.33106 27.6067 2.82656 27.0496 3.32205 26.4924Z" fill="black"/>
<path d="M99.3816 78V18.4H122.182C126.288 18.4 129.915 19.12 133.062 20.56C136.262 22 138.768 24.1333 140.582 26.96C142.395 29.7867 143.302 33.28 143.302 37.44C143.302 41.4933 142.368 44.96 140.502 47.84C138.635 50.6667 136.128 52.8 132.982 54.24L146.582 78H132.662L117.942 51.68L125.942 56.4H111.782V78H99.3816ZM111.782 45.6H122.262C124.022 45.6 125.542 45.2533 126.822 44.56C128.102 43.8667 129.088 42.9067 129.782 41.68C130.528 40.4533 130.902 39.04 130.902 37.44C130.902 35.7867 130.528 34.3467 129.782 33.12C129.088 31.8933 128.102 30.9333 126.822 30.24C125.542 29.5467 124.022 29.2 122.262 29.2H111.782V45.6ZM165.381 78.96C162.234 78.96 159.514 78.4533 157.221 77.44C154.928 76.4267 153.168 74.9867 151.941 73.12C150.714 71.2 150.101 68.9333 150.101 66.32C150.101 63.8667 150.661 61.7067 151.781 59.84C152.901 57.92 154.608 56.32 156.901 55.04C159.248 53.76 162.154 52.8533 165.621 52.32L178.981 50.16V58.96L167.781 60.96C166.074 61.28 164.768 61.84 163.861 62.64C162.954 63.3867 162.501 64.48 162.501 65.92C162.501 67.2533 163.008 68.2933 164.021 69.04C165.034 69.7867 166.288 70.16 167.781 70.16C169.754 70.16 171.488 69.7333 172.981 68.88C174.474 68.0267 175.621 66.88 176.421 65.44C177.274 63.9467 177.701 62.32 177.701 60.56V49.2C177.701 47.5467 177.034 46.16 175.701 45.04C174.421 43.92 172.661 43.36 170.421 43.36C168.288 43.36 166.394 43.9467 164.741 45.12C163.141 46.2933 161.968 47.84 161.221 49.76L151.621 45.2C152.474 42.7467 153.834 40.64 155.701 38.88C157.568 37.12 159.808 35.76 162.421 34.8C165.034 33.84 167.888 33.36 170.981 33.36C174.661 33.36 177.914 34.0267 180.741 35.36C183.568 36.6933 185.754 38.56 187.301 40.96C188.901 43.3067 189.701 46.0533 189.701 49.2V78H178.501V70.96L181.221 70.48C179.941 72.4 178.528 74 176.981 75.28C175.434 76.5067 173.701 77.4133 171.781 78C169.861 78.64 167.728 78.96 165.381 78.96ZM198.502 78V34.32H209.702V42.96L209.062 41.04C210.075 38.4267 211.702 36.5067 213.942 35.28C216.235 34 218.902 33.36 221.942 33.36C225.248 33.36 228.128 34.0533 230.582 35.44C233.088 36.8267 235.035 38.7733 236.422 41.28C237.808 43.7333 238.502 46.6133 238.502 49.92V78H226.502V52.48C226.502 50.7733 226.155 49.3067 225.462 48.08C224.822 46.8533 223.888 45.8933 222.662 45.2C221.488 44.5067 220.102 44.16 218.502 44.16C216.955 44.16 215.568 44.5067 214.342 45.2C213.115 45.8933 212.155 46.8533 211.462 48.08C210.822 49.3067 210.502 50.7733 210.502 52.48V78H198.502ZM246.392 78V17.44H258.392V56.24L253.912 54.8L273.192 34.32H287.992L272.152 51.92L287.912 78H274.312L261.112 55.84L268.072 54.08L254.712 68.64L258.392 61.68V78H246.392ZM293.267 94V34.32H304.467V42.64L303.427 40.24C304.867 38.0533 306.814 36.3733 309.267 35.2C311.774 33.9733 314.627 33.36 317.827 33.36C321.987 33.36 325.747 34.3733 329.107 36.4C332.467 38.4267 335.134 41.1733 337.107 44.64C339.081 48.0533 340.067 51.8933 340.067 56.16C340.067 60.3733 339.081 64.2133 337.107 67.68C335.187 71.1467 332.547 73.8933 329.187 75.92C325.827 77.9467 322.014 78.96 317.747 78.96C314.761 78.96 311.987 78.4267 309.427 77.36C306.921 76.24 304.894 74.6133 303.347 72.48L305.267 70V94H293.267ZM316.307 68.16C318.547 68.16 320.521 67.6533 322.227 66.64C323.934 65.6267 325.267 64.2133 326.227 62.4C327.187 60.5867 327.667 58.5067 327.667 56.16C327.667 53.8133 327.187 51.76 326.227 50C325.267 48.1867 323.934 46.7733 322.227 45.76C320.521 44.6933 318.547 44.16 316.307 44.16C314.174 44.16 312.254 44.6667 310.547 45.68C308.894 46.6933 307.587 48.1067 306.627 49.92C305.721 51.7333 305.267 53.8133 305.267 56.16C305.267 58.5067 305.721 60.5867 306.627 62.4C307.587 64.2133 308.894 65.6267 310.547 66.64C312.254 67.6533 314.174 68.16 316.307 68.16ZM368.135 78.96C363.495 78.96 359.469 77.9467 356.055 75.92C352.642 73.84 350.002 71.0667 348.135 67.6C346.269 64.1333 345.335 60.2933 345.335 56.08C345.335 51.7067 346.295 47.8133 348.215 44.4C350.189 40.9867 352.829 38.2933 356.135 36.32C359.442 34.3467 363.175 33.36 367.335 33.36C370.802 33.36 373.869 33.92 376.535 35.04C379.202 36.1067 381.442 37.6267 383.255 39.6C385.122 41.5733 386.535 43.8667 387.495 46.48C388.455 49.04 388.935 51.84 388.935 54.88C388.935 55.7333 388.882 56.5867 388.775 57.44C388.722 58.24 388.589 58.9333 388.375 59.52H355.655V50.72H381.575L375.895 54.88C376.429 52.5867 376.402 50.56 375.815 48.8C375.229 46.9867 374.189 45.5733 372.695 44.56C371.255 43.4933 369.469 42.96 367.335 42.96C365.255 42.96 363.469 43.4667 361.975 44.48C360.482 45.4933 359.362 46.9867 358.615 48.96C357.869 50.9333 357.575 53.3333 357.735 56.16C357.522 58.6133 357.815 60.7733 358.615 62.64C359.415 64.5067 360.642 65.9733 362.295 67.04C363.949 68.0533 365.949 68.56 368.295 68.56C370.429 68.56 372.242 68.1333 373.735 67.28C375.282 66.4267 376.482 65.2533 377.335 63.76L386.935 68.32C386.082 70.4533 384.722 72.32 382.855 73.92C381.042 75.52 378.882 76.7733 376.375 77.68C373.869 78.5333 371.122 78.96 368.135 78.96ZM409.522 78.96C406.375 78.96 403.655 78.4533 401.362 77.44C399.068 76.4267 397.308 74.9867 396.082 73.12C394.855 71.2 394.242 68.9333 394.242 66.32C394.242 63.8667 394.802 61.7067 395.922 59.84C397.042 57.92 398.748 56.32 401.042 55.04C403.388 53.76 406.295 52.8533 409.762 52.32L423.122 50.16V58.96L411.922 60.96C410.215 61.28 408.908 61.84 408.002 62.64C407.095 63.3867 406.642 64.48 406.642 65.92C406.642 67.2533 407.148 68.2933 408.162 69.04C409.175 69.7867 410.428 70.16 411.922 70.16C413.895 70.16 415.628 69.7333 417.122 68.88C418.615 68.0267 419.762 66.88 420.562 65.44C421.415 63.9467 421.842 62.32 421.842 60.56V49.2C421.842 47.5467 421.175 46.16 419.842 45.04C418.562 43.92 416.802 43.36 414.562 43.36C412.428 43.36 410.535 43.9467 408.882 45.12C407.282 46.2933 406.108 47.84 405.362 49.76L395.762 45.2C396.615 42.7467 397.975 40.64 399.842 38.88C401.708 37.12 403.948 35.76 406.562 34.8C409.175 33.84 412.028 33.36 415.122 33.36C418.802 33.36 422.055 34.0267 424.882 35.36C427.708 36.6933 429.895 38.56 431.442 40.96C433.042 43.3067 433.842 46.0533 433.842 49.2V78H422.642V70.96L425.362 70.48C424.082 72.4 422.668 74 421.122 75.28C419.575 76.5067 417.842 77.4133 415.922 78C414.002 78.64 411.868 78.96 409.522 78.96ZM442.642 78V17.44H454.642V56.24L450.162 54.8L469.442 34.32H484.242L468.402 51.92L484.162 78H470.562L457.362 55.84L464.322 54.08L450.962 68.64L454.642 61.68V78H442.642Z" fill="black"/>
</svg>
