<svg width="1230" height="1229" viewBox="0 0 1230 1229" fill="none" xmlns="http://www.w3.org/2000/svg">
<path d="M275.536 415.904C276.463 415.157 277.391 414.411 278.796 413.252C281.658 410.954 284.042 409.068 286.426 407.182C286.426 407.182 286.557 407.109 286.966 407.037C292.703 404.267 298.03 401.569 303.6 398.87C304.181 398.784 304.426 398.584 304.925 398.268C306.326 397.829 307.379 397.392 308.784 396.972C309.971 396.618 310.808 396.247 312.072 395.867C314.407 395.275 316.316 394.692 318.474 394.198C319.218 394.109 319.712 393.932 320.673 393.774C322.334 393.486 323.528 393.178 324.942 392.976C325.62 392.941 326.077 392.8 326.819 392.685C327.283 392.653 327.464 392.595 327.914 392.578C328.348 392.542 328.512 392.465 329.095 392.395C330.038 392.222 330.563 392.042 331.323 391.974C332.049 391.935 332.538 391.783 333.484 391.67C335.766 391.586 337.591 391.463 339.776 391.42C340.809 391.267 341.481 391.034 342.497 390.924C344.036 390.929 345.231 390.812 346.638 390.821C347.315 390.856 347.779 390.765 348.488 390.761C349.09 390.908 349.423 390.842 350.149 390.78C353.976 390.798 357.387 390.688 361.278 390.648C365.65 390.669 369.541 390.619 373.846 390.701C384.331 390.74 394.401 390.646 404.925 390.618C407.205 390.579 409.031 390.474 411.202 390.447C412.008 390.436 412.468 390.347 413.288 390.328C415.076 390.138 416.504 389.878 418.169 389.732C419.056 389.711 419.705 389.575 420.734 389.476C421.61 389.416 422.107 389.319 422.913 389.258C423.563 389.071 423.902 388.847 424.468 388.702C425.027 388.785 425.327 388.687 425.732 388.589C426.244 388.769 426.538 388.658 426.774 388.385C426.795 388.411 426.816 388.348 427.096 388.375C427.545 388.321 427.714 388.24 428.321 388.136C429.299 387.888 429.838 387.663 430.485 387.532C430.811 387.632 430.968 387.539 431.437 387.331C436.241 385.692 440.89 384.491 445.07 382.367C473.98 367.68 488.431 343.306 490.775 311.624C491.821 297.477 490.908 283.196 491.321 268.989C492.374 232.799 509.524 207.103 542.407 192.003C554.496 186.451 567.382 185.891 580.478 186.014C626.86 186.453 673.262 185.967 719.622 187.151C737.589 187.61 755.462 191.615 773.391 193.903C774.795 194.082 776.302 193.458 777.761 193.207C778.995 193.595 780.228 193.984 782.119 194.56C783.3 195.188 783.757 195.847 784.361 196.036C794.454 199.191 804.566 202.287 814.952 205.645C820.099 207.826 824.968 209.759 829.838 211.692C829.838 211.692 830.043 211.509 830.123 211.882C834.323 214.18 838.443 216.106 842.569 218.015C842.575 217.998 842.606 217.994 842.814 218.28C844.292 219.129 845.562 219.691 846.831 220.253C846.831 220.253 847.125 219.945 847.134 220.399C849.514 222.061 851.884 223.27 854.262 224.462C854.271 224.445 854.304 224.447 854.445 224.694C855.087 225.186 855.589 225.431 856.157 225.711C856.223 225.746 856.353 225.82 856.49 226.027C856.9 226.465 857.212 226.552 857.565 226.497C857.565 226.497 857.67 226.46 857.708 226.723C858.106 227.129 858.466 227.272 858.825 227.415C858.825 227.415 858.831 227.345 858.961 227.664C860.278 228.654 861.465 229.325 862.672 229.984C862.692 229.971 862.729 229.999 862.907 230.27C864.04 231.036 864.994 231.531 865.961 232.038C865.972 232.05 865.954 232.083 866.137 232.362C867.298 233.121 868.274 233.601 869.251 234.081C869.251 234.081 869.436 233.869 869.457 234.266C870.44 235.21 871.404 235.756 872.367 236.302C872.367 236.302 872.505 235.923 872.565 236.403C873.528 237.412 874.432 237.942 875.369 238.458C875.403 238.445 875.47 238.471 875.624 238.77C877.072 239.91 878.368 240.751 879.663 241.591C879.663 241.591 879.736 241.587 879.883 241.899C881.153 242.999 882.277 243.788 883.4 244.577C883.472 244.864 883.635 245.084 884.254 245.5C884.62 245.763 885.139 245.834 885.139 245.834C885.139 245.834 885.207 245.626 885.318 246.044C886.51 247.226 887.59 247.989 888.67 248.753C888.67 248.753 888.699 248.683 888.784 248.992C889.413 249.59 889.957 249.878 890.501 250.167C890.501 250.167 890.723 249.97 890.668 250.315C890.938 250.83 891.263 251 891.589 251.171C891.589 251.171 891.679 251.218 891.712 251.47C891.971 252.007 892.266 252.161 892.759 252.176C892.89 252.168 892.63 252.138 892.722 252.395C893.263 252.944 893.712 253.237 894.21 253.668C894.258 253.806 894.545 253.867 894.681 254.11C895.416 254.733 896.016 255.113 896.616 255.493C896.616 255.493 896.726 255.513 896.834 255.789C897.244 256.223 897.547 256.381 897.85 256.539C897.85 256.539 898 256.485 898.002 256.808C898.304 257.286 898.605 257.441 898.906 257.596C898.906 257.596 898.988 257.613 899.025 257.912C899.261 258.556 899.56 258.705 899.956 258.659C899.956 258.659 900.001 258.811 900.075 259.065C900.3 259.552 900.513 259.686 900.853 259.771C900.919 259.821 901.059 259.907 901.136 260.14C901.406 260.67 901.679 260.833 902.074 260.925C902.117 260.989 902.207 261.114 902.303 261.31C902.605 261.751 902.866 261.854 903.184 261.812C903.184 261.812 903.238 261.799 903.334 262.084C903.766 262.534 904.103 262.699 904.439 262.863C904.439 262.863 904.566 262.689 904.546 263.036C904.861 263.56 905.196 263.737 905.531 263.913C905.531 263.913 905.602 263.774 905.602 264.1C905.931 264.611 906.262 264.796 906.592 264.981C906.592 264.981 906.67 264.831 906.666 265.164C906.991 265.682 907.321 265.867 907.651 266.052C907.651 266.052 907.742 265.892 907.735 266.231C908.058 266.754 908.388 266.938 908.719 267.122C908.719 267.122 908.804 266.972 908.803 267.303C909.132 267.818 909.463 268.002 909.794 268.186C909.794 268.186 909.854 268.053 909.86 268.375C910.199 268.881 910.531 269.067 910.864 269.252C910.864 269.252 910.909 269.125 910.913 269.441C911.237 269.951 911.559 270.145 911.88 270.338C911.88 270.338 911.973 270.121 911.945 270.492C912.221 271.057 912.525 271.251 912.829 271.445C912.829 271.445 913.149 271.349 913.053 271.687C913.263 272.193 913.568 272.36 913.874 272.527C913.874 272.527 913.896 272.609 913.942 272.869C913.987 273.129 914.373 273.367 914.373 273.367C914.408 273.673 914.554 273.912 915.112 274.448C915.744 275.019 916.074 275.224 916.404 275.429C916.404 275.429 916.412 275.347 916.438 275.692C917.092 276.6 917.719 277.164 918.384 277.678C918.422 277.63 918.3 277.639 918.397 277.953C919.136 278.832 919.779 279.398 920.385 279.946C920.348 279.928 920.37 280.006 920.444 280.252C920.703 280.832 920.988 280.992 921.37 280.977C921.37 280.977 921.447 280.999 921.468 281.279C921.939 281.986 922.39 282.413 922.84 282.841C922.84 282.841 922.848 282.802 922.904 283.138C923.931 284.404 924.901 285.335 925.871 286.266C925.871 286.266 925.891 286.138 925.876 286.451C926.172 286.976 926.483 287.188 926.794 287.399C926.794 287.399 926.867 287.113 926.848 287.527C927.131 288.136 927.434 288.33 927.737 288.524C927.737 288.524 927.76 288.58 927.814 288.932C928.874 290.522 929.881 291.76 930.902 292.992C930.917 292.985 930.931 293.012 931.027 293.315C931.851 294.372 932.579 295.125 933.306 295.879C933.306 295.879 933.328 295.753 933.303 296.064C933.565 296.597 933.854 296.82 934.142 297.042C934.142 297.042 934.177 297.103 934.19 297.425C934.889 298.572 935.576 299.397 936.262 300.222C936.262 300.222 936.447 299.903 936.405 300.397C937.063 301.726 937.762 302.561 938.461 303.396C938.461 303.396 938.799 303.369 938.689 303.724C939.967 306.012 941.355 307.945 942.834 310.235C945.713 315.121 948.668 319.555 951.262 324.191C977.389 370.885 989.875 421.166 989.872 474.511C989.871 490.966 988.324 507.421 987.315 524.213C987.121 525.047 987.096 525.544 986.923 526.439C984.38 538.098 982.259 549.426 979.505 560.598C977.263 569.695 974.262 578.605 971.338 587.866C969.815 591.589 968.552 595.043 967.272 598.583C967.255 598.668 967.256 598.841 966.956 599.089C966.164 600.801 965.673 602.265 965.182 603.714C965.18 603.699 965.147 603.685 964.881 603.93C962.691 608.617 960.766 613.058 958.841 617.5C958.841 617.5 958.851 617.543 958.565 617.717C957.743 619.173 957.208 620.455 956.667 621.771C956.662 621.805 956.719 621.766 956.428 621.971C955.58 623.475 955.022 624.773 954.55 626.103C954.634 626.134 954.513 626.001 954.25 626.163C953.797 626.895 953.605 627.465 953.414 628.036C953.414 628.036 953.553 628.055 953.203 628.211C952.269 629.493 951.684 630.62 951.1 631.746C951.1 631.746 950.752 632.071 950.514 632.499C950.263 633.106 950.251 633.284 950.239 633.463C950.239 633.463 950.27 633.481 949.985 633.641C949.502 634.409 949.304 635.017 949.106 635.625C949.106 635.625 949.353 635.737 948.939 635.82C946.977 638.68 945.429 641.457 943.881 644.235C943.881 644.235 944.057 644.334 943.7 644.39C943.108 645.021 942.872 645.596 942.637 646.17C942.637 646.17 942.768 646.535 942.393 646.509C941.522 647.443 941.024 648.404 940.527 649.365C940.527 649.365 940.493 649.516 940.261 649.554C939.905 649.949 939.781 650.306 939.657 650.663C939.657 650.663 939.831 650.709 939.491 650.761C938.89 651.311 938.63 651.809 938.358 652.32C938.345 652.334 938.308 652.336 938.049 652.542C937.276 653.71 936.764 654.672 936.26 655.662C936.268 655.69 936.26 655.747 936.008 655.873C935.619 656.342 935.481 656.685 935.428 657.055C935.512 657.084 935.383 656.961 935.121 657.092C934.619 657.736 934.38 658.25 934.141 658.764C934.141 658.764 934.135 658.864 933.864 658.997C933.454 659.475 933.316 659.819 933.178 660.164C933.178 660.164 933.414 660.168 932.98 660.257C931.677 661.668 930.809 662.989 929.94 664.311C929.94 664.311 930.23 664.406 929.767 664.517C928.448 665.972 927.591 667.316 926.735 668.66C926.735 668.66 926.88 668.714 926.56 668.723C925.933 669.21 925.626 669.689 925.319 670.168C925.319 670.168 925.146 670.194 924.898 670.448C924.262 671.389 923.874 672.075 923.485 672.761C923.485 672.761 923.48 672.846 923.208 672.936C922.667 673.25 922.525 673.537 922.503 673.901C922.496 673.915 922.463 673.908 922.164 674.07C920.985 675.481 920.106 676.73 919.227 677.98C919.227 677.98 919.232 678.064 918.953 678.184C918.517 678.634 918.361 678.965 918.204 679.295C918.204 679.295 918.422 679.499 918.055 679.46C917.523 679.762 917.356 680.102 917.19 680.443C917.19 680.443 917.307 680.487 917.002 680.512C916.521 680.88 916.346 681.223 916.171 681.565C916.171 681.565 916.305 681.57 915.922 681.64C914.264 683.328 912.988 684.947 911.712 686.566C911.712 686.566 911.746 686.646 911.447 686.727C911 687.122 910.852 687.436 910.703 687.75C910.703 687.75 911.062 688.096 910.613 688.006C910.003 688.245 909.844 688.575 909.684 688.905C909.684 688.905 909.908 689.101 909.535 689.059C908.993 689.355 908.824 689.693 908.654 690.031C908.654 690.031 908.783 690.097 908.467 690.115C907.981 690.478 907.81 690.823 907.639 691.168C907.639 691.168 907.771 691.172 907.386 691.24C902.867 695.65 898.734 699.992 894.601 704.333C894.601 704.333 894.332 704.418 893.999 704.678C892.549 706.162 891.431 707.386 890.314 708.611C890.314 708.611 890.052 708.671 889.701 708.915C888.351 710.29 887.352 711.42 886.353 712.55C886.353 712.55 886.471 712.57 886.139 712.589C884.844 713.742 883.882 714.875 882.919 716.008C882.919 716.008 882.5 716.324 882.1 716.763C875.088 725.686 869.808 734.791 868.311 745.814C868.063 746.136 868.105 746.315 868.123 746.873C867.811 748.207 867.697 749.12 867.483 750.282C867.411 750.709 867.439 750.886 867.373 751.332C867.312 751.787 867.345 751.974 867.263 752.287C867.025 752.769 867.077 753.09 867.181 753.821C867.13 757.028 867.206 759.789 867.171 762.777C867.168 763.639 867.275 764.274 867.333 765.192C867.346 765.658 867.406 765.84 867.404 766.37C867.444 767.173 867.545 767.629 867.611 768.511C867.78 769.463 867.983 769.989 868.101 770.682C868.032 771.123 868.157 771.333 868.359 771.725C868.328 771.972 868.535 772.423 868.516 772.767C868.751 773.47 869.004 773.829 869.153 774.5C869.235 775.44 869.423 776.067 869.574 777.027C869.895 778.158 870.253 778.957 870.628 780.142C872.014 783.191 873.384 785.855 874.754 788.519C874.754 788.519 874.79 788.435 874.755 788.751C875.016 789.299 875.312 789.532 875.608 789.765C875.608 789.765 875.52 789.795 875.544 790.2C879.226 795.228 882.883 799.85 886.541 804.473C886.541 804.473 886.569 804.412 886.611 804.71C886.982 805.227 887.312 805.446 887.642 805.665C888.449 806.585 889.255 807.506 890.454 808.841C891.19 809.45 891.534 809.644 891.877 809.839C891.877 809.839 891.871 809.759 891.92 810.108C893.007 811.369 894.045 812.281 895.084 813.194C895.11 813.507 895.257 813.745 895.86 814.255C896.54 814.831 896.885 815.061 897.23 815.291C898.026 816.206 898.821 817.121 900.021 818.483C901.125 819.463 901.824 819.996 902.522 820.528C902.522 820.528 902.52 820.435 902.576 820.8C903.641 822.101 904.65 823.038 905.811 824.284C911.796 830.432 917.628 836.271 923.46 842.11C923.46 842.11 923.484 842.072 923.559 842.364C923.967 842.832 924.301 843.007 924.634 843.183C924.634 843.183 924.815 842.898 924.757 843.312C925.03 843.903 925.361 844.081 925.692 844.259C925.692 844.259 925.878 843.964 925.822 844.381C926.096 844.975 926.425 845.153 926.755 845.33C926.755 845.33 926.938 845.032 926.884 845.449C927.159 846.045 927.486 846.223 927.814 846.401C927.814 846.401 928.003 846.079 927.949 846.509C928.222 847.116 928.549 847.293 928.876 847.471C928.876 847.471 929.066 847.126 929.013 847.568C929.287 848.186 929.614 848.362 929.941 848.538C929.941 848.538 930.101 848.185 930.057 848.632C930.333 849.255 930.653 849.431 930.973 849.607C930.973 849.607 930.945 849.682 930.991 849.932C931.038 850.182 931.427 850.386 931.427 850.386C931.897 850.976 932.368 851.567 933.25 852.583C934.681 853.938 935.7 854.868 936.718 855.798C936.718 856.117 936.849 856.369 937.468 856.96C940.105 859.614 942.382 861.862 944.807 864.379C945.757 865.27 946.559 865.894 947.362 866.518C947.396 866.827 947.545 867.064 948.142 867.578C948.815 868.171 949.156 868.414 949.496 868.657C949.499 868.97 949.634 869.21 950.257 869.774C957.883 878.852 963.412 888.489 966.655 899.709C966.956 900.891 967.291 901.731 967.619 903.025C967.897 904.331 968.182 905.184 968.37 906.251C968.429 906.899 968.586 907.333 968.715 908.072C968.752 908.573 968.818 908.767 968.837 909.22C968.79 909.479 969.006 909.96 968.955 910.365C969.17 912.937 969.435 915.103 969.568 917.555C969.519 918.867 969.603 919.894 969.558 921.296C969.302 923.496 969.174 925.32 968.915 927.47C968.803 928.256 968.823 928.718 968.75 929.453C968.675 929.917 968.694 930.108 968.596 930.391C968.348 930.691 968.387 930.86 968.401 931.385C968.118 932.36 968.033 932.939 967.802 933.756C967.661 934.178 967.666 934.364 967.65 934.554C967.63 934.558 967.661 934.587 967.474 934.861C967.117 935.986 966.947 936.837 966.624 938.037C966.152 939.601 965.832 940.816 965.31 942.31C964.874 943.465 964.64 944.341 964.18 945.513C961.588 950.244 959.222 954.677 956.855 959.111C956.544 959.166 956.317 959.334 955.941 960.031C955.678 960.632 955.649 960.817 955.619 961.003C955.619 961.003 955.718 961.077 955.439 961.108C955.006 961.5 954.853 961.861 954.7 962.222C954.7 962.222 954.795 962.224 954.436 962.327C949.963 966.904 945.847 971.378 941.732 975.853C941.732 975.853 941.94 975.8 941.492 975.903C925.936 990.801 910.887 1005.66 895.703 1020.37C882.106 1033.55 865.732 1040.57 846.819 1041.08C823.33 1041.72 804.935 1031.14 789.095 1014.62C768.548 993.206 747.682 972.092 726.873 950.926C675.658 898.834 624.403 846.783 573.15 794.727C565.037 786.487 558.823 776.922 555.039 766.101C543.326 732.603 550.514 702.974 575.152 677.881C600.05 652.523 625.548 627.754 650.817 602.762C677.35 576.519 704.006 550.399 730.431 524.049C738.714 515.789 747.962 507.928 754.111 498.204C773.177 468.054 752.848 430.857 719.937 429.893C703.774 429.419 687.588 429.638 671.413 429.653C631.948 429.689 592.483 429.66 553.02 429.921C535.354 430.037 519.499 435.386 506.644 448.085C506.331 448.114 506.083 448.258 505.485 448.862C502.792 452.042 500.516 454.876 498.239 457.71C498.239 457.71 498.303 457.737 497.966 457.876C489.674 470.267 485.208 483.542 485.703 498.79C485.643 504.642 485.686 510.008 485.622 515.862C485.582 524.887 485.649 533.425 485.629 542.459C485.595 554.025 485.647 565.096 485.599 576.507C485.565 577.314 485.633 577.779 485.613 578.739C485.587 588.526 485.648 597.818 485.602 607.597C485.477 657.167 485.458 706.25 485.455 755.333C485.455 756.387 485.629 757.442 485.632 758.984C485.603 763.435 485.663 767.399 485.623 771.705C485.59 772.514 485.657 772.981 485.639 773.891C485.61 775.837 485.669 777.339 485.62 779.322C485.582 784.079 485.652 788.355 485.633 793.109C485.602 796.493 485.66 799.401 485.61 802.795C485.569 828.888 485.636 854.494 485.614 880.582C485.583 884.321 485.641 887.58 485.586 891.284C484.921 898.616 485.374 905.775 483.603 912.333C480.116 925.246 475.394 937.826 471.183 950.543C471.183 950.543 471.158 950.738 470.915 950.951C470.536 951.611 470.4 952.059 470.263 952.507C470.263 952.507 470.395 952.455 470.039 952.577C469.466 953.287 469.249 953.874 469.032 954.462C469.032 954.462 469.327 954.647 468.885 954.71C467.962 955.765 467.481 956.758 467 957.75C467 957.75 467.3 957.881 466.864 957.936C465.917 958.954 465.406 959.918 464.95 960.943C465.003 961.004 464.909 960.893 464.612 961.044C463.757 962.136 463.198 963.076 462.673 964.111C462.708 964.206 462.572 964.056 462.347 964.177C461.859 964.558 461.752 964.871 461.801 965.238C461.801 965.238 461.785 965.353 461.49 965.417C460.621 966.405 460.049 967.329 459.476 968.254C459.476 968.254 459.701 968.268 459.314 968.36C458.786 968.795 458.644 969.137 458.502 969.48C458.502 969.48 458.642 969.592 458.317 969.594C457.836 969.949 457.68 970.303 457.523 970.656C457.523 970.656 457.642 970.687 457.298 970.715C456.129 971.813 455.305 972.884 454.48 973.954C454.48 973.954 454.558 974.001 454.241 974.06C453.627 974.637 453.33 975.153 453.033 975.67C453.033 975.67 452.971 975.709 452.783 975.712C452.595 975.716 452.431 975.989 452.155 976.123C451.576 976.76 451.273 977.262 450.97 977.764C450.97 977.764 450.987 977.829 450.704 977.899C450.257 978.282 450.093 978.594 449.928 978.906C449.928 978.906 449.968 979.063 449.647 979.043C449.167 979.325 449.008 979.627 448.85 979.929C448.85 979.929 448.825 980.055 448.495 980.047C447.794 980.509 447.424 980.978 447.054 981.448C447.054 981.448 447.106 981.473 446.757 981.544C445.114 982.899 443.82 984.183 442.527 985.468C442.527 985.468 442.487 985.419 442.225 985.44C441.659 985.606 441.469 985.841 441.374 986.18C441.356 986.192 441.311 986.189 440.991 986.302C439.883 987.165 439.094 987.917 438.305 988.668C438.305 988.668 438.391 988.847 438.092 988.793C437.583 989.043 437.373 989.347 437.164 989.65C437.164 989.65 437.118 989.627 436.762 989.678C435.24 990.758 434.074 991.787 432.908 992.816C432.908 992.816 432.888 992.948 432.497 992.943C428.128 995.408 424.15 997.878 420.171 1000.35C420.171 1000.35 420.312 1000.52 419.942 1000.4C419.069 1000.67 418.568 1001.05 418.067 1001.44C418.067 1001.44 418.291 1001.47 417.786 1001.45C389.291 1013.11 361.45 1025.17 333.268 1036.38C309.732 1045.73 287.34 1042.98 266.863 1027.44C255.221 1018.61 248.46 1006.52 243.446 992.757C242.405 983 240.974 973.708 240.398 964.363C239.809 954.815 240.059 945.215 240.021 935.21C240.046 933.627 239.992 932.472 240.055 930.865C240.093 928.245 240.013 926.077 240.013 923.414C240.038 917.54 239.983 912.161 240.045 906.371C240.084 904.832 240.004 903.704 240.006 902.08C240.037 891.227 239.986 880.87 240.052 870.129C240.093 868.955 240.019 868.165 240.024 866.878C240.045 852.823 239.985 839.263 240.044 825.277C240.086 823.383 240.009 821.917 240.013 820.045C240.042 818.82 239.99 817.999 240.055 816.794C240.095 815.621 240.018 814.831 240.022 813.584C240.052 811.277 240.002 809.426 240.067 807.147C240.104 805.25 240.026 803.782 240.028 801.817C240.051 785.628 239.994 769.936 240.053 753.833C240.092 752.296 240.014 751.17 240.017 749.573C240.044 746.551 239.99 744.002 240.046 741.111C240.084 740.302 240.011 739.835 240.019 738.873C240.049 702.421 239.997 666.464 240.063 630.023C240.101 622.063 240.023 614.588 240.024 606.708C240.052 605.482 240.001 604.662 240.067 603.361C240.107 598.246 240.031 593.611 240.031 588.613C240.058 587.759 240.008 587.268 240.075 586.293C240.114 579.754 240.035 573.699 240.035 567.179C240.058 564.512 240.002 562.312 240.061 559.626C240.225 544.793 239.999 530.438 240.387 516.1C240.898 497.209 240.376 478.165 246.657 459.56C247.094 458.371 247.352 457.485 247.801 456.321C248.22 455.185 248.449 454.327 248.839 453.21C249.087 452.563 249.175 452.175 249.254 451.738C249.245 451.69 249.302 451.609 249.531 451.43C249.913 450.704 250.066 450.158 250.22 449.613C250.22 449.613 250.207 449.534 250.487 449.365C250.933 448.581 251.098 447.966 251.263 447.35C251.263 447.35 251.219 447.355 251.521 447.211C251.997 446.457 252.171 445.848 252.345 445.24C252.345 445.24 252.246 445.263 252.578 445.096C253.076 444.322 253.243 443.715 253.411 443.108C253.411 443.108 253.344 443.104 253.679 442.956C254.884 441.192 255.753 439.577 256.617 437.931C256.61 437.9 256.571 437.851 256.838 437.733C257.23 437.255 257.354 436.894 257.421 436.521C257.363 436.508 257.387 436.624 257.656 436.512C258.059 436.045 258.192 435.691 258.529 435.221C258.99 434.887 259.104 434.609 259.354 434.028C264.935 427.824 270.236 421.864 275.536 415.904Z" fill="black"/>
</svg>
