<svg width="310" height="53" viewBox="0 0 310 53" fill="none" xmlns="http://www.w3.org/2000/svg">
<path d="M7.288 1.168H24.064C26.872 1.168 30.4 1.24 33.064 1.96C36.736 2.968 43 6.568 43 16.216C43 22.12 40.912 25.648 39.4 27.592C38.896 28.168 37.6 29.68 35.8 30.76C34.648 31.48 33.928 31.84 31.696 32.632L43.576 52H27.88L16.792 31.552C16.648 33.712 16.36 35.944 16.072 38.104L14.272 52H0.52L7.288 1.168ZM19.6 11.536L18.016 23.848H21.616C23.56 23.848 24.136 23.776 25.072 23.488C29.032 22.264 29.392 18.376 29.392 17.152C29.392 15.712 28.96 14.704 28.672 14.2C27.376 11.752 25 11.536 22.552 11.536H19.6ZM53.3415 1.168H82.7895L81.2775 12.76H65.5815L64.5735 20.392H79.2615L77.6775 32.344H62.9175L61.7655 40.048H77.9655L76.3095 52H46.6455L53.3415 1.168ZM103.608 1.168H118.656L131.76 52H117.36L114.84 43.144H97.8481L93.7441 52H78.4801L103.608 1.168ZM102.672 32.632H112.32L109.512 13.768C108.504 16.792 107.568 19.744 106.488 22.696C105.264 26.08 103.968 29.32 102.672 32.632ZM141.096 1.168H154.848L149.736 39.76H165.504L163.92 52H134.328L141.096 1.168ZM171.168 52C170.112 52 169.584 51.664 169.584 50.992V50.776C169.584 50.344 170.04 49.72 170.952 48.904C171.864 48.04 172.32 47.08 172.32 46.024V6.856C172.32 5.8 171.864 4.864 170.952 4.048C170.04 3.184 169.584 2.536 169.584 2.104V1.888C169.584 1.216 170.064 0.879997 171.024 0.879997H202.488C203.592 0.879997 204.264 1.504 204.504 2.752L206.232 10.528C206.472 11.632 206.064 12.184 205.008 12.184H204.72C203.952 12.184 203.088 11.56 202.128 10.312C201.168 9.016 200.136 7.744 199.032 6.496C197.928 5.2 196.776 4.552 195.576 4.552H183.552C181.92 4.552 181.104 5.44 181.104 7.216V26.224H192.408C193.416 26.224 194.4 25.432 195.36 23.848C196.32 22.264 197.04 21.472 197.52 21.472H198.024C198.744 21.472 199.104 21.928 199.104 22.84V33.064C199.104 33.976 198.744 34.432 198.024 34.432H197.52C197.04 34.432 196.32 33.688 195.36 32.2C194.4 30.664 193.416 29.896 192.408 29.896H181.104V46.024C181.104 47.08 181.584 48.04 182.544 48.904C183.552 49.72 184.056 50.344 184.056 50.776V50.992C184.056 51.664 183.528 52 182.472 52H171.168ZM209.242 50.992V50.776C209.242 50.392 209.674 49.792 210.538 48.976C211.45 48.112 211.906 47.152 211.906 46.096V6.856C211.906 5.8 211.45 4.864 210.538 4.048C209.674 3.184 209.242 2.536 209.242 2.104V1.888C209.242 1.216 209.746 0.879997 210.754 0.879997H221.986C222.994 0.879997 223.498 1.216 223.498 1.888V2.104C223.498 2.536 223.018 3.184 222.058 4.048C221.098 4.864 220.618 5.8 220.618 6.856V46.096C220.618 47.152 221.098 48.112 222.058 48.976C223.018 49.792 223.498 50.392 223.498 50.776V50.992C223.498 51.664 222.994 52 221.986 52H210.754C209.746 52 209.242 51.664 209.242 50.992ZM241.811 52C240.803 52 240.299 51.664 240.299 50.992V50.776C240.299 50.344 240.755 49.72 241.667 48.904C242.627 48.04 243.107 47.08 243.107 46.024V4.768H235.259C234.107 4.768 233.099 5.44 232.235 6.784C231.419 8.128 230.699 9.472 230.075 10.816C229.451 12.16 228.803 12.832 228.131 12.832H227.267C226.307 12.832 225.899 12.28 226.043 11.176L227.339 2.68C227.483 1.48 228.155 0.879997 229.355 0.879997H265.499C266.699 0.879997 267.395 1.48 267.587 2.68L269.171 11.248C269.267 11.728 269.195 12.112 268.955 12.4C268.715 12.688 268.379 12.832 267.947 12.832H267.083C266.555 12.832 266.003 12.424 265.427 11.608C264.851 10.744 264.347 9.808 263.915 8.8C263.483 7.792 262.883 6.88 262.115 6.064C261.347 5.2 260.507 4.768 259.595 4.768H251.747V46.024C251.747 47.08 252.227 48.04 253.187 48.904C254.147 49.72 254.627 50.344 254.627 50.776V50.992C254.627 51.664 254.099 52 253.043 52H241.811ZM290.27 52.72C283.79 52.72 278.702 51.352 275.006 48.616C271.31 45.832 269.462 42.928 269.462 39.904C269.462 38.848 269.774 37.984 270.398 37.312C271.022 36.592 271.886 36.256 272.99 36.304C273.998 36.352 274.886 36.712 275.654 37.384C276.422 38.008 277.022 38.8 277.454 39.76C277.934 40.72 278.51 41.752 279.182 42.856C279.902 43.96 280.67 44.992 281.486 45.952C282.35 46.912 283.55 47.704 285.086 48.328C286.67 48.952 288.518 49.264 290.63 49.264C293.558 49.264 295.934 48.472 297.758 46.888C299.582 45.304 300.494 43.216 300.494 40.624C300.494 38.416 299.942 36.592 298.838 35.152C297.734 33.712 296.294 32.656 294.518 31.984C292.79 31.312 290.846 30.76 288.686 30.328C286.574 29.848 284.438 29.32 282.278 28.744C280.166 28.12 278.222 27.328 276.446 26.368C274.718 25.408 273.302 23.944 272.198 21.976C271.094 20.008 270.542 17.56 270.542 14.632C270.542 10.456 272.198 7.024 275.51 4.336C278.822 1.6 283.358 0.231997 289.118 0.231997C294.878 0.231997 299.534 1.504 303.086 4.048C306.686 6.544 308.462 9.304 308.414 12.328C308.414 14.776 307.166 16 304.67 16C303.614 16 302.702 15.712 301.934 15.136C301.214 14.512 300.662 13.744 300.278 12.832C299.894 11.92 299.39 10.936 298.766 9.88C298.19 8.776 297.542 7.768 296.822 6.856C296.15 5.944 295.118 5.2 293.726 4.624C292.382 4 290.774 3.688 288.902 3.688C285.878 3.688 283.526 4.504 281.846 6.136C280.166 7.768 279.326 9.808 279.326 12.256C279.326 14.368 279.878 16.12 280.982 17.512C282.086 18.856 283.502 19.864 285.23 20.536C287.006 21.208 288.95 21.808 291.062 22.336C293.222 22.816 295.358 23.392 297.47 24.064C299.63 24.688 301.574 25.504 303.302 26.512C305.078 27.52 306.518 29.008 307.622 30.976C308.726 32.944 309.278 35.368 309.278 38.248C309.278 42.664 307.43 46.192 303.734 48.832C300.038 51.424 295.55 52.72 290.27 52.72Z" fill="white"/>
</svg>
