<svg width="319" height="64" viewBox="0 0 319 64" fill="none" xmlns="http://www.w3.org/2000/svg">
<path d="M22.981 58.1866C21.2422 56.6355 19.9227 54.7426 18.6316 52.8292C14.24 46.3205 10.4174 39.4843 6.94787 32.4475C4.96933 28.4347 3.03152 24.4015 1.6137 20.1456C0.650509 17.2544 0.00974541 14.3028 5.77684e-05 11.235C-0.0157285 6.23752 3.20515 2.22602 8.12337 1.3362C11.6035 0.706558 14.5804 1.84875 17.0375 4.35318C19.0168 6.3706 20.2814 8.85865 21.453 11.3778C25.1726 19.3758 28.4856 27.5377 31.1982 35.9377C31.4875 36.8336 31.8797 37.7024 32.2933 38.55C32.5685 39.1141 32.7861 39.1185 33.0715 38.5439C33.5193 37.6426 33.9475 36.7177 34.2503 35.7606C36.8098 27.6694 40.0412 19.8437 43.5308 12.119C44.5959 9.76135 45.7814 7.46437 47.3845 5.42088C49.0605 3.28442 51.1874 1.80361 53.905 1.31948C57.9936 0.591126 62.7034 2.74873 64.4834 6.65922C64.5719 6.85361 64.6369 7.05869 64.6964 7.35015C64.6089 7.63656 64.5004 7.82649 64.4728 8.02752C64.3187 9.15133 64.2538 10.2918 64.0304 11.4009C63.2372 15.3404 61.8525 19.088 60.1416 22.7108C58.1267 26.977 55.7931 31.0642 53.0762 34.929C49.9622 39.3584 46.4698 43.4466 42.4385 47.0782C39.6533 49.5873 36.7585 51.952 33.526 53.8464C31.6407 54.9513 29.6515 55.9094 27.6292 56.7389C26.3578 57.2604 24.934 57.4041 23.5905 57.7622C23.382 57.8178 22.9016 57.6552 22.981 58.1866Z" fill="#EC9132"/>
<path d="M22.9939 58.2193C22.8942 57.652 23.3746 57.8146 23.5831 57.759C24.9266 57.4009 26.3505 57.2572 27.6218 56.7357C29.6442 55.9062 31.6334 54.9481 33.5187 53.8432C36.7512 51.9488 39.6459 49.5842 42.4312 47.075C46.4624 43.4435 49.9548 39.3552 53.0688 34.9258C55.7858 31.0611 58.1194 26.9738 60.1342 22.7077C61.8452 19.0848 63.2298 15.3372 64.0231 11.3977C64.2464 10.2886 64.3114 9.14815 64.4655 8.02435C64.493 7.82331 64.6015 7.63339 64.6957 7.39453C65.3779 8.92922 65.5322 10.5889 65.4197 12.2685C65.0861 17.2498 63.376 21.8298 61.36 26.3392C58.8298 31.9987 56.0375 37.5196 52.9479 42.8907C50.2939 47.5045 47.5171 52.0436 44.2691 56.2699C42.6555 58.3695 40.8069 60.262 38.3982 61.4507C33.8878 63.6765 29.5617 63.1351 25.4746 60.3445C24.5909 59.7412 23.8311 58.9564 22.9939 58.2193Z" fill="#EB6839"/>
<path d="M83.8769 58.768C80.2929 58.768 77.1569 57.9573 74.4689 56.336C71.7809 54.7147 69.6903 52.5173 68.1969 49.744C66.7036 46.9707 65.9569 43.8987 65.9569 40.528C65.9569 37.0293 66.7036 33.936 68.1969 31.248C69.7329 28.5173 71.8023 26.3627 74.4049 24.784C77.0503 23.2053 79.9943 22.416 83.2369 22.416C85.9676 22.416 88.3569 22.864 90.4049 23.76C92.4956 24.656 94.2663 25.8933 95.7169 27.472C97.1676 29.0507 98.2769 30.864 99.0449 32.912C99.8129 34.9173 100.197 37.0933 100.197 39.44C100.197 40.0373 100.154 40.656 100.069 41.296C100.026 41.936 99.9196 42.4907 99.7489 42.96H72.8689V36.56H95.0129L91.0449 39.568C91.4289 37.6053 91.3223 35.856 90.7249 34.32C90.1703 32.784 89.2316 31.568 87.9089 30.672C86.6289 29.776 85.0716 29.328 83.2369 29.328C81.4876 29.328 79.9303 29.776 78.5649 30.672C77.1996 31.5253 76.1543 32.8053 75.4289 34.512C74.7463 36.176 74.4903 38.2027 74.6609 40.592C74.4903 42.7253 74.7676 44.624 75.4929 46.288C76.2609 47.9093 77.3703 49.168 78.8209 50.064C80.3143 50.96 82.0209 51.408 83.9409 51.408C85.8609 51.408 87.4823 51.0027 88.8049 50.192C90.1703 49.3813 91.2369 48.2933 92.0049 46.928L98.7889 50.256C98.1063 51.92 97.0396 53.392 95.5889 54.672C94.1383 55.952 92.4103 56.9547 90.4049 57.68C88.4423 58.4053 86.2663 58.768 83.8769 58.768ZM121.608 58.768C118.195 58.768 115.08 57.9787 112.264 56.4C109.491 54.8213 107.272 52.6667 105.608 49.936C103.987 47.2053 103.176 44.0907 103.176 40.592C103.176 37.0933 103.987 33.9787 105.608 31.248C107.272 28.5173 109.491 26.3627 112.264 24.784C115.038 23.2053 118.152 22.416 121.608 22.416C125.022 22.416 128.115 23.2053 130.888 24.784C133.662 26.3627 135.859 28.5173 137.48 31.248C139.144 33.936 139.976 37.0507 139.976 40.592C139.976 44.0907 139.144 47.2053 137.48 49.936C135.816 52.6667 133.598 54.8213 130.824 56.4C128.051 57.9787 124.979 58.768 121.608 58.768ZM121.608 51.088C123.486 51.088 125.128 50.64 126.536 49.744C127.987 48.848 129.118 47.6107 129.928 46.032C130.782 44.4107 131.208 42.5973 131.208 40.592C131.208 38.544 130.782 36.752 129.928 35.216C129.118 33.6373 127.987 32.4 126.536 31.504C125.128 30.5653 123.486 30.096 121.608 30.096C119.688 30.096 118.003 30.5653 116.552 31.504C115.102 32.4 113.95 33.6373 113.096 35.216C112.286 36.752 111.88 38.544 111.88 40.592C111.88 42.5973 112.286 44.4107 113.096 46.032C113.95 47.6107 115.102 48.848 116.552 49.744C118.003 50.64 119.688 51.088 121.608 51.088ZM145.07 58V10.32H162.798C166.041 10.32 168.899 10.9173 171.374 12.112C173.891 13.264 175.854 14.9707 177.262 17.232C178.67 19.4507 179.374 22.16 179.374 25.36C179.374 28.6453 178.585 31.44 177.006 33.744C175.47 36.048 173.379 37.7547 170.734 38.864L181.678 58H171.822L160.11 37.072L165.742 40.4H153.774V58H145.07ZM153.774 32.72H162.926C164.505 32.72 165.87 32.4213 167.022 31.824C168.174 31.184 169.07 30.3093 169.71 29.2C170.35 28.0907 170.67 26.8107 170.67 25.36C170.67 23.8667 170.35 22.5867 169.71 21.52C169.07 20.4107 168.174 19.5573 167.022 18.96C165.87 18.32 164.505 18 162.926 18H153.774V32.72ZM199.797 58.768C196.383 58.768 193.269 57.9787 190.453 56.4C187.679 54.8213 185.461 52.6667 183.797 49.936C182.175 47.2053 181.365 44.0907 181.365 40.592C181.365 37.0933 182.175 33.9787 183.797 31.248C185.461 28.5173 187.679 26.3627 190.453 24.784C193.226 23.2053 196.341 22.416 199.797 22.416C203.21 22.416 206.303 23.2053 209.077 24.784C211.85 26.3627 214.047 28.5173 215.669 31.248C217.333 33.936 218.165 37.0507 218.165 40.592C218.165 44.0907 217.333 47.2053 215.669 49.936C214.005 52.6667 211.786 54.8213 209.013 56.4C206.239 57.9787 203.167 58.768 199.797 58.768ZM199.797 51.088C201.674 51.088 203.317 50.64 204.725 49.744C206.175 48.848 207.306 47.6107 208.117 46.032C208.97 44.4107 209.397 42.5973 209.397 40.592C209.397 38.544 208.97 36.752 208.117 35.216C207.306 33.6373 206.175 32.4 204.725 31.504C203.317 30.5653 201.674 30.096 199.797 30.096C197.877 30.096 196.191 30.5653 194.741 31.504C193.29 32.4 192.138 33.6373 191.285 35.216C190.474 36.752 190.069 38.544 190.069 40.592C190.069 42.5973 190.474 44.4107 191.285 46.032C192.138 47.6107 193.29 48.848 194.741 49.744C196.191 50.64 197.877 51.088 199.797 51.088ZM239.578 58.768C236.165 58.768 233.05 57.9787 230.234 56.4C227.461 54.8213 225.242 52.6667 223.578 49.936C221.957 47.2053 221.146 44.0907 221.146 40.592C221.146 37.0933 221.957 33.9787 223.578 31.248C225.242 28.5173 227.461 26.3627 230.234 24.784C233.008 23.2053 236.122 22.416 239.578 22.416C242.992 22.416 246.085 23.2053 248.858 24.784C251.632 26.3627 253.829 28.5173 255.45 31.248C257.114 33.936 257.946 37.0507 257.946 40.592C257.946 44.0907 257.114 47.2053 255.45 49.936C253.786 52.6667 251.568 54.8213 248.794 56.4C246.021 57.9787 242.949 58.768 239.578 58.768ZM239.578 51.088C241.456 51.088 243.098 50.64 244.506 49.744C245.957 48.848 247.088 47.6107 247.898 46.032C248.752 44.4107 249.178 42.5973 249.178 40.592C249.178 38.544 248.752 36.752 247.898 35.216C247.088 33.6373 245.957 32.4 244.506 31.504C243.098 30.5653 241.456 30.096 239.578 30.096C237.658 30.096 235.973 30.5653 234.522 31.504C233.072 32.4 231.92 33.6373 231.066 35.216C230.256 36.752 229.85 38.544 229.85 40.592C229.85 42.5973 230.256 44.4107 231.066 46.032C231.92 47.6107 233.072 48.848 234.522 49.744C235.973 50.64 237.658 51.088 239.578 51.088ZM262.336 58V23.184H270.208V31.248L269.312 29.904C269.952 27.3867 271.232 25.5093 273.152 24.272C275.072 23.0347 277.333 22.416 279.936 22.416C282.795 22.416 285.312 23.1627 287.488 24.656C289.664 26.1493 291.072 28.112 291.712 30.544L289.344 30.736C290.411 27.9627 292.011 25.8933 294.144 24.528C296.277 23.12 298.731 22.416 301.504 22.416C303.979 22.416 306.176 22.9707 308.096 24.08C310.059 25.1893 311.595 26.7467 312.704 28.752C313.813 30.7147 314.368 32.9973 314.368 35.6V58H305.984V37.584C305.984 36.048 305.707 34.7253 305.152 33.616C304.597 32.5067 303.829 31.6533 302.848 31.056C301.867 30.416 300.672 30.096 299.264 30.096C297.941 30.096 296.768 30.416 295.744 31.056C294.72 31.6533 293.931 32.5067 293.376 33.616C292.821 34.7253 292.544 36.048 292.544 37.584V58H284.16V37.584C284.16 36.048 283.883 34.7253 283.328 33.616C282.773 32.5067 281.984 31.6533 280.96 31.056C279.979 30.416 278.805 30.096 277.44 30.096C276.117 30.096 274.944 30.416 273.92 31.056C272.896 31.6533 272.107 32.5067 271.552 33.616C270.997 34.7253 270.72 36.048 270.72 37.584V58H262.336Z" fill="white"/>
</svg>
