<svg width="200" height="64" viewBox="0 0 200 64" fill="none" xmlns="http://www.w3.org/2000/svg">
<g clip-path="url(#clip0_1916_1511)">
<circle cx="99.5" cy="41.5" r="22.5" fill="#4D66D9"/>
<ellipse cx="87.6833" cy="32.7286" rx="31.9958" ry="30.139" transform="rotate(-37 87.6833 32.7286)" fill="#5F77EB"/>
</g>
<path d="M13.504 58L0.704 10.32H10.048L20.096 50.96H17.664L28.16 10.32H37.184L47.616 50.96H45.184L55.232 10.32H64.576L51.776 58H41.792L31.232 18.448H34.048L23.488 58H13.504ZM75.1832 58.768C72.7512 58.768 70.6392 58.3627 68.8472 57.552C67.0552 56.7413 65.6686 55.5893 64.6872 54.096C63.7059 52.56 63.2152 50.7893 63.2152 48.784C63.2152 46.864 63.6419 45.1573 64.4952 43.664C65.3486 42.128 66.6712 40.848 68.4632 39.824C70.2552 38.8 72.5166 38.0747 75.2472 37.648L86.6392 35.792V42.192L76.8472 43.856C75.1832 44.1547 73.9459 44.688 73.1352 45.456C72.3246 46.224 71.9192 47.2267 71.9192 48.464C71.9192 49.6587 72.3672 50.6187 73.2632 51.344C74.2019 52.0267 75.3539 52.368 76.7192 52.368C78.4686 52.368 80.0046 52.0053 81.3272 51.28C82.6926 50.512 83.7379 49.4667 84.4632 48.144C85.2312 46.8213 85.6152 45.3707 85.6152 43.792V34.832C85.6152 33.3387 85.0179 32.1013 83.8232 31.12C82.6712 30.096 81.1352 29.584 79.2152 29.584C77.4232 29.584 75.8232 30.0747 74.4152 31.056C73.0499 31.9947 72.0472 33.2533 71.4072 34.832L64.5592 31.504C65.2419 29.6693 66.3086 28.0907 67.7592 26.768C69.2526 25.4027 71.0019 24.336 73.0072 23.568C75.0126 22.8 77.1886 22.416 79.5352 22.416C82.3939 22.416 84.9112 22.9493 87.0872 24.016C89.2632 25.04 90.9486 26.4907 92.1432 28.368C93.3806 30.2027 93.9992 32.3573 93.9992 34.832V58H86.0632V52.048L87.8552 51.92C86.9592 53.4133 85.8926 54.672 84.6552 55.696C83.4179 56.6773 82.0099 57.4453 80.4312 58C78.8526 58.512 77.1032 58.768 75.1832 58.768ZM109.651 58L95.955 23.184H105.107L115.027 50.576H111.635L121.619 23.184H130.771L117.075 58H109.651ZM149.324 58.768C145.74 58.768 142.604 57.9573 139.916 56.336C137.228 54.7147 135.137 52.5173 133.644 49.744C132.15 46.9707 131.404 43.8987 131.404 40.528C131.404 37.0293 132.15 33.936 133.644 31.248C135.18 28.5173 137.249 26.3627 139.852 24.784C142.497 23.2053 145.441 22.416 148.684 22.416C151.414 22.416 153.804 22.864 155.852 23.76C157.942 24.656 159.713 25.8933 161.164 27.472C162.614 29.0507 163.724 30.864 164.492 32.912C165.26 34.9173 165.644 37.0933 165.644 39.44C165.644 40.0373 165.601 40.656 165.516 41.296C165.473 41.936 165.366 42.4907 165.196 42.96H138.316V36.56H160.46L156.492 39.568C156.876 37.6053 156.769 35.856 156.172 34.32C155.617 32.784 154.678 31.568 153.356 30.672C152.076 29.776 150.518 29.328 148.684 29.328C146.934 29.328 145.377 29.776 144.012 30.672C142.646 31.5253 141.601 32.8053 140.876 34.512C140.193 36.176 139.937 38.2027 140.108 40.592C139.937 42.7253 140.214 44.624 140.94 46.288C141.708 47.9093 142.817 49.168 144.268 50.064C145.761 50.96 147.468 51.408 149.388 51.408C151.308 51.408 152.929 51.0027 154.252 50.192C155.617 49.3813 156.684 48.2933 157.452 46.928L164.236 50.256C163.553 51.92 162.486 53.392 161.036 54.672C159.585 55.952 157.857 56.9547 155.852 57.68C153.889 58.4053 151.713 58.768 149.324 58.768ZM183.279 58.768C179.567 58.768 176.324 57.8933 173.551 56.144C170.82 54.352 168.943 51.9413 167.919 48.912L174.191 45.904C175.087 47.8667 176.324 49.4027 177.903 50.512C179.524 51.6213 181.316 52.176 183.279 52.176C184.815 52.176 186.031 51.8347 186.927 51.152C187.823 50.4693 188.271 49.5733 188.271 48.464C188.271 47.7813 188.079 47.2267 187.695 46.8C187.354 46.3307 186.863 45.9467 186.223 45.648C185.626 45.3067 184.964 45.0293 184.239 44.816L178.543 43.216C175.599 42.3627 173.359 41.0613 171.823 39.312C170.33 37.5627 169.583 35.4933 169.583 33.104C169.583 30.9707 170.116 29.1147 171.183 27.536C172.292 25.9147 173.807 24.656 175.727 23.76C177.69 22.864 179.93 22.416 182.447 22.416C185.732 22.416 188.634 23.2053 191.151 24.784C193.668 26.3627 195.46 28.5813 196.527 31.44L190.127 34.448C189.53 32.8693 188.527 31.6107 187.119 30.672C185.711 29.7333 184.132 29.264 182.383 29.264C180.975 29.264 179.866 29.584 179.055 30.224C178.244 30.864 177.839 31.696 177.839 32.72C177.839 33.36 178.01 33.9147 178.351 34.384C178.692 34.8533 179.162 35.2373 179.759 35.536C180.399 35.8347 181.124 36.112 181.935 36.368L187.503 38.032C190.362 38.8853 192.559 40.1653 194.095 41.872C195.674 43.5787 196.463 45.6693 196.463 48.144C196.463 50.2347 195.908 52.0907 194.799 53.712C193.69 55.2907 192.154 56.528 190.191 57.424C188.228 58.32 185.924 58.768 183.279 58.768Z" fill="white"/>
<defs>
<clipPath id="clip0_1916_1511">
<rect x="77" y="19" width="45" height="45" rx="22.5" fill="white"/>
</clipPath>
</defs>
</svg>
