<svg width="24" height="24" viewBox="0 0 24 24" fill="none" xmlns="http://www.w3.org/2000/svg">
<path d="M18.425 8.99961C18.0917 8.99961 17.8083 8.88294 17.575 8.64961C17.3417 8.41628 17.225 8.13294 17.225 7.79961V6.62461H16.05C15.7167 6.62461 15.4333 6.50794 15.2 6.27461C14.9667 6.04128 14.85 5.75794 14.85 5.42461C14.85 5.09128 14.9667 4.80794 15.2 4.57461C15.4333 4.34128 15.7167 4.22461 16.05 4.22461H17.225V3.04961C17.225 2.71628 17.3417 2.43294 17.575 2.19961C17.8083 1.96628 18.0917 1.84961 18.425 1.84961C18.7583 1.84961 19.0417 1.96628 19.275 2.19961C19.5083 2.43294 19.625 2.71628 19.625 3.04961V4.22461H20.8C21.1333 4.22461 21.4167 4.34128 21.65 4.57461C21.8833 4.80794 22 5.09128 22 5.42461C22 5.75794 21.8833 6.04128 21.65 6.27461C21.4167 6.50794 21.1333 6.62461 20.8 6.62461H19.625V7.79961C19.625 8.13294 19.5083 8.41628 19.275 8.64961C19.0417 8.88294 18.7583 8.99961 18.425 8.99961ZM7.425 16.9996H16.275C16.6083 16.9996 16.8458 16.8579 16.9875 16.5746C17.1292 16.2913 17.1 16.0163 16.9 15.7496L14.725 12.8496C14.5583 12.6329 14.35 12.5246 14.1 12.5246C13.85 12.5246 13.6417 12.6329 13.475 12.8496L11.1 15.9996L9.475 13.8496C9.30833 13.6329 9.1 13.5246 8.85 13.5246C8.6 13.5246 8.39167 13.6329 8.225 13.8496L6.8 15.7496C6.6 16.0163 6.57083 16.2913 6.7125 16.5746C6.85417 16.8579 7.09167 16.9996 7.425 16.9996ZM5.15 21.8496C4.26667 21.8496 3.52083 21.5454 2.9125 20.9371C2.30417 20.3288 2 19.5829 2 18.6996V5.29961C2 4.41628 2.30417 3.67044 2.9125 3.06211C3.52083 2.45378 4.26667 2.14961 5.15 2.14961H11.5C11.9333 2.14961 12.3042 2.30378 12.6125 2.61211C12.9208 2.92044 13.075 3.29128 13.075 3.72461V6.79961C13.075 7.23294 13.2292 7.60378 13.5375 7.91211C13.8458 8.22044 14.2167 8.37461 14.65 8.37461H15.475V9.19961C15.475 9.63294 15.6292 10.0038 15.9375 10.3121C16.2458 10.6204 16.6167 10.7746 17.05 10.7746H20.125C20.5583 10.7746 20.9292 10.9288 21.2375 11.2371C21.5458 11.5454 21.7 11.9163 21.7 12.3496V18.6996C21.7 19.5829 21.3958 20.3288 20.7875 20.9371C20.1792 21.5454 19.4333 21.8496 18.55 21.8496H5.15Z" fill="white"/>
</svg>
