<svg width="24" height="24" viewBox="0 0 24 24" fill="none" xmlns="http://www.w3.org/2000/svg">
<path d="M10.675 13.325H5.84453C5.47653 13.325 5.1637 13.1962 4.90603 12.9385C4.64836 12.681 4.51953 12.3682 4.51953 12C4.51953 11.6319 4.64836 11.319 4.90603 11.0615C5.1637 10.8039 5.47653 10.675 5.84453 10.675H10.675V5.84453C10.675 5.47653 10.8039 5.1637 11.0615 4.90603C11.319 4.64836 11.6319 4.51953 12 4.51953C12.3682 4.51953 12.681 4.64836 12.9385 4.90603C13.1962 5.1637 13.325 5.47653 13.325 5.84453V10.675H18.1555C18.5235 10.675 18.8364 10.8039 19.094 11.0615C19.3517 11.319 19.4805 11.6319 19.4805 12C19.4805 12.3682 19.3517 12.681 19.094 12.9385C18.8364 13.1962 18.5235 13.325 18.1555 13.325H13.325V18.1555C13.325 18.5235 13.1962 18.8364 12.9385 19.094C12.681 19.3517 12.3682 19.4805 12 19.4805C11.6319 19.4805 11.319 19.3517 11.0615 19.094C10.8039 18.8364 10.675 18.5235 10.675 18.1555V13.325Z" fill="black"/>
</svg>
