<svg width="24" height="24" viewBox="0 0 24 24" fill="none" xmlns="http://www.w3.org/2000/svg">
<path fill-rule="evenodd" clip-rule="evenodd" d="M3.4625 20.5369C3.77083 20.8453 4.15517 20.9994 4.6155 20.9994H19.3845C19.8448 20.9994 20.2292 20.8453 20.5375 20.5369C20.8458 20.2286 21 19.8443 21 19.3839V10.6149C21 10.1546 20.8458 9.77027 20.5375 9.46194C20.2292 9.1536 19.8448 8.99944 19.3845 8.99944H4.6155C4.15517 8.99944 3.77083 9.1536 3.4625 9.46194C3.15417 9.77027 3 10.1546 3 10.6149V19.3839C3 19.8443 3.15417 20.2286 3.4625 20.5369ZM4.64325 7.08694C4.73875 7.18244 4.85767 7.23019 5 7.23019H19C19.1423 7.23019 19.2613 7.18244 19.3568 7.08694C19.4523 6.99144 19.5 6.87252 19.5 6.73019C19.5 6.58785 19.4523 6.46894 19.3568 6.37344C19.2613 6.27794 19.1423 6.23019 19 6.23019H5C4.85767 6.23019 4.73875 6.27794 4.64325 6.37344C4.54775 6.46894 4.5 6.58785 4.5 6.73019C4.5 6.87252 4.54775 6.99144 4.64325 7.08694ZM7.64325 4.31769C7.73875 4.41319 7.85767 4.46094 8 4.46094H16C16.1423 4.46094 16.2613 4.41319 16.3568 4.31769C16.4523 4.22219 16.5 4.10327 16.5 3.96094C16.5 3.8186 16.4523 3.69969 16.3568 3.60419C16.2613 3.50869 16.1423 3.46094 16 3.46094H8C7.85767 3.46094 7.73875 3.50869 7.64325 3.60419C7.54775 3.69969 7.5 3.8186 7.5 3.96094C7.5 4.10327 7.54775 4.22219 7.64325 4.31769ZM9.74468 16.0829H11.2635V17.6015C11.2635 17.8568 11.3513 18.0724 11.5269 18.2481C11.7025 18.4237 11.918 18.5115 12.1735 18.5115C12.4288 18.5115 12.6443 18.4237 12.8199 18.2481C12.9956 18.0724 13.0835 17.8568 13.0835 17.6015V16.0829H14.6021C14.8574 16.0829 15.0729 15.995 15.2487 15.8193C15.4243 15.6437 15.5121 15.4282 15.5121 15.1729C15.5121 14.9174 15.4243 14.7019 15.2487 14.5263C15.0729 14.3507 14.8574 14.2629 14.6021 14.2629H13.0835V12.7441C13.0835 12.4888 12.9956 12.2732 12.8199 12.0975C12.6443 11.9219 12.4288 11.8341 12.1735 11.8341C11.918 11.8341 11.7025 11.9219 11.5269 12.0975C11.3513 12.2732 11.2635 12.4888 11.2635 12.7441V14.2629H9.74468C9.48934 14.2629 9.27381 14.3507 9.09807 14.5263C8.92247 14.7019 8.83467 14.9174 8.83467 15.1729C8.83467 15.4282 8.92247 15.6437 9.09807 15.8193C9.27381 15.995 9.48934 16.0829 9.74468 16.0829Z" fill="black"/>
</svg>
