<svg width="25" height="25" viewBox="0 0 25 25" fill="none" xmlns="http://www.w3.org/2000/svg">
<path d="M15.9 1.25C18.15 1.25 19.3 1.25 20.5 1.625C21.825 2.1 22.875 3.15 23.35 4.475C23.75 5.7 23.75 6.825 23.75 9.1V15.9C23.75 18.15 23.75 19.3 23.375 20.5C22.9 21.825 21.85 22.875 20.525 23.35C19.3 23.75 18.175 23.75 15.9 23.75H9.1C6.85 23.75 5.7 23.75 4.5 23.375C3.175 22.875 2.125 21.825 1.625 20.5C1.25 19.3 1.25 18.175 1.25 15.9V9.1C1.25 6.85 1.25 5.7 1.625 4.5C2.125 3.175 3.175 2.125 4.5 1.625C5.7 1.25 6.825 1.25 9.1 1.25H15.9Z" fill="white"/>
<path d="M8.94903 9.50001C9.17403 9.50001 9.37403 9.52501 9.57403 9.57501C9.52403 9.37501 9.49903 9.15001 9.49903 8.95001V5.75001C9.49903 5.60001 9.52403 5.47501 9.52403 5.35001C8.34903 4.47501 6.67403 4.57501 5.62403 5.62501C4.57403 6.67501 4.47403 8.35001 5.34903 9.52501C5.47403 9.50001 5.62403 9.50001 5.74903 9.50001H8.94903Z" fill="#FF7E7B"/>
<path d="M12.3 11.925C12.15 11.925 12.025 11.9 11.875 11.875C11.9 12 11.925 12.15 11.925 12.3C12 12.25 12.05 12.2 12.125 12.125C12.175 12.05 12.225 12 12.3 11.925Z" fill="#FF6F3F"/>
<path d="M12.1234 7.875C12.2734 8.025 12.4234 8.2 12.5234 8.375C12.6484 8.2 12.7734 8.025 12.9234 7.875L15.1734 5.625C15.2734 5.525 15.3484 5.45 15.4484 5.375C15.2984 3.9 14.0234 2.75 12.4984 2.75C10.9734 2.75 9.72344 3.875 9.52344 5.35C9.64844 5.425 9.74844 5.525 9.84844 5.625L12.1234 7.875Z" fill="#FFAC00"/>
<path d="M12.7508 11.9246C12.6758 11.8246 12.5758 11.7246 12.5258 11.5996C12.4508 11.6996 12.3758 11.8246 12.3008 11.9246C12.3758 11.9246 12.4508 11.9246 12.5008 11.9246C12.5758 11.9496 12.6758 11.9246 12.7508 11.9246Z" fill="#FFC300"/>
<path d="M9.5 8.94961C9.5 9.17461 9.525 9.37461 9.575 9.57461C10.725 9.82461 11.625 10.7246 11.875 11.8746C12 11.8996 12.15 11.9246 12.3 11.9246C12.375 11.8246 12.475 11.7246 12.525 11.5996C11.9 10.6246 11.9 9.34961 12.525 8.37461C12.4 8.19961 12.275 8.02461 12.125 7.87461L9.875 5.62461C9.775 5.52461 9.65 5.42461 9.55 5.34961C9.525 5.47461 9.5 5.59961 9.5 5.74961V8.94961Z" fill="#FF3400"/>
<path d="M15.5008 8.94955C15.5008 9.17455 15.4758 9.37455 15.4258 9.57455C15.6258 9.52455 15.8508 9.49955 16.0508 9.49955H19.2508C19.4008 9.49955 19.5508 9.52455 19.7008 9.54955C20.5758 8.37455 20.5008 6.69955 19.4258 5.62455C18.3508 4.54955 16.6508 4.47455 15.4758 5.37455C15.5008 5.49955 15.5008 5.62455 15.5008 5.74955V8.94955Z" fill="#F0EA0D"/>
<path d="M13.075 12.25C13.075 12.125 13.1 12 13.125 11.875C13 11.9 12.875 11.925 12.75 11.925C12.8 12 12.875 12.05 12.925 12.125C12.975 12.175 13.025 12.2 13.075 12.25Z" fill="#DAE411"/>
<path d="M12.9234 7.875C12.7734 8.025 12.6234 8.2 12.5234 8.375C13.1484 9.35 13.1484 10.625 12.5234 11.6C12.5984 11.7 12.6734 11.825 12.7484 11.925C12.8734 11.925 12.9984 11.9 13.1234 11.875C13.3734 10.725 14.2734 9.825 15.4234 9.575C15.4734 9.375 15.4984 9.15 15.4984 8.95V5.75C15.4984 5.625 15.4984 5.5 15.4734 5.375C15.3734 5.45 15.2734 5.525 15.1984 5.625L12.9234 7.875Z" fill="#EAA200"/>
<path d="M12.5234 8.375C11.8984 9.35 11.8984 10.625 12.5234 11.6C13.1484 10.625 13.1484 9.375 12.5234 8.375Z" fill="#E63300"/>
<path d="M13.0508 12.5C13.0508 12.6 13.0508 12.7 13.0758 12.8C13.2008 12.7 13.3258 12.6 13.4508 12.525C13.3258 12.45 13.2008 12.35 13.0758 12.25C13.0758 12.325 13.0508 12.425 13.0508 12.5Z" fill="#83D567"/>
<path d="M22.2508 12.4998C22.2508 10.9998 21.1508 9.7498 19.7008 9.5498C19.6258 9.6748 19.5258 9.7748 19.4258 9.8748L17.1758 12.1248C17.0258 12.2748 16.8508 12.4248 16.6758 12.5248C16.8508 12.6498 17.0258 12.7748 17.1758 12.9248L19.4258 15.1748C19.5258 15.2748 19.6008 15.3498 19.6758 15.4498C21.1258 15.2498 22.2508 14.0248 22.2508 12.4998Z" fill="#A2DD50"/>
<path d="M16.0492 9.5C15.8242 9.5 15.6242 9.525 15.4242 9.575C15.1742 10.725 14.2742 11.625 13.1242 11.875C13.0992 12 13.0742 12.125 13.0742 12.25C13.1992 12.35 13.3242 12.45 13.4492 12.525C14.4242 11.9 15.6992 11.9 16.6742 12.525C16.8492 12.4 17.0242 12.275 17.1742 12.125L19.4242 9.875C19.5242 9.775 19.6242 9.65 19.6992 9.55C19.5492 9.525 19.3992 9.5 19.2492 9.5H16.0492Z" fill="#8BC100"/>
<path d="M15.425 9.5752C14.275 9.8252 13.375 10.7252 13.125 11.8752C14.275 11.6252 15.175 10.7252 15.425 9.5752Z" fill="#8D8800"/>
<path d="M16.0508 15.4998C15.8258 15.4998 15.6258 15.4748 15.4258 15.4248C15.4758 15.6248 15.5008 15.8498 15.5008 16.0498V19.2498C15.5008 19.3998 15.4758 19.5248 15.4758 19.6748C16.6508 20.5998 18.3508 20.5248 19.4508 19.4248C20.5258 18.3498 20.6258 16.6498 19.7008 15.4498C19.5258 15.4748 19.4008 15.4998 19.2508 15.4998H16.0508Z" fill="#44C899"/>
<path d="M12.8008 13.0748C12.9008 13.0748 13.0258 13.0998 13.1258 13.1248C13.1008 13.0248 13.0758 12.8998 13.0758 12.7998C13.0258 12.8498 12.9758 12.8748 12.9258 12.9248C12.8758 12.9748 12.8508 13.0248 12.8008 13.0748Z" fill="#4EBFBD"/>
<path d="M17.1742 12.9254C17.0242 12.7754 16.8492 12.6254 16.6742 12.5254C15.6992 13.1504 14.4242 13.1504 13.4492 12.5254C13.3242 12.6004 13.1992 12.7004 13.0742 12.8004C13.0742 12.9004 13.0992 13.0254 13.1242 13.1254C14.2742 13.3754 15.1742 14.2754 15.4242 15.4254C15.6242 15.4754 15.8492 15.5004 16.0492 15.5004H19.2492C19.3992 15.5004 19.5242 15.4754 19.6742 15.4754C19.5992 15.3754 19.5242 15.2754 19.4242 15.2004L17.1742 12.9254Z" fill="#00A33F"/>
<path d="M13.4492 12.5254C14.4242 13.1504 15.6992 13.1504 16.6742 12.5254C15.6742 11.9004 14.4242 11.9004 13.4492 12.5254Z" fill="#008D08"/>
<path d="M12.25 13.0748C12.35 13.1998 12.45 13.3248 12.525 13.4498C12.6 13.3248 12.7 13.1998 12.8 13.0748C12.7 13.0748 12.6 13.0498 12.5 13.0498C12.425 13.0498 12.325 13.0748 12.25 13.0748Z" fill="#859ED5"/>
<path d="M12.9258 17.1748C12.7758 17.0248 12.6258 16.8498 12.5258 16.6748C12.4008 16.8498 12.2758 17.0248 12.1258 17.1748L9.87578 19.4248C9.77578 19.5248 9.65078 19.6248 9.55078 19.6998C9.75078 21.1498 11.0008 22.2498 12.5008 22.2498C14.0258 22.2498 15.2508 21.1248 15.4758 19.6748C15.3758 19.5998 15.2758 19.5248 15.2008 19.4248L12.9258 17.1748Z" fill="#6EACDF"/>
<path d="M15.4984 16.0502C15.4984 15.8252 15.4734 15.6252 15.4234 15.4252C14.2734 15.1752 13.3734 14.2752 13.1234 13.1252C13.0234 13.1002 12.8984 13.0752 12.7984 13.0752C12.6984 13.2002 12.5984 13.3252 12.5234 13.4502C13.1484 14.4252 13.1484 15.7002 12.5234 16.6752C12.6484 16.8502 12.7734 17.0252 12.9234 17.1752L15.1734 19.4252C15.2734 19.5252 15.3484 19.6002 15.4484 19.6752C15.4734 19.5252 15.4734 19.4002 15.4734 19.2502V16.0502H15.4984Z" fill="#1D7B97"/>
<path d="M15.425 15.425C15.175 14.275 14.275 13.375 13.125 13.125C13.375 14.275 14.275 15.175 15.425 15.425Z" fill="#00683A"/>
<path d="M11.925 12.75C11.925 12.875 11.9 13 11.875 13.125C12 13.1 12.125 13.075 12.25 13.075C12.2 13.025 12.175 12.975 12.125 12.925C12.05 12.875 12 12.825 11.925 12.75Z" fill="#BE85C1"/>
<path d="M9.49988 16.0498C9.49988 15.8248 9.52488 15.6248 9.57488 15.4248C9.37488 15.4748 9.14988 15.4998 8.94988 15.4998H5.74988C5.62488 15.4998 5.49988 15.4998 5.37488 15.4748C4.44988 16.6498 4.54988 18.3498 5.62488 19.4248C6.69988 20.4998 8.37488 20.5748 9.54988 19.6998C9.52488 19.5498 9.49988 19.3998 9.49988 19.2498V16.0498Z" fill="#AB86C4"/>
<path d="M12.125 17.1752C12.275 17.0252 12.425 16.8502 12.525 16.6752C11.9 15.7002 11.9 14.4252 12.525 13.4502C12.45 13.3252 12.35 13.2002 12.25 13.0752C12.125 13.0752 12 13.1002 11.875 13.1252C11.625 14.2752 10.725 15.1752 9.575 15.4252C9.525 15.6252 9.5 15.8502 9.5 16.0502V19.2502C9.5 19.4002 9.525 19.5502 9.55 19.7002C9.675 19.6252 9.775 19.5252 9.875 19.4252L12.125 17.1752Z" fill="#5D53A6"/>
<path d="M12.5234 16.6752C13.1484 15.7002 13.1484 14.4252 12.5234 13.4502C11.8984 14.4252 11.8984 15.6752 12.5234 16.6752Z" fill="#243F76"/>
<path d="M11.9266 12.2998C11.8266 12.3748 11.7266 12.4748 11.6016 12.5248C11.7016 12.5998 11.8266 12.6748 11.9266 12.7498C11.9266 12.6748 11.9516 12.5748 11.9516 12.4998C11.9516 12.4248 11.9266 12.3498 11.9266 12.2998Z" fill="#F1648A"/>
<path d="M7.875 12.9248C8.025 12.7748 8.2 12.6248 8.375 12.5248C8.2 12.3998 8.025 12.2748 7.875 12.1248L5.625 9.8748C5.525 9.7748 5.425 9.6498 5.35 9.5498C3.875 9.7248 2.75 10.9748 2.75 12.4998C2.75 14.0248 3.9 15.2998 5.375 15.4748C5.45 15.3748 5.525 15.2748 5.625 15.1998L7.875 12.9248Z" fill="#E275A8"/>
<path d="M7.87656 12.125C8.02656 12.275 8.20156 12.425 8.37656 12.525C9.35156 11.9 10.6266 11.9 11.6016 12.525C11.7016 12.45 11.8266 12.375 11.9266 12.3C11.9266 12.15 11.9016 12.025 11.8766 11.875C10.7266 11.625 9.82656 10.725 9.57656 9.575C9.37656 9.525 9.15156 9.5 8.95156 9.5H5.75156C5.60156 9.5 5.47656 9.525 5.35156 9.525C5.42656 9.65 5.52656 9.75 5.62656 9.85L7.87656 12.125Z" fill="#E40017"/>
<path d="M9.57422 9.5752C9.82422 10.7252 10.7242 11.6252 11.8742 11.8752C11.6242 10.7252 10.7242 9.8252 9.57422 9.5752Z" fill="#E60000"/>
<path d="M8.95 15.5004C9.175 15.5004 9.375 15.4754 9.575 15.4254C9.825 14.2754 10.725 13.3754 11.875 13.1254C11.9 13.0004 11.925 12.8754 11.925 12.7504C11.825 12.6754 11.725 12.5754 11.6 12.5254C10.625 13.1504 9.35 13.1504 8.375 12.5254C8.2 12.6504 8.025 12.7754 7.875 12.9254L5.625 15.1754C5.525 15.2754 5.45 15.3504 5.375 15.4504C5.5 15.5004 5.625 15.5004 5.75 15.5004H8.95Z" fill="#9F3174"/>
<path d="M8.375 12.5254C9.35 13.1504 10.625 13.1504 11.6 12.5254C10.625 11.9004 9.375 11.9004 8.375 12.5254Z" fill="#9F0017"/>
<path d="M9.57422 15.425C10.7242 15.175 11.6242 14.275 11.8742 13.125C10.7242 13.375 9.82422 14.275 9.57422 15.425Z" fill="#561E5D"/>
</svg>
