<svg width="80" height="80" viewBox="0 0 80 80" fill="none" xmlns="http://www.w3.org/2000/svg">
<g clip-path="url(#clip0_9104_12935)">
<path d="M61.3333 0H18.6667C8.35735 0 0 8.35735 0 18.6667V61.3333C0 71.6427 8.35735 80 18.6667 80H61.3333C71.6427 80 80 71.6427 80 61.3333V18.6667C80 8.35735 71.6427 0 61.3333 0Z" fill="white"/>
<mask id="mask0_9104_12935" style="mask-type:luminance" maskUnits="userSpaceOnUse" x="0" y="0" width="80" height="80">
<path d="M61.3333 0H18.6667C8.35735 0 0 8.35735 0 18.6667V61.3333C0 71.6427 8.35735 80 18.6667 80H61.3333C71.6427 80 80 71.6427 80 61.3333V18.6667C80 8.35735 71.6427 0 61.3333 0Z" fill="white"/>
</mask>
<g mask="url(#mask0_9104_12935)">
<g filter="url(#filter0_d_9104_12935)">
<path d="M-6 0H85.3333V20H-6V0Z" fill="black"/>
</g>
<path d="M-6 0H85.3333V20H-6V0Z" fill="url(#paint0_linear_9104_12935)"/>
</g>
<mask id="mask1_9104_12935" style="mask-type:luminance" maskUnits="userSpaceOnUse" x="0" y="0" width="80" height="80">
<path d="M61.3333 0H18.6667C8.35735 0 0 8.35735 0 18.6667V61.3333C0 71.6427 8.35735 80 18.6667 80H61.3333C71.6427 80 80 71.6427 80 61.3333V18.6667C80 8.35735 71.6427 0 61.3333 0Z" fill="white"/>
</mask>
<g mask="url(#mask1_9104_12935)">
<path fill-rule="evenodd" clip-rule="evenodd" d="M0 39.332H80V40.6654H0V39.332ZM0 59.332H80V60.6654H0V59.332Z" fill="#C7C5C9"/>
</g>
<mask id="mask2_9104_12935" style="mask-type:luminance" maskUnits="userSpaceOnUse" x="0" y="0" width="80" height="80">
<path d="M61.3333 0H18.6667C8.35735 0 0 8.35735 0 18.6667V61.3333C0 71.6427 8.35735 80 18.6667 80H61.3333C71.6427 80 80 71.6427 80 61.3333V18.6667C80 8.35735 71.6427 0 61.3333 0Z" fill="white"/>
</mask>
<g mask="url(#mask2_9104_12935)">
<path d="M7.66602 25.332C8.2183 25.332 8.66602 24.8843 8.66602 24.332C8.66602 23.7797 8.2183 23.332 7.66602 23.332C7.11373 23.332 6.66602 23.7797 6.66602 24.332C6.66602 24.8843 7.11373 25.332 7.66602 25.332Z" fill="#C2C0C4"/>
<path d="M11 25.332C11.5523 25.332 12 24.8843 12 24.332C12 23.7797 11.5523 23.332 11 23.332C10.4477 23.332 10 23.7797 10 24.332C10 24.8843 10.4477 25.332 11 25.332Z" fill="#C2C0C4"/>
<path d="M14.334 25.332C14.8863 25.332 15.334 24.8843 15.334 24.332C15.334 23.7797 14.8863 23.332 14.334 23.332C13.7817 23.332 13.334 23.7797 13.334 24.332C13.334 24.8843 13.7817 25.332 14.334 25.332Z" fill="#C2C0C4"/>
<path d="M17.666 25.332C18.2183 25.332 18.666 24.8843 18.666 24.332C18.666 23.7797 18.2183 23.332 17.666 23.332C17.1137 23.332 16.666 23.7797 16.666 24.332C16.666 24.8843 17.1137 25.332 17.666 25.332Z" fill="#C2C0C4"/>
<path d="M21 25.332C21.5523 25.332 22 24.8843 22 24.332C22 23.7797 21.5523 23.332 21 23.332C20.4477 23.332 20 23.7797 20 24.332C20 24.8843 20.4477 25.332 21 25.332Z" fill="#C2C0C4"/>
<path d="M24.334 25.332C24.8863 25.332 25.334 24.8843 25.334 24.332C25.334 23.7797 24.8863 23.332 24.334 23.332C23.7817 23.332 23.334 23.7797 23.334 24.332C23.334 24.8843 23.7817 25.332 24.334 25.332Z" fill="#C2C0C4"/>
<path d="M27.666 25.332C28.2183 25.332 28.666 24.8843 28.666 24.332C28.666 23.7797 28.2183 23.332 27.666 23.332C27.1137 23.332 26.666 23.7797 26.666 24.332C26.666 24.8843 27.1137 25.332 27.666 25.332Z" fill="#C2C0C4"/>
<path d="M31 25.332C31.5523 25.332 32 24.8843 32 24.332C32 23.7797 31.5523 23.332 31 23.332C30.4477 23.332 30 23.7797 30 24.332C30 24.8843 30.4477 25.332 31 25.332Z" fill="#C2C0C4"/>
<path d="M34.334 25.332C34.8863 25.332 35.334 24.8843 35.334 24.332C35.334 23.7797 34.8863 23.332 34.334 23.332C33.7817 23.332 33.334 23.7797 33.334 24.332C33.334 24.8843 33.7817 25.332 34.334 25.332Z" fill="#C2C0C4"/>
<path d="M37.666 25.332C38.2183 25.332 38.666 24.8843 38.666 24.332C38.666 23.7797 38.2183 23.332 37.666 23.332C37.1137 23.332 36.666 23.7797 36.666 24.332C36.666 24.8843 37.1137 25.332 37.666 25.332Z" fill="#C2C0C4"/>
<path d="M41 25.332C41.5523 25.332 42 24.8843 42 24.332C42 23.7797 41.5523 23.332 41 23.332C40.4477 23.332 40 23.7797 40 24.332C40 24.8843 40.4477 25.332 41 25.332Z" fill="#C2C0C4"/>
<path d="M44.334 25.332C44.8863 25.332 45.334 24.8843 45.334 24.332C45.334 23.7797 44.8863 23.332 44.334 23.332C43.7817 23.332 43.334 23.7797 43.334 24.332C43.334 24.8843 43.7817 25.332 44.334 25.332Z" fill="#C2C0C4"/>
<path d="M47.666 25.332C48.2183 25.332 48.666 24.8843 48.666 24.332C48.666 23.7797 48.2183 23.332 47.666 23.332C47.1137 23.332 46.666 23.7797 46.666 24.332C46.666 24.8843 47.1137 25.332 47.666 25.332Z" fill="#C2C0C4"/>
<path d="M51 25.332C51.5523 25.332 52 24.8843 52 24.332C52 23.7797 51.5523 23.332 51 23.332C50.4477 23.332 50 23.7797 50 24.332C50 24.8843 50.4477 25.332 51 25.332Z" fill="#C2C0C4"/>
<path d="M54.334 25.332C54.8863 25.332 55.334 24.8843 55.334 24.332C55.334 23.7797 54.8863 23.332 54.334 23.332C53.7817 23.332 53.334 23.7797 53.334 24.332C53.334 24.8843 53.7817 25.332 54.334 25.332Z" fill="#C2C0C4"/>
<path d="M57.666 25.332C58.2183 25.332 58.666 24.8843 58.666 24.332C58.666 23.7797 58.2183 23.332 57.666 23.332C57.1137 23.332 56.666 23.7797 56.666 24.332C56.666 24.8843 57.1137 25.332 57.666 25.332Z" fill="#C2C0C4"/>
<path d="M61 25.332C61.5523 25.332 62 24.8843 62 24.332C62 23.7797 61.5523 23.332 61 23.332C60.4477 23.332 60 23.7797 60 24.332C60 24.8843 60.4477 25.332 61 25.332Z" fill="#C2C0C4"/>
<path d="M64.334 25.332C64.8863 25.332 65.334 24.8843 65.334 24.332C65.334 23.7797 64.8863 23.332 64.334 23.332C63.7817 23.332 63.334 23.7797 63.334 24.332C63.334 24.8843 63.7817 25.332 64.334 25.332Z" fill="#C2C0C4"/>
<path d="M67.666 25.332C68.2183 25.332 68.666 24.8843 68.666 24.332C68.666 23.7797 68.2183 23.332 67.666 23.332C67.1137 23.332 66.666 23.7797 66.666 24.332C66.666 24.8843 67.1137 25.332 67.666 25.332Z" fill="#C2C0C4"/>
<path d="M71 25.332C71.5523 25.332 72 24.8843 72 24.332C72 23.7797 71.5523 23.332 71 23.332C70.4477 23.332 70 23.7797 70 24.332C70 24.8843 70.4477 25.332 71 25.332Z" fill="#C2C0C4"/>
<path d="M74.334 25.332C74.8863 25.332 75.334 24.8843 75.334 24.332C75.334 23.7797 74.8863 23.332 74.334 23.332C73.7817 23.332 73.334 23.7797 73.334 24.332C73.334 24.8843 73.7817 25.332 74.334 25.332Z" fill="#C2C0C4"/>
<path d="M77.666 25.332C78.2183 25.332 78.666 24.8843 78.666 24.332C78.666 23.7797 78.2183 23.332 77.666 23.332C77.1137 23.332 76.666 23.7797 76.666 24.332C76.666 24.8843 77.1137 25.332 77.666 25.332Z" fill="#C2C0C4"/>
<path d="M4.33398 25.332C4.88627 25.332 5.33398 24.8843 5.33398 24.332C5.33398 23.7797 4.88627 23.332 4.33398 23.332C3.7817 23.332 3.33398 23.7797 3.33398 24.332C3.33398 24.8843 3.7817 25.332 4.33398 25.332Z" fill="#C2C0C4"/>
<path d="M1 25.332C1.55228 25.332 2 24.8843 2 24.332C2 23.7797 1.55228 23.332 1 23.332C0.447715 23.332 0 23.7797 0 24.332C0 24.8843 0.447715 25.332 1 25.332Z" fill="#C2C0C4"/>
</g>
</g>
<defs>
<filter id="filter0_d_9104_12935" x="-8.66667" y="-1.33333" width="96.6673" height="25.3333" filterUnits="userSpaceOnUse" color-interpolation-filters="sRGB">
<feFlood flood-opacity="0" result="BackgroundImageFix"/>
<feColorMatrix in="SourceAlpha" type="matrix" values="0 0 0 0 0 0 0 0 0 0 0 0 0 0 0 0 0 0 127 0" result="hardAlpha"/>
<feOffset dy="1.33333"/>
<feGaussianBlur stdDeviation="1.33333"/>
<feColorMatrix type="matrix" values="0 0 0 0 0 0 0 0 0 0 0 0 0 0 0 0 0 0 0.5 0"/>
<feBlend mode="normal" in2="BackgroundImageFix" result="effect1_dropShadow_9104_12935"/>
<feBlend mode="normal" in="SourceGraphic" in2="effect1_dropShadow_9104_12935" result="shape"/>
</filter>
<linearGradient id="paint0_linear_9104_12935" x1="4560.67" y1="0" x2="4560.67" y2="2000" gradientUnits="userSpaceOnUse">
<stop stop-color="#F4D87E"/>
<stop offset="1" stop-color="#F5C52C"/>
</linearGradient>
<clipPath id="clip0_9104_12935">
<rect width="80" height="80" fill="white"/>
</clipPath>
</defs>
</svg>
