<svg width="24" height="24" viewBox="0 0 24 24" fill="none" xmlns="http://www.w3.org/2000/svg">
<path d="M8.26562 20.1555V3.83053C8.26562 3.46236 8.39438 3.15186 8.65188 2.89903C8.90954 2.64603 9.22246 2.51953 9.59063 2.51953C9.95879 2.51953 10.2693 2.64603 10.5221 2.89903C10.775 3.15186 10.9014 3.46236 10.9014 3.83053V20.1695C10.9014 20.5377 10.775 20.8482 10.5221 21.101C10.2693 21.354 9.95879 21.4805 9.59063 21.4805C9.22246 21.4805 8.90954 21.3517 8.65188 21.094C8.39438 20.8364 8.26562 20.5235 8.26562 20.1555ZM12.9014 16.224V7.77603C12.9014 7.47686 13.0367 7.27145 13.3074 7.15978C13.578 7.04811 13.8203 7.0992 14.0341 7.31303L17.7949 11.0598C18.0609 11.3258 18.1939 11.6392 18.1939 12C18.1939 12.3609 18.0609 12.6743 17.7949 12.9403L14.0341 16.687C13.8203 16.9009 13.578 16.9519 13.3074 16.8403C13.0367 16.7286 12.9014 16.5232 12.9014 16.224Z" fill="black"/>
</svg>
