<svg width="30" height="30" viewBox="0 0 30 30" fill="none" xmlns="http://www.w3.org/2000/svg">
<path d="M13.5781 11.4777L10.2447 14.8114C9.98052 15.0754 9.64896 15.2073 9.25 15.2073C8.85104 15.2073 8.51948 15.0754 8.25531 14.8114C7.99135 14.5472 7.85938 14.2157 7.85938 13.8167C7.85938 13.4178 7.99135 13.0863 8.25531 12.8223L13.9978 7.07984C14.2828 6.79484 14.6169 6.65234 15 6.65234C15.3831 6.65234 15.7172 6.79484 16.0022 7.07984L21.7447 12.8223C22.0086 13.0863 22.1406 13.4178 22.1406 13.8167C22.1406 14.2157 22.0086 14.5472 21.7447 14.8114C21.4805 15.0754 21.149 15.2073 20.75 15.2073C20.351 15.2073 20.0195 15.0754 19.7553 14.8114L16.4219 11.4777V21.3167C16.4219 21.7157 16.2847 22.0524 16.0103 22.327C15.7357 22.6014 15.399 22.7386 15 22.7386C14.601 22.7386 14.2643 22.6014 13.9897 22.327C13.7153 22.0524 13.5781 21.7157 13.5781 21.3167V11.4777Z" fill="white"/>
</svg>
