<svg width="25" height="25" viewBox="0 0 25 25" fill="none" xmlns="http://www.w3.org/2000/svg">
<path fill-rule="evenodd" clip-rule="evenodd" d="M21.6163 12.9767C21.6163 13.275 21.4978 13.5611 21.2868 13.7721C21.0759 13.983 20.7898 14.1015 20.4915 14.1015H7.45933L12.2893 18.9293C12.3939 19.0338 12.4768 19.158 12.5334 19.2946C12.59 19.4313 12.6192 19.5777 12.6192 19.7256C12.6192 19.8735 12.59 20.02 12.5334 20.1566C12.4768 20.2933 12.3939 20.4174 12.2893 20.522C12.1847 20.6266 12.0606 20.7095 11.9239 20.7661C11.7873 20.8227 11.6408 20.8519 11.4929 20.8519C11.345 20.8519 11.1986 20.8227 11.0619 20.7661C10.9253 20.7095 10.8011 20.6266 10.6966 20.522L3.94765 13.7731C3.84289 13.6686 3.75979 13.5445 3.70308 13.4078C3.64638 13.2712 3.61719 13.1247 3.61719 12.9767C3.61719 12.8288 3.64638 12.6823 3.70308 12.5456C3.75979 12.409 3.84289 12.2848 3.94765 12.1803L10.6966 5.43143C10.9078 5.22022 11.1942 5.10156 11.4929 5.10156C11.7916 5.10156 12.0781 5.22022 12.2893 5.43143C12.5005 5.64264 12.6192 5.92911 12.6192 6.2278C12.6192 6.5265 12.5005 6.81296 12.2893 7.02417L7.45933 11.8519H20.4915C20.7898 11.8519 21.0759 11.9704 21.2868 12.1813C21.4978 12.3923 21.6163 12.6784 21.6163 12.9767Z" fill="white"/>
</svg>
