<svg width="24" height="24" viewBox="0 0 24 24" fill="none" xmlns="http://www.w3.org/2000/svg">
<path d="M9.96444 16.687L6.20369 12.9403C5.93769 12.6743 5.80469 12.3609 5.80469 12C5.80469 11.6392 5.93769 11.3258 6.20369 11.0598L9.96444 7.31303C10.1783 7.0992 10.4205 7.04811 10.6912 7.15978C10.9619 7.27145 11.0972 7.47686 11.0972 7.77603V16.224C11.0972 16.5232 10.9619 16.7286 10.6912 16.8403C10.4205 16.9519 10.1783 16.9009 9.96444 16.687ZM13.0972 20.1555V3.83053C13.0972 3.46236 13.2259 3.15186 13.4834 2.89903C13.7411 2.64603 14.054 2.51953 14.4222 2.51953C14.7902 2.51953 15.1007 2.64603 15.3537 2.89903C15.6065 3.15186 15.7329 3.46236 15.7329 3.83053V20.1695C15.7329 20.5377 15.6065 20.8482 15.3537 21.101C15.1007 21.354 14.7902 21.4805 14.4222 21.4805C14.054 21.4805 13.7411 21.3517 13.4834 21.094C13.2259 20.8364 13.0972 20.5235 13.0972 20.1555Z" fill="black"/>
</svg>
