<svg width="24" height="24" viewBox="0 0 24 24" fill="none" xmlns="http://www.w3.org/2000/svg">
<path d="M3.65156 19.9742C3.40156 19.7242 3.27656 19.4369 3.27656 19.1122C3.27656 18.7869 3.40156 18.5076 3.65156 18.2742L9.70156 12.2242C9.81823 12.1076 9.94323 12.0242 10.0766 11.9742C10.2099 11.9242 10.3516 11.8992 10.5016 11.8992C10.6349 11.8992 10.7726 11.9242 10.9146 11.9742C11.0559 12.0242 11.1849 12.1076 11.3016 12.2242L14.4766 15.4242L20.7766 8.32422C20.9932 8.07422 21.2682 7.94922 21.6016 7.94922C21.9349 7.94922 22.2182 8.05755 22.4516 8.27422C22.6516 8.49089 22.7559 8.74489 22.7646 9.03622C22.7726 9.32822 22.6766 9.59089 22.4766 9.82422L15.3016 17.8992C15.1849 18.0326 15.0559 18.1326 14.9146 18.1992C14.7726 18.2659 14.6266 18.2992 14.4766 18.2992C14.3266 18.3159 14.1809 18.2949 14.0396 18.2362C13.8976 18.1782 13.7682 18.0909 13.6516 17.9742L10.5016 14.7992L5.35156 19.9742C5.10156 20.2076 4.81423 20.3242 4.48956 20.3242C4.16423 20.3242 3.8849 20.2076 3.65156 19.9742ZM4.02656 13.3242C3.92656 13.3242 3.83056 13.2992 3.73856 13.2492C3.64723 13.1992 3.57656 13.1159 3.52656 12.9992L3.02656 11.9242L1.92656 11.4242C1.8099 11.3576 1.72656 11.2786 1.67656 11.1872C1.62656 11.0952 1.60156 10.9992 1.60156 10.8992C1.60156 10.7992 1.62656 10.7036 1.67656 10.6122C1.72656 10.5202 1.8099 10.4409 1.92656 10.3742L3.02656 9.87422L3.52656 8.79922C3.57656 8.68255 3.64723 8.59922 3.73856 8.54922C3.83056 8.49922 3.92656 8.47422 4.02656 8.47422C4.12656 8.47422 4.22656 8.49922 4.32656 8.54922C4.42656 8.59922 4.50156 8.68255 4.55156 8.79922L5.05156 9.87422L6.12656 10.3742C6.34323 10.4742 6.45156 10.6492 6.45156 10.8992C6.45156 11.1492 6.34323 11.3242 6.12656 11.4242L5.05156 11.9242L4.55156 12.9992C4.50156 13.1159 4.42656 13.1992 4.32656 13.2492C4.22656 13.2992 4.12656 13.3242 4.02656 13.3242ZM15.0266 11.2742C14.9266 11.2742 14.8309 11.2492 14.7396 11.1992C14.6476 11.1492 14.5682 11.0659 14.5016 10.9492L14.0016 9.87422L12.9266 9.37422C12.8099 9.32422 12.7266 9.24922 12.6766 9.14922C12.6266 9.04922 12.6016 8.94922 12.6016 8.84922C12.6016 8.74922 12.6266 8.65322 12.6766 8.56122C12.7266 8.46989 12.8099 8.39922 12.9266 8.34922L14.0016 7.84922L14.5016 6.74922C14.5682 6.63255 14.6476 6.54922 14.7396 6.49922C14.8309 6.44922 14.9266 6.42422 15.0266 6.42422C15.1266 6.42422 15.2222 6.44922 15.3136 6.49922C15.4056 6.54922 15.4849 6.63255 15.5516 6.74922L16.0516 7.84922L17.1266 8.34922C17.2432 8.39922 17.3266 8.46989 17.3766 8.56122C17.4266 8.65322 17.4516 8.74922 17.4516 8.84922C17.4516 8.94922 17.4266 9.04922 17.3766 9.14922C17.3266 9.24922 17.2432 9.32422 17.1266 9.37422L16.0516 9.87422L15.5516 10.9492C15.4849 11.0659 15.4056 11.1492 15.3136 11.1992C15.2222 11.2492 15.1266 11.2742 15.0266 11.2742ZM8.55156 8.22422C8.45156 8.22422 8.35556 8.19489 8.26356 8.13622C8.17223 8.07822 8.09323 7.99089 8.02656 7.87422L7.40156 6.49922L6.00156 5.84922C5.8849 5.79922 5.80156 5.72422 5.75156 5.62422C5.70156 5.52422 5.67656 5.42422 5.67656 5.32422C5.67656 5.22422 5.70156 5.12822 5.75156 5.03622C5.80156 4.94489 5.8849 4.87422 6.00156 4.82422L7.40156 4.17422L8.02656 2.79922C8.09323 2.68255 8.17223 2.59489 8.26356 2.53622C8.35556 2.47822 8.45156 2.44922 8.55156 2.44922C8.65156 2.44922 8.74756 2.47822 8.83956 2.53622C8.9309 2.59489 9.0099 2.68255 9.07656 2.79922L9.70156 4.17422L11.1016 4.82422C11.2182 4.87422 11.3059 4.94489 11.3646 5.03622C11.4226 5.12822 11.4516 5.22422 11.4516 5.32422C11.4516 5.42422 11.4226 5.52422 11.3646 5.62422C11.3059 5.72422 11.2182 5.79922 11.1016 5.84922L9.70156 6.49922L9.07656 7.87422C9.0099 7.99089 8.9309 8.07822 8.83956 8.13622C8.74756 8.19489 8.65156 8.22422 8.55156 8.22422Z" fill="black"/>
</svg>
