<svg width="24" height="24" viewBox="0 0 24 24" fill="none" xmlns="http://www.w3.org/2000/svg">
<path d="M3.5 9.35174V7.65948L8.04425 3.11523H9.7365L3.5 9.35174ZM3.5 4.86523V3.40373L3.7885 3.11523H5.25L3.5 4.86523ZM15.598 6.31899C15.457 6.18049 15.3067 6.04457 15.147 5.91124C14.9875 5.7779 14.8269 5.66065 14.6652 5.55948L17.1095 3.11523H18.8018L15.598 6.31899ZM5.0385 15.1862L7.55975 12.665C7.65708 12.8292 7.75383 12.9767 7.85 13.1075C7.94617 13.2382 8.05325 13.3606 8.17125 13.4747L7.45 14.196C7.06017 14.2998 6.655 14.4377 6.2345 14.6095C5.814 14.7812 5.41533 14.9734 5.0385 15.1862ZM17.0673 9.35748V9.32648C17.0544 9.09965 17.0214 8.86832 16.9682 8.63248C16.9151 8.39648 16.8449 8.17532 16.7578 7.96899L20.5 4.22673V5.92473L17.0673 9.35748ZM10.727 4.96523L12.5923 3.11523H14.2845L12.5308 4.86899C12.4179 4.84849 12.3103 4.83307 12.2078 4.82273C12.1051 4.81257 11.9973 4.80748 11.8845 4.80748C11.7012 4.81382 11.5083 4.83174 11.3058 4.86124C11.1033 4.89074 10.9103 4.9254 10.727 4.96523ZM3.5 13.8842V12.192L6.9655 8.72674C6.91933 8.9229 6.88308 9.1174 6.85675 9.31023C6.83042 9.50323 6.81725 9.6914 6.81725 9.87473C6.81725 9.98757 6.82242 10.0952 6.83275 10.1977C6.84292 10.3004 6.85825 10.403 6.87875 10.5055L3.5 13.8842ZM19.5807 15.8727C19.4537 15.7304 19.3156 15.5948 19.1663 15.466C19.0169 15.3372 18.8551 15.2137 18.6807 15.0957L20.5 13.2765V14.9687L19.5807 15.8727ZM17.1328 13.8035C17.0929 13.7215 17.0483 13.6436 16.999 13.5697C16.9497 13.4961 16.8987 13.4233 16.8462 13.3515C16.7796 13.2632 16.709 13.1747 16.6345 13.0862C16.5602 12.9977 16.4833 12.9176 16.4038 12.8457L20.5 8.73423V10.4515L17.1328 13.8035ZM12 13.4997C11.0347 13.4997 10.21 13.1577 9.526 12.4737C8.842 11.7897 8.5 10.9651 8.5 9.99973C8.5 9.0344 8.842 8.20973 9.526 7.52573C10.21 6.84173 11.0347 6.49973 12 6.49973C12.9653 6.49973 13.79 6.84173 14.474 7.52573C15.158 8.20973 15.5 9.0344 15.5 9.99973C15.5 10.9651 15.158 11.7897 14.474 12.4737C13.79 13.1577 12.9653 13.4997 12 13.4997ZM4.5 19.5957V18.9075C4.5 18.392 4.63367 17.9295 4.901 17.52C5.16833 17.1103 5.52317 16.7933 5.9655 16.569C6.79617 16.1548 7.72017 15.809 8.7375 15.5315C9.75483 15.254 10.8423 15.1152 12 15.1152C13.1577 15.1152 14.2452 15.254 15.2625 15.5315C16.2798 15.809 17.2038 16.1548 18.0345 16.569C18.4705 16.787 18.8238 17.104 19.0943 17.52C19.3648 17.936 19.5 18.3985 19.5 18.9075V19.5957C19.5 19.8536 19.4138 20.0687 19.2413 20.241C19.0689 20.4135 18.8538 20.4997 18.596 20.4997H5.404C5.14617 20.4997 4.93108 20.4135 4.75875 20.241C4.58625 20.0687 4.5 19.8536 4.5 19.5957Z" fill="#696EFF"/>
</svg>
