<svg width="24" height="24" viewBox="0 0 24 24" fill="none" xmlns="http://www.w3.org/2000/svg">
<path d="M3.0018 14.5478C2.85595 14.5478 2.72804 14.4931 2.61807 14.3837C2.50811 14.2743 2.45312 14.1467 2.45312 14.0008C2.45312 13.855 2.50783 13.7271 2.61723 13.6171C2.72661 13.5071 2.85423 13.4521 3.0001 13.4521C3.14595 13.4521 3.27386 13.5068 3.38383 13.6162C3.49379 13.7256 3.54877 13.8533 3.54877 13.9991C3.54877 14.145 3.49408 14.2729 3.38468 14.3828C3.27529 14.4928 3.14767 14.5478 3.0018 14.5478ZM3.0018 10.5478C2.85595 10.5478 2.72804 10.4931 2.61807 10.3837C2.50811 10.2743 2.45312 10.1467 2.45312 10.0008C2.45312 9.85497 2.50783 9.72707 2.61723 9.6171C2.72661 9.50713 2.85423 9.45215 3.0001 9.45215C3.14595 9.45215 3.27386 9.50685 3.38383 9.61625C3.49379 9.72563 3.54877 9.85326 3.54877 9.99912C3.54877 10.145 3.49408 10.2729 3.38468 10.3828C3.27529 10.4928 3.14767 10.5478 3.0018 10.5478ZM6.00095 19.0478C5.70407 19.0478 5.45521 18.9474 5.25437 18.7465C5.05354 18.5457 4.95313 18.2969 4.95313 18C4.95313 17.7031 5.05354 17.4542 5.25437 17.2534C5.45521 17.0526 5.70407 16.9521 6.00095 16.9521C6.29783 16.9521 6.54669 17.0526 6.74753 17.2534C6.94836 17.4542 7.04877 17.7031 7.04877 18C7.04877 18.2969 6.94836 18.5457 6.74753 18.7465C6.54669 18.9474 6.29783 19.0478 6.00095 19.0478ZM6.00095 15.0478C5.70407 15.0478 5.45521 14.9474 5.25437 14.7465C5.05354 14.5457 4.95313 14.2969 4.95313 14C4.95313 13.7031 5.05354 13.4542 5.25437 13.2534C5.45521 13.0526 5.70407 12.9521 6.00095 12.9521C6.29783 12.9521 6.54669 13.0526 6.74753 13.2534C6.94836 13.4542 7.04877 13.7031 7.04877 14C7.04877 14.2969 6.94836 14.5457 6.74753 14.7465C6.54669 14.9474 6.29783 15.0478 6.00095 15.0478ZM6.00095 11.0478C5.70407 11.0478 5.45521 10.9474 5.25437 10.7465C5.05354 10.5457 4.95313 10.2969 4.95313 9.99997C4.95313 9.70309 5.05354 9.45423 5.25437 9.2534C5.45521 9.05256 5.70407 8.95215 6.00095 8.95215C6.29783 8.95215 6.54669 9.05256 6.74753 9.2534C6.94836 9.45423 7.04877 9.70309 7.04877 9.99997C7.04877 10.2969 6.94836 10.5457 6.74753 10.7465C6.54669 10.9474 6.29783 11.0478 6.00095 11.0478ZM6.00095 7.0478C5.70407 7.0478 5.45521 6.94738 5.25437 6.74655C5.05354 6.54572 4.95313 6.29686 4.95313 5.99997C4.95313 5.70309 5.05354 5.45423 5.25437 5.2534C5.45521 5.05256 5.70407 4.95215 6.00095 4.95215C6.29783 4.95215 6.54669 5.05256 6.74753 5.2534C6.94836 5.45423 7.04877 5.70309 7.04877 5.99997C7.04877 6.29686 6.94836 6.54572 6.74753 6.74655C6.54669 6.94738 6.29783 7.0478 6.00095 7.0478ZM10.0009 19.0478C9.70407 19.0478 9.45521 18.9474 9.25437 18.7465C9.05354 18.5457 8.95313 18.2969 8.95313 18C8.95313 17.7031 9.05354 17.4542 9.25437 17.2534C9.45521 17.0526 9.70407 16.9521 10.0009 16.9521C10.2978 16.9521 10.5467 17.0526 10.7475 17.2534C10.9484 17.4542 11.0488 17.7031 11.0488 18C11.0488 18.2969 10.9484 18.5457 10.7475 18.7465C10.5467 18.9474 10.2978 19.0478 10.0009 19.0478ZM10.0009 7.0478C9.70407 7.0478 9.45521 6.94738 9.25437 6.74655C9.05354 6.54572 8.95313 6.29686 8.95313 5.99997C8.95313 5.70309 9.05354 5.45423 9.25437 5.2534C9.45521 5.05256 9.70407 4.95215 10.0009 4.95215C10.2978 4.95215 10.5467 5.05256 10.7475 5.2534C10.9484 5.45423 11.0488 5.70309 11.0488 5.99997C11.0488 6.29686 10.9484 6.54572 10.7475 6.74655C10.5467 6.94738 10.2978 7.0478 10.0009 7.0478ZM10.0018 21.5478C9.85595 21.5478 9.72804 21.4931 9.61807 21.3837C9.50811 21.2743 9.45313 21.1467 9.45313 21.0008C9.45313 20.855 9.50782 20.7271 9.61722 20.6171C9.72661 20.5071 9.85423 20.4521 10.0001 20.4521C10.146 20.4521 10.2739 20.5068 10.3838 20.6162C10.4938 20.7256 10.5488 20.8533 10.5488 20.9991C10.5488 21.145 10.4941 21.2729 10.3847 21.3828C10.2753 21.4928 10.1477 21.5478 10.0018 21.5478ZM10.0018 3.5478C9.85595 3.5478 9.72804 3.4931 9.61807 3.3837C9.50811 3.27431 9.45313 3.14669 9.45313 3.00082C9.45313 2.85497 9.50782 2.72706 9.61722 2.6171C9.72661 2.50713 9.85423 2.45215 10.0001 2.45215C10.146 2.45215 10.2739 2.50685 10.3838 2.61625C10.4938 2.72563 10.5488 2.85326 10.5488 2.99912C10.5488 3.14497 10.4941 3.27288 10.3847 3.38285C10.2753 3.49282 10.1477 3.5478 10.0018 3.5478ZM14.001 19.0478C13.7041 19.0478 13.4552 18.9474 13.2544 18.7465C13.0535 18.5457 12.9531 18.2969 12.9531 18C12.9531 17.7031 13.0535 17.4542 13.2544 17.2534C13.4552 17.0526 13.7041 16.9521 14.001 16.9521C14.2978 16.9521 14.5467 17.0526 14.7475 17.2534C14.9484 17.4542 15.0488 17.7031 15.0488 18C15.0488 18.2969 14.9484 18.5457 14.7475 18.7465C14.5467 18.9474 14.2978 19.0478 14.001 19.0478ZM14.001 7.0478C13.7041 7.0478 13.4552 6.94738 13.2544 6.74655C13.0535 6.54572 12.9531 6.29686 12.9531 5.99997C12.9531 5.70309 13.0535 5.45423 13.2544 5.2534C13.4552 5.05256 13.7041 4.95215 14.001 4.95215C14.2978 4.95215 14.5467 5.05256 14.7475 5.2534C14.9484 5.45423 15.0488 5.70309 15.0488 5.99997C15.0488 6.29686 14.9484 6.54572 14.7475 6.74655C14.5467 6.94738 14.2978 7.0478 14.001 7.0478ZM14.0018 21.5478C13.8559 21.5478 13.728 21.4931 13.6181 21.3837C13.5081 21.2743 13.4531 21.1467 13.4531 21.0008C13.4531 20.855 13.5078 20.7271 13.6172 20.6171C13.7266 20.5071 13.8542 20.4521 14.0001 20.4521C14.146 20.4521 14.2739 20.5068 14.3838 20.6162C14.4938 20.7256 14.5488 20.8533 14.5488 20.9991C14.5488 21.145 14.4941 21.2729 14.3847 21.3828C14.2753 21.4928 14.1477 21.5478 14.0018 21.5478ZM14.0018 3.5478C13.8559 3.5478 13.728 3.4931 13.6181 3.3837C13.5081 3.27431 13.4531 3.14669 13.4531 3.00082C13.4531 2.85497 13.5078 2.72706 13.6172 2.6171C13.7266 2.50713 13.8542 2.45215 14.0001 2.45215C14.146 2.45215 14.2739 2.50685 14.3838 2.61625C14.4938 2.72563 14.5488 2.85326 14.5488 2.99912C14.5488 3.14497 14.4941 3.27288 14.3847 3.38285C14.2753 3.49282 14.1477 3.5478 14.0018 3.5478ZM18.001 19.0478C17.7041 19.0478 17.4552 18.9474 17.2544 18.7465C17.0535 18.5457 16.9531 18.2969 16.9531 18C16.9531 17.7031 17.0535 17.4542 17.2544 17.2534C17.4552 17.0526 17.7041 16.9521 18.001 16.9521C18.2978 16.9521 18.5467 17.0526 18.7475 17.2534C18.9484 17.4542 19.0488 17.7031 19.0488 18C19.0488 18.2969 18.9484 18.5457 18.7475 18.7465C18.5467 18.9474 18.2978 19.0478 18.001 19.0478ZM18.001 15.0478C17.7041 15.0478 17.4552 14.9474 17.2544 14.7465C17.0535 14.5457 16.9531 14.2969 16.9531 14C16.9531 13.7031 17.0535 13.4542 17.2544 13.2534C17.4552 13.0526 17.7041 12.9521 18.001 12.9521C18.2978 12.9521 18.5467 13.0526 18.7475 13.2534C18.9484 13.4542 19.0488 13.7031 19.0488 14C19.0488 14.2969 18.9484 14.5457 18.7475 14.7465C18.5467 14.9474 18.2978 15.0478 18.001 15.0478ZM18.001 11.0478C17.7041 11.0478 17.4552 10.9474 17.2544 10.7465C17.0535 10.5457 16.9531 10.2969 16.9531 9.99997C16.9531 9.70309 17.0535 9.45423 17.2544 9.2534C17.4552 9.05256 17.7041 8.95215 18.001 8.95215C18.2978 8.95215 18.5467 9.05256 18.7475 9.2534C18.9484 9.45423 19.0488 9.70309 19.0488 9.99997C19.0488 10.2969 18.9484 10.5457 18.7475 10.7465C18.5467 10.9474 18.2978 11.0478 18.001 11.0478ZM18.001 7.0478C17.7041 7.0478 17.4552 6.94738 17.2544 6.74655C17.0535 6.54572 16.9531 6.29686 16.9531 5.99997C16.9531 5.70309 17.0535 5.45423 17.2544 5.2534C17.4552 5.05256 17.7041 4.95215 18.001 4.95215C18.2978 4.95215 18.5467 5.05256 18.7475 5.2534C18.9484 5.45423 19.0488 5.70309 19.0488 5.99997C19.0488 6.29686 18.9484 6.54572 18.7475 6.74655C18.5467 6.94738 18.2978 7.0478 18.001 7.0478ZM21.0018 14.5478C20.856 14.5478 20.728 14.4931 20.6181 14.3837C20.5081 14.2743 20.4531 14.1467 20.4531 14.0008C20.4531 13.855 20.5078 13.7271 20.6172 13.6171C20.7266 13.5071 20.8542 13.4521 21.0001 13.4521C21.146 13.4521 21.2739 13.5068 21.3838 13.6162C21.4938 13.7256 21.5488 13.8533 21.5488 13.9991C21.5488 14.145 21.4941 14.2729 21.3847 14.3828C21.2753 14.4928 21.1477 14.5478 21.0018 14.5478ZM21.0018 10.5478C20.856 10.5478 20.728 10.4931 20.6181 10.3837C20.5081 10.2743 20.4531 10.1467 20.4531 10.0008C20.4531 9.85497 20.5078 9.72707 20.6172 9.6171C20.7266 9.50713 20.8542 9.45215 21.0001 9.45215C21.146 9.45215 21.2739 9.50685 21.3838 9.61625C21.4938 9.72563 21.5488 9.85326 21.5488 9.99912C21.5488 10.145 21.4941 10.2729 21.3847 10.3828C21.2753 10.4928 21.1477 10.5478 21.0018 10.5478ZM8.00095 15.8804V15.45C8.00095 14.5833 8.41762 13.9583 9.25095 13.575C10.0843 13.1916 11.0009 13 12.001 13C13.001 13 13.9176 13.1916 14.751 13.575C15.5843 13.9583 16.001 14.5833 16.001 15.45V15.8804H8.00095ZM12.001 12C11.4509 12 10.9801 11.8041 10.5884 11.4125C10.1968 11.0208 10.0009 10.55 10.0009 9.99997C10.0009 9.44997 10.1968 8.97914 10.5884 8.58747C10.9801 8.19581 11.4509 7.99997 12.001 7.99997C12.551 7.99997 13.0218 8.19581 13.4135 8.58747C13.8051 8.97914 14.001 9.44997 14.001 9.99997C14.001 10.55 13.8051 11.0208 13.4135 11.4125C13.0218 11.8041 12.551 12 12.001 12Z" fill="white"/>
</svg>
