<svg width="24" height="24" viewBox="0 0 24 24" fill="none" xmlns="http://www.w3.org/2000/svg">
<path d="M3.5 9.35222V7.65997L8.04425 3.11572H9.7365L3.5 9.35222ZM3.5 4.86572V3.40422L3.7885 3.11572H5.25L3.5 4.86572ZM15.598 6.31947C15.457 6.18097 15.3067 6.04506 15.147 5.91172C14.9875 5.77839 14.8269 5.66114 14.6652 5.55997L17.1095 3.11572H18.8018L15.598 6.31947ZM5.0385 15.1867L7.55975 12.6655C7.65708 12.8296 7.75383 12.9771 7.85 13.108C7.94617 13.2386 8.05325 13.3611 8.17125 13.4752L7.45 14.1965C7.06017 14.3003 6.655 14.4381 6.2345 14.61C5.814 14.7816 5.41533 14.9739 5.0385 15.1867ZM17.0673 9.35797V9.32697C17.0544 9.10014 17.0214 8.86881 16.9682 8.63297C16.9151 8.39697 16.8449 8.17581 16.7578 7.96947L20.5 4.22722V5.92522L17.0673 9.35797ZM10.727 4.96572L12.5923 3.11572H14.2845L12.5308 4.86947C12.4179 4.84897 12.3103 4.83356 12.2078 4.82322C12.1051 4.81306 11.9973 4.80797 11.8845 4.80797C11.7012 4.81431 11.5083 4.83222 11.3058 4.86172C11.1033 4.89122 10.9103 4.92589 10.727 4.96572ZM3.5 13.8847V12.1925L6.9655 8.72722C6.91933 8.92339 6.88308 9.11789 6.85675 9.31072C6.83042 9.50372 6.81725 9.69189 6.81725 9.87522C6.81725 9.98806 6.82242 10.0957 6.83275 10.1982C6.84292 10.3009 6.85825 10.4035 6.87875 10.506L3.5 13.8847ZM19.5807 15.8732C19.4537 15.7309 19.3156 15.5953 19.1663 15.4665C19.0169 15.3376 18.8551 15.2142 18.6807 15.0962L20.5 13.277V14.9692L19.5807 15.8732ZM17.1328 13.804C17.0929 13.722 17.0483 13.6441 16.999 13.5702C16.9497 13.4966 16.8987 13.4238 16.8462 13.352C16.7796 13.2636 16.709 13.1752 16.6345 13.0867C16.5602 12.9982 16.4833 12.9181 16.4038 12.8462L20.5 8.73472V10.452L17.1328 13.804ZM12 13.5002C11.0347 13.5002 10.21 13.1582 9.526 12.4742C8.842 11.7902 8.5 10.9656 8.5 10.0002C8.5 9.03489 8.842 8.21022 9.526 7.52622C10.21 6.84222 11.0347 6.50022 12 6.50022C12.9653 6.50022 13.79 6.84222 14.474 7.52622C15.158 8.21022 15.5 9.03489 15.5 10.0002C15.5 10.9656 15.158 11.7902 14.474 12.4742C13.79 13.1582 12.9653 13.5002 12 13.5002ZM4.5 19.5962V18.908C4.5 18.3925 4.63367 17.93 4.901 17.5205C5.16833 17.1108 5.52317 16.7938 5.9655 16.5695C6.79617 16.1553 7.72017 15.8095 8.7375 15.532C9.75483 15.2545 10.8423 15.1157 12 15.1157C13.1577 15.1157 14.2452 15.2545 15.2625 15.532C16.2798 15.8095 17.2038 16.1553 18.0345 16.5695C18.4705 16.7875 18.8238 17.1045 19.0943 17.5205C19.3648 17.9365 19.5 18.399 19.5 18.908V19.5962C19.5 19.8541 19.4138 20.0691 19.2413 20.2415C19.0689 20.414 18.8538 20.5002 18.596 20.5002H5.404C5.14617 20.5002 4.93108 20.414 4.75875 20.2415C4.58625 20.0691 4.5 19.8541 4.5 19.5962Z" fill="white"/>
</svg>
