<svg width="24" height="24" viewBox="0 0 24 24" fill="none" xmlns="http://www.w3.org/2000/svg">
<path d="M4.80919 12.0038C4.80919 11.6951 4.9136 11.4363 5.12244 11.2273C5.33127 11.0185 5.59002 10.9141 5.89869 10.9141H18.0902C18.3989 10.9141 18.6576 11.0185 18.8664 11.2273C19.0753 11.4363 19.1797 11.6951 19.1797 12.0038C19.1797 12.3125 19.0753 12.5713 18.8664 12.7803C18.6576 12.9891 18.3989 13.0936 18.0902 13.0936H5.89869C5.59002 13.0936 5.33127 12.9891 5.12244 12.7803C4.9136 12.5713 4.80919 12.3125 4.80919 12.0038Z" fill="black"/>
<g clip-path="url(#clip0_2256_1425)">
<path d="M19 5.75V3.75C19 3.19772 18.5523 2.75 18 2.75L6 2.75C5.44771 2.75 5 3.19772 5 3.75V5.75C5 6.30228 5.44771 6.75 6 6.75L18 6.75C18.5523 6.75 19 6.30228 19 5.75Z" stroke="black" stroke-width="2"/>
</g>
<g clip-path="url(#clip1_2256_1425)">
<path d="M19 19.75V17.75C19 17.1977 18.5523 16.75 18 16.75H6C5.44771 16.75 5 17.1977 5 17.75V19.75C5 20.3023 5.44771 20.75 6 20.75H18C18.5523 20.75 19 20.3023 19 19.75Z" stroke="black" stroke-width="2"/>
</g>
<defs>
<clipPath id="clip0_2256_1425">
<rect width="16" height="6" fill="white" transform="translate(4 1.75)"/>
</clipPath>
<clipPath id="clip1_2256_1425">
<rect width="16" height="6" fill="white" transform="translate(4 15.75)"/>
</clipPath>
</defs>
</svg>
