<svg width="24" height="24" viewBox="0 0 24 24" fill="none" xmlns="http://www.w3.org/2000/svg">
<path d="M8.8208 15.2275H5.8643C5.40846 15.2275 5.07171 15.0244 4.85405 14.6182C4.63655 14.2121 4.66038 13.8184 4.92555 13.4372L12.6995 2.25073C12.8782 2.00139 13.1098 1.82898 13.3943 1.73348C13.679 1.63781 13.969 1.64389 14.2643 1.75173C14.5595 1.85973 14.7807 2.04573 14.928 2.30973C15.0754 2.57373 15.1304 2.85731 15.093 3.16048L14.275 9.77298H18.0185C18.5077 9.77298 18.8527 9.99056 19.0535 10.4257C19.2545 10.8609 19.1954 11.2671 18.876 11.6442L10.3463 21.8827C10.151 22.1154 9.91196 22.2651 9.6293 22.3317C9.3468 22.3984 9.07055 22.3714 8.80055 22.2507C8.53071 22.1301 8.32196 21.941 8.1743 21.6835C8.02663 21.4258 7.97146 21.1473 8.0088 20.848L8.8208 15.2275Z" fill="white"/>
</svg>
