<svg width="24" height="24" viewBox="0 0 24 24" fill="none" xmlns="http://www.w3.org/2000/svg">
<path d="M6.75012 22.2031C5.94029 22.2031 5.24563 21.928 4.66613 21.3778C4.08663 20.8276 3.79688 20.1476 3.79688 19.3378V5.45356C3.79688 4.75256 4.01463 4.12914 4.45013 3.58331C4.88563 3.03747 5.45196 2.69189 6.14913 2.54656L13.2784 1.13731C13.9827 0.987973 14.6105 1.14122 15.1616 1.59706C15.7126 2.05289 15.9881 2.64131 15.9881 3.36231V14.9166C15.9881 15.4637 15.8182 15.9497 15.4784 16.3746C15.1385 16.7994 14.7014 17.0614 14.1669 17.1606L6.57887 18.6818C6.42087 18.7151 6.28696 18.7933 6.17713 18.9163C6.06713 19.0393 6.01212 19.1798 6.01212 19.3378C6.01212 19.5211 6.08612 19.6753 6.23412 19.8003C6.38212 19.9253 6.55412 19.9878 6.75012 19.9878H17.9881V4.90406C17.9881 4.59289 18.095 4.33047 18.3086 4.11681C18.5221 3.90331 18.7845 3.79656 19.0959 3.79656C19.407 3.79656 19.6695 3.90331 19.8831 4.11681C20.0966 4.33047 20.2034 4.59289 20.2034 4.90406V19.9281C20.2034 20.5577 19.9816 21.0943 19.5381 21.5378C19.0946 21.9813 18.558 22.2031 17.9284 22.2031H6.75012ZM8.34362 16.1286C8.60079 16.0706 8.81237 15.942 8.97837 15.7428C9.14437 15.5435 9.22737 15.3132 9.22737 15.0521V5.55731C9.22737 5.20481 9.09354 4.91864 8.82587 4.69881C8.55837 4.47881 8.25038 4.40414 7.90188 4.47481C7.64454 4.52881 7.43187 4.65739 7.26387 4.86056C7.09604 5.06389 7.01213 5.29614 7.01213 5.55731V15.0521C7.01213 15.4046 7.14687 15.6898 7.41637 15.9078C7.68604 16.1256 7.99512 16.1992 8.34362 16.1286Z" fill="black"/>
</svg>
