<svg width="24" height="24" viewBox="0 0 24 24" fill="none" xmlns="http://www.w3.org/2000/svg">
<path d="M7.97656 20.0211C7.63717 20.0211 7.47656 20.0211 7.47656 20.0211C6.97656 20.0211 7.34653 20.0211 6.97656 20.0211C6.47656 20.0211 6.80799 20.0228 6.47148 20.0211C5.96155 20.0185 5.45124 20.0307 4.94174 20.0154C3.86643 19.9829 3.00906 19.0969 3.00459 18.021C3.00047 17.0277 3.00424 16.0344 3.00454 15.0412C3.00455 15.0047 3.00454 14.9682 3.00454 14.9257C2.76224 14.8308 2.54868 14.6949 2.37696 14.4985C2.14022 14.2276 2.00889 13.9124 2.00609 13.5531C2.0008 12.8732 1.99409 12.193 2.00961 11.5134C2.02467 10.8537 2.35257 10.3907 2.9585 10.1266C2.9735 10.1201 2.98835 10.1132 3.01084 10.1031C3.01084 9.87544 3.01059 9.64588 3.01089 9.41632C3.01193 8.61639 3.00833 7.8164 3.01554 7.01652C3.02444 6.02858 3.70783 5.22004 4.67835 5.04254C4.79871 5.02053 4.92342 5.01444 5.04612 5.01433C6.99265 5.01264 8.93918 5.01313 10.8857 5.01312C10.9217 5.01312 10.9577 5.01312 11.0036 5.01312C11.0036 4.68491 10.9977 4.36259 11.0065 4.04067C11.0101 3.90962 11.027 3.77286 11.0701 3.65006C11.2307 3.19329 11.6968 2.93383 12.1861 3.01464C12.6405 3.08967 12.9952 3.50543 13.0022 3.97842C13.0068 4.28833 13.0034 4.59836 13.0037 4.90834C13.0037 4.94075 13.0037 4.97316 13.0037 5.01314C13.0611 5.01314 13.1102 5.01314 13.1594 5.01314C15.0959 5.01314 17.0324 5.01297 18.969 5.01322C19.9657 5.01335 20.7705 5.66375 20.9728 6.6392C21.001 6.77492 21.0077 6.91705 21.0081 7.05626C21.0111 8.02285 21.0099 8.98945 21.01 9.95605C21.01 10.0057 21.01 10.0554 21.01 10.1085C21.2636 10.2104 21.4818 10.358 21.6549 10.5688C21.8931 10.8592 21.9978 11.1945 21.9977 11.5668C21.9975 12.2001 22.0027 12.8334 21.9981 13.4667C21.9933 14.1357 21.6815 14.6127 21.0733 14.8907C21.0053 14.9218 21.0099 14.9637 21.0099 15.0161C21.01 15.9993 21.0094 16.9826 21.0102 17.9658C21.0111 18.9715 20.3693 19.7736 19.3871 19.982C19.2451 20.0121 19.0961 20.0187 18.9503 20.0188C16.8071 20.0211 14.6639 20.0225 12.5207 20.0184C12.174 20.0177 11.8225 19.9961 11.4766 19.9961C10.4766 19.9961 8.47656 19.9961 8.47656 19.9961C8.47656 19.9961 8.31595 20.0211 7.97656 20.0211ZM14.0536 14.0143C12.3743 14.0143 10.695 14.0143 9.01391 14.0143C9.35187 15.0106 10.4782 16.0049 11.9784 16.0153C13.5243 16.026 14.6554 15.0077 14.9937 14.0143C14.6857 14.0143 14.3797 14.0143 14.0536 14.0143ZM8.22014 11.9905C8.2367 11.9923 8.2533 11.9938 8.26981 11.996C8.84552 12.0732 9.32719 11.8919 9.68308 11.4359C10.0415 10.9767 10.1019 10.4602 9.87904 9.9207C9.61406 9.27935 8.90709 8.9069 8.22402 9.03837C7.52626 9.17267 7.00772 9.79156 7.00408 10.4944C7.00031 11.2232 7.47552 11.8143 8.22014 11.9905ZM14.0677 10.9561C14.0724 10.9685 14.0773 10.9809 14.0817 10.9934C14.2915 11.5894 14.8389 12.0013 15.4382 12.0142C16.242 12.0315 16.8707 11.5002 16.9898 10.7033C17.1166 9.85453 16.4281 9.03717 15.5672 9.01463C14.5267 8.98738 13.7921 9.92863 14.0677 10.9561Z" fill="black"/>
</svg>
