<svg width="20" height="20" viewBox="0 0 20 20" fill="none" xmlns="http://www.w3.org/2000/svg">
<path d="M9.60156 5.59844V2.39844H1.60156V16.7984H17.6016V5.59844H9.60156ZM4.80156 15.1984H3.20156V13.5984H4.80156V15.1984ZM4.80156 11.9984H3.20156V10.3984H4.80156V11.9984ZM4.80156 8.79844H3.20156V7.19844H4.80156V8.79844ZM4.80156 5.59844H3.20156V3.99844H4.80156V5.59844ZM8.00156 15.1984H6.40156V13.5984H8.00156V15.1984ZM8.00156 11.9984H6.40156V10.3984H8.00156V11.9984ZM8.00156 8.79844H6.40156V7.19844H8.00156V8.79844ZM8.00156 5.59844H6.40156V3.99844H8.00156V5.59844ZM16.0016 15.1984H9.60156V13.5984H11.2016V11.9984H9.60156V10.3984H11.2016V8.79844H9.60156V7.19844H16.0016V15.1984ZM14.4016 8.79844H12.8016V10.3984H14.4016V8.79844ZM14.4016 11.9984H12.8016V13.5984H14.4016V11.9984Z" fill="black"/>
</svg>
