<svg width="24" height="24" viewBox="0 0 24 24" fill="none" xmlns="http://www.w3.org/2000/svg">
<path d="M5.07188 22.2034C4.44221 22.2034 3.90562 21.9816 3.46212 21.5381C3.01862 21.0946 2.79688 20.558 2.79688 19.9284V6.07188C2.79688 5.44221 3.01862 4.90562 3.46212 4.46212C3.90562 4.01862 4.44221 3.79688 5.07188 3.79688H6.00013V2.86263C6.00013 2.56329 6.10396 2.31088 6.31163 2.10538C6.51913 1.89971 6.77254 1.79688 7.07188 1.79688C7.37121 1.79688 7.62363 1.89971 7.82913 2.10538C8.03479 2.31088 8.13763 2.56329 8.13763 2.86263V3.79688H15.8626V2.86263C15.8626 2.56329 15.9665 2.31088 16.1741 2.10538C16.3816 1.89971 16.635 1.79688 16.9344 1.79688C17.2337 1.79688 17.4861 1.89971 17.6916 2.10538C17.8973 2.31088 18.0001 2.56329 18.0001 2.86263V3.79688H18.9284C19.558 3.79688 20.0946 4.01862 20.5381 4.46212C20.9816 4.90562 21.2034 5.44221 21.2034 6.07188V10.5854C21.2034 10.9047 21.0936 11.1741 20.8741 11.3936C20.6545 11.6131 20.385 11.7229 20.0659 11.7229C19.7467 11.7229 19.4773 11.6131 19.2576 11.3936C19.0381 11.1741 18.9284 10.9047 18.9284 10.5854V10.0001H5.07188V19.9284H10.8419C11.1625 19.9284 11.4313 20.0381 11.6481 20.2576C11.865 20.4773 11.9734 20.7467 11.9734 21.0659C11.9734 21.385 11.865 21.6545 11.6481 21.8741C11.4313 22.0936 11.1625 22.2034 10.8419 22.2034H5.07188ZM18.1076 23.0001C16.7243 23.0001 15.5451 22.5126 14.5701 21.5376C13.5951 20.5626 13.1076 19.3835 13.1076 18.0001C13.1076 16.6168 13.5951 15.4376 14.5701 14.4626C15.5451 13.4876 16.7243 13.0001 18.1076 13.0001C19.491 13.0001 20.6701 13.4876 21.6451 14.4626C22.6201 15.4376 23.1076 16.6168 23.1076 18.0001C23.1076 19.3835 22.6201 20.5626 21.6451 21.5376C20.6701 22.5126 19.491 23.0001 18.1076 23.0001ZM18.6556 17.7821V15.4941C18.6556 15.3496 18.6014 15.2232 18.4929 15.1149C18.3842 15.0065 18.2575 14.9524 18.1129 14.9524C17.9682 14.9524 17.8409 15.0065 17.7309 15.1149C17.6209 15.2232 17.5659 15.3496 17.5659 15.4941V17.7394C17.5659 17.8925 17.5939 18.0387 17.6499 18.1779C17.7059 18.3172 17.7899 18.4425 17.9019 18.5539L19.4029 20.0551C19.5109 20.163 19.6375 20.2159 19.7826 20.2139C19.928 20.2119 20.0546 20.1566 20.1626 20.0481C20.2706 19.9396 20.3246 19.813 20.3246 19.6684C20.3246 19.5235 20.2706 19.3972 20.1626 19.2894L18.6556 17.7821Z" fill="black"/>
</svg>
