<svg width="24" height="24" viewBox="0 0 24 24" fill="none" xmlns="http://www.w3.org/2000/svg">
<path d="M2.9375 10.4488V5.93634C2.9375 5.65218 3.03333 5.41401 3.225 5.22184C3.41667 5.02968 3.65375 4.93359 3.93625 4.93359H7.2505C7.53383 4.93359 7.77133 5.02968 7.963 5.22184C8.15467 5.41401 8.2505 5.65218 8.2505 5.93634V10.4488C8.2505 10.7328 8.15467 10.971 7.963 11.1633C7.77133 11.3555 7.53383 11.4516 7.2505 11.4516H3.93625C3.65375 11.4516 3.41667 11.3555 3.225 11.1633C3.03333 10.971 2.9375 10.7328 2.9375 10.4488ZM10.3403 11.4516C10.0569 11.4516 9.81942 11.3555 9.62775 11.1633C9.43608 10.971 9.34025 10.7328 9.34025 10.4488V5.93634C9.34025 5.65218 9.43608 5.41401 9.62775 5.22184C9.81942 5.02968 10.0569 4.93359 10.3403 4.93359H13.669C13.9505 4.93359 14.1871 5.02968 14.3788 5.22184C14.5704 5.41401 14.6663 5.65218 14.6663 5.93634V10.4488C14.6663 10.7328 14.5704 10.971 14.3788 11.1633C14.1871 11.3555 13.9505 11.4516 13.669 11.4516H10.3403ZM16.756 11.4516C16.4727 11.4516 16.2352 11.3555 16.0435 11.1633C15.8518 10.971 15.756 10.7328 15.756 10.4488V5.93634C15.756 5.65218 15.8518 5.41401 16.0435 5.22184C16.2352 5.02968 16.4727 4.93359 16.756 4.93359H20.0703C20.3528 4.93359 20.5898 5.02968 20.7815 5.22184C20.9732 5.41401 21.069 5.65218 21.069 5.93634V10.4488C21.069 10.7328 20.9732 10.971 20.7815 11.1633C20.5898 11.3555 20.3528 11.4516 20.0703 11.4516H16.756ZM7.2505 19.0651H3.93625C3.65375 19.0651 3.41667 18.969 3.225 18.7768C3.03333 18.5847 2.9375 18.3465 2.9375 18.0623V13.5498C2.9375 13.2658 3.03333 13.0277 3.225 12.8353C3.41667 12.6432 3.65375 12.5471 3.93625 12.5471H7.2505C7.53383 12.5471 7.77133 12.6432 7.963 12.8353C8.15467 13.0277 8.2505 13.2658 8.2505 13.5498V18.0623C8.2505 18.3465 8.15467 18.5847 7.963 18.7768C7.77133 18.969 7.53383 19.0651 7.2505 19.0651ZM10.3403 19.0651C10.0569 19.0651 9.81942 18.969 9.62775 18.7768C9.43608 18.5847 9.34025 18.3465 9.34025 18.0623V13.5498C9.34025 13.2658 9.43608 13.0277 9.62775 12.8353C9.81942 12.6432 10.0569 12.5471 10.3403 12.5471H13.669C13.9505 12.5471 14.1871 12.6432 14.3788 12.8353C14.5704 13.0277 14.6663 13.2658 14.6663 13.5498V18.0623C14.6663 18.3465 14.5704 18.5847 14.3788 18.7768C14.1871 18.969 13.9505 19.0651 13.669 19.0651H10.3403ZM16.756 19.0651C16.4727 19.0651 16.2352 18.969 16.0435 18.7768C15.8518 18.5847 15.756 18.3465 15.756 18.0623V13.5498C15.756 13.2658 15.8518 13.0277 16.0435 12.8353C16.2352 12.6432 16.4727 12.5471 16.756 12.5471H20.0703C20.3528 12.5471 20.5898 12.6432 20.7815 12.8353C20.9732 13.0277 21.069 13.2658 21.069 13.5498V18.0623C21.069 18.3465 20.9732 18.5847 20.7815 18.7768C20.5898 18.969 20.3528 19.0651 20.0703 19.0651H16.756Z" fill="black"/>
</svg>
