<svg width="20" height="20" viewBox="0 0 20 20" fill="none" xmlns="http://www.w3.org/2000/svg">
<path d="M7.60344 11.7875L14.5685 4.82932C14.8221 4.57592 15.1405 4.44922 15.5234 4.44922C15.9064 4.44922 16.2248 4.57592 16.4784 4.82932C16.7317 5.08292 16.8584 5.40122 16.8584 5.78423C16.8584 6.16723 16.7317 6.48552 16.4784 6.73912L8.56553 14.6592C8.29193 14.9325 7.97123 15.0692 7.60344 15.0692C7.23563 15.0692 6.91493 14.9325 6.64133 14.6592L3.52854 11.5391C3.27513 11.2856 3.14844 10.9672 3.14844 10.5843C3.14844 10.2012 3.27513 9.88293 3.52854 9.62932C3.78214 9.37592 4.10044 9.24923 4.48343 9.24923C4.86643 9.24923 5.18473 9.37592 5.43834 9.62932L7.60344 11.7875Z" fill="white"/>
</svg>
