<svg width="20" height="20" viewBox="0 0 20 20" fill="none" xmlns="http://www.w3.org/2000/svg">
<path d="M8.33594 11.1693L13.1728 6.3372C13.3489 6.16123 13.57 6.07324 13.8359 6.07324C14.1019 6.07324 14.323 6.16123 14.4991 6.3372C14.675 6.51331 14.763 6.73435 14.763 7.00033C14.763 7.2663 14.675 7.48734 14.4991 7.66345L9.00406 13.1635C8.81406 13.3533 8.59135 13.4482 8.33594 13.4482C8.08052 13.4482 7.85781 13.3533 7.66781 13.1635L5.50615 10.9968C5.33017 10.8207 5.24219 10.5996 5.24219 10.3337C5.24219 10.0677 5.33017 9.84665 5.50615 9.67053C5.68226 9.49456 5.9033 9.40658 6.16927 9.40658C6.43524 9.40658 6.65628 9.49456 6.8324 9.67053L8.33594 11.1693Z" fill="white"/>
</svg>
