<svg width="24" height="24" viewBox="0 0 24 24" fill="none" xmlns="http://www.w3.org/2000/svg">
<path d="M12.5969 12.0008L8.69688 8.10078C8.51354 7.91745 8.42188 7.68411 8.42188 7.40078C8.42188 7.11745 8.51354 6.88411 8.69688 6.70078C8.88021 6.51745 9.11354 6.42578 9.39688 6.42578C9.68021 6.42578 9.91354 6.51745 10.0969 6.70078L14.6969 11.3008C14.7969 11.4008 14.8677 11.5091 14.9094 11.6258C14.951 11.7424 14.9719 11.8674 14.9719 12.0008C14.9719 12.1341 14.951 12.2591 14.9094 12.3758C14.8677 12.4924 14.7969 12.6008 14.6969 12.7008L10.0969 17.3008C9.91354 17.4841 9.68021 17.5758 9.39688 17.5758C9.11354 17.5758 8.88021 17.4841 8.69688 17.3008C8.51354 17.1174 8.42188 16.8841 8.42188 16.6008C8.42188 16.3174 8.51354 16.0841 8.69688 15.9008L12.5969 12.0008Z" fill="black"/>
</svg>
