<svg width="24" height="24" viewBox="0 0 24 24" fill="none" xmlns="http://www.w3.org/2000/svg">
<path d="M6.52422 20.2001C4.94089 20.2001 3.59522 19.6584 2.48722 18.575C1.37855 17.4917 0.824219 16.1667 0.824219 14.6C0.824219 13.25 1.21589 12.05 1.99922 11C2.78255 9.95005 3.82422 9.27505 5.12422 8.97505C5.55755 7.42505 6.41189 6.17505 7.68722 5.22505C8.96189 4.27505 10.3992 3.80005 11.9992 3.80005C13.9659 3.80005 15.6409 4.47905 17.0242 5.83705C18.4076 7.19572 19.1242 8.85838 19.1742 10.825C20.3409 11.0084 21.2992 11.5417 22.0492 12.425C22.7992 13.3084 23.1742 14.3417 23.1742 15.525C23.1742 16.825 22.7199 17.929 21.8112 18.837C20.9032 19.7457 19.7992 20.2001 18.4992 20.2001H6.52422Z" fill="white"/>
</svg>
