<svg width="24" height="24" viewBox="0 0 24 24" fill="none" xmlns="http://www.w3.org/2000/svg">
<path d="M4.93606 12.0203L8.71556 15.7996C8.93073 16.0149 9.03731 16.2811 9.03531 16.5983C9.03331 16.9155 8.92473 17.1817 8.70956 17.3971C8.4944 17.6122 8.22915 17.7188 7.91381 17.7168C7.59865 17.7148 7.33348 17.6082 7.11831 17.3971L2.51831 12.8031C2.40631 12.6911 2.32448 12.5667 2.27281 12.4301C2.22115 12.2936 2.19531 12.1506 2.19531 12.0013C2.19531 11.852 2.22115 11.7091 2.27281 11.5726C2.32448 11.4359 2.40631 11.3116 2.51831 11.1996L7.11831 6.59956C7.34615 6.37173 7.61548 6.25781 7.92631 6.25781C8.23731 6.25781 8.50673 6.37173 8.73456 6.59956C8.9624 6.82756 9.07631 7.09798 9.07631 7.41081C9.07631 7.72365 8.9624 7.99406 8.73456 8.22206L4.93606 12.0203ZM19.0711 11.9823L15.2916 8.20306C15.0764 7.98773 14.9698 7.72148 14.9718 7.40431C14.9738 7.08715 15.0824 6.8209 15.2976 6.60556C15.5127 6.3904 15.778 6.28381 16.0933 6.28581C16.4085 6.28781 16.6736 6.3944 16.8888 6.60556L21.4888 11.1996C21.6008 11.3116 21.6826 11.4359 21.7343 11.5726C21.786 11.7091 21.8118 11.852 21.8118 12.0013C21.8118 12.1506 21.786 12.2936 21.7343 12.4301C21.6826 12.5667 21.6008 12.6911 21.4888 12.8031L16.8888 17.4031C16.661 17.6309 16.3948 17.7416 16.0903 17.7353C15.7858 17.729 15.5196 17.6118 15.2916 17.3838C15.0637 17.156 14.9498 16.8856 14.9498 16.5728C14.9498 16.26 15.0637 15.9896 15.2916 15.7616L19.0711 11.9823Z" fill="black"/>
</svg>
