<svg width="24" height="24" viewBox="0 0 24 24" fill="none" xmlns="http://www.w3.org/2000/svg">
<path d="M4.07187 20.2034C3.44221 20.2034 2.90563 19.9816 2.46213 19.5381C2.01863 19.0946 1.79688 18.558 1.79688 17.9284V6.07187C1.79688 5.44221 2.01863 4.90562 2.46213 4.46212C2.90563 4.01862 3.44221 3.79688 4.07187 3.79688H19.9284C20.558 3.79688 21.0946 4.01862 21.5381 4.46212C21.9816 4.90562 22.2034 5.44221 22.2034 6.07187V17.9284C22.2034 18.558 21.9816 19.0946 21.5381 19.5381C21.0946 19.9816 20.558 20.2034 19.9284 20.2034H4.07187ZM4.07187 11.9821H19.9284V7.98213H4.07187V11.9821Z" fill="black"/>
</svg>
