<svg width="24" height="24" viewBox="0 0 24 24" fill="none" xmlns="http://www.w3.org/2000/svg">
<path d="M12.1483 16.1039C12.7063 16.1039 13.1711 15.9787 13.5428 15.7284C13.9146 15.4779 14.1006 15.0857 14.1006 14.5517C14.1006 14.0843 13.9033 13.7046 13.5088 13.4124C13.1145 13.1204 12.4182 12.7947 11.4201 12.4354C10.3849 12.0694 9.63115 11.6387 9.15881 11.1434C8.68665 10.6482 8.45056 10.001 8.45056 9.20166C8.45056 8.51832 8.68306 7.89449 9.14806 7.33016C9.61306 6.76582 10.2639 6.39441 11.1006 6.21591V5.9244C11.1006 5.67524 11.1921 5.45916 11.3751 5.27616C11.5579 5.09316 11.774 5.00166 12.0233 5.00166C12.2726 5.00166 12.4887 5.09316 12.6716 5.27616C12.8546 5.45916 12.9461 5.67524 12.9461 5.9244V6.21591C13.4294 6.25707 13.8742 6.42249 14.2806 6.71216C14.6869 7.00182 15.0151 7.35899 15.2651 7.78366C15.3857 7.97899 15.3931 8.18682 15.2871 8.40715C15.1812 8.62732 15.0056 8.78307 14.7603 8.87441C14.5356 8.96174 14.31 8.96907 14.0833 8.89641C13.8566 8.82374 13.6707 8.69382 13.5256 8.50666C13.3549 8.31049 13.1456 8.15191 12.8976 8.03091C12.6496 7.90991 12.3546 7.84941 12.0126 7.84941C11.4651 7.84941 11.0421 7.96749 10.7438 8.20366C10.4453 8.43966 10.2961 8.76232 10.2961 9.17166C10.2961 9.59316 10.4837 9.92891 10.8591 10.1789C11.2346 10.4289 11.9203 10.7206 12.9163 11.0539C14.1281 11.4872 14.9361 12.0005 15.3401 12.5937C15.7441 13.187 15.9461 13.8397 15.9461 14.5517C15.9461 15.047 15.8627 15.481 15.6961 15.8537C15.5294 16.2262 15.3076 16.5426 15.0306 16.8029C14.7536 17.0632 14.4317 17.2716 14.0651 17.4279C13.6984 17.5842 13.3087 17.7041 12.8961 17.7874V18.0789C12.8961 18.3281 12.8046 18.5442 12.6216 18.7272C12.4387 18.9102 12.2226 19.0017 11.9733 19.0017C11.724 19.0017 11.5079 18.9102 11.3251 18.7272C11.1421 18.5442 11.0506 18.3281 11.0506 18.0789V17.7374C10.4331 17.6041 9.89631 17.3541 9.44031 16.9874C8.98448 16.6207 8.62123 16.1482 8.35056 15.5697C8.24256 15.3243 8.24773 15.0873 8.36606 14.8587C8.48423 14.6302 8.66598 14.4702 8.91131 14.3789C9.13598 14.2916 9.36165 14.2957 9.58831 14.3914C9.81498 14.4871 9.98856 14.6408 10.1091 14.8527C10.3386 15.2782 10.6285 15.5931 10.9788 15.7974C11.3291 16.0017 11.719 16.1039 12.1483 16.1039ZM11.9923 23.1869C10.1256 23.1869 8.40898 22.7699 6.84231 21.9359C5.27565 21.1019 3.98431 19.9865 2.96831 18.5897V20.0974C2.96831 20.4046 2.86356 20.663 2.65406 20.8727C2.4444 21.0822 2.18598 21.1869 1.87881 21.1869C1.57148 21.1869 1.31306 21.0822 1.10356 20.8727C0.893896 20.663 0.789062 20.4046 0.789062 20.0974V16.0494C0.789062 15.7302 0.898813 15.4609 1.11831 15.2414C1.33798 15.0217 1.6074 14.9119 1.92656 14.9119H5.97431C6.28165 14.9119 6.54006 15.0167 6.74956 15.2264C6.95923 15.4361 7.06406 15.6945 7.06406 16.0017C7.06406 16.3088 6.95923 16.5672 6.74956 16.7769C6.54006 16.9866 6.28165 17.0914 5.97431 17.0914H4.58906C5.38906 18.2674 6.43723 19.2132 7.73356 19.9287C9.03006 20.644 10.4496 21.0017 11.9923 21.0017C14.3105 21.0017 16.3164 20.2352 18.0101 18.7024C19.7037 17.1697 20.6791 15.2677 20.9363 12.9962C20.9736 12.7097 21.1023 12.4802 21.3223 12.3079C21.5421 12.1356 21.7974 12.0494 22.0881 12.0494C22.3912 12.0494 22.6518 12.1419 22.8698 12.3269C23.0876 12.5119 23.1799 12.7393 23.1466 13.0092C23.0181 14.4458 22.6365 15.7817 22.0018 17.0167C21.3673 18.2517 20.5494 19.3262 19.5481 20.2404C18.5467 21.1547 17.4016 21.8744 16.1128 22.3994C14.8238 22.9244 13.4503 23.1869 11.9923 23.1869ZM11.9983 3.00166C9.68015 3.00166 7.67423 3.76807 5.98056 5.3009C4.2869 6.83357 3.31148 8.73565 3.05431 11.0072C3.01698 11.2937 2.88831 11.5231 2.66831 11.6954C2.44848 11.8677 2.19323 11.9539 1.90256 11.9539C1.5954 11.9539 1.33481 11.8574 1.12081 11.6644C0.906979 11.4714 0.816729 11.236 0.850063 10.9582C0.978563 9.53749 1.35815 8.21266 1.98881 6.98366C2.61948 5.75466 3.4334 4.68299 4.43056 3.76866C5.4279 2.85449 6.57206 2.13391 7.86306 1.60691C9.1539 1.07991 10.5323 0.816406 11.9983 0.816406C13.865 0.816406 15.5836 1.23541 17.1543 2.07341C18.725 2.91141 20.0143 4.02482 21.0223 5.41366V3.90591C21.0223 3.59874 21.1281 3.34032 21.3396 3.13065C21.5512 2.92115 21.8106 2.81641 22.1178 2.81641C22.4251 2.81641 22.6836 2.92115 22.8931 3.13065C23.1027 3.34032 23.2076 3.59874 23.2076 3.90591V7.95391C23.2076 8.27307 23.0978 8.54241 22.8783 8.76191C22.6586 8.98157 22.3892 9.09141 22.0701 9.09141H18.0223C17.715 9.09141 17.4566 8.98657 17.2471 8.77691C17.0374 8.56724 16.9326 8.30882 16.9326 8.00166C16.9326 7.69449 17.0374 7.43607 17.2471 7.22641C17.4566 7.01674 17.715 6.9119 18.0223 6.9119H19.4076C18.5956 5.7239 17.5374 4.77524 16.2331 4.06591C14.9287 3.35641 13.5171 3.00166 11.9983 3.00166Z" fill="black"/>
</svg>
