<svg width="24" height="24" viewBox="0 0 24 24" fill="none" xmlns="http://www.w3.org/2000/svg">
<path d="M9 13H15C15.2833 13 15.5208 12.9042 15.7125 12.7125C15.9042 12.5208 16 12.2833 16 12C16 11.7167 15.9042 11.4792 15.7125 11.2875C15.5208 11.0958 15.2833 11 15 11H9C8.71667 11 8.47917 11.0958 8.2875 11.2875C8.09583 11.4792 8 11.7167 8 12C8 12.2833 8.09583 12.5208 8.2875 12.7125C8.47917 12.9042 8.71667 13 9 13ZM9 16H15C15.2833 16 15.5208 15.9042 15.7125 15.7125C15.9042 15.5208 16 15.2833 16 15C16 14.7167 15.9042 14.4792 15.7125 14.2875C15.5208 14.0958 15.2833 14 15 14H9C8.71667 14 8.47917 14.0958 8.2875 14.2875C8.09583 14.4792 8 14.7167 8 15C8 15.2833 8.09583 15.5208 8.2875 15.7125C8.47917 15.9042 8.71667 16 9 16ZM9 19H12C12.2833 19 12.5208 18.9042 12.7125 18.7125C12.9042 18.5208 13 18.2833 13 18C13 17.7167 12.9042 17.4792 12.7125 17.2875C12.5208 17.0958 12.2833 17 12 17H9C8.71667 17 8.47917 17.0958 8.2875 17.2875C8.09583 17.4792 8 17.7167 8 18C8 18.2833 8.09583 18.5208 8.2875 18.7125C8.47917 18.9042 8.71667 19 9 19ZM6 22C5.45 22 4.97917 21.8042 4.5875 21.4125C4.19583 21.0208 4 20.55 4 20V4C4 3.45 4.19583 2.97917 4.5875 2.5875C4.97917 2.19583 5.45 2 6 2H13.175C13.4417 2 13.6958 2.05 13.9375 2.15C14.1792 2.25 14.3917 2.39167 14.575 2.575L19.425 7.425C19.6083 7.60833 19.75 7.82083 19.85 8.0625C19.95 8.30417 20 8.55833 20 8.825V20C20 20.55 19.8042 21.0208 19.4125 21.4125C19.0208 21.8042 18.55 22 18 22H6ZM13 8C13 8.28333 13.0958 8.52083 13.2875 8.7125C13.4792 8.90417 13.7167 9 14 9H18L13 4V8Z" fill="black"/>
</svg>
