<svg width="24" height="24" viewBox="0 0 24 24" fill="none" xmlns="http://www.w3.org/2000/svg">
<path d="M4.93437 19.9284H19.0659C19.385 19.9284 19.6545 20.0381 19.8741 20.2576C20.0936 20.4773 20.2034 20.7467 20.2034 21.0659C20.2034 21.385 20.0936 21.6545 19.8741 21.8741C19.6545 22.0936 19.385 22.2034 19.0659 22.2034H4.93437C4.61521 22.2034 4.34579 22.0936 4.12612 21.8741C3.90662 21.6545 3.79688 21.385 3.79688 21.0659C3.79688 20.7467 3.90662 20.4773 4.12612 20.2576C4.34579 20.0381 4.61521 19.9284 4.93437 19.9284ZM12.0001 17.2256C11.8301 17.2256 11.6664 17.1893 11.5089 17.1166C11.3512 17.044 11.2144 16.933 11.0984 16.7839L5.99913 10.2844C5.70913 9.90721 5.66779 9.50521 5.87512 9.07838C6.08229 8.65154 6.42412 8.43813 6.90062 8.43813H8.72512V2.93438C8.72512 2.61521 8.83488 2.34579 9.05438 2.12612C9.27404 1.90662 9.54346 1.79688 9.86262 1.79688H14.1376C14.4568 1.79688 14.7262 1.90662 14.9459 2.12612C15.1654 2.34579 15.2751 2.61521 15.2751 2.93438V8.43813H17.0996C17.5761 8.43813 17.918 8.65154 18.1251 9.07838C18.3325 9.50521 18.2911 9.90721 18.0011 10.2844L12.9019 16.7839C12.7859 16.933 12.649 17.044 12.4914 17.1166C12.3339 17.1893 12.1701 17.2256 12.0001 17.2256Z" fill="black"/>
</svg>
