<svg width="24" height="24" viewBox="0 0 24 24" fill="none" xmlns="http://www.w3.org/2000/svg">
<path d="M6.07187 22.2034C5.44221 22.2034 4.90562 21.9816 4.46212 21.5381C4.01863 21.0946 3.79688 20.558 3.79688 19.9284V4.07188C3.79688 3.44221 4.01863 2.90562 4.46212 2.46212C4.90562 2.01862 5.44221 1.79688 6.07187 1.79688H13.1451C13.4478 1.79688 13.7369 1.85388 14.0124 1.96788C14.2879 2.08171 14.5313 2.24429 14.7426 2.45562L19.5446 7.25762C19.756 7.46896 19.9185 7.71238 20.0324 7.98788C20.1464 8.26338 20.2034 8.55246 20.2034 8.85513V19.9284C20.2034 20.558 19.9816 21.0946 19.5381 21.5381C19.0946 21.9816 18.558 22.2034 17.9284 22.2034H6.07187ZM12.9284 7.93438C12.9284 8.25354 13.0381 8.52296 13.2576 8.74263C13.4773 8.96213 13.7467 9.07188 14.0659 9.07188H17.9284L12.9284 4.07188V7.93438Z" fill="black"/>
</svg>
