<svg width="24" height="24" viewBox="0 0 24 24" fill="none" xmlns="http://www.w3.org/2000/svg">
<path d="M8.90975 20.1869C8.33292 20.1869 7.83917 19.9816 7.4285 19.5709C7.01783 19.1602 6.8125 18.6665 6.8125 18.0897C6.8125 17.5128 7.01783 17.0207 7.4285 16.6132C7.83917 16.2055 8.33292 16.0017 8.90975 16.0017C9.48658 16.0017 9.97875 16.2055 10.3863 16.6132C10.7939 17.0207 10.9978 17.5128 10.9978 18.0897C10.9978 18.6665 10.7939 19.1602 10.3863 19.5709C9.97875 19.9816 9.48658 20.1869 8.90975 20.1869ZM15.09 20.1869C14.5143 20.1869 14.0218 19.9816 13.6123 19.5709C13.2026 19.1602 12.9978 18.6665 12.9978 18.0897C12.9978 17.5128 13.2023 17.0207 13.6115 16.6132C14.0208 16.2055 14.5128 16.0017 15.0875 16.0017C15.6638 16.0017 16.1572 16.2055 16.5675 16.6132C16.9778 17.0207 17.183 17.5128 17.183 18.0897C17.183 18.6665 16.9781 19.1602 16.5683 19.5709C16.1584 19.9816 15.6657 20.1869 15.09 20.1869ZM8.90975 14.0914C8.33292 14.0914 7.83917 13.8867 7.4285 13.4774C7.01783 13.0682 6.8125 12.5763 6.8125 12.0017C6.8125 11.4238 7.01783 10.9311 7.4285 10.5234C7.83917 10.1157 8.33292 9.9119 8.90975 9.9119C9.48658 9.9119 9.97875 10.1157 10.3863 10.5234C10.7939 10.9311 10.9978 11.4228 10.9978 11.9987C10.9978 12.5745 10.7939 13.0672 10.3863 13.4769C9.97875 13.8866 9.48658 14.0914 8.90975 14.0914ZM15.09 14.0914C14.5143 14.0914 14.0218 13.8867 13.6123 13.4774C13.2026 13.0682 12.9978 12.5763 12.9978 12.0017C12.9978 11.4238 13.2023 10.9311 13.6115 10.5234C14.0208 10.1157 14.5128 9.9119 15.0875 9.9119C15.6638 9.9119 16.1572 10.1157 16.5675 10.5234C16.9778 10.9311 17.183 11.4228 17.183 11.9987C17.183 12.5745 16.9781 13.0672 16.5683 13.4769C16.1584 13.8866 15.6657 14.0914 15.09 14.0914ZM8.90975 8.00166C8.33292 8.00166 7.83917 7.79707 7.4285 7.38791C7.01783 6.97857 6.8125 6.48657 6.8125 5.9119C6.8125 5.33557 7.01783 4.84224 7.4285 4.43191C7.83917 4.02157 8.33292 3.81641 8.90975 3.81641C9.48658 3.81641 9.97875 4.02132 10.3863 4.43116C10.7939 4.84099 10.9978 5.33374 10.9978 5.90941C10.9978 6.48507 10.7939 6.97766 10.3863 7.38716C9.97875 7.79682 9.48658 8.00166 8.90975 8.00166ZM15.09 8.00166C14.5143 8.00166 14.0218 7.79707 13.6123 7.38791C13.2026 6.97857 12.9978 6.48657 12.9978 5.9119C12.9978 5.33557 13.2023 4.84224 13.6115 4.43191C14.0208 4.02157 14.5128 3.81641 15.0875 3.81641C15.6638 3.81641 16.1572 4.02132 16.5675 4.43116C16.9778 4.84099 17.183 5.33374 17.183 5.90941C17.183 6.48507 16.9781 6.97766 16.5683 7.38716C16.1584 7.79682 15.6657 8.00166 15.09 8.00166Z" fill="black"/>
</svg>
