<svg width="14" height="14" viewBox="0 0 14 14" fill="none" xmlns="http://www.w3.org/2000/svg">
<path d="M2.97279 11.7646C2.82168 11.7646 2.69501 11.7134 2.59279 11.6112C2.49056 11.509 2.43945 11.3823 2.43945 11.2312V9.93788C2.43945 9.79566 2.46612 9.66011 2.51945 9.53122C2.57279 9.40233 2.64834 9.289 2.74612 9.19122L9.47945 2.47122C9.58612 2.37344 9.7039 2.29788 9.83279 2.24455C9.96168 2.19122 10.0972 2.16455 10.2395 2.16455C10.3817 2.16455 10.5195 2.19122 10.6528 2.24455C10.7861 2.29788 10.9017 2.37788 10.9995 2.48455L11.7328 3.23122C11.8395 3.329 11.9172 3.44455 11.9661 3.57788C12.015 3.71122 12.0395 3.84455 12.0395 3.97788C12.0395 4.12011 12.015 4.25566 11.9661 4.38455C11.9172 4.51344 11.8395 4.63122 11.7328 4.73788L5.01279 11.4579C4.91501 11.5557 4.80168 11.6312 4.67279 11.6846C4.5439 11.7379 4.40834 11.7646 4.26612 11.7646H2.97279ZM10.2261 4.72455L10.9728 3.97788L10.2261 3.23122L9.47945 3.97788L10.2261 4.72455Z" fill="#212121"/>
</svg>
