<svg width="24" height="24" viewBox="0 0 24 24" fill="none" xmlns="http://www.w3.org/2000/svg">
<path d="M4.93438 14.4426C4.61521 14.4426 4.34579 14.3328 4.12612 14.1131C3.90662 13.8936 3.79688 13.6243 3.79688 13.3051C3.79688 12.9858 3.90662 12.7164 4.12612 12.4969C4.34579 12.2774 4.61521 12.1676 4.93438 12.1676H10.0241C10.3433 12.1676 10.6126 12.2774 10.8321 12.4969C11.0518 12.7164 11.1616 12.9858 11.1616 13.3051C11.1616 13.6243 11.0518 13.8936 10.8321 14.1131C10.6126 14.3328 10.3433 14.4426 10.0241 14.4426H4.93438ZM4.93438 10.2571C4.61521 10.2571 4.34579 10.1474 4.12612 9.92787C3.90662 9.70821 3.79688 9.43879 3.79688 9.11963C3.79688 8.80046 3.90662 8.53113 4.12612 8.31163C4.34579 8.09196 4.61521 7.98213 4.93438 7.98213H13.9344C14.2535 7.98213 14.523 8.09196 14.7426 8.31163C14.9621 8.53113 15.0719 8.80046 15.0719 9.11963C15.0719 9.43879 14.9621 9.70821 14.7426 9.92787C14.523 10.1474 14.2535 10.2571 13.9344 10.2571H4.93438ZM4.93438 6.07187C4.61521 6.07187 4.34579 5.96213 4.12612 5.74263C3.90662 5.52296 3.79688 5.25354 3.79688 4.93437C3.79688 4.61521 3.90662 4.34579 4.12612 4.12612C4.34579 3.90662 4.61521 3.79688 4.93438 3.79688H13.9344C14.2535 3.79688 14.523 3.90662 14.7426 4.12612C14.9621 4.34579 15.0719 4.61521 15.0719 4.93437C15.0719 5.25354 14.9621 5.52296 14.7426 5.74263C14.523 5.96213 14.2535 6.07187 13.9344 6.07187H4.93438ZM12.9644 19.0659V17.4399C12.9644 17.2865 12.9933 17.1404 13.0511 17.0014C13.1091 16.8625 13.1941 16.7371 13.3061 16.6251L18.5251 11.4251C18.6871 11.2631 18.8667 11.1458 19.0639 11.0731C19.2612 11.0006 19.4595 10.9644 19.6589 10.9644C19.8747 10.9644 20.0813 11.0048 20.2786 11.0856C20.476 11.1666 20.6556 11.2881 20.8176 11.4501L21.7426 12.3751C21.8878 12.5371 22.0009 12.7167 22.0819 12.9139C22.1629 13.1112 22.2034 13.3095 22.2034 13.5089C22.2034 13.712 22.167 13.9155 22.0944 14.1191C22.0217 14.3228 21.9045 14.5056 21.7426 14.6676L16.5426 19.8676C16.4306 19.9795 16.3051 20.0634 16.1661 20.1194C16.0271 20.1754 15.881 20.2034 15.7279 20.2034H14.1019C13.7825 20.2034 13.5131 20.0936 13.2936 19.8741C13.0741 19.6545 12.9644 19.385 12.9644 19.0659ZM19.7186 14.4241L20.5839 13.5089L19.6589 12.5839L18.7686 13.4741L19.7186 14.4241ZM14.5839 18.5839H15.5339L18.5349 15.5576L18.0849 15.0826L17.6099 14.6326L14.5839 17.6339V18.5839ZM14.5839 18.5839V17.6339L17.6099 14.6326L18.5349 15.5576L15.5339 18.5839H14.5839Z" fill="white"/>
</svg>
