<svg width="25" height="25" viewBox="0 0 25 25" fill="none" xmlns="http://www.w3.org/2000/svg">
<path d="M10.2105 20.5C8.57721 20.5 7.18555 19.925 6.03555 18.775C4.88555 17.625 4.31055 16.2333 4.31055 14.6C4.31055 13.8333 4.45221 13.0875 4.73555 12.3625C5.01888 11.6375 5.45221 10.9833 6.03555 10.4L10.2105 6.225C10.7939 5.64167 11.448 5.20833 12.173 4.925C12.898 4.64167 13.6439 4.5 14.4105 4.5C16.0439 4.5 17.4355 5.075 18.5855 6.225C19.7355 7.375 20.3105 8.76667 20.3105 10.4C20.3105 11.1667 20.1689 11.9125 19.8855 12.6375C19.6022 13.3625 19.1689 14.0167 18.5855 14.6L14.4105 18.775C13.8272 19.3583 13.173 19.7917 12.448 20.075C11.723 20.3583 10.9772 20.5 10.2105 20.5Z" fill="white"/>
</svg>
