<svg width="24" height="24" viewBox="0 0 24 24" fill="none" xmlns="http://www.w3.org/2000/svg">
<path d="M8.90762 21.2022H5.00012C4.39429 21.2022 3.87562 20.9864 3.44412 20.5549C3.01262 20.1234 2.79687 19.6047 2.79688 18.9989V15.0914C3.55704 15.0914 4.21721 14.8462 4.77737 14.3557C5.33754 13.8653 5.61762 13.2464 5.61762 12.4989C5.61762 11.7514 5.33754 11.1325 4.77737 10.6422C4.21721 10.1517 3.55704 9.90641 2.79688 9.90641V5.99891C2.79688 5.39307 3.01262 4.87441 3.44412 4.44291C3.87562 4.01141 4.39429 3.79566 5.00012 3.79566H8.82688C8.87071 3.07166 9.14821 2.46707 9.65938 1.98191C10.1705 1.49657 10.7841 1.25391 11.5001 1.25391C12.2161 1.25391 12.8297 1.49657 13.3409 1.98191C13.852 2.46707 14.1295 3.07166 14.1734 3.79566H18.0001C18.606 3.79566 19.1246 4.01141 19.5561 4.44291C19.9876 4.87441 20.2034 5.39307 20.2034 5.99891V9.82566C20.9274 9.86949 21.532 10.147 22.0171 10.6582C22.5025 11.1693 22.7451 11.7829 22.7451 12.4989C22.7451 13.2149 22.5025 13.8285 22.0171 14.3397C21.532 14.8508 20.9274 15.1283 20.2034 15.1722V18.9989C20.2034 19.6047 19.9876 20.1234 19.5561 20.5549C19.1246 20.9864 18.606 21.2022 18.0001 21.2022H14.0926C14.0926 20.3928 13.8405 19.7054 13.3364 19.1399C12.8324 18.5746 12.2203 18.2919 11.5001 18.2919C10.78 18.2919 10.1679 18.5748 9.66387 19.1407C9.15971 19.7067 8.90762 20.3938 8.90762 21.2022Z" fill="black"/>
</svg>
