<svg width="24" height="24" viewBox="0 0 24 24" fill="none" xmlns="http://www.w3.org/2000/svg">
<path d="M1.99805 16.2437V7.75469C1.99805 7.41485 2.11205 7.14027 2.34005 6.93094C2.56788 6.72177 2.83305 6.61719 3.13555 6.61719C3.23488 6.61719 3.34055 6.62852 3.45255 6.65119C3.56438 6.67369 3.66796 6.72027 3.7633 6.79094L10.1428 11.0607C10.3126 11.1725 10.44 11.3103 10.525 11.4739C10.61 11.6374 10.6525 11.8125 10.6525 11.9992C10.6525 12.1859 10.61 12.3609 10.525 12.5244C10.44 12.6881 10.3126 12.8259 10.1428 12.9377L3.7633 17.2074C3.66796 17.2781 3.56438 17.3247 3.45255 17.3472C3.34055 17.3699 3.23488 17.3812 3.13555 17.3812C2.83305 17.3812 2.56788 17.2766 2.34005 17.0674C2.11205 16.8581 1.99805 16.5835 1.99805 16.2437ZM12.4345 16.2437V7.75469C12.4345 7.41485 12.5485 7.14027 12.7763 6.93094C13.0043 6.72177 13.2695 6.61719 13.572 6.61719C13.6714 6.61719 13.777 6.62852 13.8888 6.65119C14.0008 6.67369 14.1045 6.72027 14.1998 6.79094L20.579 11.0607C20.749 11.1725 20.8765 11.3103 20.9615 11.4739C21.0464 11.6374 21.0888 11.8125 21.0888 11.9992C21.0888 12.1859 21.0464 12.3609 20.9615 12.5244C20.8765 12.6881 20.749 12.8259 20.579 12.9377L14.1998 17.2074C14.1045 17.2781 14.0008 17.3247 13.8888 17.3472C13.777 17.3699 13.6714 17.3812 13.572 17.3812C13.2695 17.3812 13.0043 17.2766 12.7763 17.0674C12.5485 16.8581 12.4345 16.5835 12.4345 16.2437Z" fill="black"/>
</svg>
