<svg width="20" height="21" viewBox="0 0 20 21" fill="none" xmlns="http://www.w3.org/2000/svg">
<path d="M7.99935 12.8581H11.9993L12.7285 14.8789C12.7841 15.0317 12.8813 15.1567 13.0202 15.2539C13.1591 15.3511 13.3118 15.3997 13.4785 15.3997C13.7563 15.3997 13.982 15.2852 14.1556 15.056C14.3292 14.8268 14.3605 14.5733 14.2493 14.2956L11.0827 5.92057C11.0132 5.76779 10.9091 5.64279 10.7702 5.54557C10.6313 5.44835 10.4785 5.39974 10.3118 5.39974H9.68685C9.52018 5.39974 9.3674 5.44835 9.22852 5.54557C9.08963 5.64279 8.98546 5.76779 8.91602 5.92057L5.74935 14.2956C5.63824 14.5595 5.66602 14.8095 5.83268 15.0456C5.99935 15.2817 6.22157 15.3997 6.49935 15.3997C6.6799 15.3997 6.83615 15.3511 6.9681 15.2539C7.10004 15.1567 7.20074 15.0247 7.27018 14.8581L7.99935 12.8581ZM8.49935 11.3997L9.95768 7.27474H10.041L11.4993 11.3997H8.49935ZM3.33268 18.7331C2.87435 18.7331 2.48199 18.5699 2.1556 18.2435C1.82921 17.9171 1.66602 17.5247 1.66602 17.0664V3.73307C1.66602 3.27474 1.82921 2.88238 2.1556 2.55599C2.48199 2.2296 2.87435 2.06641 3.33268 2.06641H16.666C17.1243 2.06641 17.5167 2.2296 17.8431 2.55599C18.1695 2.88238 18.3327 3.27474 18.3327 3.73307V17.0664C18.3327 17.5247 18.1695 17.9171 17.8431 18.2435C17.5167 18.5699 17.1243 18.7331 16.666 18.7331H3.33268Z" fill="white"/>
</svg>
