<svg width="24" height="24" viewBox="0 0 24 24" fill="none" xmlns="http://www.w3.org/2000/svg">
<path d="M5.99688 21.4777C5.67771 21.4777 5.40829 21.3679 5.18862 21.1484C4.96912 20.9288 4.85938 20.6594 4.85938 20.3402C4.85938 20.021 4.96912 19.7516 5.18862 19.5319C5.40829 19.3124 5.67771 19.2027 5.99688 19.2027H17.9969C18.316 19.2027 18.5855 19.3124 18.8051 19.5319C19.0246 19.7516 19.1344 20.021 19.1344 20.3402C19.1344 20.6594 19.0246 20.9288 18.8051 21.1484C18.5855 21.3679 18.316 21.4777 17.9969 21.4777H5.99688ZM11.9969 17.2984C10.2339 17.2984 8.85579 16.7574 7.86263 15.6754C6.86946 14.5936 6.37287 13.1522 6.37287 11.3512V4.42994C6.37287 4.0441 6.51404 3.71319 6.79638 3.43719C7.07854 3.16135 7.41263 3.02344 7.79863 3.02344C8.18446 3.02344 8.51529 3.16135 8.79112 3.43719C9.06712 3.71319 9.20512 4.0441 9.20512 4.42994V11.4652C9.20512 12.3905 9.44537 13.1379 9.92588 13.7074C10.4065 14.2768 11.0969 14.5614 11.9969 14.5614C12.8969 14.5614 13.5872 14.2768 14.0679 13.7074C14.5484 13.1379 14.7886 12.3905 14.7886 11.4652V4.42994C14.7886 4.0441 14.9298 3.71319 15.2121 3.43719C15.4943 3.16135 15.8284 3.02344 16.2144 3.02344C16.6002 3.02344 16.931 3.16135 17.2069 3.43719C17.4829 3.71319 17.6209 4.0441 17.6209 4.42994V11.3512C17.6209 13.1522 17.1243 14.5936 16.1311 15.6754C15.138 16.7574 13.7599 17.2984 11.9969 17.2984Z" fill="black"/>
</svg>
