<svg width="24" height="24" viewBox="0 0 24 24" fill="none" xmlns="http://www.w3.org/2000/svg">
<g clip-path="url(#clip0_8836_6486)">
<path d="M15.75 3.87305H8.25C5.83375 3.87305 3.875 5.8318 3.875 8.24805V15.748C3.875 18.1643 5.83375 20.123 8.25 20.123H15.75C18.1662 20.123 20.125 18.1643 20.125 15.748V8.24805C20.125 5.8318 18.1662 3.87305 15.75 3.87305Z" stroke="white" stroke-width="2.08333"/>
<path d="M7.96875 12.9688C7.96875 14.6255 7.96875 15.4539 8.40825 15.9042C8.85863 16.3437 9.687 16.3437 11.3437 16.3437" stroke="white" stroke-width="2.08333" stroke-linecap="round"/>
<path d="M16.0312 11.0312C16.0312 9.3745 16.0312 8.54613 15.5917 8.09575C15.1414 7.65625 14.313 7.65625 12.6562 7.65625" stroke="white" stroke-width="2.08333" stroke-linecap="round"/>
</g>
<defs>
<clipPath id="clip0_8836_6486">
<rect width="20" height="20" fill="white" transform="translate(2 2)"/>
</clipPath>
</defs>
</svg>
