<svg width="24" height="24" viewBox="0 0 24 24" fill="none" xmlns="http://www.w3.org/2000/svg">
<path d="M6.23906 19.1989C5.85323 19.1989 5.52556 19.0642 5.25606 18.7947C4.9864 18.525 4.85156 18.1972 4.85156 17.8114C4.85156 17.4256 4.9864 17.0979 5.25606 16.8284C5.52556 16.5587 5.85323 16.4239 6.23906 16.4239H8.88756L11.8336 7.59141H9.27506C8.88906 7.59141 8.56131 7.45657 8.29181 7.1869C8.02231 6.9174 7.88756 6.58974 7.88756 6.20391C7.88756 5.81791 8.02231 5.49016 8.29181 5.22066C8.56131 4.95116 8.88906 4.81641 9.27506 4.81641H16.7751C17.1609 4.81641 17.4886 4.95116 17.7581 5.22066C18.0277 5.49016 18.1626 5.81791 18.1626 6.20391C18.1626 6.58974 18.0277 6.9174 17.7581 7.1869C17.4886 7.45657 17.1609 7.59141 16.7751 7.59141H14.6266L11.6803 16.4239H13.7391C14.1249 16.4239 14.4526 16.5587 14.7223 16.8284C14.9918 17.0979 15.1266 17.4256 15.1266 17.8114C15.1266 18.1972 14.9918 18.525 14.7223 18.7947C14.4526 19.0642 14.1249 19.1989 13.7391 19.1989H6.23906Z" fill="black"/>
</svg>
