<svg width="24" height="24" viewBox="0 0 24 24" fill="none" xmlns="http://www.w3.org/2000/svg">
<path d="M2.79688 14.0539C2.51354 14.0539 2.27604 13.9575 2.08437 13.7646C1.89271 13.5718 1.79688 13.3329 1.79688 13.0479C1.79688 12.7645 1.89329 12.527 2.08612 12.3354C2.27896 12.1437 2.51787 12.0479 2.80287 12.0479H21.2034C21.4867 12.0479 21.7242 12.1437 21.9159 12.3354C22.1075 12.527 22.2034 12.7645 22.2034 13.0479C22.2034 13.3312 22.107 13.5697 21.9141 13.7634C21.7213 13.957 21.4824 14.0539 21.1974 14.0539H2.79688ZM10.3626 10.0479V7.06588H6.42838C5.97188 7.06588 5.58579 6.90671 5.27012 6.58838C4.95462 6.26988 4.79687 5.88321 4.79687 5.42838C4.79687 4.97188 4.95462 4.58579 5.27012 4.27012C5.58579 3.95462 5.97188 3.79688 6.42838 3.79688H17.5719C18.0284 3.79688 18.4145 3.95462 18.7301 4.27012C19.0456 4.58579 19.2034 4.97188 19.2034 5.42838C19.2034 5.88488 19.0456 6.27196 18.7301 6.58963C18.4145 6.90713 18.0284 7.06588 17.5719 7.06588H13.6436V10.0479H10.3626ZM10.3626 16.0539H13.6436V18.5659C13.6436 19.0207 13.4845 19.4074 13.1661 19.7259C12.8476 20.0442 12.461 20.2034 12.0061 20.2034C11.5496 20.2034 11.1615 20.0436 10.8419 19.7241C10.5224 19.4045 10.3626 19.0164 10.3626 18.5599V16.0539Z" fill="black"/>
</svg>
