<svg width="24" height="24" viewBox="0 0 24 24" fill="none" xmlns="http://www.w3.org/2000/svg">
<path d="M8.775 19.1974C8.14533 19.1974 7.60875 18.9756 7.16525 18.5321C6.72175 18.0886 6.5 17.552 6.5 16.9224V7.07188C6.5 6.44221 6.72175 5.90562 7.16525 5.46212C7.60875 5.01862 8.14533 4.79688 8.775 4.79688H12.5152C13.6504 4.79688 14.6813 5.14713 15.608 5.84763C16.5347 6.54813 16.998 7.49804 16.998 8.69738C16.998 9.49954 16.8163 10.1448 16.4528 10.6331C16.0894 11.1213 15.7112 11.4753 15.318 11.6951V11.7131C15.8103 11.9245 16.2968 12.3 16.7773 12.8399C17.2578 13.3797 17.498 14.1257 17.498 15.0779C17.498 16.5214 16.9622 17.5688 15.8907 18.2201C14.8194 18.8716 13.7569 19.1974 12.7033 19.1974H8.775ZM9.72825 16.2899H12.4777C13.1981 16.2899 13.6657 16.0986 13.8805 15.7161C14.0953 15.3338 14.2028 15.019 14.2028 14.7719C14.2028 14.5247 14.0953 14.209 13.8805 13.8246C13.6657 13.4401 13.1791 13.2479 12.4207 13.2479H9.72825V16.2899ZM9.72825 10.4344H12.2147C12.7329 10.4344 13.1239 10.2937 13.3877 10.0124C13.6517 9.73104 13.7838 9.40938 13.7838 9.04738C13.7838 8.64738 13.6391 8.31938 13.3498 8.06338C13.0604 7.80738 12.6947 7.67937 12.2527 7.67937H9.72825V10.4344Z" fill="black"/>
</svg>
