<svg width="24" height="24" viewBox="0 0 24 24" fill="none" xmlns="http://www.w3.org/2000/svg">
<path d="M5.16563 18.8305H7.03863C7.40663 18.8305 7.71946 18.9593 7.97712 19.2168C8.23479 19.4744 8.36363 19.7874 8.36363 20.1555C8.36363 20.5235 8.23479 20.8364 7.97712 21.094C7.71946 21.3517 7.40663 21.4805 7.03863 21.4805H3.84063C3.47263 21.4805 3.15979 21.3517 2.90212 21.094C2.64446 20.8364 2.51563 20.5235 2.51562 20.1555V16.9575C2.51562 16.5895 2.64446 16.2767 2.90212 16.019C3.15979 15.7614 3.47263 15.6325 3.84063 15.6325C4.20879 15.6325 4.52171 15.7614 4.77938 16.019C5.03688 16.2767 5.16563 16.5895 5.16563 16.9575V18.8305ZM18.8266 18.8305V16.9575C18.8266 16.5895 18.9554 16.2767 19.2129 16.019C19.4705 15.7614 19.7835 15.6325 20.1516 15.6325C20.5196 15.6325 20.8325 15.7614 21.0901 16.019C21.3478 16.2767 21.4766 16.5895 21.4766 16.9575V20.1555C21.4766 20.5235 21.3478 20.8364 21.0901 21.094C20.8325 21.3517 20.5196 21.4805 20.1516 21.4805H16.9679C16.5997 21.4805 16.2869 21.3517 16.0294 21.094C15.7717 20.8364 15.6429 20.5235 15.6429 20.1555C15.6429 19.7874 15.7717 19.4744 16.0294 19.2168C16.2869 18.9593 16.5997 18.8305 16.9679 18.8305H18.8266ZM5.16563 5.16953V7.02828C5.16563 7.39645 5.03688 7.70928 4.77938 7.96678C4.52171 8.22445 4.20879 8.35328 3.84063 8.35328C3.47263 8.35328 3.15979 8.22445 2.90212 7.96678C2.64446 7.70928 2.51562 7.39645 2.51562 7.02828V3.84453C2.51562 3.47653 2.64446 3.1637 2.90212 2.90603C3.15979 2.64836 3.47263 2.51953 3.84063 2.51953H7.03863C7.40663 2.51953 7.71946 2.64836 7.97712 2.90603C8.23479 3.1637 8.36363 3.47653 8.36363 3.84453C8.36363 4.2127 8.23479 4.52561 7.97712 4.78328C7.71946 5.04078 7.40663 5.16953 7.03863 5.16953H5.16563ZM18.8266 5.16953H16.9679C16.5997 5.16953 16.2869 5.04078 16.0294 4.78328C15.7717 4.52561 15.6429 4.2127 15.6429 3.84453C15.6429 3.47653 15.7717 3.1637 16.0294 2.90603C16.2869 2.64836 16.5997 2.51953 16.9679 2.51953H20.1516C20.5196 2.51953 20.8325 2.64836 21.0901 2.90603C21.3478 3.1637 21.4766 3.47653 21.4766 3.84453V7.02828C21.4766 7.39645 21.3478 7.70928 21.0901 7.96678C20.8325 8.22445 20.5196 8.35328 20.1516 8.35328C19.7835 8.35328 19.4705 8.22445 19.2129 7.96678C18.9554 7.70928 18.8266 7.39645 18.8266 7.02828V5.16953Z" fill="black"/>
</svg>
