<svg width="24" height="24" viewBox="0 0 24 24" fill="none" xmlns="http://www.w3.org/2000/svg">
<path d="M5.71363 18.2825H3.84063C3.47263 18.2825 3.15979 18.1538 2.90212 17.8963C2.64446 17.6386 2.51562 17.3257 2.51562 16.9575C2.51562 16.5895 2.64446 16.2767 2.90212 16.019C3.15979 15.7614 3.47263 15.6325 3.84063 15.6325H7.03863C7.40663 15.6325 7.71946 15.7614 7.97712 16.019C8.23479 16.2767 8.36363 16.5895 8.36363 16.9575V20.1555C8.36363 20.5235 8.23479 20.8364 7.97712 21.094C7.71946 21.3517 7.40663 21.4805 7.03863 21.4805C6.67046 21.4805 6.35754 21.3517 6.09987 21.094C5.84237 20.8364 5.71363 20.5235 5.71363 20.1555V18.2825ZM18.2929 18.2825V20.1555C18.2929 20.5235 18.164 20.8364 17.9064 21.094C17.6489 21.3517 17.336 21.4805 16.9679 21.4805C16.5997 21.4805 16.2869 21.3517 16.0294 21.094C15.7717 20.8364 15.6429 20.5235 15.6429 20.1555V16.9575C15.6429 16.5895 15.7717 16.2767 16.0294 16.019C16.2869 15.7614 16.5997 15.6325 16.9679 15.6325H20.1516C20.5196 15.6325 20.8325 15.7614 21.0901 16.019C21.3478 16.2767 21.4766 16.5895 21.4766 16.9575C21.4766 17.3257 21.3478 17.6386 21.0901 17.8963C20.8325 18.1538 20.5196 18.2825 20.1516 18.2825H18.2929ZM5.71363 5.70328V3.84453C5.71363 3.47653 5.84237 3.1637 6.09987 2.90603C6.35754 2.64836 6.67046 2.51953 7.03863 2.51953C7.40663 2.51953 7.71946 2.64836 7.97712 2.90603C8.23479 3.1637 8.36363 3.47653 8.36363 3.84453V7.02828C8.36363 7.39645 8.23479 7.70928 7.97712 7.96678C7.71946 8.22445 7.40663 8.35328 7.03863 8.35328H3.84063C3.47263 8.35328 3.15979 8.22445 2.90212 7.96678C2.64446 7.70928 2.51562 7.39645 2.51562 7.02828C2.51562 6.66011 2.64446 6.34728 2.90212 6.08978C3.15979 5.83211 3.47263 5.70328 3.84063 5.70328H5.71363ZM18.2929 5.70328H20.1516C20.5196 5.70328 20.8325 5.83211 21.0901 6.08978C21.3478 6.34728 21.4766 6.66011 21.4766 7.02828C21.4766 7.39645 21.3478 7.70928 21.0901 7.96678C20.8325 8.22445 20.5196 8.35328 20.1516 8.35328H16.9679C16.5997 8.35328 16.2869 8.22445 16.0294 7.96678C15.7717 7.70928 15.6429 7.39645 15.6429 7.02828V3.84453C15.6429 3.47653 15.7717 3.1637 16.0294 2.90603C16.2869 2.64836 16.5997 2.51953 16.9679 2.51953C17.336 2.51953 17.6489 2.64836 17.9064 2.90603C18.164 3.1637 18.2929 3.47653 18.2929 3.84453V5.70328Z" fill="black"/>
</svg>
