<svg width="24" height="24" viewBox="0 0 24 24" fill="none" xmlns="http://www.w3.org/2000/svg">
<path d="M11.9995 17.8123L7.807 20.3406C7.55783 20.4949 7.30025 20.5614 7.03425 20.5401C6.76825 20.5187 6.53675 20.4308 6.33975 20.2763C6.14258 20.122 5.99058 19.9267 5.88375 19.6906C5.77692 19.4544 5.75792 19.195 5.82675 18.9123L6.94075 14.1448L3.2235 10.9276C3.00017 10.7304 2.86067 10.5054 2.805 10.2526C2.74917 9.99956 2.75925 9.75315 2.83525 9.51331C2.91142 9.27348 3.04675 9.07165 3.24125 8.90781C3.43592 8.74415 3.68283 8.64565 3.982 8.61231L8.8745 8.18731L10.7778 3.68081C10.8894 3.40531 11.0586 3.20348 11.2853 3.07531C11.5121 2.94698 11.7502 2.88281 11.9995 2.88281C12.2488 2.88281 12.4869 2.94698 12.7138 3.07531C12.9404 3.20348 13.1096 3.40531 13.2213 3.68081L15.1245 8.18731L20.017 8.61231C20.3162 8.64565 20.5631 8.74415 20.7578 8.90781C20.9523 9.07165 21.0876 9.27348 21.1638 9.51331C21.2398 9.75315 21.2498 9.99956 21.194 10.2526C21.1383 10.5054 20.9988 10.7304 20.7755 10.9276L17.0583 14.1448L18.1723 18.9123C18.2411 19.195 18.2221 19.4544 18.1153 19.6906C18.0084 19.9267 17.8564 20.122 17.6593 20.2763C17.4623 20.4308 17.2308 20.5187 16.9648 20.5401C16.6988 20.5614 16.4412 20.4949 16.192 20.3406L11.9995 17.8123Z" fill="white"/>
</svg>
