<svg width="24" height="24" viewBox="0 0 24 24" fill="none" xmlns="http://www.w3.org/2000/svg">
<path d="M2.72539 22.85C2.29206 22.85 1.92122 22.6958 1.61289 22.3875C1.30456 22.0792 1.15039 21.7083 1.15039 21.275V19.55C1.15039 18.9 1.32539 18.2958 1.67539 17.7375C2.02539 17.1792 2.49206 16.7583 3.07539 16.475C3.97539 16.0417 4.90039 15.7083 5.85039 15.475C6.80039 15.2417 7.77539 15.125 8.77539 15.125C9.77539 15.125 10.7504 15.2375 11.7004 15.4625C12.6504 15.6875 13.5671 16.0167 14.4504 16.45C15.0337 16.7333 15.4962 17.1542 15.8379 17.7125C16.1796 18.2708 16.3504 18.8833 16.3504 19.55V21.275C16.3504 21.7083 16.1962 22.0792 15.8879 22.3875C15.5796 22.6958 15.2087 22.85 14.7754 22.85H2.72539ZM19.2754 22.85H17.6004C17.8171 22.6667 17.9962 22.4375 18.1379 22.1625C18.2796 21.8875 18.3504 21.5833 18.3504 21.25V19.5C18.3504 18.7 18.1837 17.9458 17.8504 17.2375C17.5171 16.5292 17.0421 15.9333 16.4254 15.45C16.8754 15.5667 17.3129 15.7125 17.7379 15.8875C18.1629 16.0625 18.5837 16.25 19.0004 16.45C19.5837 16.7333 20.0379 17.1625 20.3629 17.7375C20.6879 18.3125 20.8504 18.9333 20.8504 19.6V21.275C20.8504 21.7083 20.6962 22.0792 20.3879 22.3875C20.0796 22.6958 19.7087 22.85 19.2754 22.85ZM8.75039 14.325C7.70039 14.325 6.80872 13.9625 6.07539 13.2375C5.34206 12.5125 4.97539 11.625 4.97539 10.575C4.97539 9.525 5.34206 8.63333 6.07539 7.9C6.80872 7.16667 7.70039 6.8 8.75039 6.8C9.80039 6.8 10.6921 7.16667 11.4254 7.9C12.1587 8.63333 12.5254 9.525 12.5254 10.575C12.5254 11.625 12.1587 12.5125 11.4254 13.2375C10.6921 13.9625 9.80039 14.325 8.75039 14.325ZM18.3004 10.575C18.3004 11.625 17.9337 12.5125 17.2004 13.2375C16.4671 13.9625 15.5754 14.325 14.5254 14.325C14.3254 14.325 14.1212 14.3042 13.9129 14.2625C13.7046 14.2208 13.5087 14.1583 13.3254 14.075C13.7421 13.5917 14.0462 13.0458 14.2379 12.4375C14.4296 11.8292 14.5254 11.2083 14.5254 10.575C14.5254 9.94167 14.4296 9.32083 14.2379 8.7125C14.0462 8.10417 13.7421 7.55833 13.3254 7.075C13.5087 6.99167 13.7004 6.925 13.9004 6.875C14.1004 6.825 14.3087 6.8 14.5254 6.8C15.5754 6.8 16.4671 7.16667 17.2004 7.9C17.9337 8.63333 18.3004 9.525 18.3004 10.575ZM19.2254 9.525C19.2254 8.20833 18.7587 7.08333 17.8254 6.15C16.8921 5.21667 15.7671 4.75 14.4504 4.75C15.7671 4.75 16.8921 4.2875 17.8254 3.3625C18.7587 2.4375 19.2254 1.31667 19.2254 0C19.2254 1.31667 19.6879 2.4375 20.6129 3.3625C21.5379 4.2875 22.6587 4.75 23.9754 4.75C22.6587 4.75 21.5379 5.21667 20.6129 6.15C19.6879 7.08333 19.2254 8.20833 19.2254 9.525Z" fill="white"/>
</svg>
