<svg width="24" height="24" viewBox="0 0 24 24" fill="none" xmlns="http://www.w3.org/2000/svg">
<path d="M8.77539 16.125C9.69961 16.125 10.5971 16.2289 11.4697 16.4355C12.237 16.6173 12.9809 16.8727 13.7021 17.2021L14.0098 17.3477L14.0137 17.3496C14.4233 17.5486 14.7425 17.8375 14.9854 18.2344C15.2289 18.6325 15.3506 19.0639 15.3506 19.5498V21.2754C15.3505 21.4414 15.3027 21.5586 15.1807 21.6807C15.0586 21.8026 14.9416 21.8496 14.7754 21.8496H2.72559C2.55947 21.8496 2.44233 21.8026 2.32031 21.6807C2.19829 21.5586 2.15046 21.4414 2.15039 21.2754V19.5498L2.15625 19.3799C2.18273 18.986 2.3022 18.6199 2.52246 18.2686C2.7739 17.8675 3.09854 17.576 3.50879 17.376C4.3476 16.9721 5.20766 16.6627 6.08887 16.4463C6.95908 16.2326 7.85397 16.125 8.77539 16.125ZM19.0967 17.7158C19.2487 17.8605 19.3799 18.0308 19.4922 18.2295C19.7314 18.6528 19.8505 19.1038 19.8506 19.5996V21.2754C19.8505 21.4414 19.8027 21.5586 19.6807 21.6807C19.5627 21.7985 19.4494 21.8445 19.292 21.8477C19.3299 21.6523 19.3506 21.4529 19.3506 21.25V19.5C19.3506 18.8854 19.2649 18.29 19.0967 17.7158ZM8.75 7.7998C9.53849 7.7998 10.1756 8.06423 10.7188 8.60742C11.2617 9.15053 11.5254 9.78689 11.5254 10.5752C11.5253 11.3633 11.262 11.9931 10.7227 12.5264C10.1803 13.0626 9.54213 13.3252 8.75 13.3252C7.95805 13.3251 7.32058 13.0625 6.77832 12.5264C6.23894 11.9931 5.97563 11.3633 5.97559 10.5752C5.97559 9.78684 6.23923 9.15055 6.78223 8.60742C7.32533 8.06432 7.96169 7.79989 8.75 7.7998ZM14.9736 7.83398C15.5605 7.91796 16.057 8.17123 16.4932 8.60742C17.0363 9.15059 17.3008 9.78675 17.3008 10.5752C17.3007 11.3634 17.0365 11.9931 16.4971 12.5264C16.064 12.9544 15.57 13.2042 14.9854 13.2891C15.0627 13.1101 15.132 12.9268 15.1914 12.7383C15.4135 12.0335 15.5254 11.3111 15.5254 10.5752C15.5254 9.8392 15.4135 9.11696 15.1914 8.41211C15.129 8.21404 15.0559 8.0215 14.9736 7.83398ZM19.2217 3.25391C19.4206 3.53909 19.6484 3.8115 19.9062 4.06934C20.1638 4.32686 20.4359 4.55416 20.7207 4.75293C20.4343 4.95419 20.161 5.18533 19.9023 5.44629C19.6458 5.70515 19.4189 5.97808 19.2207 6.26367C19.0203 5.97712 18.7917 5.70284 18.5322 5.44336C18.2724 5.18358 17.9979 4.95447 17.7109 4.75391C17.9966 4.55572 18.2704 4.32981 18.5293 4.07324C18.7903 3.81456 19.0204 3.54032 19.2217 3.25391Z" stroke="white" stroke-width="2"/>
</svg>
