<svg width="25" height="24" viewBox="0 0 25 24" fill="none" xmlns="http://www.w3.org/2000/svg">
<path d="M1.1375 18.0955C0.818333 18.0955 0.549 17.9857 0.3295 17.766C0.109833 17.5465 0 17.2772 0 16.958V16.4247C0 15.6762 0.376667 15.069 1.13 14.603C1.88333 14.137 2.87192 13.904 4.09575 13.904C4.28058 13.904 4.456 13.9072 4.622 13.9135C4.78817 13.9198 4.951 13.9357 5.1105 13.9612C4.86517 14.3271 4.68217 14.7113 4.5615 15.114C4.44083 15.5168 4.3805 15.9371 4.3805 16.3747V18.0955H1.1375ZM7.1375 18.0955C6.81833 18.0955 6.549 17.9857 6.3295 17.766C6.10983 17.5465 6 17.2772 6 16.958V16.3747C6 15.8294 6.14683 15.329 6.4405 14.8735C6.73417 14.4178 7.15367 14.0193 7.699 13.678C8.24433 13.3367 8.89283 13.0807 9.6445 12.91C10.396 12.7393 11.213 12.654 12.0955 12.654C12.995 12.654 13.8195 12.7393 14.569 12.91C15.3187 13.0807 15.9662 13.3367 16.5115 13.678C17.0568 14.0193 17.4732 14.4178 17.7605 14.8735C18.0478 15.329 18.1915 15.8294 18.1915 16.3747V16.958C18.1915 17.2772 18.0817 17.5465 17.862 17.766C17.6425 17.9857 17.3732 18.0955 17.054 18.0955H7.1375ZM19.811 18.0955V16.3747C19.811 15.9201 19.7538 15.4916 19.6395 15.0892C19.5252 14.6869 19.3537 14.3109 19.125 13.9612C19.2845 13.9357 19.4443 13.9198 19.6045 13.9135C19.7648 13.9072 19.9286 13.904 20.0958 13.904C21.3244 13.904 22.3142 14.1336 23.065 14.5927C23.816 15.0517 24.1915 15.6624 24.1915 16.4247V16.958C24.1915 17.2772 24.0817 17.5465 23.862 17.766C23.6425 17.9857 23.3732 18.0955 23.054 18.0955H19.811ZM4.09625 12.928C3.52992 12.928 3.045 12.7264 2.6415 12.3232C2.23783 11.9201 2.036 11.4354 2.036 10.8693C2.036 10.2859 2.23758 9.79667 2.64075 9.4015C3.04392 9.00617 3.52858 8.8085 4.09475 8.8085C4.67808 8.8085 5.16733 9.00583 5.5625 9.4005C5.95783 9.79517 6.1555 10.2842 6.1555 10.8677C6.1555 11.4341 5.95817 11.919 5.5635 12.3225C5.16883 12.7262 4.67975 12.928 4.09625 12.928ZM20.0963 12.928C19.5299 12.928 19.045 12.7264 18.6415 12.3232C18.2378 11.9201 18.036 11.4354 18.036 10.8693C18.036 10.2859 18.2376 9.79667 18.6408 9.4015C19.0439 9.00617 19.5286 8.8085 20.0948 8.8085C20.6781 8.8085 21.1673 9.00583 21.5625 9.4005C21.9578 9.79517 22.1555 10.2842 22.1555 10.8677C22.1555 11.4341 21.9582 11.919 21.5635 12.3225C21.1688 12.7262 20.6798 12.928 20.0963 12.928ZM12.0957 11.91C11.2359 11.91 10.505 11.6091 9.903 11.0072C9.301 10.4052 9 9.67433 9 8.8145C9 7.9405 9.301 7.20608 9.903 6.61125C10.505 6.01625 11.2359 5.71875 12.0957 5.71875C12.9696 5.71875 13.704 6.01625 14.299 6.61125C14.894 7.20608 15.1915 7.9405 15.1915 8.8145C15.1915 9.67433 14.894 10.4052 14.299 11.0072C13.704 11.6091 12.9696 11.91 12.0957 11.91Z" fill="black"/>
</svg>
