<svg width="24" height="24" viewBox="0 0 24 24" fill="none" xmlns="http://www.w3.org/2000/svg">
<path d="M3.14844 18.7002V10.1502C3.14844 9.6502 3.25677 9.17936 3.47344 8.7377C3.6901 8.29603 3.99844 7.9252 4.39844 7.6252L10.0984 3.3502C10.6651 2.91686 11.2984 2.7002 11.9984 2.7002C12.6984 2.7002 13.3318 2.91686 13.8984 3.3502L19.5984 7.6252C19.9984 7.9252 20.3068 8.29603 20.5234 8.7377C20.7401 9.17936 20.8484 9.6502 20.8484 10.1502V18.7002C20.8484 19.5835 20.5443 20.3294 19.9359 20.9377C19.3276 21.546 18.5818 21.8502 17.6984 21.8502H15.7734C15.3401 21.8502 14.9693 21.696 14.6609 21.3877C14.3526 21.0794 14.1984 20.7085 14.1984 20.2752V15.3752C14.1984 14.9419 14.0443 14.571 13.7359 14.2627C13.4276 13.9544 13.0568 13.8002 12.6234 13.8002H11.3734C10.9401 13.8002 10.5693 13.9544 10.2609 14.2627C9.9526 14.571 9.79844 14.9419 9.79844 15.3752V20.2752C9.79844 20.7085 9.64427 21.0794 9.33594 21.3877C9.0276 21.696 8.65677 21.8502 8.22344 21.8502H6.29844C5.4151 21.8502 4.66927 21.546 4.06094 20.9377C3.4526 20.3294 3.14844 19.5835 3.14844 18.7002Z" stroke="white" stroke-width="2"/>
</svg>
