<svg width="80" height="80" viewBox="0 0 80 80" fill="none" xmlns="http://www.w3.org/2000/svg">
<g clip-path="url(#clip0_9104_12980)">
<path d="M60.0737 27.0831V17.688C61.3152 17.1078 62.3664 16.1868 63.1049 15.0323C63.8434 13.8779 64.2389 12.5374 64.2452 11.167V10.9514C64.2452 6.95565 61.006 3.71644 57.0105 3.71644H56.7947C52.7989 3.71644 49.5597 6.95565 49.5597 10.9514V11.167C49.566 12.5374 49.9615 13.8779 50.7 15.0323C51.4385 16.1868 52.4897 17.1078 53.7312 17.688V27.0831C50.1629 27.6295 46.8023 29.1092 43.9897 31.3721L18.2232 11.3026C18.4069 10.6394 18.5028 9.95731 18.5136 9.27273C18.5168 7.66032 18.0416 6.0832 17.1483 4.74085C16.255 3.39851 14.9837 2.35125 13.4951 1.73154C12.0065 1.11184 10.3676 0.947529 8.78566 1.2594C7.2037 1.57127 5.74976 2.34531 4.60777 3.48361C3.46577 4.6219 2.68702 6.07332 2.37002 7.65426C2.05302 9.23521 2.21202 10.8747 2.82689 12.3652C3.44176 13.8558 4.48489 15.1305 5.82433 16.0282C7.16377 16.9258 8.73935 17.4061 10.3518 17.4081C11.7623 17.4015 13.1465 17.0249 14.366 16.316L39.7386 36.0598C35.0739 43.1065 35.1987 52.2905 40.0529 59.2083L32.3359 66.9275C31.7118 66.7282 31.0622 66.6222 30.4072 66.6133C26.7114 66.6165 23.7174 69.6137 23.7184 73.3095C23.7193 77.005 26.7153 80.0006 30.4107 80.0015C34.1065 80.0025 37.1038 77.0085 37.1069 73.3127C37.0982 72.6579 36.9922 72.008 36.7924 71.3844L44.4266 63.7472C51.2479 68.9985 60.6166 69.451 67.9123 64.8814C75.2078 60.3116 78.8896 51.6845 77.1415 43.2555C75.3934 34.8262 68.5848 28.3752 60.0737 27.0831ZM56.9093 57.9827C55.4989 58.0207 54.0952 57.7757 52.7811 57.2621C51.467 56.7486 50.2691 55.977 49.2581 54.9929C48.2471 54.0087 47.4435 52.832 46.8949 51.5322C46.3462 50.2323 46.0635 48.8357 46.0635 47.4248C46.0635 46.0139 46.3462 44.6173 46.8949 43.3175C47.4435 42.0177 48.2471 40.8409 49.2581 39.8568C50.2691 38.8727 51.467 38.101 52.7811 37.5875C54.0952 37.074 55.4989 36.829 56.9093 36.8669C62.5929 37.0659 67.0985 41.7297 67.1017 47.4172C67.1042 53.104 62.6034 57.7726 56.9198 57.9773" fill="#FF7A59"/>
</g>
<defs>
<clipPath id="clip0_9104_12980">
<rect width="80" height="80" fill="white"/>
</clipPath>
</defs>
</svg>
