<svg width="24" height="24" viewBox="0 0 24 24" fill="none" xmlns="http://www.w3.org/2000/svg">
<path d="M5.07187 21.2034C4.44221 21.2034 3.90562 20.9816 3.46212 20.5381C3.01862 20.0946 2.79688 19.558 2.79688 18.9284V5.07188C2.79688 4.44221 3.01862 3.90562 3.46212 3.46212C3.90562 3.01862 4.44221 2.79688 5.07187 2.79688H18.9284C19.558 2.79688 20.0946 3.01862 20.5381 3.46212C20.9816 3.90562 21.2034 4.44221 21.2034 5.07188V18.9284C21.2034 19.558 20.9816 20.0946 20.5381 20.5381C20.0946 20.9816 19.558 21.2034 18.9284 21.2034H5.07187ZM12.0001 15.9644C12.5215 15.9644 13.0051 15.8328 13.4511 15.5696C13.8971 15.3066 14.2579 14.9541 14.5334 14.5121C14.6422 14.3478 14.7783 14.2154 14.9416 14.1149C15.105 14.0145 15.2864 13.9644 15.4859 13.9644H18.9284V5.07188H5.07187V13.9644H8.51438C8.71388 13.9644 8.89529 14.0145 9.05863 14.1149C9.22196 14.2154 9.35804 14.3478 9.46688 14.5121C9.74238 14.9541 10.1031 15.3066 10.5491 15.5696C10.9951 15.8328 11.4788 15.9644 12.0001 15.9644Z" fill="black"/>
</svg>
