<svg width="24" height="24" viewBox="0 0 24 24" fill="none" xmlns="http://www.w3.org/2000/svg">
<path d="M11.9984 17.3749C12.3881 17.3749 12.7147 17.2432 12.9782 16.9797C13.2417 16.716 13.3734 16.3894 13.3734 15.9999V12.3749C13.3734 11.9852 13.2417 11.6587 12.9782 11.3952C12.7147 11.1317 12.3881 10.9999 11.9984 10.9999C11.6089 10.9999 11.2824 11.1317 11.0187 11.3952C10.7552 11.6587 10.6234 11.9852 10.6234 12.3749V15.9999C10.6234 16.3894 10.7552 16.716 11.0187 16.9797C11.2824 17.2432 11.6089 17.3749 11.9984 17.3749ZM11.9984 9.4999C12.4234 9.4999 12.7797 9.35615 13.0672 9.06865C13.3547 8.78115 13.4984 8.4249 13.4984 7.9999C13.4984 7.5749 13.3547 7.21865 13.0672 6.93115C12.7797 6.64365 12.4234 6.4999 11.9984 6.4999C11.5734 6.4999 11.2172 6.64365 10.9297 6.93115C10.6422 7.21865 10.4984 7.5749 10.4984 7.9999C10.4984 8.4249 10.6422 8.78115 10.9297 9.06865C11.2172 9.35615 11.5734 9.4999 11.9984 9.4999ZM11.9984 22.8499C10.4818 22.8499 9.06519 22.5659 7.74869 21.9979C6.43235 21.4297 5.28727 20.6587 4.31344 19.6849C3.3396 18.7111 2.5686 17.566 2.00044 16.2497C1.43244 14.9332 1.14844 13.5166 1.14844 11.9999C1.14844 10.4832 1.43244 9.06665 2.00044 7.75015C2.5686 6.43382 3.3396 5.28874 4.31344 4.3149C5.28727 3.34107 6.43235 2.57007 7.74869 2.0019C9.06519 1.4339 10.4818 1.1499 11.9984 1.1499C13.5151 1.1499 14.9317 1.4339 16.2482 2.0019C17.5645 2.57007 18.7096 3.34107 19.6834 4.3149C20.6573 5.28874 21.4283 6.43382 21.9964 7.75015C22.5644 9.06665 22.8484 10.4832 22.8484 11.9999C22.8484 13.5166 22.5644 14.9332 21.9964 16.2497C21.4283 17.566 20.6573 18.7111 19.6834 19.6849C18.7096 20.6587 17.5645 21.4297 16.2482 21.9979C14.9317 22.5659 13.5151 22.8499 11.9984 22.8499Z" fill="white"/>
</svg>
