<svg width="24" height="24" viewBox="0 0 24 24" fill="none" xmlns="http://www.w3.org/2000/svg">
<path d="M6.07187 23.2412C5.44221 23.2412 4.90562 23.0194 4.46212 22.5759C4.01863 22.1324 3.79688 21.5958 3.79688 20.9662V10.3727C3.79688 9.74282 4.01863 9.20616 4.46212 8.76266C4.90562 8.31932 5.44221 8.09766 6.07187 8.09766H7.72512C8.04429 8.09766 8.31371 8.20741 8.53337 8.42691C8.75287 8.64641 8.86262 8.91582 8.86262 9.23516C8.86262 9.55432 8.75287 9.82366 8.53337 10.0432C8.31371 10.2628 8.04429 10.3727 7.72512 10.3727H6.07187V20.9662H17.9284V10.3727H16.2751C15.956 10.3727 15.6865 10.2628 15.4669 10.0432C15.2474 9.82366 15.1376 9.55432 15.1376 9.23516C15.1376 8.91582 15.2474 8.64641 15.4669 8.42691C15.6865 8.20741 15.956 8.09766 16.2751 8.09766H17.9284C18.558 8.09766 19.0946 8.31932 19.5381 8.76266C19.9816 9.20616 20.2034 9.74282 20.2034 10.3727V20.9662C20.2034 21.5958 19.9816 22.1324 19.5381 22.5759C19.0946 23.0194 18.558 23.2412 17.9284 23.2412H6.07187ZM10.8626 5.10791L10.0584 5.91216C9.83437 6.13616 9.56912 6.24499 9.26262 6.23866C8.95612 6.23232 8.69088 6.11716 8.46688 5.89316C8.25571 5.66932 8.14696 5.40416 8.14062 5.09766C8.13429 4.79099 8.24304 4.52574 8.46688 4.30191L11.1984 1.56441C11.4264 1.33657 11.6936 1.22266 12.0001 1.22266C12.3066 1.22266 12.5739 1.33657 12.8019 1.56441L15.5334 4.30191C15.7445 4.51307 15.8501 4.77516 15.8501 5.08816C15.8501 5.40099 15.7445 5.66932 15.5334 5.89316C15.3094 6.11716 15.041 6.22916 14.7281 6.22916C14.4153 6.22916 14.1469 6.11716 13.9229 5.89316L13.1376 5.10791V15.0737C13.1376 15.3928 13.0279 15.6622 12.8084 15.8819C12.5887 16.1014 12.3193 16.2112 12.0001 16.2112C11.681 16.2112 11.4115 16.1014 11.1919 15.8819C10.9724 15.6622 10.8626 15.3928 10.8626 15.0737V5.10791Z" fill="black"/>
</svg>
