<svg width="24" height="24" viewBox="0 0 24 24" fill="none" xmlns="http://www.w3.org/2000/svg">
<path d="M12.0001 22.2034C10.6056 22.2034 9.28804 21.9349 8.04738 21.3979C6.80688 20.861 5.72346 20.1295 4.79713 19.2031C3.87079 18.2768 3.13921 17.1934 2.60237 15.9529C2.06537 14.7122 1.79688 13.3946 1.79688 12.0001C1.79688 10.593 2.06537 9.27221 2.60237 8.03788C3.13921 6.80371 3.87079 5.72346 4.79713 4.79713C5.72346 3.87079 6.80688 3.13921 8.04738 2.60238C9.28804 2.06538 10.6056 1.79688 12.0001 1.79688C13.4073 1.79688 14.728 2.06538 15.9624 2.60238C17.1965 3.13921 18.2768 3.87079 19.2031 4.79713C20.1295 5.72346 20.861 6.80371 21.3979 8.03788C21.9349 9.27221 22.2034 10.593 22.2034 12.0001C22.2034 13.3946 21.9349 14.7122 21.3979 15.9529C20.861 17.1934 20.1295 18.2768 19.2031 19.2031C18.2768 20.1295 17.1965 20.861 15.9624 21.3979C14.728 21.9349 13.4073 22.2034 12.0001 22.2034ZM11.9881 19.8844C12.4056 19.2924 12.7727 18.6724 13.0894 18.0244C13.406 17.3764 13.6644 16.6897 13.8644 15.9644H10.1301C10.3301 16.6897 10.5855 17.3764 10.8961 18.0244C11.2068 18.6724 11.5708 19.2924 11.9881 19.8844ZM9.41813 19.4844C9.11013 18.9424 8.84763 18.3755 8.63063 17.7839C8.41363 17.1922 8.23013 16.5857 8.08013 15.9644H5.16588C5.63721 16.7897 6.23237 17.5087 6.95137 18.1214C7.67054 18.734 8.49279 19.1884 9.41813 19.4844ZM14.5644 19.4844C15.4897 19.1884 16.3139 18.734 17.0369 18.1214C17.7599 17.5087 18.357 16.7897 18.8284 15.9644H15.9144C15.7644 16.5857 15.5788 17.1922 15.3576 17.7839C15.1366 18.3755 14.8722 18.9424 14.5644 19.4844ZM4.32187 13.9821H7.68013C7.63013 13.6488 7.59263 13.3216 7.56763 13.0006C7.54263 12.6796 7.53013 12.3461 7.53013 12.0001C7.53013 11.6501 7.54263 11.3156 7.56763 10.9966C7.59263 10.6776 7.63013 10.3515 7.68013 10.0181H4.32187C4.23854 10.3475 4.17604 10.6726 4.13437 10.9936C4.09271 11.3146 4.07187 11.6501 4.07187 12.0001C4.07187 12.3461 4.09271 12.6806 4.13437 13.0036C4.17604 13.3266 4.23854 13.6528 4.32187 13.9821ZM9.68013 13.9821H14.3144C14.3644 13.6488 14.3999 13.3216 14.4209 13.0006C14.4419 12.6796 14.4524 12.3461 14.4524 12.0001C14.4524 11.6501 14.4419 11.3156 14.4209 10.9966C14.3999 10.6776 14.3644 10.3515 14.3144 10.0181H9.68013C9.63013 10.3515 9.59263 10.6776 9.56763 10.9966C9.54263 11.3156 9.53013 11.6501 9.53013 12.0001C9.53013 12.3461 9.54263 12.6796 9.56763 13.0006C9.59263 13.3216 9.63013 13.6488 9.68013 13.9821ZM16.3144 13.9821H19.6664C19.7497 13.6528 19.8122 13.3266 19.8539 13.0036C19.8955 12.6806 19.9164 12.3461 19.9164 12.0001C19.9164 11.6501 19.8955 11.3146 19.8539 10.9936C19.8122 10.6726 19.7497 10.3475 19.6664 10.0181H16.3144C16.3604 10.3515 16.3949 10.6776 16.4179 10.9966C16.4409 11.3156 16.4524 11.6501 16.4524 12.0001C16.4524 12.3461 16.4409 12.6796 16.4179 13.0006C16.3949 13.3216 16.3604 13.6488 16.3144 13.9821ZM15.9144 8.03013H18.8284C18.357 7.20463 17.7599 6.48654 17.0369 5.87588C16.3139 5.26521 15.4897 4.81188 14.5644 4.51588C14.8722 5.05788 15.1366 5.62371 15.3576 6.21338C15.5788 6.80304 15.7644 7.40863 15.9144 8.03013ZM10.1301 8.03013H13.8644C13.6682 7.30463 13.4118 6.61887 13.0951 5.97287C12.7785 5.32687 12.4095 4.70788 11.9881 4.11588C11.5708 4.70788 11.2068 5.32687 10.8961 5.97287C10.5855 6.61887 10.3301 7.30463 10.1301 8.03013ZM5.16588 8.03013H8.08013C8.23013 7.40863 8.41363 6.80304 8.63063 6.21338C8.84763 5.62371 9.11013 5.05788 9.41813 4.51588C8.49279 4.81188 7.67054 5.26521 6.95137 5.87588C6.23237 6.48654 5.63721 7.20463 5.16588 8.03013Z" fill="black"/>
</svg>
