<svg width="16" height="16" viewBox="0 0 16 16" fill="none" xmlns="http://www.w3.org/2000/svg">
<path d="M14.5884 11.7646H1.41188C0.892082 11.7646 0.470703 12.186 0.470703 12.7058C0.470703 13.2256 0.892082 13.647 1.41188 13.647H14.5884C15.1081 13.647 15.5295 13.2256 15.5295 12.7058C15.5295 12.186 15.1081 11.7646 14.5884 11.7646Z" fill="white"/>
<path fill-rule="evenodd" clip-rule="evenodd" d="M6.87019 4.23489H9.12901C9.95075 4.23489 10.4538 4.23636 10.8302 4.26711C11.0055 4.28143 11.1116 4.29943 11.1761 4.3146C11.2068 4.32182 11.2256 4.32787 11.2357 4.3315C11.2455 4.335 11.2504 4.33747 11.2504 4.33747C11.4276 4.42771 11.5715 4.57169 11.6617 4.74878C11.6617 4.74878 11.6642 4.75365 11.6676 4.76344C11.6713 4.77363 11.6773 4.79248 11.6846 4.82313C11.6997 4.88755 11.7177 4.99364 11.7321 5.16898C11.7628 5.54538 11.7643 6.04846 11.7643 6.87019V10.8231H13.6467V6.87019C13.6467 5.28886 13.6467 4.4982 13.3389 3.89421C13.0682 3.36293 12.6363 2.93099 12.105 2.66029C11.501 2.35254 10.7104 2.35254 9.12901 2.35254H6.87019C5.28886 2.35254 4.4982 2.35254 3.89421 2.66029C3.36293 2.93099 2.93099 3.36293 2.66029 3.89421C2.35254 4.4982 2.35254 5.28886 2.35254 6.87019V10.8231H4.23489V6.87019C4.23489 6.04846 4.23636 5.54538 4.26711 5.16898C4.28143 4.99364 4.29943 4.88755 4.3146 4.82313C4.32182 4.79248 4.32787 4.77363 4.3315 4.76344C4.335 4.75365 4.33747 4.74878 4.33747 4.74878C4.42771 4.57169 4.57169 4.42771 4.74878 4.33747C4.74878 4.33747 4.75365 4.335 4.76344 4.3315C4.77363 4.32787 4.79248 4.32182 4.82313 4.3146C4.88755 4.29943 4.99364 4.28143 5.16898 4.26711C5.54538 4.23636 6.04846 4.23489 6.87019 4.23489Z" fill="white"/>
</svg>
