<svg width="24" height="24" viewBox="0 0 24 24" fill="none" xmlns="http://www.w3.org/2000/svg">
<path d="M19.5933 21.6391L16.2993 18.3641L15.6151 20.4418C15.5199 20.707 15.3376 20.8354 15.0683 20.8271C14.7991 20.8187 14.6189 20.682 14.5276 20.4168L12.3123 13.0211C12.2418 12.8099 12.2895 12.6213 12.4553 12.4553C12.6213 12.2895 12.8099 12.2418 13.0211 12.3123L20.4168 14.5276C20.682 14.6189 20.8187 14.7991 20.8271 15.0683C20.8354 15.3376 20.707 15.5199 20.4418 15.6151L18.3641 16.2993L21.6641 19.5933C21.9594 19.8886 22.1071 20.2296 22.1071 20.6163C22.1071 21.0028 21.9594 21.3437 21.6641 21.6391C21.3687 21.9344 21.0236 22.0821 20.6288 22.0821C20.2338 22.0821 19.8886 21.9344 19.5933 21.6391ZM5.72656 12.0016C5.72656 10.2592 6.33681 8.77781 7.55731 7.55731C8.77781 6.33681 10.2592 5.72656 12.0016 5.72656C13.3527 5.72656 14.5563 6.10065 15.6123 6.84881C16.6685 7.59698 17.4212 8.56765 17.8706 9.76081C17.9786 10.0513 17.9724 10.3326 17.8521 10.6046C17.7317 10.8764 17.5263 11.0663 17.2358 11.1743C16.9451 11.2823 16.6661 11.2761 16.3986 11.1558C16.1311 11.0356 15.9433 10.8302 15.8353 10.5396C15.548 9.76573 15.0556 9.13431 14.3583 8.64531C13.661 8.15631 12.8754 7.91181 12.0016 7.91181C10.8777 7.91181 9.91515 8.31248 9.11381 9.11381C8.31248 9.91515 7.91181 10.8777 7.91181 12.0016C7.91181 12.8754 8.15531 13.66 8.64231 14.3553C9.12931 15.0506 9.75973 15.544 10.5336 15.8353C10.8242 15.9433 11.0287 16.1342 11.1471 16.4081C11.2652 16.6821 11.2703 16.9643 11.1623 17.2548C11.0545 17.5455 10.8636 17.7467 10.5896 17.8586C10.3157 17.9706 10.0335 17.9726 9.74281 17.8646C8.53698 17.4114 7.56615 16.6494 6.83031 15.5786C6.09448 14.5077 5.72656 13.3154 5.72656 12.0016Z" fill="black"/>
</svg>
