<svg width="24" height="24" viewBox="0 0 24 24" fill="none" xmlns="http://www.w3.org/2000/svg">
<path d="M11.9972 19.0707C11.0191 20.0489 9.84055 20.5379 8.46169 20.5379C7.08283 20.5379 5.9043 20.0488 4.92616 19.0707C3.94802 18.0925 3.45891 16.914 3.45891 15.5352C3.45891 14.1563 3.948 12.9778 4.92616 11.9996L7.04748 9.8783C7.2478 9.67798 7.4835 9.5778 7.75459 9.57778C8.02567 9.57776 8.26135 9.67796 8.46169 9.8783C8.66204 10.0786 8.76223 10.3143 8.76221 10.5854C8.76219 10.8565 8.66202 11.0922 8.46169 11.2925L6.34037 13.4138C5.75112 14.0031 5.45649 14.7102 5.45649 15.5352C5.45647 16.3601 5.75114 17.0672 6.34037 17.6565C6.9296 18.2457 7.63676 18.5404 8.46169 18.5404C9.28662 18.5403 9.99376 18.2457 10.583 17.6565L12.7043 15.5352C12.9047 15.3348 13.1403 15.2346 13.4114 15.2346C13.6825 15.2346 13.9182 15.3348 14.1185 15.5352C14.3189 15.7355 14.4191 15.9712 14.4191 16.2423C14.4191 16.5134 14.3189 16.749 14.1185 16.9494L11.9972 19.0707ZM10.583 14.828C10.3827 15.0284 10.147 15.1286 9.87591 15.1286C9.60482 15.1285 9.36912 15.0284 9.1688 14.828C8.96848 14.6277 8.8683 14.392 8.86828 14.1209C8.86826 13.8499 8.96845 13.6142 9.1688 13.4138L13.4114 9.1712C13.6118 8.97087 13.8474 8.87068 14.1185 8.87068C14.3897 8.87068 14.6253 8.97087 14.8257 9.1712C15.026 9.37152 15.1262 9.6072 15.1262 9.8783C15.1262 10.1494 15.026 10.3851 14.8257 10.5854L10.583 14.828ZM16.947 14.1209C16.7467 14.3213 16.511 14.4215 16.2399 14.4215C15.9688 14.4215 15.7331 14.3213 15.5328 14.1209C15.3324 13.9206 15.2322 13.6849 15.2322 13.4138C15.2322 13.1427 15.3324 12.9071 15.5328 12.7067L17.6541 10.5854C18.2433 9.99618 18.538 9.289 18.538 8.46409C18.538 7.63918 18.2433 6.932 17.6541 6.34277C17.0648 5.75354 16.3577 5.45888 15.5328 5.45888C14.7078 5.45886 14.0007 5.75354 13.4114 6.34277L11.2901 8.46409C11.0898 8.66441 10.8541 8.76459 10.583 8.76461C10.3119 8.76463 10.0763 8.66443 9.87591 8.46409C9.67556 8.26374 9.57536 8.02806 9.57539 7.75698C9.57541 7.4859 9.67558 7.2502 9.87591 7.04988L11.9972 4.92855C12.9754 3.95041 14.1539 3.46131 15.5328 3.46131C16.9116 3.46131 18.0902 3.95041 19.0683 4.92855C20.0464 5.9067 20.5355 7.08523 20.5355 8.46409C20.5355 9.84295 20.0464 11.0215 19.0683 11.9996L16.947 14.1209Z" fill="white"/>
</svg>
