<svg width="24" height="24" viewBox="0 0 24 24" fill="none" xmlns="http://www.w3.org/2000/svg">
<path d="M7 16.5C5.74879 16.5 4.69694 16.0648 3.81605 15.1839C2.93517 14.3031 2.5 13.2512 2.5 12C2.5 10.7488 2.93517 9.69694 3.81605 8.81605C4.69694 7.93516 5.74879 7.5 7 7.5H10C10.1574 7.5 10.2656 7.54777 10.359 7.64108C10.4522 7.73432 10.5 7.84255 10.5 8C10.5 8.15745 10.4522 8.26568 10.359 8.35892C10.2656 8.45223 10.1574 8.5 10 8.5H7C6.03558 8.5 5.19962 8.84328 4.52146 9.52144C3.84328 10.1996 3.5 11.0356 3.5 12C3.5 12.9644 3.84328 13.8004 4.52146 14.4786C5.19961 15.1567 6.03556 15.5 7 15.5H10C10.1574 15.5 10.2657 15.5478 10.3589 15.6411C10.4522 15.7343 10.5 15.8426 10.5 16C10.5 16.1574 10.4522 16.2657 10.3589 16.3589C10.2657 16.4522 10.1574 16.5 10 16.5H7ZM9 12.5C8.84255 12.5 8.73432 12.4522 8.64108 12.359C8.54777 12.2656 8.5 12.1574 8.5 12C8.5 11.8426 8.54777 11.7344 8.64108 11.641C8.73432 11.5478 8.84255 11.5 9 11.5H15C15.1574 11.5 15.2657 11.5478 15.3589 11.6411C15.4522 11.7343 15.5 11.8426 15.5 12C15.5 12.1574 15.4522 12.2657 15.3589 12.3589C15.2657 12.4522 15.1574 12.5 15 12.5H9ZM14 16.5C13.8426 16.5 13.7343 16.4522 13.6411 16.3589C13.5478 16.2657 13.5 16.1574 13.5 16C13.5 15.8426 13.5478 15.7343 13.6411 15.6411C13.7343 15.5478 13.8426 15.5 14 15.5H17C17.9644 15.5 18.8004 15.1567 19.4786 14.4786C20.1567 13.8004 20.5 12.9644 20.5 12C20.5 11.0356 20.1567 10.1996 19.4786 9.52145C18.8004 8.84328 17.9644 8.5 17 8.5H14C13.8426 8.5 13.7344 8.45223 13.641 8.35892C13.5478 8.26568 13.5 8.15745 13.5 8C13.5 7.84255 13.5478 7.73432 13.641 7.64108C13.7344 7.54777 13.8426 7.5 14 7.5H17C18.2512 7.5 19.3031 7.93516 20.1839 8.81605C21.0648 9.69694 21.5 10.7488 21.5 12C21.5 13.2512 21.0648 14.3031 20.1839 15.1839C19.3031 16.0648 18.2512 16.5 17 16.5H14Z" stroke="#808080"/>
</svg>
