<svg width="24" height="24" viewBox="0 0 24 24" fill="none" xmlns="http://www.w3.org/2000/svg">
<path d="M13.2414 22.6899C11.4375 22.6581 9.6822 22.6528 7.92939 22.5844C6.90215 22.5444 5.9464 22.2571 5.20191 21.4657C4.66977 20.9 4.36705 20.2331 4.28269 19.4785C3.97633 16.738 4.00546 13.9895 4.24092 11.2492C4.38708 9.54835 5.31764 8.4094 7.07905 7.99005C7.07905 7.29756 7.07829 6.60821 7.07918 5.91886C7.08267 3.21663 9.04917 1.02936 11.651 0.833161C14.3037 0.633125 16.6123 2.48044 16.965 5.1768C17.0841 6.08764 16.9839 7.02717 16.9839 7.93551C17.3841 8.0963 17.7515 8.20506 18.0811 8.38365C19.0448 8.90588 19.6485 9.73762 19.782 10.8086C20.1375 13.6601 20.1534 16.5293 19.8117 19.3772C19.5693 21.3972 18.3249 22.4333 16.2674 22.5814C15.2779 22.6526 14.2834 22.6559 13.2414 22.6899ZM9.06689 6.34278C9.06689 6.81773 9.06689 7.29267 9.06689 7.77077C11.076 7.77077 13.0356 7.77077 15.0229 7.77077C15.0229 7.00977 15.0715 6.26498 15.0136 5.52855C14.851 3.45774 12.6381 2.19976 10.7724 3.10802C9.46997 3.74209 8.99683 4.85195 9.06689 6.34278Z" fill="white"/>
</svg>
