<svg width="24" height="24" viewBox="0 0 24 24" fill="none" xmlns="http://www.w3.org/2000/svg">
<path d="M19.0559 10.6663C19.9194 10.9427 20.7655 11.2141 21.6115 11.4863C22.0111 11.6147 22.2549 11.8846 22.2591 12.2002C22.2658 12.7142 22.082 13.001 21.6233 13.1491C20.2454 13.5939 18.866 14.0347 17.4856 14.4717C16.2207 14.8723 15.3505 15.6633 14.8968 16.9347C14.3268 18.5311 13.7003 20.1073 13.114 21.698C12.9739 22.0781 12.7154 22.2876 12.3407 22.3288C11.9117 22.376 11.6463 22.1757 11.4808 21.7297C10.9664 20.3434 10.4583 18.955 9.94741 17.5674C9.84161 17.2801 9.73626 16.9926 9.62741 16.7064C9.23314 15.6699 8.51056 14.956 7.46427 14.6049C6.05081 14.1306 4.62579 13.6906 3.20498 13.2382C2.84298 13.123 2.502 13.0063 2.38291 12.5722C2.2527 12.0976 2.41673 11.698 2.88896 11.5327C3.41033 11.3502 3.94331 11.2012 4.46875 11.0299C5.50453 10.6924 6.54503 10.3677 7.57147 10.0035C8.51032 9.67043 9.16713 8.99101 9.56984 8.10289C9.92123 7.32798 10.1893 6.5149 10.4855 5.71547C10.8382 4.76367 11.1754 3.8061 11.5319 2.85576C11.692 2.42887 11.9199 2.28772 12.4753 2.34679C12.7666 2.37778 12.9946 2.57732 13.1071 2.89087C13.682 4.49382 14.291 6.0849 14.8447 7.69511C15.2592 8.9014 16.1021 9.62841 17.2594 10.0478C17.8492 10.2615 18.4454 10.4575 19.0559 10.6663Z" fill="black"/>
</svg>
