<svg width="24" height="24" viewBox="0 0 24 24" fill="none" xmlns="http://www.w3.org/2000/svg">
<path d="M13.6084 10.1577C14.208 10.3496 14.7956 10.5381 15.3831 10.7271C15.6606 10.8163 15.8299 11.0037 15.8328 11.2229C15.8375 11.5798 15.7098 11.779 15.3913 11.8818C14.4344 12.1907 13.4765 12.4968 12.5179 12.8003C11.6395 13.0785 11.0352 13.6278 10.7201 14.5107C10.3243 15.6193 9.88923 16.7139 9.48203 17.8186C9.38474 18.0825 9.20523 18.228 8.94501 18.2566C8.64713 18.2894 8.46281 18.1503 8.34788 17.8406C7.99069 16.8779 7.63782 15.9137 7.28303 14.9501C7.20956 14.7506 7.1364 14.5509 7.06081 14.3522C6.78701 13.6324 6.28522 13.1366 5.55863 12.8928C4.57706 12.5634 3.58746 12.2579 2.60079 11.9437C2.3494 11.8637 2.11261 11.7827 2.02991 11.4812C1.93948 11.1516 2.05339 10.8741 2.38133 10.7593C2.74339 10.6326 3.11352 10.5291 3.47841 10.4102C4.1977 10.1758 4.92027 9.9503 5.63307 9.69741C6.28505 9.46609 6.74117 8.99427 7.02083 8.37752C7.26485 7.83939 7.45103 7.27475 7.65673 6.71959C7.90164 6.05862 8.13579 5.39364 8.38335 4.73368C8.49456 4.43723 8.65283 4.33921 9.03848 4.38023C9.24082 4.40175 9.39913 4.54032 9.47723 4.75806C9.87653 5.87122 10.2994 6.97614 10.6839 8.09434C10.9718 8.93204 11.5571 9.43691 12.3608 9.72815C12.7704 9.87655 13.1844 10.0127 13.6084 10.1577Z" fill="black"/>
<path d="M18.4062 6.59699C18.1885 6.81129 18.1132 7.08196 18.0398 7.3537C17.9709 7.60896 17.9024 7.86438 17.8313 8.11904C17.7804 8.3014 17.6544 8.41875 17.5206 8.41438C17.3471 8.40871 17.2437 8.30917 17.1895 8.1033C17.1078 7.79252 17.0144 7.48451 16.9418 7.17167C16.8259 6.67246 16.5121 6.38407 16.0253 6.25995C15.719 6.18184 15.4154 6.09272 15.1104 6.00939C14.8904 5.94928 14.8117 5.8655 14.812 5.6886C14.8123 5.5118 14.8954 5.41701 15.1014 5.3557C15.4836 5.24195 15.8668 5.13104 16.2475 5.01233C16.5698 4.91183 16.774 4.68486 16.8755 4.37004C16.9835 4.03475 17.0772 3.6948 17.178 3.35715C17.1958 3.29764 17.2115 3.23618 17.2393 3.18129C17.3043 3.05317 17.4112 2.98931 17.5569 3.00146C17.6978 3.01323 17.7827 3.09229 17.822 3.2268C17.9237 3.57512 18.0317 3.92168 18.1285 4.27136C18.2362 4.6608 18.4871 4.90918 18.864 5.03133C19.2133 5.14455 19.5677 5.242 19.9171 5.35508C20.007 5.38417 20.104 5.42928 20.1669 5.49603C20.3138 5.65172 20.2065 5.94498 19.962 6.00976C19.6062 6.10406 19.2509 6.20443 18.9038 6.32596C18.731 6.38642 18.5768 6.49971 18.4062 6.59699Z" fill="black"/>
<path d="M19.6813 17.5612C19.3678 17.8698 19.2593 18.2595 19.1537 18.6508C19.0544 19.0184 18.9559 19.3862 18.8535 19.7529C18.7802 20.0155 18.5987 20.1845 18.406 20.1782C18.1562 20.1701 18.0073 20.0267 17.9293 19.7303C17.8115 19.2827 17.6771 18.8392 17.5725 18.3887C17.4056 17.6699 16.9538 17.2546 16.2528 17.0758C15.8117 16.9634 15.3746 16.835 14.9354 16.715C14.6185 16.6285 14.5052 16.5078 14.5056 16.2531C14.5061 15.9985 14.6257 15.862 14.9223 15.7737C15.4728 15.6099 16.0245 15.4502 16.5728 15.2793C17.0369 15.1345 17.3308 14.8077 17.477 14.3544C17.6326 13.8715 17.7674 13.382 17.9126 12.8958C17.9382 12.8101 17.9609 12.7216 18.001 12.6426C18.0945 12.4581 18.2485 12.3661 18.4582 12.3836C18.6612 12.4006 18.7835 12.5144 18.84 12.7081C18.9865 13.2097 19.142 13.7087 19.2814 14.2123C19.4365 14.7731 19.7977 15.1307 20.3405 15.3066C20.8435 15.4697 21.3539 15.61 21.857 15.7728C21.9864 15.8147 22.126 15.8797 22.2167 15.9758C22.4283 16.2 22.2736 16.6223 21.9216 16.7156C21.4092 16.8514 20.8977 16.9959 20.3978 17.1709C20.1491 17.258 19.927 17.4211 19.6813 17.5612Z" fill="black"/>
</svg>
