<svg width="24" height="24" viewBox="0 0 24 24" fill="none" xmlns="http://www.w3.org/2000/svg">
<path d="M4.07187 20.2031C3.44221 20.2031 2.90563 19.9814 2.46213 19.5379C2.01863 19.0944 1.79688 18.5578 1.79688 17.9281V6.07163C1.79688 5.44196 2.01863 4.90538 2.46213 4.46188C2.90563 4.01838 3.44221 3.79663 4.07187 3.79663H19.9284C20.558 3.79663 21.0946 4.01838 21.5381 4.46188C21.9816 4.90538 22.2034 5.44196 22.2034 6.07163V17.9281C22.2034 18.5578 21.9816 19.0944 21.5381 19.5379C21.0946 19.9814 20.558 20.2031 19.9284 20.2031H4.07187ZM12.0001 13.0521C12.0995 13.0521 12.2009 13.0376 12.3044 13.0086C12.408 12.9796 12.5075 12.9361 12.6029 12.8781L19.4926 8.53088C19.6298 8.44755 19.7367 8.33738 19.8134 8.20038C19.89 8.06338 19.9284 7.91196 19.9284 7.74613C19.9284 7.3888 19.7738 7.11788 19.4646 6.93338C19.1553 6.74871 18.8367 6.75805 18.5089 6.96138L12.0001 11.0716L5.49138 6.96138C5.16754 6.76205 4.84996 6.75488 4.53862 6.93988C4.22746 7.12488 4.07187 7.39363 4.07187 7.74613C4.07187 7.92863 4.11021 8.08738 4.18687 8.22238C4.26354 8.35738 4.37046 8.46021 4.50763 8.53088L11.3974 12.8781C11.4927 12.9361 11.5922 12.9796 11.6959 13.0086C11.7994 13.0376 11.9008 13.0521 12.0001 13.0521Z" fill="black"/>
</svg>
