<svg width="24" height="24" viewBox="0 0 24 24" fill="none" xmlns="http://www.w3.org/2000/svg">
<path d="M6.13009 15.0323L5.36584 17.1498C5.29518 17.3449 5.17893 17.4975 5.01709 17.6075C4.85509 17.7175 4.67443 17.7725 4.47509 17.7725C4.13459 17.7725 3.86984 17.6333 3.68084 17.355C3.49184 17.0768 3.45768 16.7841 3.57834 16.4768L6.97459 7.3785C7.04526 7.17917 7.16776 7.01933 7.34209 6.899C7.51626 6.77883 7.70501 6.71875 7.90834 6.71875H8.66209C8.86543 6.71875 9.05734 6.77792 9.23784 6.89625C9.41851 7.01442 9.54418 7.17317 9.61484 7.3725L13.0228 16.5018C13.1435 16.8091 13.1073 17.0977 12.9141 17.3675C12.7208 17.6375 12.4601 17.7725 12.1321 17.7725C11.9329 17.7725 11.7513 17.7133 11.5873 17.595C11.4233 17.4767 11.306 17.3199 11.2353 17.1248L10.4963 15.0323H6.13009ZM6.72884 13.2888H9.86034L8.33209 8.93H8.23809L6.72884 13.2888ZM16.7056 18.0285C15.8556 18.0285 15.1736 17.7923 14.6596 17.32C14.1456 16.8477 13.8886 16.2326 13.8886 15.4748C13.8886 14.7254 14.1811 14.1103 14.7661 13.6293C15.3511 13.1483 16.1056 12.9078 17.0296 12.9078C17.4129 12.9078 17.7859 12.9411 18.1486 13.0078C18.5113 13.0744 18.8199 13.1681 19.0746 13.2888V12.929C19.0746 12.4815 18.9088 12.1148 18.5771 11.8288C18.2454 11.5428 17.8162 11.3998 17.2893 11.3998C17.0472 11.3998 16.8103 11.4353 16.5786 11.5063C16.3469 11.5773 16.1331 11.6798 15.9371 11.8138C15.6926 11.9764 15.4695 12.0278 15.2678 11.9678C15.0662 11.9079 14.905 11.8033 14.7843 11.654C14.6637 11.5047 14.6073 11.3314 14.6153 11.1343C14.6233 10.9369 14.725 10.7716 14.9203 10.6383C15.2655 10.3796 15.6494 10.1888 16.0721 10.0658C16.4948 9.94275 16.9248 9.88125 17.3621 9.88125C18.4881 9.88125 19.3414 10.16 19.9221 10.7175C20.5028 11.2752 20.7931 12.0857 20.7931 13.149V16.9855C20.7931 17.2222 20.7079 17.4224 20.5376 17.5863C20.3673 17.7503 20.1638 17.8323 19.9273 17.8323C19.6907 17.8323 19.4894 17.7471 19.3236 17.5768C19.1576 17.4066 19.0746 17.2052 19.0746 16.9725V16.8775H18.9806C18.7553 17.2488 18.4406 17.5335 18.0366 17.7315C17.6326 17.9295 17.1889 18.0285 16.7056 18.0285ZM17.0653 16.5708C17.6287 16.5708 18.1076 16.3788 18.5021 15.9948C18.8964 15.6108 19.0936 15.158 19.0936 14.6365C18.8803 14.5152 18.622 14.422 18.3188 14.357C18.0158 14.292 17.704 14.2595 17.3833 14.2595C16.85 14.2595 16.4373 14.3672 16.1453 14.5825C15.8532 14.798 15.7071 15.0914 15.7071 15.4628C15.7071 15.7841 15.8355 16.0491 16.0923 16.2578C16.349 16.4664 16.6733 16.5708 17.0653 16.5708Z" fill="black"/>
</svg>
