<svg width="24" height="24" viewBox="0 0 24 24" fill="none" xmlns="http://www.w3.org/2000/svg">
<path d="M3.93437 18.293C3.61521 18.293 3.34579 18.1832 3.12612 17.9635C2.90662 17.744 2.79688 17.4747 2.79688 17.1555C2.79688 16.8364 2.90662 16.5669 3.12612 16.3473C3.34579 16.1278 3.61521 16.018 3.93437 16.018H20.0659C20.385 16.018 20.6545 16.1278 20.8741 16.3473C21.0936 16.5669 21.2034 16.8364 21.2034 17.1555C21.2034 17.4747 21.0936 17.744 20.8741 17.9635C20.6545 18.1832 20.385 18.293 20.0659 18.293H3.93437ZM3.93437 13.1375C3.61521 13.1375 3.34579 13.0278 3.12612 12.8083C2.90662 12.5886 2.79688 12.3192 2.79688 12C2.79688 11.6809 2.90662 11.4114 3.12612 11.1918C3.34579 10.9723 3.61521 10.8625 3.93437 10.8625H20.0659C20.385 10.8625 20.6545 10.9723 20.8741 11.1918C21.0936 11.4114 21.2034 11.6809 21.2034 12C21.2034 12.3192 21.0936 12.5886 20.8741 12.8083C20.6545 13.0278 20.385 13.1375 20.0659 13.1375H3.93437ZM3.93437 7.98203C3.61521 7.98203 3.34579 7.87228 3.12612 7.65278C2.90662 7.43311 2.79688 7.1637 2.79688 6.84453C2.79688 6.52536 2.90662 6.25603 3.12612 6.03653C3.34579 5.81686 3.61521 5.70703 3.93437 5.70703H20.0659C20.385 5.70703 20.6545 5.81686 20.8741 6.03653C21.0936 6.25603 21.2034 6.52536 21.2034 6.84453C21.2034 7.1637 21.0936 7.43311 20.8741 7.65278C20.6545 7.87228 20.385 7.98203 20.0659 7.98203H3.93437Z" fill="black"/>
</svg>
