<svg width="24" height="24" viewBox="0 0 24 24" fill="none" xmlns="http://www.w3.org/2000/svg">
<path d="M12.9978 17.2707C13.7311 16.9207 14.4686 16.6582 15.2102 16.4832C15.9519 16.3082 16.7144 16.2207 17.4977 16.2207C18.0977 16.2207 18.6852 16.2707 19.2602 16.3707C19.8352 16.4707 20.4144 16.6207 20.9977 16.8207V6.92066C20.4477 6.68732 19.8769 6.51232 19.2852 6.39566C18.6936 6.27899 18.0977 6.22066 17.4977 6.22066C16.7144 6.22066 15.9394 6.32066 15.1727 6.52066C14.4061 6.72066 13.6811 7.02066 12.9978 7.42066V17.2707ZM12.0158 19.8989C11.7784 19.8989 11.5496 19.8697 11.3293 19.8114C11.1089 19.7531 10.9051 19.6699 10.7177 19.5619C10.0717 19.1826 9.39308 18.8941 8.68175 18.6964C7.97025 18.4987 7.24225 18.3999 6.49775 18.3999C5.81142 18.3999 5.13725 18.4926 4.47525 18.6779C3.81342 18.8632 3.17817 19.1186 2.5695 19.4439C2.16367 19.6552 1.76933 19.6457 1.3865 19.4152C1.00383 19.1845 0.8125 18.8482 0.8125 18.4064V6.36241C0.8125 6.12324 0.86925 5.89807 0.98275 5.68691C1.09642 5.47557 1.26683 5.31707 1.494 5.21141C2.28133 4.82807 3.0905 4.53624 3.9215 4.33591C4.75233 4.13541 5.60492 4.03516 6.47925 4.03516C7.45425 4.03516 8.40625 4.16016 9.33525 4.41016C10.2643 4.66016 11.1518 5.04116 11.9978 5.55316C12.8478 5.04516 13.7362 4.66516 14.6632 4.41316C15.5902 4.16116 16.5412 4.03516 17.5162 4.03516C18.3906 4.03516 19.2432 4.13541 20.074 4.33591C20.905 4.53624 21.7142 4.82807 22.5015 5.21141C22.7287 5.31707 22.8991 5.47557 23.0127 5.68691C23.1262 5.89807 23.183 6.12324 23.183 6.36241V18.4962C23.183 18.9233 22.9927 19.2419 22.612 19.4519C22.2312 19.6619 21.8358 19.6592 21.426 19.4439C20.8173 19.1186 20.1821 18.8632 19.5203 18.6779C18.8583 18.4926 18.1841 18.3999 17.4977 18.3999C16.7557 18.3999 16.0334 18.4997 15.3307 18.6994C14.6279 18.8991 13.9555 19.1866 13.3135 19.5619C13.1262 19.6699 12.9223 19.7531 12.702 19.8114C12.4818 19.8697 12.2531 19.8989 12.0158 19.8989ZM13.9977 8.98366C13.9977 8.83749 14.0499 8.68724 14.1542 8.53291C14.2586 8.37874 14.3774 8.27666 14.5108 8.22666C14.9941 8.05999 15.4794 7.93399 15.9667 7.84866C16.4541 7.76332 16.9644 7.72066 17.4977 7.72066C17.8311 7.72066 18.1602 7.74157 18.4852 7.78341C18.8102 7.82541 19.1311 7.87999 19.4477 7.94716C19.5977 7.98066 19.7269 8.06449 19.8352 8.19866C19.9436 8.33282 19.9977 8.48382 19.9977 8.65166C19.9977 8.93499 19.9061 9.14232 19.7227 9.27366C19.5394 9.40499 19.3061 9.43732 19.0227 9.37066C18.7854 9.32066 18.5396 9.28316 18.2852 9.25816C18.0309 9.23316 17.7684 9.22066 17.4977 9.22066C17.0644 9.22066 16.6414 9.26132 16.2287 9.34266C15.8161 9.42399 15.4181 9.53132 15.0347 9.66466C14.7312 9.78132 14.4825 9.77266 14.2885 9.63866C14.0947 9.50466 13.9977 9.28632 13.9977 8.98366ZM13.9977 14.4837C13.9977 14.3375 14.0499 14.1872 14.1542 14.0329C14.2586 13.8787 14.3774 13.7767 14.5108 13.7267C14.9941 13.56 15.4794 13.434 15.9667 13.3487C16.4541 13.2633 16.9644 13.2207 17.4977 13.2207C17.8311 13.2207 18.1602 13.2416 18.4852 13.2834C18.8102 13.3254 19.1311 13.38 19.4477 13.4472C19.5977 13.4807 19.7269 13.5645 19.8352 13.6987C19.9436 13.8328 19.9977 13.9838 19.9977 14.1517C19.9977 14.435 19.9061 14.6423 19.7227 14.7737C19.5394 14.905 19.3061 14.9373 19.0227 14.8707C18.7854 14.8207 18.5396 14.7832 18.2852 14.7582C18.0309 14.7332 17.7684 14.7207 17.4977 14.7207C17.0644 14.7207 16.6414 14.7572 16.2287 14.8302C15.8161 14.9032 15.4181 15.0063 15.0347 15.1397C14.7312 15.2563 14.4825 15.2518 14.2885 15.1262C14.0947 15.0007 13.9977 14.7865 13.9977 14.4837ZM13.9977 11.7337C13.9977 11.5875 14.0499 11.4372 14.1542 11.2829C14.2586 11.1287 14.3774 11.0267 14.5108 10.9767C14.9941 10.81 15.4794 10.684 15.9667 10.5987C16.4541 10.5133 16.9644 10.4707 17.4977 10.4707C17.8311 10.4707 18.1602 10.4916 18.4852 10.5334C18.8102 10.5754 19.1311 10.63 19.4477 10.6972C19.5977 10.7307 19.7269 10.8145 19.8352 10.9487C19.9436 11.0828 19.9977 11.2338 19.9977 11.4017C19.9977 11.685 19.9061 11.8923 19.7227 12.0237C19.5394 12.155 19.3061 12.1873 19.0227 12.1207C18.7854 12.0707 18.5396 12.0332 18.2852 12.0082C18.0309 11.9832 17.7684 11.9707 17.4977 11.9707C17.0644 11.9707 16.6414 12.0113 16.2287 12.0927C15.8161 12.174 15.4181 12.2813 15.0347 12.4147C14.7312 12.5313 14.4825 12.5227 14.2885 12.3887C14.0947 12.2547 13.9977 12.0363 13.9977 11.7337Z" fill="black"/>
</svg>
