<svg width="24" height="24" viewBox="0 0 24 24" fill="none" xmlns="http://www.w3.org/2000/svg">
<path d="M12.0002 14.2758C11.103 14.2758 10.3408 13.9622 9.71367 13.335C9.0865 12.7079 8.77292 11.9457 8.77292 11.0485V5.09053C8.77292 4.19337 9.0865 3.4312 9.71367 2.80403C10.3408 2.17686 11.103 1.86328 12.0002 1.86328C12.8973 1.86328 13.6595 2.17686 14.2867 2.80403C14.9138 3.4312 15.2274 4.19337 15.2274 5.09053V11.0485C15.2274 11.9457 14.9138 12.7079 14.2867 13.335C13.6595 13.9622 12.8973 14.2758 12.0002 14.2758ZM10.9104 20.2758V18.2665C9.32142 18.0459 7.96209 17.3739 6.83242 16.2508C5.70292 15.1276 5.0155 13.7651 4.77017 12.1633C4.729 11.8561 4.81 11.5935 5.01317 11.3755C5.2165 11.1575 5.47175 11.0485 5.77892 11.0485C6.08625 11.0485 6.34667 11.1544 6.56017 11.366C6.77384 11.5775 6.918 11.8369 6.99267 12.1443C7.24584 13.3269 7.84392 14.2943 8.78692 15.0463C9.72975 15.7981 10.8008 16.174 12.0002 16.174C13.2162 16.174 14.2914 15.7939 15.2259 15.0338C16.1606 14.2734 16.7545 13.3103 17.0077 12.1443C17.0823 11.8369 17.2265 11.5775 17.4402 11.366C17.6537 11.1544 17.9141 11.0485 18.2214 11.0485C18.5286 11.0485 18.7828 11.1585 18.9842 11.3785C19.1855 11.5984 19.2655 11.8619 19.2242 12.1693C18.9788 13.7378 18.2966 15.0909 17.1774 16.2288C16.0581 17.3666 14.6956 18.0459 13.0899 18.2665V20.2758C13.0899 20.5831 12.9851 20.8415 12.7754 21.051C12.5658 21.2607 12.3073 21.3655 12.0002 21.3655C11.693 21.3655 11.4346 21.2607 11.2249 21.051C11.0153 20.8415 10.9104 20.5831 10.9104 20.2758Z" fill="white"/>
</svg>
