<svg width="16" height="16" viewBox="0 0 16 16" fill="none" xmlns="http://www.w3.org/2000/svg">
<mask id="mask0_7641_5819" style="mask-type:luminance" maskUnits="userSpaceOnUse" x="0" y="0" width="16" height="16">
<path d="M15.5295 0.470703H0.470703V15.5295H15.5295V0.470703Z" fill="white"/>
</mask>
<g mask="url(#mask0_7641_5819)">
<path fill-rule="evenodd" clip-rule="evenodd" d="M7.6241 2.35306H8.37704C9.33054 2.35306 9.93243 2.35452 10.3873 2.39168C10.8202 2.42705 10.9517 2.48515 10.9945 2.50693C11.2601 2.64228 11.4761 2.85825 11.6114 3.12389C11.6331 3.16663 11.6913 3.29811 11.7267 3.731C11.7638 4.18587 11.7653 4.78779 11.7653 5.74129V10.2589C11.7653 11.2124 11.7638 11.8143 11.7267 12.2692C11.6913 12.7021 11.6331 12.8336 11.6114 12.8764C11.4761 13.142 11.2601 13.358 10.9945 13.4933C10.9517 13.515 10.8202 13.5732 10.3873 13.6086C9.93243 13.6457 9.33054 13.6472 8.37704 13.6472H7.6241C6.67061 13.6472 6.06869 13.6457 5.61382 13.6086C5.18092 13.5732 5.04944 13.515 5.0067 13.4933C4.74106 13.358 4.52509 13.142 4.38974 12.8764C4.36796 12.8336 4.30986 12.7021 4.27449 12.2692C4.23734 11.8143 4.23587 11.2124 4.23587 10.2589V5.74129C4.23587 4.78779 4.23734 4.18587 4.27449 3.731C4.30986 3.29811 4.36796 3.16663 4.38974 3.12389C4.52509 2.85825 4.74106 2.64228 5.0067 2.50693C5.04944 2.48515 5.18092 2.42705 5.61382 2.39168C6.06869 2.35452 6.67061 2.35306 7.6241 2.35306ZM2.35352 5.74129C2.35352 3.89642 2.35352 2.97397 2.71256 2.26932C3.02837 1.6495 3.53231 1.14555 4.15213 0.82974C4.85678 0.470703 5.77923 0.470703 7.6241 0.470703H8.37704C10.2219 0.470703 11.1444 0.470703 11.849 0.82974C12.4688 1.14555 12.9728 1.6495 13.2886 2.26932C13.6476 2.97397 13.6476 3.89642 13.6476 5.74129V10.2589C13.6476 12.1038 13.6476 13.0263 13.2886 13.7309C12.9728 14.3507 12.4688 14.8547 11.849 15.1705C11.1444 15.5295 10.2219 15.5295 8.37704 15.5295H7.6241C5.77923 15.5295 4.85678 15.5295 4.15213 15.1705C3.53231 14.8547 3.02837 14.3507 2.71256 13.7309C2.35352 13.0263 2.35352 12.1038 2.35352 10.2589V5.74129ZM7.0594 3.29423C6.53961 3.29423 6.11822 3.71562 6.11822 4.23541C6.11822 4.7552 6.53961 5.17659 7.0594 5.17659H8.94175C9.46156 5.17659 9.88293 4.7552 9.88293 4.23541C9.88293 3.71562 9.46156 3.29423 8.94175 3.29423H7.0594Z" fill="white"/>
</g>
</svg>
