<svg width="24" height="24" viewBox="0 0 24 24" fill="none" xmlns="http://www.w3.org/2000/svg">
<path d="M4 18C3.45 18 2.97917 17.8042 2.5875 17.4125C2.19583 17.0208 2 16.55 2 16V5C2 4.45 2.19583 3.97917 2.5875 3.5875C2.97917 3.19583 3.45 3 4 3H20C20.55 3 21.0208 3.19583 21.4125 3.5875C21.8042 3.97917 22 4.45 22 5V16C22 16.55 21.8042 17.0208 21.4125 17.4125C21.0208 17.8042 20.55 18 20 18H17L17.7 18.7C17.8 18.8 17.875 18.9125 17.925 19.0375C17.975 19.1625 18 19.2917 18 19.425V20C18 20.2833 17.9042 20.5208 17.7125 20.7125C17.5208 20.9042 17.2833 21 17 21H7C6.71667 21 6.47917 20.9042 6.2875 20.7125C6.09583 20.5208 6 20.2833 6 20V19.425C6 19.2917 6.025 19.1625 6.075 19.0375C6.125 18.9125 6.2 18.8 6.3 18.7L7 18H4Z" fill="black"/>
</svg>
