<svg width="24" height="24" viewBox="0 0 24 24" fill="none" xmlns="http://www.w3.org/2000/svg">
<path d="M5.81686 14.0897C5.24119 14.0897 4.74861 13.885 4.33911 13.4757C3.92944 13.0665 3.72461 12.5746 3.72461 11.9999C3.72461 11.4221 3.92919 10.9293 4.33836 10.5217C4.74769 10.114 5.23969 9.91016 5.81436 9.91016C6.39069 9.91016 6.88403 10.114 7.29436 10.5217C7.70469 10.9293 7.90986 11.4211 7.90986 11.9969C7.90986 12.5727 7.70494 13.0655 7.29511 13.4752C6.88511 13.8848 6.39236 14.0897 5.81686 14.0897ZM12.0026 14.0897C11.4268 14.0897 10.934 13.885 10.5244 13.4757C10.1147 13.0665 9.90986 12.5746 9.90986 11.9999C9.90986 11.4221 10.1145 10.9293 10.5239 10.5217C10.933 10.114 11.4249 9.91016 11.9996 9.91016C12.5774 9.91016 13.0702 10.114 13.4779 10.5217C13.8855 10.9293 14.0894 11.4211 14.0894 11.9969C14.0894 12.5727 13.8855 13.0655 13.4779 13.4752C13.0702 13.8848 12.5784 14.0897 12.0026 14.0897ZM18.1866 14.0897C17.6098 14.0897 17.116 13.885 16.7054 13.4757C16.2947 13.0665 16.0894 12.5746 16.0894 11.9999C16.0894 11.4221 16.2947 10.9293 16.7054 10.5217C17.116 10.114 17.6098 9.91016 18.1866 9.91016C18.7634 9.91016 19.2556 10.114 19.6631 10.5217C20.0708 10.9293 20.2746 11.4211 20.2746 11.9969C20.2746 12.5727 20.0708 13.0655 19.6631 13.4752C19.2556 13.8848 18.7634 14.0897 18.1866 14.0897Z" fill="black"/>
</svg>
