<svg width="24" height="24" viewBox="0 0 24 24" fill="none" xmlns="http://www.w3.org/2000/svg">
<path d="M4.07187 18.1629C3.44221 18.1629 2.90563 17.9411 2.46213 17.4976C2.01863 17.0541 1.79688 16.5175 1.79688 15.8879V8.10313C1.79688 7.47329 2.01863 6.93662 2.46213 6.49312C2.90563 6.04979 3.44221 5.82812 4.07187 5.82812H11.8566C12.4863 5.82812 13.0229 6.04979 13.4664 6.49312C13.9099 6.93662 14.1316 7.47329 14.1316 8.10313V15.8879C14.1316 16.5175 13.9099 17.0541 13.4664 17.4976C13.0229 17.9411 12.4863 18.1629 11.8566 18.1629H4.07187ZM17.0301 18.1629C16.7108 18.1629 16.4414 18.053 16.2219 17.8334C16.0024 17.6139 15.8926 17.3445 15.8926 17.0254C15.8926 16.706 16.0024 16.4366 16.2219 16.2171C16.4414 15.9976 16.7108 15.8879 17.0301 15.8879C17.3493 15.8879 17.6186 15.9976 17.8381 16.2171C18.0578 16.4366 18.1676 16.706 18.1676 17.0254C18.1676 17.3445 18.0578 17.6139 17.8381 17.8334C17.6186 18.053 17.3493 18.1629 17.0301 18.1629ZM21.0659 18.1629C20.7467 18.1629 20.4773 18.053 20.2576 17.8334C20.0381 17.6139 19.9284 17.3445 19.9284 17.0254C19.9284 16.706 20.0381 16.4366 20.2576 16.2171C20.4773 15.9976 20.7467 15.8879 21.0659 15.8879C21.385 15.8879 21.6545 15.9976 21.8741 16.2171C22.0936 16.4366 22.2034 16.706 22.2034 17.0254C22.2034 17.3445 22.0936 17.6139 21.8741 17.8334C21.6545 18.053 21.385 18.1629 21.0659 18.1629ZM21.0659 13.1329C20.7467 13.1329 20.4773 13.0231 20.2576 12.8036C20.0381 12.584 19.9284 12.3145 19.9284 11.9954C19.9284 11.6762 20.0381 11.4068 20.2576 11.1871C20.4773 10.9676 20.7467 10.8579 21.0659 10.8579C21.385 10.8579 21.6545 10.9676 21.8741 11.1871C22.0936 11.4068 22.2034 11.6762 22.2034 11.9954C22.2034 12.3145 22.0936 12.584 21.8741 12.8036C21.6545 13.0231 21.385 13.1329 21.0659 13.1329ZM21.0659 8.10313C20.7467 8.10313 20.4773 7.99329 20.2576 7.77363C20.0381 7.55413 19.9284 7.28479 19.9284 6.96563C19.9284 6.64629 20.0381 6.37687 20.2576 6.15737C20.4773 5.93787 20.7467 5.82812 21.0659 5.82812C21.385 5.82812 21.6545 5.93787 21.8741 6.15737C22.0936 6.37687 22.2034 6.64629 22.2034 6.96563C22.2034 7.28479 22.0936 7.55413 21.8741 7.77363C21.6545 7.99329 21.385 8.10313 21.0659 8.10313ZM17.0301 8.10313C16.7108 8.10313 16.4414 7.99329 16.2219 7.77363C16.0024 7.55413 15.8926 7.28479 15.8926 6.96563C15.8926 6.64629 16.0024 6.37687 16.2219 6.15737C16.4414 5.93787 16.7108 5.82812 17.0301 5.82812C17.3493 5.82812 17.6186 5.93787 17.8381 6.15737C18.0578 6.37687 18.1676 6.64629 18.1676 6.96563C18.1676 7.28479 18.0578 7.55413 17.8381 7.77363C17.6186 7.99329 17.3493 8.10313 17.0301 8.10313Z" fill="black"/>
</svg>
