<svg width="24" height="25" viewBox="0 0 24 25" fill="none" xmlns="http://www.w3.org/2000/svg">
<path d="M4.72539 19.8504C4.29206 19.8504 3.92122 19.6962 3.61289 19.3879C3.30456 19.0796 3.15039 18.7087 3.15039 18.2754C3.15039 17.8421 3.30456 17.4712 3.61289 17.1629C3.92122 16.8546 4.29206 16.7004 4.72539 16.7004H4.85039V10.5504C4.85039 8.95039 5.31289 7.50872 6.23789 6.22539C7.16289 4.94206 8.39206 4.10872 9.92539 3.72539V3.22539C9.92539 2.64206 10.1254 2.15039 10.5254 1.75039C10.9254 1.35039 11.4171 1.15039 12.0004 1.15039C12.5837 1.15039 13.0754 1.35039 13.4754 1.75039C13.8754 2.15039 14.0754 2.64206 14.0754 3.22539V3.72539C15.6254 4.10872 16.8587 4.93789 17.7754 6.21289C18.6921 7.48789 19.1504 8.93372 19.1504 10.5504V16.7004H19.2754C19.7087 16.7004 20.0796 16.8546 20.3879 17.1629C20.6962 17.4712 20.8504 17.8421 20.8504 18.2754C20.8504 18.7087 20.6962 19.0796 20.3879 19.3879C20.0796 19.6962 19.7087 19.8504 19.2754 19.8504H4.72539ZM12.0254 23.1254C11.3921 23.1254 10.8504 22.9046 10.4004 22.4629C9.95039 22.0212 9.72539 21.4837 9.72539 20.8504H14.3004C14.3004 21.4837 14.0796 22.0212 13.6379 22.4629C13.1962 22.9046 12.6587 23.1254 12.0254 23.1254Z" stroke="white" stroke-width="2"/>
</svg>
