<svg width="58" height="58" viewBox="0 0 58 58" fill="none" xmlns="http://www.w3.org/2000/svg">
<path d="M28.3228 47.6108C23.5483 47.6108 19.1729 46.3739 15.1966 43.8999C11.2208 41.4255 8.07721 37.9946 5.76577 33.6072C5.51051 33.0967 5.31907 32.5754 5.19144 32.0432C5.06381 31.511 5 30.9682 5 30.4148C5 29.8191 5.06146 29.2377 5.18438 28.6707C5.30777 28.1036 5.50157 27.5649 5.76577 27.0544C8.07721 22.667 11.2208 19.2361 15.1966 16.7617C19.1729 14.2878 23.5483 13.0508 28.3228 13.0508C33.0973 13.0508 37.4728 14.2878 41.4491 16.7617C45.4248 19.2361 48.5684 22.667 50.8798 27.0544C51.1442 27.5649 51.3377 28.0919 51.4611 28.6353C51.5841 29.1788 51.6456 29.744 51.6456 30.3308C51.6456 30.9176 51.5841 31.4827 51.4611 32.0262C51.3377 32.5697 51.1442 33.0967 50.8798 33.6072C48.5684 37.9946 45.4248 41.4255 41.4491 43.8999C37.4728 46.3739 33.0973 47.6108 28.3228 47.6108ZM28.3228 39.3244C30.8189 39.3244 32.9417 38.4493 34.6913 36.6993C36.4413 34.9497 37.3164 32.8268 37.3164 30.3308C37.3164 27.8347 36.4413 25.7119 34.6913 23.9623C32.9417 22.2122 30.8189 21.3372 28.3228 21.3372C25.8268 21.3372 23.7039 22.2122 21.9543 23.9623C20.2043 25.7119 19.3292 27.8347 19.3292 30.3308C19.3292 32.8268 20.2043 34.9497 21.9543 36.6993C23.7039 38.4493 25.8268 39.3244 28.3228 39.3244ZM28.3214 35.0858C26.9999 35.0858 25.8774 34.6233 24.9538 33.6983C24.0298 32.7734 23.5678 31.6504 23.5678 30.3294C23.5678 29.0079 24.0303 27.8854 24.9553 26.9618C25.8802 26.0378 27.0032 25.5758 28.3242 25.5758C29.6457 25.5758 30.7682 26.0383 31.6918 26.9632C32.6158 27.8882 33.0778 29.0112 33.0778 30.3322C33.0778 31.6537 32.6153 32.7762 31.6904 33.6998C30.7654 34.6238 29.6424 35.0858 28.3214 35.0858Z" fill="black"/>
</svg>
