<svg width="28" height="28" viewBox="0 0 28 28" fill="none" xmlns="http://www.w3.org/2000/svg">
<path d="M19.2471 17.3286L22.6484 13.9273C23.668 12.9077 23.6416 11.6948 22.6045 10.6314L22.1035 10.1216C21.1895 11.2905 18.5879 12.688 18.0957 12.1958C18.0166 12.1167 18.0078 11.9585 18.1221 11.8355C19.168 10.7896 19.8799 9.74367 20.0381 8.07375L15.5381 3.55617C14.624 2.6509 13.1035 3.00246 12.6816 4.63723C12.1016 6.87844 11.6094 8.21438 11.1436 9.22512L19.2471 17.3286ZM5.68555 23.0943C7.0918 24.5093 8.9375 24.5269 10.3262 23.1294C11.3721 22.0923 12.374 19.7984 13.1563 18.5679L15.1953 20.6157C15.8897 21.3189 16.7334 21.3189 17.4014 20.6421L18.1484 19.895C18.834 19.2007 18.8164 18.4009 18.1133 17.6978L11.082 10.6577C10.3701 9.95461 9.56153 9.94582 8.86719 10.6314L8.12891 11.3696C7.45215 12.0464 7.45215 12.8814 8.15528 13.5845L10.1943 15.6236C8.97266 16.397 6.67871 17.4077 5.64161 18.4448C4.24414 19.8423 4.26172 21.6792 5.68555 23.0943ZM8.08496 21.8374C7.50489 21.8374 7.03028 21.3628 7.03028 20.7827C7.03028 20.2027 7.50489 19.728 8.08496 19.728C8.66504 19.728 9.13086 20.2027 9.13086 20.7827C9.13086 21.3628 8.66504 21.8374 8.08496 21.8374Z" fill="white"/>
</svg>
