<svg width="28" height="28" viewBox="0 0 28 28" fill="none" xmlns="http://www.w3.org/2000/svg">
<path d="M22.6484 13.9273L19.2471 17.3286L11.1436 9.22512C11.6094 8.21438 12.1016 6.87844 12.6816 4.63723C13.1035 3.00246 14.624 2.6509 15.5381 3.55617L20.0381 8.07375C19.8799 9.74367 19.168 10.7896 18.1221 11.8355C18.0078 11.9585 18.0166 12.1167 18.0957 12.1958C18.5879 12.688 21.1895 11.2905 22.1035 10.1216L22.6045 10.6314C23.6416 11.6948 23.668 12.9077 22.6484 13.9273Z" stroke="white" stroke-width="2"/>
<path d="M10.3262 23.1294C8.9375 24.5269 7.0918 24.5093 5.68555 23.0943C4.26172 21.6792 4.24414 19.8423 5.64161 18.4448C6.67871 17.4077 8.97266 16.397 10.1943 15.6236L8.15528 13.5845C7.45215 12.8814 7.45215 12.0464 8.12891 11.3696L8.86719 10.6314C9.56153 9.94582 10.3701 9.95461 11.082 10.6577L18.1133 17.6978C18.8164 18.4009 18.834 19.2007 18.1484 19.895L17.4014 20.6421C16.7334 21.3189 15.8897 21.3189 15.1953 20.6157L13.1563 18.5679C12.374 19.7984 11.3721 22.0923 10.3262 23.1294Z" stroke="white" stroke-width="2"/>
</svg>
