<svg width="24" height="25" viewBox="0 0 24 25" fill="none" xmlns="http://www.w3.org/2000/svg">
<path d="M12 22.3999C10.6333 22.3999 9.34167 22.1374 8.125 21.6124C6.90833 21.0874 5.84583 20.3707 4.9375 19.4624C4.02917 18.5541 3.3125 17.4916 2.7875 16.2749C2.2625 15.0582 2 13.7666 2 12.3999C2 11.0166 2.27083 9.71657 2.8125 8.4999C3.35417 7.28324 4.0875 6.2249 5.0125 5.3249C5.9375 4.4249 7.01667 3.7124 8.25 3.1874C9.48333 2.6624 10.8 2.3999 12.2 2.3999C13.5333 2.3999 14.7917 2.62907 15.975 3.0874C17.1583 3.54574 18.1958 4.17907 19.0875 4.9874C19.9792 5.79574 20.6875 6.75407 21.2125 7.8624C21.7375 8.97074 22 10.1666 22 11.4499C22 13.3666 21.4167 14.8374 20.25 15.8624C19.0833 16.8874 17.6667 17.3999 16 17.3999H14.15C14 17.3999 13.8958 17.4416 13.8375 17.5249C13.7792 17.6082 13.75 17.6999 13.75 17.7999C13.75 17.9999 13.875 18.2874 14.125 18.6624C14.375 19.0374 14.5 19.4666 14.5 19.9499C14.5 20.7832 14.2708 21.3999 13.8125 21.7999C13.3542 22.1999 12.75 22.3999 12 22.3999ZM6.5 13.3999C6.93333 13.3999 7.29167 13.2582 7.575 12.9749C7.85833 12.6916 8 12.3332 8 11.8999C8 11.4666 7.85833 11.1082 7.575 10.8249C7.29167 10.5416 6.93333 10.3999 6.5 10.3999C6.06667 10.3999 5.70833 10.5416 5.425 10.8249C5.14167 11.1082 5 11.4666 5 11.8999C5 12.3332 5.14167 12.6916 5.425 12.9749C5.70833 13.2582 6.06667 13.3999 6.5 13.3999ZM9.5 9.3999C9.93333 9.3999 10.2917 9.25824 10.575 8.9749C10.8583 8.69157 11 8.33324 11 7.8999C11 7.46657 10.8583 7.10824 10.575 6.8249C10.2917 6.54157 9.93333 6.3999 9.5 6.3999C9.06667 6.3999 8.70833 6.54157 8.425 6.8249C8.14167 7.10824 8 7.46657 8 7.8999C8 8.33324 8.14167 8.69157 8.425 8.9749C8.70833 9.25824 9.06667 9.3999 9.5 9.3999ZM14.5 9.3999C14.9333 9.3999 15.2917 9.25824 15.575 8.9749C15.8583 8.69157 16 8.33324 16 7.8999C16 7.46657 15.8583 7.10824 15.575 6.8249C15.2917 6.54157 14.9333 6.3999 14.5 6.3999C14.0667 6.3999 13.7083 6.54157 13.425 6.8249C13.1417 7.10824 13 7.46657 13 7.8999C13 8.33324 13.1417 8.69157 13.425 8.9749C13.7083 9.25824 14.0667 9.3999 14.5 9.3999ZM17.5 13.3999C17.9333 13.3999 18.2917 13.2582 18.575 12.9749C18.8583 12.6916 19 12.3332 19 11.8999C19 11.4666 18.8583 11.1082 18.575 10.8249C18.2917 10.5416 17.9333 10.3999 17.5 10.3999C17.0667 10.3999 16.7083 10.5416 16.425 10.8249C16.1417 11.1082 16 11.4666 16 11.8999C16 12.3332 16.1417 12.6916 16.425 12.9749C16.7083 13.2582 17.0667 13.3999 17.5 13.3999Z" fill="white"/>
</svg>
