<svg width="24" height="24" viewBox="0 0 24 24" fill="none" xmlns="http://www.w3.org/2000/svg">
<path d="M12.0001 11.8966C10.8403 11.8966 9.84979 11.486 9.02863 10.6648C8.20746 9.84368 7.79687 8.85318 7.79687 7.69334C7.79687 6.53368 8.20746 5.54418 9.02863 4.72484C9.84979 3.90568 10.8403 3.49609 12.0001 3.49609C13.16 3.49609 14.1505 3.90568 14.9716 4.72484C15.7928 5.54418 16.2034 6.53368 16.2034 7.69334C16.2034 8.85318 15.7928 9.84368 14.9716 10.6648C14.1505 11.486 13.16 11.8966 12.0001 11.8966ZM3.79688 18.0283V17.2881C3.79688 16.6854 3.95271 16.1307 4.26438 15.6238C4.57588 15.117 4.99121 14.7306 5.51038 14.4646C6.55571 13.9439 7.61971 13.5524 8.70237 13.2901C9.78487 13.0278 10.8841 12.8966 12.0001 12.8966C13.124 12.8966 14.2272 13.0268 15.3099 13.2871C16.3925 13.5474 17.4525 13.9379 18.4899 14.4586C19.009 14.7246 19.4244 15.11 19.7359 15.6148C20.0475 16.1198 20.2034 16.6776 20.2034 17.2881V18.0283C20.2034 18.658 19.9816 19.1946 19.5381 19.6381C19.0946 20.0816 18.558 20.3033 17.9284 20.3033H6.07187C5.44221 20.3033 4.90562 20.0816 4.46212 19.6381C4.01863 19.1946 3.79688 18.658 3.79688 18.0283Z" fill="black"/>
</svg>
