<svg width="24" height="24" viewBox="0 0 24 24" fill="none" xmlns="http://www.w3.org/2000/svg">
<path d="M18.1052 10.7891H16.201C15.9042 10.7891 15.6553 10.6887 15.4545 10.4878C15.2537 10.287 15.1532 10.0382 15.1532 9.74134C15.1532 9.44434 15.2537 9.19543 15.4545 8.99459C15.6553 8.79376 15.9042 8.69334 16.201 8.69334H18.1052V6.78909C18.1052 6.49226 18.2057 6.24343 18.4065 6.04259C18.6073 5.84176 18.8562 5.74134 19.1532 5.74134C19.4501 5.74134 19.6989 5.84176 19.8998 6.04259C20.1006 6.24343 20.201 6.49226 20.201 6.78909V8.69334H22.1052C22.4022 8.69334 22.6512 8.79376 22.852 8.99459C23.0528 9.19543 23.1532 9.44434 23.1532 9.74134C23.1532 10.0382 23.0528 10.287 22.852 10.4878C22.6512 10.6887 22.4022 10.7891 22.1052 10.7891H20.201V12.6933C20.201 12.9903 20.1006 13.2393 19.8998 13.4401C19.6989 13.6409 19.4501 13.7413 19.1532 13.7413C18.8562 13.7413 18.6073 13.6409 18.4065 13.4401C18.2057 13.2393 18.1052 12.9903 18.1052 12.6933V10.7891ZM9.01575 11.8966C7.85592 11.8966 6.86542 11.486 6.04425 10.6648C5.22308 9.84368 4.8125 8.85318 4.8125 7.69334C4.8125 6.53368 5.22308 5.54418 6.04425 4.72484C6.86542 3.90568 7.85592 3.49609 9.01575 3.49609C10.1754 3.49609 11.1659 3.90568 11.9872 4.72484C12.8084 5.54418 13.219 6.53368 13.219 7.69334C13.219 8.85318 12.8084 9.84368 11.9872 10.6648C11.1659 11.486 10.1754 11.8966 9.01575 11.8966ZM0.8125 18.0283V17.2881C0.8125 16.6843 0.968667 16.1293 1.281 15.6233C1.59333 15.1172 2.00833 14.7309 2.526 14.4646C3.57133 13.9439 4.63517 13.5524 5.7175 13.2901C6.8 13.0278 7.89942 12.8966 9.01575 12.8966C10.1396 12.8966 11.2428 13.0268 12.3255 13.2871C13.4082 13.5474 14.4681 13.9379 15.5052 14.4586C16.0229 14.7244 16.438 15.1098 16.7505 15.6148C17.0628 16.1198 17.219 16.6776 17.219 17.2881V18.0283C17.219 18.658 16.9972 19.1946 16.5537 19.6381C16.1102 20.0816 15.5737 20.3033 14.944 20.3033H3.0875C2.45767 20.3033 1.92108 20.0816 1.47775 19.6381C1.03425 19.1946 0.8125 18.658 0.8125 18.0283Z" fill="black"/>
</svg>
