<svg width="24" height="24" viewBox="0 0 24 24" fill="none" xmlns="http://www.w3.org/2000/svg">
<path d="M5.07187 21.2034C4.44221 21.2034 3.90562 20.9816 3.46212 20.5381C3.01862 20.0946 2.79688 19.558 2.79688 18.9284V5.07188C2.79688 4.44221 3.01862 3.90562 3.46212 3.46212C3.90562 3.01862 4.44221 2.79688 5.07187 2.79688H18.9284C19.558 2.79688 20.0946 3.01862 20.5381 3.46212C20.9816 3.90562 21.2034 4.44221 21.2034 5.07188V18.9284C21.2034 19.558 20.9816 20.0946 20.5381 20.5381C20.0946 20.9816 19.558 21.2034 18.9284 21.2034H5.07187ZM7.02412 17.0719H16.9761C17.2081 17.0719 17.378 16.9682 17.4859 16.7609C17.5939 16.5537 17.5753 16.3549 17.4301 16.1644L14.7039 12.4894C14.5919 12.336 14.4406 12.2584 14.2501 12.2564C14.0596 12.2544 13.9064 12.33 13.7904 12.4834L11.2501 15.8806L9.45988 13.4834C9.34388 13.33 9.19063 13.2544 9.00013 13.2564C8.80963 13.2584 8.65838 13.336 8.54638 13.4894L6.57012 16.1644C6.42496 16.3549 6.40638 16.5537 6.51438 16.7609C6.62221 16.9682 6.79212 17.0719 7.02412 17.0719Z" fill="black"/>
</svg>
