<svg width="24" height="24" viewBox="0 0 24 24" fill="none" xmlns="http://www.w3.org/2000/svg">
<path d="M12 17.613C13.2784 17.613 14.3668 17.1638 15.2653 16.2653C16.1638 15.3668 16.613 14.2784 16.613 13C16.613 11.7217 16.1638 10.6333 15.2653 9.73478C14.3668 8.83628 13.2784 8.38703 12 8.38703C10.7217 8.38703 9.63328 8.83628 8.73478 9.73478C7.83628 10.6333 7.38703 11.7217 7.38703 13C7.38703 14.2784 7.83628 15.3668 8.73478 16.2653C9.63328 17.1638 10.7217 17.613 12 17.613ZM12 15.2458C11.366 15.2458 10.8333 15.0299 10.4018 14.5983C9.97011 14.1668 9.75428 13.634 9.75428 13C9.75428 12.366 9.97011 11.8333 10.4018 11.4018C10.8333 10.9701 11.366 10.7543 12 10.7543C12.634 10.7543 13.1668 10.9701 13.5983 11.4018C14.0299 11.8333 14.2458 12.366 14.2458 13C14.2458 13.634 14.0299 14.1668 13.5983 14.5983C13.1668 15.0299 12.634 15.2458 12 15.2458ZM4.16953 21.4805C3.4312 21.4805 2.80495 21.2234 2.29078 20.7093C1.77661 20.1951 1.51953 19.5689 1.51953 18.8305V7.16953C1.51953 6.4312 1.77661 5.80495 2.29078 5.29078C2.80495 4.77661 3.4312 4.51953 4.16953 4.51953H6.89578L8.17403 3.26853C8.41386 3.03086 8.69586 2.84661 9.02003 2.71578C9.34436 2.58495 9.67645 2.51953 10.0163 2.51953H13.9838C14.3236 2.51953 14.6557 2.58495 14.98 2.71578C15.3042 2.84661 15.5862 3.03086 15.826 3.26853L17.1043 4.51953H19.8305C20.5689 4.51953 21.1951 4.77661 21.7093 5.29078C22.2234 5.80495 22.4805 6.4312 22.4805 7.16953V18.8305C22.4805 19.5689 22.2234 20.1951 21.7093 20.7093C21.1951 21.2234 20.5689 21.4805 19.8305 21.4805H4.16953Z" fill="white"/>
</svg>
