<svg width="24" height="24" viewBox="0 0 24 24" fill="none" xmlns="http://www.w3.org/2000/svg">
<path d="M4.82612 19.0839H10.7784C11.0102 19.0839 11.1801 18.9802 11.2881 18.7729C11.3961 18.5657 11.3775 18.3668 11.2321 18.1761L9.69188 16.0849C9.57604 15.9317 9.42479 15.8551 9.23812 15.8551C9.05162 15.8551 8.90038 15.9317 8.78438 16.0849L7.74413 17.4511C7.62813 17.6045 7.47687 17.6811 7.29037 17.6811C7.10371 17.6811 6.95246 17.6045 6.83662 17.4511L6.30837 16.7529C6.19237 16.5995 6.04104 16.526 5.85437 16.5324C5.66787 16.5387 5.51663 16.6185 5.40063 16.7719L4.34737 18.1761C4.20204 18.3668 4.18754 18.5657 4.30387 18.7729C4.42021 18.9802 4.59429 19.0839 4.82612 19.0839ZM5.07187 21.2034C4.44221 21.2034 3.90562 20.9816 3.46212 20.5381C3.01862 20.0946 2.79688 19.558 2.79688 18.9284V13.1376C2.79688 12.508 3.01862 11.9714 3.46212 11.5279C3.90562 11.0844 4.44221 10.8626 5.07187 10.8626H10.8626C11.4923 10.8626 12.0289 11.0844 12.4724 11.5279C12.9159 11.9714 13.1376 12.508 13.1376 13.1376V18.9284C13.1376 19.558 12.9159 20.0946 12.4724 20.5381C12.0289 20.9816 11.4923 21.2034 10.8626 21.2034H5.07187ZM3.93437 5.07188C3.61521 5.07188 3.34579 4.96213 3.12612 4.74263C2.90662 4.52296 2.79688 4.25354 2.79688 3.93438C2.79688 3.61521 2.90662 3.34579 3.12612 3.12612C3.34579 2.90662 3.61521 2.79688 3.93437 2.79688C4.25354 2.79688 4.52296 2.90662 4.74262 3.12612C4.96212 3.34579 5.07187 3.61521 5.07187 3.93438C5.07187 4.25354 4.96212 4.52296 4.74262 4.74263C4.52296 4.96213 4.25354 5.07188 3.93437 5.07188ZM7.97012 5.07188C7.65096 5.07188 7.38163 4.96213 7.16213 4.74263C6.94246 4.52296 6.83262 4.25354 6.83262 3.93438C6.83262 3.61521 6.94246 3.34579 7.16213 3.12612C7.38163 2.90662 7.65096 2.79688 7.97012 2.79688C8.28946 2.79688 8.55888 2.90662 8.77838 3.12612C8.99788 3.34579 9.10762 3.61521 9.10762 3.93438C9.10762 4.25354 8.99788 4.52296 8.77838 4.74263C8.55888 4.96213 8.28946 5.07188 7.97012 5.07188ZM12.0001 5.07188C11.681 5.07188 11.4115 4.96213 11.1919 4.74263C10.9724 4.52296 10.8626 4.25354 10.8626 3.93438C10.8626 3.61521 10.9724 3.34579 11.1919 3.12612C11.4115 2.90662 11.681 2.79688 12.0001 2.79688C12.3193 2.79688 12.5887 2.90662 12.8084 3.12612C13.0279 3.34579 13.1376 3.61521 13.1376 3.93438C13.1376 4.25354 13.0279 4.52296 12.8084 4.74263C12.5887 4.96213 12.3193 5.07188 12.0001 5.07188ZM16.0359 5.07188C15.7167 5.07188 15.4474 4.96213 15.2279 4.74263C15.0082 4.52296 14.8984 4.25354 14.8984 3.93438C14.8984 3.61521 15.0082 3.34579 15.2279 3.12612C15.4474 2.90662 15.7167 2.79688 16.0359 2.79688C16.3552 2.79688 16.6246 2.90662 16.8441 3.12612C17.0636 3.34579 17.1734 3.61521 17.1734 3.93438C17.1734 4.25354 17.0636 4.52296 16.8441 4.74263C16.6246 4.96213 16.3552 5.07188 16.0359 5.07188ZM20.0659 5.07188C19.7467 5.07188 19.4773 4.96213 19.2576 4.74263C19.0381 4.52296 18.9284 4.25354 18.9284 3.93438C18.9284 3.61521 19.0381 3.34579 19.2576 3.12612C19.4773 2.90662 19.7467 2.79688 20.0659 2.79688C20.385 2.79688 20.6545 2.90662 20.8741 3.12612C21.0936 3.34579 21.2034 3.61521 21.2034 3.93438C21.2034 4.25354 21.0936 4.52296 20.8741 4.74263C20.6545 4.96213 20.385 5.07188 20.0659 5.07188ZM16.0359 21.2034C15.7167 21.2034 15.4474 21.0936 15.2279 20.8741C15.0082 20.6545 14.8984 20.385 14.8984 20.0659C14.8984 19.7467 15.0082 19.4773 15.2279 19.2576C15.4474 19.0381 15.7167 18.9284 16.0359 18.9284C16.3552 18.9284 16.6246 19.0381 16.8441 19.2576C17.0636 19.4773 17.1734 19.7467 17.1734 20.0659C17.1734 20.385 17.0636 20.6545 16.8441 20.8741C16.6246 21.0936 16.3552 21.2034 16.0359 21.2034ZM3.93437 9.10188C3.61521 9.10188 3.34579 8.99204 3.12612 8.77238C2.90662 8.55288 2.79688 8.28354 2.79688 7.96438C2.79688 7.64504 2.90662 7.37562 3.12612 7.15612C3.34579 6.93662 3.61521 6.82688 3.93437 6.82688C4.25354 6.82688 4.52296 6.93662 4.74262 7.15612C4.96212 7.37562 5.07187 7.64504 5.07187 7.96438C5.07187 8.28354 4.96212 8.55288 4.74262 8.77238C4.52296 8.99204 4.25354 9.10188 3.93437 9.10188ZM20.0659 9.10188C19.7467 9.10188 19.4773 8.99204 19.2576 8.77238C19.0381 8.55288 18.9284 8.28354 18.9284 7.96438C18.9284 7.64504 19.0381 7.37562 19.2576 7.15612C19.4773 6.93662 19.7467 6.82688 20.0659 6.82688C20.385 6.82688 20.6545 6.93662 20.8741 7.15612C21.0936 7.37562 21.2034 7.64504 21.2034 7.96438C21.2034 8.28354 21.0936 8.55288 20.8741 8.77238C20.6545 8.99204 20.385 9.10188 20.0659 9.10188ZM20.0659 13.1376C19.7467 13.1376 19.4773 13.0279 19.2576 12.8084C19.0381 12.5887 18.9284 12.3193 18.9284 12.0001C18.9284 11.681 19.0381 11.4115 19.2576 11.1919C19.4773 10.9724 19.7467 10.8626 20.0659 10.8626C20.385 10.8626 20.6545 10.9724 20.8741 11.1919C21.0936 11.4115 21.2034 11.681 21.2034 12.0001C21.2034 12.3193 21.0936 12.5887 20.8741 12.8084C20.6545 13.0279 20.385 13.1376 20.0659 13.1376ZM20.0659 17.1676C19.7467 17.1676 19.4773 17.0578 19.2576 16.8381C19.0381 16.6186 18.9284 16.3493 18.9284 16.0301C18.9284 15.7108 19.0381 15.4414 19.2576 15.2219C19.4773 15.0024 19.7467 14.8926 20.0659 14.8926C20.385 14.8926 20.6545 15.0024 20.8741 15.2219C21.0936 15.4414 21.2034 15.7108 21.2034 16.0301C21.2034 16.3493 21.0936 16.6186 20.8741 16.8381C20.6545 17.0578 20.385 17.1676 20.0659 17.1676ZM20.0659 21.2034C19.7467 21.2034 19.4773 21.0936 19.2576 20.8741C19.0381 20.6545 18.9284 20.385 18.9284 20.0659C18.9284 19.7467 19.0381 19.4773 19.2576 19.2576C19.4773 19.0381 19.7467 18.9284 20.0659 18.9284C20.385 18.9284 20.6545 19.0381 20.8741 19.2576C21.0936 19.4773 21.2034 19.7467 21.2034 20.0659C21.2034 20.385 21.0936 20.6545 20.8741 20.8741C20.6545 21.0936 20.385 21.2034 20.0659 21.2034Z" fill="#696EFF"/>
</svg>
