<svg width="24" height="24" viewBox="0 0 24 24" fill="none" xmlns="http://www.w3.org/2000/svg">
<path d="M7.79688 17.2887V6.71172C7.79688 6.38455 7.91079 6.11314 8.13863 5.89747C8.36663 5.68197 8.63188 5.57422 8.93438 5.57422C9.02971 5.57422 9.13013 5.58772 9.23563 5.61472C9.34129 5.64172 9.44179 5.68413 9.53713 5.74197L17.8664 11.0367C18.0364 11.1486 18.1649 11.2905 18.2519 11.4625C18.3387 11.6343 18.3821 11.8136 18.3821 12.0002C18.3821 12.1869 18.3387 12.3661 18.2519 12.538C18.1649 12.71 18.0364 12.8519 17.8664 12.9637L9.53713 18.2585C9.44179 18.3163 9.34129 18.3587 9.23563 18.3857C9.13013 18.4127 9.02971 18.4262 8.93438 18.4262C8.63188 18.4262 8.36663 18.3185 8.13863 18.103C7.91079 17.8873 7.79688 17.6159 7.79688 17.2887Z" fill="black"/>
</svg>
