<svg width="24" height="24" viewBox="0 0 24 24" fill="none" xmlns="http://www.w3.org/2000/svg">
<path d="M2.72656 9.86406V3.86406C2.72656 3.5449 2.83631 3.27548 3.05581 3.05581C3.27548 2.83631 3.5449 2.72656 3.86406 2.72656H9.86406C10.1832 2.72656 10.4526 2.83631 10.6723 3.05581C10.8918 3.27548 11.0016 3.5449 11.0016 3.86406V9.86406C11.0016 10.1832 10.8918 10.4526 10.6723 10.6723C10.4526 10.8918 10.1832 11.0016 9.86406 11.0016H3.86406C3.5449 11.0016 3.27548 10.8918 3.05581 10.6723C2.83631 10.4526 2.72656 10.1832 2.72656 9.86406ZM5.00156 8.72656H8.72656V5.00156H5.00156V8.72656ZM2.72656 20.1391V14.1391C2.72656 13.8199 2.83631 13.5505 3.05581 13.3308C3.27548 13.1113 3.5449 13.0016 3.86406 13.0016H9.86406C10.1832 13.0016 10.4526 13.1113 10.6723 13.3308C10.8918 13.5505 11.0016 13.8199 11.0016 14.1391V20.1391C11.0016 20.4582 10.8918 20.7276 10.6723 20.9473C10.4526 21.1668 10.1832 21.2766 9.86406 21.2766H3.86406C3.5449 21.2766 3.27548 21.1668 3.05581 20.9473C2.83631 20.7276 2.72656 20.4582 2.72656 20.1391ZM5.00156 19.0016H8.72656V15.2766H5.00156V19.0016ZM13.0016 9.86406V3.86406C13.0016 3.5449 13.1113 3.27548 13.3308 3.05581C13.5505 2.83631 13.8199 2.72656 14.1391 2.72656H20.1391C20.4582 2.72656 20.7276 2.83631 20.9473 3.05581C21.1668 3.27548 21.2766 3.5449 21.2766 3.86406V9.86406C21.2766 10.1832 21.1668 10.4526 20.9473 10.6723C20.7276 10.8918 20.4582 11.0016 20.1391 11.0016H14.1391C13.8199 11.0016 13.5505 10.8918 13.3308 10.6723C13.1113 10.4526 13.0016 10.1832 13.0016 9.86406ZM15.2766 8.72656H19.0016V5.00156H15.2766V8.72656ZM19.2108 21.2766V19.2048H21.2766V21.2766H19.2108ZM13.0016 15.0673V13.0016H15.0733V15.0673H13.0016ZM15.0733 17.1391V15.0673H17.1391V17.1391H15.0733ZM13.0016 19.2048V17.1391H15.0733V19.2048H13.0016ZM15.0733 21.2766V19.2048H17.1391V21.2766H15.0733ZM17.1391 19.2048V17.1391H19.2108V19.2048H17.1391ZM17.1391 15.0673V13.0016H19.2108V15.0673H17.1391ZM19.2108 17.1391V15.0673H21.2766V17.1391H19.2108Z" fill="black"/>
</svg>
