<svg width="24" height="24" viewBox="0 0 24 24" fill="none" xmlns="http://www.w3.org/2000/svg">
<path d="M16.2 9.9998H9.9C8.85 9.9998 7.9375 10.3331 7.1625 10.9998C6.3875 11.6665 6 12.4998 6 13.4998C6 14.4998 6.3875 15.3331 7.1625 15.9998C7.9375 16.6665 8.85 16.9998 9.9 16.9998H16C16.2833 16.9998 16.5208 17.0956 16.7125 17.2873C16.9042 17.479 17 17.7165 17 17.9998C17 18.2831 16.9042 18.5206 16.7125 18.7123C16.5208 18.904 16.2833 18.9998 16 18.9998H9.9C8.28333 18.9998 6.89583 18.4748 5.7375 17.4248C4.57917 16.3748 4 15.0665 4 13.4998C4 11.9331 4.57917 10.6248 5.7375 9.5748C6.89583 8.5248 8.28333 7.9998 9.9 7.9998H16.2L14.3 6.0998C14.1167 5.91647 14.025 5.68314 14.025 5.3998C14.025 5.11647 14.1167 4.88314 14.3 4.6998C14.4833 4.51647 14.7167 4.4248 15 4.4248C15.2833 4.4248 15.5167 4.51647 15.7 4.6998L19.3 8.2998C19.4 8.3998 19.4708 8.50814 19.5125 8.6248C19.5542 8.74147 19.575 8.86647 19.575 8.9998C19.575 9.13314 19.5542 9.25814 19.5125 9.3748C19.4708 9.49147 19.4 9.5998 19.3 9.6998L15.7 13.2998C15.5167 13.4831 15.2833 13.5748 15 13.5748C14.7167 13.5748 14.4833 13.4831 14.3 13.2998C14.1167 13.1165 14.025 12.8831 14.025 12.5998C14.025 12.3165 14.1167 12.0831 14.3 11.8998L16.2 9.9998Z" fill="white"/>
</svg>
