<svg width="24" height="24" viewBox="0 0 24 24" fill="none" xmlns="http://www.w3.org/2000/svg">
<path d="M11.9414 20.4805C9.5856 20.4805 7.58327 19.656 5.93444 18.007C4.28544 16.3582 3.46094 14.3559 3.46094 12C3.46094 9.6442 4.28544 7.64186 5.93444 5.99303C7.58327 4.34403 9.5856 3.51953 11.9414 3.51953C13.1763 3.51953 14.3493 3.7712 15.4604 4.27453C16.5716 4.7777 17.5211 5.50395 18.3089 6.45328V4.63253C18.3089 4.3172 18.4156 4.05286 18.6289 3.83953C18.8423 3.6262 19.1066 3.51953 19.4219 3.51953C19.7373 3.51953 20.0016 3.6262 20.2149 3.83953C20.4283 4.05286 20.5349 4.3172 20.5349 4.63253V9.88703C20.5349 10.2552 20.4061 10.568 20.1484 10.8255C19.8909 11.0832 19.5781 11.212 19.2099 11.212H13.9272C13.6159 11.212 13.3549 11.1054 13.1442 10.892C12.9337 10.6787 12.8284 10.4144 12.8284 10.099C12.8284 9.7877 12.9351 9.5267 13.1484 9.31603C13.3618 9.10536 13.6261 9.00003 13.9414 9.00003H16.9437C16.4104 8.1232 15.7019 7.43228 14.8184 6.92728C13.9351 6.42211 12.9761 6.16953 11.9414 6.16953C10.3219 6.16953 8.94527 6.73636 7.81144 7.87003C6.67777 9.00386 6.11094 10.3805 6.11094 12C6.11094 13.6195 6.67777 14.9962 7.81144 16.13C8.94527 17.2637 10.3219 17.8305 11.9414 17.8305C12.9711 17.8305 13.9214 17.5784 14.7924 17.074C15.6634 16.5697 16.362 15.8954 16.8882 15.051C17.0745 14.7597 17.3364 14.5568 17.6739 14.4423C18.0116 14.3279 18.3419 14.3313 18.6649 14.4523C19.0094 14.5733 19.2589 14.7954 19.4132 15.1185C19.5675 15.4417 19.5592 15.7482 19.3882 16.038C18.6484 17.3809 17.6192 18.4569 16.3007 19.2663C14.9822 20.0758 13.5291 20.4805 11.9414 20.4805Z" fill="black"/>
</svg>
