<svg width="24" height="24" viewBox="0 0 24 24" fill="none" xmlns="http://www.w3.org/2000/svg">
<path d="M16.4269 18.8539L15.2886 19.9919C14.9815 20.2992 14.6055 20.456 14.1609 20.4624C13.7164 20.4687 13.3342 20.3119 13.0144 19.9919C12.707 19.6847 12.5524 19.3056 12.5504 18.8546C12.5484 18.4038 12.701 18.0248 13.0084 17.7176L14.1524 16.5734C14.0937 16.402 14.0496 16.2224 14.0201 16.0344C13.9908 15.8464 13.9761 15.6583 13.9761 15.4701C13.9761 14.4836 14.3228 13.6437 15.0161 12.9504C15.7095 12.257 16.5494 11.9104 17.5359 11.9104C17.6939 11.9104 17.8489 11.9165 18.0009 11.9289C18.1529 11.9412 18.2975 11.9704 18.4349 12.0164C18.6262 12.087 18.7427 12.2285 18.7844 12.4409C18.826 12.6532 18.7762 12.83 18.6349 12.9714L17.6376 13.9686C17.4098 14.1965 17.2959 14.4636 17.2959 14.7701C17.2959 15.0768 17.4098 15.344 17.6376 15.5719C17.7971 15.7312 17.9975 15.8109 18.2389 15.8109C18.4804 15.8109 18.6809 15.7312 18.8404 15.5719L20.0409 14.3714C20.1822 14.23 20.358 14.1802 20.5684 14.2219C20.7787 14.2635 20.9192 14.38 20.9899 14.5714C21.0359 14.7087 21.065 14.8544 21.0774 15.0084C21.0897 15.1624 21.0959 15.3163 21.0959 15.4701C21.0959 16.4568 20.7492 17.2968 20.0559 17.9901C19.3625 18.6835 18.5225 19.0301 17.5359 19.0301C17.3352 19.0301 17.143 19.0154 16.9594 18.9859C16.7757 18.9565 16.5982 18.9125 16.4269 18.8539ZM6.03338 18.9881C5.03187 18.139 4.24204 17.1131 3.66388 15.9106C3.08588 14.7083 2.79688 13.4048 2.79688 12.0001C2.79688 10.7223 3.03937 9.52554 3.52438 8.40988C4.00938 7.29438 4.66596 6.32246 5.49413 5.49413C6.32246 4.66596 7.29438 4.00937 8.40988 3.52437C9.52554 3.03937 10.7223 2.79688 12.0001 2.79688C13.878 2.79688 15.5642 3.30288 17.0589 4.31488C18.5534 5.32671 19.6626 6.63429 20.3866 8.23763C20.5151 8.52429 20.5131 8.80354 20.3806 9.07538C20.248 9.34738 20.0344 9.53729 19.7399 9.64512C19.4619 9.74046 19.1891 9.72479 18.9216 9.59812C18.654 9.47162 18.4539 9.27338 18.3214 9.00338C17.7634 7.82738 16.9205 6.86813 15.7929 6.12563C14.665 5.38329 13.4008 5.01212 12.0001 5.01212C10.0541 5.01212 8.40296 5.69029 7.04663 7.04662C5.69029 8.40296 5.01213 10.0541 5.01213 12.0001C5.01213 13.1443 5.26304 14.1965 5.76488 15.1566C6.26671 16.1168 6.94404 16.9135 7.79688 17.5469V16.0959C7.79688 15.7845 7.90363 15.5221 8.11713 15.3086C8.33079 15.095 8.59321 14.9881 8.90438 14.9881C9.21571 14.9881 9.47813 15.095 9.69163 15.3086C9.90529 15.5221 10.0121 15.7845 10.0121 16.0959V20.0659C10.0121 20.385 9.90229 20.6545 9.68263 20.8741C9.46313 21.0936 9.19379 21.2034 8.87463 21.2034H4.90438C4.59321 21.2034 4.33079 21.0966 4.11712 20.8831C3.90362 20.6695 3.79687 20.407 3.79687 20.0959C3.79687 19.7845 3.90362 19.5221 4.11712 19.3086C4.33079 19.095 4.59321 18.9881 4.90438 18.9881H6.03338Z" fill="black"/>
</svg>
