<svg width="24" height="24" viewBox="0 0 24 24" fill="none" xmlns="http://www.w3.org/2000/svg">
<path d="M4.43562 21.6391C4.14029 21.9344 3.79513 22.0821 3.40013 22.0821C3.00529 22.0821 2.66021 21.9344 2.36488 21.6391C2.06954 21.3437 1.92188 21.0028 1.92188 20.6163C1.92188 20.2296 2.06954 19.8886 2.36488 19.5933L5.66487 16.2993L3.58712 15.6151C3.32196 15.5199 3.19354 15.3376 3.20188 15.0683C3.21021 14.7991 3.34696 14.6189 3.61212 14.5276L11.0079 12.3123C11.219 12.2418 11.4076 12.2895 11.5736 12.4553C11.7395 12.6213 11.7871 12.8099 11.7166 13.0211L9.50137 20.4168C9.41004 20.682 9.22979 20.8187 8.96062 20.8271C8.69129 20.8354 8.50904 20.707 8.41387 20.4418L7.72962 18.3641L4.43562 21.6391ZM18.3024 12.0016C18.3024 13.3154 17.9345 14.5077 17.1986 15.5786C16.4628 16.6494 15.492 17.4114 14.2861 17.8646C13.9955 17.9726 13.7132 17.9706 13.4394 17.8586C13.1654 17.7467 12.9745 17.5455 12.8666 17.2548C12.7586 16.9643 12.7637 16.6821 12.8819 16.4081C13.0002 16.1342 13.2047 15.9433 13.4954 15.8353C14.2692 15.544 14.8996 15.0506 15.3866 14.3553C15.8736 13.66 16.1171 12.8754 16.1171 12.0016C16.1171 10.8777 15.7165 9.91515 14.9151 9.11381C14.1138 8.31248 13.1512 7.91181 12.0274 7.91181C11.1535 7.91181 10.368 8.15631 9.67062 8.64531C8.97329 9.13431 8.48096 9.76573 8.19362 10.5396C8.08562 10.8302 7.89787 11.0356 7.63037 11.1558C7.36287 11.2761 7.08379 11.2823 6.79312 11.1743C6.50262 11.0663 6.29721 10.8764 6.17687 10.6046C6.05654 10.3326 6.05037 10.0513 6.15837 9.76081C6.60771 8.56765 7.36046 7.59698 8.41662 6.84881C9.47262 6.10065 10.6762 5.72656 12.0274 5.72656C13.7697 5.72656 15.2511 6.33681 16.4716 7.55731C17.6921 8.77781 18.3024 10.2592 18.3024 12.0016Z" fill="black"/>
</svg>
