<svg width="24" height="24" viewBox="0 0 24 24" fill="none" xmlns="http://www.w3.org/2000/svg">
<path d="M18.9994 7.1495C18.9994 9.8581 18.0574 12.1704 16.1734 14.0864C14.2896 16.0022 12.0005 16.9601 9.30611 16.9601H9.08891L10.0255 17.8967C10.2599 18.1309 10.3759 18.4228 10.3735 18.7724C10.3711 19.122 10.2527 19.414 10.0183 19.6484C9.78391 19.8828 9.49191 20 9.14231 20C8.79291 20 8.50101 19.8828 8.26661 19.6484L5.16821 16.5572C4.89461 16.2836 4.75781 15.9629 4.75781 15.5951C4.75781 15.2273 4.89461 14.9066 5.16821 14.633L8.26661 11.5418C8.50101 11.3074 8.79291 11.1902 9.14231 11.1902C9.49191 11.1902 9.78391 11.3074 10.0183 11.5418C10.2527 11.7762 10.3699 12.0694 10.3699 12.4214C10.3699 12.7732 10.2527 13.0663 10.0183 13.3007L9.08891 14.2301H9.28451C11.2223 14.2301 12.8709 13.5418 14.2303 12.1652C15.5897 10.7888 16.2694 9.1169 16.2694 7.1495C16.2694 6.8391 16.2506 6.536 16.213 6.2402C16.1754 5.9446 16.1114 5.6516 16.021 5.3612C15.9114 4.9782 15.919 4.6116 16.0438 4.2614C16.1686 3.9112 16.4001 3.6441 16.7383 3.4601C17.0917 3.2715 17.4462 3.2457 17.8018 3.3827C18.1572 3.5199 18.3944 3.7753 18.5134 4.1489C18.683 4.6327 18.8064 5.1266 18.8836 5.6306C18.9608 6.1344 18.9994 6.6407 18.9994 7.1495Z" fill="black"/>
</svg>
