<svg width="24" height="24" viewBox="0 0 24 24" fill="none" xmlns="http://www.w3.org/2000/svg">
<path d="M7.1495 5.00059C9.8581 5.00059 12.1704 5.94259 14.0864 7.82659C16.0022 9.71039 16.9601 11.9995 16.9601 14.6939V14.9111L17.8967 13.9745C18.1309 13.7401 18.4228 13.6241 18.7724 13.6265C19.122 13.6289 19.414 13.7473 19.6484 13.9817C19.8828 14.2161 20 14.5081 20 14.8577C20 15.2071 19.8828 15.499 19.6484 15.7334L16.5572 18.8318C16.2836 19.1054 15.9629 19.2422 15.5951 19.2422C15.2273 19.2422 14.9066 19.1054 14.633 18.8318L11.5418 15.7334C11.3074 15.499 11.1902 15.2071 11.1902 14.8577C11.1902 14.5081 11.3074 14.2161 11.5418 13.9817C11.7762 13.7473 12.0694 13.6301 12.4214 13.6301C12.7732 13.6301 13.0663 13.7473 13.3007 13.9817L14.2301 14.9111V14.7155C14.2301 12.7777 13.5418 11.1291 12.1652 9.76969C10.7888 8.41029 9.1169 7.73059 7.1495 7.73059C6.8391 7.73059 6.536 7.74939 6.2402 7.78699C5.9446 7.82459 5.6516 7.88859 5.3612 7.97899C4.9782 8.08859 4.6116 8.08099 4.2614 7.95619C3.9112 7.83139 3.6441 7.59989 3.4601 7.26169C3.2715 6.90829 3.2457 6.55379 3.3827 6.19819C3.5199 5.84279 3.7753 5.60559 4.1489 5.48659C4.6327 5.31699 5.1266 5.19359 5.6306 5.11639C6.1344 5.03919 6.6407 5.00059 7.1495 5.00059Z" fill="black"/>
</svg>
