<svg width="24" height="24" viewBox="0 0 24 24" fill="none" xmlns="http://www.w3.org/2000/svg">
<path d="M17.9975 22.1869C17.1125 22.1869 16.3604 21.8772 15.7413 21.2579C15.1221 20.6386 14.8125 19.8865 14.8125 19.0017C14.8125 18.8812 14.8208 18.7564 14.8375 18.6274C14.8542 18.4982 14.8792 18.3797 14.9125 18.2717L8.15525 14.3392C7.86008 14.6052 7.52783 14.8129 7.1585 14.9624C6.78917 15.1121 6.40225 15.1869 5.99775 15.1869C5.11292 15.1869 4.36083 14.8772 3.7415 14.2579C3.12217 13.6384 2.8125 12.8862 2.8125 12.0014C2.8125 11.1164 3.12217 10.3643 3.7415 9.74516C4.36083 9.12599 5.11292 8.81641 5.99775 8.81641C6.40225 8.81641 6.78917 8.89124 7.1585 9.04091C7.52783 9.19041 7.86008 9.39816 8.15525 9.66416L14.9125 5.73166C14.8792 5.62366 14.8542 5.50507 14.8375 5.3759C14.8208 5.2469 14.8125 5.12216 14.8125 5.00166C14.8125 4.11682 15.1222 3.36474 15.7415 2.74541C16.361 2.12607 17.1132 1.81641 17.998 1.81641C18.883 1.81641 19.6351 2.12607 20.2543 2.74541C20.8734 3.36491 21.183 4.11707 21.183 5.00191C21.183 5.88691 20.8733 6.63899 20.254 7.25816C19.6347 7.87732 18.8826 8.18691 17.9978 8.18691C17.5933 8.18691 17.2063 8.11407 16.837 7.96841C16.4677 7.82274 16.1354 7.61699 15.8402 7.35116L9.083 11.2717C9.11633 11.3797 9.14133 11.4982 9.158 11.6274C9.17467 11.7564 9.183 11.8812 9.183 12.0017C9.183 12.1222 9.17467 12.2469 9.158 12.3759C9.14133 12.5051 9.11633 12.6237 9.083 12.7317L15.8402 16.6522C16.1354 16.3863 16.4677 16.1806 16.837 16.0349C17.2063 15.8892 17.5933 15.8164 17.9978 15.8164C18.8826 15.8164 19.6347 16.1261 20.254 16.7454C20.8733 17.3649 21.183 18.1171 21.183 19.0019C21.183 19.8869 20.8733 20.639 20.254 21.2582C19.6345 21.8773 18.8823 22.1869 17.9975 22.1869Z" fill="black"/>
</svg>
