<svg width="24" height="24" viewBox="0 0 24 24" fill="none" xmlns="http://www.w3.org/2000/svg">
<path d="M12.0766 22.0016C10.6766 22.0016 9.36406 21.735 8.13906 21.2016C6.91406 20.6683 5.8474 19.9475 4.93906 19.0391C4.03073 18.1308 3.3099 17.0641 2.77656 15.8391C2.24323 14.6141 1.97656 13.3016 1.97656 11.9016C1.97656 9.83496 2.5474 7.95996 3.68906 6.27662C4.83073 4.59329 6.3599 3.35996 8.27656 2.57662C8.5099 2.49329 8.75156 2.46412 9.00156 2.48912C9.25156 2.51412 9.4599 2.59329 9.62656 2.72662C9.7599 2.84329 9.86406 3.00579 9.93906 3.21412C10.0141 3.42246 10.0516 3.69329 10.0516 4.02662C10.0849 5.34329 10.3516 6.59746 10.8516 7.78912C11.3516 8.98079 12.0682 10.0433 13.0016 10.9766C13.9349 11.91 15.0016 12.6266 16.2016 13.1266C17.4016 13.6266 18.6599 13.8933 19.9766 13.9266C20.3266 13.9266 20.5932 13.9558 20.7766 14.0141C20.9599 14.0725 21.1099 14.1683 21.2266 14.3016C21.3599 14.4683 21.4474 14.685 21.4891 14.9516C21.5307 15.2183 21.5099 15.46 21.4266 15.6766C20.6599 17.5933 19.4266 19.1266 17.7266 20.2766C16.0266 21.4266 14.1432 22.0016 12.0766 22.0016ZM16.7516 7.25162L15.0016 6.45162C14.8016 6.36829 14.7016 6.21829 14.7016 6.00162C14.7016 5.78496 14.8016 5.63496 15.0016 5.55162L16.7516 4.75162L17.5516 3.00162C17.6349 2.80162 17.7849 2.70162 18.0016 2.70162C18.2182 2.70162 18.3682 2.80162 18.4516 3.00162L19.2516 4.75162L21.0016 5.55162C21.2016 5.63496 21.3016 5.78496 21.3016 6.00162C21.3016 6.21829 21.2016 6.36829 21.0016 6.45162L19.2516 7.25162L18.4516 9.00162C18.3682 9.20162 18.2182 9.30162 18.0016 9.30162C17.7849 9.30162 17.6349 9.20162 17.5516 9.00162L16.7516 7.25162Z" fill="black"/>
</svg>
