<svg width="24" height="24" viewBox="0 0 24 24" fill="none" xmlns="http://www.w3.org/2000/svg">
<path d="M3.92838 18.4047C3.60771 18.4047 3.33896 18.2949 3.12212 18.0754C2.90529 17.8557 2.79688 17.5858 2.79688 17.2657C2.79688 16.9455 2.90529 16.6772 3.12212 16.4607C3.33896 16.244 3.60771 16.1357 3.92838 16.1357H7.97012C8.29079 16.1357 8.55954 16.2454 8.77637 16.4649C8.99337 16.6846 9.10188 16.9545 9.10188 17.2747C9.10188 17.5948 8.99337 17.8632 8.77637 18.0799C8.55954 18.2964 8.29079 18.4047 7.97012 18.4047H3.92838ZM3.92838 13.1357C3.60771 13.1357 3.33896 13.0259 3.12212 12.8064C2.90529 12.5867 2.79688 12.3168 2.79688 11.9967C2.79688 11.6765 2.90529 11.4081 3.12212 11.1914C3.33896 10.9749 3.60771 10.8667 3.92838 10.8667H14.0181C14.3386 10.8667 14.6074 10.9764 14.8244 11.1959C15.0412 11.4156 15.1496 11.6855 15.1496 12.0057C15.1496 12.3258 15.0412 12.5942 14.8244 12.8107C14.6074 13.0273 14.3386 13.1357 14.0181 13.1357H3.92838ZM3.92838 7.86666C3.60771 7.86666 3.33896 7.75691 3.12212 7.53741C2.90529 7.31774 2.79688 7.04782 2.79688 6.72766C2.79688 6.40749 2.90662 6.13907 3.12612 5.92241C3.34579 5.70591 3.61521 5.59766 3.93437 5.59766H20.0719C20.3925 5.59766 20.6613 5.70741 20.8781 5.92691C21.095 6.14657 21.2034 6.41649 21.2034 6.73666C21.2034 7.05682 21.0936 7.32516 20.8741 7.54166C20.6545 7.75832 20.385 7.86666 20.0659 7.86666H3.92838Z" fill="black"/>
</svg>
