<svg width="24" height="25" viewBox="0 0 24 25" fill="none" xmlns="http://www.w3.org/2000/svg">
<path d="M5.30039 22.594C4.43406 22.594 3.69247 22.2856 3.07564 21.6688C2.45881 21.052 2.15039 20.3104 2.15039 19.444V6.04404C2.15039 5.17788 2.45881 4.43629 3.07564 3.81929C3.69247 3.20246 4.43406 2.89404 5.30039 2.89404H7.85039C8.71672 2.89404 9.45831 3.20246 10.0751 3.81929C10.692 4.43629 11.0004 5.17788 11.0004 6.04404V19.444C11.0004 20.3104 10.692 21.052 10.0751 21.6688C9.45831 22.2856 8.71672 22.594 7.85039 22.594H5.30039ZM16.1504 22.594C15.2842 22.594 14.5426 22.2856 13.9256 21.6688C13.3088 21.052 13.0004 20.3104 13.0004 19.444V15.894C13.0004 15.0277 13.3088 14.2861 13.9256 13.6693C14.5426 13.0525 15.2842 12.744 16.1504 12.744H18.7004C19.5666 12.744 20.3081 13.0525 20.9251 13.6693C21.542 14.2861 21.8504 15.0277 21.8504 15.894V19.444C21.8504 20.3104 21.542 21.052 20.9251 21.6688C20.3081 22.2856 19.5666 22.594 18.7004 22.594H16.1504ZM16.1504 10.744C15.2842 10.744 14.5426 10.4356 13.9256 9.81879C13.3088 9.20179 13.0004 8.46021 13.0004 7.59404V6.04404C13.0004 5.17788 13.3088 4.43629 13.9256 3.81929C14.5426 3.20246 15.2842 2.89404 16.1504 2.89404H18.7004C19.5666 2.89404 20.3081 3.20246 20.9251 3.81929C21.542 4.43629 21.8504 5.17788 21.8504 6.04404V7.59404C21.8504 8.46021 21.542 9.20179 20.9251 9.81879C20.3081 10.4356 19.5666 10.744 18.7004 10.744H16.1504Z" fill="#696EFF"/>
</svg>
