<svg width="24" height="24" viewBox="0 0 24 24" fill="none" xmlns="http://www.w3.org/2000/svg">
<path d="M12.0008 15.725L19.8508 11.45C19.8841 11.4333 20.0425 11.3916 20.3258 11.325C20.6091 11.325 20.8466 11.4208 21.0383 11.6125C21.23 11.8041 21.3258 12.0416 21.3258 12.325C21.3258 12.5083 21.2841 12.675 21.2008 12.825C21.1175 12.975 20.9841 13.1 20.8008 13.2L12.9508 17.475C12.8008 17.5583 12.6466 17.6208 12.4883 17.6625C12.3299 17.7041 12.1674 17.725 12.0008 17.725C11.8341 17.725 11.6716 17.7041 11.5133 17.6625C11.3549 17.6208 11.2008 17.5583 11.0508 17.475L3.20078 13.2C3.01745 13.1 2.88411 12.975 2.80078 12.825C2.71745 12.675 2.67578 12.5083 2.67578 12.325C2.67578 12.0416 2.77161 11.8041 2.96328 11.6125C3.15495 11.4208 3.39245 11.325 3.67578 11.325C3.75911 11.325 3.83828 11.3375 3.91328 11.3625C3.98828 11.3875 4.06745 11.4166 4.15078 11.45L12.0008 15.725ZM12.0008 19.725L19.8508 15.45C19.8841 15.4333 20.0425 15.3916 20.3258 15.325C20.6091 15.325 20.8466 15.4208 21.0383 15.6125C21.23 15.8041 21.3258 16.0416 21.3258 16.325C21.3258 16.5083 21.2841 16.675 21.2008 16.825C21.1175 16.975 20.9841 17.1 20.8008 17.2L12.9508 21.475C12.8008 21.5583 12.6466 21.6208 12.4883 21.6625C12.3299 21.7041 12.1674 21.725 12.0008 21.725C11.8341 21.725 11.6716 21.7041 11.5133 21.6625C11.3549 21.6208 11.2008 21.5583 11.0508 21.475L3.20078 17.2C3.01745 17.1 2.88411 16.975 2.80078 16.825C2.71745 16.675 2.67578 16.5083 2.67578 16.325C2.67578 16.0416 2.77161 15.8041 2.96328 15.6125C3.15495 15.4208 3.39245 15.325 3.67578 15.325C3.75911 15.325 3.83828 15.3375 3.91328 15.3625C3.98828 15.3875 4.06745 15.4166 4.15078 15.45L12.0008 19.725Z" fill="white"/>
<path d="M12.002 3.2749C12.084 3.27493 12.1608 3.28486 12.2344 3.3042C12.2713 3.31392 12.3092 3.32668 12.3477 3.34229L12.4658 3.39893L12.4736 3.40283L20.9004 7.99072C20.9005 7.99349 20.9014 7.9964 20.9014 7.99951C20.9014 8.00284 20.9005 8.00634 20.9004 8.00928L12.4736 12.5962L12.4658 12.6011C12.3853 12.6458 12.3082 12.6764 12.2344 12.6958C12.1608 12.7151 12.084 12.7251 12.002 12.7251C11.9197 12.7251 11.8423 12.7152 11.7686 12.6958C11.7316 12.6861 11.6938 12.6733 11.6553 12.6577L11.5371 12.6011L11.5293 12.5962L3.10156 8.0083V7.99072L11.5293 3.40283L11.5371 3.39893C11.6177 3.35413 11.6946 3.32365 11.7686 3.3042C11.8423 3.2848 11.9196 3.2749 12.002 3.2749Z" stroke="white" stroke-width="2"/>
</svg>
