<svg width="24" height="24" viewBox="0 0 24 24" fill="none" xmlns="http://www.w3.org/2000/svg">
<path d="M12.0016 13.7249C11.8349 13.7249 11.6724 13.7041 11.5141 13.6624C11.3557 13.6207 11.2016 13.5582 11.0516 13.4749L2.60156 8.8749C2.41823 8.7749 2.28906 8.6499 2.21406 8.4999C2.13906 8.3499 2.10156 8.18324 2.10156 7.9999C2.10156 7.81657 2.13906 7.6499 2.21406 7.4999C2.28906 7.3499 2.41823 7.2249 2.60156 7.1249L11.0516 2.5249C11.2016 2.44157 11.3557 2.37907 11.5141 2.3374C11.6724 2.29574 11.8349 2.2749 12.0016 2.2749C12.1682 2.2749 12.3307 2.29574 12.4891 2.3374C12.6474 2.37907 12.8016 2.44157 12.9516 2.5249L21.4016 7.1249C21.5849 7.2249 21.7141 7.3499 21.7891 7.4999C21.8641 7.6499 21.9016 7.81657 21.9016 7.9999C21.9016 8.18324 21.8641 8.3499 21.7891 8.4999C21.7141 8.6499 21.5849 8.7749 21.4016 8.8749L12.9516 13.4749C12.8016 13.5582 12.6474 13.6207 12.4891 13.6624C12.3307 13.7041 12.1682 13.7249 12.0016 13.7249ZM12.0016 15.7249L19.8516 11.4499C19.8849 11.4332 20.0432 11.3916 20.3266 11.3249C20.6099 11.3249 20.8474 11.4207 21.0391 11.6124C21.2307 11.8041 21.3266 12.0416 21.3266 12.3249C21.3266 12.5082 21.2849 12.6749 21.2016 12.8249C21.1182 12.9749 20.9849 13.0999 20.8016 13.1999L12.9516 17.4749C12.8016 17.5582 12.6474 17.6207 12.4891 17.6624C12.3307 17.7041 12.1682 17.7249 12.0016 17.7249C11.8349 17.7249 11.6724 17.7041 11.5141 17.6624C11.3557 17.6207 11.2016 17.5582 11.0516 17.4749L3.20156 13.1999C3.01823 13.0999 2.8849 12.9749 2.80156 12.8249C2.71823 12.6749 2.67656 12.5082 2.67656 12.3249C2.67656 12.0416 2.7724 11.8041 2.96406 11.6124C3.15573 11.4207 3.39323 11.3249 3.67656 11.3249C3.7599 11.3249 3.83906 11.3374 3.91406 11.3624C3.98906 11.3874 4.06823 11.4166 4.15156 11.4499L12.0016 15.7249ZM12.0016 19.7249L19.8516 15.4499C19.8849 15.4332 20.0432 15.3916 20.3266 15.3249C20.6099 15.3249 20.8474 15.4207 21.0391 15.6124C21.2307 15.8041 21.3266 16.0416 21.3266 16.3249C21.3266 16.5082 21.2849 16.6749 21.2016 16.8249C21.1182 16.9749 20.9849 17.0999 20.8016 17.1999L12.9516 21.4749C12.8016 21.5582 12.6474 21.6207 12.4891 21.6624C12.3307 21.7041 12.1682 21.7249 12.0016 21.7249C11.8349 21.7249 11.6724 21.7041 11.5141 21.6624C11.3557 21.6207 11.2016 21.5582 11.0516 21.4749L3.20156 17.1999C3.01823 17.0999 2.8849 16.9749 2.80156 16.8249C2.71823 16.6749 2.67656 16.5082 2.67656 16.3249C2.67656 16.0416 2.7724 15.8041 2.96406 15.6124C3.15573 15.4207 3.39323 15.3249 3.67656 15.3249C3.7599 15.3249 3.83906 15.3374 3.91406 15.3624C3.98906 15.3874 4.06823 15.4166 4.15156 15.4499L12.0016 19.7249Z" fill="white"/>
</svg>
