<svg width="373" height="458" viewBox="0 0 373 458" fill="none" xmlns="http://www.w3.org/2000/svg">
<circle cx="275" cy="44" r="3" fill="black"/>
<circle cx="258" cy="41" r="2" fill="black"/>
<circle cx="219" cy="32" r="2" fill="black"/>
<circle cx="183" cy="58" r="1" fill="black"/>
<circle cx="91.5" cy="1.5" r="1.5" fill="black"/>
<circle cx="36.5" cy="6.5" r="2.5" fill="black"/>
<circle cx="56" cy="92" r="2" fill="black"/>
<circle cx="7" cy="199" r="3" fill="black"/>
<circle cx="29.5" cy="219.5" r="2.5" fill="black"/>
<circle cx="8" cy="306" r="3" fill="black"/>
<circle cx="25" cy="350" r="3" fill="black"/>
<circle cx="295.5" cy="455.5" r="2.5" fill="black"/>
<circle cx="255" cy="419" r="1" fill="black"/>
<circle cx="242" cy="408" r="2" fill="black"/>
<circle cx="240.5" cy="401.5" r="1.5" fill="black"/>
<circle cx="234.5" cy="382.5" r="2.5" fill="black"/>
<circle cx="289.5" cy="369.5" r="3.5" fill="black"/>
<circle cx="300.5" cy="363.5" r="1.5" fill="black"/>
<circle cx="312.5" cy="361.5" r="2.5" fill="black"/>
<circle cx="309.5" cy="326.5" r="2.5" fill="black"/>
<circle cx="250" cy="314" r="2" fill="black"/>
<circle cx="310.5" cy="280.5" r="2.5" fill="black"/>
<circle cx="298" cy="273" r="2" fill="black"/>
<circle cx="352.5" cy="238.5" r="2.5" fill="black"/>
<circle cx="351.5" cy="219.5" r="3.5" fill="black"/>
<circle cx="354.5" cy="201.5" r="2.5" fill="black"/>
<circle cx="365" cy="198" r="1" fill="black"/>
<circle cx="370.5" cy="181.5" r="2.5" fill="black"/>
<circle cx="341.5" cy="138.5" r="2.5" fill="black"/>
<circle cx="363.5" cy="83.5" r="1.5" fill="black"/>
<circle cx="303.5" cy="323.5" r="2.5" fill="black"/>
<circle cx="3.5" cy="304.5" r="1.5" fill="black"/>
<circle cx="2" cy="199" r="2" fill="black"/>
</svg>
