<svg width="400" height="400" viewBox="0 0 400 400" fill="none" xmlns="http://www.w3.org/2000/svg">
<path d="M121.604 85.3471C134.451 81.8163 147.262 80.9653 160.04 80.8083C187.024 80.4768 214.017 80.5346 241.003 80.7839C253.131 80.896 265.214 81.9852 277.154 84.532C301.333 89.689 314.275 105.071 318.352 128.841C320.268 140.009 321.206 151.271 321.256 162.575C321.376 189.729 321.492 216.887 321.15 244.037C321.013 254.975 320.111 265.934 317.561 276.679C311.774 301.067 298.199 314.049 273.645 318.298C262.484 320.23 251.218 321.258 239.889 321.283C213.568 321.342 187.245 321.427 160.925 321.243C148.783 321.158 136.683 320.16 124.788 317.421C101.253 312.002 87.5616 297.4 83.6965 273.529C81.6726 261.029 80.6336 248.458 80.662 235.787C80.7186 210.465 80.5179 185.141 80.7669 159.821C80.8944 146.858 82.0782 133.952 85.404 121.322C90.39 102.388 102.283 90.4378 121.604 85.3471Z" fill="black"/>
</svg>
