<svg width="24" height="24" viewBox="0 0 24 24" fill="none" xmlns="http://www.w3.org/2000/svg">
<path d="M4.6155 20.9994C4.15517 20.9994 3.77083 20.8453 3.4625 20.5369C3.15417 20.2286 3 19.8443 3 19.3839V10.6149C3 10.1546 3.15417 9.77027 3.4625 9.46194C3.77083 9.1536 4.15517 8.99944 4.6155 8.99944H19.3845C19.8448 8.99944 20.2292 9.1536 20.5375 9.46194C20.8458 9.77027 21 10.1546 21 10.6149V19.3839C21 19.8443 20.8458 20.2286 20.5375 20.5369C20.2292 20.8453 19.8448 20.9994 19.3845 20.9994H4.6155ZM11.1213 17.6474L14.6057 15.3282C14.7301 15.241 14.7923 15.1314 14.7923 14.9994C14.7923 14.8674 14.7301 14.7579 14.6057 14.6707L11.1213 12.3514C10.9801 12.2604 10.8413 12.2511 10.7048 12.3234C10.5683 12.3959 10.5 12.5129 10.5 12.6744V17.3244C10.5 17.4859 10.5683 17.6029 10.7048 17.6754C10.8413 17.7478 10.9801 17.7384 11.1213 17.6474ZM5 7.23019C4.85767 7.23019 4.73875 7.18244 4.64325 7.08694C4.54775 6.99144 4.5 6.87252 4.5 6.73019C4.5 6.58785 4.54775 6.46894 4.64325 6.37344C4.73875 6.27794 4.85767 6.23019 5 6.23019H19C19.1423 6.23019 19.2613 6.27794 19.3568 6.37344C19.4523 6.46894 19.5 6.58785 19.5 6.73019C19.5 6.87252 19.4523 6.99144 19.3568 7.08694C19.2613 7.18244 19.1423 7.23019 19 7.23019H5ZM8 4.46094C7.85767 4.46094 7.73875 4.41319 7.64325 4.31769C7.54775 4.22219 7.5 4.10327 7.5 3.96094C7.5 3.8186 7.54775 3.69969 7.64325 3.60419C7.73875 3.50869 7.85767 3.46094 8 3.46094H16C16.1423 3.46094 16.2613 3.50869 16.3568 3.60419C16.4523 3.69969 16.5 3.8186 16.5 3.96094C16.5 4.10327 16.4523 4.22219 16.3568 4.31769C16.2613 4.41319 16.1423 4.46094 16 4.46094H8Z" fill="black"/>
</svg>
