<svg width="24" height="24" viewBox="0 0 24 24" fill="none" xmlns="http://www.w3.org/2000/svg">
<path d="M19.7437 3.03027C19.9452 3.08877 20.1304 3.25453 20.2507 3.48529C20.3515 3.6803 20.3612 3.71605 20.3482 3.92406C20.3385 4.06707 20.306 4.20033 20.2637 4.28483C20.1759 4.45709 19.9387 4.6651 19.7762 4.71385C19.6787 4.7431 17.6896 4.75285 11.6573 4.75285C3.99342 4.75285 3.65865 4.7496 3.53515 4.6911C3.20688 4.54159 3.02812 4.28483 3.00537 3.92731C2.99237 3.73555 3.00537 3.66405 3.06388 3.52429C3.14838 3.32929 3.38889 3.09202 3.5579 3.04002C3.70741 2.99127 19.5714 2.98477 19.7437 3.03027ZM12.1871 6.7062C13.8804 6.93371 15.187 8.18827 15.4665 9.8556C15.5087 10.1124 15.5152 10.2879 15.5022 10.5836C15.4307 11.9357 14.8099 13.0733 13.7634 13.7688C13.1361 14.1848 12.5673 14.3701 11.8198 14.3961C11.095 14.4221 10.5555 14.3181 9.97046 14.0321C8.58264 13.3593 7.64335 11.7017 7.80585 10.2196C7.91311 9.27057 8.25113 8.52304 8.86541 7.87626C9.7332 6.96296 10.9423 6.53719 12.1871 6.7062ZM7.97161 6.78745C8.25113 6.89796 8.23813 7.05072 7.91961 7.46999C7.78635 7.6455 7.6011 7.91526 7.51009 8.06802C7.41909 8.22077 7.31508 8.37678 7.27933 8.41578L7.21433 8.49054H5.42349C3.42789 8.49054 3.49615 8.49704 3.26213 8.25977C2.78111 7.782 2.99237 6.96621 3.6489 6.7647C3.69441 6.7517 4.65645 6.7387 5.78426 6.7387C7.6076 6.73545 7.85461 6.74195 7.97161 6.78745ZM19.8217 6.8232C20.0264 6.93371 20.1369 7.03772 20.241 7.22947C20.3255 7.37898 20.3385 7.43424 20.3385 7.6455C20.3385 7.92176 20.2735 8.08102 20.0882 8.26302C19.8574 8.49704 19.9224 8.49054 17.9333 8.49054C16.3993 8.49054 16.1328 8.48403 16.0743 8.44178C16.0352 8.41578 15.9475 8.28903 15.876 8.15902C15.8045 8.02901 15.6192 7.74625 15.4665 7.53174C15.1837 7.13522 15.1447 7.03771 15.2227 6.89471C15.304 6.7387 15.3202 6.73545 17.5758 6.7452C19.6852 6.7517 19.6884 6.7517 19.8217 6.8232ZM6.6813 10.5414C6.78206 10.6161 6.89256 10.9444 6.99657 11.4449C7.08432 11.8772 7.08107 11.9455 6.96731 12.0722L6.87306 12.1795H5.23498C3.61965 12.1795 3.5969 12.1795 3.47015 12.108C3.31739 12.0267 3.15813 11.8674 3.07688 11.7082C2.98587 11.5392 2.99237 11.1199 3.08663 10.9412C3.16788 10.7884 3.38239 10.5836 3.5319 10.5186C3.61315 10.4861 3.93492 10.4764 5.11473 10.4731C6.56105 10.4731 6.60005 10.4731 6.6813 10.5414ZM9.22617 14.9031C9.33343 14.9486 9.53494 15.0364 9.67795 15.0981C10.315 15.3841 10.9585 15.4946 11.8068 15.4686C12.5771 15.4459 13.0614 15.3289 13.7666 15.0038C14.2022 14.7991 14.4037 14.7698 14.8457 14.8413C15.6777 14.9746 16.773 15.4134 17.3028 15.8229C17.8553 16.2454 18.4404 17.1262 18.6159 17.7957C18.7459 18.2963 18.7784 18.6018 18.7784 19.3623C18.7784 20.0286 18.7719 20.0903 18.7069 20.2561C18.6061 20.5031 18.4631 20.6884 18.2811 20.8086C17.9658 21.0166 18.4176 21.0036 11.5793 20.9971L5.35524 20.9874L5.17323 20.9126C4.91322 20.8086 4.71171 20.6201 4.58495 20.3601L4.47769 20.1423L4.46794 19.5443C4.44519 18.501 4.53945 17.9257 4.83196 17.318C5.11148 16.7264 5.47549 16.2292 5.87526 15.8944C6.24903 15.5791 7.16232 15.1469 7.86111 14.9551C8.51114 14.7763 8.89141 14.7633 9.22617 14.9031Z" fill="white"/>
</svg>
