<svg width="24" height="25" viewBox="0 0 24 25" fill="none" xmlns="http://www.w3.org/2000/svg">
<path d="M8.52775 19.8999C8.23358 19.8999 7.98233 19.7971 7.774 19.5914C7.56567 19.3857 7.4615 19.136 7.4615 18.8422V7.0249H3.56725C3.27075 7.0249 3.01875 6.92132 2.81125 6.71415C2.60375 6.50699 2.5 6.2554 2.5 5.9594C2.5 5.6634 2.60283 5.41282 2.8085 5.20765C3.01417 5.00249 3.26392 4.8999 3.55775 4.8999H13.4807C13.7772 4.8999 14.0292 5.00282 14.2367 5.20865C14.4442 5.41465 14.548 5.66465 14.548 5.95865C14.548 6.25282 14.4452 6.50407 14.2395 6.7124C14.0338 6.92074 13.7842 7.0249 13.4905 7.0249H9.5865V18.8327C9.5865 19.1292 9.48358 19.3812 9.27775 19.5887C9.07192 19.7962 8.82192 19.8999 8.52775 19.8999ZM17.4605 19.8999C17.1663 19.8999 16.9167 19.7971 16.7115 19.5914C16.5065 19.3857 16.404 19.136 16.404 18.8422V11.9769H14.4905C14.194 11.9769 13.942 11.8732 13.7345 11.6659C13.5268 11.4587 13.423 11.2072 13.423 10.9112C13.423 10.6152 13.5258 10.3647 13.7315 10.1597C13.9372 9.95449 14.1869 9.8519 14.4807 9.8519H20.4328C20.7293 9.8519 20.9812 9.95482 21.1887 10.1607C21.3962 10.3665 21.5 10.6165 21.5 10.9107C21.5 11.2048 21.3972 11.4561 21.1915 11.6644C20.9858 11.8727 20.7361 11.9769 20.4423 11.9769H18.5193V18.8422C18.5193 19.136 18.4163 19.3857 18.2105 19.5914C18.0045 19.7971 17.7545 19.8999 17.4605 19.8999Z" fill="white"/>
</svg>
