<svg width="24" height="24" viewBox="0 0 24 24" fill="none" xmlns="http://www.w3.org/2000/svg">
<path d="M20.8741 8.1199C21.4751 8.1199 22.0045 8.34882 22.4624 8.80665C22.9202 9.26448 23.1491 9.7939 23.1491 10.3949V12.0304C23.1491 12.1549 23.1356 12.2898 23.1086 12.4352C23.0816 12.5805 23.0411 12.7135 22.9871 12.8342L19.9514 19.9857C19.7854 20.3668 19.5024 20.6891 19.1026 20.9524C18.7028 21.2156 18.2853 21.3472 17.8501 21.3472H10.0894C9.45953 21.3472 8.92294 21.1254 8.47961 20.6819C8.03611 20.2384 7.81436 19.7018 7.81436 19.0722V9.05865C7.81436 8.75198 7.87444 8.4619 7.99461 8.1884C8.11494 7.9149 8.28078 7.67248 8.49211 7.46115L13.5344 2.4439C13.8282 2.16273 14.1709 1.98815 14.5624 1.92015C14.9539 1.85232 15.3299 1.90965 15.6904 2.09215C16.0469 2.27082 16.3059 2.53507 16.4676 2.8849C16.6291 3.23473 16.6603 3.5999 16.5611 3.9804L15.5436 8.1199H20.8741ZM3.76636 21.3472C3.20453 21.3472 2.72378 21.1473 2.32411 20.7477C1.92444 20.348 1.72461 19.8672 1.72461 19.3054V10.1619C1.72461 9.5999 1.92244 9.11907 2.31811 8.7194C2.71378 8.31973 3.19061 8.1199 3.74861 8.1199H3.77236C4.33436 8.1199 4.81519 8.31973 5.21486 8.7194C5.61453 9.11907 5.81436 9.5999 5.81436 10.1619V19.3054C5.81436 19.8672 5.61453 20.348 5.21486 20.7477C4.81519 21.1473 4.33436 21.3472 3.77236 21.3472H3.76636Z" fill="white"/>
</svg>
