<svg width="24" height="24" viewBox="0 0 24 24" fill="none" xmlns="http://www.w3.org/2000/svg">
<path d="M6.07656 3.7C6.07656 3.33333 6.3139 3.04167 6.78856 2.825C7.2639 2.60833 7.90156 2.5 8.70156 2.5C10.3682 2.5 11.7849 3.079 12.9516 4.237C14.1182 5.39567 14.7016 6.81667 14.7016 8.5C14.7016 8.91667 14.6599 9.32933 14.5766 9.738C14.4932 10.146 14.3682 10.5333 14.2016 10.9L20.9266 17.625C21.2599 17.9583 21.4309 18.375 21.4396 18.875C21.4476 19.375 21.2849 19.8083 20.9516 20.175L20.4016 20.75C20.0516 21.1 19.6226 21.2793 19.1146 21.288C18.6059 21.296 18.1682 21.1167 17.8016 20.75L11.0516 14C10.6849 14.1667 10.3059 14.2917 9.91456 14.375C9.52256 14.4583 9.12656 14.5 8.72656 14.5C7.04323 14.5 5.62256 13.9167 4.46456 12.75C3.3059 11.5833 2.72656 10.1667 2.72656 8.5C2.72656 7.71667 2.8309 7.08733 3.03956 6.612C3.24756 6.13733 3.5349 5.9 3.90156 5.9C4.05156 5.9 4.1889 5.925 4.31356 5.975C4.4389 6.025 4.55156 6.1 4.65156 6.2L7.27656 8.8L9.02656 7.1L6.40156 4.475C6.30156 4.375 6.22223 4.25833 6.16356 4.125C6.10556 3.99167 6.07656 3.85 6.07656 3.7Z" fill="white"/>
</svg>
