<svg width="24" height="24" viewBox="0 0 24 24" fill="none" xmlns="http://www.w3.org/2000/svg">
<path d="M6.67906 4.51945C6.67906 4.18945 6.89266 3.92695 7.31986 3.73195C7.74766 3.53695 8.32156 3.43945 9.04156 3.43945C10.5416 3.43945 11.8166 3.96055 12.8666 5.00275C13.9166 6.04555 14.4416 7.32445 14.4416 8.83945C14.4416 9.21445 14.4041 9.58585 14.3291 9.95365C14.2541 10.3209 14.1416 10.6695 13.9916 10.9995L20.0441 17.052C20.3441 17.352 20.498 17.727 20.5058 18.177C20.513 18.627 20.3666 19.017 20.0666 19.347L19.5716 19.8645C19.2566 20.1795 18.8705 20.3409 18.4133 20.3487C17.9555 20.3559 17.5616 20.1945 17.2316 19.8645L11.1566 13.7895C10.8266 13.9395 10.4855 14.052 10.1333 14.127C9.78046 14.202 9.42406 14.2395 9.06406 14.2395C7.54906 14.2395 6.27046 13.7145 5.22826 12.6645C4.18546 11.6145 3.66406 10.3395 3.66406 8.83945C3.66406 8.13445 3.75796 7.56805 3.94576 7.14025C4.13296 6.71305 4.39156 6.49945 4.72156 6.49945C4.85656 6.49945 4.98016 6.52195 5.09236 6.56695C5.20516 6.61195 5.30656 6.67945 5.39656 6.76945L7.75906 9.10945L9.33406 7.57945L6.97156 5.21695C6.88156 5.12695 6.81016 5.02195 6.75736 4.90195C6.70516 4.78195 6.67906 4.65445 6.67906 4.51945Z" stroke="white" stroke-width="1.8"/>
</svg>
