<svg width="24" height="24" viewBox="0 0 24 24" fill="none" xmlns="http://www.w3.org/2000/svg">
<path d="M21.5009 5.30743V16.0899C21.5009 16.2976 21.4474 16.4701 21.3404 16.6074C21.2333 16.7446 21.0977 16.8484 20.9337 16.9189C20.7695 16.9894 20.6038 17.0138 20.4364 16.9919C20.2691 16.9701 20.1118 16.8855 19.9644 16.7382L8.26245 5.03618C8.11511 4.88885 8.03053 4.73151 8.0087 4.56418C7.98686 4.39685 8.0112 4.2311 8.0817 4.06693C8.1522 3.90293 8.25603 3.76735 8.3932 3.66018C8.53053 3.55318 8.70303 3.49968 8.9107 3.49968H19.6932C20.1984 3.49968 20.6259 3.67468 20.9759 4.02468C21.3259 4.37468 21.5009 4.80226 21.5009 5.30743ZM3.9932 3.60743V5.71493L1.9587 3.68043C1.8202 3.54193 1.74936 3.36793 1.7462 3.15843C1.74303 2.94876 1.81386 2.77151 1.9587 2.62668C2.10353 2.48168 2.2792 2.40918 2.4857 2.40918C2.69203 2.40918 2.86761 2.48168 3.01245 2.62668L21.2009 20.8149C21.3394 20.9534 21.4103 21.1275 21.4134 21.3372C21.4166 21.5467 21.3458 21.7239 21.2009 21.8689C21.0561 22.0138 20.8804 22.0862 20.6739 22.0862C20.4676 22.0862 20.292 22.0138 20.1472 21.8689L16.7779 18.4997H15.5202V19.5957C15.5202 19.8535 15.4339 20.0686 15.2614 20.2409C15.0891 20.4134 14.874 20.4997 14.6162 20.4997H9.40495C9.14711 20.4997 8.93203 20.4134 8.7597 20.2409C8.5872 20.0686 8.50095 19.8535 8.50095 19.5957V18.4997H4.3087C3.80353 18.4997 3.37595 18.3247 3.02595 17.9747C2.67595 17.6247 2.50095 17.1971 2.50095 16.6919V5.30743C2.50095 4.76126 2.67595 4.34135 3.02595 4.04768C3.37595 3.75418 3.63428 3.60743 3.80095 3.60743H3.9932Z" fill="#696EFF"/>
</svg>
