<svg width="24" height="24" viewBox="0 0 24 24" fill="none" xmlns="http://www.w3.org/2000/svg">
<path d="M8.00078 18.9998C7.71745 18.9998 7.47995 18.904 7.28828 18.7123C7.09661 18.5206 7.00078 18.2831 7.00078 17.9998C7.00078 17.7165 7.09661 17.479 7.28828 17.2873C7.47995 17.0956 7.71745 16.9998 8.00078 16.9998H14.1008C15.1508 16.9998 16.0633 16.6665 16.8383 15.9998C17.6133 15.3331 18.0008 14.4998 18.0008 13.4998C18.0008 12.4998 17.6133 11.6665 16.8383 10.9998C16.0633 10.3331 15.1508 9.9998 14.1008 9.9998H7.80078L9.70078 11.8998C9.88411 12.0831 9.97578 12.3165 9.97578 12.5998C9.97578 12.8831 9.88411 13.1165 9.70078 13.2998C9.51745 13.4831 9.28411 13.5748 9.00078 13.5748C8.71745 13.5748 8.48411 13.4831 8.30078 13.2998L4.70078 9.6998C4.60078 9.5998 4.52995 9.49147 4.48828 9.3748C4.44661 9.25814 4.42578 9.13314 4.42578 8.9998C4.42578 8.86647 4.44661 8.74147 4.48828 8.6248C4.52995 8.50814 4.60078 8.3998 4.70078 8.2998L8.30078 4.6998C8.48411 4.51647 8.71745 4.4248 9.00078 4.4248C9.28411 4.4248 9.51745 4.51647 9.70078 4.6998C9.88411 4.88314 9.97578 5.11647 9.97578 5.3998C9.97578 5.68314 9.88411 5.91647 9.70078 6.0998L7.80078 7.9998H14.1008C15.7174 7.9998 17.1049 8.5248 18.2633 9.5748C19.4216 10.6248 20.0008 11.9331 20.0008 13.4998C20.0008 15.0665 19.4216 16.3748 18.2633 17.4248C17.1049 18.4748 15.7174 18.9998 14.1008 18.9998H8.00078Z" fill="white"/>
</svg>
