<svg width="24" height="24" viewBox="0 0 24 24" fill="none" xmlns="http://www.w3.org/2000/svg">
<path d="M12 16.1738C14.145 16.1738 16.0029 16.3527 17.293 16.8096C17.9313 17.0357 18.3607 17.3055 18.623 17.5918C18.8646 17.8555 18.9999 18.1684 19 18.5986C19 19.0274 18.8648 19.3382 18.623 19.5996C18.3599 19.884 17.9287 20.1522 17.2881 20.376C15.9938 20.8279 14.1347 21 12 21C9.85549 21 7.99724 20.8221 6.70703 20.3652C6.06861 20.1391 5.63933 19.8683 5.37695 19.582C5.13533 19.3183 5.00004 19.0054 5 18.5752C5 18.1467 5.13541 17.8365 5.37695 17.5752C5.64005 17.2908 6.07128 17.0216 6.71191 16.7979C8.0062 16.3459 9.86536 16.1738 12 16.1738ZM12 3C14.3873 3 16.2939 4.90677 16.2939 7.29102C16.2939 9.67555 14.387 11.583 12 11.583C9.61384 11.583 7.70605 9.67543 7.70605 7.29102C7.70607 4.90689 9.61361 3 12 3Z" stroke="black" stroke-width="2"/>
</svg>
