<svg width="24" height="24" viewBox="0 0 24 24" fill="none" xmlns="http://www.w3.org/2000/svg">
<path d="M6.025 16H13.975C14.1917 16 14.3458 15.9083 14.4375 15.725C14.5292 15.5417 14.5083 15.3667 14.375 15.2L11.95 12.025C11.9 11.9583 11.8417 11.9083 11.775 11.875C11.7083 11.8417 11.6333 11.825 11.55 11.825C11.4667 11.825 11.3917 11.8417 11.325 11.875C11.2583 11.9083 11.2 11.9583 11.15 12.025L9.65 13.975C9.6 14.0417 9.54167 14.0917 9.475 14.125C9.40833 14.1583 9.33333 14.175 9.25 14.175C9.16667 14.175 9.09167 14.1583 9.025 14.125C8.95833 14.0917 8.9 14.0417 8.85 13.975L8.1 13C8.05 12.9333 7.99167 12.8875 7.925 12.8625C7.85833 12.8375 7.78333 12.825 7.7 12.825C7.61667 12.825 7.54167 12.8375 7.475 12.8625C7.40833 12.8875 7.35 12.9333 7.3 13L5.625 15.2C5.49167 15.3667 5.47083 15.5417 5.5625 15.725C5.65417 15.9083 5.80833 16 6.025 16ZM4 20C3.45 20 2.97917 19.8042 2.5875 19.4125C2.19583 19.0208 2 18.55 2 18V6C2 5.45 2.19583 4.97917 2.5875 4.5875C2.97917 4.19583 3.45 4 4 4H16C16.55 4 17.0208 4.19583 17.4125 4.5875C17.8042 4.97917 18 5.45 18 6V10.5L21.15 7.35C21.3167 7.18333 21.5 7.14167 21.7 7.225C21.9 7.30833 22 7.46667 22 7.7V16.3C22 16.5333 21.9 16.6917 21.7 16.775C21.5 16.8583 21.3167 16.8167 21.15 16.65L18 13.5V18C18 18.55 17.8042 19.0208 17.4125 19.4125C17.0208 19.8042 16.55 20 16 20H4Z" fill="black"/>
</svg>
