<svg width="24" height="24" viewBox="0 0 24 24" fill="none" xmlns="http://www.w3.org/2000/svg">
<path d="M9.00013 12.9941V14.9941C9.00013 15.2775 9.09596 15.515 9.28763 15.7066C9.47929 15.8983 9.71679 15.9941 10.0001 15.9941C10.2835 15.9941 10.521 15.8983 10.7126 15.7066C10.9043 15.515 11.0001 15.2775 11.0001 14.9941V12.9941H13.0001C13.2835 12.9941 13.521 12.8983 13.7126 12.7066C13.9043 12.515 14.0001 12.2775 14.0001 11.9941C14.0001 11.7108 13.9043 11.4733 13.7126 11.2816C13.521 11.09 13.2835 10.9941 13.0001 10.9941H11.0001V8.99413C11.0001 8.71079 10.9043 8.47329 10.7126 8.28163C10.521 8.08996 10.2835 7.99413 10.0001 7.99413C9.71679 7.99413 9.47929 8.08996 9.28763 8.28163C9.09596 8.47329 9.00013 8.71079 9.00013 8.99413V10.9941H7.00013C6.71679 10.9941 6.47929 11.09 6.28763 11.2816C6.09596 11.4733 6.00013 11.7108 6.00013 11.9941C6.00013 12.2775 6.09596 12.515 6.28763 12.7066C6.47929 12.8983 6.71679 12.9941 7.00013 12.9941H9.00013ZM4.07187 20.2034C3.44221 20.2034 2.90563 19.9816 2.46213 19.5381C2.01863 19.0946 1.79688 18.558 1.79688 17.9284V6.07187C1.79688 5.44221 2.01863 4.90562 2.46213 4.46212C2.90563 4.01862 3.44221 3.79688 4.07187 3.79688H15.9284C16.558 3.79688 17.0946 4.01862 17.5381 4.46212C17.9816 4.90562 18.2034 5.44221 18.2034 6.07187V10.5001L21.2339 7.46963C21.4204 7.28313 21.6286 7.23746 21.8586 7.33262C22.0885 7.42796 22.2034 7.60629 22.2034 7.86763V16.1326C22.2034 16.394 22.0885 16.5723 21.8586 16.6676C21.6286 16.7628 21.4204 16.7171 21.2339 16.5306L18.2034 13.5001V17.9284C18.2034 18.558 17.9816 19.0946 17.5381 19.5381C17.0946 19.9816 16.558 20.2034 15.9284 20.2034H4.07187Z" fill="black"/>
</svg>
