<svg width="24" height="24" viewBox="0 0 24 24" fill="none" xmlns="http://www.w3.org/2000/svg">
<path d="M17.5259 10.5772C17.7911 10.4072 17.9237 10.1689 17.9237 9.86243C17.9237 9.55593 17.7911 9.31768 17.5259 9.14768L12.8242 6.13043C12.5423 5.94376 12.2533 5.93126 11.9572 6.09293C11.661 6.25443 11.5129 6.5051 11.5129 6.84493V12.8799C11.5129 13.2198 11.661 13.4704 11.9572 13.6319C12.2533 13.7936 12.5423 13.7811 12.8242 13.5944L17.5259 10.5772ZM8.21016 18.0657C7.58049 18.0657 7.04391 17.8439 6.60041 17.4004C6.15691 16.9569 5.93516 16.4203 5.93516 15.7907V3.93418C5.93516 3.30451 6.15691 2.76793 6.60041 2.32443C7.04391 1.88093 7.58049 1.65918 8.21016 1.65918H20.0667C20.6963 1.65918 21.2329 1.88093 21.6764 2.32443C22.1199 2.76793 22.3417 3.30451 22.3417 3.93418V15.7907C22.3417 16.4203 22.1199 16.9569 21.6764 17.4004C21.2329 17.8439 20.6963 18.0657 20.0667 18.0657H8.21016ZM3.93516 22.3407C3.30549 22.3407 2.76891 22.1189 2.32541 21.6754C1.88191 21.2319 1.66016 20.6953 1.66016 20.0657V7.07168C1.66016 6.75251 1.76991 6.4831 1.98941 6.26343C2.20907 6.04393 2.47849 5.93418 2.79766 5.93418C3.11682 5.93418 3.38624 6.04393 3.60591 6.26343C3.82541 6.4831 3.93516 6.75251 3.93516 7.07168V20.0657H16.9292C17.2483 20.0657 17.5177 20.1754 17.7374 20.3949C17.9569 20.6146 18.0667 20.884 18.0667 21.2032C18.0667 21.5223 17.9569 21.7918 17.7374 22.0114C17.5177 22.2309 17.2483 22.3407 16.9292 22.3407H3.93516Z" fill="#696EFF"/>
</svg>
