<svg width="24" height="24" viewBox="0 0 24 24" fill="none" xmlns="http://www.w3.org/2000/svg">
<path d="M4.07187 20.2034C3.44221 20.2034 2.90563 19.9816 2.46213 19.5381C2.01862 19.0946 1.79688 18.558 1.79688 17.9284V6.07187C1.79688 5.44221 2.01862 4.90562 2.46213 4.46212C2.90563 4.01862 3.44221 3.79688 4.07187 3.79688H15.9284C16.558 3.79688 17.0946 4.01862 17.5381 4.46212C17.9816 4.90562 18.2034 5.44221 18.2034 6.07187V10.5001L21.2339 7.46963C21.4204 7.28313 21.6286 7.23746 21.8586 7.33262C22.0885 7.42796 22.2034 7.60629 22.2034 7.86763V16.1326C22.2034 16.394 22.0885 16.5723 21.8586 16.6676C21.6286 16.7628 21.4204 16.7171 21.2339 16.5306L18.2034 13.5001V17.9284C18.2034 18.558 17.9816 19.0946 17.5381 19.5381C17.0946 19.9816 16.558 20.2034 15.9284 20.2034H4.07187Z" stroke="black" stroke-width="2"/>
</svg>
