<svg width="24" height="24" viewBox="0 0 24 24" fill="none" xmlns="http://www.w3.org/2000/svg">
<path d="M11.0219 10.4344L10.3459 9.75838C10.1379 9.55038 9.89654 9.44637 9.62187 9.44637C9.34721 9.44637 9.10587 9.55038 8.89787 9.75838C8.68987 9.96621 8.58587 10.2116 8.58587 10.4946C8.58587 10.7776 8.68987 11.0231 8.89787 11.2311L10.2201 12.5784C10.4481 12.8062 10.7154 12.9201 11.0219 12.9201C11.3284 12.9201 11.5955 12.8062 11.8234 12.5784L15.2001 9.19588C15.4081 8.98788 15.5111 8.74337 15.5091 8.46237C15.5071 8.18137 15.4021 7.93688 15.1941 7.72888C14.9861 7.52088 14.7416 7.41687 14.4606 7.41687C14.1798 7.41687 13.9354 7.52088 13.7274 7.72888L11.0219 10.4344ZM20.2034 10.1761C20.2034 10.966 20.0565 11.7824 19.7629 12.6254C19.4692 13.4684 19.0382 14.3397 18.4699 15.2394C17.9017 16.1389 17.193 17.0656 16.3436 18.0196C15.4943 18.9736 14.516 19.9566 13.4089 20.9686C13.2135 21.1433 12.9922 21.2743 12.7449 21.3616C12.4977 21.449 12.2495 21.4926 12.0001 21.4926C11.7508 21.4926 11.5025 21.449 11.2554 21.3616C11.008 21.2743 10.7867 21.1433 10.5914 20.9686C9.48421 19.9566 8.50596 18.9736 7.65663 18.0196C6.80729 17.0656 6.09854 16.1389 5.53038 15.2394C4.96204 14.3397 4.53104 13.4684 4.23738 12.6254C3.94371 11.7824 3.79688 10.966 3.79688 10.1761C3.79688 7.62046 4.62196 5.58496 6.27213 4.06963C7.92229 2.55446 9.83162 1.79688 12.0001 1.79688C14.1686 1.79688 16.078 2.55446 17.7281 4.06963C19.3783 5.58496 20.2034 7.62046 20.2034 10.1761Z" fill="black"/>
</svg>
