<svg width="24" height="24" viewBox="0 0 24 24" fill="none" xmlns="http://www.w3.org/2000/svg">
<path d="M8.45 10.5008H7.48575C7.20242 10.5008 6.96492 10.4049 6.77325 10.2133C6.58158 10.0216 6.48575 9.78411 6.48575 9.50078C6.48575 9.21745 6.58158 8.97995 6.77325 8.78828C6.96492 8.59661 7.20242 8.50078 7.48575 8.50078H8.45V7.53653C8.45 7.2532 8.54583 7.0157 8.7375 6.82403C8.92917 6.63236 9.16667 6.53653 9.45 6.53653C9.73333 6.53653 9.97083 6.63236 10.1625 6.82403C10.3542 7.0157 10.45 7.2532 10.45 7.53653V8.50078H11.414C11.6973 8.50078 11.9348 8.59661 12.1265 8.78828C12.3182 8.97995 12.414 9.21745 12.414 9.50078C12.414 9.78411 12.3182 10.0216 12.1265 10.2133C11.9348 10.4049 11.6973 10.5008 11.414 10.5008H10.45V11.465C10.45 11.7484 10.3542 11.9859 10.1625 12.1775C9.97083 12.3692 9.73333 12.465 9.45 12.465C9.16667 12.465 8.92917 12.3692 8.7375 12.1775C8.54583 11.9859 8.45 11.7484 8.45 11.465V10.5008ZM9.45 16.1383C7.59733 16.1383 6.02792 15.4952 4.74175 14.209C3.45558 12.9227 2.8125 11.3533 2.8125 9.50078C2.8125 7.64828 3.45558 6.07886 4.74175 4.79253C6.02792 3.50636 7.59733 2.86328 9.45 2.86328C11.3025 2.86328 12.8718 3.50636 14.158 4.79253C15.4443 6.07886 16.0875 7.64828 16.0875 9.50078C16.0875 10.2421 15.9748 10.9348 15.7495 11.5788C15.524 12.2228 15.2193 12.7908 14.8353 13.2828L20.3875 18.841C20.5987 19.0562 20.7043 19.3224 20.7043 19.6395C20.7043 19.9569 20.5977 20.2211 20.3845 20.4323C20.1712 20.6434 19.9049 20.749 19.5858 20.749C19.2666 20.749 19.0014 20.6434 18.7903 20.4323L13.244 14.886C12.748 15.2702 12.176 15.5749 11.528 15.8003C10.88 16.0256 10.1873 16.1383 9.45 16.1383ZM9.45 13.8633C10.664 13.8633 11.6946 13.4397 12.5418 12.5925C13.3889 11.7455 13.8125 10.7149 13.8125 9.50078C13.8125 8.28661 13.3889 7.25603 12.5418 6.40903C11.6946 5.56187 10.664 5.13828 9.45 5.13828C8.23583 5.13828 7.20517 5.56187 6.358 6.40903C5.511 7.25603 5.0875 8.28661 5.0875 9.50078C5.0875 10.7149 5.511 11.7455 6.358 12.5925C7.20517 13.4397 8.23583 13.8633 9.45 13.8633Z" fill="black"/>
</svg>
