<svg width="900" height="900" viewBox="0 0 900 900" fill="none" xmlns="http://www.w3.org/2000/svg">
<rect width="900" height="899.122" rx="175.61" fill="white"/>
<rect width="898.537" height="898.537" transform="translate(0.734375 0.292969)" fill="white"/>
<path d="M309.844 456.958C310.089 456.569 310.333 456.18 310.922 455.565C311.562 455.132 311.859 454.923 312.445 454.69C314.392 451.689 316.592 448.88 317.57 445.696C318.806 441.674 319.044 437.346 319.744 432.868C319.799 432.018 319.822 431.449 320.143 430.806C320.73 429.444 321.233 428.161 321.273 426.865C321.59 416.437 321.828 406.007 322.067 395.577C322.108 393.791 322.037 392.002 322.047 389.933C322.096 389.085 322.115 388.517 322.427 387.877C322.777 385.036 322.834 382.269 322.91 379.245C322.981 378.652 323.033 378.315 323.34 377.919C324.365 375.073 325.134 372.285 325.905 369.262C325.908 368.714 325.909 368.401 325.922 367.774C325.921 366.831 325.907 366.202 325.89 365.318C326.133 364.264 326.377 363.465 326.645 362.361C326.703 361.242 326.739 360.428 326.933 359.533C327.289 359.296 327.4 359.094 327.436 358.533C327.455 357.398 327.46 356.572 327.472 355.747C327.478 355.749 327.467 355.738 327.74 355.686C328.303 354.643 328.592 353.653 328.923 352.412C328.988 351.822 329.009 351.483 329.287 351.096C329.618 349.805 329.693 348.56 329.773 347.315C329.778 347.315 329.773 347.305 330.055 347.25C330.638 345.945 330.939 344.696 331.258 343.268C331.277 343.088 331.314 342.729 331.54 342.692C331.681 341.881 331.596 341.107 331.57 340.193C331.738 339.875 331.889 339.745 332.354 339.609C333.685 336.526 334.745 333.497 335.811 330.434C335.817 330.4 335.856 330.342 336.079 330.193C336.402 329.156 336.502 328.268 336.611 327.358C336.619 327.335 336.648 327.295 336.931 327.268C337.79 325.241 338.367 323.24 338.955 321.233C338.965 321.227 338.958 321.203 339.236 321.164C340.093 319.366 340.67 317.609 341.268 315.68C341.287 315.51 341.319 315.168 341.585 315.107C342.383 314.55 343.116 314.152 343.416 313.541C347.252 305.745 351.062 297.935 354.798 290.091C356.524 286.465 358.073 282.755 359.958 279.032C361.555 276.442 362.896 273.902 364.276 271.106C364.304 270.505 364.291 270.16 364.279 269.816C364.362 269.542 364.445 269.269 364.683 268.849C364.838 268.703 364.885 268.701 364.944 268.862C365.275 268.793 365.546 268.564 365.819 268.333C365.82 268.332 365.821 268.33 366.081 268.282C366.661 267.501 366.981 266.767 367.317 266.029C367.334 266.025 367.366 266.039 367.545 265.942C367.851 265.608 367.977 265.371 368.106 264.983C368.109 264.832 368.166 264.534 368.448 264.524C369.557 263.855 370.83 263.355 371.132 262.508C372.249 259.381 374.54 258.881 377.378 259.126C378.368 259.211 379.372 259.149 380.445 259.456C384.34 259.967 388.157 260.199 391.978 260.331C392.206 260.339 392.462 259.537 392.987 259.108C393.836 259.081 394.403 259.058 395.151 259.055C395.333 259.076 395.699 259.089 395.939 259.008C397.017 258.463 397.854 257.998 398.801 257.377C399.091 257.036 399.302 256.897 399.836 256.808C401.615 255.686 403.103 254.561 404.591 253.435C404.591 253.435 404.836 253.705 405.009 253.667C405.873 253.169 406.563 252.709 407.242 252.24C407.231 252.231 407.25 252.248 407.417 252.166C407.787 251.929 407.933 251.732 408.025 251.486C408.027 251.479 408.036 251.499 408.256 251.472C408.806 251.188 409.137 250.93 409.482 250.661C409.496 250.651 409.524 250.628 409.768 250.613C410.355 250.122 410.697 249.646 411.05 249.165C411.061 249.16 411.071 249.139 411.247 249.141C411.573 248.886 411.724 248.63 411.875 248.159C411.846 247.805 411.817 247.665 411.787 247.525C412.523 246.77 413.26 246.015 414.515 245.236C415.493 244.472 415.952 243.731 416.411 242.991C416.411 242.991 416.372 243.009 416.573 243.036C416.916 243.062 417.058 243.059 417.445 243.015C418.021 242.472 418.351 241.97 418.779 241.305C419.03 240.936 419.219 240.772 419.658 240.572C419.857 239.996 419.843 239.496 419.829 238.995C419.974 238.708 420.118 238.421 420.622 237.953C421.239 237.714 421.498 237.658 421.986 237.507C422.569 236.72 422.924 236.028 423.314 235.081C423.344 234.483 423.339 234.141 423.333 233.798C423.333 233.798 423.443 233.446 423.797 233.247C424.896 232.027 425.641 231.006 426.575 229.858C426.898 229.31 427.033 228.889 427.168 228.463C427.168 228.458 427.176 228.454 427.36 228.321C427.665 227.761 427.785 227.333 427.997 226.741C428.233 226.363 428.419 226.197 428.86 225.945C429.197 225.164 429.321 224.515 429.454 223.86C429.464 223.853 429.466 223.831 429.667 223.675C429.986 222.861 430.105 222.201 430.312 221.377C430.538 220.997 430.721 220.831 431.163 220.58C431.49 219.796 431.603 219.145 431.726 218.481C431.736 218.467 431.75 218.437 431.961 218.268C432.292 217.204 432.411 216.308 432.565 215.189C432.818 214.586 433.037 214.207 433.474 213.665C433.809 212.606 433.925 211.709 434.054 210.627C434.066 210.442 434.079 210.072 434.281 209.868C435.098 206.213 435.715 202.761 436.346 199.053C436.392 198.453 436.423 198.11 436.697 197.732C436.992 196.937 437.044 196.177 437.102 195.138C437.127 194.303 437.148 193.747 437.43 193.142C439.021 191.884 439.284 190.836 437.221 189.805C437.247 188.155 437.297 186.834 437.646 185.501C439.772 183.681 440.15 176.545 438.459 174.93C438.239 174.72 437.724 174.819 437.303 174.448C437.264 172.805 437.268 171.488 437.559 170.097C438.756 167.149 440.017 164.245 437.112 161.47C437.101 160.922 437.094 160.608 437.305 160.091C437.144 157.684 436.765 155.48 436.377 152.954C435.597 148.775 434.827 144.919 434.06 141.052C434.064 141.042 434.043 141.037 434.054 140.728C433.8 139.107 433.536 137.794 433.253 136.284C433.223 135.955 433.213 135.823 433.155 135.514C432.978 135.118 432.796 134.958 432.561 134.662C432.56 134.332 432.558 134.2 432.549 133.764C432.293 132.137 432.044 130.813 431.78 129.26C431.759 128.724 431.753 128.417 431.758 127.769C430.701 123.788 429.633 120.15 428.416 116.422C428.097 116.166 427.973 115.97 427.905 115.425C427.734 113.432 427.554 111.759 427.334 109.707C429.519 109.976 431.425 110.21 433.522 110.516C434.069 110.78 434.427 110.973 434.814 111.363C435.349 111.686 435.855 111.813 436.527 111.969C436.695 111.999 437.03 112.055 437.099 112.28C437.66 112.822 438.153 113.139 438.656 113.447C438.667 113.438 438.645 113.461 438.686 113.733C440.512 114.82 442.297 115.635 444.3 116.487C444.871 116.759 445.226 116.994 445.417 117.355C445.269 117.786 445.284 118.091 445.3 118.397C445.683 118.089 446.065 117.782 446.601 117.46C446.754 117.445 447.039 117.327 447.039 117.327C447.166 117.357 447.293 117.387 447.582 117.721C447.793 118.271 447.842 118.516 447.974 118.987C448.771 119.574 449.484 119.936 450.462 120.348C451.586 120.631 452.445 120.862 453.304 121.094C453.433 121.149 453.562 121.205 453.895 121.53C454.235 121.923 454.394 121.972 454.576 121.945C454.576 121.945 454.803 122.011 454.813 122.442C454.676 125.712 456.597 125.758 458.612 125.687C458.614 125.695 458.627 125.694 458.75 125.887C459.302 126.21 459.731 126.339 460.321 126.505C460.481 126.542 460.803 126.613 460.845 126.881C461.661 127.666 462.435 128.183 463.23 128.705C463.251 128.711 463.293 128.721 463.301 128.991C466.345 131.139 469.383 133.016 472.46 135.152C474.097 136.734 475.588 138.228 477.34 139.293C478.031 139.712 479.303 139.174 480.311 139.072C480.58 139.22 480.849 139.369 481.242 139.773C481.366 140.03 481.376 140.238 481.292 140.345C481.348 140.638 481.488 140.824 481.621 141.023C481.615 141.036 481.638 141.02 481.691 141.153C481.975 141.247 482.206 141.209 482.616 141.168C482.796 141.165 483.144 141.076 483.144 141.076C483.507 141.321 483.87 141.567 484.397 142.162C484.609 142.772 484.657 143.032 484.799 143.543C485.844 144.403 486.795 145.011 487.748 145.627C487.75 145.635 487.765 145.632 487.866 145.877C488.92 146.717 489.872 147.311 490.826 147.915C490.827 147.925 490.842 147.924 490.897 148.058C491.182 148.141 491.413 148.09 491.842 148.036C492.167 147.997 492.294 147.962 492.421 147.928C492.421 147.928 492.756 148.09 492.904 148.443C493.339 149.261 493.626 149.725 494.005 150.442C495.061 151.299 496.026 151.902 497.202 152.541C497.752 152.813 498.09 153.051 498.261 153.452C499.514 154.528 500.932 155.441 502.513 156.389C502.675 156.424 502.991 156.522 503.05 156.786C504.639 159.839 506.555 162.134 510.258 162.493C510.824 162.542 511.149 162.55 511.474 162.558C512.102 163.048 512.731 163.538 513.53 164.395C513.752 165.015 513.804 165.269 513.899 165.661C514.178 165.773 514.412 165.745 514.8 165.718C514.954 165.72 515.251 165.645 515.251 165.645C515.251 165.645 515.445 165.781 515.433 166.195C516.668 167.807 517.914 169.006 519.274 170.435C520.181 171.73 520.868 172.913 521.831 173.793C522.148 174.083 523.179 173.592 524.026 173.432C524.169 173.407 524.445 173.324 524.445 173.324C525.351 174.059 526.256 174.795 527.324 175.916C527.528 176.553 527.576 176.804 527.703 177.227C527.928 177.618 528.132 177.759 528.391 177.831C528.394 177.839 528.412 177.839 528.552 178.042C529.161 178.321 529.63 178.396 530.099 178.471C530.099 178.471 530.008 178.586 530.008 178.793C530.397 179.182 530.787 179.364 531.176 179.546C531.176 179.546 531.147 179.65 531.099 179.915C532.721 181.709 532.724 185.082 536.317 184.764C536.848 184.807 537.153 184.818 537.458 184.828C537.458 184.828 537.652 184.958 537.732 185.336C538.121 185.868 538.43 186.023 538.74 186.178C539.875 187.194 541.01 188.21 542.297 189.725C542.784 190.39 543.118 190.557 543.452 190.724C543.681 190.825 543.909 190.926 544.24 191.367C544.383 191.941 544.428 192.173 544.487 192.688C546.246 195.139 547.976 197.324 549.806 199.422C549.893 199.521 550.867 198.844 551.428 198.529C551.549 198.575 551.669 198.621 551.939 199.025C552.353 199.864 552.619 200.344 552.703 201.006C553.571 201.785 554.619 202.382 555.668 202.979C555.969 203.162 556.271 203.345 556.41 203.729C556.142 204.099 556.035 204.268 555.929 204.437C556.36 204.458 556.792 204.48 557.224 204.501C557.504 204.73 557.784 204.958 558.171 205.588C558.752 206.349 559.226 206.707 559.701 207.065C559.701 207.065 559.774 207.045 559.75 207.309C559.772 207.873 559.818 208.174 559.856 208.754C560.203 210.685 560.42 212.5 563.117 211.667C563.453 211.639 563.586 211.609 563.719 211.579C563.982 211.834 564.245 212.09 564.501 212.804C564.734 213.714 564.973 214.166 565.213 214.629C565.213 214.64 565.233 214.648 565.307 214.822C565.534 215.213 565.742 215.346 566.192 215.506C566.751 216.061 567.122 216.503 567.605 217.14C568.127 217.48 568.536 217.626 568.945 217.773C569.158 217.914 569.37 218.056 569.614 218.532C569.646 218.867 569.653 219.187 569.554 219.288C569.572 219.588 569.688 219.787 569.81 219.996C569.815 220.006 569.837 220.016 569.835 220.323C570.73 221.146 571.626 221.661 572.523 222.176C572.523 222.176 572.721 222.167 572.757 222.498C572.826 223.16 572.857 223.49 572.885 224.124C572.979 226.725 574.424 227.079 576.306 226.802C576.306 226.802 576.528 226.874 576.557 227.209C576.622 227.842 576.66 228.14 576.773 228.615C576.997 229.011 577.198 229.163 577.645 229.27C577.971 229.272 578.101 229.252 578.231 229.231C578.231 229.231 578.233 229.224 578.201 229.474C578.203 230.056 578.238 230.389 578.088 230.871C578.52 231.455 579.135 231.891 579.939 232.35C580.127 232.373 580.503 232.319 580.503 232.319C580.503 232.319 580.533 232.291 580.47 232.471C580.406 232.651 580.401 232.997 580.298 233.099C580.321 233.402 580.447 233.603 580.724 233.903C581.058 234.163 581.196 234.357 581.363 234.755C581.576 235.142 581.761 235.305 582.099 235.588C582.564 235.919 582.92 236.079 583.276 236.24C583.577 236.582 583.878 236.924 584.229 237.729C584.32 238.519 584.361 238.845 584.222 239.322C584.926 240.634 585.811 241.796 586.709 242.972C586.723 242.986 586.733 243.023 586.731 243.246C586.972 243.805 587.215 244.141 587.482 244.494C587.504 244.51 587.522 244.563 587.501 244.829C588.236 245.94 588.992 246.785 589.884 247.722C590.186 247.962 590.308 248.14 590.213 248.547C590.281 251.686 591.504 254.009 594.238 255.566C594.262 255.73 594.318 256.058 594.32 256.32C594.599 257.165 594.876 257.748 595.308 258.426C595.652 258.68 595.788 258.877 595.782 259.333C596.275 260.685 596.858 261.815 597.595 263.039C597.931 263.297 598.064 263.494 598.061 263.948C598.3 264.779 598.624 265.388 598.951 266.008C598.953 266.02 598.97 266.035 598.963 266.335C600.474 270.251 601.994 273.868 603.552 277.678C603.629 277.998 603.667 278.123 603.779 278.543C605.06 283.716 606.279 288.592 607.472 293.476C608.725 298.603 610.246 303.688 611.108 308.881C611.997 314.233 612.271 319.69 612.74 325.108C613.012 328.25 613.301 331.406 613.286 334.554C613.267 338.604 612.87 342.651 612.837 346.702C612.83 347.424 613.799 348.154 614.317 348.881C614.347 349.212 614.377 349.544 614.007 350.126C613.069 351.33 612.174 352.239 612.053 353.242C611.569 357.235 611.573 361.296 610.936 365.257C609.966 371.302 608.574 377.278 607.477 383.304C607.343 384.036 607.924 384.898 608.159 385.943C608.132 386.514 608.12 386.84 607.81 387.248C607.371 392.978 607.122 398.628 607.178 404.274C607.19 405.485 608.307 406.685 608.91 407.893C608.906 407.896 608.913 407.888 608.907 408.227C608.148 414.87 612.03 419.526 614.779 424.527C615.268 425.417 617.128 425.552 618.355 426.035C618.355 426.035 618.163 426.2 618.203 426.407C618.621 426.813 618.998 427.013 619.375 427.213C619.375 427.213 619.477 427.348 619.382 427.522C619.398 427.617 619.51 427.538 619.622 427.459C620.227 427.832 620.832 428.204 621.668 428.994C622.388 429.677 622.877 429.943 623.366 430.209C623.366 430.209 623.439 430.157 623.406 430.386C623.373 430.615 623.416 430.99 623.463 431.229C624.01 431.787 624.511 432.108 625.011 432.431C625.01 432.435 625.017 432.432 625.057 432.699C625.852 433.28 626.606 433.594 627.533 433.925C627.706 433.941 628.05 433.978 628.144 434.146C628.457 434.437 628.677 434.559 629.07 434.694C629.244 434.706 629.592 434.735 629.757 434.936C630.597 435.249 631.272 435.362 632.121 435.49C632.295 435.505 632.642 435.543 632.712 435.823C637.37 439.217 642.129 437.865 646.754 436.389C648.82 435.73 650.628 434.266 652.569 433.168C652.584 433.17 652.608 433.155 652.781 433.09C653.17 432.883 653.32 432.69 653.43 432.257C653.438 431.94 653.42 431.813 653.403 431.687C653.403 431.687 653.383 431.668 653.639 431.707C654.227 431.71 654.557 431.674 655.035 431.825C656.136 430.905 657.09 429.798 658.067 428.507C658.092 428.322 658.063 427.951 658.063 427.951C658.063 427.951 658.019 427.874 658.205 427.929C658.391 427.985 658.692 427.973 658.79 428.072C659.08 428.053 659.272 427.934 659.476 427.811C659.487 427.807 659.499 427.784 659.71 427.635C660.005 426.991 660.089 426.495 660.173 425.999C660.4 425.682 660.626 425.364 661.202 424.87C661.893 424.488 662.235 424.282 662.747 424.244C663.547 423.488 664.175 422.563 664.828 421.474C664.852 421.31 664.914 420.983 665.203 420.959C668.209 418.773 669.703 416.038 669.467 412.487C669.474 412.486 669.462 412.466 669.743 412.422C671.827 408.772 673.376 405.113 672.48 400.682C672.535 400.102 672.557 399.769 672.871 399.372C673.466 398.085 673.673 396.827 674.1 395.648C674.501 394.539 675.134 393.514 675.684 392.465C675.702 392.479 675.721 392.522 675.712 392.785C676.708 394.16 677.713 395.273 678.885 396.525C679.202 397.068 679.352 397.471 679.561 398.059C679.817 398.4 680.015 398.557 680.381 398.852C680.695 399.393 680.842 399.796 680.791 400.373C680.595 401.139 680.404 401.82 680.628 402.311C682.965 407.438 685.337 412.55 687.774 417.631C688.456 419.051 689.384 420.353 690.218 421.884C690.236 422.058 690.265 422.408 690.239 422.714C690.966 424.639 691.718 426.257 692.484 428.046C692.498 428.218 692.525 428.561 692.51 428.883C693.262 431.294 694.029 433.382 694.8 435.482C694.804 435.493 694.819 435.513 694.805 435.837C695.975 440.924 697.147 445.688 698.379 450.438C698.429 450.631 699.046 450.678 699.409 450.807C699.42 450.822 699.432 450.856 699.387 451.131C699.187 452.013 698.794 452.671 698.913 453.218C700.135 458.841 701.423 464.451 702.765 470.046C702.844 470.375 703.55 470.554 703.976 471.083C704.024 471.923 704.06 472.482 704.069 473.369C705.057 481.571 706.042 489.448 707.139 497.31C707.234 497.989 708.073 498.564 708.572 499.432C708.589 500.004 708.6 500.331 708.396 500.857C708.582 507.73 708.985 514.405 709.382 521.079C709.427 521.844 709.386 522.616 709.477 523.374C711.098 536.869 709.776 550.286 708.473 563.709C708.307 565.416 708.512 567.159 708.257 568.971C707.352 571.54 706.67 574.009 706.128 576.509C704.901 582.174 703.743 587.854 702.543 593.71C702.529 593.892 702.489 594.255 702.208 594.3C701.088 597.12 700.25 599.895 699.404 602.673C699.396 602.676 699.4 602.692 699.151 602.717C698.811 603.49 698.722 604.239 698.6 605.226C698.32 606.053 698.073 606.641 697.562 607.291C693.95 613.449 690.54 619.513 687.285 625.66C686.258 627.6 685.643 629.759 684.832 631.817C684.824 631.817 684.837 631.83 684.568 631.853C683.727 632.338 683.018 632.701 682.603 633.276C676.662 641.504 670.753 649.756 664.857 658.017C663.277 660.231 661.771 662.497 660.134 664.954C659.367 665.818 658.698 666.467 657.75 667.135C656.873 668.159 656.275 669.164 655.597 670.331C655.384 670.7 655.205 670.857 654.705 670.979C653.839 671.992 653.251 672.99 652.654 673.999C652.646 674.011 652.64 674.041 652.376 674.062C650.271 677.459 647.807 680.649 646.737 684.253C645.206 689.41 647.153 693.94 650.604 695.889C654.112 697.87 661.229 697.219 664.241 694.491C664.804 694.203 665.221 694.079 665.797 694.16C666.379 695.255 666.801 696.145 667.135 697.193C666.897 697.551 666.709 697.701 666.271 697.924C665.883 698.653 665.706 699.26 665.351 700.015C664.59 700.661 664.007 701.159 663.15 701.664C661.509 703.446 660.141 705.22 658.687 707.155C658.45 707.517 658.26 707.668 657.851 707.839C657.535 708.122 657.399 708.334 657.152 708.736C656.607 709.31 656.172 709.695 655.556 710.147C655.237 710.425 655.099 710.636 654.848 711.034C654.299 711.603 653.862 711.983 653.142 712.358C650.996 714.15 649.133 715.947 647.176 717.895C646.923 718.235 646.729 718.372 646.217 718.46C644.587 719.754 643.239 721.044 641.801 722.489C641.554 722.834 641.362 722.972 640.85 723.063C639.484 724.107 638.401 725.148 637.221 726.34C636.966 726.679 636.775 726.823 636.269 726.922C633.871 728.709 631.757 730.497 629.632 732.28C629.622 732.275 629.62 732.299 629.341 732.294C628.229 733.053 627.397 733.816 626.558 734.574C626.551 734.568 626.551 734.586 626.378 734.658C625.992 734.876 625.835 735.066 625.565 735.326C625.398 735.35 625.063 735.394 624.776 735.379C622.356 736.881 620.223 738.399 617.814 739.927C616.688 740.688 615.837 741.44 614.821 742.217C614.656 742.243 614.326 742.292 614.05 742.277C613.188 742.77 612.602 743.278 612.005 743.789C611.992 743.792 611.977 743.811 611.689 743.8C608.264 745.828 605.127 747.867 601.854 750.079C601.31 750.397 600.902 750.544 600.338 750.5C597.985 751.713 595.788 753.116 593.584 754.513C593.576 754.507 593.576 754.526 593.27 754.52C591.229 754.577 589.221 754.167 588.974 756.811C588.97 756.808 588.974 756.815 588.663 756.812C583.338 758.844 578.28 760.777 573.331 762.956C571.01 763.978 568.897 765.472 566.52 766.77C566.35 766.788 566.009 766.824 565.696 766.808C564.16 767.052 562.902 767.208 561.719 767.592C556.354 769.331 550.971 771.026 545.676 772.96C542.885 773.98 540.262 775.458 537.387 776.742C537.21 776.756 536.857 776.781 536.518 776.768C528.102 778.461 520.042 780.256 511.942 781.846C505.658 783.079 499.324 784.058 493.102 784.872C493.451 784.329 493.673 783.89 493.976 783.823C509.912 780.308 524.522 773.411 538.712 765.699C553.84 757.478 567.815 747.439 580.423 735.704C596.597 720.649 611.582 704.433 622.944 685.366C629.757 673.931 635.958 662.056 641.454 649.934C645.898 640.131 649.101 629.737 652.411 619.462C654.157 614.042 654.954 608.317 656.388 601.781C651.651 605.516 648.249 608.825 644.285 611.194C635.771 616.284 627.044 616.718 618.501 610.897C612.527 606.827 608.875 596.444 610.988 587.81C613.583 577.212 616.641 566.728 619.457 556.184C624.148 538.615 624.566 521.072 618.447 503.757C614.92 493.776 616.165 494.753 607.918 500.417C596.66 508.148 584.615 512.266 570.98 506.631C558.284 501.383 551.112 491.479 547.658 478.67C544.295 466.201 546.521 453.65 547.855 441.145C548.783 432.442 550.187 423.757 550.519 415.031C551.056 400.907 550.129 386.869 547.76 372.834C544.245 352.009 538.53 331.94 529.852 312.727C521.978 295.291 512.308 278.9 500.416 263.871C491.384 252.458 481.555 241.79 470.469 232.328C467.927 230.159 465.244 228.156 461.698 225.339C461.698 227.923 461.745 229.267 461.69 230.608C461.409 237.476 461.768 244.451 460.682 251.191C457.237 272.571 448.289 291.839 435.584 309.144C427.098 320.702 417.019 331.075 408.126 342.351C395.111 358.854 383.907 376.516 374.949 395.615C362.871 421.364 357.619 448.623 355.822 476.765C355.313 484.737 354.848 492.778 353.408 500.612C350.595 515.918 344.643 529.895 332.979 540.736C324.128 548.962 313.395 553.842 301.393 552.569C282.587 550.573 267.402 541.237 255.847 526.188C253.334 522.915 250.913 519.571 248.178 515.893C247.615 517.199 247.12 517.865 247.058 518.569C246.472 525.274 245.561 531.984 245.515 538.697C245.439 549.782 245.668 560.885 246.278 571.953C246.718 579.918 247.45 587.944 249.009 595.753C251.494 608.198 254.426 620.581 257.807 632.814C262.193 648.682 268.758 663.773 276.495 678.265C281.201 687.08 286.819 695.418 292.199 703.861C302.412 719.885 315.397 733.622 329.613 745.963C345.972 760.163 364.241 771.654 384.787 779.157C388.062 780.353 391.125 782.127 393.986 783.647C393.085 783.683 392.485 783.706 391.546 783.702C389.392 783.664 387.576 783.652 385.759 783.643C385.757 783.645 385.762 783.641 385.7 783.353C382.091 782.501 378.542 781.937 374.814 781.363C374.634 781.353 374.276 781.333 374.21 781.053C368.556 779.439 362.968 778.105 357.375 776.762C357.371 776.752 357.353 776.764 357.31 776.482C355.002 775.624 352.738 775.047 350.472 774.459C350.469 774.448 350.454 774.466 350.409 774.184C346.975 772.584 343.596 771.24 340.183 769.99C339.891 769.884 339.371 770.4 338.737 770.596C338.15 770.341 337.782 770.118 337.304 769.646C332.932 767.766 328.67 766.134 324.404 764.493C324.399 764.484 324.379 764.49 324.341 764.218C320.502 762.344 316.701 760.743 312.896 759.131C312.891 759.12 312.869 759.13 312.837 758.853C311.302 757.998 309.801 757.419 308.295 756.829C308.292 756.818 308.27 756.828 308.236 756.553C306.701 755.695 305.201 755.113 303.698 754.521C303.696 754.511 303.678 754.521 303.65 754.24C302.369 753.393 301.116 752.827 299.851 752.252C299.839 752.244 299.813 752.228 299.795 751.946C298.526 751.093 297.274 750.522 296.02 749.937C296.017 749.924 295.99 749.931 295.961 749.662C294.686 748.808 293.44 748.224 292.189 747.632C292.184 747.624 292.161 747.628 292.133 747.366C289.318 745.494 286.531 743.886 283.746 742.266C283.748 742.255 283.732 742.253 283.703 741.987C282.937 741.388 282.2 741.055 281.463 740.713C281.463 740.704 281.448 740.713 281.415 740.449C279.876 739.337 278.37 738.49 276.866 737.639C276.867 737.635 276.858 737.637 276.829 737.365C275.799 736.516 274.798 735.941 273.793 735.356C273.788 735.346 273.766 735.348 273.737 735.083C272.195 733.967 270.684 733.116 268.957 732.163C268.15 731.856 267.56 731.652 266.969 731.448C266.837 731.389 266.706 731.33 266.432 730.947C266.252 730.409 266.213 730.197 266.347 729.818C264.601 728.242 262.68 726.831 260.747 725.412C260.737 725.403 260.714 725.387 260.569 725.179C259.938 724.926 259.452 724.883 258.966 724.84C258.966 724.84 259.083 724.592 259.114 724.421C259.143 721.743 257.727 720.765 255.39 720.778C255.39 720.769 255.376 720.768 255.296 720.596C255.057 720.207 254.845 720.079 254.344 720.006C253.794 719.965 253.479 719.956 253.164 719.948C253.164 719.948 252.974 719.842 253.006 719.502C252.547 718.92 252.056 718.676 251.566 718.433C251.106 718.08 250.646 717.727 250.126 716.88C249.693 713.254 249.416 713.02 247.538 714.369C247.436 714.405 247.237 714.492 247.237 714.492C247.003 714.318 246.769 714.144 246.388 713.541C245.456 712.093 244.671 711.074 243.808 709.876C243.518 709.558 243.305 709.418 242.877 709.243C242.371 709.189 242.081 709.169 241.791 709.148C241.791 709.148 241.692 709.157 241.682 708.879C241.394 708.06 241.115 707.519 240.809 706.706C238.239 703.8 235.695 701.165 233.043 698.284C231.467 696.436 229.999 694.835 228.516 693.22C228.5 693.206 228.49 693.166 228.425 692.997C228.219 692.618 228.024 692.485 227.773 692.418C227.77 692.407 227.747 692.403 227.756 692.124C227 691.015 226.237 690.186 225.477 689.346C225.48 689.335 225.458 689.331 225.465 689.063C224.708 687.955 223.944 687.116 223.183 686.268C223.186 686.261 223.17 686.261 223.093 686.087C222.863 685.696 222.656 685.557 222.216 685.392C221.687 684.864 221.339 684.44 221.099 683.919C221.087 683.619 220.966 683.417 220.639 683.18C220.159 683.118 219.884 683.09 219.609 683.062C219.609 683.062 219.476 682.99 219.462 682.82C219.448 682.65 219.173 682.397 219.173 682.397C219.052 682.3 218.93 682.204 218.716 681.665C218.216 680.817 217.809 680.41 217.402 680.004C217.196 679.843 217.046 679.641 216.939 678.968C216.75 678.279 216.576 678.02 216.297 677.596C215.852 677.26 215.511 677.089 215.171 676.918C214.875 676.549 214.579 676.18 214.218 675.465C214.152 675.119 214.213 674.845 214.439 674.772C213.841 672.539 213.018 670.379 211.989 667.682C214.415 668.601 216.493 669.389 218.687 670.413C219.759 671.24 220.714 671.83 221.667 672.435C221.665 672.45 221.688 672.431 221.719 672.701C223.01 673.549 224.269 674.127 225.703 674.72C225.879 674.734 226.23 674.768 226.3 674.896C226.609 674.98 226.848 674.935 227.23 674.962C227.553 675.157 227.687 675.32 227.824 675.795C229.401 676.624 230.927 677.179 232.63 677.75C232.807 677.765 233.161 677.799 233.295 678.048C236.843 680.704 240.418 680.22 243.831 678.526C248.176 676.369 249.405 669.466 246.183 666.337C246.183 666.326 246.169 666.311 246.208 666.043C245.459 663.665 244.67 661.557 243.882 659.437C243.882 659.426 243.866 659.415 243.804 659.245C243.608 658.866 243.431 658.705 243.195 658.414C243.179 658.237 243.141 657.883 243.139 657.577C243.046 655.548 243.497 653.505 240.811 653.301C240.813 653.292 240.802 653.298 240.784 653.056C240.316 652.427 239.865 652.039 239.301 651.475C238.971 650.94 238.754 650.582 238.521 649.996C238.249 649.422 237.994 649.076 237.73 648.719C237.722 648.709 237.696 648.699 237.707 648.411C236.918 646.76 236.278 645.263 235.282 644.06C233.126 641.454 230.788 638.998 228.524 636.466C228.523 636.451 228.505 636.429 228.465 636.297C228.199 636.174 227.973 636.185 227.635 636.185C227.523 636.176 227.31 636.249 227.31 636.249C227.31 636.249 227.157 636.171 227.139 636.009C227.12 635.848 226.895 635.647 226.895 635.647C226.771 635.529 226.646 635.411 226.458 634.906C226.395 634.519 226.445 634.203 226.673 634.128C227.068 633.645 227.498 633.073 227.361 632.853C226.001 630.659 224.673 628.424 223.081 626.402C221.751 624.713 220.08 623.292 218.391 621.674C217.901 621.4 217.581 621.204 217.262 621.008C217.262 621.008 217.051 620.772 217.083 620.341C217.688 618.237 218.063 616.657 215.29 616.452C214.84 616.389 214.581 616.366 214.322 616.342C214.322 616.342 214.073 616.102 214.059 615.676C214.016 614.904 213.986 614.557 213.964 613.91C211.891 609.347 209.83 605.074 207.686 600.844C207.528 600.532 206.773 600.523 206.162 600.281C205.866 600.04 205.75 599.86 205.852 599.444C205.073 597.081 204.123 594.925 203.018 592.669C202.677 592.405 202.544 592.203 202.562 591.737C202.063 590.139 201.466 588.771 200.7 587.254C200.408 586.683 200.285 586.259 200.269 585.786C200.302 585.767 200.226 585.796 199.977 585.687C199.67 585.133 199.536 584.716 199.411 583.978C197.218 575.553 195.024 567.449 192.78 559.359C192.72 559.146 192.112 559.085 191.756 558.604C190.979 552.75 189.711 547.261 189.535 541.738C189.185 530.723 189.16 519.68 189.553 508.668C189.746 503.281 190.943 497.887 192.113 492.591C193.211 487.622 194.841 482.769 196.294 477.882C197.635 473.37 199.104 468.895 200.388 464.368C200.629 463.517 200.265 462.495 200.258 461.385C200.464 461.003 200.638 460.834 201.133 460.699C201.78 458.939 202.152 457.191 202.553 455.272C202.582 455.101 202.675 454.767 202.949 454.734C204.274 453.104 205.586 451.619 206.327 449.889C208.248 445.408 209.918 440.819 211.959 436.223C214.489 432.311 216.817 428.488 218.98 424.574C220.467 421.882 221.723 419.063 223.101 416.284C223.121 416.268 223.165 416.245 223.44 416.236C225.061 413.947 226.407 411.666 227.788 409.173C228.059 408.627 228.294 408.292 228.701 408.127C229.743 406.503 230.615 404.709 231.487 402.915C231.639 402.579 231.792 402.243 232.326 401.852C232.855 401.789 233.003 401.781 233.324 401.685C233.627 401.382 233.758 401.165 233.985 400.764C234.316 400.238 234.55 399.894 235.059 399.517C235.879 398.696 236.424 397.911 237.059 396.969C237.299 396.62 237.483 396.468 237.952 396.262C239.07 394.954 239.936 393.739 240.903 392.328C241.439 391.747 241.873 391.361 242.63 390.986C245.796 390.757 245.493 392.745 245.435 394.527C245.191 401.962 244.867 409.396 244.753 416.832C244.736 417.932 245.69 419.046 246.201 420.159C246.208 420.165 246.224 420.166 246.207 420.47C246.204 421.584 246.219 422.395 246.034 423.379C246.718 426.257 247.601 428.961 248.489 431.667C248.493 431.67 248.495 431.679 248.488 432.003C248.962 434.641 249.374 436.973 249.986 439.251C250.098 439.667 251.022 439.864 251.72 440.188C252.066 440.267 252.266 440.284 252.469 440.268C252.648 440.549 252.826 440.83 252.979 441.529C252.952 441.946 252.909 442.302 252.691 442.376C252.441 443.195 252.409 443.939 252.377 444.683C252.879 444.697 253.381 444.71 254.04 444.756C254.407 444.85 254.62 444.873 254.836 444.858C255.002 445.133 255.168 445.407 255.343 446.183C255.394 447.033 255.436 447.382 255.292 447.86C255.47 448.401 255.833 448.814 256.211 449.241C256.226 449.255 256.238 449.294 256.221 449.57C256.968 452.462 257.326 452.699 259.443 451.98C259.705 452.046 259.898 452.199 260.037 452.888C260.297 453.764 260.541 454.194 260.791 454.635C260.797 454.647 260.815 454.665 260.887 454.837C261.113 455.225 261.321 455.353 261.772 455.503C262.342 456.045 262.724 456.478 263.258 457.135C263.929 457.443 264.448 457.527 264.967 457.611C264.967 457.611 265.2 457.618 265.259 458.012C265.414 461.325 266.742 462.279 269.466 461.006C269.966 461.233 270.467 461.46 271.205 462.059C271.685 462.694 271.928 462.958 272.242 463.475C274.138 465.854 275.905 468.139 279.416 466.278C279.991 466.505 280.351 466.712 280.736 467.148C281.27 467.461 281.779 467.545 282.53 467.656C283.098 467.7 283.424 467.717 283.829 468.032C287.406 468.507 290.904 468.81 294.399 468.769C295.209 468.759 296.006 467.578 296.948 466.775C297.486 466.489 297.886 466.363 298.375 466.351C298.674 466.36 298.883 466.255 299.236 465.984C299.791 465.674 300.201 465.529 300.845 465.38C301.439 465.123 301.799 464.87 302.301 464.444C302.855 464.119 303.267 463.965 303.786 463.944C304.077 463.756 304.263 463.436 304.459 463.109C304.468 463.103 304.481 463.083 304.651 463.009C305.031 462.787 305.178 462.592 305.286 462.159C305.31 461.97 305.261 461.592 305.261 461.592C305.684 461.179 306.107 460.767 306.97 460.211C307.977 459.306 308.543 458.545 309.109 457.784C309.109 457.784 309.073 457.743 309.289 457.699C309.618 457.422 309.731 457.19 309.844 456.958Z" fill="#E52A24"/>
<path d="M421.119 788.095C413.77 786.778 406.422 785.45 399.069 784.155C397.701 783.914 396.309 783.805 394.607 783.633C391.124 782.125 388.061 780.35 384.787 779.154C364.241 771.651 345.971 760.16 329.613 745.96C315.396 733.619 302.411 719.882 292.198 703.858C286.818 695.416 281.2 687.077 276.494 678.263C268.757 663.77 262.192 648.679 257.806 632.811C254.425 620.578 251.493 608.195 249.009 595.75C247.45 587.942 246.717 579.915 246.277 571.95C245.667 560.883 245.438 549.779 245.514 538.695C245.56 531.981 246.471 525.272 247.058 518.566C247.119 517.862 247.615 517.196 248.177 515.89C250.913 519.568 253.333 522.912 255.846 526.185C267.401 541.234 282.587 550.57 301.392 552.566C313.394 553.84 324.127 548.959 332.978 540.733C344.643 529.892 350.594 515.916 353.408 500.609C354.848 492.775 355.312 484.735 355.821 476.762C357.619 448.62 362.87 421.361 374.948 395.612C383.906 376.513 395.111 358.851 408.125 342.349C417.018 331.072 427.097 320.699 435.583 309.141C448.288 291.836 457.236 272.568 460.681 251.188C461.768 244.448 461.409 237.473 461.689 230.605C461.744 229.265 461.697 227.92 461.697 225.336C465.243 228.153 467.926 230.156 470.468 232.325C481.555 241.787 491.383 252.455 500.415 263.868C512.307 278.897 521.977 295.288 529.852 312.724C538.529 331.938 544.244 352.006 547.759 372.831C550.129 386.866 551.056 400.904 550.518 415.028C550.186 423.754 548.782 432.44 547.854 441.143C546.52 453.647 544.295 466.198 547.657 478.667C551.111 491.476 558.283 501.38 570.979 506.628C584.614 512.264 596.66 508.146 607.917 500.414C616.164 494.75 614.919 493.773 618.446 503.754C624.566 521.069 624.147 538.613 619.456 556.181C616.64 566.726 613.582 577.209 610.988 587.807C608.874 596.441 612.527 606.824 618.5 610.894C627.043 616.715 635.77 616.281 644.284 611.192C648.248 608.822 651.65 605.513 656.387 601.778C654.953 608.315 654.156 614.04 652.41 619.459C649.1 629.734 645.897 640.128 641.453 649.931C635.958 662.053 629.756 673.928 622.943 685.363C611.582 704.43 596.596 720.647 580.422 735.701C567.814 747.436 553.84 757.475 538.711 765.696C524.522 773.408 509.911 780.305 493.976 783.821C493.672 783.888 493.45 784.326 493.101 784.869C488.796 785.805 484.581 786.462 480.162 787.353C478.114 787.791 476.27 787.995 474.215 787.899C475.244 787.05 476.473 786.471 477.727 785.954C486.158 782.477 495.077 779.855 502.915 775.35C514.837 768.497 525.587 759.93 534.369 749.029C543.597 737.572 550.421 724.912 554.487 710.87C558.712 696.275 560.794 681.441 559.201 666.084C557.921 653.741 555.8 641.664 551.575 630.035C545.484 613.266 535.559 598.934 523.134 586.2C518.703 581.658 514.516 576.816 510.705 571.745C500.992 558.823 493.168 544.882 487.848 529.497C483.236 516.156 480.49 502.501 480.216 488.481C480.028 478.846 480.717 469.142 481.773 459.552C482.515 452.817 484.497 446.214 486 439.569C487.021 435.057 488.17 430.573 489.506 425.07C487.151 426.419 485.564 427.123 484.209 428.137C469.525 439.125 454.976 450.272 443.088 464.434C439.654 468.525 435.678 472.253 432.788 476.692C426.291 486.674 420.106 496.876 414.187 507.213C407.448 518.982 403.295 531.812 400.391 544.994C398.84 552.037 397.568 559.219 397.083 566.4C396.47 575.476 396.374 584.636 396.819 593.722C397.276 603.059 399.72 612.321 397.978 621.733C396.624 629.05 393.251 635.239 386.432 638.786C376.91 643.737 368.117 640.714 359.931 635.366C356.201 632.929 353.033 629.633 349.574 626.696C348.663 629.592 347.448 633.29 346.336 637.018C342.254 650.697 339.423 664.655 339.14 678.921C339.001 685.962 340.37 693.051 341.271 700.091C343.087 714.274 348.236 727.316 355.636 739.433C362.312 750.366 370.714 759.787 380.851 767.79C389.961 774.982 399.879 780.338 410.837 783.98C414.334 785.142 417.696 786.712 421.119 788.095Z" fill="#F3670B"/>
<path d="M258.555 306.148C257.637 309.73 257.014 313.089 255.851 316.25C252.764 324.647 248.312 332.401 242.001 338.68C233.622 347.019 224.641 354.754 215.859 362.683C215.108 363.361 213.913 363.547 212.923 363.961C212.503 362.845 211.73 361.732 211.717 360.611C211.616 351.865 210.643 342.962 211.947 334.413C213.259 325.808 216.425 317.377 219.61 309.193C223.147 300.106 230.454 293.842 237.36 287.154C244.901 279.853 251.3 271.358 254.46 260.955C254.999 259.183 256.021 257.557 257.303 256.043C262.159 272.704 263.656 289.203 258.555 306.148Z" fill="#D23E32"/>
<path d="M421.446 788.131C417.69 786.712 414.329 785.143 410.832 783.981C399.874 780.339 389.955 774.983 380.845 767.791C370.709 759.788 362.307 750.367 355.63 739.434C348.231 727.317 343.081 714.274 341.266 700.092C340.365 693.052 338.995 685.963 339.135 678.922C339.417 664.656 342.249 650.697 346.33 637.019C347.443 633.291 348.657 629.593 349.568 626.697C353.027 629.634 356.196 632.93 359.926 635.367C368.111 640.715 376.905 643.738 386.426 638.786C393.245 635.24 396.619 629.05 397.973 621.733C399.714 612.322 397.271 603.06 396.814 593.723C396.368 584.637 396.465 575.477 397.078 566.4C397.562 559.22 398.834 552.038 400.386 544.995C403.29 531.813 407.442 518.983 414.181 507.214C420.101 496.877 426.285 486.675 432.783 476.693C435.672 472.253 439.648 468.526 443.082 464.434C454.97 450.272 469.519 439.126 484.203 428.137C485.558 427.123 487.146 426.42 489.501 425.07C488.165 430.574 487.015 435.057 485.995 439.57C484.492 446.215 482.51 452.818 481.768 459.553C480.711 469.142 480.023 478.847 480.211 488.482C480.484 502.502 483.23 516.157 487.843 529.498C493.162 544.882 500.987 558.824 510.699 571.746C514.51 576.817 518.697 581.659 523.128 586.2C535.553 598.935 545.478 613.267 551.57 630.035C555.794 641.665 557.916 653.742 559.196 666.085C560.788 681.442 558.707 696.276 554.481 710.871C550.416 724.913 543.591 737.573 534.363 749.029C525.582 759.931 514.832 768.498 502.91 775.35C495.072 779.855 486.152 782.478 477.721 785.955C476.467 786.472 475.238 787.051 473.896 787.856C469.183 788.433 464.572 788.755 459.307 789.078C457.192 789.285 455.73 789.491 454.268 789.698C449.481 789.714 444.693 789.731 439.432 789.532C438.393 789.271 437.828 789.225 437.263 789.18C434.619 789.122 431.974 789.064 428.964 789.005C426.325 788.725 424.052 788.446 421.446 788.131Z" fill="#FB9018"/>
</svg>
