<svg width="460" height="90" viewBox="0 0 460 90" fill="none" xmlns="http://www.w3.org/2000/svg">
<path d="M14.1857 45.8531C14.2145 45.8073 14.2433 45.7615 14.3125 45.6892C14.3878 45.6382 14.4227 45.6137 14.4917 45.5862C14.7207 45.2332 14.9796 44.9027 15.0947 44.5281C15.24 44.0549 15.2681 43.5457 15.3504 43.0189C15.3569 42.9189 15.3596 42.852 15.3974 42.7764C15.4663 42.6161 15.5256 42.4652 15.5303 42.3127C15.5676 41.0859 15.5956 39.8588 15.6237 38.6318C15.6285 38.4216 15.6202 38.2112 15.6214 37.9678C15.6271 37.868 15.6293 37.8012 15.666 37.7259C15.7072 37.3917 15.714 37.0661 15.7229 36.7104C15.7313 36.6406 15.7373 36.6009 15.7734 36.5543C15.894 36.2195 15.9845 35.8915 16.0753 35.5359C16.0756 35.4715 16.0757 35.4346 16.0773 35.3608C16.0771 35.2499 16.0754 35.1759 16.0735 35.0719C16.102 34.9479 16.1308 34.8538 16.1622 34.724C16.1692 34.5923 16.1734 34.4965 16.1961 34.3912C16.238 34.3635 16.2511 34.3396 16.2553 34.2737C16.2575 34.1401 16.2582 34.0429 16.2595 33.9459C16.2603 33.9461 16.2589 33.9448 16.2911 33.9387C16.3573 33.816 16.3913 33.6995 16.4303 33.5535C16.4379 33.4841 16.4405 33.4442 16.4731 33.3988C16.512 33.2468 16.5209 33.1004 16.5303 32.9539C16.5309 32.9539 16.5303 32.9527 16.5635 32.9462C16.6321 32.7928 16.6675 32.6458 16.705 32.4777C16.7072 32.4566 16.7116 32.4144 16.7381 32.41C16.7547 32.3146 16.7447 32.2235 16.7417 32.1161C16.7615 32.0786 16.7792 32.0633 16.8339 32.0473C16.9906 31.6846 17.1152 31.3282 17.2406 30.9678C17.2413 30.9638 17.2459 30.9571 17.2721 30.9395C17.3102 30.8175 17.322 30.7131 17.3347 30.606C17.3357 30.6033 17.3391 30.5986 17.3724 30.5955C17.4735 30.3569 17.5414 30.1216 17.6105 29.8854C17.6117 29.8847 17.6108 29.8819 17.6436 29.8773C17.7444 29.6658 17.8123 29.459 17.8826 29.2322C17.8849 29.2121 17.8886 29.1719 17.9199 29.1647C18.0138 29.0992 18.1 29.0523 18.1353 28.9805C18.5866 28.0632 19.0349 27.1445 19.4744 26.2216C19.6775 25.7951 19.8597 25.3586 20.0815 24.9206C20.2694 24.6158 20.4271 24.3171 20.5895 23.9881C20.5927 23.9174 20.5913 23.8769 20.5898 23.8363C20.5996 23.8042 20.6094 23.772 20.6374 23.7226C20.6556 23.7054 20.6611 23.7051 20.6681 23.7241C20.707 23.716 20.7389 23.689 20.771 23.6619C20.7711 23.6618 20.7713 23.6615 20.8019 23.6559C20.87 23.564 20.9076 23.4776 20.9472 23.3908C20.9492 23.3904 20.953 23.3921 20.9741 23.3806C21.0101 23.3413 21.0249 23.3135 21.0401 23.2678C21.0404 23.25 21.0471 23.2149 21.0802 23.2138C21.2108 23.1351 21.3605 23.0762 21.3961 22.9766C21.5275 22.6087 21.797 22.5499 22.1308 22.5787C22.2474 22.5888 22.3654 22.5814 22.4917 22.6175C22.9499 22.6777 23.399 22.705 23.8485 22.7204C23.8753 22.7214 23.9055 22.6271 23.9673 22.5766C24.0671 22.5734 24.1338 22.5707 24.2218 22.5704C24.2432 22.5728 24.2862 22.5743 24.3145 22.5648C24.4414 22.5007 24.5399 22.446 24.6512 22.373C24.6853 22.3328 24.7102 22.3165 24.7729 22.306C24.9823 22.174 25.1574 22.0416 25.3324 21.9092C25.3324 21.9092 25.3612 21.941 25.3816 21.9364C25.4832 21.8778 25.5644 21.8238 25.6443 21.7686C25.643 21.7675 25.6452 21.7695 25.6648 21.7599C25.7083 21.732 25.7255 21.7088 25.7363 21.6799C25.7367 21.6791 25.7377 21.6814 25.7636 21.6782C25.8283 21.6448 25.8672 21.6144 25.9078 21.5828C25.9095 21.5816 25.9128 21.5789 25.9415 21.5772C26.0105 21.5194 26.0508 21.4634 26.0923 21.4068C26.0935 21.4062 26.0948 21.4038 26.1155 21.404C26.1539 21.374 26.1715 21.3439 26.1893 21.2885C26.186 21.2468 26.1825 21.2303 26.179 21.2138C26.2656 21.125 26.3523 21.0363 26.4999 20.9446C26.615 20.8547 26.669 20.7676 26.723 20.6805C26.723 20.6805 26.7184 20.6826 26.7421 20.6858C26.7824 20.6888 26.7991 20.6885 26.8446 20.6833C26.9124 20.6194 26.9512 20.5604 27.0015 20.4822C27.0311 20.4388 27.0534 20.4194 27.105 20.3959C27.1284 20.3282 27.1267 20.2693 27.1251 20.2104C27.1421 20.1766 27.1591 20.1428 27.2184 20.0877C27.291 20.0597 27.3215 20.053 27.3788 20.0353C27.4475 19.9427 27.4892 19.8613 27.5351 19.7499C27.5387 19.6795 27.538 19.6393 27.5374 19.599C27.5374 19.599 27.5502 19.5575 27.5919 19.5341C27.7213 19.3906 27.8089 19.2705 27.9187 19.1355C27.9567 19.0709 27.9726 19.0214 27.9885 18.9713C27.9886 18.9708 27.9894 18.9702 28.0111 18.9546C28.0469 18.8887 28.0611 18.8384 28.086 18.7687C28.1138 18.7243 28.1357 18.7047 28.1876 18.6751C28.2273 18.5831 28.2419 18.5068 28.2575 18.4297C28.2586 18.4289 28.2589 18.4263 28.2825 18.408C28.32 18.3122 28.334 18.2346 28.3583 18.1377C28.385 18.0929 28.4065 18.0734 28.4585 18.0439C28.497 17.9516 28.5103 17.8751 28.5248 17.7969C28.5259 17.7953 28.5275 17.7917 28.5523 17.7719C28.5913 17.6467 28.6054 17.5413 28.6234 17.4097C28.6532 17.3387 28.679 17.2941 28.7304 17.2303C28.7698 17.1058 28.7835 17.0002 28.7986 16.8729C28.8 16.8512 28.8016 16.8076 28.8253 16.7836C28.9215 16.3536 28.994 15.9476 29.0683 15.5112C29.0737 15.4406 29.0774 15.4004 29.1095 15.3559C29.1442 15.2624 29.1504 15.1729 29.1572 15.0507C29.1602 14.9525 29.1626 14.887 29.1958 14.8158C29.383 14.6679 29.4139 14.5446 29.1712 14.4233C29.1742 14.2291 29.1801 14.0738 29.2212 13.9169C29.4714 13.7028 29.5158 12.8632 29.3168 12.6733C29.2909 12.6486 29.2304 12.6602 29.1809 12.6166C29.1763 12.4233 29.1767 12.2684 29.2109 12.1047C29.3518 11.7579 29.5001 11.4162 29.1584 11.0898C29.1571 11.0253 29.1563 10.9884 29.1811 10.9276C29.1622 10.6443 29.1176 10.385 29.072 10.0879C28.9802 9.59626 28.8895 9.14254 28.7993 8.68765C28.7998 8.68649 28.7973 8.6859 28.7986 8.64957C28.7688 8.45879 28.7377 8.30434 28.7044 8.1267C28.7009 8.08799 28.6997 8.07249 28.6928 8.03617C28.672 7.98947 28.6506 7.97074 28.623 7.93587C28.6229 7.89707 28.6227 7.88155 28.6216 7.83028C28.5915 7.63879 28.5622 7.48306 28.5312 7.30033C28.5287 7.23727 28.528 7.20122 28.5285 7.1249C28.4042 6.65663 28.2785 6.22863 28.1353 5.78994C28.0978 5.75982 28.0833 5.73687 28.0753 5.67272C28.0551 5.4382 28.0339 5.24137 28.008 5C28.265 5.03159 28.4893 5.05916 28.736 5.09515C28.8004 5.12626 28.8425 5.14896 28.8881 5.1948C28.951 5.23286 29.0105 5.24777 29.0896 5.26614C29.1093 5.2696 29.1487 5.27626 29.1568 5.30274C29.2229 5.36647 29.2809 5.40372 29.3401 5.43995C29.3413 5.43894 29.3387 5.44167 29.3435 5.47364C29.5584 5.60148 29.7684 5.69735 30.004 5.79765C30.0712 5.8297 30.113 5.85733 30.1354 5.89973C30.118 5.95044 30.1198 5.98638 30.1217 6.02232C30.1667 5.98617 30.2117 5.95001 30.2748 5.9121C30.2928 5.91035 30.3262 5.89649 30.3262 5.89649C30.3412 5.90002 30.3562 5.90354 30.3901 5.94287C30.415 6.00748 30.4207 6.03633 30.4362 6.09181C30.5301 6.16088 30.6139 6.20335 30.729 6.25185C30.8613 6.28512 30.9623 6.31236 31.0634 6.3396C31.0785 6.34615 31.0937 6.3527 31.1328 6.39098C31.1728 6.43723 31.1916 6.44291 31.213 6.43975C31.213 6.43975 31.2397 6.44757 31.2409 6.49828C31.2247 6.88299 31.4507 6.88834 31.6878 6.87997C31.688 6.88098 31.6896 6.88078 31.704 6.90357C31.7689 6.94154 31.8194 6.95671 31.8888 6.97624C31.9077 6.98061 31.9456 6.98898 31.9505 7.02046C32.0465 7.11278 32.1376 7.17363 32.2311 7.2351C32.2336 7.23572 32.2385 7.23692 32.2394 7.26871C32.5976 7.52136 32.955 7.74221 33.317 7.99357C33.5095 8.17962 33.685 8.35538 33.8912 8.48065C33.9724 8.53001 34.1221 8.4667 34.2406 8.4547C34.2723 8.47216 34.3039 8.48962 34.3502 8.53723C34.3648 8.56738 34.3659 8.59193 34.3561 8.60446C34.3626 8.63894 34.3791 8.66088 34.3948 8.68427C34.394 8.68573 34.3968 8.68387 34.403 8.69949C34.4364 8.7106 34.4636 8.70608 34.5119 8.70126C34.533 8.70095 34.5739 8.69043 34.5739 8.69043C34.6166 8.71934 34.6594 8.74824 34.7214 8.81828C34.7463 8.89001 34.7519 8.9206 34.7687 8.98074C34.8916 9.08185 35.0035 9.15341 35.1156 9.22589C35.1158 9.22681 35.1176 9.22644 35.1295 9.25532C35.2534 9.35412 35.3655 9.42403 35.4777 9.49511C35.4779 9.49627 35.4796 9.49613 35.486 9.51187C35.5196 9.52164 35.5468 9.51567 35.5972 9.50926C35.6354 9.50473 35.6504 9.50064 35.6653 9.49654C35.6653 9.49654 35.7047 9.51566 35.7221 9.55722C35.7733 9.65337 35.8071 9.70795 35.8517 9.79235C35.9759 9.89317 36.0894 9.96417 36.2278 10.0393C36.2925 10.0713 36.3322 10.0993 36.3524 10.1465C36.4998 10.2731 36.6667 10.3805 36.8526 10.492C36.8716 10.4961 36.9088 10.5077 36.9158 10.5387C37.1027 10.8979 37.3281 11.1679 37.7638 11.2101C37.8304 11.2158 37.8686 11.2168 37.9068 11.2178C37.9808 11.2754 38.0547 11.3331 38.1488 11.4339C38.1749 11.5069 38.181 11.5367 38.1922 11.5828C38.225 11.5959 38.2526 11.5927 38.2982 11.5896C38.3162 11.5898 38.3512 11.581 38.3512 11.581C38.3512 11.581 38.374 11.5969 38.3727 11.6456C38.5179 11.8353 38.6645 11.9764 38.8245 12.1445C38.9313 12.2968 39.012 12.436 39.1253 12.5395C39.1626 12.5737 39.284 12.5158 39.3836 12.4971C39.4003 12.4941 39.4329 12.4843 39.4329 12.4843C39.5394 12.5709 39.646 12.6574 39.7715 12.7893C39.7956 12.8642 39.8012 12.8937 39.8162 12.9435C39.8427 12.9896 39.8666 13.0061 39.8971 13.0145C39.8975 13.0155 39.8996 13.0156 39.916 13.0395C39.9876 13.0722 40.0428 13.081 40.098 13.0899C40.098 13.0899 40.0874 13.1034 40.0874 13.1277C40.1331 13.1735 40.1789 13.1949 40.2247 13.2164C40.2247 13.2164 40.2213 13.2285 40.2157 13.2598C40.4065 13.4709 40.4068 13.8676 40.8295 13.8303C40.8921 13.8353 40.9279 13.8365 40.9638 13.8378C40.9638 13.8378 40.9866 13.8531 40.996 13.8975C41.0418 13.9601 41.0782 13.9783 41.1146 13.9965C41.2481 14.1161 41.3817 14.2356 41.5331 14.4138C41.5904 14.4922 41.6297 14.5118 41.669 14.5314C41.6959 14.5433 41.7227 14.5551 41.7617 14.6071C41.7785 14.6746 41.7838 14.7019 41.7907 14.7625C41.9977 15.0508 42.2012 15.3079 42.4166 15.5547C42.4267 15.5663 42.5414 15.4868 42.6073 15.4496C42.6215 15.455 42.6357 15.4604 42.6674 15.508C42.7162 15.6067 42.7474 15.6632 42.7574 15.7411C42.8594 15.8327 42.9828 15.9029 43.1062 15.9731C43.1416 15.9947 43.1771 16.0162 43.1935 16.0614C43.1619 16.1049 43.1494 16.1248 43.1368 16.1447C43.1876 16.1472 43.2384 16.1497 43.2892 16.1523C43.3222 16.1791 43.3552 16.206 43.4006 16.2801C43.4689 16.3696 43.5248 16.4118 43.5806 16.4539C43.5806 16.4539 43.5892 16.4516 43.5864 16.4825C43.589 16.549 43.5943 16.5844 43.5988 16.6525C43.6397 16.8797 43.6652 17.0932 43.9825 16.9953C44.0221 16.9919 44.0377 16.9884 44.0533 16.9849C44.0842 17.015 44.1152 17.045 44.1454 17.129C44.1727 17.2361 44.2009 17.2893 44.229 17.3438C44.2291 17.3451 44.2315 17.3461 44.2401 17.3665C44.2669 17.4125 44.2913 17.4281 44.3443 17.447C44.4101 17.5122 44.4537 17.5643 44.5105 17.6391C44.5719 17.6792 44.62 17.6964 44.6682 17.7136C44.6932 17.7303 44.7182 17.7469 44.7469 17.8029C44.7506 17.8423 44.7514 17.88 44.7398 17.8919C44.7419 17.9272 44.7556 17.9506 44.77 17.9752C44.7705 17.9764 44.7731 17.9775 44.7729 18.0137C44.8781 18.1105 44.9836 18.1711 45.0891 18.2317C45.0891 18.2317 45.1124 18.2305 45.1167 18.2696C45.1247 18.3474 45.1284 18.3862 45.1317 18.4608C45.1428 18.7669 45.3128 18.8084 45.5341 18.7759C45.5341 18.7759 45.5603 18.7844 45.5636 18.8237C45.5714 18.8982 45.5758 18.9333 45.5891 18.9892C45.6155 19.0358 45.6391 19.0537 45.6917 19.0663C45.7301 19.0665 45.7453 19.0641 45.7606 19.0617C45.7606 19.0617 45.7608 19.0609 45.7571 19.0902C45.7574 19.1588 45.7615 19.1979 45.7439 19.2545C45.7946 19.3233 45.867 19.3746 45.9616 19.4286C45.9837 19.4313 46.0279 19.425 46.0279 19.425C46.0279 19.425 46.0315 19.4216 46.024 19.4428C46.0165 19.464 46.0159 19.5047 46.0038 19.5167C46.0065 19.5523 46.0213 19.576 46.0539 19.6113C46.0932 19.6419 46.1095 19.6647 46.1291 19.7115C46.1541 19.757 46.1759 19.7762 46.2157 19.8095C46.2703 19.8484 46.3122 19.8673 46.3541 19.8863C46.3895 19.9265 46.425 19.9667 46.4663 20.0614C46.477 20.1543 46.4818 20.1927 46.4654 20.2489C46.5483 20.4032 46.6524 20.5399 46.7581 20.6782C46.7597 20.6798 46.7609 20.6842 46.7606 20.7104C46.7889 20.7762 46.8176 20.8157 46.849 20.8573C46.8516 20.8592 46.8537 20.8654 46.8512 20.8967C46.9377 21.0274 47.0267 21.1269 47.1316 21.2371C47.1671 21.2652 47.1815 21.2862 47.1703 21.3342C47.1783 21.7034 47.3222 21.9767 47.6438 22.1599C47.6466 22.1792 47.6532 22.2178 47.6534 22.2486C47.6863 22.348 47.7189 22.4166 47.7697 22.4963C47.8101 22.5262 47.8261 22.5494 47.8254 22.603C47.8834 22.7621 47.9521 22.895 48.0387 23.0391C48.0783 23.0694 48.0939 23.0926 48.0936 23.146C48.1217 23.2437 48.1599 23.3154 48.1982 23.3884C48.1985 23.3897 48.2005 23.3915 48.1996 23.4268C48.3775 23.8876 48.5563 24.313 48.7396 24.7613C48.7486 24.7989 48.7531 24.8137 48.7663 24.863C48.917 25.4716 49.0605 26.0453 49.2008 26.6198C49.3481 27.2231 49.5271 27.8213 49.6285 28.4323C49.7331 29.0619 49.7654 29.7039 49.8205 30.3413C49.8525 30.711 49.8866 31.0822 49.8848 31.4526C49.8825 31.929 49.8358 32.4052 49.8319 32.8817C49.8312 32.9667 49.9451 33.0526 50.006 33.1381C50.0096 33.1771 50.0131 33.2161 49.9696 33.2846C49.8592 33.4262 49.754 33.5332 49.7397 33.6512C49.6827 34.1209 49.6832 34.5987 49.6083 35.0648C49.4941 35.7759 49.3304 36.479 49.2013 37.1879C49.1856 37.274 49.254 37.3754 49.2816 37.4984C49.2784 37.5655 49.277 37.6039 49.2405 37.6519C49.1889 38.326 49.1596 38.9907 49.1662 39.655C49.1676 39.7974 49.2989 39.9386 49.37 40.0807C49.3695 40.0811 49.3702 40.0801 49.3695 40.12C49.2803 40.9016 49.737 41.4493 50.0604 42.0377C50.1179 42.1423 50.3368 42.1582 50.4811 42.2151C50.4811 42.2151 50.4585 42.2345 50.4632 42.2588C50.5124 42.3066 50.5567 42.3301 50.6011 42.3536C50.6011 42.3536 50.6132 42.3696 50.6019 42.39C50.6038 42.4011 50.617 42.3919 50.6302 42.3826C50.7013 42.4264 50.7725 42.4702 50.8709 42.5632C50.9556 42.6435 51.0131 42.6748 51.0706 42.7061C51.0706 42.7061 51.0792 42.7 51.0753 42.7269C51.0715 42.7539 51.0765 42.798 51.082 42.8261C51.1464 42.8918 51.2053 42.9295 51.2641 42.9676C51.264 42.968 51.2648 42.9677 51.2696 42.999C51.3631 43.0674 51.4518 43.1044 51.5609 43.1433C51.5812 43.1452 51.6217 43.1495 51.6327 43.1693C51.6696 43.2035 51.6954 43.2179 51.7417 43.2337C51.7622 43.2352 51.8031 43.2386 51.8225 43.2622C51.9213 43.2991 52.0007 43.3124 52.1006 43.3274C52.1211 43.3292 52.162 43.3336 52.1702 43.3665C52.7181 43.7659 53.2781 43.6069 53.8222 43.4332C54.0652 43.3557 54.278 43.1834 54.5062 43.0543C54.508 43.0545 54.5109 43.0527 54.5313 43.045C54.577 43.0207 54.5946 42.998 54.6076 42.947C54.6085 42.9097 54.6064 42.8948 54.6043 42.8799C54.6043 42.8799 54.602 42.8777 54.6322 42.8823C54.7013 42.8827 54.7402 42.8785 54.7965 42.8962C54.926 42.788 55.0381 42.6578 55.1531 42.5059C55.156 42.4842 55.1526 42.4405 55.1526 42.4405C55.1526 42.4405 55.1475 42.4314 55.1693 42.4379C55.1912 42.4445 55.2267 42.443 55.2382 42.4547C55.2723 42.4525 55.2948 42.4385 55.3188 42.424C55.3202 42.4235 55.3215 42.4208 55.3464 42.4033C55.3811 42.3275 55.391 42.2692 55.4008 42.2108C55.4275 42.1735 55.4542 42.1361 55.522 42.078C55.6032 42.033 55.6434 42.0088 55.7037 42.0044C55.7978 41.9154 55.8717 41.8066 55.9485 41.6785C55.9514 41.6592 55.9587 41.6208 55.9927 41.6178C56.3463 41.3608 56.5221 41.039 56.4943 40.6212C56.4951 40.6211 56.4936 40.6187 56.5267 40.6136C56.772 40.1842 56.9541 39.7536 56.8488 39.2324C56.8553 39.1642 56.8578 39.125 56.8947 39.0782C56.9648 38.9268 56.9891 38.7788 57.0393 38.6402C57.0865 38.5097 57.161 38.389 57.2257 38.2657C57.2278 38.2673 57.23 38.2723 57.229 38.3033C57.3462 38.4651 57.4644 38.5959 57.6022 38.7433C57.6395 38.8072 57.6572 38.8546 57.6818 38.9237C57.712 38.9638 57.7352 38.9824 57.7783 39.0171C57.8153 39.0808 57.8325 39.1282 57.8265 39.196C57.8035 39.2862 57.781 39.3662 57.8073 39.424C58.0823 40.0272 58.3613 40.6286 58.6481 41.2263C58.7283 41.3934 58.8375 41.5466 58.9355 41.7267C58.9377 41.7472 58.9411 41.7883 58.9381 41.8244C59.0236 42.0508 59.1121 42.2411 59.2022 42.4516C59.2038 42.4718 59.207 42.5122 59.2052 42.5501C59.2937 42.8337 59.3839 43.0795 59.4747 43.3265C59.4752 43.3278 59.4768 43.3301 59.4753 43.3683C59.6128 43.9667 59.7507 44.5272 59.8957 45.086C59.9016 45.1087 59.9742 45.1142 60.0169 45.1295C60.0182 45.1312 60.0196 45.1351 60.0143 45.1675C59.9907 45.2713 59.9445 45.3487 59.9585 45.4131C60.1023 46.0746 60.2538 46.7345 60.4117 47.3928C60.421 47.4316 60.504 47.4526 60.5542 47.5149C60.5598 47.6136 60.564 47.6794 60.5651 47.7838C60.6813 48.7487 60.7972 49.6755 60.9263 50.6004C60.9374 50.6802 61.0362 50.7479 61.0949 50.85C61.0969 50.9173 61.0982 50.9558 61.0742 51.0176C61.0961 51.8262 61.1434 52.6115 61.1902 53.3967C61.1955 53.4867 61.1906 53.5776 61.2013 53.6667C61.3921 55.2544 61.2365 56.8328 61.0832 58.412C61.0637 58.6129 61.0878 58.8179 61.0578 59.0311C60.9513 59.3332 60.8711 59.6238 60.8074 59.9179C60.663 60.5844 60.5268 61.2526 60.3856 61.9416C60.3839 61.963 60.3792 62.0056 60.3461 62.0109C60.2144 62.3427 60.1158 62.6692 60.0162 62.996C60.0153 62.9964 60.0159 62.9982 59.9865 63.0011C59.9465 63.0922 59.936 63.1802 59.9217 63.2963C59.8888 63.3936 59.8596 63.4629 59.7996 63.5393C59.3746 64.2637 58.9735 64.9772 58.5905 65.7003C58.4696 65.9286 58.3974 66.1826 58.3019 66.4248C58.3009 66.4247 58.3025 66.4262 58.2709 66.429C58.1719 66.486 58.0885 66.5287 58.0396 66.5963C57.3408 67.5644 56.6455 68.5351 55.9519 69.507C55.7661 69.7675 55.5888 70.0341 55.3962 70.3231C55.3061 70.4248 55.2273 70.5012 55.1158 70.5798C55.0126 70.7002 54.9422 70.8184 54.8626 70.9558C54.8374 70.9992 54.8164 71.0177 54.7576 71.0321C54.6557 71.1511 54.5865 71.2685 54.5163 71.3873C54.5153 71.3887 54.5146 71.3922 54.4836 71.3948C54.2359 71.7944 53.9461 72.1696 53.8202 72.5936C53.64 73.2004 53.8691 73.7333 54.2751 73.9626C54.6878 74.1956 55.5251 74.1191 55.8795 73.7982C55.9457 73.7642 55.9947 73.7496 56.0625 73.7592C56.131 73.888 56.1807 73.9927 56.2199 74.116C56.1919 74.1581 56.1698 74.1758 56.1182 74.202C56.0726 74.2878 56.0518 74.3592 56.0101 74.4481C55.9205 74.524 55.8519 74.5826 55.751 74.6421C55.558 74.8517 55.3971 75.0604 55.226 75.288C55.1982 75.3306 55.1759 75.3483 55.1277 75.3684C55.0905 75.4017 55.0745 75.4267 55.0455 75.474C54.9813 75.5415 54.9302 75.5868 54.8577 75.64C54.8202 75.6727 54.804 75.6975 54.7744 75.7444C54.7098 75.8113 54.6584 75.856 54.5736 75.9002C54.3212 76.1109 54.1021 76.3223 53.8718 76.5516C53.842 76.5915 53.8192 76.6076 53.759 76.6181C53.5673 76.7702 53.4087 76.922 53.2394 77.092C53.2104 77.1325 53.1878 77.1488 53.1275 77.1595C52.9669 77.2824 52.8395 77.4049 52.7006 77.5451C52.6706 77.585 52.6482 77.6019 52.5886 77.6135C52.3065 77.8237 52.0578 78.0341 51.8079 78.2439C51.8066 78.2433 51.8063 78.2461 51.7735 78.2455C51.6428 78.3348 51.5449 78.4246 51.4461 78.5138C51.4453 78.5131 51.4453 78.5152 51.425 78.5237C51.3796 78.5492 51.3611 78.5717 51.3294 78.6023C51.3097 78.6051 51.2703 78.6103 51.2365 78.6084C50.9518 78.7852 50.7008 78.9637 50.4175 79.1435C50.285 79.2331 50.1849 79.3215 50.0653 79.4129C50.0459 79.4159 50.0071 79.4218 49.9746 79.42C49.8732 79.478 49.8043 79.5378 49.734 79.5979C49.7326 79.5982 49.7308 79.6005 49.6968 79.5991C49.2939 79.8377 48.9249 80.0777 48.5398 80.3379C48.4758 80.3753 48.4278 80.3925 48.3615 80.3874C48.0846 80.5301 47.8262 80.6952 47.5669 80.8596C47.566 80.8589 47.5659 80.861 47.5299 80.8603C47.2898 80.8671 47.0536 80.8188 47.0245 81.1299C47.0241 81.1295 47.0246 81.1304 46.9879 81.13C46.3614 81.369 45.7664 81.5965 45.1841 81.8528C44.9111 81.973 44.6625 82.1488 44.3829 82.3015C44.3628 82.3037 44.3228 82.3079 44.2859 82.306C44.1052 82.3348 43.9572 82.3531 43.818 82.3982C43.1869 82.6029 42.5535 82.8022 41.9306 83.0298C41.6023 83.1497 41.2937 83.3236 40.9555 83.4747C40.9347 83.4763 40.8931 83.4792 40.8533 83.4777C39.8631 83.677 38.9149 83.8881 37.9619 84.0752C37.2226 84.2203 36.4774 84.3354 35.7454 84.4312C35.7865 84.3673 35.8126 84.3157 35.8483 84.3078C37.7231 83.8942 39.442 83.0828 41.1113 82.1756C42.8911 81.2083 44.5352 80.0273 46.0185 78.6467C47.9214 76.8756 49.6843 74.9678 51.0209 72.7246C51.8225 71.3793 52.5521 69.9822 53.1986 68.5561C53.7214 67.4028 54.0983 66.1799 54.4877 64.9711C54.6931 64.3336 54.7869 63.6601 54.9556 62.8911C54.3983 63.3305 53.998 63.7198 53.5317 63.9985C52.53 64.5973 51.5034 64.6483 50.4983 63.9635C49.7955 63.4847 49.3658 62.2632 49.6144 61.2474C49.9196 60.0006 50.2795 58.7672 50.6107 57.5267C51.1626 55.4598 51.2118 53.3959 50.4919 51.3588C50.077 50.1846 50.2235 50.2996 49.2532 50.9659C47.9288 51.8755 46.5116 52.3599 44.9076 51.6969C43.4139 51.0795 42.5701 49.9144 42.1638 48.4074C41.7682 46.9404 42.0301 45.4639 42.187 43.9928C42.2962 42.9689 42.4614 41.9471 42.5004 40.9205C42.5636 39.2588 42.4546 37.6073 42.1758 35.9561C41.7622 33.5061 41.0899 31.1451 40.069 28.8847C39.1426 26.8334 38.005 24.905 36.6059 23.137C35.5434 21.7942 34.387 20.5392 33.0827 19.426C32.7837 19.1708 32.468 18.9351 32.0508 18.6037C32.0508 18.9078 32.0564 19.0659 32.0499 19.2236C32.0169 20.0317 32.0591 20.8522 31.9313 21.6452C31.526 24.1604 30.4733 26.4273 28.9786 28.4632C27.9803 29.8229 26.7945 31.0433 25.7482 32.3699C24.2171 34.3114 22.899 36.3893 21.8451 38.6362C20.4241 41.6655 19.8063 44.8725 19.5949 48.1833C19.535 49.1212 19.4803 50.0672 19.3109 50.9888C18.9799 52.7896 18.2797 54.4339 16.9075 55.7093C15.8662 56.677 14.6034 57.2512 13.1915 57.1014C10.979 56.8666 9.19253 55.7682 7.83309 53.9977C7.53744 53.6127 7.25268 53.2192 6.93081 52.7865C6.86468 52.9402 6.8064 53.0186 6.79916 53.1014C6.73016 53.8903 6.623 54.6796 6.61756 55.4695C6.60858 56.7735 6.63552 58.0798 6.70736 59.3818C6.75905 60.3189 6.84525 61.2632 7.02866 62.1818C7.32099 63.646 7.6659 65.1028 8.06368 66.542C8.57964 68.4088 9.352 70.1842 10.2623 71.8892C10.8159 72.9263 11.4768 73.9072 12.1098 74.9004C13.3113 76.7856 14.839 78.4017 16.5115 79.8536C18.436 81.5243 20.5854 82.8761 23.0025 83.7588C23.3878 83.8995 23.7482 84.1083 24.0847 84.2871C23.9788 84.2913 23.9082 84.2939 23.7977 84.2935C23.5443 84.289 23.3306 84.2877 23.1168 84.2866C23.1167 84.2868 23.1172 84.2863 23.11 84.2525C22.6853 84.1522 22.2678 84.0859 21.8292 84.0183C21.8081 84.0172 21.7659 84.0148 21.7582 83.9819C21.093 83.792 20.4355 83.6351 19.7776 83.477C19.7771 83.4759 19.775 83.4772 19.7699 83.4441C19.4984 83.3431 19.2321 83.2753 18.9654 83.2061C18.9651 83.2048 18.9634 83.2069 18.958 83.1738C18.5541 82.9855 18.1565 82.8275 17.7549 82.6804C17.7206 82.6678 17.6594 82.7286 17.5849 82.7516C17.5158 82.7217 17.4725 82.6954 17.4163 82.6399C16.9019 82.4187 16.4005 82.2267 15.8986 82.0337C15.8981 82.0326 15.8957 82.0333 15.8913 82.0012C15.4396 81.7808 14.9924 81.5925 14.5447 81.4028C14.5442 81.4015 14.5416 81.4027 14.5378 81.3702C14.3573 81.2695 14.1806 81.2014 14.0035 81.132C14.0031 81.1307 14.0006 81.1319 13.9965 81.0995C13.8159 80.9986 13.6394 80.9301 13.4627 80.8604C13.4624 80.8593 13.4603 80.8605 13.457 80.8274C13.3063 80.7278 13.1589 80.6612 13.01 80.5936C13.0086 80.5926 13.0056 80.5907 13.0035 80.5575C12.8541 80.4571 12.7069 80.39 12.5593 80.3212C12.5589 80.3197 12.5559 80.3205 12.5524 80.2888C12.4024 80.1884 12.2558 80.1197 12.1087 80.05C12.1081 80.049 12.1054 80.0496 12.102 80.0187C11.7708 79.7985 11.443 79.6092 11.1153 79.4187C11.1155 79.4174 11.1137 79.4172 11.1103 79.3859C11.0201 79.3155 10.9334 79.2762 10.8468 79.236C10.8468 79.235 10.8449 79.236 10.8411 79.2049C10.66 79.0741 10.4829 78.9745 10.3059 78.8744C10.306 78.8738 10.305 78.8742 10.3016 78.8421C10.1804 78.7423 10.0627 78.6746 9.94435 78.6058C9.94378 78.6046 9.94123 78.6048 9.93776 78.5736C9.75645 78.4423 9.5786 78.3422 9.37542 78.2301C9.28057 78.194 9.21105 78.17 9.14153 78.146C9.1261 78.1391 9.11066 78.1321 9.07842 78.0871C9.05724 78.0238 9.05262 77.9988 9.06842 77.9542C8.86301 77.7688 8.63693 77.6029 8.40963 77.4359C8.40841 77.4348 8.40568 77.433 8.38861 77.4084C8.31438 77.3788 8.25723 77.3737 8.20008 77.3686C8.20008 77.3686 8.21382 77.3394 8.21751 77.3193C8.22085 77.0042 8.05433 76.8892 7.77935 76.8907C7.77929 76.8897 7.77771 76.8895 7.76832 76.8693C7.74018 76.8235 7.71518 76.8085 7.65627 76.7999C7.59156 76.795 7.55448 76.794 7.5174 76.793C7.5174 76.793 7.49508 76.7805 7.49881 76.7406C7.44483 76.6721 7.38713 76.6435 7.32941 76.6149C7.27529 76.5733 7.22117 76.5318 7.16 76.4322C7.10915 76.0056 7.07654 75.978 6.85562 76.1367C6.84357 76.1409 6.8202 76.1512 6.8202 76.1512C6.79265 76.1307 6.7651 76.1102 6.72033 76.0393C6.61069 75.8689 6.51826 75.7491 6.41677 75.6082C6.38267 75.5706 6.35763 75.5542 6.30717 75.5337C6.24763 75.5273 6.21352 75.5249 6.17941 75.5225C6.17941 75.5225 6.16786 75.5235 6.16667 75.4908C6.1327 75.3945 6.09992 75.3308 6.06398 75.2352C5.76154 74.8933 5.46227 74.5833 5.15029 74.2443C4.96486 74.027 4.79215 73.8386 4.61765 73.6486C4.61585 73.6469 4.61464 73.6422 4.60704 73.6224C4.58276 73.5778 4.55985 73.5621 4.5303 73.5543C4.52989 73.553 4.52724 73.5525 4.52822 73.5196C4.43938 73.3892 4.34956 73.2916 4.26012 73.1928C4.26051 73.1915 4.25794 73.191 4.2588 73.1595C4.16974 73.0292 4.07982 72.9304 3.99027 72.8307C3.99064 72.8298 3.98874 72.8298 3.97975 72.8094C3.9526 72.7634 3.92829 72.747 3.87651 72.7276C3.81424 72.6655 3.77329 72.6157 3.74515 72.5543C3.74367 72.519 3.7294 72.4952 3.691 72.4674C3.63455 72.4601 3.60221 72.4568 3.56987 72.4535C3.56987 72.4535 3.55416 72.4451 3.55251 72.4251C3.55086 72.405 3.51857 72.3753 3.51857 72.3753C3.50427 72.3639 3.48997 72.3526 3.46474 72.2892C3.40591 72.1894 3.35801 72.1416 3.31011 72.0938C3.2859 72.0749 3.26833 72.0511 3.25568 71.9718C3.23349 71.8908 3.21304 71.8604 3.18018 71.8105C3.12775 71.7709 3.08773 71.7508 3.04771 71.7307C3.01288 71.6873 2.97804 71.6439 2.93553 71.5597C2.92786 71.519 2.93503 71.4868 2.96159 71.4782C2.89125 71.2155 2.79435 70.9615 2.67333 70.6442C2.95873 70.7523 3.20318 70.8449 3.46131 70.9654C3.58741 71.0627 3.69984 71.1321 3.81197 71.2033C3.81168 71.205 3.81438 71.2028 3.81808 71.2346C3.96989 71.3344 4.11802 71.4024 4.2868 71.4721C4.30745 71.4738 4.34871 71.4778 4.35698 71.4929C4.39337 71.5027 4.42149 71.4974 4.46635 71.5005C4.50435 71.5236 4.5201 71.5427 4.53632 71.5986C4.7218 71.6961 4.9013 71.7614 5.10165 71.8286C5.1225 71.8304 5.16416 71.8344 5.17996 71.8636C5.59736 72.1761 6.0179 72.1191 6.41942 71.9199C6.93058 71.6662 7.07519 70.854 6.69619 70.4859C6.69616 70.4846 6.69446 70.4829 6.6991 70.4513C6.61097 70.1716 6.51821 69.9235 6.42543 69.6741C6.42541 69.6728 6.42356 69.6716 6.41624 69.6515C6.39322 69.607 6.37242 69.588 6.34464 69.5537C6.34277 69.5329 6.33827 69.4913 6.33809 69.4553C6.32709 69.2165 6.38011 68.9763 6.06412 68.9522C6.06443 68.9512 6.06308 68.9519 6.06098 68.9235C6.00588 68.8494 5.95288 68.8038 5.88649 68.7374C5.84765 68.6745 5.82221 68.6324 5.79477 68.5634C5.76277 68.4959 5.73276 68.4552 5.70174 68.4132C5.70073 68.412 5.69764 68.4108 5.69904 68.377C5.60617 68.1827 5.53083 68.0066 5.41372 67.8651C5.16002 67.5585 4.88495 67.2695 4.61858 66.9716C4.61854 66.9698 4.6164 66.9673 4.61169 66.9517C4.58037 66.9373 4.55376 66.9385 4.51399 66.9386C4.50084 66.9375 4.47586 66.9461 4.47586 66.9461C4.47586 66.9461 4.45786 66.9369 4.45565 66.9179C4.45343 66.8989 4.42701 66.8753 4.42701 66.8753C4.41236 66.8614 4.39771 66.8475 4.37559 66.7881C4.36811 66.7425 4.37405 66.7054 4.40085 66.6966C4.44732 66.6397 4.49792 66.5725 4.48185 66.5466C4.3218 66.2885 4.16556 66.0256 3.97822 65.7877C3.82176 65.589 3.62525 65.4218 3.42647 65.2314C3.36887 65.1991 3.33126 65.1761 3.29365 65.153C3.29365 65.153 3.26886 65.1253 3.27267 65.0746C3.34385 64.827 3.38794 64.6412 3.06166 64.617C3.00871 64.6097 2.97826 64.6069 2.94782 64.6042C2.94782 64.6041 2.91853 64.5758 2.91693 64.5257C2.9118 64.4349 2.90828 64.3942 2.90568 64.318C2.66175 63.7811 2.4193 63.2785 2.16712 62.7809C2.14852 62.7442 2.0597 62.743 1.98786 62.7146C1.95303 62.6862 1.93933 62.6651 1.95132 62.6162C1.85972 62.3382 1.7479 62.0844 1.61795 61.8191C1.57784 61.788 1.56218 61.7642 1.5643 61.7094C1.50554 61.5214 1.43535 61.3604 1.34527 61.1821C1.31086 61.1148 1.29634 61.0649 1.29451 61.0093C1.29836 61.0071 1.28951 61.0104 1.26021 60.9977C1.22402 60.9325 1.2083 60.8835 1.19356 60.7965C0.935611 59.8055 0.677479 58.852 0.4134 57.9003C0.406436 57.8752 0.334826 57.868 0.293029 57.8114C0.201619 57.1227 0.0524224 56.477 0.0317474 55.8271C-0.00947982 54.5313 -0.0123858 53.2321 0.033855 51.9366C0.056475 51.3029 0.197355 50.6683 0.335005 50.0452C0.464142 49.4606 0.655976 48.8897 0.826877 48.3147C0.98465 47.7839 1.15744 47.2575 1.30849 46.7248C1.33688 46.6247 1.29405 46.5044 1.29323 46.3739C1.31747 46.3289 1.33795 46.309 1.39611 46.2932C1.47224 46.0861 1.51606 45.8804 1.56324 45.6547C1.56661 45.6346 1.57754 45.5953 1.60977 45.5914C1.76573 45.3996 1.92003 45.2249 2.00723 45.0214C2.23321 44.4942 2.42964 43.9543 2.66985 43.4136C2.96743 42.9534 3.24138 42.5037 3.49577 42.0432C3.67071 41.7265 3.8185 41.3948 3.98068 41.0679C3.98294 41.066 3.98819 41.0633 4.02057 41.0623C4.21123 40.7929 4.36952 40.5245 4.53199 40.2313C4.5639 40.167 4.59162 40.1277 4.63942 40.1083C4.76208 39.9172 4.86467 39.7061 4.96727 39.495C4.98516 39.4555 5.00306 39.4159 5.0659 39.37C5.12822 39.3626 5.14559 39.3616 5.18333 39.3504C5.21904 39.3147 5.23437 39.2891 5.26115 39.242C5.30006 39.1801 5.32752 39.1397 5.3874 39.0953C5.48395 38.9988 5.54807 38.9063 5.62272 38.7955C5.65099 38.7545 5.67263 38.7366 5.72779 38.7124C5.85929 38.5584 5.96117 38.4155 6.07504 38.2496C6.13804 38.1811 6.18905 38.1357 6.27816 38.0916C6.65058 38.0647 6.61501 38.2986 6.60813 38.5083C6.57946 39.383 6.54133 40.2575 6.52796 41.1324C6.52598 41.2617 6.63821 41.3928 6.69834 41.5238C6.69907 41.5245 6.70103 41.5246 6.69898 41.5604C6.69865 41.6915 6.70037 41.7868 6.67863 41.9025C6.75908 42.2411 6.86301 42.5593 6.96741 42.8777C6.9679 42.878 6.96816 42.879 6.96732 42.9172C7.02307 43.2275 7.07161 43.5019 7.1436 43.7699C7.15672 43.8188 7.26549 43.842 7.34763 43.8802C7.38831 43.8894 7.41183 43.8915 7.43569 43.8895C7.45672 43.9226 7.47774 43.9557 7.49564 44.0378C7.49251 44.0869 7.48749 44.1288 7.46181 44.1375C7.43238 44.2338 7.42863 44.3214 7.42489 44.409C7.48391 44.4106 7.54293 44.4122 7.62054 44.4175C7.66367 44.4286 7.68869 44.4313 7.71421 44.4296C7.73371 44.4618 7.7532 44.4941 7.77377 44.5854C7.77977 44.6855 7.78469 44.7265 7.76784 44.7827C7.78875 44.8464 7.83145 44.895 7.87592 44.9452C7.87769 44.9468 7.87914 44.9515 7.87714 44.9839C7.96494 45.3241 8.00713 45.352 8.25612 45.2675C8.287 45.2752 8.30967 45.2932 8.32599 45.3742C8.35662 45.4773 8.38537 45.5279 8.41478 45.5798C8.41542 45.5812 8.41756 45.5833 8.42606 45.6035C8.45265 45.6491 8.47708 45.6642 8.53011 45.6818C8.59727 45.7457 8.64218 45.7966 8.705 45.8739C8.78398 45.9101 8.84504 45.92 8.90609 45.9299C8.90609 45.9299 8.93341 45.9307 8.94036 45.977C8.95862 46.3668 9.11483 46.479 9.4353 46.3293C9.49418 46.356 9.55307 46.3827 9.63987 46.4532C9.69641 46.5279 9.72503 46.5589 9.76193 46.6198C9.98499 46.8996 10.1929 47.1684 10.6059 46.9496C10.6736 46.9762 10.716 47.0006 10.7612 47.0519C10.824 47.0887 10.8839 47.0986 10.9723 47.1116C11.0391 47.1168 11.0774 47.1188 11.1251 47.1559C11.5459 47.2118 11.9575 47.2474 12.3686 47.2425C12.464 47.2414 12.5577 47.1024 12.6685 47.008C12.7319 46.9744 12.7788 46.9596 12.8365 46.9581C12.8716 46.9592 12.8961 46.9468 12.9377 46.915C13.003 46.8785 13.0512 46.8614 13.127 46.8439C13.1969 46.8136 13.2393 46.7838 13.2983 46.7338C13.3634 46.6955 13.412 46.6774 13.473 46.6749C13.5073 46.6528 13.5291 46.6151 13.5521 46.5767C13.5533 46.576 13.5547 46.5737 13.5747 46.565C13.6195 46.5389 13.6368 46.5158 13.6494 46.465C13.6523 46.4427 13.6465 46.3982 13.6465 46.3982C13.6962 46.3497 13.746 46.3012 13.8476 46.2357C13.966 46.1293 14.0326 46.0398 14.0993 45.9503C14.0993 45.9503 14.095 45.9455 14.1204 45.9402C14.1592 45.9077 14.1724 45.8804 14.1857 45.8531Z" fill="#E52A24"/>
<path d="M27.2783 84.8085C26.4136 84.6536 25.5492 84.4974 24.6841 84.345C24.5232 84.3166 24.3595 84.3038 24.1592 84.2836C23.7495 84.1061 23.3891 83.8974 23.0038 83.7567C20.5867 82.8739 18.4373 81.5221 16.5128 79.8514C14.8403 78.3995 13.3126 76.7835 12.1111 74.8983C11.4781 73.905 10.8172 72.9241 10.2636 71.8871C9.35329 70.182 8.58093 68.4066 8.06498 66.5399C7.6672 65.1007 7.32229 63.6438 7.02996 62.1797C6.84655 61.261 6.76035 60.3167 6.70865 59.3797C6.63682 58.0776 6.60987 56.7714 6.61885 55.4673C6.6243 54.6775 6.73146 53.8881 6.80045 53.0992C6.80769 53.0164 6.86598 52.938 6.93211 52.7844C7.25398 53.2171 7.53873 53.6105 7.83439 53.9956C9.19382 55.766 10.9803 56.8644 13.1928 57.0992C14.6047 57.2491 15.8675 56.6748 16.9088 55.7071C18.281 54.4317 18.9812 52.7874 19.3122 50.9866C19.4816 50.065 19.5363 49.119 19.5962 48.1811C19.8076 44.8703 20.4254 41.6633 21.8464 38.634C22.9003 36.3871 24.2184 34.3092 25.7495 32.3678C26.7958 31.0411 27.9816 29.8208 28.9799 28.461C30.4746 26.4251 31.5273 24.1582 31.9326 21.643C32.0604 20.85 32.0182 20.0295 32.0512 19.2215C32.0577 19.0638 32.0521 18.9056 32.0521 18.6016C32.4693 18.933 32.785 19.1686 33.084 19.4238C34.3883 20.537 35.5446 21.792 36.6072 23.1348C38.0063 24.9028 39.1439 26.8312 40.0703 28.8825C41.0912 31.1429 41.7635 33.504 42.1771 35.954C42.4559 37.6051 42.5649 39.2566 42.5017 40.9183C42.4627 41.9449 42.2975 42.9667 42.1883 43.9906C42.0314 45.4617 41.7695 46.9383 42.1651 48.4052C42.5714 49.9122 43.4152 51.0773 44.9089 51.6947C46.5129 52.3578 47.9301 51.8733 49.2545 50.9637C50.2248 50.2974 50.0783 50.1824 50.4932 51.3566C51.2131 53.3937 51.1639 55.4576 50.612 57.5246C50.2808 58.7651 49.9209 59.9984 49.6157 61.2452C49.3671 62.261 49.7968 63.4826 50.4996 63.9614C51.5046 64.6462 52.5313 64.5951 53.533 63.9963C53.9993 63.7176 54.3996 63.3283 54.9569 62.8889C54.7882 63.6579 54.6944 64.3314 54.489 64.969C54.0996 66.1778 53.7227 67.4007 53.1999 68.5539C52.5534 69.98 51.8238 71.3771 51.0222 72.7224C49.6856 74.9656 47.9227 76.8734 46.0198 78.6445C44.5365 80.0251 42.8924 81.2061 41.1126 82.1734C39.4432 83.0806 37.7244 83.892 35.8496 84.3056C35.8139 84.3135 35.7878 84.3651 35.7467 84.429C35.2403 84.5391 34.7443 84.6164 34.2244 84.7213C33.9835 84.7728 33.7666 84.7967 33.5248 84.7855C33.6459 84.6856 33.7905 84.6175 33.938 84.5567C34.9298 84.1476 35.9792 83.8391 36.9014 83.3091C38.3039 82.5029 39.5686 81.495 40.6017 80.2125C41.6874 78.8647 42.4903 77.3752 42.9686 75.7232C43.4657 74.0062 43.7106 72.261 43.5232 70.4543C43.3726 69.0022 43.123 67.5813 42.626 66.2132C41.9094 64.2405 40.7418 62.5543 39.28 61.0561C38.7587 60.5218 38.2661 59.9522 37.8177 59.3556C36.6751 57.8354 35.7545 56.1952 35.1288 54.3853C34.5861 52.8157 34.2631 51.2092 34.2309 49.5598C34.2088 48.4263 34.2898 47.2846 34.414 46.1564C34.5013 45.3641 34.7345 44.5873 34.9113 43.8055C35.0314 43.2746 35.1666 42.7471 35.3238 42.0997C35.0467 42.2584 34.86 42.3412 34.7006 42.4605C32.9731 43.7533 31.2614 45.0646 29.8628 46.7307C29.4588 47.2121 28.9911 47.6506 28.6511 48.1729C27.8867 49.3472 27.1591 50.5475 26.4627 51.7636C25.6698 53.1482 25.1814 54.6576 24.8397 56.2084C24.6572 57.037 24.5075 57.8819 24.4505 58.7267C24.3784 59.7946 24.3671 60.8722 24.4194 61.9411C24.4732 63.0396 24.7607 64.1292 24.5558 65.2365C24.3965 66.0973 23.9996 66.8255 23.1974 67.2427C22.0772 67.8253 21.0427 67.4696 20.0797 66.8404C19.6409 66.5537 19.2681 66.166 18.8611 65.8205C18.754 66.1611 18.6111 66.5962 18.4802 67.0348C18.0001 68.644 17.6669 70.2862 17.6337 71.9645C17.6173 72.7929 17.7784 73.6269 17.8844 74.4551C18.098 76.1237 18.7038 77.6581 19.5743 79.0836C20.3598 80.3698 21.3483 81.4782 22.5408 82.4197C23.6126 83.2658 24.7795 83.8959 26.0686 84.3244C26.48 84.4611 26.8755 84.6458 27.2783 84.8085Z" fill="#F3670B"/>
<path d="M8.14853 28.1095C8.04051 28.531 7.96714 28.9262 7.83039 29.2981C7.46718 30.2859 6.94339 31.1981 6.201 31.9369C5.21523 32.9179 4.15859 33.8279 3.12543 34.7607C3.03708 34.8405 2.89642 34.8623 2.78006 34.9111C2.73057 34.7797 2.63968 34.6489 2.63816 34.517C2.62627 33.488 2.51176 32.4406 2.66512 31.4349C2.81951 30.4224 3.19204 29.4306 3.56674 28.4678C3.98281 27.3988 4.84242 26.6618 5.65498 25.875C6.5421 25.0161 7.29489 24.0166 7.66675 22.7927C7.73011 22.5842 7.85033 22.393 8.0012 22.2148C8.57246 24.1749 8.74856 26.116 8.14853 28.1095Z" fill="#D23E32"/>
<path d="M27.3098 84.8146C26.868 84.6477 26.4725 84.463 26.0611 84.3263C24.7719 83.8978 23.605 83.2677 22.5333 82.4216C21.3408 81.4801 20.3523 80.3718 19.5668 79.0855C18.6963 77.66 18.0904 76.1256 17.8769 74.4571C17.7709 73.6288 17.6098 72.7948 17.6262 71.9665C17.6594 70.2881 17.9925 68.6459 18.4727 67.0367C18.6036 66.5981 18.7464 66.163 18.8536 65.8224C19.2606 66.1679 19.6333 66.5556 20.0721 66.8423C21.0352 67.4715 22.0697 67.8272 23.1898 67.2446C23.9921 66.8274 24.389 66.0992 24.5483 65.2384C24.7532 64.1311 24.4657 63.0415 24.4119 61.9431C24.3595 60.8741 24.3709 59.7965 24.443 58.7286C24.5 57.8838 24.6496 57.0389 24.8322 56.2103C25.1738 54.6595 25.6623 53.1501 26.4552 51.7655C27.1516 50.5494 27.8791 49.3491 28.6435 48.1748C28.9835 47.6525 29.4512 47.214 29.8553 46.7326C31.2539 45.0665 32.9655 43.7552 34.6931 42.4624C34.8525 42.3431 35.0392 42.2603 35.3163 42.1016C35.1591 42.749 35.0238 43.2765 34.9038 43.8074C34.727 44.5892 34.4938 45.366 34.4065 46.1583C34.2822 47.2865 34.2012 48.4282 34.2233 49.5617C34.2555 51.2111 34.5785 52.8176 35.1212 54.3872C35.747 56.1971 36.6676 57.8373 37.8102 59.3575C38.2586 59.9541 38.7512 60.5237 39.2725 61.058C40.7342 62.5562 41.9019 64.2424 42.6185 66.2151C43.1155 67.5833 43.3651 69.0041 43.5157 70.4562C43.7031 72.2629 43.4581 74.0081 42.961 75.7251C42.4827 77.3771 41.6798 78.8666 40.5942 80.2144C39.5611 81.4969 38.2964 82.5048 36.8938 83.311C35.9717 83.841 34.9223 84.1495 33.9304 84.5586C33.7829 84.6194 33.6384 84.6875 33.4804 84.7823C32.9259 84.8501 32.3834 84.888 31.7641 84.926C31.5153 84.9504 31.3433 84.9746 31.1713 84.9989C30.608 85.0008 30.0448 85.0028 29.4258 84.9794C29.3035 84.9487 29.2371 84.9433 29.1707 84.938C28.8596 84.9312 28.5484 84.9244 28.1943 84.9174C27.8839 84.8845 27.6164 84.8516 27.3098 84.8146Z" fill="#FB9018"/>
<path d="M90.5691 78V18.4H102.969V78H90.5691ZM112.658 78V34.32H123.858V42.96L123.218 41.04C124.231 38.4267 125.858 36.5067 128.098 35.28C130.391 34 133.058 33.36 136.098 33.36C139.404 33.36 142.284 34.0533 144.738 35.44C147.244 36.8267 149.191 38.7733 150.578 41.28C151.964 43.7333 152.658 46.6133 152.658 49.92V78H140.658V52.48C140.658 50.7733 140.311 49.3067 139.618 48.08C138.978 46.8533 138.044 45.8933 136.818 45.2C135.644 44.5067 134.258 44.16 132.658 44.16C131.111 44.16 129.724 44.5067 128.498 45.2C127.271 45.8933 126.311 46.8533 125.618 48.08C124.978 49.3067 124.658 50.7733 124.658 52.48V78H112.658ZM181.588 78.48C176.308 78.48 172.202 77.0667 169.268 74.24C166.388 71.36 164.948 67.36 164.948 62.24V44.72H157.588V34.32H157.988C160.228 34.32 161.935 33.76 163.108 32.64C164.335 31.52 164.948 29.84 164.948 27.6V24.4H176.948V34.32H187.188V44.72H176.948V61.44C176.948 62.9333 177.215 64.1867 177.748 65.2C178.282 66.16 179.108 66.88 180.228 67.36C181.348 67.84 182.735 68.08 184.388 68.08C184.762 68.08 185.188 68.0533 185.668 68C186.148 67.9467 186.655 67.8933 187.188 67.84V78C186.388 78.1067 185.482 78.2133 184.468 78.32C183.455 78.4267 182.495 78.48 181.588 78.48ZM215.26 78.96C210.62 78.96 206.594 77.9467 203.18 75.92C199.767 73.84 197.127 71.0667 195.26 67.6C193.394 64.1333 192.46 60.2933 192.46 56.08C192.46 51.7067 193.42 47.8133 195.34 44.4C197.314 40.9867 199.954 38.2933 203.26 36.32C206.567 34.3467 210.3 33.36 214.46 33.36C217.927 33.36 220.994 33.92 223.66 35.04C226.327 36.1067 228.567 37.6267 230.38 39.6C232.247 41.5733 233.66 43.8667 234.62 46.48C235.58 49.04 236.06 51.84 236.06 54.88C236.06 55.7333 236.007 56.5867 235.9 57.44C235.847 58.24 235.714 58.9333 235.5 59.52H202.78V50.72H228.7L223.02 54.88C223.554 52.5867 223.527 50.56 222.94 48.8C222.354 46.9867 221.314 45.5733 219.82 44.56C218.38 43.4933 216.594 42.96 214.46 42.96C212.38 42.96 210.594 43.4667 209.1 44.48C207.607 45.4933 206.487 46.9867 205.74 48.96C204.994 50.9333 204.7 53.3333 204.86 56.16C204.647 58.6133 204.94 60.7733 205.74 62.64C206.54 64.5067 207.767 65.9733 209.42 67.04C211.074 68.0533 213.074 68.56 215.42 68.56C217.554 68.56 219.367 68.1333 220.86 67.28C222.407 66.4267 223.607 65.2533 224.46 63.76L234.06 68.32C233.207 70.4533 231.847 72.32 229.98 73.92C228.167 75.52 226.007 76.7733 223.5 77.68C220.994 78.5333 218.247 78.96 215.26 78.96ZM243.127 78V34.32H254.327V42.96L253.687 41.04C254.7 38.4267 256.327 36.5067 258.567 35.28C260.86 34 263.527 33.36 266.567 33.36C269.873 33.36 272.753 34.0533 275.207 35.44C277.713 36.8267 279.66 38.7733 281.047 41.28C282.433 43.7333 283.127 46.6133 283.127 49.92V78H271.127V52.48C271.127 50.7733 270.78 49.3067 270.087 48.08C269.447 46.8533 268.513 45.8933 267.287 45.2C266.113 44.5067 264.727 44.16 263.127 44.16C261.58 44.16 260.193 44.5067 258.967 45.2C257.74 45.8933 256.78 46.8533 256.087 48.08C255.447 49.3067 255.127 50.7733 255.127 52.48V78H243.127ZM312.057 78.48C306.777 78.48 302.671 77.0667 299.737 74.24C296.857 71.36 295.417 67.36 295.417 62.24V44.72H288.057V34.32H288.457C290.697 34.32 292.404 33.76 293.577 32.64C294.804 31.52 295.417 29.84 295.417 27.6V24.4H307.417V34.32H317.657V44.72H307.417V61.44C307.417 62.9333 307.684 64.1867 308.217 65.2C308.751 66.16 309.577 66.88 310.697 67.36C311.817 67.84 313.204 68.08 314.857 68.08C315.231 68.08 315.657 68.0533 316.137 68C316.617 67.9467 317.124 67.8933 317.657 67.84V78C316.857 78.1067 315.951 78.2133 314.937 78.32C313.924 78.4267 312.964 78.48 312.057 78.48ZM349.169 78.96C346.182 78.96 343.409 78.4267 340.849 77.36C338.342 76.24 336.316 74.6133 334.769 72.48L335.889 70V78H324.689V17.44H336.689V42.64L334.849 40.24C336.289 38.0533 338.236 36.3733 340.689 35.2C343.196 33.9733 346.049 33.36 349.249 33.36C353.409 33.36 357.169 34.3733 360.529 36.4C363.889 38.4267 366.556 41.1733 368.529 44.64C370.502 48.0533 371.489 51.8933 371.489 56.16C371.489 60.3733 370.502 64.2133 368.529 67.68C366.609 71.1467 363.969 73.8933 360.609 75.92C357.249 77.9467 353.436 78.96 349.169 78.96ZM347.729 68.16C349.969 68.16 351.942 67.6533 353.649 66.64C355.356 65.6267 356.689 64.2133 357.649 62.4C358.609 60.5867 359.089 58.5067 359.089 56.16C359.089 53.8133 358.609 51.76 357.649 50C356.689 48.1867 355.356 46.7733 353.649 45.76C351.942 44.6933 349.969 44.16 347.729 44.16C345.596 44.16 343.676 44.6667 341.969 45.68C340.316 46.6933 339.009 48.1067 338.049 49.92C337.142 51.7333 336.689 53.8133 336.689 56.16C336.689 58.5067 337.142 60.5867 338.049 62.4C339.009 64.2133 340.316 65.6267 341.969 66.64C343.676 67.6533 345.596 68.16 347.729 68.16ZM400.197 78.96C395.877 78.96 391.931 77.9733 388.357 76C384.837 74.0267 382.011 71.3333 379.877 67.92C377.797 64.4533 376.757 60.5333 376.757 56.16C376.757 51.7333 377.797 47.8133 379.877 44.4C382.011 40.9867 384.837 38.2933 388.357 36.32C391.931 34.3467 395.877 33.36 400.197 33.36C404.517 33.36 408.437 34.3467 411.957 36.32C415.477 38.2933 418.277 40.9867 420.357 44.4C422.491 47.8133 423.557 51.7333 423.557 56.16C423.557 60.5333 422.491 64.4533 420.357 67.92C418.277 71.3333 415.477 74.0267 411.957 76C408.437 77.9733 404.517 78.96 400.197 78.96ZM400.197 68.16C402.384 68.16 404.277 67.6533 405.877 66.64C407.531 65.6267 408.811 64.2133 409.717 62.4C410.677 60.5867 411.157 58.5067 411.157 56.16C411.157 53.8133 410.677 51.76 409.717 50C408.811 48.1867 407.531 46.7733 405.877 45.76C404.277 44.6933 402.384 44.16 400.197 44.16C398.011 44.16 396.091 44.6933 394.437 45.76C392.784 46.7733 391.477 48.1867 390.517 50C389.611 51.76 389.157 53.8133 389.157 56.16C389.157 58.5067 389.611 60.5867 390.517 62.4C391.477 64.2133 392.784 65.6267 394.437 66.64C396.091 67.6533 398.011 68.16 400.197 68.16ZM450.885 78.48C445.605 78.48 441.499 77.0667 438.565 74.24C435.685 71.36 434.245 67.36 434.245 62.24V44.72H426.885V34.32H427.285C429.525 34.32 431.232 33.76 432.405 32.64C433.632 31.52 434.245 29.84 434.245 27.6V24.4H446.245V34.32H456.485V44.72H446.245V61.44C446.245 62.9333 446.512 64.1867 447.045 65.2C447.579 66.16 448.405 66.88 449.525 67.36C450.645 67.84 452.032 68.08 453.685 68.08C454.059 68.08 454.485 68.0533 454.965 68C455.445 67.9467 455.952 67.8933 456.485 67.84V78C455.685 78.1067 454.779 78.2133 453.765 78.32C452.752 78.4267 451.792 78.48 450.885 78.48Z" fill="white"/>
</svg>
